<?xml version="1.0" encoding="UTF-8" standalone="no"?>
<!DOCTYPE svg PUBLIC "-//W3C//DTD SVG 1.1//EN"
 "http://www.w3.org/Graphics/SVG/1.1/DTD/svg11.dtd">
<!-- Generated by graphviz version 12.2.0 (20241103.1931)
 -->
<!-- Title: bcnp/transport/adapter.h Pages: 1 -->
<svg width="357pt" height="160pt"
 viewBox="0.00 0.00 357.00 160.25" xmlns="http://www.w3.org/2000/svg" xmlns:xlink="http://www.w3.org/1999/xlink">
<g id="graph0" class="graph" transform="scale(1 1) rotate(0) translate(4 156.25)">
<title>bcnp/transport/adapter.h</title>
<!-- Node1 -->
<g id="Node000001" class="node">
<title>Node1</title>
<g id="a_Node000001"><a xlink:title=" ">
<polygon fill="#999999" stroke="#666666" points="247,-152.25 126,-152.25 126,-133 247,-133 247,-152.25"/>
<text text-anchor="middle" x="186.5" y="-138.75" font-family="Helvetica,sans-Serif" font-size="10.00">bcnp/transport/adapter.h</text>
</a>
</g>
</g>
<!-- Node2 -->
<g id="Node000002" class="node">
<title>Node2</title>
<g id="a_Node000002"><a xlink:href="controller__driver_8h.html" target="_top" xlink:title=" ">
<polygon fill="white" stroke="#666666" points="121,-97 0,-97 0,-66.5 121,-66.5 121,-97"/>
<text text-anchor="start" x="8" y="-83.5" font-family="Helvetica,sans-Serif" font-size="10.00">bcnp/transport/controller</text>
<text text-anchor="middle" x="60.5" y="-72.25" font-family="Helvetica,sans-Serif" font-size="10.00">_driver.h</text>
</a>
</g>
</g>
<!-- Node1&#45;&gt;Node2 -->
<g id="edge1_Node000001_Node000002" class="edge">
<title>Node1&#45;&gt;Node2</title>
<g id="a_edge1_Node000001_Node000002"><a xlink:title=" ">
<path fill="none" stroke="#63b8ff" d="M156.66,-127.68C137.17,-118.58 111.76,-106.7 91.95,-97.44"/>
<polygon fill="#63b8ff" stroke="#63b8ff" points="155.18,-130.85 165.72,-131.91 158.14,-124.51 155.18,-130.85"/>
</a>
</g>
</g>
<!-- Node4 -->
<g id="Node000004" class="node">
<title>Node4</title>
<g id="a_Node000004"><a xlink:href="tcp__posix_8h.html" target="_top" xlink:title=" ">
<polygon fill="white" stroke="#666666" points="233.88,-97 139.12,-97 139.12,-66.5 233.88,-66.5 233.88,-97"/>
<text text-anchor="start" x="147.12" y="-83.5" font-family="Helvetica,sans-Serif" font-size="10.00">bcnp/transport/tcp</text>
<text text-anchor="middle" x="186.5" y="-72.25" font-family="Helvetica,sans-Serif" font-size="10.00">_posix.h</text>
</a>
</g>
</g>
<!-- Node1&#45;&gt;Node4 -->
<g id="edge3_Node000001_Node000004" class="edge">
<title>Node1&#45;&gt;Node4</title>
<g id="a_edge3_Node000001_Node000004"><a xlink:title=" ">
<path fill="none" stroke="#63b8ff" d="M186.5,-121.42C186.5,-113.49 186.5,-104.56 186.5,-97.28"/>
<polygon fill="#63b8ff" stroke="#63b8ff" points="183,-121.17 186.5,-131.17 190,-121.17 183,-121.17"/>
</a>
</g>
</g>
<!-- Node6 -->
<g id="Node000006" class="node">
<title>Node6</title>
<g id="a_Node000006"><a xlink:href="udp__posix_8h.html" target="_top" xlink:title=" ">
<polygon fill="white" stroke="#666666" points="349,-97 252,-97 252,-66.5 349,-66.5 349,-97"/>
<text text-anchor="start" x="260" y="-83.5" font-family="Helvetica,sans-Serif" font-size="10.00">bcnp/transport/udp</text>
<text text-anchor="middle" x="300.5" y="-72.25" font-family="Helvetica,sans-Serif" font-size="10.00">_posix.h</text>
</a>
</g>
</g>
<!-- Node1&#45;&gt;Node6 -->
<g id="edge5_Node000001_Node000006" class="edge">
<title>Node1&#45;&gt;Node6</title>
<g id="a_edge5_Node000001_Node000006"><a xlink:title=" ">
<path fill="none" stroke="#63b8ff" d="M213.55,-127.66C231.28,-118.5 254.41,-106.55 272.36,-97.28"/>
<polygon fill="#63b8ff" stroke="#63b8ff" points="212.44,-124.29 205.16,-131.99 215.65,-130.51 212.44,-124.29"/>
</a>
</g>
</g>
<!-- Node3 -->
<g id="Node000003" class="node">
<title>Node3</title>
<g id="a_Node000003"><a xlink:href="controller__driver_8cpp.html" target="_top" xlink:title=" ">
<polygon fill="white" stroke="#666666" points="121,-30.5 0,-30.5 0,0 121,0 121,-30.5"/>
<text text-anchor="start" x="8" y="-17" font-family="Helvetica,sans-Serif" font-size="10.00">bcnp/transport/controller</text>
<text text-anchor="middle" x="60.5" y="-5.75" font-family="Helvetica,sans-Serif" font-size="10.00">_driver.cpp</text>
</a>
</g>
</g>
<!-- Node2&#45;&gt;Node3 -->
<g id="edge2_Node000002_Node000003" class="edge">
<title>Node2&#45;&gt;Node3</title>
<g id="a_edge2_Node000002_Node000003"><a xlink:title=" ">
<path fill="none" stroke="#63b8ff" d="M60.5,-54.81C60.5,-46.64 60.5,-37.91 60.5,-30.83"/>
<polygon fill="#63b8ff" stroke="#63b8ff" points="57,-54.6 60.5,-64.6 64,-54.6 57,-54.6"/>
</a>
</g>
</g>
<!-- Node5 -->
<g id="Node000005" class="node">
<title>Node5</title>
<g id="a_Node000005"><a xlink:href="tcp__posix_8cpp.html" target="_top" xlink:title="TCP transport adapter implementation for POSIX systems.">
<polygon fill="white" stroke="#666666" points="233.88,-30.5 139.12,-30.5 139.12,0 233.88,0 233.88,-30.5"/>
<text text-anchor="start" x="147.12" y="-17" font-family="Helvetica,sans-Serif" font-size="10.00">bcnp/transport/tcp</text>
<text text-anchor="middle" x="186.5" y="-5.75" font-family="Helvetica,sans-Serif" font-size="10.00">_posix.cpp</text>
</a>
</g>
</g>
<!-- Node4&#45;&gt;Node5 -->
<g id="edge4_Node000004_Node000005" class="edge">
<title>Node4&#45;&gt;Node5</title>
<g id="a_edge4_Node000004_Node000005"><a xlink:title=" ">
<path fill="none" stroke="#63b8ff" d="M186.5,-54.81C186.5,-46.64 186.5,-37.91 186.5,-30.83"/>
<polygon fill="#63b8ff" stroke="#63b8ff" points="183,-54.6 186.5,-64.6 190,-54.6 183,-54.6"/>
</a>
</g>
</g>
<!-- Node7 -->
<g id="Node000007" class="node">
<title>Node7</title>
<g id="a_Node000007"><a xlink:href="udp__posix_8cpp.html" target="_top" xlink:title="UDP transport adapter implementation for POSIX systems.">
<polygon fill="white" stroke="#666666" points="349,-30.5 252,-30.5 252,0 349,0 349,-30.5"/>
<text text-anchor="start" x="260" y="-17" font-family="Helvetica,sans-Serif" font-size="10.00">bcnp/transport/udp</text>
<text text-anchor="middle" x="300.5" y="-5.75" font-family="Helvetica,sans-Serif" font-size="10.00">_posix.cpp</text>
</a>
</g>
</g>
<!-- Node6&#45;&gt;Node7 -->
<g id="edge6_Node000006_Node000007" class="edge">
<title>Node6&#45;&gt;Node7</title>
<g id="a_edge6_Node000006_Node000007"><a xlink:title=" ">
<path fill="none" stroke="#63b8ff" d="M300.5,-54.81C300.5,-46.64 300.5,-37.91 300.5,-30.83"/>
<polygon fill="#63b8ff" stroke="#63b8ff" points="297,-54.6 300.5,-64.6 304,-54.6 297,-54.6"/>
</a>
</g>
</g>
</g>
</svg>
