<?xml version="1.0" encoding="UTF-8" standalone="no"?>
<!DOCTYPE svg PUBLIC "-//W3C//DTD SVG 1.1//EN"
 "http://www.w3.org/Graphics/SVG/1.1/DTD/svg11.dtd">
<!-- Generated by graphviz version 12.2.0 (20241103.1931)
 -->
<!-- Title: bcnp/transport/adapter.h Pages: 1 -->
<svg width="129pt" height="83pt"
 viewBox="0.00 0.00 129.00 82.50" xmlns="http://www.w3.org/2000/svg" xmlns:xlink="http://www.w3.org/1999/xlink">
<g id="graph0" class="graph" transform="scale(1 1) rotate(0) translate(4 78.5)">
<title>bcnp/transport/adapter.h</title>
<!-- Node1 -->
<g id="Node000001" class="node">
<title>Node1</title>
<g id="a_Node000001"><a xlink:title=" ">
<polygon fill="#999999" stroke="#666666" points="121,-74.5 0,-74.5 0,-55.25 121,-55.25 121,-74.5"/>
<text text-anchor="middle" x="60.5" y="-61" font-family="Helvetica,sans-Serif" font-size="10.00">bcnp/transport/adapter.h</text>
</a>
</g>
</g>
<!-- Node2 -->
<g id="Node000002" class="node">
<title>Node2</title>
<g id="a_Node000002"><a xlink:title=" ">
<polygon fill="#e0e0e0" stroke="#999999" points="52.62,-19.25 4.38,-19.25 4.38,0 52.62,0 52.62,-19.25"/>
<text text-anchor="middle" x="28.5" y="-5.75" font-family="Helvetica,sans-Serif" font-size="10.00">cstddef</text>
</a>
</g>
</g>
<!-- Node1&#45;&gt;Node2 -->
<g id="edge1_Node000001_Node000002" class="edge">
<title>Node1&#45;&gt;Node2</title>
<g id="a_edge1_Node000001_Node000002"><a xlink:title=" ">
<path fill="none" stroke="#63b8ff" d="M55.22,-55.08C51.03,-48.11 45.02,-38.12 39.77,-29.37"/>
<polygon fill="#63b8ff" stroke="#63b8ff" points="42.83,-27.68 34.68,-20.91 36.83,-31.28 42.83,-27.68"/>
</a>
</g>
</g>
<!-- Node3 -->
<g id="Node000003" class="node">
<title>Node3</title>
<g id="a_Node000003"><a xlink:title=" ">
<polygon fill="#e0e0e0" stroke="#999999" points="116.12,-19.25 70.88,-19.25 70.88,0 116.12,0 116.12,-19.25"/>
<text text-anchor="middle" x="93.5" y="-5.75" font-family="Helvetica,sans-Serif" font-size="10.00">cstdint</text>
</a>
</g>
</g>
<!-- Node1&#45;&gt;Node3 -->
<g id="edge2_Node000001_Node000003" class="edge">
<title>Node1&#45;&gt;Node3</title>
<g id="a_edge2_Node000001_Node000003"><a xlink:title=" ">
<path fill="none" stroke="#63b8ff" d="M65.95,-55.08C70.27,-48.11 76.46,-38.12 81.88,-29.37"/>
<polygon fill="#63b8ff" stroke="#63b8ff" points="84.84,-31.24 87.14,-20.9 78.89,-27.55 84.84,-31.24"/>
</a>
</g>
</g>
</g>
</svg>
