<?xml version="1.0" encoding="UTF-8" standalone="no"?>
<!DOCTYPE svg PUBLIC "-//W3C//DTD SVG 1.1//EN"
 "http://www.w3.org/Graphics/SVG/1.1/DTD/svg11.dtd">
<!-- Generated by graphviz version 12.2.0 (20241103.1931)
 -->
<!-- Title: bcnp::StaticVector::operator= Pages: 1 -->
<svg width="367pt" height="88pt"
 viewBox="0.00 0.00 366.50 87.50" xmlns="http://www.w3.org/2000/svg" xmlns:xlink="http://www.w3.org/1999/xlink">
<g id="graph0" class="graph" transform="scale(1 1) rotate(0) translate(4 83.5)">
<title>bcnp::StaticVector::operator=</title>
<!-- Node1 -->
<g id="Node000001" class="node">
<title>Node1</title>
<g id="a_Node000001"><a xlink:title="Copy assignment operator.">
<polygon fill="#999999" stroke="#666666" points="95.5,-54.5 0,-54.5 0,-24 95.5,-24 95.5,-54.5"/>
<text text-anchor="start" x="8" y="-41" font-family="Helvetica,sans-Serif" font-size="10.00">bcnp::StaticVector</text>
<text text-anchor="middle" x="47.75" y="-29.75" font-family="Helvetica,sans-Serif" font-size="10.00">::operator=</text>
</a>
</g>
</g>
<!-- Node2 -->
<g id="Node000002" class="node">
<title>Node2</title>
<g id="a_Node000002"><a xlink:href="classbcnp_1_1StaticVector.html#adedac6b87c8326b536f8505843fcb8c6" target="_top" xlink:title="Remove all elements.">
<polygon fill="white" stroke="#666666" points="227,-79.5 131.5,-79.5 131.5,-49 227,-49 227,-79.5"/>
<text text-anchor="start" x="139.5" y="-66" font-family="Helvetica,sans-Serif" font-size="10.00">bcnp::StaticVector</text>
<text text-anchor="middle" x="179.25" y="-54.75" font-family="Helvetica,sans-Serif" font-size="10.00">::clear</text>
</a>
</g>
</g>
<!-- Node1&#45;&gt;Node2 -->
<g id="edge1_Node000001_Node000002" class="edge">
<title>Node1&#45;&gt;Node2</title>
<g id="a_edge1_Node000001_Node000002"><a xlink:title=" ">
<path fill="none" stroke="#63b8ff" d="M95.87,-48.35C103.82,-49.88 112.16,-51.49 120.35,-53.07"/>
<polygon fill="#63b8ff" stroke="#63b8ff" points="119.41,-56.46 129.9,-54.92 120.74,-49.58 119.41,-56.46"/>
</a>
</g>
</g>
<!-- Node4 -->
<g id="Node000004" class="node">
<title>Node4</title>
<g id="a_Node000004"><a xlink:href="classbcnp_1_1StaticVector.html#a67863868b9be1dd443610d650a5c1b60" target="_top" xlink:title="Add element by copy.">
<polygon fill="white" stroke="#666666" points="227,-30.5 131.5,-30.5 131.5,0 227,0 227,-30.5"/>
<text text-anchor="start" x="139.5" y="-17" font-family="Helvetica,sans-Serif" font-size="10.00">bcnp::StaticVector</text>
<text text-anchor="middle" x="179.25" y="-5.75" font-family="Helvetica,sans-Serif" font-size="10.00">::push_back</text>
</a>
</g>
</g>
<!-- Node1&#45;&gt;Node4 -->
<g id="edge3_Node000001_Node000004" class="edge">
<title>Node1&#45;&gt;Node4</title>
<g id="a_edge3_Node000001_Node000004"><a xlink:title=" ">
<path fill="none" stroke="#63b8ff" d="M95.87,-30.52C103.73,-29.06 111.97,-27.53 120.08,-26.03"/>
<polygon fill="#63b8ff" stroke="#63b8ff" points="120.7,-29.48 129.89,-24.21 119.42,-22.59 120.7,-29.48"/>
</a>
</g>
</g>
<!-- Node3 -->
<g id="Node000003" class="node">
<title>Node3</title>
<g id="a_Node000003"><a xlink:href="classbcnp_1_1StaticVector.html#aeedf48c4fa3acb31bab79d88421c57c8" target="_top" xlink:title="Get pointer to underlying storage.">
<polygon fill="white" stroke="#666666" points="358.5,-54.5 263,-54.5 263,-24 358.5,-24 358.5,-54.5"/>
<text text-anchor="start" x="271" y="-41" font-family="Helvetica,sans-Serif" font-size="10.00">bcnp::StaticVector</text>
<text text-anchor="middle" x="310.75" y="-29.75" font-family="Helvetica,sans-Serif" font-size="10.00">::data</text>
</a>
</g>
</g>
<!-- Node2&#45;&gt;Node3 -->
<g id="edge2_Node000002_Node000003" class="edge">
<title>Node2&#45;&gt;Node3</title>
<g id="a_edge2_Node000002_Node000003"><a xlink:title=" ">
<path fill="none" stroke="#63b8ff" d="M227.37,-55.15C235.32,-53.62 243.66,-52.01 251.85,-50.43"/>
<polygon fill="#63b8ff" stroke="#63b8ff" points="252.24,-53.92 261.4,-48.58 250.91,-47.04 252.24,-53.92"/>
</a>
</g>
</g>
<!-- Node4&#45;&gt;Node3 -->
<g id="edge4_Node000004_Node000003" class="edge">
<title>Node4&#45;&gt;Node3</title>
<g id="a_edge4_Node000004_Node000003"><a xlink:title=" ">
<path fill="none" stroke="#63b8ff" d="M227.37,-23.98C235.23,-25.44 243.47,-26.97 251.58,-28.47"/>
<polygon fill="#63b8ff" stroke="#63b8ff" points="250.92,-31.91 261.39,-30.29 252.2,-25.02 250.92,-31.91"/>
</a>
</g>
</g>
</g>
</svg>
