<?xml version="1.0" encoding="UTF-8" standalone="no"?>
<!DOCTYPE svg PUBLIC "-//W3C//DTD SVG 1.1//EN"
 "http://www.w3.org/Graphics/SVG/1.1/DTD/svg11.dtd">
<!-- Generated by graphviz version 12.2.0 (20241103.1931)
 -->
<!-- Title: bcnp::ByteWriter::SendBytes Pages: 1 -->
<svg width="296pt" height="88pt"
 viewBox="0.00 0.00 295.75 87.50" xmlns="http://www.w3.org/2000/svg" xmlns:xlink="http://www.w3.org/1999/xlink">
<g id="graph0" class="graph" transform="scale(1 1) rotate(0) translate(4 83.5)">
<title>bcnp::ByteWriter::SendBytes</title>
<!-- Node1 -->
<g id="Node000001" class="node">
<title>Node1</title>
<g id="a_Node000001"><a xlink:title="Send bytes over the transport.">
<polygon fill="#999999" stroke="#666666" points="287.75,-48.88 149.5,-48.88 149.5,-29.62 287.75,-29.62 287.75,-48.88"/>
<text text-anchor="middle" x="218.62" y="-35.38" font-family="Helvetica,sans-Serif" font-size="10.00">bcnp::ByteWriter::SendBytes</text>
</a>
</g>
</g>
<!-- Node2 -->
<g id="Node000002" class="node">
<title>Node2</title>
<g id="a_Node000002"><a xlink:href="classbcnp_1_1DispatcherDriver.html#a2f870953dbe2a5cc5df4bd85ce2bb954" target="_top" xlink:title="Send raw bytes through the adapter.">
<polygon fill="white" stroke="#666666" points="113.5,-79.5 0,-79.5 0,-49 113.5,-49 113.5,-79.5"/>
<text text-anchor="start" x="8" y="-66" font-family="Helvetica,sans-Serif" font-size="10.00">bcnp::DispatcherDriver</text>
<text text-anchor="middle" x="56.75" y="-54.75" font-family="Helvetica,sans-Serif" font-size="10.00">::SendBytes</text>
</a>
</g>
</g>
<!-- Node1&#45;&gt;Node2 -->
<g id="edge1_Node000001_Node000002" class="edge">
<title>Node1&#45;&gt;Node2</title>
<g id="a_edge1_Node000001_Node000002"><a xlink:title=" ">
<path fill="none" stroke="#63b8ff" d="M141.99,-51.08C132.5,-52.56 122.93,-54.06 113.82,-55.48"/>
<polygon fill="#63b8ff" stroke="#63b8ff" points="142.22,-54.58 151.56,-49.58 141.14,-47.67 142.22,-54.58"/>
</a>
</g>
</g>
<!-- Node3 -->
<g id="Node000003" class="node">
<title>Node3</title>
<g id="a_Node000003"><a xlink:href="classbcnp_1_1DispatcherDriver.html#abe00a2e8e6c1d26fbfd7e148767bf0e1" target="_top" xlink:title="Send a typed packet.">
<polygon fill="white" stroke="#666666" points="113.5,-30.5 0,-30.5 0,0 113.5,0 113.5,-30.5"/>
<text text-anchor="start" x="8" y="-17" font-family="Helvetica,sans-Serif" font-size="10.00">bcnp::DispatcherDriver</text>
<text text-anchor="middle" x="56.75" y="-5.75" font-family="Helvetica,sans-Serif" font-size="10.00">::SendPacket</text>
</a>
</g>
</g>
<!-- Node1&#45;&gt;Node3 -->
<g id="edge2_Node000001_Node000003" class="edge">
<title>Node1&#45;&gt;Node3</title>
<g id="a_edge2_Node000001_Node000003"><a xlink:title=" ">
<path fill="none" stroke="#63b8ff" d="M139.13,-27.47C130.61,-26.19 122.07,-24.91 113.9,-23.68"/>
<polygon fill="#63b8ff" stroke="#63b8ff" points="138.38,-30.89 148.79,-28.92 139.42,-23.97 138.38,-30.89"/>
</a>
</g>
</g>
</g>
</svg>
