<?xml version="1.0" encoding="UTF-8" standalone="no"?>
<!DOCTYPE svg PUBLIC "-//W3C//DTD SVG 1.1//EN"
 "http://www.w3.org/Graphics/SVG/1.1/DTD/svg11.dtd">
<!-- Generated by graphviz version 12.2.0 (20241103.1931)
 -->
<!-- Title: bcnp::StaticVector::data Pages: 1 -->
<svg width="387pt" height="873pt"
 viewBox="0.00 0.00 386.75 872.88" xmlns="http://www.w3.org/2000/svg" xmlns:xlink="http://www.w3.org/1999/xlink">
<g id="graph0" class="graph" transform="scale(1 1) rotate(0) translate(4 868.88)">
<title>bcnp::StaticVector::data</title>
<!-- Node1 -->
<g id="Node000001" class="node">
<title>Node1</title>
<g id="a_Node000001"><a xlink:title="Get pointer to underlying storage.">
<polygon fill="#999999" stroke="#666666" points="378.75,-447.5 283.25,-447.5 283.25,-417 378.75,-417 378.75,-447.5"/>
<text text-anchor="start" x="291.25" y="-434" font-family="Helvetica,sans-Serif" font-size="10.00">bcnp::StaticVector</text>
<text text-anchor="middle" x="331" y="-422.75" font-family="Helvetica,sans-Serif" font-size="10.00">::data</text>
</a>
</g>
</g>
<!-- Node2 -->
<g id="Node000002" class="node">
<title>Node2</title>
<g id="a_Node000002"><a xlink:href="classbcnp_1_1StaticVector.html#a783af2b7f4b10d61b0035f644ae93454" target="_top" xlink:title="Access element with bounds checking.">
<polygon fill="white" stroke="#666666" points="243.5,-864.88 135.25,-864.88 135.25,-845.62 243.5,-845.62 243.5,-864.88"/>
<text text-anchor="middle" x="189.38" y="-851.38" font-family="Helvetica,sans-Serif" font-size="10.00">bcnp::StaticVector::at</text>
</a>
</g>
</g>
<!-- Node1&#45;&gt;Node2 -->
<g id="edge1_Node000001_Node000002" class="edge">
<title>Node1&#45;&gt;Node2</title>
<g id="a_edge1_Node000001_Node000002"><a xlink:title=" ">
<path fill="none" stroke="#63b8ff" d="M328.01,-459.14C321.47,-540.31 298.12,-780.74 247.25,-837.25 244.41,-840.41 241.02,-843.01 237.33,-845.17"/>
<polygon fill="#63b8ff" stroke="#63b8ff" points="331.49,-459.49 328.78,-449.25 324.51,-458.95 331.49,-459.49"/>
</a>
</g>
</g>
<!-- Node3 -->
<g id="Node000003" class="node">
<title>Node3</title>
<g id="a_Node000003"><a xlink:href="classbcnp_1_1StaticVector.html#af389d4ca37c619fb53a59dedc436b7d3" target="_top" xlink:title="Access element with bounds checking.">
<polygon fill="white" stroke="#666666" points="243.5,-827.88 135.25,-827.88 135.25,-808.62 243.5,-808.62 243.5,-827.88"/>
<text text-anchor="middle" x="189.38" y="-814.38" font-family="Helvetica,sans-Serif" font-size="10.00">bcnp::StaticVector::at</text>
</a>
</g>
</g>
<!-- Node1&#45;&gt;Node3 -->
<g id="edge2_Node000001_Node000003" class="edge">
<title>Node1&#45;&gt;Node3</title>
<g id="a_edge2_Node000001_Node000003"><a xlink:title=" ">
<path fill="none" stroke="#63b8ff" d="M327.33,-459.32C319.3,-535.34 293.1,-748.54 247.25,-799.25 243.97,-802.88 239.97,-805.82 235.64,-808.19"/>
<polygon fill="#63b8ff" stroke="#63b8ff" points="330.8,-459.76 328.34,-449.46 323.83,-459.05 330.8,-459.76"/>
</a>
</g>
</g>
<!-- Node4 -->
<g id="Node000004" class="node">
<title>Node4</title>
<g id="a_Node000004"><a xlink:href="classbcnp_1_1StaticVector.html#a42ea5c4318bccbc389f74aafe5c9e549" target="_top" xlink:title="Access last element (undefined if empty).">
<polygon fill="white" stroke="#666666" points="237.12,-790.5 141.62,-790.5 141.62,-760 237.12,-760 237.12,-790.5"/>
<text text-anchor="start" x="149.62" y="-777" font-family="Helvetica,sans-Serif" font-size="10.00">bcnp::StaticVector</text>
<text text-anchor="middle" x="189.38" y="-765.75" font-family="Helvetica,sans-Serif" font-size="10.00">::back</text>
</a>
</g>
</g>
<!-- Node1&#45;&gt;Node4 -->
<g id="edge3_Node000001_Node000004" class="edge">
<title>Node1&#45;&gt;Node4</title>
<g id="a_edge3_Node000001_Node000004"><a xlink:title=" ">
<path fill="none" stroke="#63b8ff" d="M330.47,-459.38C330.07,-519.15 320.99,-663.69 247.25,-750.25 244.17,-753.86 240.47,-756.97 236.46,-759.64"/>
<polygon fill="#63b8ff" stroke="#63b8ff" points="333.97,-459.47 330.45,-449.48 326.97,-459.49 333.97,-459.47"/>
</a>
</g>
</g>
<!-- Node5 -->
<g id="Node000005" class="node">
<title>Node5</title>
<g id="a_Node000005"><a xlink:href="classbcnp_1_1StaticVector.html#a21036ab9244987fcd352c7816dd26392" target="_top" xlink:title="Access last element (undefined if empty).">
<polygon fill="white" stroke="#666666" points="237.12,-741.5 141.62,-741.5 141.62,-711 237.12,-711 237.12,-741.5"/>
<text text-anchor="start" x="149.62" y="-728" font-family="Helvetica,sans-Serif" font-size="10.00">bcnp::StaticVector</text>
<text text-anchor="middle" x="189.38" y="-716.75" font-family="Helvetica,sans-Serif" font-size="10.00">::back</text>
</a>
</g>
</g>
<!-- Node1&#45;&gt;Node5 -->
<g id="edge4_Node000001_Node000005" class="edge">
<title>Node1&#45;&gt;Node5</title>
<g id="a_edge4_Node000001_Node000005"><a xlink:title=" ">
<path fill="none" stroke="#63b8ff" d="M328.91,-459.15C325.37,-511.98 310.42,-630.31 247.25,-701.25 244.09,-704.79 240.34,-707.86 236.29,-710.5"/>
<polygon fill="#63b8ff" stroke="#63b8ff" points="332.39,-459.46 329.47,-449.27 325.4,-459.06 332.39,-459.46"/>
</a>
</g>
</g>
<!-- Node6 -->
<g id="Node000006" class="node">
<title>Node6</title>
<g id="a_Node000006"><a xlink:href="classbcnp_1_1StaticVector.html#ad222b4c2ed7f9131c66c359f866bdaa7" target="_top" xlink:title=" ">
<polygon fill="white" stroke="#666666" points="237.12,-692.5 141.62,-692.5 141.62,-662 237.12,-662 237.12,-692.5"/>
<text text-anchor="start" x="149.62" y="-679" font-family="Helvetica,sans-Serif" font-size="10.00">bcnp::StaticVector</text>
<text text-anchor="middle" x="189.38" y="-667.75" font-family="Helvetica,sans-Serif" font-size="10.00">::begin</text>
</a>
</g>
</g>
<!-- Node1&#45;&gt;Node6 -->
<g id="edge5_Node000001_Node000006" class="edge">
<title>Node1&#45;&gt;Node6</title>
<g id="a_edge5_Node000001_Node000006"><a xlink:title=" ">
<path fill="none" stroke="#63b8ff" d="M326.73,-458.94C319.86,-504.22 299.94,-596.61 247.25,-652.25 243.84,-655.85 239.82,-658.97 235.51,-661.65"/>
<polygon fill="#63b8ff" stroke="#63b8ff" points="330.17,-459.62 328.09,-449.23 323.23,-458.65 330.17,-459.62"/>
</a>
</g>
</g>
<!-- Node7 -->
<g id="Node000007" class="node">
<title>Node7</title>
<g id="a_Node000007"><a xlink:href="classbcnp_1_1StaticVector.html#a42bdf87a2dbcbec03224671a6d6c342c" target="_top" xlink:title=" ">
<polygon fill="white" stroke="#666666" points="237.12,-643.5 141.62,-643.5 141.62,-613 237.12,-613 237.12,-643.5"/>
<text text-anchor="start" x="149.62" y="-630" font-family="Helvetica,sans-Serif" font-size="10.00">bcnp::StaticVector</text>
<text text-anchor="middle" x="189.38" y="-618.75" font-family="Helvetica,sans-Serif" font-size="10.00">::begin</text>
</a>
</g>
</g>
<!-- Node1&#45;&gt;Node7 -->
<g id="edge6_Node000001_Node000007" class="edge">
<title>Node1&#45;&gt;Node7</title>
<g id="a_edge6_Node000001_Node000007"><a xlink:title=" ">
<path fill="none" stroke="#63b8ff" d="M323.44,-458.72C313.07,-495.59 289.56,-562.46 247.25,-603.25 243.6,-606.77 239.37,-609.84 234.91,-612.5"/>
<polygon fill="#63b8ff" stroke="#63b8ff" points="326.75,-459.9 325.96,-449.34 319.99,-458.09 326.75,-459.9"/>
</a>
</g>
</g>
<!-- Node8 -->
<g id="Node000008" class="node">
<title>Node8</title>
<g id="a_Node000008"><a xlink:href="classbcnp_1_1StaticVector.html#af83e193e308e995b060e7dd8058936a8" target="_top" xlink:title=" ">
<polygon fill="white" stroke="#666666" points="237.12,-594.5 141.62,-594.5 141.62,-564 237.12,-564 237.12,-594.5"/>
<text text-anchor="start" x="149.62" y="-581" font-family="Helvetica,sans-Serif" font-size="10.00">bcnp::StaticVector</text>
<text text-anchor="middle" x="189.38" y="-569.75" font-family="Helvetica,sans-Serif" font-size="10.00">::cbegin</text>
</a>
</g>
</g>
<!-- Node1&#45;&gt;Node8 -->
<g id="edge7_Node000001_Node000008" class="edge">
<title>Node1&#45;&gt;Node8</title>
<g id="a_edge7_Node000001_Node000008"><a xlink:title=" ">
<path fill="none" stroke="#63b8ff" d="M317.98,-458.05C304.23,-485.15 279.4,-527.47 247.25,-554.25 243.02,-557.77 238.22,-560.88 233.25,-563.6"/>
<polygon fill="#63b8ff" stroke="#63b8ff" points="321.09,-459.67 322.36,-449.15 314.8,-456.58 321.09,-459.67"/>
</a>
</g>
</g>
<!-- Node9 -->
<g id="Node000009" class="node">
<title>Node9</title>
<g id="a_Node000009"><a xlink:href="classbcnp_1_1StaticVector.html#a9a6fd251a13055a840fdffeefe4f4d31" target="_top" xlink:title=" ">
<polygon fill="white" stroke="#666666" points="237.12,-545.5 141.62,-545.5 141.62,-515 237.12,-515 237.12,-545.5"/>
<text text-anchor="start" x="149.62" y="-532" font-family="Helvetica,sans-Serif" font-size="10.00">bcnp::StaticVector</text>
<text text-anchor="middle" x="189.38" y="-520.75" font-family="Helvetica,sans-Serif" font-size="10.00">::cend</text>
</a>
</g>
</g>
<!-- Node1&#45;&gt;Node9 -->
<g id="edge8_Node000001_Node000009" class="edge">
<title>Node1&#45;&gt;Node9</title>
<g id="a_edge8_Node000001_Node000009"><a xlink:title=" ">
<path fill="none" stroke="#63b8ff" d="M307.21,-455.85C291.41,-471.3 269.32,-491.15 247.25,-505.25 241.98,-508.62 236.18,-511.74 230.35,-514.56"/>
<polygon fill="#63b8ff" stroke="#63b8ff" points="309.62,-458.4 314.23,-448.86 304.68,-453.44 309.62,-458.4"/>
</a>
</g>
</g>
<!-- Node10 -->
<g id="Node000010" class="node">
<title>Node10</title>
<g id="a_Node000010"><a xlink:href="classbcnp_1_1StaticVector.html#adedac6b87c8326b536f8505843fcb8c6" target="_top" xlink:title="Remove all elements.">
<polygon fill="white" stroke="#666666" points="237.12,-398.5 141.62,-398.5 141.62,-368 237.12,-368 237.12,-398.5"/>
<text text-anchor="start" x="149.62" y="-385" font-family="Helvetica,sans-Serif" font-size="10.00">bcnp::StaticVector</text>
<text text-anchor="middle" x="189.38" y="-373.75" font-family="Helvetica,sans-Serif" font-size="10.00">::clear</text>
</a>
</g>
</g>
<!-- Node1&#45;&gt;Node10 -->
<g id="edge9_Node000001_Node000010" class="edge">
<title>Node1&#45;&gt;Node10</title>
<g id="a_edge9_Node000001_Node000010"><a xlink:title=" ">
<path fill="none" stroke="#63b8ff" d="M274.6,-412.81C261.45,-408.19 247.59,-403.33 234.99,-398.91"/>
<polygon fill="#63b8ff" stroke="#63b8ff" points="273.41,-416.1 284.01,-416.11 275.73,-409.5 273.41,-416.1"/>
</a>
</g>
</g>
<!-- Node14 -->
<g id="Node000014" class="node">
<title>Node14</title>
<g id="a_Node000014"><a xlink:href="classbcnp_1_1StaticVector.html#a75b14090b47e92118861960f236ef5b6" target="_top" xlink:title="Construct element in&#45;place at end.">
<polygon fill="white" stroke="#666666" points="237.12,-349.5 141.62,-349.5 141.62,-319 237.12,-319 237.12,-349.5"/>
<text text-anchor="start" x="149.62" y="-336" font-family="Helvetica,sans-Serif" font-size="10.00">bcnp::StaticVector</text>
<text text-anchor="middle" x="189.38" y="-324.75" font-family="Helvetica,sans-Serif" font-size="10.00">::emplace_back</text>
</a>
</g>
</g>
<!-- Node1&#45;&gt;Node14 -->
<g id="edge13_Node000001_Node000014" class="edge">
<title>Node1&#45;&gt;Node14</title>
<g id="a_edge13_Node000001_Node000014"><a xlink:title=" ">
<path fill="none" stroke="#63b8ff" d="M307.21,-408.65C291.41,-393.2 269.32,-373.35 247.25,-359.25 241.98,-355.88 236.18,-352.76 230.35,-349.94"/>
<polygon fill="#63b8ff" stroke="#63b8ff" points="304.68,-411.06 314.23,-415.64 309.62,-406.1 304.68,-411.06"/>
</a>
</g>
</g>
<!-- Node17 -->
<g id="Node000017" class="node">
<title>Node17</title>
<g id="a_Node000017"><a xlink:href="classbcnp_1_1StaticVector.html#a683cc0db580a3c600eaaa218305143f6" target="_top" xlink:title=" ">
<polygon fill="white" stroke="#666666" points="247.25,-300.88 131.5,-300.88 131.5,-281.62 247.25,-281.62 247.25,-300.88"/>
<text text-anchor="middle" x="189.38" y="-287.38" font-family="Helvetica,sans-Serif" font-size="10.00">bcnp::StaticVector::end</text>
</a>
</g>
</g>
<!-- Node1&#45;&gt;Node17 -->
<g id="edge17_Node000001_Node000017" class="edge">
<title>Node1&#45;&gt;Node17</title>
<g id="a_edge17_Node000001_Node000017"><a xlink:title=" ">
<path fill="none" stroke="#63b8ff" d="M318.67,-406.31C305.36,-378.73 280.77,-335.66 247.25,-310.25 242.52,-306.67 237.08,-303.74 231.47,-301.35"/>
<polygon fill="#63b8ff" stroke="#63b8ff" points="315.49,-407.78 322.88,-415.37 321.84,-404.82 315.49,-407.78"/>
</a>
</g>
</g>
<!-- Node18 -->
<g id="Node000018" class="node">
<title>Node18</title>
<g id="a_Node000018"><a xlink:href="classbcnp_1_1StaticVector.html#ae071b0b010f95859c8b04a6ff981d006" target="_top" xlink:title=" ">
<polygon fill="white" stroke="#666666" points="247.25,-263.88 131.5,-263.88 131.5,-244.62 247.25,-244.62 247.25,-263.88"/>
<text text-anchor="middle" x="189.38" y="-250.38" font-family="Helvetica,sans-Serif" font-size="10.00">bcnp::StaticVector::end</text>
</a>
</g>
</g>
<!-- Node1&#45;&gt;Node18 -->
<g id="edge18_Node000001_Node000018" class="edge">
<title>Node1&#45;&gt;Node18</title>
<g id="a_edge18_Node000001_Node000018"><a xlink:title=" ">
<path fill="none" stroke="#63b8ff" d="M323.16,-405.59C312.7,-370.1 289.37,-307.73 247.25,-272.25 243.45,-269.05 239.07,-266.41 234.47,-264.25"/>
<polygon fill="#63b8ff" stroke="#63b8ff" points="319.74,-406.37 325.81,-415.05 326.48,-404.48 319.74,-406.37"/>
</a>
</g>
</g>
<!-- Node19 -->
<g id="Node000019" class="node">
<title>Node19</title>
<g id="a_Node000019"><a xlink:href="classbcnp_1_1StaticVector.html#a1be3fefd5c8fd42f398a6b1019cb839d" target="_top" xlink:title="Access first element (undefined if empty).">
<polygon fill="white" stroke="#666666" points="237.12,-226.5 141.62,-226.5 141.62,-196 237.12,-196 237.12,-226.5"/>
<text text-anchor="start" x="149.62" y="-213" font-family="Helvetica,sans-Serif" font-size="10.00">bcnp::StaticVector</text>
<text text-anchor="middle" x="189.38" y="-201.75" font-family="Helvetica,sans-Serif" font-size="10.00">::front</text>
</a>
</g>
</g>
<!-- Node1&#45;&gt;Node19 -->
<g id="edge19_Node000001_Node000019" class="edge">
<title>Node1&#45;&gt;Node19</title>
<g id="a_edge19_Node000001_Node000019"><a xlink:title=" ">
<path fill="none" stroke="#63b8ff" d="M325.47,-405.63C317.09,-364.06 295.44,-283.52 247.25,-235.25 244.07,-232.06 240.4,-229.28 236.49,-226.85"/>
<polygon fill="#63b8ff" stroke="#63b8ff" points="321.99,-406.07 327.29,-415.24 328.87,-404.77 321.99,-406.07"/>
</a>
</g>
</g>
<!-- Node20 -->
<g id="Node000020" class="node">
<title>Node20</title>
<g id="a_Node000020"><a xlink:href="classbcnp_1_1StaticVector.html#a228a721607525cf30cfe5106b819f391" target="_top" xlink:title="Access first element (undefined if empty).">
<polygon fill="white" stroke="#666666" points="237.12,-177.5 141.62,-177.5 141.62,-147 237.12,-147 237.12,-177.5"/>
<text text-anchor="start" x="149.62" y="-164" font-family="Helvetica,sans-Serif" font-size="10.00">bcnp::StaticVector</text>
<text text-anchor="middle" x="189.38" y="-152.75" font-family="Helvetica,sans-Serif" font-size="10.00">::front</text>
</a>
</g>
</g>
<!-- Node1&#45;&gt;Node20 -->
<g id="edge20_Node000001_Node000020" class="edge">
<title>Node1&#45;&gt;Node20</title>
<g id="a_edge20_Node000001_Node000020"><a xlink:title=" ">
<path fill="none" stroke="#63b8ff" d="M327.93,-405.34C322.77,-356.07 305.23,-250.6 247.25,-187.25 243.97,-183.67 240.09,-180.58 235.92,-177.91"/>
<polygon fill="#63b8ff" stroke="#63b8ff" points="324.42,-405.47 328.85,-415.09 331.39,-404.81 324.42,-405.47"/>
</a>
</g>
</g>
<!-- Node21 -->
<g id="Node000021" class="node">
<title>Node21</title>
<g id="a_Node000021"><a xlink:href="classbcnp_1_1StaticVector.html#a0f1be2c85c688f5b3cd37da95281dd33" target="_top" xlink:title="Access element by index (no bounds checking).">
<polygon fill="white" stroke="#666666" points="237.12,-128.5 141.62,-128.5 141.62,-98 237.12,-98 237.12,-128.5"/>
<text text-anchor="start" x="149.62" y="-115" font-family="Helvetica,sans-Serif" font-size="10.00">bcnp::StaticVector</text>
<text text-anchor="middle" x="189.38" y="-103.75" font-family="Helvetica,sans-Serif" font-size="10.00">::operator[]</text>
</a>
</g>
</g>
<!-- Node1&#45;&gt;Node21 -->
<g id="edge21_Node000001_Node000021" class="edge">
<title>Node1&#45;&gt;Node21</title>
<g id="a_edge21_Node000001_Node000021"><a xlink:title=" ">
<path fill="none" stroke="#63b8ff" d="M329.76,-405.24C327.85,-348.82 315.81,-217.13 247.25,-138.25 244.14,-134.67 240.41,-131.58 236.38,-128.92"/>
<polygon fill="#63b8ff" stroke="#63b8ff" points="326.26,-405.27 330.01,-415.19 333.26,-405.1 326.26,-405.27"/>
</a>
</g>
</g>
<!-- Node22 -->
<g id="Node000022" class="node">
<title>Node22</title>
<g id="a_Node000022"><a xlink:href="classbcnp_1_1StaticVector.html#a3aa0ff61d09bbcf6dafd60fa521f4fee" target="_top" xlink:title="Access element by index (no bounds checking).">
<polygon fill="white" stroke="#666666" points="237.12,-79.5 141.62,-79.5 141.62,-49 237.12,-49 237.12,-79.5"/>
<text text-anchor="start" x="149.62" y="-66" font-family="Helvetica,sans-Serif" font-size="10.00">bcnp::StaticVector</text>
<text text-anchor="middle" x="189.38" y="-54.75" font-family="Helvetica,sans-Serif" font-size="10.00">::operator[]</text>
</a>
</g>
</g>
<!-- Node1&#45;&gt;Node22 -->
<g id="edge22_Node000001_Node000022" class="edge">
<title>Node1&#45;&gt;Node22</title>
<g id="a_edge22_Node000001_Node000022"><a xlink:title=" ">
<path fill="none" stroke="#63b8ff" d="M326.67,-405.72C317.2,-333.95 288.12,-138.1 247.25,-89.25 244.27,-85.69 240.69,-82.63 236.79,-79.98"/>
<polygon fill="#63b8ff" stroke="#63b8ff" points="323.17,-405.91 327.92,-415.37 330.11,-405.01 323.17,-405.91"/>
</a>
</g>
</g>
<!-- Node23 -->
<g id="Node000023" class="node">
<title>Node23</title>
<g id="a_Node000023"><a xlink:href="classbcnp_1_1StaticVector.html#a416976a9b5b54259ab01d0a88710fb1a" target="_top" xlink:title="Remove last element.">
<polygon fill="white" stroke="#666666" points="237.12,-447.5 141.62,-447.5 141.62,-417 237.12,-417 237.12,-447.5"/>
<text text-anchor="start" x="149.62" y="-434" font-family="Helvetica,sans-Serif" font-size="10.00">bcnp::StaticVector</text>
<text text-anchor="middle" x="189.38" y="-422.75" font-family="Helvetica,sans-Serif" font-size="10.00">::pop_back</text>
</a>
</g>
</g>
<!-- Node1&#45;&gt;Node23 -->
<g id="edge23_Node000001_Node000023" class="edge">
<title>Node1&#45;&gt;Node23</title>
<g id="a_edge23_Node000001_Node000023"><a xlink:title=" ">
<path fill="none" stroke="#63b8ff" d="M271.83,-432.25C260.34,-432.25 248.43,-432.25 237.37,-432.25"/>
<polygon fill="#63b8ff" stroke="#63b8ff" points="271.6,-435.75 281.6,-432.25 271.6,-428.75 271.6,-435.75"/>
</a>
</g>
</g>
<!-- Node25 -->
<g id="Node000025" class="node">
<title>Node25</title>
<g id="a_Node000025"><a xlink:href="classbcnp_1_1StaticVector.html#a67863868b9be1dd443610d650a5c1b60" target="_top" xlink:title="Add element by copy.">
<polygon fill="white" stroke="#666666" points="237.12,-496.5 141.62,-496.5 141.62,-466 237.12,-466 237.12,-496.5"/>
<text text-anchor="start" x="149.62" y="-483" font-family="Helvetica,sans-Serif" font-size="10.00">bcnp::StaticVector</text>
<text text-anchor="middle" x="189.38" y="-471.75" font-family="Helvetica,sans-Serif" font-size="10.00">::push_back</text>
</a>
</g>
</g>
<!-- Node1&#45;&gt;Node25 -->
<g id="edge26_Node000001_Node000025" class="edge">
<title>Node1&#45;&gt;Node25</title>
<g id="a_edge26_Node000001_Node000025"><a xlink:title=" ">
<path fill="none" stroke="#63b8ff" d="M274.6,-451.69C261.45,-456.31 247.59,-461.17 234.99,-465.59"/>
<polygon fill="#63b8ff" stroke="#63b8ff" points="275.73,-455 284.01,-448.39 273.41,-448.4 275.73,-455"/>
</a>
</g>
</g>
<!-- Node28 -->
<g id="Node000028" class="node">
<title>Node28</title>
<g id="a_Node000028"><a xlink:href="classbcnp_1_1StaticVector.html#a34e0a16663f14c0464da1423bd3d7c6a" target="_top" xlink:title="Add element by move.">
<polygon fill="white" stroke="#666666" points="237.12,-30.5 141.62,-30.5 141.62,0 237.12,0 237.12,-30.5"/>
<text text-anchor="start" x="149.62" y="-17" font-family="Helvetica,sans-Serif" font-size="10.00">bcnp::StaticVector</text>
<text text-anchor="middle" x="189.38" y="-5.75" font-family="Helvetica,sans-Serif" font-size="10.00">::push_back</text>
</a>
</g>
</g>
<!-- Node1&#45;&gt;Node28 -->
<g id="edge31_Node000001_Node000028" class="edge">
<title>Node1&#45;&gt;Node28</title>
<g id="a_edge31_Node000001_Node000028"><a xlink:title=" ">
<path fill="none" stroke="#63b8ff" d="M327.49,-405.14C319.67,-325.98 293.47,-97.13 247.25,-40.25 244.33,-36.65 240.78,-33.55 236.9,-30.9"/>
<polygon fill="#63b8ff" stroke="#63b8ff" points="323.99,-405.39 328.44,-415.01 330.96,-404.72 323.99,-405.39"/>
</a>
</g>
</g>
<!-- Node11 -->
<g id="Node000011" class="node">
<title>Node11</title>
<g id="a_Node000011"><a xlink:href="classbcnp_1_1StaticVector.html#ac79d2524430447864737988439f851a2" target="_top" xlink:title="Copy assignment operator.">
<polygon fill="white" stroke="#666666" points="95.5,-447.5 0,-447.5 0,-417 95.5,-417 95.5,-447.5"/>
<text text-anchor="start" x="8" y="-434" font-family="Helvetica,sans-Serif" font-size="10.00">bcnp::StaticVector</text>
<text text-anchor="middle" x="47.75" y="-422.75" font-family="Helvetica,sans-Serif" font-size="10.00">::operator=</text>
</a>
</g>
</g>
<!-- Node10&#45;&gt;Node11 -->
<g id="edge10_Node000010_Node000011" class="edge">
<title>Node10&#45;&gt;Node11</title>
<g id="a_edge10_Node000010_Node000011"><a xlink:title=" ">
<path fill="none" stroke="#63b8ff" d="M132.98,-402.69C119.83,-407.31 105.97,-412.17 93.37,-416.59"/>
<polygon fill="#63b8ff" stroke="#63b8ff" points="134.11,-406 142.38,-399.39 131.79,-399.4 134.11,-406"/>
</a>
</g>
</g>
<!-- Node12 -->
<g id="Node000012" class="node">
<title>Node12</title>
<g id="a_Node000012"><a xlink:href="classbcnp_1_1StaticVector.html#aec927b4bc213ff618262f93c9cb73d0a" target="_top" xlink:title="Move assignment operator.">
<polygon fill="white" stroke="#666666" points="95.5,-300.5 0,-300.5 0,-270 95.5,-270 95.5,-300.5"/>
<text text-anchor="start" x="8" y="-287" font-family="Helvetica,sans-Serif" font-size="10.00">bcnp::StaticVector</text>
<text text-anchor="middle" x="47.75" y="-275.75" font-family="Helvetica,sans-Serif" font-size="10.00">::operator=</text>
</a>
</g>
</g>
<!-- Node10&#45;&gt;Node12 -->
<g id="edge11_Node000010_Node000012" class="edge">
<title>Node10&#45;&gt;Node12</title>
<g id="a_edge11_Node000010_Node000012"><a xlink:title=" ">
<path fill="none" stroke="#63b8ff" d="M136.21,-361.71C134.59,-360.6 133.01,-359.45 131.5,-358.25 110.61,-341.68 115.74,-327.62 95.5,-310.25 91.45,-306.77 86.83,-303.59 82.12,-300.74"/>
<polygon fill="#63b8ff" stroke="#63b8ff" points="134.29,-364.63 144.66,-366.79 137.89,-358.63 134.29,-364.63"/>
</a>
</g>
</g>
<!-- Node13 -->
<g id="Node000013" class="node">
<title>Node13</title>
<g id="a_Node000013"><a xlink:href="classbcnp_1_1StaticVector.html#aff4a4e8cde16f75b070b0991820b0fa0" target="_top" xlink:title="Destructor &#45; properly destroys all elements.">
<polygon fill="white" stroke="#666666" points="95.5,-398.5 0,-398.5 0,-368 95.5,-368 95.5,-398.5"/>
<text text-anchor="start" x="8" y="-385" font-family="Helvetica,sans-Serif" font-size="10.00">bcnp::StaticVector</text>
<text text-anchor="middle" x="47.75" y="-373.75" font-family="Helvetica,sans-Serif" font-size="10.00">::~StaticVector</text>
</a>
</g>
</g>
<!-- Node10&#45;&gt;Node13 -->
<g id="edge12_Node000010_Node000013" class="edge">
<title>Node10&#45;&gt;Node13</title>
<g id="a_edge12_Node000010_Node000013"><a xlink:title=" ">
<path fill="none" stroke="#63b8ff" d="M130.2,-383.25C118.72,-383.25 106.8,-383.25 95.75,-383.25"/>
<polygon fill="#63b8ff" stroke="#63b8ff" points="129.98,-386.75 139.98,-383.25 129.98,-379.75 129.98,-386.75"/>
</a>
</g>
</g>
<!-- Node14&#45;&gt;Node12 -->
<g id="edge14_Node000014_Node000012" class="edge">
<title>Node14&#45;&gt;Node12</title>
<g id="a_edge14_Node000014_Node000012"><a xlink:title=" ">
<path fill="none" stroke="#63b8ff" d="M132.98,-314.81C119.83,-310.19 105.97,-305.33 93.37,-300.91"/>
<polygon fill="#63b8ff" stroke="#63b8ff" points="131.79,-318.1 142.38,-318.11 134.11,-311.5 131.79,-318.1"/>
</a>
</g>
</g>
<!-- Node15 -->
<g id="Node000015" class="node">
<title>Node15</title>
<g id="a_Node000015"><a xlink:href="classbcnp_1_1StaticVector.html#a38200f1e39fd0ad2aadf3e1d826feef0" target="_top" xlink:title="Resize the vector.">
<polygon fill="white" stroke="#666666" points="95.5,-349.5 0,-349.5 0,-319 95.5,-319 95.5,-349.5"/>
<text text-anchor="start" x="8" y="-336" font-family="Helvetica,sans-Serif" font-size="10.00">bcnp::StaticVector</text>
<text text-anchor="middle" x="47.75" y="-324.75" font-family="Helvetica,sans-Serif" font-size="10.00">::resize</text>
</a>
</g>
</g>
<!-- Node14&#45;&gt;Node15 -->
<g id="edge15_Node000014_Node000015" class="edge">
<title>Node14&#45;&gt;Node15</title>
<g id="a_edge15_Node000014_Node000015"><a xlink:title=" ">
<path fill="none" stroke="#63b8ff" d="M130.2,-334.25C118.72,-334.25 106.8,-334.25 95.75,-334.25"/>
<polygon fill="#63b8ff" stroke="#63b8ff" points="129.98,-337.75 139.98,-334.25 129.98,-330.75 129.98,-337.75"/>
</a>
</g>
</g>
<!-- Node16 -->
<g id="Node000016" class="node">
<title>Node16</title>
<g id="a_Node000016"><a xlink:href="classbcnp_1_1StaticVector.html#ace9c00f8e44d324d9e68587456228930" target="_top" xlink:title="Move constructor &#45; moves all elements.">
<polygon fill="white" stroke="#666666" points="95.5,-251.5 0,-251.5 0,-221 95.5,-221 95.5,-251.5"/>
<text text-anchor="start" x="8" y="-238" font-family="Helvetica,sans-Serif" font-size="10.00">bcnp::StaticVector</text>
<text text-anchor="middle" x="47.75" y="-226.75" font-family="Helvetica,sans-Serif" font-size="10.00">::StaticVector</text>
</a>
</g>
</g>
<!-- Node14&#45;&gt;Node16 -->
<g id="edge16_Node000014_Node000016" class="edge">
<title>Node14&#45;&gt;Node16</title>
<g id="a_edge16_Node000014_Node000016"><a xlink:title=" ">
<path fill="none" stroke="#63b8ff" d="M134.94,-312.8C133.76,-311.98 132.61,-311.13 131.5,-310.25 110.29,-293.51 115.92,-278.95 95.5,-261.25 91.47,-257.75 86.86,-254.56 82.15,-251.71"/>
<polygon fill="#63b8ff" stroke="#63b8ff" points="132.8,-315.6 143.16,-317.83 136.46,-309.63 132.8,-315.6"/>
</a>
</g>
</g>
<!-- Node23&#45;&gt;Node15 -->
<g id="edge24_Node000023_Node000015" class="edge">
<title>Node23&#45;&gt;Node15</title>
<g id="a_edge24_Node000023_Node000015"><a xlink:title=" ">
<path fill="none" stroke="#63b8ff" d="M136.21,-410.71C134.59,-409.6 133.01,-408.45 131.5,-407.25 110.61,-390.68 115.74,-376.62 95.5,-359.25 91.45,-355.77 86.83,-352.59 82.12,-349.74"/>
<polygon fill="#63b8ff" stroke="#63b8ff" points="134.29,-413.63 144.66,-415.79 137.89,-407.63 134.29,-413.63"/>
</a>
</g>
</g>
<!-- Node24 -->
<g id="Node000024" class="node">
<title>Node24</title>
<g id="a_Node000024"><a xlink:href="classbcnp_1_1StaticVector.html#a7555a468e5702dcac1542f8221a9dd2e" target="_top" xlink:title="Resize with fill value.">
<polygon fill="white" stroke="#666666" points="95.5,-496.5 0,-496.5 0,-466 95.5,-466 95.5,-496.5"/>
<text text-anchor="start" x="8" y="-483" font-family="Helvetica,sans-Serif" font-size="10.00">bcnp::StaticVector</text>
<text text-anchor="middle" x="47.75" y="-471.75" font-family="Helvetica,sans-Serif" font-size="10.00">::resize</text>
</a>
</g>
</g>
<!-- Node23&#45;&gt;Node24 -->
<g id="edge25_Node000023_Node000024" class="edge">
<title>Node23&#45;&gt;Node24</title>
<g id="a_edge25_Node000023_Node000024"><a xlink:title=" ">
<path fill="none" stroke="#63b8ff" d="M132.98,-451.69C119.83,-456.31 105.97,-461.17 93.37,-465.59"/>
<polygon fill="#63b8ff" stroke="#63b8ff" points="134.11,-455 142.38,-448.39 131.79,-448.4 134.11,-455"/>
</a>
</g>
</g>
<!-- Node25&#45;&gt;Node11 -->
<g id="edge27_Node000025_Node000011" class="edge">
<title>Node25&#45;&gt;Node11</title>
<g id="a_edge27_Node000025_Node000011"><a xlink:title=" ">
<path fill="none" stroke="#63b8ff" d="M132.98,-461.81C119.83,-457.19 105.97,-452.33 93.37,-447.91"/>
<polygon fill="#63b8ff" stroke="#63b8ff" points="131.79,-465.1 142.38,-465.11 134.11,-458.5 131.79,-465.1"/>
</a>
</g>
</g>
<!-- Node25&#45;&gt;Node24 -->
<g id="edge28_Node000025_Node000024" class="edge">
<title>Node25&#45;&gt;Node24</title>
<g id="a_edge28_Node000025_Node000024"><a xlink:title=" ">
<path fill="none" stroke="#63b8ff" d="M130.2,-481.25C118.72,-481.25 106.8,-481.25 95.75,-481.25"/>
<polygon fill="#63b8ff" stroke="#63b8ff" points="129.98,-484.75 139.98,-481.25 129.98,-477.75 129.98,-484.75"/>
</a>
</g>
</g>
<!-- Node26 -->
<g id="Node000026" class="node">
<title>Node26</title>
<g id="a_Node000026"><a xlink:href="classbcnp_1_1StaticVector.html#a0a5205e50e2f8071401b68a387cc8c19" target="_top" xlink:title="Copy constructor &#45; deep copies all elements.">
<polygon fill="white" stroke="#666666" points="95.5,-594.5 0,-594.5 0,-564 95.5,-564 95.5,-594.5"/>
<text text-anchor="start" x="8" y="-581" font-family="Helvetica,sans-Serif" font-size="10.00">bcnp::StaticVector</text>
<text text-anchor="middle" x="47.75" y="-569.75" font-family="Helvetica,sans-Serif" font-size="10.00">::StaticVector</text>
</a>
</g>
</g>
<!-- Node25&#45;&gt;Node26 -->
<g id="edge29_Node000025_Node000026" class="edge">
<title>Node25&#45;&gt;Node26</title>
<g id="a_edge29_Node000025_Node000026"><a xlink:title=" ">
<path fill="none" stroke="#63b8ff" d="M136.21,-502.79C134.59,-503.9 133.01,-505.05 131.5,-506.25 110.61,-522.82 115.74,-536.88 95.5,-554.25 91.45,-557.73 86.83,-560.91 82.12,-563.76"/>
<polygon fill="#63b8ff" stroke="#63b8ff" points="137.89,-505.87 144.66,-497.71 134.29,-499.87 137.89,-505.87"/>
</a>
</g>
</g>
<!-- Node27 -->
<g id="Node000027" class="node">
<title>Node27</title>
<g id="a_Node000027"><a xlink:href="classbcnp_1_1StaticVector.html#ab642fd9db328decc270e49471e8f264f" target="_top" xlink:title="Construct from initializer list.">
<polygon fill="white" stroke="#666666" points="95.5,-545.5 0,-545.5 0,-515 95.5,-515 95.5,-545.5"/>
<text text-anchor="start" x="8" y="-532" font-family="Helvetica,sans-Serif" font-size="10.00">bcnp::StaticVector</text>
<text text-anchor="middle" x="47.75" y="-520.75" font-family="Helvetica,sans-Serif" font-size="10.00">::StaticVector</text>
</a>
</g>
</g>
<!-- Node25&#45;&gt;Node27 -->
<g id="edge30_Node000025_Node000027" class="edge">
<title>Node25&#45;&gt;Node27</title>
<g id="a_edge30_Node000025_Node000027"><a xlink:title=" ">
<path fill="none" stroke="#63b8ff" d="M132.98,-500.69C119.83,-505.31 105.97,-510.17 93.37,-514.59"/>
<polygon fill="#63b8ff" stroke="#63b8ff" points="134.11,-504 142.38,-497.39 131.79,-497.4 134.11,-504"/>
</a>
</g>
</g>
</g>
</svg>
