<?xml version="1.0" encoding="UTF-8" standalone="no"?>
<!DOCTYPE svg PUBLIC "-//W3C//DTD SVG 1.1//EN"
 "http://www.w3.org/Graphics/SVG/1.1/DTD/svg11.dtd">
<!-- Generated by graphviz version 12.2.0 (20241103.1931)
 -->
<!-- Title: bcnp::DispatcherDriver::PollOnce Pages: 1 -->
<svg width="427pt" height="88pt"
 viewBox="0.00 0.00 427.25 87.50" xmlns="http://www.w3.org/2000/svg" xmlns:xlink="http://www.w3.org/1999/xlink">
<g id="graph0" class="graph" transform="scale(1 1) rotate(0) translate(4 83.5)">
<title>bcnp::DispatcherDriver::PollOnce</title>
<!-- Node1 -->
<g id="Node000001" class="node">
<title>Node1</title>
<g id="a_Node000001"><a xlink:title="Poll transport and feed data to dispatcher.">
<polygon fill="#999999" stroke="#666666" points="113.5,-54.5 0,-54.5 0,-24 113.5,-24 113.5,-54.5"/>
<text text-anchor="start" x="8" y="-41" font-family="Helvetica,sans-Serif" font-size="10.00">bcnp::DispatcherDriver</text>
<text text-anchor="middle" x="56.75" y="-29.75" font-family="Helvetica,sans-Serif" font-size="10.00">::PollOnce</text>
</a>
</g>
</g>
<!-- Node2 -->
<g id="Node000002" class="node">
<title>Node2</title>
<g id="a_Node000002"><a xlink:href="classbcnp_1_1PacketDispatcher.html#a4363452b902f9182c2a6683a11a4f681" target="_top" xlink:title="Feed raw bytes from transport (thread&#45;safe)">
<polygon fill="white" stroke="#666666" points="275,-79.5 156.25,-79.5 156.25,-49 275,-49 275,-79.5"/>
<text text-anchor="start" x="164.25" y="-66" font-family="Helvetica,sans-Serif" font-size="10.00">bcnp::PacketDispatcher</text>
<text text-anchor="middle" x="215.62" y="-54.75" font-family="Helvetica,sans-Serif" font-size="10.00">::PushBytes</text>
</a>
</g>
</g>
<!-- Node1&#45;&gt;Node2 -->
<g id="edge1_Node000001_Node000002" class="edge">
<title>Node1&#45;&gt;Node2</title>
<g id="a_edge1_Node000001_Node000002"><a xlink:title=" ">
<path fill="none" stroke="#63b8ff" d="M113.94,-48.2C123.95,-49.8 134.48,-51.48 144.82,-53.13"/>
<polygon fill="#63b8ff" stroke="#63b8ff" points="143.99,-56.54 154.42,-54.66 145.09,-49.63 143.99,-56.54"/>
</a>
</g>
</g>
<!-- Node4 -->
<g id="Node000004" class="node">
<title>Node4</title>
<g id="a_Node000004"><a xlink:href="classbcnp_1_1ByteStream.html#a4ad7e4b491d1bea487fee2200257bb80" target="_top" xlink:title="Receive available bytes from the transport (non&#45;blocking).">
<polygon fill="white" stroke="#666666" points="281.75,-30.5 149.5,-30.5 149.5,0 281.75,0 281.75,-30.5"/>
<text text-anchor="start" x="157.5" y="-17" font-family="Helvetica,sans-Serif" font-size="10.00">bcnp::ByteStream::Receive</text>
<text text-anchor="middle" x="215.62" y="-5.75" font-family="Helvetica,sans-Serif" font-size="10.00">Chunk</text>
</a>
</g>
</g>
<!-- Node1&#45;&gt;Node4 -->
<g id="edge3_Node000001_Node000004" class="edge">
<title>Node1&#45;&gt;Node4</title>
<g id="a_edge3_Node000001_Node000004"><a xlink:title=" ">
<path fill="none" stroke="#63b8ff" d="M113.94,-30.65C121.71,-29.46 129.8,-28.23 137.86,-26.99"/>
<polygon fill="#63b8ff" stroke="#63b8ff" points="138.35,-30.46 147.71,-25.49 137.29,-23.54 138.35,-30.46"/>
</a>
</g>
</g>
<!-- Node3 -->
<g id="Node000003" class="node">
<title>Node3</title>
<g id="a_Node000003"><a xlink:href="classbcnp_1_1StreamParser.html#aded412907bb5773c63587a3d58c3146a" target="_top" xlink:title="Push raw bytes into the parser for processing.">
<polygon fill="white" stroke="#666666" points="419.25,-79.5 317.75,-79.5 317.75,-49 419.25,-49 419.25,-79.5"/>
<text text-anchor="start" x="325.75" y="-66" font-family="Helvetica,sans-Serif" font-size="10.00">bcnp::StreamParser</text>
<text text-anchor="middle" x="368.5" y="-54.75" font-family="Helvetica,sans-Serif" font-size="10.00">::Push</text>
</a>
</g>
</g>
<!-- Node2&#45;&gt;Node3 -->
<g id="edge2_Node000002_Node000003" class="edge">
<title>Node2&#45;&gt;Node3</title>
<g id="a_edge2_Node000002_Node000003"><a xlink:title=" ">
<path fill="none" stroke="#63b8ff" d="M275.39,-64.25C285.49,-64.25 296.01,-64.25 306.17,-64.25"/>
<polygon fill="#63b8ff" stroke="#63b8ff" points="305.94,-67.75 315.94,-64.25 305.94,-60.75 305.94,-67.75"/>
</a>
</g>
</g>
</g>
</svg>
