<?xml version="1.0" encoding="UTF-8" standalone="no"?>
<!DOCTYPE svg PUBLIC "-//W3C//DTD SVG 1.1//EN"
 "http://www.w3.org/Graphics/SVG/1.1/DTD/svg11.dtd">
<!-- Generated by graphviz version 12.2.0 (20241103.1931)
 -->
<!-- Title: bcnp::DuplexAdapter Pages: 1 -->
<svg width="260pt" height="138pt"
 viewBox="0.00 0.00 259.50 137.75" xmlns="http://www.w3.org/2000/svg" xmlns:xlink="http://www.w3.org/1999/xlink">

<svg id="main" version="1.1" xmlns="http://www.w3.org/2000/svg" xmlns:xlink="http://www.w3.org/1999/xlink" xml:space="preserve">

<style type="text/css"><![CDATA[
.node, .edge {opacity: 0.7;}
.node.selected, .edge.selected {opacity: 1;}
.edge:hover path { stroke: red; }
.edge:hover polygon { stroke: red; fill: red; }
]]></style>
<script type="application/ecmascript" xlink:href="svg.min.js"/>
<svg id="graph" class="graph">
<g id="graph0" class="graph" transform="scale(1 1) rotate(0) translate(4 133.75)">
<title>bcnp::DuplexAdapter</title>
<!-- Node1 -->
<g id="Node000001" class="node">
<title>Node1</title>
<g id="a_Node000001"><a xlink:title="Combined send/receive interface for bidirectional transports.">
<polygon fill="#999999" stroke="#666666" points="177.12,-74.5 72.62,-74.5 72.62,-55.25 177.12,-55.25 177.12,-74.5"/>
<text text-anchor="middle" x="124.88" y="-61" font-family="Helvetica,sans-Serif" font-size="10.00">bcnp::DuplexAdapter</text>
</a>
</g>
</g>
<!-- Node4 -->
<g id="Node000004" class="node">
<title>Node4</title>
<g id="a_Node000004"><a xlink:href="classbcnp_1_1TcpPosixAdapter.html" target="_top" xlink:title="TCP transport adapter for BCNP over POSIX sockets.">
<polygon fill="white" stroke="#666666" points="115.75,-19.25 0,-19.25 0,0 115.75,0 115.75,-19.25"/>
<text text-anchor="middle" x="57.88" y="-5.75" font-family="Helvetica,sans-Serif" font-size="10.00">bcnp::TcpPosixAdapter</text>
</a>
</g>
</g>
<!-- Node1&#45;&gt;Node4 -->
<g id="edge3_Node000001_Node000004" class="edge">
<title>Node1&#45;&gt;Node4</title>
<g id="a_edge3_Node000001_Node000004"><a xlink:title=" ">
<path fill="none" stroke="#63b8ff" d="M104.83,-47.94C93.13,-38.64 78.8,-27.26 69.07,-19.52"/>
<polygon fill="#63b8ff" stroke="#63b8ff" points="102.32,-50.42 112.32,-53.9 106.67,-44.94 102.32,-50.42"/>
</a>
</g>
</g>
<!-- Node5 -->
<g id="Node000005" class="node">
<title>Node5</title>
<g id="a_Node000005"><a xlink:href="classbcnp_1_1UdpPosixAdapter.html" target="_top" xlink:title="UDP transport adapter for BCNP over POSIX sockets.">
<polygon fill="white" stroke="#666666" points="251.5,-19.25 134.25,-19.25 134.25,0 251.5,0 251.5,-19.25"/>
<text text-anchor="middle" x="192.88" y="-5.75" font-family="Helvetica,sans-Serif" font-size="10.00">bcnp::UdpPosixAdapter</text>
</a>
</g>
</g>
<!-- Node1&#45;&gt;Node5 -->
<g id="edge4_Node000001_Node000005" class="edge">
<title>Node1&#45;&gt;Node5</title>
<g id="a_edge4_Node000001_Node000005"><a xlink:title=" ">
<path fill="none" stroke="#63b8ff" d="M145.22,-47.94C157.1,-38.64 171.64,-27.26 181.51,-19.52"/>
<polygon fill="#63b8ff" stroke="#63b8ff" points="143.32,-44.99 137.6,-53.91 147.63,-50.5 143.32,-44.99"/>
</a>
</g>
</g>
<!-- Node2 -->
<g id="Node000002" class="node">
<title>Node2</title>
<g id="a_Node000002"><a xlink:href="classbcnp_1_1ByteWriter.html" target="_top" xlink:title="Interface for sending raw bytes over a transport.">
<polygon fill="white" stroke="#666666" points="114.12,-129.75 27.62,-129.75 27.62,-110.5 114.12,-110.5 114.12,-129.75"/>
<text text-anchor="middle" x="70.88" y="-116.25" font-family="Helvetica,sans-Serif" font-size="10.00">bcnp::ByteWriter</text>
</a>
</g>
</g>
<!-- Node2&#45;&gt;Node1 -->
<g id="edge1_Node000001_Node000002" class="edge">
<title>Node2&#45;&gt;Node1</title>
<g id="a_edge1_Node000001_Node000002"><a xlink:title=" ">
<path fill="none" stroke="#63b8ff" d="M87.91,-102.32C97.14,-93.23 108.17,-82.35 115.76,-74.86"/>
<polygon fill="#63b8ff" stroke="#63b8ff" points="85.53,-99.76 80.87,-109.27 90.45,-104.74 85.53,-99.76"/>
</a>
</g>
</g>
<!-- Node3 -->
<g id="Node000003" class="node">
<title>Node3</title>
<g id="a_Node000003"><a xlink:href="classbcnp_1_1ByteStream.html" target="_top" xlink:title="Interface for receiving raw bytes from a transport.">
<polygon fill="white" stroke="#666666" points="225.12,-129.75 132.62,-129.75 132.62,-110.5 225.12,-110.5 225.12,-129.75"/>
<text text-anchor="middle" x="178.88" y="-116.25" font-family="Helvetica,sans-Serif" font-size="10.00">bcnp::ByteStream</text>
</a>
</g>
</g>
<!-- Node3&#45;&gt;Node1 -->
<g id="edge2_Node000001_Node000003" class="edge">
<title>Node3&#45;&gt;Node1</title>
<g id="a_edge2_Node000001_Node000003"><a xlink:title=" ">
<path fill="none" stroke="#63b8ff" d="M161.84,-102.32C152.61,-93.23 141.58,-82.35 133.99,-74.86"/>
<polygon fill="#63b8ff" stroke="#63b8ff" points="159.3,-104.74 168.88,-109.27 164.22,-99.76 159.3,-104.74"/>
</a>
</g>
</g>
</g>
</svg>
</svg>

<style type='text/css'>
<![CDATA[
[data-mouse-over-selected='false'] { opacity: 0.7; }
[data-mouse-over-selected='true']  { opacity: 1.0; }
]]>
</style>
<script type="application/ecmascript"><![CDATA[
document.addEventListener('DOMContentLoaded', (event) => {
  highlightEdges();
  highlightAdjacentNodes();
});
]]></script>
</svg>
