<?xml version="1.0" encoding="UTF-8" standalone="no"?>
<!DOCTYPE svg PUBLIC "-//W3C//DTD SVG 1.1//EN"
 "http://www.w3.org/Graphics/SVG/1.1/DTD/svg11.dtd">
<!-- Generated by graphviz version 12.2.0 (20241103.1931)
 -->
<!-- Title: bcnp::SpiStreamAdapter::Poll Pages: 1 -->
<svg width="424pt" height="39pt"
 viewBox="0.00 0.00 423.50 38.50" xmlns="http://www.w3.org/2000/svg" xmlns:xlink="http://www.w3.org/1999/xlink">
<g id="graph0" class="graph" transform="scale(1 1) rotate(0) translate(4 34.5)">
<title>bcnp::SpiStreamAdapter::Poll</title>
<!-- Node1 -->
<g id="Node000001" class="node">
<title>Node1</title>
<g id="a_Node000001"><a xlink:title="Poll for incoming SPI data.">
<polygon fill="#999999" stroke="#666666" points="121,-30.5 0,-30.5 0,0 121,0 121,-30.5"/>
<text text-anchor="start" x="8" y="-17" font-family="Helvetica,sans-Serif" font-size="10.00">bcnp::SpiStreamAdapter</text>
<text text-anchor="middle" x="60.5" y="-5.75" font-family="Helvetica,sans-Serif" font-size="10.00">::Poll</text>
</a>
</g>
</g>
<!-- Node2 -->
<g id="Node000002" class="node">
<title>Node2</title>
<g id="a_Node000002"><a xlink:href="classbcnp_1_1SpiStreamAdapter.html#ab30138900d326cd1b53d5440bc99da85" target="_top" xlink:title="Push a data chunk directly to the parser.">
<polygon fill="white" stroke="#666666" points="278,-30.5 157,-30.5 157,0 278,0 278,-30.5"/>
<text text-anchor="start" x="165" y="-17" font-family="Helvetica,sans-Serif" font-size="10.00">bcnp::SpiStreamAdapter</text>
<text text-anchor="middle" x="217.5" y="-5.75" font-family="Helvetica,sans-Serif" font-size="10.00">::PushChunk</text>
</a>
</g>
</g>
<!-- Node1&#45;&gt;Node2 -->
<g id="edge1_Node000001_Node000002" class="edge">
<title>Node1&#45;&gt;Node2</title>
<g id="a_edge1_Node000001_Node000002"><a xlink:title=" ">
<path fill="none" stroke="#63b8ff" d="M121.43,-15.25C129.3,-15.25 137.43,-15.25 145.47,-15.25"/>
<polygon fill="#63b8ff" stroke="#63b8ff" points="145.22,-18.75 155.22,-15.25 145.22,-11.75 145.22,-18.75"/>
</a>
</g>
</g>
<!-- Node3 -->
<g id="Node000003" class="node">
<title>Node3</title>
<g id="a_Node000003"><a xlink:href="classbcnp_1_1StreamParser.html#aded412907bb5773c63587a3d58c3146a" target="_top" xlink:title="Push raw bytes into the parser for processing.">
<polygon fill="white" stroke="#666666" points="415.5,-30.5 314,-30.5 314,0 415.5,0 415.5,-30.5"/>
<text text-anchor="start" x="322" y="-17" font-family="Helvetica,sans-Serif" font-size="10.00">bcnp::StreamParser</text>
<text text-anchor="middle" x="364.75" y="-5.75" font-family="Helvetica,sans-Serif" font-size="10.00">::Push</text>
</a>
</g>
</g>
<!-- Node2&#45;&gt;Node3 -->
<g id="edge2_Node000002_Node000003" class="edge">
<title>Node2&#45;&gt;Node3</title>
<g id="a_edge2_Node000002_Node000003"><a xlink:title=" ">
<path fill="none" stroke="#63b8ff" d="M278.42,-15.25C286.29,-15.25 294.37,-15.25 302.28,-15.25"/>
<polygon fill="#63b8ff" stroke="#63b8ff" points="302.16,-18.75 312.16,-15.25 302.16,-11.75 302.16,-18.75"/>
</a>
</g>
</g>
</g>
</svg>
