<?xml version="1.0" encoding="UTF-8" standalone="no"?>
<!DOCTYPE svg PUBLIC "-//W3C//DTD SVG 1.1//EN"
 "http://www.w3.org/Graphics/SVG/1.1/DTD/svg11.dtd">
<!-- Generated by graphviz version 12.2.0 (20241103.1931)
 -->
<!-- Title: bcnp::TcpPosixAdapter::ReceiveChunk Pages: 1 -->
<svg width="624pt" height="64pt"
 viewBox="0.00 0.00 624.00 64.25" xmlns="http://www.w3.org/2000/svg" xmlns:xlink="http://www.w3.org/1999/xlink">
<g id="graph0" class="graph" transform="scale(1 1) rotate(0) translate(4 60.25)">
<title>bcnp::TcpPosixAdapter::ReceiveChunk</title>
<!-- Node1 -->
<g id="Node000001" class="node">
<title>Node1</title>
<g id="a_Node000001"><a xlink:title="Receives bytes from the TCP connection.">
<polygon fill="#999999" stroke="#666666" points="115.75,-42.88 0,-42.88 0,-12.37 115.75,-12.37 115.75,-42.88"/>
<text text-anchor="start" x="8" y="-29.38" font-family="Helvetica,sans-Serif" font-size="10.00">bcnp::TcpPosixAdapter</text>
<text text-anchor="middle" x="57.88" y="-18.12" font-family="Helvetica,sans-Serif" font-size="10.00">::ReceiveChunk</text>
</a>
</g>
</g>
<!-- Node2 -->
<g id="Node000002" class="node">
<title>Node2</title>
<g id="a_Node000002"><a xlink:href="classbcnp_1_1TcpPosixAdapter.html#a771c39d8f37f40b5854b6ba9aae40230" target="_top" xlink:title="Sends the V3 protocol handshake to the peer.">
<polygon fill="white" stroke="#666666" points="267.5,-42.88 151.75,-42.88 151.75,-12.37 267.5,-12.37 267.5,-42.88"/>
<text text-anchor="start" x="159.75" y="-29.38" font-family="Helvetica,sans-Serif" font-size="10.00">bcnp::TcpPosixAdapter</text>
<text text-anchor="middle" x="209.62" y="-18.12" font-family="Helvetica,sans-Serif" font-size="10.00">::SendHandshake</text>
</a>
</g>
</g>
<!-- Node1&#45;&gt;Node2 -->
<g id="edge1_Node000001_Node000002" class="edge">
<title>Node1&#45;&gt;Node2</title>
<g id="a_edge1_Node000001_Node000002"><a xlink:title=" ">
<path fill="none" stroke="#63b8ff" d="M115.92,-27.62C123.89,-27.62 132.16,-27.62 140.32,-27.62"/>
<polygon fill="#63b8ff" stroke="#63b8ff" points="140.23,-31.13 150.23,-27.63 140.23,-24.13 140.23,-31.13"/>
</a>
</g>
</g>
<!-- Node3 -->
<g id="Node000003" class="node">
<title>Node3</title>
<g id="a_Node000003"><a xlink:href="namespacebcnp.html#a3f0cc90c3f6a10d31333918c13f24666" target="_top" xlink:title="Encode handshake with default schema hash.">
<polygon fill="white" stroke="#666666" points="448.12,-56.25 324.88,-56.25 324.88,-37 448.12,-37 448.12,-56.25"/>
<text text-anchor="middle" x="386.5" y="-42.75" font-family="Helvetica,sans-Serif" font-size="10.00">bcnp::EncodeHandshake</text>
</a>
</g>
</g>
<!-- Node2&#45;&gt;Node3 -->
<g id="edge2_Node000002_Node000003" class="edge">
<title>Node2&#45;&gt;Node3</title>
<g id="a_edge2_Node000002_Node000003"><a xlink:title=" ">
<path fill="none" stroke="#63b8ff" d="M267.89,-33.85C282.33,-35.42 298.03,-37.12 313.12,-38.76"/>
<polygon fill="#63b8ff" stroke="#63b8ff" points="312.67,-42.23 322.99,-39.83 313.43,-35.27 312.67,-42.23"/>
</a>
</g>
</g>
<!-- Node5 -->
<g id="Node000005" class="node">
<title>Node5</title>
<g id="a_Node000005"><a xlink:href="namespacebcnp.html#a583dc6cf97c84c106a05ca36b38913b2" target="_top" xlink:title="Encode handshake with custom schema hash (for testing)">
<polygon fill="white" stroke="#666666" points="469.5,-19.25 303.5,-19.25 303.5,0 469.5,0 469.5,-19.25"/>
<text text-anchor="middle" x="386.5" y="-5.75" font-family="Helvetica,sans-Serif" font-size="10.00">bcnp::EncodeHandshakeWithHash</text>
</a>
</g>
</g>
<!-- Node2&#45;&gt;Node5 -->
<g id="edge4_Node000002_Node000005" class="edge">
<title>Node2&#45;&gt;Node5</title>
<g id="a_edge4_Node000002_Node000005"><a xlink:title=" ">
<path fill="none" stroke="#63b8ff" d="M267.89,-21.73C275.54,-20.94 283.54,-20.12 291.61,-19.29"/>
<polygon fill="#63b8ff" stroke="#63b8ff" points="291.96,-22.77 301.55,-18.27 291.24,-15.81 291.96,-22.77"/>
</a>
</g>
</g>
<!-- Node4 -->
<g id="Node000004" class="node">
<title>Node4</title>
<g id="a_Node000004"><a xlink:href="namespacebcnp_1_1detail.html#a8a74ef20767465b361f711c630f7bc3b" target="_top" xlink:title=" ">
<polygon fill="white" stroke="#666666" points="616,-37.25 505.5,-37.25 505.5,-18 616,-18 616,-37.25"/>
<text text-anchor="middle" x="560.75" y="-23.75" font-family="Helvetica,sans-Serif" font-size="10.00">bcnp::detail::StoreU32</text>
</a>
</g>
</g>
<!-- Node3&#45;&gt;Node4 -->
<g id="edge3_Node000003_Node000004" class="edge">
<title>Node3&#45;&gt;Node4</title>
<g id="a_edge3_Node000003_Node000004"><a xlink:title=" ">
<path fill="none" stroke="#63b8ff" d="M448.23,-39.93C462.97,-38.3 478.8,-36.55 493.78,-34.9"/>
<polygon fill="#63b8ff" stroke="#63b8ff" points="493.96,-38.4 503.52,-33.83 493.2,-31.45 493.96,-38.4"/>
</a>
</g>
</g>
<!-- Node5&#45;&gt;Node4 -->
<g id="edge5_Node000005_Node000004" class="edge">
<title>Node5&#45;&gt;Node4</title>
<g id="a_edge5_Node000005_Node000004"><a xlink:title=" ">
<path fill="none" stroke="#63b8ff" d="M469.84,-18.23C477.86,-19.07 485.92,-19.91 493.75,-20.73"/>
<polygon fill="#63b8ff" stroke="#63b8ff" points="493.21,-24.19 503.52,-21.75 493.94,-17.23 493.21,-24.19"/>
</a>
</g>
</g>
</g>
</svg>
