<?xml version="1.0" encoding="UTF-8" standalone="no"?>
<!DOCTYPE svg PUBLIC "-//W3C//DTD SVG 1.1//EN"
 "http://www.w3.org/Graphics/SVG/1.1/DTD/svg11.dtd">
<!-- Generated by graphviz version 12.2.0 (20241103.1931)
 -->
<!-- Title: bcnp::DispatcherDriver::SendPacket Pages: 1 -->
<svg width="442pt" height="101pt"
 viewBox="0.00 0.00 442.25 101.25" xmlns="http://www.w3.org/2000/svg" xmlns:xlink="http://www.w3.org/1999/xlink">
<g id="graph0" class="graph" transform="scale(1 1) rotate(0) translate(4 97.25)">
<title>bcnp::DispatcherDriver::SendPacket</title>
<!-- Node1 -->
<g id="Node000001" class="node">
<title>Node1</title>
<g id="a_Node000001"><a xlink:title="Send a typed packet.">
<polygon fill="#999999" stroke="#666666" points="113.5,-42.88 0,-42.88 0,-12.37 113.5,-12.37 113.5,-42.88"/>
<text text-anchor="start" x="8" y="-29.38" font-family="Helvetica,sans-Serif" font-size="10.00">bcnp::DispatcherDriver</text>
<text text-anchor="middle" x="56.75" y="-18.12" font-family="Helvetica,sans-Serif" font-size="10.00">::SendPacket</text>
</a>
</g>
</g>
<!-- Node2 -->
<g id="Node000002" class="node">
<title>Node2</title>
<g id="a_Node000002"><a xlink:href="namespacebcnp.html#a7230ac0a91ddcc20ac446c0699119779" target="_top" xlink:title="Encode a typed packet to a pre&#45;allocated buffer.">
<polygon fill="white" stroke="#666666" points="284,-56.25 153.25,-56.25 153.25,-37 284,-37 284,-56.25"/>
<text text-anchor="middle" x="218.62" y="-42.75" font-family="Helvetica,sans-Serif" font-size="10.00">bcnp::EncodeTypedPacket</text>
</a>
</g>
</g>
<!-- Node1&#45;&gt;Node2 -->
<g id="edge1_Node000001_Node000002" class="edge">
<title>Node1&#45;&gt;Node2</title>
<g id="a_edge1_Node000001_Node000002"><a xlink:title=" ">
<path fill="none" stroke="#63b8ff" d="M113.67,-34.27C122.69,-35.34 132.17,-36.47 141.57,-37.59"/>
<polygon fill="#63b8ff" stroke="#63b8ff" points="141.13,-41.06 151.47,-38.76 141.96,-34.11 141.13,-41.06"/>
</a>
</g>
</g>
<!-- Node6 -->
<g id="Node000006" class="node">
<title>Node6</title>
<g id="a_Node000006"><a xlink:href="classbcnp_1_1ByteWriter.html#a09808d8de18a12712701dbe4d1d0a4c4" target="_top" xlink:title="Send bytes over the transport.">
<polygon fill="white" stroke="#666666" points="287.75,-19.25 149.5,-19.25 149.5,0 287.75,0 287.75,-19.25"/>
<text text-anchor="middle" x="218.62" y="-5.75" font-family="Helvetica,sans-Serif" font-size="10.00">bcnp::ByteWriter::SendBytes</text>
</a>
</g>
</g>
<!-- Node1&#45;&gt;Node6 -->
<g id="edge5_Node000001_Node000006" class="edge">
<title>Node1&#45;&gt;Node6</title>
<g id="a_edge5_Node000001_Node000006"><a xlink:title=" ">
<path fill="none" stroke="#63b8ff" d="M113.67,-21.33C121.44,-20.45 129.55,-19.54 137.65,-18.63"/>
<polygon fill="#63b8ff" stroke="#63b8ff" points="138.03,-22.11 147.58,-17.51 137.25,-15.15 138.03,-22.11"/>
</a>
</g>
</g>
<!-- Node3 -->
<g id="Node000003" class="node">
<title>Node3</title>
<g id="a_Node000003"><a xlink:href="namespacebcnp.html#a9fe5fd2d19a061440fb7ff0bffab5101" target="_top" xlink:title="Compute CRC32 checksum for data integrity verification.">
<polygon fill="white" stroke="#666666" points="432,-93.25 326,-93.25 326,-74 432,-74 432,-93.25"/>
<text text-anchor="middle" x="379" y="-79.75" font-family="Helvetica,sans-Serif" font-size="10.00">bcnp::ComputeCrc32</text>
</a>
</g>
</g>
<!-- Node2&#45;&gt;Node3 -->
<g id="edge2_Node000002_Node000003" class="edge">
<title>Node2&#45;&gt;Node3</title>
<g id="a_edge2_Node000002_Node000003"><a xlink:title=" ">
<path fill="none" stroke="#63b8ff" d="M262.9,-56.74C281.67,-61.12 303.85,-66.3 323.71,-70.94"/>
<polygon fill="#63b8ff" stroke="#63b8ff" points="322.77,-74.32 333.3,-73.18 324.36,-67.5 322.77,-74.32"/>
</a>
</g>
</g>
<!-- Node4 -->
<g id="Node000004" class="node">
<title>Node4</title>
<g id="a_Node000004"><a xlink:href="namespacebcnp_1_1detail.html#a0f11d2df38ea2cb9f5bb35568bd10b50" target="_top" xlink:title=" ">
<polygon fill="white" stroke="#666666" points="434.25,-56.25 323.75,-56.25 323.75,-37 434.25,-37 434.25,-56.25"/>
<text text-anchor="middle" x="379" y="-42.75" font-family="Helvetica,sans-Serif" font-size="10.00">bcnp::detail::StoreU16</text>
</a>
</g>
</g>
<!-- Node2&#45;&gt;Node4 -->
<g id="edge3_Node000002_Node000004" class="edge">
<title>Node2&#45;&gt;Node4</title>
<g id="a_edge3_Node000002_Node000004"><a xlink:title=" ">
<path fill="none" stroke="#63b8ff" d="M284.5,-46.62C293.63,-46.62 303.02,-46.62 312.17,-46.62"/>
<polygon fill="#63b8ff" stroke="#63b8ff" points="312.07,-50.13 322.07,-46.63 312.07,-43.13 312.07,-50.13"/>
</a>
</g>
</g>
<!-- Node5 -->
<g id="Node000005" class="node">
<title>Node5</title>
<g id="a_Node000005"><a xlink:href="namespacebcnp_1_1detail.html#a8a74ef20767465b361f711c630f7bc3b" target="_top" xlink:title=" ">
<polygon fill="white" stroke="#666666" points="434.25,-19.25 323.75,-19.25 323.75,0 434.25,0 434.25,-19.25"/>
<text text-anchor="middle" x="379" y="-5.75" font-family="Helvetica,sans-Serif" font-size="10.00">bcnp::detail::StoreU32</text>
</a>
</g>
</g>
<!-- Node2&#45;&gt;Node5 -->
<g id="edge4_Node000002_Node000005" class="edge">
<title>Node2&#45;&gt;Node5</title>
<g id="a_edge4_Node000002_Node000005"><a xlink:title=" ">
<path fill="none" stroke="#63b8ff" d="M262.9,-36.51C281.67,-32.13 303.85,-26.95 323.71,-22.31"/>
<polygon fill="#63b8ff" stroke="#63b8ff" points="324.36,-25.75 333.3,-20.07 322.77,-18.93 324.36,-25.75"/>
</a>
</g>
</g>
</g>
</svg>
