<?xml version="1.0" encoding="UTF-8" standalone="no"?>
<!DOCTYPE svg PUBLIC "-//W3C//DTD SVG 1.1//EN"
 "http://www.w3.org/Graphics/SVG/1.1/DTD/svg11.dtd">
<!-- Generated by graphviz version 12.2.0 (20241103.1931)
 -->
<!-- Title: bcnp::StaticVector::operator= Pages: 1 -->
<svg width="235pt" height="137pt"
 viewBox="0.00 0.00 235.00 136.50" xmlns="http://www.w3.org/2000/svg" xmlns:xlink="http://www.w3.org/1999/xlink">
<g id="graph0" class="graph" transform="scale(1 1) rotate(0) translate(4 132.5)">
<title>bcnp::StaticVector::operator=</title>
<!-- Node1 -->
<g id="Node000001" class="node">
<title>Node1</title>
<g id="a_Node000001"><a xlink:title="Copy assignment.">
<polygon fill="#999999" stroke="#666666" points="95.5,-79.5 0,-79.5 0,-49 95.5,-49 95.5,-79.5"/>
<text text-anchor="start" x="8" y="-66" font-family="Helvetica,sans-Serif" font-size="10.00">bcnp::StaticVector</text>
<text text-anchor="middle" x="47.75" y="-54.75" font-family="Helvetica,sans-Serif" font-size="10.00">::operator=</text>
</a>
</g>
</g>
<!-- Node2 -->
<g id="Node000002" class="node">
<title>Node2</title>
<g id="a_Node000002"><a xlink:href="classbcnp_1_1StaticVector.html#adedac6b87c8326b536f8505843fcb8c6" target="_top" xlink:title=" ">
<polygon fill="white" stroke="#666666" points="227,-128.5 131.5,-128.5 131.5,-98 227,-98 227,-128.5"/>
<text text-anchor="start" x="139.5" y="-115" font-family="Helvetica,sans-Serif" font-size="10.00">bcnp::StaticVector</text>
<text text-anchor="middle" x="179.25" y="-103.75" font-family="Helvetica,sans-Serif" font-size="10.00">::clear</text>
</a>
</g>
</g>
<!-- Node1&#45;&gt;Node2 -->
<g id="edge1_Node000001_Node000002" class="edge">
<title>Node1&#45;&gt;Node2</title>
<g id="a_edge1_Node000001_Node000002"><a xlink:title=" ">
<path fill="none" stroke="#63b8ff" d="M90.08,-79.89C101.65,-84.26 114.36,-89.08 126.45,-93.65"/>
<polygon fill="#63b8ff" stroke="#63b8ff" points="124.86,-96.79 135.45,-97.06 127.34,-90.24 124.86,-96.79"/>
</a>
</g>
</g>
<!-- Node3 -->
<g id="Node000003" class="node">
<title>Node3</title>
<g id="a_Node000003"><a xlink:href="classbcnp_1_1StaticVector.html#a67863868b9be1dd443610d650a5c1b60" target="_top" xlink:title="Add element by copy (throws if full).">
<polygon fill="white" stroke="#666666" points="227,-79.5 131.5,-79.5 131.5,-49 227,-49 227,-79.5"/>
<text text-anchor="start" x="139.5" y="-66" font-family="Helvetica,sans-Serif" font-size="10.00">bcnp::StaticVector</text>
<text text-anchor="middle" x="179.25" y="-54.75" font-family="Helvetica,sans-Serif" font-size="10.00">::push_back</text>
</a>
</g>
</g>
<!-- Node1&#45;&gt;Node3 -->
<g id="edge2_Node000001_Node000003" class="edge">
<title>Node1&#45;&gt;Node3</title>
<g id="a_edge2_Node000001_Node000003"><a xlink:title=" ">
<path fill="none" stroke="#63b8ff" d="M95.87,-64.25C103.73,-64.25 111.97,-64.25 120.08,-64.25"/>
<polygon fill="#63b8ff" stroke="#63b8ff" points="119.87,-67.75 129.87,-64.25 119.87,-60.75 119.87,-67.75"/>
</a>
</g>
</g>
<!-- Node4 -->
<g id="Node000004" class="node">
<title>Node4</title>
<g id="a_Node000004"><a xlink:href="classbcnp_1_1StaticVector.html#a89ac137042ca58ec1628de672126ea79" target="_top" xlink:title=" ">
<polygon fill="white" stroke="#666666" points="227,-30.5 131.5,-30.5 131.5,0 227,0 227,-30.5"/>
<text text-anchor="start" x="139.5" y="-17" font-family="Helvetica,sans-Serif" font-size="10.00">bcnp::StaticVector</text>
<text text-anchor="middle" x="179.25" y="-5.75" font-family="Helvetica,sans-Serif" font-size="10.00">::size</text>
</a>
</g>
</g>
<!-- Node1&#45;&gt;Node4 -->
<g id="edge3_Node000001_Node000004" class="edge">
<title>Node1&#45;&gt;Node4</title>
<g id="a_edge3_Node000001_Node000004"><a xlink:title=" ">
<path fill="none" stroke="#63b8ff" d="M90.08,-48.61C101.65,-44.24 114.36,-39.42 126.45,-34.85"/>
<polygon fill="#63b8ff" stroke="#63b8ff" points="127.34,-38.26 135.45,-31.44 124.86,-31.71 127.34,-38.26"/>
</a>
</g>
</g>
</g>
</svg>
