<?xml version="1.0" encoding="UTF-8" standalone="no"?>
<!DOCTYPE svg PUBLIC "-//W3C//DTD SVG 1.1//EN"
 "http://www.w3.org/Graphics/SVG/1.1/DTD/svg11.dtd">
<!-- Generated by graphviz version 12.2.0 (20241103.1931)
 -->
<!-- Title: bcnp::StaticVector::emplace_back Pages: 1 -->
<svg width="235pt" height="137pt"
 viewBox="0.00 0.00 235.00 136.50" xmlns="http://www.w3.org/2000/svg" xmlns:xlink="http://www.w3.org/1999/xlink">
<g id="graph0" class="graph" transform="scale(1 1) rotate(0) translate(4 132.5)">
<title>bcnp::StaticVector::emplace_back</title>
<!-- Node1 -->
<g id="Node000001" class="node">
<title>Node1</title>
<g id="a_Node000001"><a xlink:title="Construct element in&#45;place at end.">
<polygon fill="#999999" stroke="#666666" points="227,-79.5 131.5,-79.5 131.5,-49 227,-49 227,-79.5"/>
<text text-anchor="start" x="139.5" y="-66" font-family="Helvetica,sans-Serif" font-size="10.00">bcnp::StaticVector</text>
<text text-anchor="middle" x="179.25" y="-54.75" font-family="Helvetica,sans-Serif" font-size="10.00">::emplace_back</text>
</a>
</g>
</g>
<!-- Node2 -->
<g id="Node000002" class="node">
<title>Node2</title>
<g id="a_Node000002"><a xlink:href="classbcnp_1_1StaticVector.html#aec927b4bc213ff618262f93c9cb73d0a" target="_top" xlink:title="Move assignment operator.">
<polygon fill="white" stroke="#666666" points="95.5,-128.5 0,-128.5 0,-98 95.5,-98 95.5,-128.5"/>
<text text-anchor="start" x="8" y="-115" font-family="Helvetica,sans-Serif" font-size="10.00">bcnp::StaticVector</text>
<text text-anchor="middle" x="47.75" y="-103.75" font-family="Helvetica,sans-Serif" font-size="10.00">::operator=</text>
</a>
</g>
</g>
<!-- Node1&#45;&gt;Node2 -->
<g id="edge1_Node000001_Node000002" class="edge">
<title>Node1&#45;&gt;Node2</title>
<g id="a_edge1_Node000001_Node000002"><a xlink:title=" ">
<path fill="none" stroke="#63b8ff" d="M126.5,-83.83C114.42,-88.4 101.7,-93.21 90.13,-97.59"/>
<polygon fill="#63b8ff" stroke="#63b8ff" points="127.39,-87.24 135.5,-80.42 124.91,-80.69 127.39,-87.24"/>
</a>
</g>
</g>
<!-- Node3 -->
<g id="Node000003" class="node">
<title>Node3</title>
<g id="a_Node000003"><a xlink:href="classbcnp_1_1StaticVector.html#a38200f1e39fd0ad2aadf3e1d826feef0" target="_top" xlink:title="Resize the vector.">
<polygon fill="white" stroke="#666666" points="95.5,-79.5 0,-79.5 0,-49 95.5,-49 95.5,-79.5"/>
<text text-anchor="start" x="8" y="-66" font-family="Helvetica,sans-Serif" font-size="10.00">bcnp::StaticVector</text>
<text text-anchor="middle" x="47.75" y="-54.75" font-family="Helvetica,sans-Serif" font-size="10.00">::resize</text>
</a>
</g>
</g>
<!-- Node1&#45;&gt;Node3 -->
<g id="edge2_Node000001_Node000003" class="edge">
<title>Node1&#45;&gt;Node3</title>
<g id="a_edge2_Node000001_Node000003"><a xlink:title=" ">
<path fill="none" stroke="#63b8ff" d="M119.82,-64.25C111.71,-64.25 103.47,-64.25 95.62,-64.25"/>
<polygon fill="#63b8ff" stroke="#63b8ff" points="119.62,-67.75 129.62,-64.25 119.62,-60.75 119.62,-67.75"/>
</a>
</g>
</g>
<!-- Node4 -->
<g id="Node000004" class="node">
<title>Node4</title>
<g id="a_Node000004"><a xlink:href="classbcnp_1_1StaticVector.html#ace9c00f8e44d324d9e68587456228930" target="_top" xlink:title="Move constructor &#45; moves all elements.">
<polygon fill="white" stroke="#666666" points="95.5,-30.5 0,-30.5 0,0 95.5,0 95.5,-30.5"/>
<text text-anchor="start" x="8" y="-17" font-family="Helvetica,sans-Serif" font-size="10.00">bcnp::StaticVector</text>
<text text-anchor="middle" x="47.75" y="-5.75" font-family="Helvetica,sans-Serif" font-size="10.00">::StaticVector</text>
</a>
</g>
</g>
<!-- Node1&#45;&gt;Node4 -->
<g id="edge3_Node000001_Node000004" class="edge">
<title>Node1&#45;&gt;Node4</title>
<g id="a_edge3_Node000001_Node000004"><a xlink:title=" ">
<path fill="none" stroke="#63b8ff" d="M126.5,-44.67C114.42,-40.1 101.7,-35.29 90.13,-30.91"/>
<polygon fill="#63b8ff" stroke="#63b8ff" points="124.91,-47.81 135.5,-48.08 127.39,-41.26 124.91,-47.81"/>
</a>
</g>
</g>
</g>
</svg>
