<?xml version="1.0" encoding="UTF-8" standalone="no"?>
<!DOCTYPE svg PUBLIC "-//W3C//DTD SVG 1.1//EN"
 "http://www.w3.org/Graphics/SVG/1.1/DTD/svg11.dtd">
<!-- Generated by graphviz version 12.2.0 (20241103.1931)
 -->
<!-- Title: bcnp::SpiStreamAdapter::SendPacket Pages: 1 -->
<svg width="442pt" height="101pt"
 viewBox="0.00 0.00 442.25 101.25" xmlns="http://www.w3.org/2000/svg" xmlns:xlink="http://www.w3.org/1999/xlink">
<g id="graph0" class="graph" transform="scale(1 1) rotate(0) translate(4 97.25)">
<title>bcnp::SpiStreamAdapter::SendPacket</title>
<!-- Node1 -->
<g id="Node000001" class="node">
<title>Node1</title>
<g id="a_Node000001"><a xlink:title="Send a typed packet over SPI.">
<polygon fill="#999999" stroke="#666666" points="121,-61.88 0,-61.88 0,-31.38 121,-31.38 121,-61.88"/>
<text text-anchor="start" x="8" y="-48.38" font-family="Helvetica,sans-Serif" font-size="10.00">bcnp::SpiStreamAdapter</text>
<text text-anchor="middle" x="60.5" y="-37.12" font-family="Helvetica,sans-Serif" font-size="10.00">::SendPacket</text>
</a>
</g>
</g>
<!-- Node2 -->
<g id="Node000002" class="node">
<title>Node2</title>
<g id="a_Node000002"><a xlink:href="namespacebcnp.html#a7230ac0a91ddcc20ac446c0699119779" target="_top" xlink:title="Encode a typed packet to a pre&#45;allocated buffer.">
<polygon fill="white" stroke="#666666" points="287.75,-56.25 157,-56.25 157,-37 287.75,-37 287.75,-56.25"/>
<text text-anchor="middle" x="222.38" y="-42.75" font-family="Helvetica,sans-Serif" font-size="10.00">bcnp::EncodeTypedPacket</text>
</a>
</g>
</g>
<!-- Node1&#45;&gt;Node2 -->
<g id="edge1_Node000001_Node000002" class="edge">
<title>Node1&#45;&gt;Node2</title>
<g id="a_edge1_Node000001_Node000002"><a xlink:title=" ">
<path fill="none" stroke="#63b8ff" d="M121.49,-46.62C129.17,-46.62 137.11,-46.62 145,-46.62"/>
<polygon fill="#63b8ff" stroke="#63b8ff" points="144.99,-50.13 154.99,-46.63 144.99,-43.13 144.99,-50.13"/>
</a>
</g>
</g>
<!-- Node3 -->
<g id="Node000003" class="node">
<title>Node3</title>
<g id="a_Node000003"><a xlink:href="namespacebcnp.html#a9fe5fd2d19a061440fb7ff0bffab5101" target="_top" xlink:title="Compute CRC32 checksum for data integrity verification.">
<polygon fill="white" stroke="#666666" points="432,-93.25 326,-93.25 326,-74 432,-74 432,-93.25"/>
<text text-anchor="middle" x="379" y="-79.75" font-family="Helvetica,sans-Serif" font-size="10.00">bcnp::ComputeCrc32</text>
</a>
</g>
</g>
<!-- Node2&#45;&gt;Node3 -->
<g id="edge2_Node000002_Node000003" class="edge">
<title>Node2&#45;&gt;Node3</title>
<g id="a_edge2_Node000002_Node000003"><a xlink:title=" ">
<path fill="none" stroke="#63b8ff" d="M265.63,-56.74C283.87,-61.1 305.41,-66.25 324.72,-70.88"/>
<polygon fill="#63b8ff" stroke="#63b8ff" points="323.79,-74.25 334.33,-73.17 325.42,-67.44 323.79,-74.25"/>
</a>
</g>
</g>
<!-- Node4 -->
<g id="Node000004" class="node">
<title>Node4</title>
<g id="a_Node000004"><a xlink:href="namespacebcnp_1_1detail.html#a0f11d2df38ea2cb9f5bb35568bd10b50" target="_top" xlink:title=" ">
<polygon fill="white" stroke="#666666" points="434.25,-56.25 323.75,-56.25 323.75,-37 434.25,-37 434.25,-56.25"/>
<text text-anchor="middle" x="379" y="-42.75" font-family="Helvetica,sans-Serif" font-size="10.00">bcnp::detail::StoreU16</text>
</a>
</g>
</g>
<!-- Node2&#45;&gt;Node4 -->
<g id="edge3_Node000002_Node000004" class="edge">
<title>Node2&#45;&gt;Node4</title>
<g id="a_edge3_Node000002_Node000004"><a xlink:title=" ">
<path fill="none" stroke="#63b8ff" d="M288.05,-46.62C295.95,-46.62 304.03,-46.62 311.94,-46.62"/>
<polygon fill="#63b8ff" stroke="#63b8ff" points="311.87,-50.13 321.87,-46.63 311.87,-43.13 311.87,-50.13"/>
</a>
</g>
</g>
<!-- Node5 -->
<g id="Node000005" class="node">
<title>Node5</title>
<g id="a_Node000005"><a xlink:href="namespacebcnp_1_1detail.html#a8a74ef20767465b361f711c630f7bc3b" target="_top" xlink:title=" ">
<polygon fill="white" stroke="#666666" points="434.25,-19.25 323.75,-19.25 323.75,0 434.25,0 434.25,-19.25"/>
<text text-anchor="middle" x="379" y="-5.75" font-family="Helvetica,sans-Serif" font-size="10.00">bcnp::detail::StoreU32</text>
</a>
</g>
</g>
<!-- Node2&#45;&gt;Node5 -->
<g id="edge4_Node000002_Node000005" class="edge">
<title>Node2&#45;&gt;Node5</title>
<g id="a_edge4_Node000002_Node000005"><a xlink:title=" ">
<path fill="none" stroke="#63b8ff" d="M265.63,-36.51C283.87,-32.15 305.41,-27 324.72,-22.37"/>
<polygon fill="#63b8ff" stroke="#63b8ff" points="325.42,-25.81 334.33,-20.08 323.79,-19 325.42,-25.81"/>
</a>
</g>
</g>
</g>
</svg>
