<?xml version="1.0" encoding="UTF-8" standalone="no"?>
<!DOCTYPE svg PUBLIC "-//W3C//DTD SVG 1.1//EN"
 "http://www.w3.org/Graphics/SVG/1.1/DTD/svg11.dtd">
<!-- Generated by graphviz version 12.2.0 (20241103.1931)
 -->
<!-- Title: bcnp::StaticVector::size Pages: 1 -->
<svg width="248pt" height="260pt"
 viewBox="0.00 0.00 247.75 259.88" xmlns="http://www.w3.org/2000/svg" xmlns:xlink="http://www.w3.org/1999/xlink">
<g id="graph0" class="graph" transform="scale(1 1) rotate(0) translate(4 255.88)">
<title>bcnp::StaticVector::size</title>
<!-- Node1 -->
<g id="Node000001" class="node">
<title>Node1</title>
<g id="a_Node000001"><a xlink:title=" ">
<polygon fill="#999999" stroke="#666666" points="239.75,-152.5 144.25,-152.5 144.25,-122 239.75,-122 239.75,-152.5"/>
<text text-anchor="start" x="152.25" y="-139" font-family="Helvetica,sans-Serif" font-size="10.00">bcnp::StaticVector</text>
<text text-anchor="middle" x="192" y="-127.75" font-family="Helvetica,sans-Serif" font-size="10.00">::size</text>
</a>
</g>
</g>
<!-- Node2 -->
<g id="Node000002" class="node">
<title>Node2</title>
<g id="a_Node000002"><a xlink:href="classbcnp_1_1StaticVector.html#ab342302baa352558090e0014df0cff2a" target="_top" xlink:title="Bounds&#45;checked access (throws on out&#45;of&#45;range).">
<polygon fill="white" stroke="#666666" points="108.25,-251.88 0,-251.88 0,-232.62 108.25,-232.62 108.25,-251.88"/>
<text text-anchor="middle" x="54.12" y="-238.38" font-family="Helvetica,sans-Serif" font-size="10.00">bcnp::StaticVector::at</text>
</a>
</g>
</g>
<!-- Node1&#45;&gt;Node2 -->
<g id="edge1_Node000001_Node000002" class="edge">
<title>Node1&#45;&gt;Node2</title>
<g id="a_edge1_Node000001_Node000002"><a xlink:title=" ">
<path fill="none" stroke="#63b8ff" d="M173.07,-161.84C157.78,-181.22 134.21,-207.66 108.25,-224.25 103.41,-227.34 97.98,-229.97 92.48,-232.17"/>
<polygon fill="#63b8ff" stroke="#63b8ff" points="175.64,-164.23 178.96,-154.17 170.09,-159.97 175.64,-164.23"/>
</a>
</g>
</g>
<!-- Node3 -->
<g id="Node000003" class="node">
<title>Node3</title>
<g id="a_Node000003"><a xlink:href="classbcnp_1_1StaticVector.html#a98c044791f6eb8405b114a5b1a6644c8" target="_top" xlink:title=" ">
<polygon fill="white" stroke="#666666" points="108.25,-214.88 0,-214.88 0,-195.62 108.25,-195.62 108.25,-214.88"/>
<text text-anchor="middle" x="54.12" y="-201.38" font-family="Helvetica,sans-Serif" font-size="10.00">bcnp::StaticVector::at</text>
</a>
</g>
</g>
<!-- Node1&#45;&gt;Node3 -->
<g id="edge2_Node000001_Node000003" class="edge">
<title>Node1&#45;&gt;Node3</title>
<g id="a_edge2_Node000001_Node000003"><a xlink:title=" ">
<path fill="none" stroke="#63b8ff" d="M157.7,-158.94C142.91,-168.06 125.07,-178.35 108.25,-186.25 101.33,-189.5 93.7,-192.53 86.43,-195.18"/>
<polygon fill="#63b8ff" stroke="#63b8ff" points="159.5,-161.94 166.12,-153.67 155.79,-156.01 159.5,-161.94"/>
</a>
</g>
</g>
<!-- Node4 -->
<g id="Node000004" class="node">
<title>Node4</title>
<g id="a_Node000004"><a xlink:href="classbcnp_1_1StaticVector.html#ac79d2524430447864737988439f851a2" target="_top" xlink:title="Copy assignment.">
<polygon fill="white" stroke="#666666" points="101.88,-177.5 6.38,-177.5 6.38,-147 101.88,-147 101.88,-177.5"/>
<text text-anchor="start" x="14.38" y="-164" font-family="Helvetica,sans-Serif" font-size="10.00">bcnp::StaticVector</text>
<text text-anchor="middle" x="54.12" y="-152.75" font-family="Helvetica,sans-Serif" font-size="10.00">::operator=</text>
</a>
</g>
</g>
<!-- Node1&#45;&gt;Node4 -->
<g id="edge3_Node000001_Node000004" class="edge">
<title>Node1&#45;&gt;Node4</title>
<g id="a_edge3_Node000001_Node000004"><a xlink:title=" ">
<path fill="none" stroke="#63b8ff" d="M132.57,-148C122.42,-149.87 111.98,-151.79 102.18,-153.59"/>
<polygon fill="#63b8ff" stroke="#63b8ff" points="133.17,-151.45 142.37,-146.2 131.9,-144.56 133.17,-151.45"/>
</a>
</g>
</g>
<!-- Node5 -->
<g id="Node000005" class="node">
<title>Node5</title>
<g id="a_Node000005"><a xlink:href="classbcnp_1_1StaticVector.html#a38200f1e39fd0ad2aadf3e1d826feef0" target="_top" xlink:title=" ">
<polygon fill="white" stroke="#666666" points="101.88,-128.5 6.38,-128.5 6.38,-98 101.88,-98 101.88,-128.5"/>
<text text-anchor="start" x="14.38" y="-115" font-family="Helvetica,sans-Serif" font-size="10.00">bcnp::StaticVector</text>
<text text-anchor="middle" x="54.12" y="-103.75" font-family="Helvetica,sans-Serif" font-size="10.00">::resize</text>
</a>
</g>
</g>
<!-- Node1&#45;&gt;Node5 -->
<g id="edge4_Node000001_Node000005" class="edge">
<title>Node1&#45;&gt;Node5</title>
<g id="a_edge4_Node000001_Node000005"><a xlink:title=" ">
<path fill="none" stroke="#63b8ff" d="M132.57,-126.93C122.42,-125.14 111.98,-123.29 102.18,-121.56"/>
<polygon fill="#63b8ff" stroke="#63b8ff" points="131.91,-130.37 142.37,-128.66 133.13,-123.47 131.91,-130.37"/>
</a>
</g>
</g>
<!-- Node6 -->
<g id="Node000006" class="node">
<title>Node6</title>
<g id="a_Node000006"><a xlink:href="classbcnp_1_1StaticVector.html#a7555a468e5702dcac1542f8221a9dd2e" target="_top" xlink:title=" ">
<polygon fill="white" stroke="#666666" points="101.88,-79.5 6.38,-79.5 6.38,-49 101.88,-49 101.88,-79.5"/>
<text text-anchor="start" x="14.38" y="-66" font-family="Helvetica,sans-Serif" font-size="10.00">bcnp::StaticVector</text>
<text text-anchor="middle" x="54.12" y="-54.75" font-family="Helvetica,sans-Serif" font-size="10.00">::resize</text>
</a>
</g>
</g>
<!-- Node1&#45;&gt;Node6 -->
<g id="edge5_Node000001_Node000006" class="edge">
<title>Node1&#45;&gt;Node6</title>
<g id="a_edge5_Node000001_Node000006"><a xlink:title=" ">
<path fill="none" stroke="#63b8ff" d="M155.63,-115.84C141.11,-107.28 124.03,-97.52 108.25,-89.25 102.29,-86.13 95.87,-82.95 89.63,-79.96"/>
<polygon fill="#63b8ff" stroke="#63b8ff" points="153.54,-118.67 163.93,-120.77 157.12,-112.65 153.54,-118.67"/>
</a>
</g>
</g>
<!-- Node7 -->
<g id="Node000007" class="node">
<title>Node7</title>
<g id="a_Node000007"><a xlink:href="classbcnp_1_1StaticVector.html#a0a5205e50e2f8071401b68a387cc8c19" target="_top" xlink:title="Copy constructor.">
<polygon fill="white" stroke="#666666" points="101.88,-30.5 6.38,-30.5 6.38,0 101.88,0 101.88,-30.5"/>
<text text-anchor="start" x="14.38" y="-17" font-family="Helvetica,sans-Serif" font-size="10.00">bcnp::StaticVector</text>
<text text-anchor="middle" x="54.12" y="-5.75" font-family="Helvetica,sans-Serif" font-size="10.00">::StaticVector</text>
</a>
</g>
</g>
<!-- Node1&#45;&gt;Node7 -->
<g id="edge6_Node000001_Node000007" class="edge">
<title>Node1&#45;&gt;Node7</title>
<g id="a_edge6_Node000001_Node000007"><a xlink:title=" ">
<path fill="none" stroke="#63b8ff" d="M174.35,-112.31C159.13,-91.01 134.98,-60.66 108.25,-40.25 103.79,-36.85 98.8,-33.75 93.71,-30.99"/>
<polygon fill="#63b8ff" stroke="#63b8ff" points="171.42,-114.24 180.01,-120.44 177.16,-110.23 171.42,-114.24"/>
</a>
</g>
</g>
</g>
</svg>
