<?xml version="1.0" encoding="UTF-8" standalone="no"?>
<!DOCTYPE svg PUBLIC "-//W3C//DTD SVG 1.1//EN"
 "http://www.w3.org/Graphics/SVG/1.1/DTD/svg11.dtd">
<!-- Generated by graphviz version 12.2.0 (20241103.1931)
 -->
<!-- Title: bcnp/command_queue.h Pages: 1 -->
<!--zoomable 138 -->

<svg id="main" version="1.1" xmlns="http://www.w3.org/2000/svg" xmlns:xlink="http://www.w3.org/1999/xlink" xml:space="preserve" onload="init(evt)">

<style type="text/css"><![CDATA[
.node, .edge {opacity: 0.7;}
.node.selected, .edge.selected {opacity: 1;}
.edge:hover path { stroke: red; }
.edge:hover polygon { stroke: red; fill: red; }
]]></style>

<defs>
  <circle id="rim" cx="0" cy="0" r="7"/>
  <circle id="rim2" cx="0" cy="0" r="3.5"/>
  <g id="zoomPlus">
    <use xlink:href="#rim" fill="#404040"><set attributeName="fill" to="#808080" begin="zoomplus.mouseover" end="zoomplus.mouseout"/></use>
    <path d="M-4,0h8M0,-4v8" fill="none" stroke="white" stroke-width="1.5" pointer-events="none"/>
  </g>
  <g id="zoomMin">
    <use xlink:href="#rim" fill="#404040"><set attributeName="fill" to="#808080" begin="zoomminus.mouseover" end="zoomminus.mouseout"/></use>
    <path d="M-4,0h8" fill="none" stroke="white" stroke-width="1.5" pointer-events="none"/>
  </g>
  <g id="arrowUp" transform="translate(30 24)">
    <use xlink:href="#rim"/>
    <path pointer-events="none" fill="none" stroke="white" stroke-width="1.5" d="M0,-3.0v7 M-2.5,-0.5L0,-3.0L2.5,-0.5"/>
  </g>
  <g id="arrowRight" transform="rotate(90) translate(36 -43)">
    <use xlink:href="#rim"/>
    <path pointer-events="none" fill="none" stroke="white" stroke-width="1.5" d="M0,-3.0v7 M-2.5,-0.5L0,-3.0L2.5,-0.5"/>
  </g>
  <g id="arrowDown" transform="rotate(180) translate(-30 -48)">
    <use xlink:href="#rim"/>
    <path pointer-events="none" fill="none" stroke="white" stroke-width="1.5" d="M0,-3.0v7 M-2.5,-0.5L0,-3.0L2.5,-0.5"/>
  </g>
  <g id="arrowLeft" transform="rotate(270) translate(-36 17)">
    <use xlink:href="#rim"/>
    <path pointer-events="none" fill="none" stroke="white" stroke-width="1.5" d="M0,-3.0v7 M-2.5,-0.5L0,-3.0L2.5,-0.5"/>
  </g>
  <g id="resetDef">
    <use xlink:href="#rim2" fill="#404040"><set attributeName="fill" to="#808080" begin="reset.mouseover" end="reset.mouseout"/></use>
  </g>
</defs>
<script type="application/ecmascript">
var viewWidth = 914;
var viewHeight = 138;
var sectionId = 'dynsection-0';
</script>
<script type="application/ecmascript" xlink:href="svg.min.js"/>
<svg id="graph" class="graph">
<g id="viewport">
<title>bcnp/command_queue.h</title>
<!-- Node1 -->
<g id="Node000001" class="node">
<title>Node1</title>
<g id="a_Node000001"><a xlink:title=" ">
<polygon fill="#999999" stroke="#666666" points="458,-129.75 336.25,-129.75 336.25,-110.5 458,-110.5 458,-129.75"/>
<text text-anchor="middle" x="397.12" y="-116.25" font-family="Helvetica,sans-Serif" font-size="10.00">bcnp/command_queue.h</text>
</a>
</g>
</g>
<!-- Node2 -->
<g id="Node000002" class="node">
<title>Node2</title>
<g id="a_Node000002"><a xlink:href="message__queue_8h.html" target="_top" xlink:title="Timed message queue for executing duration&#45;based commands.">
<polygon fill="white" stroke="#666666" points="333.5,-74.5 214.75,-74.5 214.75,-55.25 333.5,-55.25 333.5,-74.5"/>
<text text-anchor="middle" x="274.12" y="-61" font-family="Helvetica,sans-Serif" font-size="10.00">bcnp/message_queue.h</text>
</a>
</g>
</g>
<!-- Node1&#45;&gt;Node2 -->
<g id="edge1_Node000001_Node000002" class="edge">
<title>Node1&#45;&gt;Node2</title>
<g id="a_edge1_Node000001_Node000002"><a xlink:title=" ">
<path fill="none" stroke="#63b8ff" d="M376.26,-110.09C356.82,-101.68 327.58,-89.02 305.36,-79.4"/>
<polygon fill="#63b8ff" stroke="#63b8ff" points="307.05,-76.31 296.48,-75.55 304.27,-82.74 307.05,-76.31"/>
</a>
</g>
</g>
<!-- Node10 -->
<g id="Node000010" class="node">
<title>Node10</title>
<g id="a_Node000010"><a xlink:href="message__types_8h.html" target="_top" xlink:title=" ">
<polygon fill="white" stroke="#666666" points="644,-74.5 528.25,-74.5 528.25,-55.25 644,-55.25 644,-74.5"/>
<text text-anchor="middle" x="586.12" y="-61" font-family="Helvetica,sans-Serif" font-size="10.00">bcnp/message_types.h</text>
</a>
</g>
</g>
<!-- Node1&#45;&gt;Node10 -->
<g id="edge9_Node000001_Node000010" class="edge">
<title>Node1&#45;&gt;Node10</title>
<g id="a_edge9_Node000001_Node000010"><a xlink:title=" ">
<path fill="none" stroke="#63b8ff" d="M429.19,-110.09C460.55,-101.26 508.51,-87.74 543.16,-77.98"/>
<polygon fill="#63b8ff" stroke="#63b8ff" points="543.77,-81.44 552.45,-75.36 541.88,-74.71 543.77,-81.44"/>
</a>
</g>
</g>
<!-- Node3 -->
<g id="Node000003" class="node">
<title>Node3</title>
<g id="a_Node000003"><a xlink:title=" ">
<polygon fill="#e0e0e0" stroke="#999999" points="267,-19.25 211.25,-19.25 211.25,0 267,0 267,-19.25"/>
<text text-anchor="middle" x="239.12" y="-5.75" font-family="Helvetica,sans-Serif" font-size="10.00">algorithm</text>
</a>
</g>
</g>
<!-- Node2&#45;&gt;Node3 -->
<g id="edge2_Node000002_Node000003" class="edge">
<title>Node2&#45;&gt;Node3</title>
<g id="a_edge2_Node000002_Node000003"><a xlink:title=" ">
<path fill="none" stroke="#63b8ff" d="M268.35,-55.08C263.71,-48.03 257.05,-37.9 251.26,-29.08"/>
<polygon fill="#63b8ff" stroke="#63b8ff" points="254.28,-27.31 245.86,-20.87 248.43,-31.15 254.28,-27.31"/>
</a>
</g>
</g>
<!-- Node4 -->
<g id="Node000004" class="node">
<title>Node4</title>
<g id="a_Node000004"><a xlink:title=" ">
<polygon fill="#e0e0e0" stroke="#999999" points="330.75,-19.25 285.5,-19.25 285.5,0 330.75,0 330.75,-19.25"/>
<text text-anchor="middle" x="308.12" y="-5.75" font-family="Helvetica,sans-Serif" font-size="10.00">chrono</text>
</a>
</g>
</g>
<!-- Node2&#45;&gt;Node4 -->
<g id="edge3_Node000002_Node000004" class="edge">
<title>Node2&#45;&gt;Node4</title>
<g id="a_edge3_Node000002_Node000004"><a xlink:title=" ">
<path fill="none" stroke="#63b8ff" d="M279.74,-55.08C284.24,-48.03 290.71,-37.9 296.34,-29.08"/>
<polygon fill="#63b8ff" stroke="#63b8ff" points="299.14,-31.2 301.57,-20.88 293.24,-27.43 299.14,-31.2"/>
</a>
</g>
</g>
<!-- Node5 -->
<g id="Node000005" class="node">
<title>Node5</title>
<g id="a_Node000005"><a xlink:title=" ">
<polygon fill="#e0e0e0" stroke="#999999" points="397.25,-19.25 349,-19.25 349,0 397.25,0 397.25,-19.25"/>
<text text-anchor="middle" x="373.12" y="-5.75" font-family="Helvetica,sans-Serif" font-size="10.00">cstddef</text>
</a>
</g>
</g>
<!-- Node2&#45;&gt;Node5 -->
<g id="edge4_Node000002_Node000005" class="edge">
<title>Node2&#45;&gt;Node5</title>
<g id="a_edge4_Node000002_Node000005"><a xlink:title=" ">
<path fill="none" stroke="#63b8ff" d="M290.92,-54.84C306.14,-46.66 328.82,-34.46 346.51,-24.94"/>
<polygon fill="#63b8ff" stroke="#63b8ff" points="347.77,-28.24 354.92,-20.42 344.45,-22.07 347.77,-28.24"/>
</a>
</g>
</g>
<!-- Node6 -->
<g id="Node000006" class="node">
<title>Node6</title>
<g id="a_Node000006"><a xlink:title=" ">
<polygon fill="#e0e0e0" stroke="#999999" points="460.75,-19.25 415.5,-19.25 415.5,0 460.75,0 460.75,-19.25"/>
<text text-anchor="middle" x="438.12" y="-5.75" font-family="Helvetica,sans-Serif" font-size="10.00">cstdint</text>
</a>
</g>
</g>
<!-- Node2&#45;&gt;Node6 -->
<g id="edge5_Node000002_Node000006" class="edge">
<title>Node2&#45;&gt;Node6</title>
<g id="a_edge5_Node000002_Node000006"><a xlink:title=" ">
<path fill="none" stroke="#63b8ff" d="M301.95,-54.84C330.23,-45.66 374.07,-31.42 404.33,-21.6"/>
<polygon fill="#63b8ff" stroke="#63b8ff" points="405.33,-24.95 413.76,-18.53 403.17,-18.29 405.33,-24.95"/>
</a>
</g>
</g>
<!-- Node7 -->
<g id="Node000007" class="node">
<title>Node7</title>
<g id="a_Node000007"><a xlink:title=" ">
<polygon fill="#e0e0e0" stroke="#999999" points="42.25,-19.25 0,-19.25 0,0 42.25,0 42.25,-19.25"/>
<text text-anchor="middle" x="21.12" y="-5.75" font-family="Helvetica,sans-Serif" font-size="10.00">mutex</text>
</a>
</g>
</g>
<!-- Node2&#45;&gt;Node7 -->
<g id="edge6_Node000002_Node000007" class="edge">
<title>Node2&#45;&gt;Node7</title>
<g id="a_edge6_Node000002_Node000007"><a xlink:title=" ">
<path fill="none" stroke="#63b8ff" d="M222.49,-54.79C179.6,-46.97 116.77,-34.86 53.65,-19.72"/>
<polygon fill="#63b8ff" stroke="#63b8ff" points="54.71,-16.37 44.17,-17.41 53.06,-23.17 54.71,-16.37"/>
</a>
</g>
</g>
<!-- Node8 -->
<g id="Node000008" class="node">
<title>Node8</title>
<g id="a_Node000008"><a xlink:title=" ">
<polygon fill="#e0e0e0" stroke="#999999" points="103.62,-19.25 60.62,-19.25 60.62,0 103.62,0 103.62,-19.25"/>
<text text-anchor="middle" x="82.12" y="-5.75" font-family="Helvetica,sans-Serif" font-size="10.00">vector</text>
</a>
</g>
</g>
<!-- Node2&#45;&gt;Node8 -->
<g id="edge7_Node000002_Node000008" class="edge">
<title>Node2&#45;&gt;Node8</title>
<g id="a_edge7_Node000002_Node000008"><a xlink:title=" ">
<path fill="none" stroke="#63b8ff" d="M240.59,-54.75C210.11,-46.44 163.62,-33.69 115.11,-20.07"/>
<polygon fill="#63b8ff" stroke="#63b8ff" points="116.1,-16.71 105.53,-17.38 114.21,-23.45 116.1,-16.71"/>
</a>
</g>
</g>
<!-- Node9 -->
<g id="Node000009" class="node">
<title>Node9</title>
<g id="a_Node000009"><a xlink:title=" ">
<polygon fill="#e0e0e0" stroke="#999999" points="192.88,-19.25 121.38,-19.25 121.38,0 192.88,0 192.88,-19.25"/>
<text text-anchor="middle" x="157.12" y="-5.75" font-family="Helvetica,sans-Serif" font-size="10.00">crab/option.h</text>
</a>
</g>
</g>
<!-- Node2&#45;&gt;Node9 -->
<g id="edge8_Node000002_Node000009" class="edge">
<title>Node2&#45;&gt;Node9</title>
<g id="a_edge8_Node000002_Node000009"><a xlink:title=" ">
<path fill="none" stroke="#63b8ff" d="M254.28,-54.84C235.96,-46.5 208.48,-34 187.42,-24.41"/>
<polygon fill="#63b8ff" stroke="#63b8ff" points="189,-21.29 178.45,-20.33 186.1,-27.66 189,-21.29"/>
</a>
</g>
</g>
<!-- Node10&#45;&gt;Node5 -->
<g id="edge11_Node000010_Node000005" class="edge">
<title>Node10&#45;&gt;Node5</title>
<g id="a_edge11_Node000010_Node000005"><a xlink:title=" ">
<path fill="none" stroke="#63b8ff" d="M548.86,-54.78C514.71,-46.42 462.47,-33.54 408.45,-19.82"/>
<polygon fill="#63b8ff" stroke="#63b8ff" points="409.65,-16.51 399.09,-17.44 407.92,-23.3 409.65,-16.51"/>
</a>
</g>
</g>
<!-- Node10&#45;&gt;Node6 -->
<g id="edge12_Node000010_Node000006" class="edge">
<title>Node10&#45;&gt;Node6</title>
<g id="a_edge12_Node000010_Node000006"><a xlink:title=" ">
<path fill="none" stroke="#63b8ff" d="M561.02,-54.84C536.37,-45.97 498.63,-32.4 471.48,-22.63"/>
<polygon fill="#63b8ff" stroke="#63b8ff" points="472.94,-19.43 462.34,-19.34 470.57,-26.02 472.94,-19.43"/>
</a>
</g>
</g>
<!-- Node11 -->
<g id="Node000011" class="node">
<title>Node11</title>
<g id="a_Node000011"><a xlink:title=" ">
<polygon fill="#e0e0e0" stroke="#999999" points="515.62,-19.25 478.62,-19.25 478.62,0 515.62,0 515.62,-19.25"/>
<text text-anchor="middle" x="497.12" y="-5.75" font-family="Helvetica,sans-Serif" font-size="10.00">array</text>
</a>
</g>
</g>
<!-- Node10&#45;&gt;Node11 -->
<g id="edge10_Node000010_Node000011" class="edge">
<title>Node10&#45;&gt;Node11</title>
<g id="a_edge10_Node000010_Node000011"><a xlink:title=" ">
<path fill="none" stroke="#63b8ff" d="M571.03,-54.84C557.6,-46.81 537.71,-34.91 521.95,-25.48"/>
<polygon fill="#63b8ff" stroke="#63b8ff" points="523.97,-22.61 513.6,-20.48 520.38,-28.62 523.97,-22.61"/>
</a>
</g>
</g>
<!-- Node12 -->
<g id="Node000012" class="node">
<title>Node12</title>
<g id="a_Node000012"><a xlink:title=" ">
<polygon fill="#e0e0e0" stroke="#999999" points="576.62,-19.25 533.62,-19.25 533.62,0 576.62,0 576.62,-19.25"/>
<text text-anchor="middle" x="555.12" y="-5.75" font-family="Helvetica,sans-Serif" font-size="10.00">cmath</text>
</a>
</g>
</g>
<!-- Node10&#45;&gt;Node12 -->
<g id="edge13_Node000010_Node000012" class="edge">
<title>Node10&#45;&gt;Node12</title>
<g id="a_edge13_Node000010_Node000012"><a xlink:title=" ">
<path fill="none" stroke="#63b8ff" d="M581.01,-55.08C576.95,-48.11 571.13,-38.12 566.04,-29.37"/>
<polygon fill="#63b8ff" stroke="#63b8ff" points="569.17,-27.8 561.12,-20.92 563.12,-31.32 569.17,-27.8"/>
</a>
</g>
</g>
<!-- Node13 -->
<g id="Node000013" class="node">
<title>Node13</title>
<g id="a_Node000013"><a xlink:title=" ">
<polygon fill="#e0e0e0" stroke="#999999" points="639.75,-19.25 594.5,-19.25 594.5,0 639.75,0 639.75,-19.25"/>
<text text-anchor="middle" x="617.12" y="-5.75" font-family="Helvetica,sans-Serif" font-size="10.00">cstring</text>
</a>
</g>
</g>
<!-- Node10&#45;&gt;Node13 -->
<g id="edge14_Node000010_Node000013" class="edge">
<title>Node10&#45;&gt;Node13</title>
<g id="a_edge14_Node000010_Node000013"><a xlink:title=" ">
<path fill="none" stroke="#63b8ff" d="M591.24,-55.08C595.3,-48.11 601.12,-38.12 606.21,-29.37"/>
<polygon fill="#63b8ff" stroke="#63b8ff" points="609.13,-31.32 611.13,-20.92 603.08,-27.8 609.13,-31.32"/>
</a>
</g>
</g>
<!-- Node14 -->
<g id="Node000014" class="node">
<title>Node14</title>
<g id="a_Node000014"><a xlink:title=" ">
<polygon fill="#e0e0e0" stroke="#999999" points="716.12,-19.25 658.12,-19.25 658.12,0 716.12,0 716.12,-19.25"/>
<text text-anchor="middle" x="687.12" y="-5.75" font-family="Helvetica,sans-Serif" font-size="10.00">functional</text>
</a>
</g>
</g>
<!-- Node10&#45;&gt;Node14 -->
<g id="edge15_Node000010_Node000014" class="edge">
<title>Node10&#45;&gt;Node14</title>
<g id="a_edge15_Node000010_Node000014"><a xlink:title=" ">
<path fill="none" stroke="#63b8ff" d="M603.26,-54.84C618.78,-46.66 641.93,-34.46 659.97,-24.94"/>
<polygon fill="#63b8ff" stroke="#63b8ff" points="661.36,-28.17 668.57,-20.41 658.09,-21.98 661.36,-28.17"/>
</a>
</g>
</g>
<!-- Node15 -->
<g id="Node000015" class="node">
<title>Node15</title>
<g id="a_Node000015"><a xlink:title=" ">
<polygon fill="#e0e0e0" stroke="#999999" points="773.75,-19.25 734.5,-19.25 734.5,0 773.75,0 773.75,-19.25"/>
<text text-anchor="middle" x="754.12" y="-5.75" font-family="Helvetica,sans-Serif" font-size="10.00">limits</text>
</a>
</g>
</g>
<!-- Node10&#45;&gt;Node15 -->
<g id="edge16_Node000010_Node000015" class="edge">
<title>Node10&#45;&gt;Node15</title>
<g id="a_edge16_Node000010_Node000015"><a xlink:title=" ">
<path fill="none" stroke="#63b8ff" d="M614.62,-54.84C644.97,-45.22 692.82,-30.06 723.83,-20.23"/>
<polygon fill="#63b8ff" stroke="#63b8ff" points="724.52,-23.68 732.99,-17.32 722.4,-17.01 724.52,-23.68"/>
</a>
</g>
</g>
<!-- Node16 -->
<g id="Node000016" class="node">
<title>Node16</title>
<g id="a_Node000016"><a xlink:title=" ">
<polygon fill="#e0e0e0" stroke="#999999" points="842,-19.25 792.25,-19.25 792.25,0 842,0 842,-19.25"/>
<text text-anchor="middle" x="817.12" y="-5.75" font-family="Helvetica,sans-Serif" font-size="10.00">optional</text>
</a>
</g>
</g>
<!-- Node10&#45;&gt;Node16 -->
<g id="edge17_Node000010_Node000016" class="edge">
<title>Node10&#45;&gt;Node16</title>
<g id="a_edge17_Node000010_Node000016"><a xlink:title=" ">
<path fill="none" stroke="#63b8ff" d="M627.7,-54.78C665.29,-46.49 722.4,-33.71 780.95,-19.73"/>
<polygon fill="#63b8ff" stroke="#63b8ff" points="781.51,-23.19 790.42,-17.46 779.88,-16.38 781.51,-23.19"/>
</a>
</g>
</g>
<!-- Node17 -->
<g id="Node000017" class="node">
<title>Node17</title>
<g id="a_Node000017"><a xlink:title=" ">
<polygon fill="#e0e0e0" stroke="#999999" points="905.75,-19.25 860.5,-19.25 860.5,0 905.75,0 905.75,-19.25"/>
<text text-anchor="middle" x="883.12" y="-5.75" font-family="Helvetica,sans-Serif" font-size="10.00">variant</text>
</a>
</g>
</g>
<!-- Node10&#45;&gt;Node17 -->
<g id="edge18_Node000010_Node000017" class="edge">
<title>Node10&#45;&gt;Node17</title>
<g id="a_edge18_Node000010_Node000017"><a xlink:title=" ">
<path fill="none" stroke="#63b8ff" d="M644.33,-55.72C695.7,-48.16 772.83,-35.9 848.9,-19.55"/>
<polygon fill="#63b8ff" stroke="#63b8ff" points="849.61,-22.98 858.64,-17.43 848.12,-16.14 849.61,-22.98"/>
</a>
</g>
</g>
</g>
</svg>

<g id="navigator" transform="translate(0 0)" fill="#404254">
  <rect fill="#f2f5e9" fill-opacity="0.5" stroke="#606060" stroke-width=".5" x="0" y="0" width="60" height="60"/>
  <use id="zoomplus" xlink:href="#zoomPlus" x="17" y="9" onmousedown="handleZoom(evt,'in')"/>
  <use id="zoomminus" xlink:href="#zoomMin" x="42" y="9" onmousedown="handleZoom(evt,'out')"/>
  <use id="reset" xlink:href="#resetDef" x="30" y="36" onmousedown="handleReset()"/>
   <use id="arrowup" xlink:href="#arrowUp" x="0" y="0" onmousedown="handlePan(0,-1)"/>
  <use id="arrowright" xlink:href="#arrowRight" x="0" y="0" onmousedown="handlePan(1,0)"/>
  <use id="arrowdown" xlink:href="#arrowDown" x="0" y="0" onmousedown="handlePan(0,1)"/>
  <use id="arrowleft" xlink:href="#arrowLeft" x="0" y="0" onmousedown="handlePan(-1,0)"/>
</g>
<svg viewBox="0 0 15 15" width="100%" height="30px" preserveAspectRatio="xMaxYMin meet">
 <g id="arrow_out" transform="scale(0.3 0.3)">
  <a xlink:href="command__queue_8h__incl_org.svg" target="_base">
   <rect id="button" ry="5" rx="5" y="6" x="6" height="38" width="38"
        fill="#f2f5e9" fill-opacity="0.5" stroke="#606060" stroke-width="1.0"/>
   <path id="arrow"
     d="M 11.500037,31.436501 C 11.940474,20.09759 22.043105,11.32322 32.158766,21.979434 L 37.068811,17.246167 C 37.068811,17.246167 37.088388,32 37.088388,32 L 22.160133,31.978069 C 22.160133,31.978069 26.997745,27.140456 26.997745,27.140456 C 18.528582,18.264221 13.291696,25.230495 11.500037,31.436501 z"
     style="fill:#404040;"/>
  </a>
 </g>
</svg>

<style type='text/css'>
<![CDATA[
[data-mouse-over-selected='false'] { opacity: 0.7; }
[data-mouse-over-selected='true']  { opacity: 1.0; }
]]>
</style>
<script type="application/ecmascript"><![CDATA[
document.addEventListener('DOMContentLoaded', (event) => {
  highlightEdges();
  highlightAdjacentNodes();
});
]]></script>
</svg>
