<?xml version="1.0" encoding="UTF-8" standalone="no"?>
<!DOCTYPE svg PUBLIC "-//W3C//DTD SVG 1.1//EN"
 "http://www.w3.org/Graphics/SVG/1.1/DTD/svg11.dtd">
<!-- Generated by graphviz version 12.2.0 (20241103.1931)
 -->
<!-- Title: bcnp/transport/controller_driver.cpp Pages: 1 -->
<svg width="1206pt" height="437pt"
 viewBox="0.00 0.00 1205.50 436.50" xmlns="http://www.w3.org/2000/svg" xmlns:xlink="http://www.w3.org/1999/xlink">
<g id="graph0" class="graph" transform="scale(1 1) rotate(0) translate(4 432.5)">
<title>bcnp/transport/controller_driver.cpp</title>
<!-- Node1 -->
<g id="Node000001" class="node">
<title>Node1</title>
<g id="a_Node000001"><a xlink:title=" ">
<polygon fill="#999999" stroke="#666666" points="599.5,-428.5 478.5,-428.5 478.5,-398 599.5,-398 599.5,-428.5"/>
<text text-anchor="start" x="486.5" y="-415" font-family="Helvetica,sans-Serif" font-size="10.00">bcnp/transport/controller</text>
<text text-anchor="middle" x="539" y="-403.75" font-family="Helvetica,sans-Serif" font-size="10.00">_driver.cpp</text>
</a>
</g>
</g>
<!-- Node2 -->
<g id="Node000002" class="node">
<title>Node2</title>
<g id="a_Node000002"><a xlink:href="controller__driver_8h.html" target="_top" xlink:title=" ">
<polygon fill="white" stroke="#666666" points="644.5,-362 523.5,-362 523.5,-331.5 644.5,-331.5 644.5,-362"/>
<text text-anchor="start" x="531.5" y="-348.5" font-family="Helvetica,sans-Serif" font-size="10.00">bcnp/transport/controller</text>
<text text-anchor="middle" x="584" y="-337.25" font-family="Helvetica,sans-Serif" font-size="10.00">_driver.h</text>
</a>
</g>
</g>
<!-- Node1&#45;&gt;Node2 -->
<g id="edge1_Node000001_Node000002" class="edge">
<title>Node1&#45;&gt;Node2</title>
<g id="a_edge1_Node000001_Node000002"><a xlink:title=" ">
<path fill="none" stroke="#63b8ff" d="M549.21,-397.61C554.56,-389.94 561.25,-380.36 567.33,-371.65"/>
<polygon fill="#63b8ff" stroke="#63b8ff" points="570.11,-373.77 572.96,-363.57 564.37,-369.77 570.11,-373.77"/>
</a>
</g>
</g>
<!-- Node5 -->
<g id="Node000005" class="node">
<title>Node5</title>
<g id="a_Node000005"><a xlink:href="packet_8h.html" target="_top" xlink:title="BCNP packet structures, encoding, and decoding utilities.">
<polygon fill="white" stroke="#666666" points="533.38,-185 456.62,-185 456.62,-165.75 533.38,-165.75 533.38,-185"/>
<text text-anchor="middle" x="495" y="-171.5" font-family="Helvetica,sans-Serif" font-size="10.00">bcnp/packet.h</text>
</a>
</g>
</g>
<!-- Node1&#45;&gt;Node5 -->
<g id="edge54_Node000001_Node000005" class="edge">
<title>Node1&#45;&gt;Node5</title>
<g id="a_edge54_Node000001_Node000005"><a xlink:title=" ">
<path fill="none" stroke="#63b8ff" d="M530.49,-397.82C525.14,-388.04 518.59,-374.65 515,-362 498.45,-303.66 495.41,-231.44 494.97,-196.8"/>
<polygon fill="#63b8ff" stroke="#63b8ff" points="498.47,-196.96 494.91,-186.98 491.47,-197 498.47,-196.96"/>
</a>
</g>
</g>
<!-- Node3 -->
<g id="Node000003" class="node">
<title>Node3</title>
<g id="a_Node000003"><a xlink:href="dispatcher_8h.html" target="_top" xlink:title=" ">
<polygon fill="white" stroke="#666666" points="465.25,-295.5 372.75,-295.5 372.75,-276.25 465.25,-276.25 465.25,-295.5"/>
<text text-anchor="middle" x="419" y="-282" font-family="Helvetica,sans-Serif" font-size="10.00">bcnp/dispatcher.h</text>
</a>
</g>
</g>
<!-- Node2&#45;&gt;Node3 -->
<g id="edge2_Node000002_Node000003" class="edge">
<title>Node2&#45;&gt;Node3</title>
<g id="a_edge2_Node000002_Node000003"><a xlink:title=" ">
<path fill="none" stroke="#63b8ff" d="M542.79,-331.05C515.85,-321.43 480.99,-309 455.14,-299.77"/>
<polygon fill="#63b8ff" stroke="#63b8ff" points="456.32,-296.48 445.73,-296.41 453.97,-303.07 456.32,-296.48"/>
</a>
</g>
</g>
<!-- Node23 -->
<g id="Node000023" class="node">
<title>Node23</title>
<g id="a_Node000023"><a xlink:title=" ">
<polygon fill="#e0e0e0" stroke="#999999" points="978.5,-74.5 935.5,-74.5 935.5,-55.25 978.5,-55.25 978.5,-74.5"/>
<text text-anchor="middle" x="957" y="-61" font-family="Helvetica,sans-Serif" font-size="10.00">vector</text>
</a>
</g>
</g>
<!-- Node2&#45;&gt;Node23 -->
<g id="edge53_Node000002_Node000023" class="edge">
<title>Node2&#45;&gt;Node23</title>
<g id="a_edge53_Node000002_Node000023"><a xlink:title=" ">
<path fill="none" stroke="#63b8ff" d="M644.99,-340C751.69,-328.23 961,-296.85 961,-231.62 961,-231.62 961,-231.62 961,-174.38 961,-143.64 959.38,-108.03 958.2,-86.23"/>
<polygon fill="#63b8ff" stroke="#63b8ff" points="961.7,-86.17 957.64,-76.38 954.71,-86.57 961.7,-86.17"/>
</a>
</g>
</g>
<!-- Node29 -->
<g id="Node000029" class="node">
<title>Node29</title>
<g id="a_Node000029"><a xlink:href="adapter_8h.html" target="_top" xlink:title=" ">
<polygon fill="white" stroke="#666666" points="644.5,-129.75 523.5,-129.75 523.5,-110.5 644.5,-110.5 644.5,-129.75"/>
<text text-anchor="middle" x="584" y="-116.25" font-family="Helvetica,sans-Serif" font-size="10.00">bcnp/transport/adapter.h</text>
</a>
</g>
</g>
<!-- Node2&#45;&gt;Node29 -->
<g id="edge50_Node000002_Node000029" class="edge">
<title>Node2&#45;&gt;Node29</title>
<g id="a_edge50_Node000002_Node000029"><a xlink:title=" ">
<path fill="none" stroke="#63b8ff" d="M584,-331.01C584,-291.92 584,-185.58 584,-141.1"/>
<polygon fill="#63b8ff" stroke="#63b8ff" points="587.5,-141.38 584,-131.38 580.5,-141.38 587.5,-141.38"/>
</a>
</g>
</g>
<!-- Node4 -->
<g id="Node000004" class="node">
<title>Node4</title>
<g id="a_Node000004"><a xlink:href="stream__parser_8h.html" target="_top" xlink:title=" ">
<polygon fill="white" stroke="#666666" points="214.88,-240.25 105.12,-240.25 105.12,-221 214.88,-221 214.88,-240.25"/>
<text text-anchor="middle" x="160" y="-226.75" font-family="Helvetica,sans-Serif" font-size="10.00">bcnp/stream_parser.h</text>
</a>
</g>
</g>
<!-- Node3&#45;&gt;Node4 -->
<g id="edge3_Node000003_Node000004" class="edge">
<title>Node3&#45;&gt;Node4</title>
<g id="a_edge3_Node000003_Node000004"><a xlink:title=" ">
<path fill="none" stroke="#63b8ff" d="M374.77,-275.78C330.63,-266.71 262.7,-252.74 215.08,-242.95"/>
<polygon fill="#63b8ff" stroke="#63b8ff" points="216.03,-239.57 205.53,-240.99 214.62,-246.43 216.03,-239.57"/>
</a>
</g>
</g>
<!-- Node6 -->
<g id="Node000006" class="node">
<title>Node6</title>
<g id="a_Node000006"><a xlink:href="message__types_8h.html" target="_top" xlink:title=" ">
<polygon fill="white" stroke="#666666" points="352.88,-129.75 237.12,-129.75 237.12,-110.5 352.88,-110.5 352.88,-129.75"/>
<text text-anchor="middle" x="295" y="-116.25" font-family="Helvetica,sans-Serif" font-size="10.00">bcnp/message_types.h</text>
</a>
</g>
</g>
<!-- Node3&#45;&gt;Node6 -->
<g id="edge44_Node000003_Node000006" class="edge">
<title>Node3&#45;&gt;Node6</title>
<g id="a_edge44_Node000003_Node000006"><a xlink:title=" ">
<path fill="none" stroke="#63b8ff" d="M412.33,-276.07C392.74,-250.19 335.04,-174 308.56,-139.03"/>
<polygon fill="#63b8ff" stroke="#63b8ff" points="311.44,-137.04 302.61,-131.18 305.86,-141.26 311.44,-137.04"/>
</a>
</g>
</g>
<!-- Node9 -->
<g id="Node000009" class="node">
<title>Node9</title>
<g id="a_Node000009"><a xlink:title=" ">
<polygon fill="#e0e0e0" stroke="#999999" points="536.62,-74.5 491.38,-74.5 491.38,-55.25 536.62,-55.25 536.62,-74.5"/>
<text text-anchor="middle" x="514" y="-61" font-family="Helvetica,sans-Serif" font-size="10.00">cstdint</text>
</a>
</g>
</g>
<!-- Node3&#45;&gt;Node9 -->
<g id="edge46_Node000003_Node000009" class="edge">
<title>Node3&#45;&gt;Node9</title>
<g id="a_edge46_Node000003_Node000009"><a xlink:title=" ">
<path fill="none" stroke="#63b8ff" d="M420.14,-275.79C423.91,-248.61 437.87,-166.38 475,-110.5 481.38,-100.89 489.66,-91.14 496.94,-83.21"/>
<polygon fill="#63b8ff" stroke="#63b8ff" points="499.48,-85.62 503.82,-75.96 494.4,-80.81 499.48,-85.62"/>
</a>
</g>
</g>
<!-- Node12 -->
<g id="Node000012" class="node">
<title>Node12</title>
<g id="a_Node000012"><a xlink:title=" ">
<polygon fill="#e0e0e0" stroke="#999999" points="58,-74.5 0,-74.5 0,-55.25 58,-55.25 58,-74.5"/>
<text text-anchor="middle" x="29" y="-61" font-family="Helvetica,sans-Serif" font-size="10.00">functional</text>
</a>
</g>
</g>
<!-- Node3&#45;&gt;Node12 -->
<g id="edge47_Node000003_Node000012" class="edge">
<title>Node3&#45;&gt;Node12</title>
<g id="a_edge47_Node000003_Node000012"><a xlink:title=" ">
<path fill="none" stroke="#63b8ff" d="M372.43,-282.84C294.52,-278.73 141.78,-267.37 96,-240.25 47.36,-211.44 45.38,-184.91 33,-129.75 29.75,-115.28 28.8,-98.53 28.64,-85.81"/>
<polygon fill="#63b8ff" stroke="#63b8ff" points="32.14,-86.2 28.68,-76.19 25.14,-86.18 32.14,-86.2"/>
</a>
</g>
</g>
<!-- Node24 -->
<g id="Node000024" class="node">
<title>Node24</title>
<g id="a_Node000024"><a xlink:href="message__queue_8h.html" target="_top" xlink:title="Timed message queue for executing duration&#45;based commands.">
<polygon fill="white" stroke="#666666" points="781.38,-129.75 662.62,-129.75 662.62,-110.5 781.38,-110.5 781.38,-129.75"/>
<text text-anchor="middle" x="722" y="-116.25" font-family="Helvetica,sans-Serif" font-size="10.00">bcnp/message_queue.h</text>
</a>
</g>
</g>
<!-- Node3&#45;&gt;Node24 -->
<g id="edge36_Node000003_Node000024" class="edge">
<title>Node3&#45;&gt;Node24</title>
<g id="a_edge36_Node000003_Node000024"><a xlink:title=" ">
<path fill="none" stroke="#63b8ff" d="M435.72,-275.84C485.7,-248.83 634.23,-168.56 695.31,-135.55"/>
<polygon fill="#63b8ff" stroke="#63b8ff" points="696.86,-138.69 704,-130.85 693.54,-132.53 696.86,-138.69"/>
</a>
</g>
</g>
<!-- Node26 -->
<g id="Node000026" class="node">
<title>Node26</title>
<g id="a_Node000026"><a xlink:title=" ">
<polygon fill="#e0e0e0" stroke="#999999" points="818.62,-74.5 773.38,-74.5 773.38,-55.25 818.62,-55.25 818.62,-74.5"/>
<text text-anchor="middle" x="796" y="-61" font-family="Helvetica,sans-Serif" font-size="10.00">chrono</text>
</a>
</g>
</g>
<!-- Node3&#45;&gt;Node26 -->
<g id="edge45_Node000003_Node000026" class="edge">
<title>Node3&#45;&gt;Node26</title>
<g id="a_edge45_Node000003_Node000026"><a xlink:title=" ">
<path fill="none" stroke="#63b8ff" d="M465.67,-280.53C546.74,-270.26 712.32,-236.63 790,-129.75 799.12,-117.2 800.09,-99.38 799.08,-85.76"/>
<polygon fill="#63b8ff" stroke="#63b8ff" points="802.6,-85.71 797.95,-76.19 795.65,-86.54 802.6,-85.71"/>
</a>
</g>
</g>
<!-- Node27 -->
<g id="Node000027" class="node">
<title>Node27</title>
<g id="a_Node000027"><a xlink:title=" ">
<polygon fill="#e0e0e0" stroke="#999999" points="917.12,-74.5 874.88,-74.5 874.88,-55.25 917.12,-55.25 917.12,-74.5"/>
<text text-anchor="middle" x="896" y="-61" font-family="Helvetica,sans-Serif" font-size="10.00">mutex</text>
</a>
</g>
</g>
<!-- Node3&#45;&gt;Node27 -->
<g id="edge48_Node000003_Node000027" class="edge">
<title>Node3&#45;&gt;Node27</title>
<g id="a_edge48_Node000003_Node000027"><a xlink:title=" ">
<path fill="none" stroke="#63b8ff" d="M465.57,-280.55C567.42,-270.15 805.29,-240.4 861,-185 887.8,-158.35 894.31,-112.34 895.75,-85.98"/>
<polygon fill="#63b8ff" stroke="#63b8ff" points="899.23,-86.41 896.06,-76.3 892.24,-86.18 899.23,-86.41"/>
</a>
</g>
</g>
<!-- Node28 -->
<g id="Node000028" class="node">
<title>Node28</title>
<g id="a_Node000028"><a xlink:title=" ">
<polygon fill="#e0e0e0" stroke="#999999" points="315.38,-240.25 232.62,-240.25 232.62,-221 315.38,-221 315.38,-240.25"/>
<text text-anchor="middle" x="274" y="-226.75" font-family="Helvetica,sans-Serif" font-size="10.00">unordered_map</text>
</a>
</g>
</g>
<!-- Node3&#45;&gt;Node28 -->
<g id="edge49_Node000003_Node000028" class="edge">
<title>Node3&#45;&gt;Node28</title>
<g id="a_edge49_Node000003_Node000028"><a xlink:title=" ">
<path fill="none" stroke="#63b8ff" d="M394.4,-275.84C371.07,-267.27 335.76,-254.31 309.4,-244.63"/>
<polygon fill="#63b8ff" stroke="#63b8ff" points="310.73,-241.39 300.14,-241.22 308.32,-247.96 310.73,-241.39"/>
</a>
</g>
</g>
<!-- Node4&#45;&gt;Node5 -->
<g id="edge4_Node000004_Node000005" class="edge">
<title>Node4&#45;&gt;Node5</title>
<g id="a_edge4_Node000004_Node000005"><a xlink:title=" ">
<path fill="none" stroke="#63b8ff" d="M215.32,-220.83C279.22,-210.67 383.43,-194.11 444.99,-184.32"/>
<polygon fill="#63b8ff" stroke="#63b8ff" points="445.51,-187.78 454.84,-182.76 444.42,-180.87 445.51,-187.78"/>
</a>
</g>
</g>
<!-- Node7 -->
<g id="Node000007" class="node">
<title>Node7</title>
<g id="a_Node000007"><a xlink:title=" ">
<polygon fill="#e0e0e0" stroke="#999999" points="151.5,-74.5 114.5,-74.5 114.5,-55.25 151.5,-55.25 151.5,-74.5"/>
<text text-anchor="middle" x="133" y="-61" font-family="Helvetica,sans-Serif" font-size="10.00">array</text>
</a>
</g>
</g>
<!-- Node4&#45;&gt;Node7 -->
<g id="edge31_Node000004_Node000007" class="edge">
<title>Node4&#45;&gt;Node7</title>
<g id="a_edge31_Node000004_Node000007"><a xlink:title=" ">
<path fill="none" stroke="#63b8ff" d="M158.55,-220.82C154.35,-195.39 142.15,-121.35 136.26,-85.62"/>
<polygon fill="#63b8ff" stroke="#63b8ff" points="139.79,-85.51 134.71,-76.22 132.88,-86.65 139.79,-85.51"/>
</a>
</g>
</g>
<!-- Node8 -->
<g id="Node000008" class="node">
<title>Node8</title>
<g id="a_Node000008"><a xlink:title=" ">
<polygon fill="#e0e0e0" stroke="#999999" points="769.12,-19.25 720.88,-19.25 720.88,0 769.12,0 769.12,-19.25"/>
<text text-anchor="middle" x="745" y="-5.75" font-family="Helvetica,sans-Serif" font-size="10.00">cstddef</text>
</a>
</g>
</g>
<!-- Node4&#45;&gt;Node8 -->
<g id="edge32_Node000004_Node000008" class="edge">
<title>Node4&#45;&gt;Node8</title>
<g id="a_edge32_Node000004_Node000008"><a xlink:title=" ">
<path fill="none" stroke="#63b8ff" d="M215.15,-222.12C218.14,-221.73 221.11,-221.36 224,-221 476.87,-189.65 578.81,-272.31 790,-129.75 820.81,-108.95 847.07,-87.15 828,-55.25 817.62,-37.89 797.91,-26.89 780.3,-20.15"/>
<polygon fill="#63b8ff" stroke="#63b8ff" points="781.46,-16.85 770.86,-16.9 779.17,-23.47 781.46,-16.85"/>
</a>
</g>
</g>
<!-- Node4&#45;&gt;Node9 -->
<g id="edge33_Node000004_Node000009" class="edge">
<title>Node4&#45;&gt;Node9</title>
<g id="a_edge33_Node000004_Node000009"><a xlink:title=" ">
<path fill="none" stroke="#63b8ff" d="M177.65,-220.56C217.69,-200.1 318.65,-149.12 405,-110.5 430.11,-99.27 458.94,-87.51 480.64,-78.89"/>
<polygon fill="#63b8ff" stroke="#63b8ff" points="481.85,-82.17 489.87,-75.24 479.28,-75.66 481.85,-82.17"/>
</a>
</g>
</g>
<!-- Node4&#45;&gt;Node12 -->
<g id="edge34_Node000004_Node000012" class="edge">
<title>Node4&#45;&gt;Node12</title>
<g id="a_edge34_Node000004_Node000012"><a xlink:title=" ">
<path fill="none" stroke="#63b8ff" d="M129.45,-220.6C110.6,-213.62 87.2,-202.2 72,-185 46.71,-156.39 35.94,-111.78 31.63,-86.04"/>
<polygon fill="#63b8ff" stroke="#63b8ff" points="35.12,-85.65 30.19,-76.28 28.19,-86.68 35.12,-85.65"/>
</a>
</g>
</g>
<!-- Node21 -->
<g id="Node000021" class="node">
<title>Node21</title>
<g id="a_Node000021"><a xlink:title=" ">
<polygon fill="#e0e0e0" stroke="#999999" points="404.25,-19.25 365.75,-19.25 365.75,0 404.25,0 404.25,-19.25"/>
<text text-anchor="middle" x="385" y="-5.75" font-family="Helvetica,sans-Serif" font-size="10.00">utility</text>
</a>
</g>
</g>
<!-- Node4&#45;&gt;Node21 -->
<g id="edge35_Node000004_Node000021" class="edge">
<title>Node4&#45;&gt;Node21</title>
<g id="a_edge35_Node000004_Node000021"><a xlink:title=" ">
<path fill="none" stroke="#63b8ff" d="M152.15,-220.87C128.33,-193.24 61.11,-106.69 105,-55.25 136.81,-17.97 288.51,-11.69 354.37,-10.73"/>
<polygon fill="#63b8ff" stroke="#63b8ff" points="354.15,-14.24 364.11,-10.63 354.07,-7.24 354.15,-14.24"/>
</a>
</g>
</g>
<!-- Node5&#45;&gt;Node6 -->
<g id="edge5_Node000005_Node000006" class="edge">
<title>Node5&#45;&gt;Node6</title>
<g id="a_edge5_Node000005_Node000006"><a xlink:title=" ">
<path fill="none" stroke="#63b8ff" d="M461.07,-165.34C427.74,-156.47 376.69,-142.87 339.99,-133.1"/>
<polygon fill="#63b8ff" stroke="#63b8ff" points="341.12,-129.78 330.56,-130.59 339.32,-136.55 341.12,-129.78"/>
</a>
</g>
</g>
<!-- Node5&#45;&gt;Node8 -->
<g id="edge27_Node000005_Node000008" class="edge">
<title>Node5&#45;&gt;Node8</title>
<g id="a_edge27_Node000005_Node000008"><a xlink:title=" ">
<path fill="none" stroke="#63b8ff" d="M456.34,-172.09C359.88,-165.1 121.76,-139.06 199,-55.25 233.55,-17.76 593.24,-11.77 709.19,-10.81"/>
<polygon fill="#63b8ff" stroke="#63b8ff" points="709.07,-14.31 719.04,-10.73 709.02,-7.31 709.07,-14.31"/>
</a>
</g>
</g>
<!-- Node5&#45;&gt;Node9 -->
<g id="edge28_Node000005_Node000009" class="edge">
<title>Node5&#45;&gt;Node9</title>
<g id="a_edge28_Node000005_Node000009"><a xlink:title=" ">
<path fill="none" stroke="#63b8ff" d="M490.13,-165.54C483.91,-153.08 474.67,-129.69 481,-110.5 484.3,-100.48 490.82,-90.87 497.19,-83.15"/>
<polygon fill="#63b8ff" stroke="#63b8ff" points="499.61,-85.69 503.66,-75.9 494.39,-81.03 499.61,-85.69"/>
</a>
</g>
</g>
<!-- Node14 -->
<g id="Node000014" class="node">
<title>Node14</title>
<g id="a_Node000014"><a xlink:title=" ">
<polygon fill="#e0e0e0" stroke="#999999" points="604.88,-74.5 555.12,-74.5 555.12,-55.25 604.88,-55.25 604.88,-74.5"/>
<text text-anchor="middle" x="580" y="-61" font-family="Helvetica,sans-Serif" font-size="10.00">optional</text>
</a>
</g>
</g>
<!-- Node5&#45;&gt;Node14 -->
<g id="edge29_Node000005_Node000014" class="edge">
<title>Node5&#45;&gt;Node14</title>
<g id="a_edge29_Node000005_Node000014"><a xlink:title=" ">
<path fill="none" stroke="#63b8ff" d="M495.96,-165.28C497.73,-152.07 502.57,-127.32 515,-110.5 524.15,-98.11 537.81,-88 550.25,-80.55"/>
<polygon fill="#63b8ff" stroke="#63b8ff" points="551.95,-83.6 558.97,-75.66 548.53,-77.5 551.95,-83.6"/>
</a>
</g>
</g>
<!-- Node16 -->
<g id="Node000016" class="node">
<title>Node16</title>
<g id="a_Node000016"><a xlink:href="static__vector_8h.html" target="_top" xlink:title="Fixed&#45;capacity vector with stack allocation (no heap).">
<polygon fill="white" stroke="#666666" points="1138.88,-74.5 1035.12,-74.5 1035.12,-55.25 1138.88,-55.25 1138.88,-74.5"/>
<text text-anchor="middle" x="1087" y="-61" font-family="Helvetica,sans-Serif" font-size="10.00">bcnp/static_vector.h</text>
</a>
</g>
</g>
<!-- Node5&#45;&gt;Node16 -->
<g id="edge15_Node000005_Node000016" class="edge">
<title>Node5&#45;&gt;Node16</title>
<g id="a_edge15_Node000005_Node000016"><a xlink:title=" ">
<path fill="none" stroke="#63b8ff" d="M533.48,-174.56C662.31,-174.78 1072.59,-172.11 1112,-129.75 1123.99,-116.86 1113.79,-97.55 1103.03,-83.53"/>
<polygon fill="#63b8ff" stroke="#63b8ff" points="1105.82,-81.42 1096.73,-75.99 1100.45,-85.9 1105.82,-81.42"/>
</a>
</g>
</g>
<!-- Node22 -->
<g id="Node000022" class="node">
<title>Node22</title>
<g id="a_Node000022"><a xlink:href="packet__storage_8h.html" target="_top" xlink:title=" ">
<polygon fill="white" stroke="#666666" points="1103.12,-129.75 988.88,-129.75 988.88,-110.5 1103.12,-110.5 1103.12,-129.75"/>
<text text-anchor="middle" x="1046" y="-116.25" font-family="Helvetica,sans-Serif" font-size="10.00">bcnp/packet_storage.h</text>
</a>
</g>
</g>
<!-- Node5&#45;&gt;Node22 -->
<g id="edge22_Node000005_Node000022" class="edge">
<title>Node5&#45;&gt;Node22</title>
<g id="a_edge22_Node000005_Node000022"><a xlink:title=" ">
<path fill="none" stroke="#63b8ff" d="M533.75,-170.63C626.08,-161.71 860.11,-139.09 977.15,-127.78"/>
<polygon fill="#63b8ff" stroke="#63b8ff" points="977.32,-131.28 986.94,-126.83 976.65,-124.31 977.32,-131.28"/>
</a>
</g>
</g>
<!-- Node5&#45;&gt;Node23 -->
<g id="edge30_Node000005_Node000023" class="edge">
<title>Node5&#45;&gt;Node23</title>
<g id="a_edge30_Node000005_Node000023"><a xlink:title=" ">
<path fill="none" stroke="#63b8ff" d="M533.72,-171.19C590.63,-165.92 699.84,-153.51 790,-129.75 839.35,-116.74 894.19,-94.1 927.12,-79.56"/>
<polygon fill="#63b8ff" stroke="#63b8ff" points="928.32,-82.85 936.02,-75.58 925.47,-76.46 928.32,-82.85"/>
</a>
</g>
</g>
<!-- Node6&#45;&gt;Node7 -->
<g id="edge6_Node000006_Node000007" class="edge">
<title>Node6&#45;&gt;Node7</title>
<g id="a_edge6_Node000006_Node000007"><a xlink:title=" ">
<path fill="none" stroke="#63b8ff" d="M267.52,-110.09C238.38,-100.51 192.52,-85.44 162.6,-75.61"/>
<polygon fill="#63b8ff" stroke="#63b8ff" points="164.02,-72.39 153.42,-72.59 161.83,-79.04 164.02,-72.39"/>
</a>
</g>
</g>
<!-- Node6&#45;&gt;Node8 -->
<g id="edge7_Node000006_Node000008" class="edge">
<title>Node6&#45;&gt;Node8</title>
<g id="a_edge7_Node000006_Node000008"><a xlink:title=" ">
<path fill="none" stroke="#63b8ff" d="M331.15,-110.02C361.47,-101.97 405.68,-89.22 443,-74.5 460.98,-67.41 463.61,-61.21 482,-55.25 560.72,-29.75 657.67,-18.11 709.06,-13.4"/>
<polygon fill="#63b8ff" stroke="#63b8ff" points="709.34,-16.89 719,-12.53 708.73,-9.91 709.34,-16.89"/>
</a>
</g>
</g>
<!-- Node6&#45;&gt;Node9 -->
<g id="edge8_Node000006_Node000009" class="edge">
<title>Node6&#45;&gt;Node9</title>
<g id="a_edge8_Node000006_Node000009"><a xlink:title=" ">
<path fill="none" stroke="#63b8ff" d="M332.15,-110.09C373.58,-100.02 440.02,-83.86 480.09,-74.12"/>
<polygon fill="#63b8ff" stroke="#63b8ff" points="480.77,-77.56 489.66,-71.79 479.12,-70.75 480.77,-77.56"/>
</a>
</g>
</g>
<!-- Node10 -->
<g id="Node000010" class="node">
<title>Node10</title>
<g id="a_Node000010"><a xlink:title=" ">
<polygon fill="#e0e0e0" stroke="#999999" points="434.5,-74.5 391.5,-74.5 391.5,-55.25 434.5,-55.25 434.5,-74.5"/>
<text text-anchor="middle" x="413" y="-61" font-family="Helvetica,sans-Serif" font-size="10.00">cmath</text>
</a>
</g>
</g>
<!-- Node6&#45;&gt;Node10 -->
<g id="edge9_Node000006_Node000010" class="edge">
<title>Node6&#45;&gt;Node10</title>
<g id="a_edge9_Node000006_Node000010"><a xlink:title=" ">
<path fill="none" stroke="#63b8ff" d="M315.02,-110.09C333.49,-101.75 361.21,-89.25 382.45,-79.66"/>
<polygon fill="#63b8ff" stroke="#63b8ff" points="383.83,-82.88 391.51,-75.58 380.95,-76.5 383.83,-82.88"/>
</a>
</g>
</g>
<!-- Node11 -->
<g id="Node000011" class="node">
<title>Node11</title>
<g id="a_Node000011"><a xlink:title=" ">
<polygon fill="#e0e0e0" stroke="#999999" points="253.62,-74.5 208.38,-74.5 208.38,-55.25 253.62,-55.25 253.62,-74.5"/>
<text text-anchor="middle" x="231" y="-61" font-family="Helvetica,sans-Serif" font-size="10.00">cstring</text>
</a>
</g>
</g>
<!-- Node6&#45;&gt;Node11 -->
<g id="edge10_Node000006_Node000011" class="edge">
<title>Node6&#45;&gt;Node11</title>
<g id="a_edge10_Node000006_Node000011"><a xlink:title=" ">
<path fill="none" stroke="#63b8ff" d="M284.14,-110.09C274.89,-102.4 261.38,-91.15 250.29,-81.93"/>
<polygon fill="#63b8ff" stroke="#63b8ff" points="252.79,-79.45 242.86,-75.74 248.31,-84.83 252.79,-79.45"/>
</a>
</g>
</g>
<!-- Node6&#45;&gt;Node12 -->
<g id="edge11_Node000006_Node000012" class="edge">
<title>Node6&#45;&gt;Node12</title>
<g id="a_edge11_Node000006_Node000012"><a xlink:title=" ">
<path fill="none" stroke="#63b8ff" d="M249.58,-110.03C198.89,-99.88 117.64,-83.62 69.18,-73.92"/>
<polygon fill="#63b8ff" stroke="#63b8ff" points="70.17,-70.55 59.68,-72.02 68.8,-77.41 70.17,-70.55"/>
</a>
</g>
</g>
<!-- Node13 -->
<g id="Node000013" class="node">
<title>Node13</title>
<g id="a_Node000013"><a xlink:title=" ">
<polygon fill="#e0e0e0" stroke="#999999" points="310.62,-74.5 271.38,-74.5 271.38,-55.25 310.62,-55.25 310.62,-74.5"/>
<text text-anchor="middle" x="291" y="-61" font-family="Helvetica,sans-Serif" font-size="10.00">limits</text>
</a>
</g>
</g>
<!-- Node6&#45;&gt;Node13 -->
<g id="edge12_Node000006_Node000013" class="edge">
<title>Node6&#45;&gt;Node13</title>
<g id="a_edge12_Node000006_Node000013"><a xlink:title=" ">
<path fill="none" stroke="#63b8ff" d="M294.34,-110.33C293.84,-103.74 293.15,-94.46 292.52,-86.07"/>
<polygon fill="#63b8ff" stroke="#63b8ff" points="296.03,-86.08 291.79,-76.37 289.05,-86.6 296.03,-86.08"/>
</a>
</g>
</g>
<!-- Node6&#45;&gt;Node14 -->
<g id="edge13_Node000006_Node000014" class="edge">
<title>Node6&#45;&gt;Node14</title>
<g id="a_edge13_Node000006_Node000014"><a xlink:title=" ">
<path fill="none" stroke="#63b8ff" d="M353.05,-110.03C401.59,-102.15 472.86,-89.93 543.87,-74.83"/>
<polygon fill="#63b8ff" stroke="#63b8ff" points="544.28,-78.33 553.32,-72.8 542.81,-71.48 544.28,-78.33"/>
</a>
</g>
</g>
<!-- Node15 -->
<g id="Node000015" class="node">
<title>Node15</title>
<g id="a_Node000015"><a xlink:title=" ">
<polygon fill="#e0e0e0" stroke="#999999" points="373.62,-74.5 328.38,-74.5 328.38,-55.25 373.62,-55.25 373.62,-74.5"/>
<text text-anchor="middle" x="351" y="-61" font-family="Helvetica,sans-Serif" font-size="10.00">variant</text>
</a>
</g>
</g>
<!-- Node6&#45;&gt;Node15 -->
<g id="edge14_Node000006_Node000015" class="edge">
<title>Node6&#45;&gt;Node15</title>
<g id="a_edge14_Node000006_Node000015"><a xlink:title=" ">
<path fill="none" stroke="#63b8ff" d="M304.5,-110.09C312.43,-102.55 323.95,-91.6 333.54,-82.48"/>
<polygon fill="#63b8ff" stroke="#63b8ff" points="335.71,-85.24 340.54,-75.82 330.89,-80.17 335.71,-85.24"/>
</a>
</g>
</g>
<!-- Node16&#45;&gt;Node8 -->
<g id="edge16_Node000016_Node000008" class="edge">
<title>Node16&#45;&gt;Node8</title>
<g id="a_edge16_Node000016_Node000008"><a xlink:title=" ">
<path fill="none" stroke="#63b8ff" d="M1034.69,-55.73C964.34,-44.78 841.12,-25.59 780.6,-16.17"/>
<polygon fill="#63b8ff" stroke="#63b8ff" points="781.28,-12.73 770.86,-14.65 780.2,-19.65 781.28,-12.73"/>
</a>
</g>
</g>
<!-- Node17 -->
<g id="Node000017" class="node">
<title>Node17</title>
<g id="a_Node000017"><a xlink:title=" ">
<polygon fill="#e0e0e0" stroke="#999999" points="989.75,-19.25 918.25,-19.25 918.25,0 989.75,0 989.75,-19.25"/>
<text text-anchor="middle" x="954" y="-5.75" font-family="Helvetica,sans-Serif" font-size="10.00">initializer_list</text>
</a>
</g>
</g>
<!-- Node16&#45;&gt;Node17 -->
<g id="edge17_Node000016_Node000017" class="edge">
<title>Node16&#45;&gt;Node17</title>
<g id="a_edge17_Node000016_Node000017"><a xlink:title=" ">
<path fill="none" stroke="#63b8ff" d="M1064.44,-54.84C1043.23,-46.35 1011.23,-33.54 987.12,-23.89"/>
<polygon fill="#63b8ff" stroke="#63b8ff" points="988.66,-20.73 978.08,-20.27 986.06,-27.23 988.66,-20.73"/>
</a>
</g>
</g>
<!-- Node18 -->
<g id="Node000018" class="node">
<title>Node18</title>
<g id="a_Node000018"><a xlink:title=" ">
<polygon fill="#e0e0e0" stroke="#999999" points="1042,-19.25 1008,-19.25 1008,0 1042,0 1042,-19.25"/>
<text text-anchor="middle" x="1025" y="-5.75" font-family="Helvetica,sans-Serif" font-size="10.00">new</text>
</a>
</g>
</g>
<!-- Node16&#45;&gt;Node18 -->
<g id="edge18_Node000016_Node000018" class="edge">
<title>Node16&#45;&gt;Node18</title>
<g id="a_edge18_Node000016_Node000018"><a xlink:title=" ">
<path fill="none" stroke="#63b8ff" d="M1076.48,-54.84C1067.61,-47.22 1054.69,-36.12 1044.01,-26.95"/>
<polygon fill="#63b8ff" stroke="#63b8ff" points="1046.38,-24.37 1036.51,-20.51 1041.82,-29.68 1046.38,-24.37"/>
</a>
</g>
</g>
<!-- Node19 -->
<g id="Node000019" class="node">
<title>Node19</title>
<g id="a_Node000019"><a xlink:title=" ">
<polygon fill="#e0e0e0" stroke="#999999" points="1118,-19.25 1060,-19.25 1060,0 1118,0 1118,-19.25"/>
<text text-anchor="middle" x="1089" y="-5.75" font-family="Helvetica,sans-Serif" font-size="10.00">stdexcept</text>
</a>
</g>
</g>
<!-- Node16&#45;&gt;Node19 -->
<g id="edge19_Node000016_Node000019" class="edge">
<title>Node16&#45;&gt;Node19</title>
<g id="a_edge19_Node000016_Node000019"><a xlink:title=" ">
<path fill="none" stroke="#63b8ff" d="M1087.33,-55.08C1087.58,-48.49 1087.93,-39.21 1088.24,-30.82"/>
<polygon fill="#63b8ff" stroke="#63b8ff" points="1091.73,-31.25 1088.61,-21.12 1084.73,-30.98 1091.73,-31.25"/>
</a>
</g>
</g>
<!-- Node20 -->
<g id="Node000020" class="node">
<title>Node20</title>
<g id="a_Node000020"><a xlink:title=" ">
<polygon fill="#e0e0e0" stroke="#999999" points="1197.5,-19.25 1136.5,-19.25 1136.5,0 1197.5,0 1197.5,-19.25"/>
<text text-anchor="middle" x="1167" y="-5.75" font-family="Helvetica,sans-Serif" font-size="10.00">type_traits</text>
</a>
</g>
</g>
<!-- Node16&#45;&gt;Node20 -->
<g id="edge20_Node000016_Node000020" class="edge">
<title>Node16&#45;&gt;Node20</title>
<g id="a_edge20_Node000016_Node000020"><a xlink:title=" ">
<path fill="none" stroke="#63b8ff" d="M1100.57,-54.84C1112.41,-46.96 1129.84,-35.36 1143.87,-26.02"/>
<polygon fill="#63b8ff" stroke="#63b8ff" points="1145.72,-29 1152.1,-20.54 1141.84,-23.17 1145.72,-29"/>
</a>
</g>
</g>
<!-- Node16&#45;&gt;Node21 -->
<g id="edge21_Node000016_Node000021" class="edge">
<title>Node16&#45;&gt;Node21</title>
<g id="a_edge21_Node000016_Node000021"><a xlink:title=" ">
<path fill="none" stroke="#63b8ff" d="M1034.86,-59.2C1019.75,-57.89 1003.22,-56.48 988,-55.25 768.89,-37.6 504.78,-18.97 415.89,-12.77"/>
<polygon fill="#63b8ff" stroke="#63b8ff" points="416.26,-9.29 406.04,-12.08 415.77,-16.27 416.26,-9.29"/>
</a>
</g>
</g>
<!-- Node22&#45;&gt;Node8 -->
<g id="edge24_Node000022_Node000008" class="edge">
<title>Node22&#45;&gt;Node8</title>
<g id="a_edge24_Node000022_Node000008"><a xlink:title=" ">
<path fill="none" stroke="#63b8ff" d="M1040.82,-110.45C1031.93,-96.38 1012.35,-68.79 988,-55.25 921.51,-18.27 830.5,-11.11 780.87,-10.2"/>
<polygon fill="#63b8ff" stroke="#63b8ff" points="781.02,-6.7 770.99,-10.11 780.95,-13.7 781.02,-6.7"/>
</a>
</g>
</g>
<!-- Node22&#45;&gt;Node16 -->
<g id="edge23_Node000022_Node000016" class="edge">
<title>Node22&#45;&gt;Node16</title>
<g id="a_edge23_Node000022_Node000016"><a xlink:title=" ">
<path fill="none" stroke="#63b8ff" d="M1052.77,-110.33C1058.32,-103.13 1066.34,-92.71 1073.23,-83.76"/>
<polygon fill="#63b8ff" stroke="#63b8ff" points="1075.83,-86.12 1079.16,-76.06 1070.29,-81.85 1075.83,-86.12"/>
</a>
</g>
</g>
<!-- Node22&#45;&gt;Node20 -->
<g id="edge25_Node000022_Node000020" class="edge">
<title>Node22&#45;&gt;Node20</title>
<g id="a_edge25_Node000022_Node000020"><a xlink:title=" ">
<path fill="none" stroke="#63b8ff" d="M1086.98,-110.01C1107.9,-103.4 1132.19,-92.39 1148,-74.5 1158.68,-62.42 1163.36,-44.57 1165.41,-30.8"/>
<polygon fill="#63b8ff" stroke="#63b8ff" points="1168.86,-31.42 1166.48,-21.1 1161.9,-30.65 1168.86,-31.42"/>
</a>
</g>
</g>
<!-- Node22&#45;&gt;Node23 -->
<g id="edge26_Node000022_Node000023" class="edge">
<title>Node22&#45;&gt;Node23</title>
<g id="a_edge26_Node000022_Node000023"><a xlink:title=" ">
<path fill="none" stroke="#63b8ff" d="M1030.9,-110.09C1017.48,-102.06 997.59,-90.16 981.83,-80.73"/>
<polygon fill="#63b8ff" stroke="#63b8ff" points="983.85,-77.86 973.47,-75.73 980.25,-83.87 983.85,-77.86"/>
</a>
</g>
</g>
<!-- Node24&#45;&gt;Node8 -->
<g id="edge39_Node000024_Node000008" class="edge">
<title>Node24&#45;&gt;Node8</title>
<g id="a_edge39_Node000024_Node000008"><a xlink:title=" ">
<path fill="none" stroke="#63b8ff" d="M723.88,-110.25C727.54,-93 735.68,-54.58 740.72,-30.81"/>
<polygon fill="#63b8ff" stroke="#63b8ff" points="744.13,-31.62 742.78,-21.11 737.28,-30.16 744.13,-31.62"/>
</a>
</g>
</g>
<!-- Node24&#45;&gt;Node9 -->
<g id="edge40_Node000024_Node000009" class="edge">
<title>Node24&#45;&gt;Node9</title>
<g id="a_edge40_Node000024_Node000009"><a xlink:title=" ">
<path fill="none" stroke="#63b8ff" d="M685.55,-110.05C652.23,-101.72 601.29,-88.89 548.08,-75.02"/>
<polygon fill="#63b8ff" stroke="#63b8ff" points="549.09,-71.66 538.53,-72.52 547.32,-78.43 549.09,-71.66"/>
</a>
</g>
</g>
<!-- Node24&#45;&gt;Node14 -->
<g id="edge42_Node000024_Node000014" class="edge">
<title>Node24&#45;&gt;Node14</title>
<g id="a_edge42_Node000024_Node000014"><a xlink:title=" ">
<path fill="none" stroke="#63b8ff" d="M697.91,-110.09C675.06,-101.52 640.48,-88.56 614.67,-78.88"/>
<polygon fill="#63b8ff" stroke="#63b8ff" points="616.22,-75.72 605.62,-75.48 613.76,-82.27 616.22,-75.72"/>
</a>
</g>
</g>
<!-- Node24&#45;&gt;Node23 -->
<g id="edge43_Node000024_Node000023" class="edge">
<title>Node24&#45;&gt;Node23</title>
<g id="a_edge43_Node000024_Node000023"><a xlink:title=" ">
<path fill="none" stroke="#63b8ff" d="M767.14,-110.01C806.16,-101.96 864.32,-89.56 923.89,-74.91"/>
<polygon fill="#63b8ff" stroke="#63b8ff" points="924.69,-78.32 933.56,-72.52 923.01,-71.53 924.69,-78.32"/>
</a>
</g>
</g>
<!-- Node25 -->
<g id="Node000025" class="node">
<title>Node25</title>
<g id="a_Node000025"><a xlink:title=" ">
<polygon fill="#e0e0e0" stroke="#999999" points="716.88,-74.5 661.12,-74.5 661.12,-55.25 716.88,-55.25 716.88,-74.5"/>
<text text-anchor="middle" x="689" y="-61" font-family="Helvetica,sans-Serif" font-size="10.00">algorithm</text>
</a>
</g>
</g>
<!-- Node24&#45;&gt;Node25 -->
<g id="edge37_Node000024_Node000025" class="edge">
<title>Node24&#45;&gt;Node25</title>
<g id="a_edge37_Node000024_Node000025"><a xlink:title=" ">
<path fill="none" stroke="#63b8ff" d="M716.55,-110.33C712.23,-103.36 706.04,-93.37 700.62,-84.62"/>
<polygon fill="#63b8ff" stroke="#63b8ff" points="703.61,-82.8 695.36,-76.15 697.66,-86.49 703.61,-82.8"/>
</a>
</g>
</g>
<!-- Node24&#45;&gt;Node26 -->
<g id="edge38_Node000024_Node000026" class="edge">
<title>Node24&#45;&gt;Node26</title>
<g id="a_edge38_Node000024_Node000026"><a xlink:title=" ">
<path fill="none" stroke="#63b8ff" d="M734.55,-110.09C745.46,-102.24 761.5,-90.7 774.46,-81.37"/>
<polygon fill="#63b8ff" stroke="#63b8ff" points="776.33,-84.34 782.4,-75.66 772.24,-78.66 776.33,-84.34"/>
</a>
</g>
</g>
<!-- Node24&#45;&gt;Node27 -->
<g id="edge41_Node000024_Node000027" class="edge">
<title>Node24&#45;&gt;Node27</title>
<g id="a_edge41_Node000024_Node000027"><a xlink:title=" ">
<path fill="none" stroke="#63b8ff" d="M751.52,-110.09C782.74,-100.54 831.84,-85.51 863.98,-75.67"/>
<polygon fill="#63b8ff" stroke="#63b8ff" points="864.6,-79.14 873.14,-72.87 862.55,-72.45 864.6,-79.14"/>
</a>
</g>
</g>
<!-- Node29&#45;&gt;Node8 -->
<g id="edge51_Node000029_Node000008" class="edge">
<title>Node29&#45;&gt;Node8</title>
<g id="a_edge51_Node000029_Node000008"><a xlink:title=" ">
<path fill="none" stroke="#63b8ff" d="M591.67,-110.38C603.57,-97.17 627.68,-71.91 652,-55.25 670.31,-42.7 692.7,-31.84 710.92,-23.98"/>
<polygon fill="#63b8ff" stroke="#63b8ff" points="712.11,-27.27 719.98,-20.18 709.41,-20.82 712.11,-27.27"/>
</a>
</g>
</g>
<!-- Node29&#45;&gt;Node9 -->
<g id="edge52_Node000029_Node000009" class="edge">
<title>Node29&#45;&gt;Node9</title>
<g id="a_edge52_Node000029_Node000009"><a xlink:title=" ">
<path fill="none" stroke="#63b8ff" d="M572.13,-110.09C561.91,-102.32 546.93,-90.92 534.74,-81.65"/>
<polygon fill="#63b8ff" stroke="#63b8ff" points="536.98,-78.96 526.9,-75.69 532.74,-84.53 536.98,-78.96"/>
</a>
</g>
</g>
</g>
</svg>
