<?xml version="1.0" encoding="UTF-8" standalone="no"?>
<!DOCTYPE svg PUBLIC "-//W3C//DTD SVG 1.1//EN"
 "http://www.w3.org/Graphics/SVG/1.1/DTD/svg11.dtd">
<!-- Generated by graphviz version 12.2.0 (20241103.1931)
 -->
<!-- Title: bcnp/controller.h Pages: 1 -->
<svg width="1329pt" height="359pt"
 viewBox="0.00 0.00 1328.88 358.75" xmlns="http://www.w3.org/2000/svg" xmlns:xlink="http://www.w3.org/1999/xlink">
<g id="graph0" class="graph" transform="scale(1 1) rotate(0) translate(4 354.75)">
<title>bcnp/controller.h</title>
<!-- Node1 -->
<g id="Node000001" class="node">
<title>Node1</title>
<g id="a_Node000001"><a xlink:title=" ">
<polygon fill="#999999" stroke="#666666" points="1037.38,-350.75 950.12,-350.75 950.12,-331.5 1037.38,-331.5 1037.38,-350.75"/>
<text text-anchor="middle" x="993.75" y="-337.25" font-family="Helvetica,sans-Serif" font-size="10.00">bcnp/controller.h</text>
</a>
</g>
</g>
<!-- Node2 -->
<g id="Node000002" class="node">
<title>Node2</title>
<g id="a_Node000002"><a xlink:href="dispatcher_8h.html" target="_top" xlink:title=" ">
<polygon fill="white" stroke="#666666" points="1040,-295.5 947.5,-295.5 947.5,-276.25 1040,-276.25 1040,-295.5"/>
<text text-anchor="middle" x="993.75" y="-282" font-family="Helvetica,sans-Serif" font-size="10.00">bcnp/dispatcher.h</text>
</a>
</g>
</g>
<!-- Node1&#45;&gt;Node2 -->
<g id="edge1_Node000001_Node000002" class="edge">
<title>Node1&#45;&gt;Node2</title>
<g id="a_edge1_Node000001_Node000002"><a xlink:title=" ">
<path fill="none" stroke="#63b8ff" d="M993.75,-331.33C993.75,-324.82 993.75,-315.67 993.75,-307.37"/>
<polygon fill="#63b8ff" stroke="#63b8ff" points="997.25,-307.37 993.75,-297.37 990.25,-307.37 997.25,-307.37"/>
</a>
</g>
</g>
<!-- Node3 -->
<g id="Node000003" class="node">
<title>Node3</title>
<g id="a_Node000003"><a xlink:href="stream__parser_8h.html" target="_top" xlink:title=" ">
<polygon fill="white" stroke="#666666" points="728.62,-240.25 618.88,-240.25 618.88,-221 728.62,-221 728.62,-240.25"/>
<text text-anchor="middle" x="673.75" y="-226.75" font-family="Helvetica,sans-Serif" font-size="10.00">bcnp/stream_parser.h</text>
</a>
</g>
</g>
<!-- Node2&#45;&gt;Node3 -->
<g id="edge2_Node000002_Node000003" class="edge">
<title>Node2&#45;&gt;Node3</title>
<g id="a_edge2_Node000002_Node000003"><a xlink:title=" ">
<path fill="none" stroke="#63b8ff" d="M947.22,-277.13C892.55,-268.04 801.47,-252.88 739.58,-242.58"/>
<polygon fill="#63b8ff" stroke="#63b8ff" points="740.31,-239.15 729.87,-240.96 739.16,-246.06 740.31,-239.15"/>
</a>
</g>
</g>
<!-- Node5 -->
<g id="Node000005" class="node">
<title>Node5</title>
<g id="a_Node000005"><a xlink:href="message__types_8h.html" target="_top" xlink:title=" ">
<polygon fill="white" stroke="#666666" points="690.62,-129.75 574.88,-129.75 574.88,-110.5 690.62,-110.5 690.62,-129.75"/>
<text text-anchor="middle" x="632.75" y="-116.25" font-family="Helvetica,sans-Serif" font-size="10.00">bcnp/message_types.h</text>
</a>
</g>
</g>
<!-- Node2&#45;&gt;Node5 -->
<g id="edge41_Node000002_Node000005" class="edge">
<title>Node2&#45;&gt;Node5</title>
<g id="a_edge41_Node000002_Node000005"><a xlink:title=" ">
<path fill="none" stroke="#63b8ff" d="M973.64,-275.83C953.63,-266.83 922.06,-252.61 894.75,-240.25 810.71,-202.2 711.62,-157.08 662.9,-134.87"/>
<polygon fill="#63b8ff" stroke="#63b8ff" points="664.39,-131.7 653.84,-130.74 661.48,-138.07 664.39,-131.7"/>
</a>
</g>
</g>
<!-- Node8 -->
<g id="Node000008" class="node">
<title>Node8</title>
<g id="a_Node000008"><a xlink:title=" ">
<polygon fill="#e0e0e0" stroke="#999999" points="973.38,-74.5 928.12,-74.5 928.12,-55.25 973.38,-55.25 973.38,-74.5"/>
<text text-anchor="middle" x="950.75" y="-61" font-family="Helvetica,sans-Serif" font-size="10.00">cstdint</text>
</a>
</g>
</g>
<!-- Node2&#45;&gt;Node8 -->
<g id="edge43_Node000002_Node000008" class="edge">
<title>Node2&#45;&gt;Node8</title>
<g id="a_edge43_Node000002_Node000008"><a xlink:title=" ">
<path fill="none" stroke="#63b8ff" d="M988.53,-275.97C983.64,-267.2 976.52,-253.24 972.75,-240.25 956.97,-185.93 952.51,-118.83 951.25,-85.96"/>
<polygon fill="#63b8ff" stroke="#63b8ff" points="954.76,-86.18 950.94,-76.29 947.76,-86.4 954.76,-86.18"/>
</a>
</g>
</g>
<!-- Node11 -->
<g id="Node000011" class="node">
<title>Node11</title>
<g id="a_Node000011"><a xlink:title=" ">
<polygon fill="#e0e0e0" stroke="#999999" points="909.75,-74.5 851.75,-74.5 851.75,-55.25 909.75,-55.25 909.75,-74.5"/>
<text text-anchor="middle" x="880.75" y="-61" font-family="Helvetica,sans-Serif" font-size="10.00">functional</text>
</a>
</g>
</g>
<!-- Node2&#45;&gt;Node11 -->
<g id="edge44_Node000002_Node000011" class="edge">
<title>Node2&#45;&gt;Node11</title>
<g id="a_edge44_Node000002_Node000011"><a xlink:title=" ">
<path fill="none" stroke="#63b8ff" d="M987.14,-275.9C980.77,-267.06 971.05,-253.06 963.75,-240.25 932.7,-185.77 902.72,-117.82 888.82,-85.16"/>
<polygon fill="#63b8ff" stroke="#63b8ff" points="892.15,-84.06 885.04,-76.21 885.7,-86.79 892.15,-84.06"/>
</a>
</g>
</g>
<!-- Node24 -->
<g id="Node000024" class="node">
<title>Node24</title>
<g id="a_Node000024"><a xlink:href="message__queue_8h.html" target="_top" xlink:title="Timed message queue for executing duration&#45;based commands.">
<polygon fill="white" stroke="#666666" points="1100.12,-240.25 981.38,-240.25 981.38,-221 1100.12,-221 1100.12,-240.25"/>
<text text-anchor="middle" x="1040.75" y="-226.75" font-family="Helvetica,sans-Serif" font-size="10.00">bcnp/message_queue.h</text>
</a>
</g>
</g>
<!-- Node2&#45;&gt;Node24 -->
<g id="edge33_Node000002_Node000024" class="edge">
<title>Node2&#45;&gt;Node24</title>
<g id="a_edge33_Node000002_Node000024"><a xlink:title=" ">
<path fill="none" stroke="#63b8ff" d="M1001.51,-276.08C1007.94,-268.8 1017.26,-258.23 1025.21,-249.23"/>
<polygon fill="#63b8ff" stroke="#63b8ff" points="1027.83,-251.56 1031.82,-241.74 1022.58,-246.93 1027.83,-251.56"/>
</a>
</g>
</g>
<!-- Node26 -->
<g id="Node000026" class="node">
<title>Node26</title>
<g id="a_Node000026"><a xlink:title=" ">
<polygon fill="#e0e0e0" stroke="#999999" points="1260.38,-185 1215.12,-185 1215.12,-165.75 1260.38,-165.75 1260.38,-185"/>
<text text-anchor="middle" x="1237.75" y="-171.5" font-family="Helvetica,sans-Serif" font-size="10.00">chrono</text>
</a>
</g>
</g>
<!-- Node2&#45;&gt;Node26 -->
<g id="edge42_Node000002_Node000026" class="edge">
<title>Node2&#45;&gt;Node26</title>
<g id="a_edge42_Node000002_Node000026"><a xlink:title=" ">
<path fill="none" stroke="#63b8ff" d="M1019.14,-275.77C1042.62,-267.17 1078.37,-253.63 1108.75,-240.25 1144.57,-224.47 1184.85,-204.09 1210.72,-190.64"/>
<polygon fill="#63b8ff" stroke="#63b8ff" points="1212.29,-193.77 1219.53,-186.04 1209.04,-187.57 1212.29,-193.77"/>
</a>
</g>
</g>
<!-- Node27 -->
<g id="Node000027" class="node">
<title>Node27</title>
<g id="a_Node000027"><a xlink:title=" ">
<polygon fill="#e0e0e0" stroke="#999999" points="1320.88,-185 1278.62,-185 1278.62,-165.75 1320.88,-165.75 1320.88,-185"/>
<text text-anchor="middle" x="1299.75" y="-171.5" font-family="Helvetica,sans-Serif" font-size="10.00">mutex</text>
</a>
</g>
</g>
<!-- Node2&#45;&gt;Node27 -->
<g id="edge45_Node000002_Node000027" class="edge">
<title>Node2&#45;&gt;Node27</title>
<g id="a_edge45_Node000002_Node000027"><a xlink:title=" ">
<path fill="none" stroke="#63b8ff" d="M1029.13,-275.77C1059.61,-267.57 1104.59,-254.63 1142.75,-240.25 1161.96,-233.01 1165.84,-229 1184.75,-221 1212.55,-209.25 1244.6,-196.91 1267.79,-188.19"/>
<polygon fill="#63b8ff" stroke="#63b8ff" points="1268.84,-191.53 1276.98,-184.75 1266.39,-184.98 1268.84,-191.53"/>
</a>
</g>
</g>
<!-- Node29 -->
<g id="Node000029" class="node">
<title>Node29</title>
<g id="a_Node000029"><a xlink:title=" ">
<polygon fill="#e0e0e0" stroke="#999999" points="1276.12,-240.25 1193.38,-240.25 1193.38,-221 1276.12,-221 1276.12,-240.25"/>
<text text-anchor="middle" x="1234.75" y="-226.75" font-family="Helvetica,sans-Serif" font-size="10.00">unordered_map</text>
</a>
</g>
</g>
<!-- Node2&#45;&gt;Node29 -->
<g id="edge46_Node000002_Node000029" class="edge">
<title>Node2&#45;&gt;Node29</title>
<g id="a_edge46_Node000002_Node000029"><a xlink:title=" ">
<path fill="none" stroke="#63b8ff" d="M1034.91,-275.78C1075.72,-266.76 1138.39,-252.92 1182.65,-243.14"/>
<polygon fill="#63b8ff" stroke="#63b8ff" points="1183.28,-246.58 1192.29,-241.01 1181.77,-239.75 1183.28,-246.58"/>
</a>
</g>
</g>
<!-- Node4 -->
<g id="Node000004" class="node">
<title>Node4</title>
<g id="a_Node000004"><a xlink:href="packet_8h.html" target="_top" xlink:title="BCNP packet structures, encoding, and decoding utilities.">
<polygon fill="white" stroke="#666666" points="453.12,-185 376.38,-185 376.38,-165.75 453.12,-165.75 453.12,-185"/>
<text text-anchor="middle" x="414.75" y="-171.5" font-family="Helvetica,sans-Serif" font-size="10.00">bcnp/packet.h</text>
</a>
</g>
</g>
<!-- Node3&#45;&gt;Node4 -->
<g id="edge3_Node000003_Node000004" class="edge">
<title>Node3&#45;&gt;Node4</title>
<g id="a_edge3_Node000003_Node000004"><a xlink:title=" ">
<path fill="none" stroke="#63b8ff" d="M629.52,-220.53C583.64,-211.1 512.06,-196.38 464.3,-186.56"/>
<polygon fill="#63b8ff" stroke="#63b8ff" points="465.29,-183.19 454.79,-184.61 463.88,-190.05 465.29,-183.19"/>
</a>
</g>
</g>
<!-- Node6 -->
<g id="Node000006" class="node">
<title>Node6</title>
<g id="a_Node000006"><a xlink:title=" ">
<polygon fill="#e0e0e0" stroke="#999999" points="443.25,-74.5 406.25,-74.5 406.25,-55.25 443.25,-55.25 443.25,-74.5"/>
<text text-anchor="middle" x="424.75" y="-61" font-family="Helvetica,sans-Serif" font-size="10.00">array</text>
</a>
</g>
</g>
<!-- Node3&#45;&gt;Node6 -->
<g id="edge28_Node000003_Node000006" class="edge">
<title>Node3&#45;&gt;Node6</title>
<g id="a_edge28_Node000003_Node000006"><a xlink:title=" ">
<path fill="none" stroke="#63b8ff" d="M660.01,-220.59C619.28,-193.8 498.89,-114.63 447.94,-81.13"/>
<polygon fill="#63b8ff" stroke="#63b8ff" points="449.99,-78.29 439.71,-75.72 446.15,-84.13 449.99,-78.29"/>
</a>
</g>
</g>
<!-- Node7 -->
<g id="Node000007" class="node">
<title>Node7</title>
<g id="a_Node000007"><a xlink:title=" ">
<polygon fill="#e0e0e0" stroke="#999999" points="448.88,-19.25 400.62,-19.25 400.62,0 448.88,0 448.88,-19.25"/>
<text text-anchor="middle" x="424.75" y="-5.75" font-family="Helvetica,sans-Serif" font-size="10.00">cstddef</text>
</a>
</g>
</g>
<!-- Node3&#45;&gt;Node7 -->
<g id="edge29_Node000003_Node000007" class="edge">
<title>Node3&#45;&gt;Node7</title>
<g id="a_edge29_Node000003_Node000007"><a xlink:title=" ">
<path fill="none" stroke="#63b8ff" d="M681.87,-220.76C709.45,-190.52 798.21,-92.38 804.75,-74.5 807.69,-66.47 810.44,-61.64 804.75,-55.25 782.07,-29.75 550.89,-16.43 460.6,-12.17"/>
<polygon fill="#63b8ff" stroke="#63b8ff" points="460.99,-8.69 450.84,-11.72 460.66,-15.68 460.99,-8.69"/>
</a>
</g>
</g>
<!-- Node3&#45;&gt;Node8 -->
<g id="edge30_Node000003_Node000008" class="edge">
<title>Node3&#45;&gt;Node8</title>
<g id="a_edge30_Node000003_Node000008"><a xlink:title=" ">
<path fill="none" stroke="#63b8ff" d="M691.86,-220.59C709.21,-211.83 736.03,-197.99 758.75,-185 820.74,-149.56 891.65,-104.29 927.45,-81.09"/>
<polygon fill="#63b8ff" stroke="#63b8ff" points="929.24,-84.1 935.72,-75.72 925.42,-78.23 929.24,-84.1"/>
</a>
</g>
</g>
<!-- Node3&#45;&gt;Node11 -->
<g id="edge31_Node000003_Node000011" class="edge">
<title>Node3&#45;&gt;Node11</title>
<g id="a_edge31_Node000003_Node000011"><a xlink:title=" ">
<path fill="none" stroke="#63b8ff" d="M686.04,-220.5C698.03,-211.56 716.75,-197.48 732.75,-185 779.04,-148.88 832.51,-105.39 860.8,-82.25"/>
<polygon fill="#63b8ff" stroke="#63b8ff" points="863.01,-84.96 868.53,-75.92 858.58,-79.55 863.01,-84.96"/>
</a>
</g>
</g>
<!-- Node23 -->
<g id="Node000023" class="node">
<title>Node23</title>
<g id="a_Node000023"><a xlink:title=" ">
<polygon fill="#e0e0e0" stroke="#999999" points="519,-185 480.5,-185 480.5,-165.75 519,-165.75 519,-185"/>
<text text-anchor="middle" x="499.75" y="-171.5" font-family="Helvetica,sans-Serif" font-size="10.00">utility</text>
</a>
</g>
</g>
<!-- Node3&#45;&gt;Node23 -->
<g id="edge32_Node000003_Node000023" class="edge">
<title>Node3&#45;&gt;Node23</title>
<g id="a_edge32_Node000003_Node000023"><a xlink:title=" ">
<path fill="none" stroke="#63b8ff" d="M644.23,-220.59C612.54,-210.89 562.43,-195.56 530.33,-185.73"/>
<polygon fill="#63b8ff" stroke="#63b8ff" points="531.42,-182.41 520.84,-182.83 529.37,-189.1 531.42,-182.41"/>
</a>
</g>
</g>
<!-- Node4&#45;&gt;Node5 -->
<g id="edge4_Node000004_Node000005" class="edge">
<title>Node4&#45;&gt;Node5</title>
<g id="a_edge4_Node000004_Node000005"><a xlink:title=" ">
<path fill="none" stroke="#63b8ff" d="M451.73,-165.34C488.29,-156.41 544.43,-142.7 584.49,-132.91"/>
<polygon fill="#63b8ff" stroke="#63b8ff" points="585.23,-136.33 594.12,-130.56 583.57,-129.53 585.23,-136.33"/>
</a>
</g>
</g>
<!-- Node4&#45;&gt;Node7 -->
<g id="edge25_Node000004_Node000007" class="edge">
<title>Node4&#45;&gt;Node7</title>
<g id="a_edge25_Node000004_Node000007"><a xlink:title=" ">
<path fill="none" stroke="#63b8ff" d="M423.25,-165.32C430.55,-156.86 440.56,-143.5 444.75,-129.75 447.25,-121.57 448.58,-118.15 444.75,-110.5 432.82,-86.65 408.68,-98.35 396.75,-74.5 388.99,-58.99 398.68,-40.84 408.72,-27.86"/>
<polygon fill="#63b8ff" stroke="#63b8ff" points="411.09,-30.48 414.87,-20.59 405.74,-25.96 411.09,-30.48"/>
</a>
</g>
</g>
<!-- Node4&#45;&gt;Node8 -->
<g id="edge26_Node000004_Node000008" class="edge">
<title>Node4&#45;&gt;Node8</title>
<g id="a_edge26_Node000004_Node000008"><a xlink:title=" ">
<path fill="none" stroke="#63b8ff" d="M453.45,-168.52C525.72,-157.55 676.04,-134.59 699.75,-129.75 794.65,-110.39 819.87,-100.55 916.8,-74.99"/>
<polygon fill="#63b8ff" stroke="#63b8ff" points="917.44,-78.45 926.23,-72.52 915.66,-71.67 917.44,-78.45"/>
</a>
</g>
</g>
<!-- Node15 -->
<g id="Node000015" class="node">
<title>Node15</title>
<g id="a_Node000015"><a xlink:href="static__vector_8h.html" target="_top" xlink:title="Fixed&#45;capacity vector with stack allocation (no heap).">
<polygon fill="white" stroke="#666666" points="170.62,-74.5 66.88,-74.5 66.88,-55.25 170.62,-55.25 170.62,-74.5"/>
<text text-anchor="middle" x="118.75" y="-61" font-family="Helvetica,sans-Serif" font-size="10.00">bcnp/static_vector.h</text>
</a>
</g>
</g>
<!-- Node4&#45;&gt;Node15 -->
<g id="edge14_Node000004_Node000015" class="edge">
<title>Node4&#45;&gt;Node15</title>
<g id="a_edge14_Node000004_Node000015"><a xlink:title=" ">
<path fill="none" stroke="#63b8ff" d="M375.93,-174.02C327.47,-172.04 243.37,-163.5 180.75,-129.75 160.41,-118.79 142.68,-98.85 131.45,-84.15"/>
<polygon fill="#63b8ff" stroke="#63b8ff" points="134.38,-82.22 125.66,-76.21 128.73,-86.35 134.38,-82.22"/>
</a>
</g>
</g>
<!-- Node19 -->
<g id="Node000019" class="node">
<title>Node19</title>
<g id="a_Node000019"><a xlink:href="packet__storage_8h.html" target="_top" xlink:title=" ">
<polygon fill="white" stroke="#666666" points="303.88,-129.75 189.62,-129.75 189.62,-110.5 303.88,-110.5 303.88,-129.75"/>
<text text-anchor="middle" x="246.75" y="-116.25" font-family="Helvetica,sans-Serif" font-size="10.00">bcnp/packet_storage.h</text>
</a>
</g>
</g>
<!-- Node4&#45;&gt;Node19 -->
<g id="edge19_Node000004_Node000019" class="edge">
<title>Node4&#45;&gt;Node19</title>
<g id="a_edge19_Node000004_Node000019"><a xlink:title=" ">
<path fill="none" stroke="#63b8ff" d="M386.25,-165.34C358.74,-156.62 316.84,-143.34 286.14,-133.61"/>
<polygon fill="#63b8ff" stroke="#63b8ff" points="287.42,-130.34 276.83,-130.66 285.31,-137.02 287.42,-130.34"/>
</a>
</g>
</g>
<!-- Node21 -->
<g id="Node000021" class="node">
<title>Node21</title>
<g id="a_Node000021"><a xlink:title=" ">
<polygon fill="#e0e0e0" stroke="#999999" points="349.25,-74.5 306.25,-74.5 306.25,-55.25 349.25,-55.25 349.25,-74.5"/>
<text text-anchor="middle" x="327.75" y="-61" font-family="Helvetica,sans-Serif" font-size="10.00">vector</text>
</a>
</g>
</g>
<!-- Node4&#45;&gt;Node21 -->
<g id="edge27_Node000004_Node000021" class="edge">
<title>Node4&#45;&gt;Node21</title>
<g id="a_edge27_Node000004_Node000021"><a xlink:title=" ">
<path fill="none" stroke="#63b8ff" d="M395.82,-165.27C381.64,-157.59 362.7,-145.34 350.75,-129.75 340.87,-116.86 334.96,-99.33 331.61,-85.9"/>
<polygon fill="#63b8ff" stroke="#63b8ff" points="335.1,-85.47 329.54,-76.45 328.26,-86.96 335.1,-85.47"/>
</a>
</g>
</g>
<!-- Node22 -->
<g id="Node000022" class="node">
<title>Node22</title>
<g id="a_Node000022"><a xlink:title=" ">
<polygon fill="#e0e0e0" stroke="#999999" points="436.12,-129.75 359.38,-129.75 359.38,-110.5 436.12,-110.5 436.12,-129.75"/>
<text text-anchor="middle" x="397.75" y="-116.25" font-family="Helvetica,sans-Serif" font-size="10.00">crab/prelude.h</text>
</a>
</g>
</g>
<!-- Node4&#45;&gt;Node22 -->
<g id="edge24_Node000004_Node000022" class="edge">
<title>Node4&#45;&gt;Node22</title>
<g id="a_edge24_Node000004_Node000022"><a xlink:title=" ">
<path fill="none" stroke="#63b8ff" d="M411.94,-165.58C409.81,-158.92 406.81,-149.49 404.11,-141.03"/>
<polygon fill="#63b8ff" stroke="#63b8ff" points="407.45,-140.01 401.08,-131.55 400.79,-142.14 407.45,-140.01"/>
</a>
</g>
</g>
<!-- Node5&#45;&gt;Node6 -->
<g id="edge5_Node000005_Node000006" class="edge">
<title>Node5&#45;&gt;Node6</title>
<g id="a_edge5_Node000005_Node000006"><a xlink:title=" ">
<path fill="none" stroke="#63b8ff" d="M596.87,-110.04C561.49,-101.07 505.87,-86.92 457.75,-74.5 456.75,-74.24 455.73,-73.98 454.7,-73.71"/>
<polygon fill="#63b8ff" stroke="#63b8ff" points="455.62,-70.33 445.06,-71.2 453.85,-77.11 455.62,-70.33"/>
</a>
</g>
</g>
<!-- Node5&#45;&gt;Node7 -->
<g id="edge6_Node000005_Node000007" class="edge">
<title>Node5&#45;&gt;Node7</title>
<g id="a_edge6_Node000005_Node000007"><a xlink:title=" ">
<path fill="none" stroke="#63b8ff" d="M585.38,-110.06C556.62,-103.18 519.95,-91.88 490.75,-74.5 470.07,-62.19 450.83,-42.19 438.52,-27.85"/>
<polygon fill="#63b8ff" stroke="#63b8ff" points="441.54,-26 432.46,-20.54 436.15,-30.47 441.54,-26"/>
</a>
</g>
</g>
<!-- Node5&#45;&gt;Node8 -->
<g id="edge7_Node000005_Node000008" class="edge">
<title>Node5&#45;&gt;Node8</title>
<g id="a_edge7_Node000005_Node000008"><a xlink:title=" ">
<path fill="none" stroke="#63b8ff" d="M690.88,-111.94C746.47,-104.64 832.83,-92.21 916.73,-74.72"/>
<polygon fill="#63b8ff" stroke="#63b8ff" points="917.21,-78.2 926.27,-72.71 915.76,-71.35 917.21,-78.2"/>
</a>
</g>
</g>
<!-- Node9 -->
<g id="Node000009" class="node">
<title>Node9</title>
<g id="a_Node000009"><a xlink:title=" ">
<polygon fill="#e0e0e0" stroke="#999999" points="795.25,-74.5 752.25,-74.5 752.25,-55.25 795.25,-55.25 795.25,-74.5"/>
<text text-anchor="middle" x="773.75" y="-61" font-family="Helvetica,sans-Serif" font-size="10.00">cmath</text>
</a>
</g>
</g>
<!-- Node5&#45;&gt;Node9 -->
<g id="edge8_Node000005_Node000009" class="edge">
<title>Node5&#45;&gt;Node9</title>
<g id="a_edge8_Node000005_Node000009"><a xlink:title=" ">
<path fill="none" stroke="#63b8ff" d="M656.67,-110.09C679.94,-101.3 715.46,-87.89 741.28,-78.14"/>
<polygon fill="#63b8ff" stroke="#63b8ff" points="742.5,-81.42 750.62,-74.61 740.02,-74.87 742.5,-81.42"/>
</a>
</g>
</g>
<!-- Node10 -->
<g id="Node000010" class="node">
<title>Node10</title>
<g id="a_Node000010"><a xlink:title=" ">
<polygon fill="#e0e0e0" stroke="#999999" points="545.38,-74.5 500.12,-74.5 500.12,-55.25 545.38,-55.25 545.38,-74.5"/>
<text text-anchor="middle" x="522.75" y="-61" font-family="Helvetica,sans-Serif" font-size="10.00">cstring</text>
</a>
</g>
</g>
<!-- Node5&#45;&gt;Node10 -->
<g id="edge9_Node000005_Node000010" class="edge">
<title>Node5&#45;&gt;Node10</title>
<g id="a_edge9_Node000005_Node000010"><a xlink:title=" ">
<path fill="none" stroke="#63b8ff" d="M614.09,-110.09C597.02,-101.83 571.51,-89.48 551.78,-79.93"/>
<polygon fill="#63b8ff" stroke="#63b8ff" points="553.39,-76.82 542.86,-75.61 550.34,-83.12 553.39,-76.82"/>
</a>
</g>
</g>
<!-- Node5&#45;&gt;Node11 -->
<g id="edge10_Node000005_Node000011" class="edge">
<title>Node5&#45;&gt;Node11</title>
<g id="a_edge10_Node000005_Node000011"><a xlink:title=" ">
<path fill="none" stroke="#63b8ff" d="M675.1,-110.03C721.3,-100.11 794.71,-84.35 840.19,-74.58"/>
<polygon fill="#63b8ff" stroke="#63b8ff" points="840.87,-78.02 849.92,-72.5 839.4,-71.17 840.87,-78.02"/>
</a>
</g>
</g>
<!-- Node12 -->
<g id="Node000012" class="node">
<title>Node12</title>
<g id="a_Node000012"><a xlink:title=" ">
<polygon fill="#e0e0e0" stroke="#999999" points="602.38,-74.5 563.12,-74.5 563.12,-55.25 602.38,-55.25 602.38,-74.5"/>
<text text-anchor="middle" x="582.75" y="-61" font-family="Helvetica,sans-Serif" font-size="10.00">limits</text>
</a>
</g>
</g>
<!-- Node5&#45;&gt;Node12 -->
<g id="edge11_Node000005_Node000012" class="edge">
<title>Node5&#45;&gt;Node12</title>
<g id="a_edge11_Node000005_Node000012"><a xlink:title=" ">
<path fill="none" stroke="#63b8ff" d="M624.49,-110.33C617.59,-102.98 607.53,-92.26 599.01,-83.19"/>
<polygon fill="#63b8ff" stroke="#63b8ff" points="601.62,-80.86 592.22,-75.96 596.52,-85.65 601.62,-80.86"/>
</a>
</g>
</g>
<!-- Node13 -->
<g id="Node000013" class="node">
<title>Node13</title>
<g id="a_Node000013"><a xlink:title=" ">
<polygon fill="#e0e0e0" stroke="#999999" points="670.62,-74.5 620.88,-74.5 620.88,-55.25 670.62,-55.25 670.62,-74.5"/>
<text text-anchor="middle" x="645.75" y="-61" font-family="Helvetica,sans-Serif" font-size="10.00">optional</text>
</a>
</g>
</g>
<!-- Node5&#45;&gt;Node13 -->
<g id="edge12_Node000005_Node000013" class="edge">
<title>Node5&#45;&gt;Node13</title>
<g id="a_edge12_Node000005_Node000013"><a xlink:title=" ">
<path fill="none" stroke="#63b8ff" d="M634.9,-110.33C636.52,-103.67 638.83,-94.24 640.89,-85.78"/>
<polygon fill="#63b8ff" stroke="#63b8ff" points="644.23,-86.87 643.2,-76.33 637.43,-85.21 644.23,-86.87"/>
</a>
</g>
</g>
<!-- Node14 -->
<g id="Node000014" class="node">
<title>Node14</title>
<g id="a_Node000014"><a xlink:title=" ">
<polygon fill="#e0e0e0" stroke="#999999" points="734.38,-74.5 689.12,-74.5 689.12,-55.25 734.38,-55.25 734.38,-74.5"/>
<text text-anchor="middle" x="711.75" y="-61" font-family="Helvetica,sans-Serif" font-size="10.00">variant</text>
</a>
</g>
</g>
<!-- Node5&#45;&gt;Node14 -->
<g id="edge13_Node000005_Node000014" class="edge">
<title>Node5&#45;&gt;Node14</title>
<g id="a_edge13_Node000005_Node000014"><a xlink:title=" ">
<path fill="none" stroke="#63b8ff" d="M646.15,-110.09C657.84,-102.21 675.05,-90.61 688.91,-81.27"/>
<polygon fill="#63b8ff" stroke="#63b8ff" points="690.69,-84.29 697.03,-75.8 686.78,-78.49 690.69,-84.29"/>
</a>
</g>
</g>
<!-- Node15&#45;&gt;Node7 -->
<g id="edge16_Node000015_Node000007" class="edge">
<title>Node15&#45;&gt;Node7</title>
<g id="a_edge16_Node000015_Node000007"><a xlink:title=" ">
<path fill="none" stroke="#63b8ff" d="M171.01,-54.78C233.21,-43.96 335.42,-26.17 389.17,-16.82"/>
<polygon fill="#63b8ff" stroke="#63b8ff" points="389.75,-20.27 399,-15.11 388.55,-13.37 389.75,-20.27"/>
</a>
</g>
</g>
<!-- Node16 -->
<g id="Node000016" class="node">
<title>Node16</title>
<g id="a_Node000016"><a xlink:title=" ">
<polygon fill="#e0e0e0" stroke="#999999" points="267.5,-19.25 166,-19.25 166,0 267.5,0 267.5,-19.25"/>
<text text-anchor="middle" x="216.75" y="-5.75" font-family="Helvetica,sans-Serif" font-size="10.00">crab/static_vector.h</text>
</a>
</g>
</g>
<!-- Node15&#45;&gt;Node16 -->
<g id="edge15_Node000015_Node000016" class="edge">
<title>Node15&#45;&gt;Node16</title>
<g id="a_edge15_Node000015_Node000016"><a xlink:title=" ">
<path fill="none" stroke="#63b8ff" d="M135.37,-54.84C150.44,-46.66 172.89,-34.46 190.4,-24.94"/>
<polygon fill="#63b8ff" stroke="#63b8ff" points="191.6,-28.27 198.71,-20.43 188.26,-22.12 191.6,-28.27"/>
</a>
</g>
</g>
<!-- Node17 -->
<g id="Node000017" class="node">
<title>Node17</title>
<g id="a_Node000017"><a xlink:title=" ">
<polygon fill="#e0e0e0" stroke="#999999" points="71.5,-19.25 0,-19.25 0,0 71.5,0 71.5,-19.25"/>
<text text-anchor="middle" x="35.75" y="-5.75" font-family="Helvetica,sans-Serif" font-size="10.00">initializer_list</text>
</a>
</g>
</g>
<!-- Node15&#45;&gt;Node17 -->
<g id="edge17_Node000015_Node000017" class="edge">
<title>Node15&#45;&gt;Node17</title>
<g id="a_edge17_Node000015_Node000017"><a xlink:title=" ">
<path fill="none" stroke="#63b8ff" d="M104.67,-54.84C92.27,-46.89 73.96,-35.14 59.32,-25.75"/>
<polygon fill="#63b8ff" stroke="#63b8ff" points="61.48,-22.97 51.17,-20.52 57.7,-28.87 61.48,-22.97"/>
</a>
</g>
</g>
<!-- Node18 -->
<g id="Node000018" class="node">
<title>Node18</title>
<g id="a_Node000018"><a xlink:title=" ">
<polygon fill="#e0e0e0" stroke="#999999" points="147.75,-19.25 89.75,-19.25 89.75,0 147.75,0 147.75,-19.25"/>
<text text-anchor="middle" x="118.75" y="-5.75" font-family="Helvetica,sans-Serif" font-size="10.00">stdexcept</text>
</a>
</g>
</g>
<!-- Node15&#45;&gt;Node18 -->
<g id="edge18_Node000015_Node000018" class="edge">
<title>Node15&#45;&gt;Node18</title>
<g id="a_edge18_Node000015_Node000018"><a xlink:title=" ">
<path fill="none" stroke="#63b8ff" d="M118.75,-55.08C118.75,-48.57 118.75,-39.42 118.75,-31.12"/>
<polygon fill="#63b8ff" stroke="#63b8ff" points="122.25,-31.12 118.75,-21.12 115.25,-31.12 122.25,-31.12"/>
</a>
</g>
</g>
<!-- Node19&#45;&gt;Node7 -->
<g id="edge21_Node000019_Node000007" class="edge">
<title>Node19&#45;&gt;Node7</title>
<g id="a_edge21_Node000019_Node000007"><a xlink:title=" ">
<path fill="none" stroke="#63b8ff" d="M236.96,-110.09C223.91,-96.96 203.98,-72.31 217.75,-55.25 238.9,-29.06 335.74,-17.5 389.14,-13.05"/>
<polygon fill="#63b8ff" stroke="#63b8ff" points="389.26,-16.55 398.95,-12.27 388.7,-9.57 389.26,-16.55"/>
</a>
</g>
</g>
<!-- Node19&#45;&gt;Node15 -->
<g id="edge20_Node000019_Node000015" class="edge">
<title>Node19&#45;&gt;Node15</title>
<g id="a_edge20_Node000019_Node000015"><a xlink:title=" ">
<path fill="none" stroke="#63b8ff" d="M225.04,-110.09C204.72,-101.64 174.1,-88.9 150.94,-79.27"/>
<polygon fill="#63b8ff" stroke="#63b8ff" points="152.54,-76.14 141.97,-75.53 149.86,-82.61 152.54,-76.14"/>
</a>
</g>
</g>
<!-- Node20 -->
<g id="Node000020" class="node">
<title>Node20</title>
<g id="a_Node000020"><a xlink:title=" ">
<polygon fill="#e0e0e0" stroke="#999999" points="288.25,-74.5 227.25,-74.5 227.25,-55.25 288.25,-55.25 288.25,-74.5"/>
<text text-anchor="middle" x="257.75" y="-61" font-family="Helvetica,sans-Serif" font-size="10.00">type_traits</text>
</a>
</g>
</g>
<!-- Node19&#45;&gt;Node20 -->
<g id="edge22_Node000019_Node000020" class="edge">
<title>Node19&#45;&gt;Node20</title>
<g id="a_edge22_Node000019_Node000020"><a xlink:title=" ">
<path fill="none" stroke="#63b8ff" d="M248.57,-110.33C249.93,-103.74 251.85,-94.46 253.58,-86.07"/>
<polygon fill="#63b8ff" stroke="#63b8ff" points="256.99,-86.84 255.59,-76.34 250.14,-85.43 256.99,-86.84"/>
</a>
</g>
</g>
<!-- Node19&#45;&gt;Node21 -->
<g id="edge23_Node000019_Node000021" class="edge">
<title>Node19&#45;&gt;Node21</title>
<g id="a_edge23_Node000019_Node000021"><a xlink:title=" ">
<path fill="none" stroke="#63b8ff" d="M260.49,-110.09C272.48,-102.21 290.12,-90.61 304.33,-81.27"/>
<polygon fill="#63b8ff" stroke="#63b8ff" points="306.24,-84.2 312.68,-75.78 302.4,-78.35 306.24,-84.2"/>
</a>
</g>
</g>
<!-- Node24&#45;&gt;Node7 -->
<g id="edge36_Node000024_Node000007" class="edge">
<title>Node24&#45;&gt;Node7</title>
<g id="a_edge36_Node000024_Node000007"><a xlink:title=" ">
<path fill="none" stroke="#63b8ff" d="M1100.37,-221.82C1141.43,-213.57 1185.6,-197.2 1167.75,-165.75 1120.48,-82.46 1073.98,-84.39 982.75,-55.25 884.92,-24.01 568.28,-13.94 460.82,-11.37"/>
<polygon fill="#63b8ff" stroke="#63b8ff" points="460.94,-7.87 450.86,-11.14 460.78,-14.87 460.94,-7.87"/>
</a>
</g>
</g>
<!-- Node24&#45;&gt;Node8 -->
<g id="edge37_Node000024_Node000008" class="edge">
<title>Node24&#45;&gt;Node8</title>
<g id="a_edge37_Node000024_Node000008"><a xlink:title=" ">
<path fill="none" stroke="#63b8ff" d="M1032.01,-220.62C1023.96,-211.99 1012.03,-198.34 1003.75,-185 983.33,-152.09 966.53,-109.96 957.63,-85.64"/>
<polygon fill="#63b8ff" stroke="#63b8ff" points="960.99,-84.63 954.33,-76.39 954.4,-86.98 960.99,-84.63"/>
</a>
</g>
</g>
<!-- Node24&#45;&gt;Node21 -->
<g id="edge39_Node000024_Node000021" class="edge">
<title>Node24&#45;&gt;Node21</title>
<g id="a_edge39_Node000024_Node000021"><a xlink:title=" ">
<path fill="none" stroke="#63b8ff" d="M993.36,-220.56C907.69,-203.97 721.47,-166.99 565.75,-129.75 492.07,-112.13 406.44,-88.32 360.65,-75.32"/>
<polygon fill="#63b8ff" stroke="#63b8ff" points="361.66,-71.97 351.09,-72.59 359.75,-78.7 361.66,-71.97"/>
</a>
</g>
</g>
<!-- Node25 -->
<g id="Node000025" class="node">
<title>Node25</title>
<g id="a_Node000025"><a xlink:title=" ">
<polygon fill="#e0e0e0" stroke="#999999" points="1068.62,-185 1012.88,-185 1012.88,-165.75 1068.62,-165.75 1068.62,-185"/>
<text text-anchor="middle" x="1040.75" y="-171.5" font-family="Helvetica,sans-Serif" font-size="10.00">algorithm</text>
</a>
</g>
</g>
<!-- Node24&#45;&gt;Node25 -->
<g id="edge34_Node000024_Node000025" class="edge">
<title>Node24&#45;&gt;Node25</title>
<g id="a_edge34_Node000024_Node000025"><a xlink:title=" ">
<path fill="none" stroke="#63b8ff" d="M1040.75,-220.83C1040.75,-214.32 1040.75,-205.17 1040.75,-196.87"/>
<polygon fill="#63b8ff" stroke="#63b8ff" points="1044.25,-196.87 1040.75,-186.87 1037.25,-196.87 1044.25,-196.87"/>
</a>
</g>
</g>
<!-- Node24&#45;&gt;Node26 -->
<g id="edge35_Node000024_Node000026" class="edge">
<title>Node24&#45;&gt;Node26</title>
<g id="a_edge35_Node000024_Node000026"><a xlink:title=" ">
<path fill="none" stroke="#63b8ff" d="M1074.17,-220.59C1110.22,-210.85 1167.34,-195.41 1203.66,-185.59"/>
<polygon fill="#63b8ff" stroke="#63b8ff" points="1204.46,-189 1213.2,-183.01 1202.64,-182.24 1204.46,-189"/>
</a>
</g>
</g>
<!-- Node24&#45;&gt;Node27 -->
<g id="edge38_Node000024_Node000027" class="edge">
<title>Node24&#45;&gt;Node27</title>
<g id="a_edge38_Node000024_Node000027"><a xlink:title=" ">
<path fill="none" stroke="#63b8ff" d="M1094.25,-220.57C1138.29,-212.8 1202.58,-200.77 1267,-185.5"/>
<polygon fill="#63b8ff" stroke="#63b8ff" points="1267.8,-188.91 1276.71,-183.17 1266.17,-182.1 1267.8,-188.91"/>
</a>
</g>
</g>
<!-- Node28 -->
<g id="Node000028" class="node">
<title>Node28</title>
<g id="a_Node000028"><a xlink:title=" ">
<polygon fill="#e0e0e0" stroke="#999999" points="1158.5,-185 1087,-185 1087,-165.75 1158.5,-165.75 1158.5,-185"/>
<text text-anchor="middle" x="1122.75" y="-171.5" font-family="Helvetica,sans-Serif" font-size="10.00">crab/option.h</text>
</a>
</g>
</g>
<!-- Node24&#45;&gt;Node28 -->
<g id="edge40_Node000024_Node000028" class="edge">
<title>Node24&#45;&gt;Node28</title>
<g id="a_edge40_Node000024_Node000028"><a xlink:title=" ">
<path fill="none" stroke="#63b8ff" d="M1054.66,-220.59C1066.91,-212.64 1085,-200.89 1099.46,-191.5"/>
<polygon fill="#63b8ff" stroke="#63b8ff" points="1101.02,-194.66 1107.5,-186.28 1097.21,-188.79 1101.02,-194.66"/>
</a>
</g>
</g>
</g>
</svg>
