<?xml version="1.0" encoding="UTF-8" standalone="no"?>
<!DOCTYPE svg PUBLIC "-//W3C//DTD SVG 1.1//EN"
 "http://www.w3.org/Graphics/SVG/1.1/DTD/svg11.dtd">
<!-- Generated by graphviz version 12.2.0 (20241103.1931)
 -->
<!-- Title: bcnp/transport/controller_driver.h Pages: 1 -->
<svg width="1136pt" height="370pt"
 viewBox="0.00 0.00 1135.50 370.00" xmlns="http://www.w3.org/2000/svg" xmlns:xlink="http://www.w3.org/1999/xlink">
<g id="graph0" class="graph" transform="scale(1 1) rotate(0) translate(4 366)">
<title>bcnp/transport/controller_driver.h</title>
<!-- Node1 -->
<g id="Node000001" class="node">
<title>Node1</title>
<g id="a_Node000001"><a xlink:title=" ">
<polygon fill="#999999" stroke="#666666" points="168,-362 47,-362 47,-331.5 168,-331.5 168,-362"/>
<text text-anchor="start" x="55" y="-348.5" font-family="Helvetica,sans-Serif" font-size="10.00">bcnp/transport/controller</text>
<text text-anchor="middle" x="107.5" y="-337.25" font-family="Helvetica,sans-Serif" font-size="10.00">_driver.h</text>
</a>
</g>
</g>
<!-- Node2 -->
<g id="Node000002" class="node">
<title>Node2</title>
<g id="a_Node000002"><a xlink:href="dispatcher_8h.html" target="_top" xlink:title=" ">
<polygon fill="white" stroke="#666666" points="542.75,-295.5 450.25,-295.5 450.25,-276.25 542.75,-276.25 542.75,-295.5"/>
<text text-anchor="middle" x="496.5" y="-282" font-family="Helvetica,sans-Serif" font-size="10.00">bcnp/dispatcher.h</text>
</a>
</g>
</g>
<!-- Node1&#45;&gt;Node2 -->
<g id="edge1_Node000001_Node000002" class="edge">
<title>Node1&#45;&gt;Node2</title>
<g id="a_edge1_Node000001_Node000002"><a xlink:title=" ">
<path fill="none" stroke="#63b8ff" d="M168.28,-336.55C242.21,-325.36 366.11,-306.61 438.68,-295.63"/>
<polygon fill="#63b8ff" stroke="#63b8ff" points="439.01,-299.12 448.37,-294.16 437.96,-292.2 439.01,-299.12"/>
</a>
</g>
</g>
<!-- Node21 -->
<g id="Node000021" class="node">
<title>Node21</title>
<g id="a_Node000021"><a xlink:title=" ">
<polygon fill="#e0e0e0" stroke="#999999" points="291,-74.5 248,-74.5 248,-55.25 291,-55.25 291,-74.5"/>
<text text-anchor="middle" x="269.5" y="-61" font-family="Helvetica,sans-Serif" font-size="10.00">vector</text>
</a>
</g>
</g>
<!-- Node1&#45;&gt;Node21 -->
<g id="edge50_Node000001_Node000021" class="edge">
<title>Node1&#45;&gt;Node21</title>
<g id="a_edge50_Node000001_Node000021"><a xlink:title=" ">
<path fill="none" stroke="#63b8ff" d="M105.24,-331.45C100.93,-299.29 94.56,-219.87 126.5,-165.75 151.78,-122.92 203.47,-93.94 237.29,-78.67"/>
<polygon fill="#63b8ff" stroke="#63b8ff" points="238.42,-81.99 246.2,-74.79 235.63,-75.57 238.42,-81.99"/>
</a>
</g>
</g>
<!-- Node30 -->
<g id="Node000030" class="node">
<title>Node30</title>
<g id="a_Node000030"><a xlink:href="adapter_8h.html" target="_top" xlink:title=" ">
<polygon fill="white" stroke="#666666" points="121,-129.75 0,-129.75 0,-110.5 121,-110.5 121,-129.75"/>
<text text-anchor="middle" x="60.5" y="-116.25" font-family="Helvetica,sans-Serif" font-size="10.00">bcnp/transport/adapter.h</text>
</a>
</g>
</g>
<!-- Node1&#45;&gt;Node30 -->
<g id="edge47_Node000001_Node000030" class="edge">
<title>Node1&#45;&gt;Node30</title>
<g id="a_edge47_Node000001_Node000030"><a xlink:title=" ">
<path fill="none" stroke="#63b8ff" d="M103.13,-331.32C100.19,-321.32 96.34,-307.67 93.5,-295.5 80.51,-239.88 69.03,-173.37 63.68,-140.91"/>
<polygon fill="#63b8ff" stroke="#63b8ff" points="67.19,-140.69 62.13,-131.38 60.28,-141.82 67.19,-140.69"/>
</a>
</g>
</g>
<!-- Node3 -->
<g id="Node000003" class="node">
<title>Node3</title>
<g id="a_Node000003"><a xlink:href="stream__parser_8h.html" target="_top" xlink:title=" ">
<polygon fill="white" stroke="#666666" points="810.38,-240.25 700.62,-240.25 700.62,-221 810.38,-221 810.38,-240.25"/>
<text text-anchor="middle" x="755.5" y="-226.75" font-family="Helvetica,sans-Serif" font-size="10.00">bcnp/stream_parser.h</text>
</a>
</g>
</g>
<!-- Node2&#45;&gt;Node3 -->
<g id="edge2_Node000002_Node000003" class="edge">
<title>Node2&#45;&gt;Node3</title>
<g id="a_edge2_Node000002_Node000003"><a xlink:title=" ">
<path fill="none" stroke="#63b8ff" d="M540.73,-275.78C584.87,-266.71 652.8,-252.74 700.42,-242.95"/>
<polygon fill="#63b8ff" stroke="#63b8ff" points="700.88,-246.43 709.97,-240.99 699.47,-239.57 700.88,-246.43"/>
</a>
</g>
</g>
<!-- Node5 -->
<g id="Node000005" class="node">
<title>Node5</title>
<g id="a_Node000005"><a xlink:href="message__types_8h.html" target="_top" xlink:title=" ">
<polygon fill="white" stroke="#666666" points="937.38,-129.75 821.62,-129.75 821.62,-110.5 937.38,-110.5 937.38,-129.75"/>
<text text-anchor="middle" x="879.5" y="-116.25" font-family="Helvetica,sans-Serif" font-size="10.00">bcnp/message_types.h</text>
</a>
</g>
</g>
<!-- Node2&#45;&gt;Node5 -->
<g id="edge41_Node000002_Node000005" class="edge">
<title>Node2&#45;&gt;Node5</title>
<g id="a_edge41_Node000002_Node000005"><a xlink:title=" ">
<path fill="none" stroke="#63b8ff" d="M543.14,-282.4C620.78,-277.62 772.64,-265.32 819.5,-240.25 848.44,-224.77 854.28,-214.58 868.5,-185 875.08,-171.31 877.78,-154.29 878.86,-141.27"/>
<polygon fill="#63b8ff" stroke="#63b8ff" points="882.35,-141.53 879.4,-131.36 875.36,-141.15 882.35,-141.53"/>
</a>
</g>
</g>
<!-- Node8 -->
<g id="Node000008" class="node">
<title>Node8</title>
<g id="a_Node000008"><a xlink:title=" ">
<polygon fill="#e0e0e0" stroke="#999999" points="646.12,-74.5 600.88,-74.5 600.88,-55.25 646.12,-55.25 646.12,-74.5"/>
<text text-anchor="middle" x="623.5" y="-61" font-family="Helvetica,sans-Serif" font-size="10.00">cstdint</text>
</a>
</g>
</g>
<!-- Node2&#45;&gt;Node8 -->
<g id="edge43_Node000002_Node000008" class="edge">
<title>Node2&#45;&gt;Node8</title>
<g id="a_edge43_Node000002_Node000008"><a xlink:title=" ">
<path fill="none" stroke="#63b8ff" d="M499.4,-275.94C509.73,-244.42 545.24,-138.8 566.5,-110.5 575.11,-99.04 587.37,-88.93 598.31,-81.24"/>
<polygon fill="#63b8ff" stroke="#63b8ff" points="600.2,-84.19 606.58,-75.74 596.32,-78.36 600.2,-84.19"/>
</a>
</g>
</g>
<!-- Node11 -->
<g id="Node000011" class="node">
<title>Node11</title>
<g id="a_Node000011"><a xlink:title=" ">
<polygon fill="#e0e0e0" stroke="#999999" points="1127.5,-74.5 1069.5,-74.5 1069.5,-55.25 1127.5,-55.25 1127.5,-74.5"/>
<text text-anchor="middle" x="1098.5" y="-61" font-family="Helvetica,sans-Serif" font-size="10.00">functional</text>
</a>
</g>
</g>
<!-- Node2&#45;&gt;Node11 -->
<g id="edge44_Node000002_Node000011" class="edge">
<title>Node2&#45;&gt;Node11</title>
<g id="a_edge44_Node000002_Node000011"><a xlink:title=" ">
<path fill="none" stroke="#63b8ff" d="M543.13,-285.6C611.76,-285.21 743.05,-278.84 846.5,-240.25 945.72,-203.24 1042.99,-118.37 1081.36,-82.43"/>
<polygon fill="#63b8ff" stroke="#63b8ff" points="1083.48,-85.25 1088.33,-75.83 1078.66,-80.17 1083.48,-85.25"/>
</a>
</g>
</g>
<!-- Node24 -->
<g id="Node000024" class="node">
<title>Node24</title>
<g id="a_Node000024"><a xlink:href="message__queue_8h.html" target="_top" xlink:title="Timed message queue for executing duration&#45;based commands.">
<polygon fill="white" stroke="#666666" points="466.88,-240.25 348.12,-240.25 348.12,-221 466.88,-221 466.88,-240.25"/>
<text text-anchor="middle" x="407.5" y="-226.75" font-family="Helvetica,sans-Serif" font-size="10.00">bcnp/message_queue.h</text>
</a>
</g>
</g>
<!-- Node2&#45;&gt;Node24 -->
<g id="edge33_Node000002_Node000024" class="edge">
<title>Node2&#45;&gt;Node24</title>
<g id="a_edge33_Node000002_Node000024"><a xlink:title=" ">
<path fill="none" stroke="#63b8ff" d="M481.4,-275.84C467.98,-267.81 448.09,-255.91 432.33,-246.48"/>
<polygon fill="#63b8ff" stroke="#63b8ff" points="434.35,-243.61 423.97,-241.48 430.75,-249.62 434.35,-243.61"/>
</a>
</g>
</g>
<!-- Node26 -->
<g id="Node000026" class="node">
<title>Node26</title>
<g id="a_Node000026"><a xlink:title=" ">
<polygon fill="#e0e0e0" stroke="#999999" points="519.12,-185 473.88,-185 473.88,-165.75 519.12,-165.75 519.12,-185"/>
<text text-anchor="middle" x="496.5" y="-171.5" font-family="Helvetica,sans-Serif" font-size="10.00">chrono</text>
</a>
</g>
</g>
<!-- Node2&#45;&gt;Node26 -->
<g id="edge42_Node000002_Node000026" class="edge">
<title>Node2&#45;&gt;Node26</title>
<g id="a_edge42_Node000002_Node000026"><a xlink:title=" ">
<path fill="none" stroke="#63b8ff" d="M496.5,-276C496.5,-258.75 496.5,-220.33 496.5,-196.56"/>
<polygon fill="#63b8ff" stroke="#63b8ff" points="500,-196.89 496.5,-186.89 493,-196.89 500,-196.89"/>
</a>
</g>
</g>
<!-- Node27 -->
<g id="Node000027" class="node">
<title>Node27</title>
<g id="a_Node000027"><a xlink:title=" ">
<polygon fill="#e0e0e0" stroke="#999999" points="177.62,-185 135.38,-185 135.38,-165.75 177.62,-165.75 177.62,-185"/>
<text text-anchor="middle" x="156.5" y="-171.5" font-family="Helvetica,sans-Serif" font-size="10.00">mutex</text>
</a>
</g>
</g>
<!-- Node2&#45;&gt;Node27 -->
<g id="edge45_Node000002_Node000027" class="edge">
<title>Node2&#45;&gt;Node27</title>
<g id="a_edge45_Node000002_Node000027"><a xlink:title=" ">
<path fill="none" stroke="#63b8ff" d="M449.8,-283.58C396.56,-280.6 307.92,-270.96 238.5,-240.25 212.84,-228.9 188.1,-207.77 172.63,-192.93"/>
<polygon fill="#63b8ff" stroke="#63b8ff" points="175.3,-190.65 165.73,-186.11 170.38,-195.63 175.3,-190.65"/>
</a>
</g>
</g>
<!-- Node29 -->
<g id="Node000029" class="node">
<title>Node29</title>
<g id="a_Node000029"><a xlink:title=" ">
<polygon fill="#e0e0e0" stroke="#999999" points="329.88,-240.25 247.12,-240.25 247.12,-221 329.88,-221 329.88,-240.25"/>
<text text-anchor="middle" x="288.5" y="-226.75" font-family="Helvetica,sans-Serif" font-size="10.00">unordered_map</text>
</a>
</g>
</g>
<!-- Node2&#45;&gt;Node29 -->
<g id="edge46_Node000002_Node000029" class="edge">
<title>Node2&#45;&gt;Node29</title>
<g id="a_edge46_Node000002_Node000029"><a xlink:title=" ">
<path fill="none" stroke="#63b8ff" d="M461.22,-275.84C426.4,-266.93 373,-253.26 334.79,-243.48"/>
<polygon fill="#63b8ff" stroke="#63b8ff" points="335.98,-240.17 325.42,-241.08 334.24,-246.95 335.98,-240.17"/>
</a>
</g>
</g>
<!-- Node4 -->
<g id="Node000004" class="node">
<title>Node4</title>
<g id="a_Node000004"><a xlink:href="packet_8h.html" target="_top" xlink:title="BCNP packet structures, encoding, and decoding utilities.">
<polygon fill="white" stroke="#666666" points="703.88,-185 627.12,-185 627.12,-165.75 703.88,-165.75 703.88,-185"/>
<text text-anchor="middle" x="665.5" y="-171.5" font-family="Helvetica,sans-Serif" font-size="10.00">bcnp/packet.h</text>
</a>
</g>
</g>
<!-- Node3&#45;&gt;Node4 -->
<g id="edge3_Node000003_Node000004" class="edge">
<title>Node3&#45;&gt;Node4</title>
<g id="a_edge3_Node000003_Node000004"><a xlink:title=" ">
<path fill="none" stroke="#63b8ff" d="M740.23,-220.59C726.66,-212.56 706.55,-200.66 690.6,-191.23"/>
<polygon fill="#63b8ff" stroke="#63b8ff" points="692.53,-188.3 682.14,-186.22 688.97,-194.33 692.53,-188.3"/>
</a>
</g>
</g>
<!-- Node6 -->
<g id="Node000006" class="node">
<title>Node6</title>
<g id="a_Node000006"><a xlink:title=" ">
<polygon fill="#e0e0e0" stroke="#999999" points="701,-74.5 664,-74.5 664,-55.25 701,-55.25 701,-74.5"/>
<text text-anchor="middle" x="682.5" y="-61" font-family="Helvetica,sans-Serif" font-size="10.00">array</text>
</a>
</g>
</g>
<!-- Node3&#45;&gt;Node6 -->
<g id="edge28_Node000003_Node000006" class="edge">
<title>Node3&#45;&gt;Node6</title>
<g id="a_edge28_Node000003_Node000006"><a xlink:title=" ">
<path fill="none" stroke="#63b8ff" d="M760.03,-220.75C770.04,-199.81 791.43,-146.4 769.5,-110.5 762.88,-99.67 734.31,-86.27 711.69,-76.99"/>
<polygon fill="#63b8ff" stroke="#63b8ff" points="713.18,-73.82 702.6,-73.36 710.59,-80.32 713.18,-73.82"/>
</a>
</g>
</g>
<!-- Node7 -->
<g id="Node000007" class="node">
<title>Node7</title>
<g id="a_Node000007"><a xlink:title=" ">
<polygon fill="#e0e0e0" stroke="#999999" points="356.62,-19.25 308.38,-19.25 308.38,0 356.62,0 356.62,-19.25"/>
<text text-anchor="middle" x="332.5" y="-5.75" font-family="Helvetica,sans-Serif" font-size="10.00">cstddef</text>
</a>
</g>
</g>
<!-- Node3&#45;&gt;Node7 -->
<g id="edge29_Node000003_Node000007" class="edge">
<title>Node3&#45;&gt;Node7</title>
<g id="a_edge29_Node000003_Node000007"><a xlink:title=" ">
<path fill="none" stroke="#63b8ff" d="M727.46,-220.56C684.86,-207.06 601.1,-181.56 528.5,-165.75 426.97,-143.64 390.9,-175.28 297.5,-129.75 259.53,-111.24 215.93,-90.95 238.5,-55.25 251.29,-35.02 276.01,-23.78 296.89,-17.64"/>
<polygon fill="#63b8ff" stroke="#63b8ff" points="297.75,-21.03 306.54,-15.11 295.97,-14.26 297.75,-21.03"/>
</a>
</g>
</g>
<!-- Node3&#45;&gt;Node8 -->
<g id="edge30_Node000003_Node000008" class="edge">
<title>Node3&#45;&gt;Node8</title>
<g id="a_edge30_Node000003_Node000008"><a xlink:title=" ">
<path fill="none" stroke="#63b8ff" d="M754.26,-220.73C750.86,-199.29 739.52,-144.03 709.5,-110.5 695.53,-94.9 674.82,-83.93 657.22,-76.76"/>
<polygon fill="#63b8ff" stroke="#63b8ff" points="658.49,-73.5 647.9,-73.23 656.01,-80.04 658.49,-73.5"/>
</a>
</g>
</g>
<!-- Node3&#45;&gt;Node11 -->
<g id="edge31_Node000003_Node000011" class="edge">
<title>Node3&#45;&gt;Node11</title>
<g id="a_edge31_Node000003_Node000011"><a xlink:title=" ">
<path fill="none" stroke="#63b8ff" d="M780.49,-220.59C803.59,-212.04 838.74,-198.54 868.5,-185 943.99,-150.65 1030.1,-103.96 1072.33,-80.54"/>
<polygon fill="#63b8ff" stroke="#63b8ff" points="1073.97,-83.64 1081.01,-75.72 1070.57,-77.52 1073.97,-83.64"/>
</a>
</g>
</g>
<!-- Node23 -->
<g id="Node000023" class="node">
<title>Node23</title>
<g id="a_Node000023"><a xlink:title=" ">
<polygon fill="#e0e0e0" stroke="#999999" points="859.75,-185 821.25,-185 821.25,-165.75 859.75,-165.75 859.75,-185"/>
<text text-anchor="middle" x="840.5" y="-171.5" font-family="Helvetica,sans-Serif" font-size="10.00">utility</text>
</a>
</g>
</g>
<!-- Node3&#45;&gt;Node23 -->
<g id="edge32_Node000003_Node000023" class="edge">
<title>Node3&#45;&gt;Node23</title>
<g id="a_edge32_Node000003_Node000023"><a xlink:title=" ">
<path fill="none" stroke="#63b8ff" d="M769.92,-220.59C782.62,-212.64 801.37,-200.89 816.36,-191.5"/>
<polygon fill="#63b8ff" stroke="#63b8ff" points="818.11,-194.53 824.73,-186.26 814.4,-188.6 818.11,-194.53"/>
</a>
</g>
</g>
<!-- Node4&#45;&gt;Node5 -->
<g id="edge4_Node000004_Node000005" class="edge">
<title>Node4&#45;&gt;Node5</title>
<g id="a_edge4_Node000004_Node000005"><a xlink:title=" ">
<path fill="none" stroke="#63b8ff" d="M701.8,-165.34C737.62,-156.43 792.56,-142.76 831.87,-132.98"/>
<polygon fill="#63b8ff" stroke="#63b8ff" points="832.69,-136.38 841.55,-130.57 831,-129.59 832.69,-136.38"/>
</a>
</g>
</g>
<!-- Node4&#45;&gt;Node7 -->
<g id="edge25_Node000004_Node000007" class="edge">
<title>Node4&#45;&gt;Node7</title>
<g id="a_edge25_Node000004_Node000007"><a xlink:title=" ">
<path fill="none" stroke="#63b8ff" d="M626.73,-169.32C545.27,-158.63 363.39,-134.31 358.5,-129.75 331.35,-104.45 329.19,-57.94 330.53,-31.13"/>
<polygon fill="#63b8ff" stroke="#63b8ff" points="334.01,-31.47 331.26,-21.24 327.03,-30.95 334.01,-31.47"/>
</a>
</g>
</g>
<!-- Node4&#45;&gt;Node8 -->
<g id="edge26_Node000004_Node000008" class="edge">
<title>Node4&#45;&gt;Node8</title>
<g id="a_edge26_Node000004_Node000008"><a xlink:title=" ">
<path fill="none" stroke="#63b8ff" d="M674.6,-165.46C686.28,-152.9 703.86,-129.4 693.5,-110.5 685.6,-96.1 670.87,-85.68 656.94,-78.55"/>
<polygon fill="#63b8ff" stroke="#63b8ff" points="658.5,-75.41 647.96,-74.36 655.54,-81.75 658.5,-75.41"/>
</a>
</g>
</g>
<!-- Node15 -->
<g id="Node000015" class="node">
<title>Node15</title>
<g id="a_Node000015"><a xlink:href="static__vector_8h.html" target="_top" xlink:title="Fixed&#45;capacity vector with stack allocation (no heap).">
<polygon fill="white" stroke="#666666" points="582.38,-74.5 478.62,-74.5 478.62,-55.25 582.38,-55.25 582.38,-74.5"/>
<text text-anchor="middle" x="530.5" y="-61" font-family="Helvetica,sans-Serif" font-size="10.00">bcnp/static_vector.h</text>
</a>
</g>
</g>
<!-- Node4&#45;&gt;Node15 -->
<g id="edge14_Node000004_Node000015" class="edge">
<title>Node4&#45;&gt;Node15</title>
<g id="a_edge14_Node000004_Node000015"><a xlink:title=" ">
<path fill="none" stroke="#63b8ff" d="M667.6,-165.46C670.19,-152.04 672.9,-126.5 660.5,-110.5 650.6,-97.72 614.75,-85.96 583.2,-77.73"/>
<polygon fill="#63b8ff" stroke="#63b8ff" points="584.29,-74.4 573.73,-75.34 582.57,-81.18 584.29,-74.4"/>
</a>
</g>
</g>
<!-- Node19 -->
<g id="Node000019" class="node">
<title>Node19</title>
<g id="a_Node000019"><a xlink:href="packet__storage_8h.html" target="_top" xlink:title=" ">
<polygon fill="white" stroke="#666666" points="481.62,-129.75 367.38,-129.75 367.38,-110.5 481.62,-110.5 481.62,-129.75"/>
<text text-anchor="middle" x="424.5" y="-116.25" font-family="Helvetica,sans-Serif" font-size="10.00">bcnp/packet_storage.h</text>
</a>
</g>
</g>
<!-- Node4&#45;&gt;Node19 -->
<g id="edge19_Node000004_Node000019" class="edge">
<title>Node4&#45;&gt;Node19</title>
<g id="a_edge19_Node000004_Node000019"><a xlink:title=" ">
<path fill="none" stroke="#63b8ff" d="M626.78,-165.82C586.06,-156.82 521.74,-142.61 476.58,-132.63"/>
<polygon fill="#63b8ff" stroke="#63b8ff" points="477.54,-129.26 467.02,-130.52 476.03,-136.1 477.54,-129.26"/>
</a>
</g>
</g>
<!-- Node4&#45;&gt;Node21 -->
<g id="edge27_Node000004_Node000021" class="edge">
<title>Node4&#45;&gt;Node21</title>
<g id="a_edge27_Node000004_Node000021"><a xlink:title=" ">
<path fill="none" stroke="#63b8ff" d="M626.88,-169.33C537.89,-157.7 325.91,-129.97 325.5,-129.75 306.03,-119.35 290.19,-99.27 280.38,-84.4"/>
<polygon fill="#63b8ff" stroke="#63b8ff" points="283.4,-82.62 275.14,-75.98 277.45,-86.32 283.4,-82.62"/>
</a>
</g>
</g>
<!-- Node22 -->
<g id="Node000022" class="node">
<title>Node22</title>
<g id="a_Node000022"><a xlink:title=" ">
<polygon fill="#e0e0e0" stroke="#999999" points="651.88,-129.75 575.12,-129.75 575.12,-110.5 651.88,-110.5 651.88,-129.75"/>
<text text-anchor="middle" x="613.5" y="-116.25" font-family="Helvetica,sans-Serif" font-size="10.00">crab/prelude.h</text>
</a>
</g>
</g>
<!-- Node4&#45;&gt;Node22 -->
<g id="edge24_Node000004_Node000022" class="edge">
<title>Node4&#45;&gt;Node22</title>
<g id="a_edge24_Node000004_Node000022"><a xlink:title=" ">
<path fill="none" stroke="#63b8ff" d="M656.91,-165.58C649.66,-158.15 639.05,-147.29 630.13,-138.16"/>
<polygon fill="#63b8ff" stroke="#63b8ff" points="632.82,-135.9 623.33,-131.19 627.81,-140.79 632.82,-135.9"/>
</a>
</g>
</g>
<!-- Node5&#45;&gt;Node6 -->
<g id="edge5_Node000005_Node000006" class="edge">
<title>Node5&#45;&gt;Node6</title>
<g id="a_edge5_Node000005_Node000006"><a xlink:title=" ">
<path fill="none" stroke="#63b8ff" d="M842.54,-110.02C810.36,-101.96 762.21,-89.59 712.34,-75.23"/>
<polygon fill="#63b8ff" stroke="#63b8ff" points="713.38,-71.88 702.8,-72.46 711.43,-78.6 713.38,-71.88"/>
</a>
</g>
</g>
<!-- Node5&#45;&gt;Node7 -->
<g id="edge6_Node000005_Node000007" class="edge">
<title>Node5&#45;&gt;Node7</title>
<g id="a_edge6_Node000005_Node000007"><a xlink:title=" ">
<path fill="none" stroke="#63b8ff" d="M937.83,-112.18C989.44,-103.82 1052.28,-86.78 1022.5,-55.25 974.51,-4.43 464.06,-26.07 394.5,-19.25 385.95,-18.41 376.77,-17.27 368.16,-16.09"/>
<polygon fill="#63b8ff" stroke="#63b8ff" points="368.78,-12.64 358.39,-14.7 367.79,-19.57 368.78,-12.64"/>
</a>
</g>
</g>
<!-- Node5&#45;&gt;Node8 -->
<g id="edge7_Node000005_Node000008" class="edge">
<title>Node5&#45;&gt;Node8</title>
<g id="a_edge7_Node000005_Node000008"><a xlink:title=" ">
<path fill="none" stroke="#63b8ff" d="M829.03,-110.06C785.98,-102.11 722.21,-89.81 657.72,-74.89"/>
<polygon fill="#63b8ff" stroke="#63b8ff" points="658.53,-71.49 648,-72.62 656.94,-78.3 658.53,-71.49"/>
</a>
</g>
</g>
<!-- Node9 -->
<g id="Node000009" class="node">
<title>Node9</title>
<g id="a_Node000009"><a xlink:title=" ">
<polygon fill="#e0e0e0" stroke="#999999" points="893,-74.5 850,-74.5 850,-55.25 893,-55.25 893,-74.5"/>
<text text-anchor="middle" x="871.5" y="-61" font-family="Helvetica,sans-Serif" font-size="10.00">cmath</text>
</a>
</g>
</g>
<!-- Node5&#45;&gt;Node9 -->
<g id="edge8_Node000005_Node000009" class="edge">
<title>Node5&#45;&gt;Node9</title>
<g id="a_edge8_Node000005_Node000009"><a xlink:title=" ">
<path fill="none" stroke="#63b8ff" d="M878.18,-110.33C877.19,-103.74 875.79,-94.46 874.53,-86.07"/>
<polygon fill="#63b8ff" stroke="#63b8ff" points="878.02,-85.72 873.07,-76.36 871.1,-86.76 878.02,-85.72"/>
</a>
</g>
</g>
<!-- Node10 -->
<g id="Node000010" class="node">
<title>Node10</title>
<g id="a_Node000010"><a xlink:title=" ">
<polygon fill="#e0e0e0" stroke="#999999" points="956.12,-74.5 910.88,-74.5 910.88,-55.25 956.12,-55.25 956.12,-74.5"/>
<text text-anchor="middle" x="933.5" y="-61" font-family="Helvetica,sans-Serif" font-size="10.00">cstring</text>
</a>
</g>
</g>
<!-- Node5&#45;&gt;Node10 -->
<g id="edge9_Node000005_Node000010" class="edge">
<title>Node5&#45;&gt;Node10</title>
<g id="a_edge9_Node000005_Node000010"><a xlink:title=" ">
<path fill="none" stroke="#63b8ff" d="M888.42,-110.33C895.95,-102.9 906.97,-92.04 916.23,-82.91"/>
<polygon fill="#63b8ff" stroke="#63b8ff" points="918.65,-85.44 923.31,-75.92 913.73,-80.45 918.65,-85.44"/>
</a>
</g>
</g>
<!-- Node5&#45;&gt;Node11 -->
<g id="edge10_Node000005_Node000011" class="edge">
<title>Node5&#45;&gt;Node11</title>
<g id="a_edge10_Node000005_Node000011"><a xlink:title=" ">
<path fill="none" stroke="#63b8ff" d="M916.65,-110.09C955.94,-100.54 1017.73,-85.51 1058.18,-75.68"/>
<polygon fill="#63b8ff" stroke="#63b8ff" points="1058.88,-79.11 1067.77,-73.35 1057.23,-72.31 1058.88,-79.11"/>
</a>
</g>
</g>
<!-- Node12 -->
<g id="Node000012" class="node">
<title>Node12</title>
<g id="a_Node000012"><a xlink:title=" ">
<polygon fill="#e0e0e0" stroke="#999999" points="1013.12,-74.5 973.88,-74.5 973.88,-55.25 1013.12,-55.25 1013.12,-74.5"/>
<text text-anchor="middle" x="993.5" y="-61" font-family="Helvetica,sans-Serif" font-size="10.00">limits</text>
</a>
</g>
</g>
<!-- Node5&#45;&gt;Node12 -->
<g id="edge11_Node000005_Node000012" class="edge">
<title>Node5&#45;&gt;Node12</title>
<g id="a_edge11_Node000005_Node000012"><a xlink:title=" ">
<path fill="none" stroke="#63b8ff" d="M898.84,-110.09C916.61,-101.79 943.22,-89.36 963.7,-79.79"/>
<polygon fill="#63b8ff" stroke="#63b8ff" points="965.12,-83 972.7,-75.59 962.15,-76.65 965.12,-83"/>
</a>
</g>
</g>
<!-- Node13 -->
<g id="Node000013" class="node">
<title>Node13</title>
<g id="a_Node000013"><a xlink:title=" ">
<polygon fill="#e0e0e0" stroke="#999999" points="768.38,-74.5 718.62,-74.5 718.62,-55.25 768.38,-55.25 768.38,-74.5"/>
<text text-anchor="middle" x="743.5" y="-61" font-family="Helvetica,sans-Serif" font-size="10.00">optional</text>
</a>
</g>
</g>
<!-- Node5&#45;&gt;Node13 -->
<g id="edge12_Node000005_Node000013" class="edge">
<title>Node5&#45;&gt;Node13</title>
<g id="a_edge12_Node000005_Node000013"><a xlink:title=" ">
<path fill="none" stroke="#63b8ff" d="M856.43,-110.09C834.74,-101.6 802.02,-88.79 777.37,-79.14"/>
<polygon fill="#63b8ff" stroke="#63b8ff" points="778.68,-75.89 768.09,-75.5 776.13,-82.41 778.68,-75.89"/>
</a>
</g>
</g>
<!-- Node14 -->
<g id="Node000014" class="node">
<title>Node14</title>
<g id="a_Node000014"><a xlink:title=" ">
<polygon fill="#e0e0e0" stroke="#999999" points="832.12,-74.5 786.88,-74.5 786.88,-55.25 832.12,-55.25 832.12,-74.5"/>
<text text-anchor="middle" x="809.5" y="-61" font-family="Helvetica,sans-Serif" font-size="10.00">variant</text>
</a>
</g>
</g>
<!-- Node5&#45;&gt;Node14 -->
<g id="edge13_Node000005_Node000014" class="edge">
<title>Node5&#45;&gt;Node14</title>
<g id="a_edge13_Node000005_Node000014"><a xlink:title=" ">
<path fill="none" stroke="#63b8ff" d="M867.63,-110.09C857.41,-102.32 842.43,-90.92 830.24,-81.65"/>
<polygon fill="#63b8ff" stroke="#63b8ff" points="832.48,-78.96 822.4,-75.69 828.24,-84.53 832.48,-78.96"/>
</a>
</g>
</g>
<!-- Node15&#45;&gt;Node7 -->
<g id="edge16_Node000015_Node000007" class="edge">
<title>Node15&#45;&gt;Node7</title>
<g id="a_edge16_Node000015_Node000007"><a xlink:title=" ">
<path fill="none" stroke="#63b8ff" d="M496.91,-54.84C461.07,-45.2 404.53,-30 367.98,-20.17"/>
<polygon fill="#63b8ff" stroke="#63b8ff" points="368.89,-16.79 358.33,-17.57 367.07,-23.55 368.89,-16.79"/>
</a>
</g>
</g>
<!-- Node16 -->
<g id="Node000016" class="node">
<title>Node16</title>
<g id="a_Node000016"><a xlink:title=" ">
<polygon fill="#e0e0e0" stroke="#999999" points="581.25,-19.25 479.75,-19.25 479.75,0 581.25,0 581.25,-19.25"/>
<text text-anchor="middle" x="530.5" y="-5.75" font-family="Helvetica,sans-Serif" font-size="10.00">crab/static_vector.h</text>
</a>
</g>
</g>
<!-- Node15&#45;&gt;Node16 -->
<g id="edge15_Node000015_Node000016" class="edge">
<title>Node15&#45;&gt;Node16</title>
<g id="a_edge15_Node000015_Node000016"><a xlink:title=" ">
<path fill="none" stroke="#63b8ff" d="M530.5,-55.08C530.5,-48.57 530.5,-39.42 530.5,-31.12"/>
<polygon fill="#63b8ff" stroke="#63b8ff" points="534,-31.12 530.5,-21.12 527,-31.12 534,-31.12"/>
</a>
</g>
</g>
<!-- Node17 -->
<g id="Node000017" class="node">
<title>Node17</title>
<g id="a_Node000017"><a xlink:title=" ">
<polygon fill="#e0e0e0" stroke="#999999" points="671.25,-19.25 599.75,-19.25 599.75,0 671.25,0 671.25,-19.25"/>
<text text-anchor="middle" x="635.5" y="-5.75" font-family="Helvetica,sans-Serif" font-size="10.00">initializer_list</text>
</a>
</g>
</g>
<!-- Node15&#45;&gt;Node17 -->
<g id="edge17_Node000015_Node000017" class="edge">
<title>Node15&#45;&gt;Node17</title>
<g id="a_edge17_Node000015_Node000017"><a xlink:title=" ">
<path fill="none" stroke="#63b8ff" d="M548.31,-54.84C564.53,-46.62 588.74,-34.34 607.53,-24.81"/>
<polygon fill="#63b8ff" stroke="#63b8ff" points="608.92,-28.03 616.25,-20.39 605.75,-21.79 608.92,-28.03"/>
</a>
</g>
</g>
<!-- Node18 -->
<g id="Node000018" class="node">
<title>Node18</title>
<g id="a_Node000018"><a xlink:title=" ">
<polygon fill="#e0e0e0" stroke="#999999" points="461.5,-19.25 403.5,-19.25 403.5,0 461.5,0 461.5,-19.25"/>
<text text-anchor="middle" x="432.5" y="-5.75" font-family="Helvetica,sans-Serif" font-size="10.00">stdexcept</text>
</a>
</g>
</g>
<!-- Node15&#45;&gt;Node18 -->
<g id="edge18_Node000015_Node000018" class="edge">
<title>Node15&#45;&gt;Node18</title>
<g id="a_edge18_Node000015_Node000018"><a xlink:title=" ">
<path fill="none" stroke="#63b8ff" d="M513.88,-54.84C498.81,-46.66 476.36,-34.46 458.85,-24.94"/>
<polygon fill="#63b8ff" stroke="#63b8ff" points="460.99,-22.12 450.54,-20.43 457.65,-28.27 460.99,-22.12"/>
</a>
</g>
</g>
<!-- Node19&#45;&gt;Node7 -->
<g id="edge21_Node000019_Node000007" class="edge">
<title>Node19&#45;&gt;Node7</title>
<g id="a_edge21_Node000019_Node000007"><a xlink:title=" ">
<path fill="none" stroke="#63b8ff" d="M428.87,-110.04C434.51,-96.84 442.4,-72.12 431.5,-55.25 417.56,-33.67 390.41,-22.42 368.07,-16.62"/>
<polygon fill="#63b8ff" stroke="#63b8ff" points="368.92,-13.23 358.39,-14.4 367.35,-20.05 368.92,-13.23"/>
</a>
</g>
</g>
<!-- Node19&#45;&gt;Node15 -->
<g id="edge20_Node000019_Node000015" class="edge">
<title>Node19&#45;&gt;Node15</title>
<g id="a_edge20_Node000019_Node000015"><a xlink:title=" ">
<path fill="none" stroke="#63b8ff" d="M442.48,-110.09C458.85,-101.87 483.29,-89.59 502.26,-80.06"/>
<polygon fill="#63b8ff" stroke="#63b8ff" points="503.71,-83.25 511.08,-75.63 500.57,-76.99 503.71,-83.25"/>
</a>
</g>
</g>
<!-- Node20 -->
<g id="Node000020" class="node">
<title>Node20</title>
<g id="a_Node000020"><a xlink:title=" ">
<polygon fill="#e0e0e0" stroke="#999999" points="422,-74.5 361,-74.5 361,-55.25 422,-55.25 422,-74.5"/>
<text text-anchor="middle" x="391.5" y="-61" font-family="Helvetica,sans-Serif" font-size="10.00">type_traits</text>
</a>
</g>
</g>
<!-- Node19&#45;&gt;Node20 -->
<g id="edge22_Node000019_Node000020" class="edge">
<title>Node19&#45;&gt;Node20</title>
<g id="a_edge22_Node000019_Node000020"><a xlink:title=" ">
<path fill="none" stroke="#63b8ff" d="M419.05,-110.33C414.73,-103.36 408.54,-93.37 403.12,-84.62"/>
<polygon fill="#63b8ff" stroke="#63b8ff" points="406.11,-82.8 397.86,-76.15 400.16,-86.49 406.11,-82.8"/>
</a>
</g>
</g>
<!-- Node19&#45;&gt;Node21 -->
<g id="edge23_Node000019_Node000021" class="edge">
<title>Node19&#45;&gt;Node21</title>
<g id="a_edge23_Node000019_Node000021"><a xlink:title=" ">
<path fill="none" stroke="#63b8ff" d="M398.21,-110.09C371.67,-100.98 330.64,-86.88 302.06,-77.06"/>
<polygon fill="#63b8ff" stroke="#63b8ff" points="303.43,-73.83 292.84,-73.89 301.16,-80.45 303.43,-73.83"/>
</a>
</g>
</g>
<!-- Node24&#45;&gt;Node7 -->
<g id="edge36_Node000024_Node000007" class="edge">
<title>Node24&#45;&gt;Node7</title>
<g id="a_edge36_Node000024_Node000007"><a xlink:title=" ">
<path fill="none" stroke="#63b8ff" d="M402.14,-220.54C393.28,-206.41 374.21,-179.37 350.5,-165.75 280.89,-125.76 224.29,-191.91 173.5,-129.75 152.55,-104.11 153.5,-81.64 173.5,-55.25 188.34,-35.67 254.57,-22.31 296.74,-15.61"/>
<polygon fill="#63b8ff" stroke="#63b8ff" points="297.08,-19.1 306.43,-14.13 296.02,-12.18 297.08,-19.1"/>
</a>
</g>
</g>
<!-- Node24&#45;&gt;Node8 -->
<g id="edge37_Node000024_Node000008" class="edge">
<title>Node24&#45;&gt;Node8</title>
<g id="a_edge37_Node000024_Node000008"><a xlink:title=" ">
<path fill="none" stroke="#63b8ff" d="M414.8,-220.52C425.24,-207.72 445.3,-183.95 464.5,-165.75 493.01,-138.72 500.38,-131.63 533.5,-110.5 552.01,-98.7 574.08,-87.71 591.73,-79.59"/>
<polygon fill="#63b8ff" stroke="#63b8ff" points="593.02,-82.85 600.69,-75.55 590.14,-76.47 593.02,-82.85"/>
</a>
</g>
</g>
<!-- Node24&#45;&gt;Node21 -->
<g id="edge39_Node000024_Node000021" class="edge">
<title>Node24&#45;&gt;Node21</title>
<g id="a_edge39_Node000024_Node000021"><a xlink:title=" ">
<path fill="none" stroke="#63b8ff" d="M406.39,-220.59C404.28,-207.01 398.46,-181.28 383.5,-165.75 354.75,-135.91 327.04,-158.8 297.5,-129.75 285.35,-117.8 278.09,-99.68 274.03,-85.79"/>
<polygon fill="#63b8ff" stroke="#63b8ff" points="277.49,-85.2 271.61,-76.39 270.71,-86.95 277.49,-85.2"/>
</a>
</g>
</g>
<!-- Node25 -->
<g id="Node000025" class="node">
<title>Node25</title>
<g id="a_Node000025"><a xlink:title=" ">
<polygon fill="#e0e0e0" stroke="#999999" points="341.38,-185 285.62,-185 285.62,-165.75 341.38,-165.75 341.38,-185"/>
<text text-anchor="middle" x="313.5" y="-171.5" font-family="Helvetica,sans-Serif" font-size="10.00">algorithm</text>
</a>
</g>
</g>
<!-- Node24&#45;&gt;Node25 -->
<g id="edge34_Node000024_Node000025" class="edge">
<title>Node24&#45;&gt;Node25</title>
<g id="a_edge34_Node000024_Node000025"><a xlink:title=" ">
<path fill="none" stroke="#63b8ff" d="M391.55,-220.59C377.24,-212.48 355.97,-200.43 339.25,-190.96"/>
<polygon fill="#63b8ff" stroke="#63b8ff" points="341.27,-188.08 330.84,-186.2 337.82,-194.17 341.27,-188.08"/>
</a>
</g>
</g>
<!-- Node24&#45;&gt;Node26 -->
<g id="edge35_Node000024_Node000026" class="edge">
<title>Node24&#45;&gt;Node26</title>
<g id="a_edge35_Node000024_Node000026"><a xlink:title=" ">
<path fill="none" stroke="#63b8ff" d="M422.6,-220.59C436.02,-212.56 455.91,-200.66 471.67,-191.23"/>
<polygon fill="#63b8ff" stroke="#63b8ff" points="473.25,-194.37 480.03,-186.23 469.65,-188.36 473.25,-194.37"/>
</a>
</g>
</g>
<!-- Node24&#45;&gt;Node27 -->
<g id="edge38_Node000024_Node000027" class="edge">
<title>Node24&#45;&gt;Node27</title>
<g id="a_edge38_Node000024_Node000027"><a xlink:title=" ">
<path fill="none" stroke="#63b8ff" d="M356.33,-220.5C313.83,-212.66 251.57,-200.54 188.94,-185.45"/>
<polygon fill="#63b8ff" stroke="#63b8ff" points="190.09,-182.13 179.54,-183.16 188.43,-188.93 190.09,-182.13"/>
</a>
</g>
</g>
<!-- Node28 -->
<g id="Node000028" class="node">
<title>Node28</title>
<g id="a_Node000028"><a xlink:title=" ">
<polygon fill="#e0e0e0" stroke="#999999" points="267.25,-185 195.75,-185 195.75,-165.75 267.25,-165.75 267.25,-185"/>
<text text-anchor="middle" x="231.5" y="-171.5" font-family="Helvetica,sans-Serif" font-size="10.00">crab/option.h</text>
</a>
</g>
</g>
<!-- Node24&#45;&gt;Node28 -->
<g id="edge40_Node000024_Node000028" class="edge">
<title>Node24&#45;&gt;Node28</title>
<g id="a_edge40_Node000024_Node000028"><a xlink:title=" ">
<path fill="none" stroke="#63b8ff" d="M377.64,-220.59C348.69,-211.83 304.55,-198.48 272.35,-188.73"/>
<polygon fill="#63b8ff" stroke="#63b8ff" points="273.54,-185.44 262.95,-185.89 271.51,-192.14 273.54,-185.44"/>
</a>
</g>
</g>
<!-- Node30&#45;&gt;Node7 -->
<g id="edge48_Node000030_Node000007" class="edge">
<title>Node30&#45;&gt;Node7</title>
<g id="a_edge48_Node000030_Node000007"><a xlink:title=" ">
<path fill="none" stroke="#63b8ff" d="M68.28,-110.15C80.93,-96.17 107.36,-69.34 135.5,-55.25 187.87,-29.03 255.76,-18.03 296.62,-13.55"/>
<polygon fill="#63b8ff" stroke="#63b8ff" points="296.79,-17.05 306.39,-12.56 296.09,-10.09 296.79,-17.05"/>
</a>
</g>
</g>
<!-- Node30&#45;&gt;Node8 -->
<g id="edge49_Node000030_Node000008" class="edge">
<title>Node30&#45;&gt;Node8</title>
<g id="a_edge49_Node000030_Node000008"><a xlink:title=" ">
<path fill="none" stroke="#63b8ff" d="M121.48,-117.55C218.6,-114.27 414.48,-104.48 589.32,-74.55"/>
<polygon fill="#63b8ff" stroke="#63b8ff" points="589.8,-78.02 599.05,-72.85 588.6,-71.12 589.8,-78.02"/>
</a>
</g>
</g>
</g>
</svg>
