<?xml version="1.0" encoding="UTF-8" standalone="no"?>
<!DOCTYPE svg PUBLIC "-//W3C//DTD SVG 1.1//EN"
 "http://www.w3.org/Graphics/SVG/1.1/DTD/svg11.dtd">
<!-- Generated by graphviz version 12.2.0 (20241103.1931)
 -->
<!-- Title: bcnp/transport/controller_driver.h Pages: 1 -->
<svg width="1317pt" height="370pt"
 viewBox="0.00 0.00 1316.88 370.00" xmlns="http://www.w3.org/2000/svg" xmlns:xlink="http://www.w3.org/1999/xlink">
<g id="graph0" class="graph" transform="scale(1 1) rotate(0) translate(4 366)">
<title>bcnp/transport/controller_driver.h</title>
<!-- Node1 -->
<g id="Node000001" class="node">
<title>Node1</title>
<g id="a_Node000001"><a xlink:title=" ">
<polygon fill="#999999" stroke="#666666" points="968.12,-362 847.12,-362 847.12,-331.5 968.12,-331.5 968.12,-362"/>
<text text-anchor="start" x="855.12" y="-348.5" font-family="Helvetica,sans-Serif" font-size="10.00">bcnp/transport/controller</text>
<text text-anchor="middle" x="907.62" y="-337.25" font-family="Helvetica,sans-Serif" font-size="10.00">_driver.h</text>
</a>
</g>
</g>
<!-- Node2 -->
<g id="Node000002" class="node">
<title>Node2</title>
<g id="a_Node000002"><a xlink:href="dispatcher_8h.html" target="_top" xlink:title=" ">
<polygon fill="white" stroke="#666666" points="455.88,-295.5 363.38,-295.5 363.38,-276.25 455.88,-276.25 455.88,-295.5"/>
<text text-anchor="middle" x="409.62" y="-282" font-family="Helvetica,sans-Serif" font-size="10.00">bcnp/dispatcher.h</text>
</a>
</g>
</g>
<!-- Node1&#45;&gt;Node2 -->
<g id="edge1_Node000001_Node000002" class="edge">
<title>Node1&#45;&gt;Node2</title>
<g id="a_edge1_Node000001_Node000002"><a xlink:title=" ">
<path fill="none" stroke="#63b8ff" d="M847.06,-338.59C750.39,-327.16 562.45,-304.94 467.5,-293.72"/>
<polygon fill="#63b8ff" stroke="#63b8ff" points="467.97,-290.25 457.63,-292.55 467.15,-297.2 467.97,-290.25"/>
</a>
</g>
</g>
<!-- Node22 -->
<g id="Node000022" class="node">
<title>Node22</title>
<g id="a_Node000022"><a xlink:title=" ">
<polygon fill="#e0e0e0" stroke="#999999" points="1013.12,-74.5 970.12,-74.5 970.12,-55.25 1013.12,-55.25 1013.12,-74.5"/>
<text text-anchor="middle" x="991.62" y="-61" font-family="Helvetica,sans-Serif" font-size="10.00">vector</text>
</a>
</g>
</g>
<!-- Node1&#45;&gt;Node22 -->
<g id="edge52_Node000001_Node000022" class="edge">
<title>Node1&#45;&gt;Node22</title>
<g id="a_edge52_Node000001_Node000022"><a xlink:title=" ">
<path fill="none" stroke="#63b8ff" d="M943.49,-331.04C980.11,-313.36 1031.62,-279.9 1031.62,-231.62 1031.62,-231.62 1031.62,-231.62 1031.62,-174.38 1031.62,-141.19 1014.95,-105.63 1003.13,-84.59"/>
<polygon fill="#63b8ff" stroke="#63b8ff" points="1006.2,-82.91 998.12,-76.06 1000.17,-86.45 1006.2,-82.91"/>
</a>
</g>
</g>
<!-- Node28 -->
<g id="Node000028" class="node">
<title>Node28</title>
<g id="a_Node000028"><a xlink:href="adapter_8h.html" target="_top" xlink:title=" ">
<polygon fill="white" stroke="#666666" points="965.12,-129.75 844.12,-129.75 844.12,-110.5 965.12,-110.5 965.12,-129.75"/>
<text text-anchor="middle" x="904.62" y="-116.25" font-family="Helvetica,sans-Serif" font-size="10.00">bcnp/transport/adapter.h</text>
</a>
</g>
</g>
<!-- Node1&#45;&gt;Node28 -->
<g id="edge49_Node000001_Node000028" class="edge">
<title>Node1&#45;&gt;Node28</title>
<g id="a_edge49_Node000001_Node000028"><a xlink:title=" ">
<path fill="none" stroke="#63b8ff" d="M907.43,-331.01C906.91,-291.92 905.49,-185.58 904.89,-141.1"/>
<polygon fill="#63b8ff" stroke="#63b8ff" points="908.4,-141.33 904.76,-131.38 901.4,-141.42 908.4,-141.33"/>
</a>
</g>
</g>
<!-- Node3 -->
<g id="Node000003" class="node">
<title>Node3</title>
<g id="a_Node000003"><a xlink:href="stream__parser_8h.html" target="_top" xlink:title=" ">
<polygon fill="white" stroke="#666666" points="757.5,-240.25 647.75,-240.25 647.75,-221 757.5,-221 757.5,-240.25"/>
<text text-anchor="middle" x="702.62" y="-226.75" font-family="Helvetica,sans-Serif" font-size="10.00">bcnp/stream_parser.h</text>
</a>
</g>
</g>
<!-- Node2&#45;&gt;Node3 -->
<g id="edge2_Node000002_Node000003" class="edge">
<title>Node2&#45;&gt;Node3</title>
<g id="a_edge2_Node000002_Node000003"><a xlink:title=" ">
<path fill="none" stroke="#63b8ff" d="M456.05,-276.44C506.17,-267.33 586.22,-252.78 641.45,-242.74"/>
<polygon fill="#63b8ff" stroke="#63b8ff" points="641.79,-246.24 651,-241.01 640.54,-239.35 641.79,-246.24"/>
</a>
</g>
</g>
<!-- Node5 -->
<g id="Node000005" class="node">
<title>Node5</title>
<g id="a_Node000005"><a xlink:href="message__types_8h.html" target="_top" xlink:title=" ">
<polygon fill="white" stroke="#666666" points="591.5,-129.75 475.75,-129.75 475.75,-110.5 591.5,-110.5 591.5,-129.75"/>
<text text-anchor="middle" x="533.62" y="-116.25" font-family="Helvetica,sans-Serif" font-size="10.00">bcnp/message_types.h</text>
</a>
</g>
</g>
<!-- Node2&#45;&gt;Node5 -->
<g id="edge43_Node000002_Node000005" class="edge">
<title>Node2&#45;&gt;Node5</title>
<g id="a_edge43_Node000002_Node000005"><a xlink:title=" ">
<path fill="none" stroke="#63b8ff" d="M416.29,-276.07C435.89,-250.19 493.59,-174 520.06,-139.03"/>
<polygon fill="#63b8ff" stroke="#63b8ff" points="522.76,-141.26 526.01,-131.18 517.18,-137.04 522.76,-141.26"/>
</a>
</g>
</g>
<!-- Node8 -->
<g id="Node000008" class="node">
<title>Node8</title>
<g id="a_Node000008"><a xlink:title=" ">
<polygon fill="#e0e0e0" stroke="#999999" points="762.25,-74.5 717,-74.5 717,-55.25 762.25,-55.25 762.25,-74.5"/>
<text text-anchor="middle" x="739.62" y="-61" font-family="Helvetica,sans-Serif" font-size="10.00">cstdint</text>
</a>
</g>
</g>
<!-- Node2&#45;&gt;Node8 -->
<g id="edge45_Node000002_Node000008" class="edge">
<title>Node2&#45;&gt;Node8</title>
<g id="a_edge45_Node000002_Node000008"><a xlink:title=" ">
<path fill="none" stroke="#63b8ff" d="M422.97,-276.02C473.45,-242.52 653.05,-123.33 716.9,-80.96"/>
<polygon fill="#63b8ff" stroke="#63b8ff" points="718.46,-84.12 724.85,-75.68 714.59,-78.29 718.46,-84.12"/>
</a>
</g>
</g>
<!-- Node11 -->
<g id="Node000011" class="node">
<title>Node11</title>
<g id="a_Node000011"><a xlink:title=" ">
<polygon fill="#e0e0e0" stroke="#999999" points="121.62,-74.5 63.62,-74.5 63.62,-55.25 121.62,-55.25 121.62,-74.5"/>
<text text-anchor="middle" x="92.62" y="-61" font-family="Helvetica,sans-Serif" font-size="10.00">functional</text>
</a>
</g>
</g>
<!-- Node2&#45;&gt;Node11 -->
<g id="edge46_Node000002_Node000011" class="edge">
<title>Node2&#45;&gt;Node11</title>
<g id="a_edge46_Node000002_Node000011"><a xlink:title=" ">
<path fill="none" stroke="#63b8ff" d="M367.15,-275.78C339.74,-268.73 304.03,-257.24 275.62,-240.25 202.3,-196.38 134.66,-118.38 106.47,-83.54"/>
<polygon fill="#63b8ff" stroke="#63b8ff" points="109.51,-81.74 100.53,-76.1 104.04,-86.1 109.51,-81.74"/>
</a>
</g>
</g>
<!-- Node23 -->
<g id="Node000023" class="node">
<title>Node23</title>
<g id="a_Node000023"><a xlink:href="message__queue_8h.html" target="_top" xlink:title="Timed message queue for executing duration&#45;based commands.">
<polygon fill="white" stroke="#666666" points="331,-129.75 212.25,-129.75 212.25,-110.5 331,-110.5 331,-129.75"/>
<text text-anchor="middle" x="271.62" y="-116.25" font-family="Helvetica,sans-Serif" font-size="10.00">bcnp/message_queue.h</text>
</a>
</g>
</g>
<!-- Node2&#45;&gt;Node23 -->
<g id="edge35_Node000002_Node000023" class="edge">
<title>Node2&#45;&gt;Node23</title>
<g id="a_edge35_Node000002_Node000023"><a xlink:title=" ">
<path fill="none" stroke="#63b8ff" d="M362.93,-278.83C337.78,-273.1 308.36,-261.95 290.62,-240.25 267.61,-212.09 267.08,-167.32 269.12,-141.43"/>
<polygon fill="#63b8ff" stroke="#63b8ff" points="272.58,-141.9 270.12,-131.6 265.62,-141.19 272.58,-141.9"/>
</a>
</g>
</g>
<!-- Node25 -->
<g id="Node000025" class="node">
<title>Node25</title>
<g id="a_Node000025"><a xlink:title=" ">
<polygon fill="#e0e0e0" stroke="#999999" points="45.25,-74.5 0,-74.5 0,-55.25 45.25,-55.25 45.25,-74.5"/>
<text text-anchor="middle" x="22.62" y="-61" font-family="Helvetica,sans-Serif" font-size="10.00">chrono</text>
</a>
</g>
</g>
<!-- Node2&#45;&gt;Node25 -->
<g id="edge44_Node000002_Node000025" class="edge">
<title>Node2&#45;&gt;Node25</title>
<g id="a_edge44_Node000002_Node000025"><a xlink:title=" ">
<path fill="none" stroke="#63b8ff" d="M363.15,-277.73C328.59,-271.19 280.97,-259.52 242.62,-240.25 157.08,-197.26 73.28,-117.57 38.91,-82.82"/>
<polygon fill="#63b8ff" stroke="#63b8ff" points="41.47,-80.42 31.98,-75.72 36.46,-85.32 41.47,-80.42"/>
</a>
</g>
</g>
<!-- Node26 -->
<g id="Node000026" class="node">
<title>Node26</title>
<g id="a_Node000026"><a xlink:title=" ">
<polygon fill="#e0e0e0" stroke="#999999" points="293.75,-74.5 251.5,-74.5 251.5,-55.25 293.75,-55.25 293.75,-74.5"/>
<text text-anchor="middle" x="272.62" y="-61" font-family="Helvetica,sans-Serif" font-size="10.00">mutex</text>
</a>
</g>
</g>
<!-- Node2&#45;&gt;Node26 -->
<g id="edge47_Node000002_Node000026" class="edge">
<title>Node2&#45;&gt;Node26</title>
<g id="a_edge47_Node000002_Node000026"><a xlink:title=" ">
<path fill="none" stroke="#63b8ff" d="M408.12,-275.85C403.09,-248.15 384.59,-163.05 339.62,-110.5 329.16,-98.27 314.54,-88.01 301.63,-80.42"/>
<polygon fill="#63b8ff" stroke="#63b8ff" points="303.52,-77.47 293.08,-75.66 300.11,-83.58 303.52,-77.47"/>
</a>
</g>
</g>
<!-- Node27 -->
<g id="Node000027" class="node">
<title>Node27</title>
<g id="a_Node000027"><a xlink:title=" ">
<polygon fill="#e0e0e0" stroke="#999999" points="382,-240.25 299.25,-240.25 299.25,-221 382,-221 382,-240.25"/>
<text text-anchor="middle" x="340.62" y="-226.75" font-family="Helvetica,sans-Serif" font-size="10.00">unordered_map</text>
</a>
</g>
</g>
<!-- Node2&#45;&gt;Node27 -->
<g id="edge48_Node000002_Node000027" class="edge">
<title>Node2&#45;&gt;Node27</title>
<g id="a_edge48_Node000002_Node000027"><a xlink:title=" ">
<path fill="none" stroke="#63b8ff" d="M397.92,-275.84C387.85,-268.07 373.08,-256.67 361.06,-247.4"/>
<polygon fill="#63b8ff" stroke="#63b8ff" points="363.41,-244.79 353.36,-241.45 359.13,-250.33 363.41,-244.79"/>
</a>
</g>
</g>
<!-- Node4 -->
<g id="Node000004" class="node">
<title>Node4</title>
<g id="a_Node000004"><a xlink:href="packet_8h.html" target="_top" xlink:title="BCNP packet structures, encoding, and decoding utilities.">
<polygon fill="white" stroke="#666666" points="880,-185 803.25,-185 803.25,-165.75 880,-165.75 880,-185"/>
<text text-anchor="middle" x="841.62" y="-171.5" font-family="Helvetica,sans-Serif" font-size="10.00">bcnp/packet.h</text>
</a>
</g>
</g>
<!-- Node3&#45;&gt;Node4 -->
<g id="edge3_Node000003_Node000004" class="edge">
<title>Node3&#45;&gt;Node4</title>
<g id="a_edge3_Node000003_Node000004"><a xlink:title=" ">
<path fill="none" stroke="#63b8ff" d="M726.2,-220.59C748.47,-212.06 782.12,-199.17 807.35,-189.51"/>
<polygon fill="#63b8ff" stroke="#63b8ff" points="808.43,-192.84 816.52,-185.99 805.93,-186.3 808.43,-192.84"/>
</a>
</g>
</g>
<!-- Node6 -->
<g id="Node000006" class="node">
<title>Node6</title>
<g id="a_Node000006"><a xlink:title=" ">
<polygon fill="#e0e0e0" stroke="#999999" points="699.12,-74.5 662.12,-74.5 662.12,-55.25 699.12,-55.25 699.12,-74.5"/>
<text text-anchor="middle" x="680.62" y="-61" font-family="Helvetica,sans-Serif" font-size="10.00">array</text>
</a>
</g>
</g>
<!-- Node3&#45;&gt;Node6 -->
<g id="edge30_Node000003_Node000006" class="edge">
<title>Node3&#45;&gt;Node6</title>
<g id="a_edge30_Node000003_Node000006"><a xlink:title=" ">
<path fill="none" stroke="#63b8ff" d="M698.79,-220.59C695.22,-211.71 690.08,-197.68 687.62,-185 681,-150.85 680.06,-110.25 680.19,-86.35"/>
<polygon fill="#63b8ff" stroke="#63b8ff" points="683.69,-86.5 680.32,-76.46 676.69,-86.41 683.69,-86.5"/>
</a>
</g>
</g>
<!-- Node7 -->
<g id="Node000007" class="node">
<title>Node7</title>
<g id="a_Node000007"><a xlink:title=" ">
<polygon fill="#e0e0e0" stroke="#999999" points="852.75,-19.25 804.5,-19.25 804.5,0 852.75,0 852.75,-19.25"/>
<text text-anchor="middle" x="828.62" y="-5.75" font-family="Helvetica,sans-Serif" font-size="10.00">cstddef</text>
</a>
</g>
</g>
<!-- Node3&#45;&gt;Node7 -->
<g id="edge31_Node000003_Node000007" class="edge">
<title>Node3&#45;&gt;Node7</title>
<g id="a_edge31_Node000003_Node000007"><a xlink:title=" ">
<path fill="none" stroke="#63b8ff" d="M707.82,-220.75C713.08,-211.75 721.45,-197.42 728.62,-185 761.28,-128.51 799.57,-61.53 817.85,-29.51"/>
<polygon fill="#63b8ff" stroke="#63b8ff" points="820.77,-31.45 822.69,-21.03 814.69,-27.98 820.77,-31.45"/>
</a>
</g>
</g>
<!-- Node3&#45;&gt;Node8 -->
<g id="edge32_Node000003_Node000008" class="edge">
<title>Node3&#45;&gt;Node8</title>
<g id="a_edge32_Node000003_Node000008"><a xlink:title=" ">
<path fill="none" stroke="#63b8ff" d="M704.61,-220.82C710.36,-195.39 727.09,-121.35 735.16,-85.62"/>
<polygon fill="#63b8ff" stroke="#63b8ff" points="738.5,-86.72 737.29,-76.2 731.67,-85.18 738.5,-86.72"/>
</a>
</g>
</g>
<!-- Node3&#45;&gt;Node11 -->
<g id="edge33_Node000003_Node000011" class="edge">
<title>Node3&#45;&gt;Node11</title>
<g id="a_edge33_Node000003_Node000011"><a xlink:title=" ">
<path fill="none" stroke="#63b8ff" d="M647.49,-224.49C553.76,-214.47 358.46,-188.01 203.62,-129.75 170.75,-117.38 136.18,-95.95 114.52,-81.36"/>
<polygon fill="#63b8ff" stroke="#63b8ff" points="116.74,-78.63 106.51,-75.86 112.78,-84.4 116.74,-78.63"/>
</a>
</g>
</g>
<!-- Node20 -->
<g id="Node000020" class="node">
<title>Node20</title>
<g id="a_Node000020"><a xlink:title=" ">
<polygon fill="#e0e0e0" stroke="#999999" points="1308.88,-19.25 1270.38,-19.25 1270.38,0 1308.88,0 1308.88,-19.25"/>
<text text-anchor="middle" x="1289.62" y="-5.75" font-family="Helvetica,sans-Serif" font-size="10.00">utility</text>
</a>
</g>
</g>
<!-- Node3&#45;&gt;Node20 -->
<g id="edge34_Node000003_Node000020" class="edge">
<title>Node3&#45;&gt;Node20</title>
<g id="a_edge34_Node000003_Node000020"><a xlink:title=" ">
<path fill="none" stroke="#63b8ff" d="M757.96,-223.51C871.48,-210.15 1126.23,-175.88 1199.62,-129.75 1238.99,-105.01 1267.38,-56.46 1280.84,-29.6"/>
<polygon fill="#63b8ff" stroke="#63b8ff" points="1283.84,-31.45 1285.03,-20.92 1277.53,-28.41 1283.84,-31.45"/>
</a>
</g>
</g>
<!-- Node4&#45;&gt;Node5 -->
<g id="edge4_Node000004_Node000005" class="edge">
<title>Node4&#45;&gt;Node5</title>
<g id="a_edge4_Node000004_Node000005"><a xlink:title=" ">
<path fill="none" stroke="#63b8ff" d="M802.93,-167.68C751.37,-158.77 659.45,-142.88 597.52,-132.17"/>
<polygon fill="#63b8ff" stroke="#63b8ff" points="598.27,-128.75 587.82,-130.49 597.08,-135.65 598.27,-128.75"/>
</a>
</g>
</g>
<!-- Node4&#45;&gt;Node7 -->
<g id="edge26_Node000004_Node000007" class="edge">
<title>Node4&#45;&gt;Node7</title>
<g id="a_edge26_Node000004_Node000007"><a xlink:title=" ">
<path fill="none" stroke="#63b8ff" d="M840.23,-165.51C838.87,-156.52 836.83,-142.2 835.62,-129.75 832.28,-95.13 830.31,-54.67 829.35,-30.94"/>
<polygon fill="#63b8ff" stroke="#63b8ff" points="832.86,-30.98 828.98,-21.12 825.86,-31.25 832.86,-30.98"/>
</a>
</g>
</g>
<!-- Node4&#45;&gt;Node8 -->
<g id="edge27_Node000004_Node000008" class="edge">
<title>Node4&#45;&gt;Node8</title>
<g id="a_edge27_Node000004_Node000008"><a xlink:title=" ">
<path fill="none" stroke="#63b8ff" d="M833.28,-165.5C816.39,-147.53 777.92,-106.61 755.9,-83.19"/>
<polygon fill="#63b8ff" stroke="#63b8ff" points="758.52,-80.87 749.12,-75.98 753.42,-85.66 758.52,-80.87"/>
</a>
</g>
</g>
<!-- Node13 -->
<g id="Node000013" class="node">
<title>Node13</title>
<g id="a_Node000013"><a xlink:title=" ">
<polygon fill="#e0e0e0" stroke="#999999" points="361.5,-74.5 311.75,-74.5 311.75,-55.25 361.5,-55.25 361.5,-74.5"/>
<text text-anchor="middle" x="336.62" y="-61" font-family="Helvetica,sans-Serif" font-size="10.00">optional</text>
</a>
</g>
</g>
<!-- Node4&#45;&gt;Node13 -->
<g id="edge28_Node000004_Node000013" class="edge">
<title>Node4&#45;&gt;Node13</title>
<g id="a_edge28_Node000004_Node000013"><a xlink:title=" ">
<path fill="none" stroke="#63b8ff" d="M802.98,-174.04C734,-172.51 585.77,-164.99 466.62,-129.75 456.08,-126.63 399.26,-97.96 364.32,-80.1"/>
<polygon fill="#63b8ff" stroke="#63b8ff" points="366.1,-77.08 355.6,-75.64 362.91,-83.31 366.1,-77.08"/>
</a>
</g>
</g>
<!-- Node15 -->
<g id="Node000015" class="node">
<title>Node15</title>
<g id="a_Node000015"><a xlink:href="static__vector_8h.html" target="_top" xlink:title="Fixed&#45;capacity vector with stack allocation (no heap).">
<polygon fill="white" stroke="#666666" points="1211.5,-74.5 1107.75,-74.5 1107.75,-55.25 1211.5,-55.25 1211.5,-74.5"/>
<text text-anchor="middle" x="1159.62" y="-61" font-family="Helvetica,sans-Serif" font-size="10.00">bcnp/static_vector.h</text>
</a>
</g>
</g>
<!-- Node4&#45;&gt;Node15 -->
<g id="edge14_Node000004_Node000015" class="edge">
<title>Node4&#45;&gt;Node15</title>
<g id="a_edge14_Node000004_Node000015"><a xlink:title=" ">
<path fill="none" stroke="#63b8ff" d="M880.29,-172.14C965.39,-166.84 1162.91,-152.22 1182.62,-129.75 1194.01,-116.78 1184.84,-97.74 1174.91,-83.83"/>
<polygon fill="#63b8ff" stroke="#63b8ff" points="1177.67,-81.68 1168.76,-75.95 1172.16,-85.99 1177.67,-81.68"/>
</a>
</g>
</g>
<!-- Node21 -->
<g id="Node000021" class="node">
<title>Node21</title>
<g id="a_Node000021"><a xlink:href="packet__storage_8h.html" target="_top" xlink:title=" ">
<polygon fill="white" stroke="#666666" points="1173.75,-129.75 1059.5,-129.75 1059.5,-110.5 1173.75,-110.5 1173.75,-129.75"/>
<text text-anchor="middle" x="1116.62" y="-116.25" font-family="Helvetica,sans-Serif" font-size="10.00">bcnp/packet_storage.h</text>
</a>
</g>
</g>
<!-- Node4&#45;&gt;Node21 -->
<g id="edge21_Node000004_Node000021" class="edge">
<title>Node4&#45;&gt;Node21</title>
<g id="a_edge21_Node000004_Node000021"><a xlink:title=" ">
<path fill="none" stroke="#63b8ff" d="M880.44,-166.86C926.89,-157.87 1005.07,-142.73 1058.68,-132.35"/>
<polygon fill="#63b8ff" stroke="#63b8ff" points="1059.08,-135.83 1068.24,-130.49 1057.75,-128.96 1059.08,-135.83"/>
</a>
</g>
</g>
<!-- Node4&#45;&gt;Node22 -->
<g id="edge29_Node000004_Node000022" class="edge">
<title>Node4&#45;&gt;Node22</title>
<g id="a_edge29_Node000004_Node000022"><a xlink:title=" ">
<path fill="none" stroke="#63b8ff" d="M880.41,-171.15C910.18,-166.62 950.21,-155.77 974.62,-129.75 985.57,-118.09 989.63,-100.2 991.07,-86.31"/>
<polygon fill="#63b8ff" stroke="#63b8ff" points="994.55,-86.69 991.67,-76.49 987.56,-86.26 994.55,-86.69"/>
</a>
</g>
</g>
<!-- Node5&#45;&gt;Node6 -->
<g id="edge5_Node000005_Node000006" class="edge">
<title>Node5&#45;&gt;Node6</title>
<g id="a_edge5_Node000005_Node000006"><a xlink:title=" ">
<path fill="none" stroke="#63b8ff" d="M558.56,-110.09C584.08,-100.85 623.73,-86.49 650.87,-76.65"/>
<polygon fill="#63b8ff" stroke="#63b8ff" points="652.02,-79.96 660.23,-73.26 649.64,-73.38 652.02,-79.96"/>
</a>
</g>
</g>
<!-- Node5&#45;&gt;Node7 -->
<g id="edge6_Node000005_Node000007" class="edge">
<title>Node5&#45;&gt;Node7</title>
<g id="a_edge6_Node000005_Node000007"><a xlink:title=" ">
<path fill="none" stroke="#63b8ff" d="M549.92,-110.17C580.19,-93.58 643.01,-59.36 653.62,-55.25 700.59,-37.07 757.51,-24.13 793.4,-17.02"/>
<polygon fill="#63b8ff" stroke="#63b8ff" points="793.64,-20.54 802.8,-15.2 792.31,-13.67 793.64,-20.54"/>
</a>
</g>
</g>
<!-- Node5&#45;&gt;Node8 -->
<g id="edge7_Node000005_Node000008" class="edge">
<title>Node5&#45;&gt;Node8</title>
<g id="a_edge7_Node000005_Node000008"><a xlink:title=" ">
<path fill="none" stroke="#63b8ff" d="M570.22,-110.04C603.31,-101.77 653.66,-89.05 705.53,-75.29"/>
<polygon fill="#63b8ff" stroke="#63b8ff" points="706.39,-78.68 715.15,-72.73 704.59,-71.92 706.39,-78.68"/>
</a>
</g>
</g>
<!-- Node9 -->
<g id="Node000009" class="node">
<title>Node9</title>
<g id="a_Node000009"><a xlink:title=" ">
<polygon fill="#e0e0e0" stroke="#999999" points="422.12,-74.5 379.12,-74.5 379.12,-55.25 422.12,-55.25 422.12,-74.5"/>
<text text-anchor="middle" x="400.62" y="-61" font-family="Helvetica,sans-Serif" font-size="10.00">cmath</text>
</a>
</g>
</g>
<!-- Node5&#45;&gt;Node9 -->
<g id="edge8_Node000005_Node000009" class="edge">
<title>Node5&#45;&gt;Node9</title>
<g id="a_edge8_Node000005_Node000009"><a xlink:title=" ">
<path fill="none" stroke="#63b8ff" d="M511.06,-110.09C489.6,-101.5 457.08,-88.48 432.88,-78.79"/>
<polygon fill="#63b8ff" stroke="#63b8ff" points="434.4,-75.63 423.82,-75.16 431.8,-82.13 434.4,-75.63"/>
</a>
</g>
</g>
<!-- Node10 -->
<g id="Node000010" class="node">
<title>Node10</title>
<g id="a_Node000010"><a xlink:title=" ">
<polygon fill="#e0e0e0" stroke="#999999" points="485.25,-74.5 440,-74.5 440,-55.25 485.25,-55.25 485.25,-74.5"/>
<text text-anchor="middle" x="462.62" y="-61" font-family="Helvetica,sans-Serif" font-size="10.00">cstring</text>
</a>
</g>
</g>
<!-- Node5&#45;&gt;Node10 -->
<g id="edge9_Node000005_Node000010" class="edge">
<title>Node5&#45;&gt;Node10</title>
<g id="a_edge9_Node000005_Node000010"><a xlink:title=" ">
<path fill="none" stroke="#63b8ff" d="M521.58,-110.09C511.22,-102.32 496.02,-90.92 483.66,-81.65"/>
<polygon fill="#63b8ff" stroke="#63b8ff" points="485.8,-78.88 475.7,-75.68 481.6,-84.48 485.8,-78.88"/>
</a>
</g>
</g>
<!-- Node5&#45;&gt;Node11 -->
<g id="edge10_Node000005_Node000011" class="edge">
<title>Node5&#45;&gt;Node11</title>
<g id="a_edge10_Node000005_Node000011"><a xlink:title=" ">
<path fill="none" stroke="#63b8ff" d="M475.28,-114.74C398.87,-108.55 260.57,-95.75 133.13,-74.75"/>
<polygon fill="#63b8ff" stroke="#63b8ff" points="133.95,-71.34 123.51,-73.14 132.8,-78.24 133.95,-71.34"/>
</a>
</g>
</g>
<!-- Node12 -->
<g id="Node000012" class="node">
<title>Node12</title>
<g id="a_Node000012"><a xlink:title=" ">
<polygon fill="#e0e0e0" stroke="#999999" points="542.25,-74.5 503,-74.5 503,-55.25 542.25,-55.25 542.25,-74.5"/>
<text text-anchor="middle" x="522.62" y="-61" font-family="Helvetica,sans-Serif" font-size="10.00">limits</text>
</a>
</g>
</g>
<!-- Node5&#45;&gt;Node12 -->
<g id="edge11_Node000005_Node000012" class="edge">
<title>Node5&#45;&gt;Node12</title>
<g id="a_edge11_Node000005_Node000012"><a xlink:title=" ">
<path fill="none" stroke="#63b8ff" d="M531.81,-110.33C530.45,-103.74 528.53,-94.46 526.8,-86.07"/>
<polygon fill="#63b8ff" stroke="#63b8ff" points="530.24,-85.43 524.79,-76.34 523.38,-86.84 530.24,-85.43"/>
</a>
</g>
</g>
<!-- Node5&#45;&gt;Node13 -->
<g id="edge12_Node000005_Node000013" class="edge">
<title>Node5&#45;&gt;Node13</title>
<g id="a_edge12_Node000005_Node000013"><a xlink:title=" ">
<path fill="none" stroke="#63b8ff" d="M500.21,-110.09C464.84,-100.53 409.22,-85.5 372.84,-75.66"/>
<polygon fill="#63b8ff" stroke="#63b8ff" points="373.78,-72.29 363.21,-73.06 371.95,-79.05 373.78,-72.29"/>
</a>
</g>
</g>
<!-- Node14 -->
<g id="Node000014" class="node">
<title>Node14</title>
<g id="a_Node000014"><a xlink:title=" ">
<polygon fill="#e0e0e0" stroke="#999999" points="605.25,-74.5 560,-74.5 560,-55.25 605.25,-55.25 605.25,-74.5"/>
<text text-anchor="middle" x="582.62" y="-61" font-family="Helvetica,sans-Serif" font-size="10.00">variant</text>
</a>
</g>
</g>
<!-- Node5&#45;&gt;Node14 -->
<g id="edge13_Node000005_Node000014" class="edge">
<title>Node5&#45;&gt;Node14</title>
<g id="a_edge13_Node000005_Node000014"><a xlink:title=" ">
<path fill="none" stroke="#63b8ff" d="M541.72,-110.33C548.48,-102.98 558.35,-92.26 566.69,-83.19"/>
<polygon fill="#63b8ff" stroke="#63b8ff" points="569.14,-85.7 573.33,-75.97 563.99,-80.96 569.14,-85.7"/>
</a>
</g>
</g>
<!-- Node15&#45;&gt;Node7 -->
<g id="edge15_Node000015_Node000007" class="edge">
<title>Node15&#45;&gt;Node7</title>
<g id="a_edge15_Node000015_Node000007"><a xlink:title=" ">
<path fill="none" stroke="#63b8ff" d="M1107.54,-55.5C1039.75,-44.59 923.05,-25.82 864.43,-16.38"/>
<polygon fill="#63b8ff" stroke="#63b8ff" points="865.1,-12.95 854.67,-14.81 863.98,-19.86 865.1,-12.95"/>
</a>
</g>
</g>
<!-- Node16 -->
<g id="Node000016" class="node">
<title>Node16</title>
<g id="a_Node000016"><a xlink:title=" ">
<polygon fill="#e0e0e0" stroke="#999999" points="1124.38,-19.25 1052.88,-19.25 1052.88,0 1124.38,0 1124.38,-19.25"/>
<text text-anchor="middle" x="1088.62" y="-5.75" font-family="Helvetica,sans-Serif" font-size="10.00">initializer_list</text>
</a>
</g>
</g>
<!-- Node15&#45;&gt;Node16 -->
<g id="edge16_Node000015_Node000016" class="edge">
<title>Node15&#45;&gt;Node16</title>
<g id="a_edge16_Node000015_Node000016"><a xlink:title=" ">
<path fill="none" stroke="#63b8ff" d="M1147.58,-54.84C1137.22,-47.07 1122.02,-35.67 1109.66,-26.4"/>
<polygon fill="#63b8ff" stroke="#63b8ff" points="1111.8,-23.63 1101.7,-20.43 1107.6,-29.23 1111.8,-23.63"/>
</a>
</g>
</g>
<!-- Node17 -->
<g id="Node000017" class="node">
<title>Node17</title>
<g id="a_Node000017"><a xlink:title=" ">
<polygon fill="#e0e0e0" stroke="#999999" points="1176.62,-19.25 1142.62,-19.25 1142.62,0 1176.62,0 1176.62,-19.25"/>
<text text-anchor="middle" x="1159.62" y="-5.75" font-family="Helvetica,sans-Serif" font-size="10.00">new</text>
</a>
</g>
</g>
<!-- Node15&#45;&gt;Node17 -->
<g id="edge17_Node000015_Node000017" class="edge">
<title>Node15&#45;&gt;Node17</title>
<g id="a_edge17_Node000015_Node000017"><a xlink:title=" ">
<path fill="none" stroke="#63b8ff" d="M1159.62,-55.08C1159.62,-48.57 1159.62,-39.42 1159.62,-31.12"/>
<polygon fill="#63b8ff" stroke="#63b8ff" points="1163.13,-31.12 1159.63,-21.12 1156.13,-31.12 1163.13,-31.12"/>
</a>
</g>
</g>
<!-- Node18 -->
<g id="Node000018" class="node">
<title>Node18</title>
<g id="a_Node000018"><a xlink:title=" ">
<polygon fill="#e0e0e0" stroke="#999999" points="1252.62,-19.25 1194.62,-19.25 1194.62,0 1252.62,0 1252.62,-19.25"/>
<text text-anchor="middle" x="1223.62" y="-5.75" font-family="Helvetica,sans-Serif" font-size="10.00">stdexcept</text>
</a>
</g>
</g>
<!-- Node15&#45;&gt;Node18 -->
<g id="edge18_Node000015_Node000018" class="edge">
<title>Node15&#45;&gt;Node18</title>
<g id="a_edge18_Node000015_Node000018"><a xlink:title=" ">
<path fill="none" stroke="#63b8ff" d="M1170.48,-54.84C1179.73,-47.15 1193.25,-35.9 1204.33,-26.68"/>
<polygon fill="#63b8ff" stroke="#63b8ff" points="1206.32,-29.58 1211.77,-20.49 1201.84,-24.2 1206.32,-29.58"/>
</a>
</g>
</g>
<!-- Node19 -->
<g id="Node000019" class="node">
<title>Node19</title>
<g id="a_Node000019"><a xlink:title=" ">
<polygon fill="#e0e0e0" stroke="#999999" points="1035.12,-19.25 974.12,-19.25 974.12,0 1035.12,0 1035.12,-19.25"/>
<text text-anchor="middle" x="1004.62" y="-5.75" font-family="Helvetica,sans-Serif" font-size="10.00">type_traits</text>
</a>
</g>
</g>
<!-- Node15&#45;&gt;Node19 -->
<g id="edge19_Node000015_Node000019" class="edge">
<title>Node15&#45;&gt;Node19</title>
<g id="a_edge19_Node000015_Node000019"><a xlink:title=" ">
<path fill="none" stroke="#63b8ff" d="M1133.33,-54.84C1108.17,-46.2 1069.97,-33.07 1041.72,-23.37"/>
<polygon fill="#63b8ff" stroke="#63b8ff" points="1043.07,-20.13 1032.48,-20.19 1040.8,-26.75 1043.07,-20.13"/>
</a>
</g>
</g>
<!-- Node15&#45;&gt;Node20 -->
<g id="edge20_Node000015_Node000020" class="edge">
<title>Node15&#45;&gt;Node20</title>
<g id="a_edge20_Node000015_Node000020"><a xlink:title=" ">
<path fill="none" stroke="#63b8ff" d="M1181.68,-54.84C1203.07,-46.08 1235.68,-32.72 1259.46,-22.98"/>
<polygon fill="#63b8ff" stroke="#63b8ff" points="1260.69,-26.26 1268.62,-19.23 1258.04,-19.78 1260.69,-26.26"/>
</a>
</g>
</g>
<!-- Node21&#45;&gt;Node7 -->
<g id="edge23_Node000021_Node000007" class="edge">
<title>Node21&#45;&gt;Node7</title>
<g id="a_edge23_Node000021_Node000007"><a xlink:title=" ">
<path fill="none" stroke="#63b8ff" d="M1104.53,-110.07C1083.26,-94.3 1039.8,-62.75 1022.62,-55.25 970.12,-32.34 904.28,-20.39 864.38,-14.81"/>
<polygon fill="#63b8ff" stroke="#63b8ff" points="865,-11.36 854.62,-13.51 864.07,-18.3 865,-11.36"/>
</a>
</g>
</g>
<!-- Node21&#45;&gt;Node15 -->
<g id="edge22_Node000021_Node000015" class="edge">
<title>Node21&#45;&gt;Node15</title>
<g id="a_edge22_Node000021_Node000015"><a xlink:title=" ">
<path fill="none" stroke="#63b8ff" d="M1123.73,-110.33C1129.54,-103.13 1137.96,-92.71 1145.18,-83.76"/>
<polygon fill="#63b8ff" stroke="#63b8ff" points="1147.86,-86.02 1151.42,-76.04 1142.41,-81.62 1147.86,-86.02"/>
</a>
</g>
</g>
<!-- Node21&#45;&gt;Node19 -->
<g id="edge24_Node000021_Node000019" class="edge">
<title>Node21&#45;&gt;Node19</title>
<g id="a_edge24_Node000021_Node000019"><a xlink:title=" ">
<path fill="none" stroke="#63b8ff" d="M1108.58,-110.21C1097.13,-97.63 1075.34,-74.13 1055.62,-55.25 1045.45,-45.51 1033.64,-35.12 1023.94,-26.82"/>
<polygon fill="#63b8ff" stroke="#63b8ff" points="1026.46,-24.37 1016.58,-20.56 1021.94,-29.7 1026.46,-24.37"/>
</a>
</g>
</g>
<!-- Node21&#45;&gt;Node22 -->
<g id="edge25_Node000021_Node000022" class="edge">
<title>Node21&#45;&gt;Node22</title>
<g id="a_edge25_Node000021_Node000022"><a xlink:title=" ">
<path fill="none" stroke="#63b8ff" d="M1095.42,-110.09C1075.67,-101.68 1045.95,-89.02 1023.37,-79.4"/>
<polygon fill="#63b8ff" stroke="#63b8ff" points="1024.9,-76.24 1014.33,-75.55 1022.15,-82.68 1024.9,-76.24"/>
</a>
</g>
</g>
<!-- Node23&#45;&gt;Node7 -->
<g id="edge38_Node000023_Node000007" class="edge">
<title>Node23&#45;&gt;Node7</title>
<g id="a_edge38_Node000023_Node000007"><a xlink:title=" ">
<path fill="none" stroke="#63b8ff" d="M261.98,-110.27C248.57,-96.93 227.56,-71.51 242.62,-55.25 280.09,-14.83 671.71,-10.85 793.01,-10.59"/>
<polygon fill="#63b8ff" stroke="#63b8ff" points="792.7,-14.09 802.69,-10.58 792.69,-7.09 792.7,-14.09"/>
</a>
</g>
</g>
<!-- Node23&#45;&gt;Node8 -->
<g id="edge39_Node000023_Node000008" class="edge">
<title>Node23&#45;&gt;Node8</title>
<g id="a_edge39_Node000023_Node000008"><a xlink:title=" ">
<path fill="none" stroke="#63b8ff" d="M331.46,-116.23C413.84,-111.54 566.89,-100.29 705.48,-74.82"/>
<polygon fill="#63b8ff" stroke="#63b8ff" points="706.03,-78.28 715.22,-73 704.74,-71.4 706.03,-78.28"/>
</a>
</g>
</g>
<!-- Node23&#45;&gt;Node13 -->
<g id="edge41_Node000023_Node000013" class="edge">
<title>Node23&#45;&gt;Node13</title>
<g id="a_edge41_Node000023_Node000013"><a xlink:title=" ">
<path fill="none" stroke="#63b8ff" d="M282.65,-110.09C292.05,-102.4 305.77,-91.15 317.03,-81.93"/>
<polygon fill="#63b8ff" stroke="#63b8ff" points="319.07,-84.78 324.59,-75.73 314.64,-79.36 319.07,-84.78"/>
</a>
</g>
</g>
<!-- Node23&#45;&gt;Node22 -->
<g id="edge42_Node000023_Node000022" class="edge">
<title>Node23&#45;&gt;Node22</title>
<g id="a_edge42_Node000023_Node000022"><a xlink:title=" ">
<path fill="none" stroke="#63b8ff" d="M331.47,-114.7C477,-103.94 845.77,-76.66 958.43,-68.33"/>
<polygon fill="#63b8ff" stroke="#63b8ff" points="958.48,-71.84 968.19,-67.61 957.96,-64.86 958.48,-71.84"/>
</a>
</g>
</g>
<!-- Node24 -->
<g id="Node000024" class="node">
<title>Node24</title>
<g id="a_Node000024"><a xlink:title=" ">
<polygon fill="#e0e0e0" stroke="#999999" points="195.5,-74.5 139.75,-74.5 139.75,-55.25 195.5,-55.25 195.5,-74.5"/>
<text text-anchor="middle" x="167.62" y="-61" font-family="Helvetica,sans-Serif" font-size="10.00">algorithm</text>
</a>
</g>
</g>
<!-- Node23&#45;&gt;Node24 -->
<g id="edge36_Node000023_Node000024" class="edge">
<title>Node23&#45;&gt;Node24</title>
<g id="a_edge36_Node000023_Node000024"><a xlink:title=" ">
<path fill="none" stroke="#63b8ff" d="M253.98,-110.09C238,-101.91 214.17,-89.71 195.59,-80.19"/>
<polygon fill="#63b8ff" stroke="#63b8ff" points="197.2,-77.08 186.7,-75.64 194.01,-83.32 197.2,-77.08"/>
</a>
</g>
</g>
<!-- Node23&#45;&gt;Node25 -->
<g id="edge37_Node000023_Node000025" class="edge">
<title>Node23&#45;&gt;Node25</title>
<g id="a_edge37_Node000023_Node000025"><a xlink:title=" ">
<path fill="none" stroke="#63b8ff" d="M223.18,-110.03C181.49,-102.01 119.5,-89.63 56.58,-74.85"/>
<polygon fill="#63b8ff" stroke="#63b8ff" points="57.67,-71.51 47.13,-72.61 56.05,-78.32 57.67,-71.51"/>
</a>
</g>
</g>
<!-- Node23&#45;&gt;Node26 -->
<g id="edge40_Node000023_Node000026" class="edge">
<title>Node23&#45;&gt;Node26</title>
<g id="a_edge40_Node000023_Node000026"><a xlink:title=" ">
<path fill="none" stroke="#63b8ff" d="M271.79,-110.33C271.91,-103.82 272.08,-94.67 272.24,-86.37"/>
<polygon fill="#63b8ff" stroke="#63b8ff" points="275.74,-86.44 272.43,-76.37 268.74,-86.3 275.74,-86.44"/>
</a>
</g>
</g>
<!-- Node28&#45;&gt;Node7 -->
<g id="edge50_Node000028_Node000007" class="edge">
<title>Node28&#45;&gt;Node7</title>
<g id="a_edge50_Node000028_Node000007"><a xlink:title=" ">
<path fill="none" stroke="#63b8ff" d="M898.41,-110.25C885.99,-92.52 857.92,-52.44 841.41,-28.88"/>
<polygon fill="#63b8ff" stroke="#63b8ff" points="844.4,-27.05 835.8,-20.87 838.67,-31.06 844.4,-27.05"/>
</a>
</g>
</g>
<!-- Node28&#45;&gt;Node8 -->
<g id="edge51_Node000028_Node000008" class="edge">
<title>Node28&#45;&gt;Node8</title>
<g id="a_edge51_Node000028_Node000008"><a xlink:title=" ">
<path fill="none" stroke="#63b8ff" d="M876.63,-110.09C848.18,-100.91 804.07,-86.67 773.62,-76.85"/>
<polygon fill="#63b8ff" stroke="#63b8ff" points="774.72,-73.52 764.13,-73.78 772.57,-80.18 774.72,-73.52"/>
</a>
</g>
</g>
</g>
</svg>
