<?xml version="1.0" encoding="UTF-8" standalone="no"?>
<!DOCTYPE svg PUBLIC "-//W3C//DTD SVG 1.1//EN"
 "http://www.w3.org/Graphics/SVG/1.1/DTD/svg11.dtd">
<!-- Generated by graphviz version 12.2.0 (20241103.1931)
 -->
<!-- Title: bcnp/transport/controller_driver.cpp Pages: 1 -->
<svg width="1420pt" height="437pt"
 viewBox="0.00 0.00 1420.25 436.50" xmlns="http://www.w3.org/2000/svg" xmlns:xlink="http://www.w3.org/1999/xlink">
<g id="graph0" class="graph" transform="scale(1 1) rotate(0) translate(4 432.5)">
<title>bcnp/transport/controller_driver.cpp</title>
<!-- Node1 -->
<g id="Node000001" class="node">
<title>Node1</title>
<g id="a_Node000001"><a xlink:title=" ">
<polygon fill="#999999" stroke="#666666" points="784,-428.5 663,-428.5 663,-398 784,-398 784,-428.5"/>
<text text-anchor="start" x="671" y="-415" font-family="Helvetica,sans-Serif" font-size="10.00">bcnp/transport/controller</text>
<text text-anchor="middle" x="723.5" y="-403.75" font-family="Helvetica,sans-Serif" font-size="10.00">_driver.cpp</text>
</a>
</g>
</g>
<!-- Node2 -->
<g id="Node000002" class="node">
<title>Node2</title>
<g id="a_Node000002"><a xlink:href="controller__driver_8h.html" target="_top" xlink:title=" ">
<polygon fill="white" stroke="#666666" points="740,-362 619,-362 619,-331.5 740,-331.5 740,-362"/>
<text text-anchor="start" x="627" y="-348.5" font-family="Helvetica,sans-Serif" font-size="10.00">bcnp/transport/controller</text>
<text text-anchor="middle" x="679.5" y="-337.25" font-family="Helvetica,sans-Serif" font-size="10.00">_driver.h</text>
</a>
</g>
</g>
<!-- Node1&#45;&gt;Node2 -->
<g id="edge1_Node000001_Node000002" class="edge">
<title>Node1&#45;&gt;Node2</title>
<g id="a_edge1_Node000001_Node000002"><a xlink:title=" ">
<path fill="none" stroke="#63b8ff" d="M713.52,-397.61C708.28,-389.94 701.74,-380.36 695.8,-371.65"/>
<polygon fill="#63b8ff" stroke="#63b8ff" points="698.82,-369.87 690.3,-363.58 693.04,-373.81 698.82,-369.87"/>
</a>
</g>
</g>
<!-- Node5 -->
<g id="Node000005" class="node">
<title>Node5</title>
<g id="a_Node000005"><a xlink:href="packet_8h.html" target="_top" xlink:title="BCNP packet structures, encoding, and decoding utilities.">
<polygon fill="white" stroke="#666666" points="1005.88,-185 929.12,-185 929.12,-165.75 1005.88,-165.75 1005.88,-185"/>
<text text-anchor="middle" x="967.5" y="-171.5" font-family="Helvetica,sans-Serif" font-size="10.00">bcnp/packet.h</text>
</a>
</g>
</g>
<!-- Node1&#45;&gt;Node5 -->
<g id="edge52_Node000001_Node000005" class="edge">
<title>Node1&#45;&gt;Node5</title>
<g id="a_edge52_Node000001_Node000005"><a xlink:title=" ">
<path fill="none" stroke="#63b8ff" d="M761.44,-397.52C803.99,-379.3 872.64,-344.57 915.5,-295.5 941.27,-266 956,-221.73 962.82,-196.29"/>
<polygon fill="#63b8ff" stroke="#63b8ff" points="966.13,-197.48 965.17,-186.93 959.34,-195.77 966.13,-197.48"/>
</a>
</g>
</g>
<!-- Node3 -->
<g id="Node000003" class="node">
<title>Node3</title>
<g id="a_Node000003"><a xlink:href="dispatcher_8h.html" target="_top" xlink:title=" ">
<polygon fill="white" stroke="#666666" points="486.75,-295.5 394.25,-295.5 394.25,-276.25 486.75,-276.25 486.75,-295.5"/>
<text text-anchor="middle" x="440.5" y="-282" font-family="Helvetica,sans-Serif" font-size="10.00">bcnp/dispatcher.h</text>
</a>
</g>
</g>
<!-- Node2&#45;&gt;Node3 -->
<g id="edge2_Node000002_Node000003" class="edge">
<title>Node2&#45;&gt;Node3</title>
<g id="a_edge2_Node000002_Node000003"><a xlink:title=" ">
<path fill="none" stroke="#63b8ff" d="M619.81,-331.05C579.16,-321.03 526.08,-307.96 488.24,-298.63"/>
<polygon fill="#63b8ff" stroke="#63b8ff" points="489.52,-295.35 478.97,-296.35 487.85,-302.14 489.52,-295.35"/>
</a>
</g>
</g>
<!-- Node22 -->
<g id="Node000022" class="node">
<title>Node22</title>
<g id="a_Node000022"><a xlink:title=" ">
<polygon fill="#e0e0e0" stroke="#999999" points="958,-74.5 915,-74.5 915,-55.25 958,-55.25 958,-74.5"/>
<text text-anchor="middle" x="936.5" y="-61" font-family="Helvetica,sans-Serif" font-size="10.00">vector</text>
</a>
</g>
</g>
<!-- Node2&#45;&gt;Node22 -->
<g id="edge51_Node000002_Node000022" class="edge">
<title>Node2&#45;&gt;Node22</title>
<g id="a_edge51_Node000002_Node000022"><a xlink:title=" ">
<path fill="none" stroke="#63b8ff" d="M740.46,-340.33C806.18,-330.75 901.5,-304.32 901.5,-231.62 901.5,-231.62 901.5,-231.62 901.5,-174.38 901.5,-141.81 915.96,-106.29 926.29,-85.06"/>
<polygon fill="#63b8ff" stroke="#63b8ff" points="929.38,-86.69 930.8,-76.2 923.14,-83.52 929.38,-86.69"/>
</a>
</g>
</g>
<!-- Node31 -->
<g id="Node000031" class="node">
<title>Node31</title>
<g id="a_Node000031"><a xlink:href="adapter_8h.html" target="_top" xlink:title=" ">
<polygon fill="white" stroke="#666666" points="121,-129.75 0,-129.75 0,-110.5 121,-110.5 121,-129.75"/>
<text text-anchor="middle" x="60.5" y="-116.25" font-family="Helvetica,sans-Serif" font-size="10.00">bcnp/transport/adapter.h</text>
</a>
</g>
</g>
<!-- Node2&#45;&gt;Node31 -->
<g id="edge48_Node000002_Node000031" class="edge">
<title>Node2&#45;&gt;Node31</title>
<g id="a_edge48_Node000002_Node000031"><a xlink:title=" ">
<path fill="none" stroke="#63b8ff" d="M618.69,-341.46C487.14,-331.13 181.34,-301.07 99.5,-240.25 68.44,-217.17 61.71,-168.67 60.5,-141.2"/>
<polygon fill="#63b8ff" stroke="#63b8ff" points="64,-141.36 60.3,-131.44 57.01,-141.51 64,-141.36"/>
</a>
</g>
</g>
<!-- Node4 -->
<g id="Node000004" class="node">
<title>Node4</title>
<g id="a_Node000004"><a xlink:href="stream__parser_8h.html" target="_top" xlink:title=" ">
<polygon fill="white" stroke="#666666" points="824.38,-240.25 714.62,-240.25 714.62,-221 824.38,-221 824.38,-240.25"/>
<text text-anchor="middle" x="769.5" y="-226.75" font-family="Helvetica,sans-Serif" font-size="10.00">bcnp/stream_parser.h</text>
</a>
</g>
</g>
<!-- Node3&#45;&gt;Node4 -->
<g id="edge3_Node000003_Node000004" class="edge">
<title>Node3&#45;&gt;Node4</title>
<g id="a_edge3_Node000003_Node000004"><a xlink:title=" ">
<path fill="none" stroke="#63b8ff" d="M486.94,-277.36C543.33,-268.23 638.85,-252.77 703.03,-242.38"/>
<polygon fill="#63b8ff" stroke="#63b8ff" points="703.43,-245.86 712.75,-240.81 702.31,-238.95 703.43,-245.86"/>
</a>
</g>
</g>
<!-- Node6 -->
<g id="Node000006" class="node">
<title>Node6</title>
<g id="a_Node000006"><a xlink:href="message__types_8h.html" target="_top" xlink:title=" ">
<polygon fill="white" stroke="#666666" points="747.38,-129.75 631.62,-129.75 631.62,-110.5 747.38,-110.5 747.38,-129.75"/>
<text text-anchor="middle" x="689.5" y="-116.25" font-family="Helvetica,sans-Serif" font-size="10.00">bcnp/message_types.h</text>
</a>
</g>
</g>
<!-- Node3&#45;&gt;Node6 -->
<g id="edge42_Node000003_Node000006" class="edge">
<title>Node3&#45;&gt;Node6</title>
<g id="a_edge42_Node000003_Node000006"><a xlink:title=" ">
<path fill="none" stroke="#63b8ff" d="M454.24,-275.84C494.97,-249.05 615.36,-169.88 666.31,-136.38"/>
<polygon fill="#63b8ff" stroke="#63b8ff" points="668.1,-139.38 674.54,-130.97 664.26,-133.54 668.1,-139.38"/>
</a>
</g>
</g>
<!-- Node9 -->
<g id="Node000009" class="node">
<title>Node9</title>
<g id="a_Node000009"><a xlink:title=" ">
<polygon fill="#e0e0e0" stroke="#999999" points="339.12,-74.5 293.88,-74.5 293.88,-55.25 339.12,-55.25 339.12,-74.5"/>
<text text-anchor="middle" x="316.5" y="-61" font-family="Helvetica,sans-Serif" font-size="10.00">cstdint</text>
</a>
</g>
</g>
<!-- Node3&#45;&gt;Node9 -->
<g id="edge44_Node000003_Node000009" class="edge">
<title>Node3&#45;&gt;Node9</title>
<g id="a_edge44_Node000003_Node000009"><a xlink:title=" ">
<path fill="none" stroke="#63b8ff" d="M393.78,-282.17C335.27,-275.83 238.76,-254.76 206.5,-185 185.56,-139.71 246.35,-100.03 285.73,-79.9"/>
<polygon fill="#63b8ff" stroke="#63b8ff" points="287.16,-83.1 294.59,-75.54 284.07,-76.82 287.16,-83.1"/>
</a>
</g>
</g>
<!-- Node12 -->
<g id="Node000012" class="node">
<title>Node12</title>
<g id="a_Node000012"><a xlink:title=" ">
<polygon fill="#e0e0e0" stroke="#999999" points="438.5,-74.5 380.5,-74.5 380.5,-55.25 438.5,-55.25 438.5,-74.5"/>
<text text-anchor="middle" x="409.5" y="-61" font-family="Helvetica,sans-Serif" font-size="10.00">functional</text>
</a>
</g>
</g>
<!-- Node3&#45;&gt;Node12 -->
<g id="edge45_Node000003_Node000012" class="edge">
<title>Node3&#45;&gt;Node12</title>
<g id="a_edge45_Node000003_Node000012"><a xlink:title=" ">
<path fill="none" stroke="#63b8ff" d="M446.31,-275.88C458.43,-255.96 484.33,-206.69 472.5,-165.75 463.29,-133.88 440.56,-102.4 425.07,-83.55"/>
<polygon fill="#63b8ff" stroke="#63b8ff" points="427.86,-81.43 418.73,-76.06 422.52,-85.95 427.86,-81.43"/>
</a>
</g>
</g>
<!-- Node25 -->
<g id="Node000025" class="node">
<title>Node25</title>
<g id="a_Node000025"><a xlink:href="message__queue_8h.html" target="_top" xlink:title="Timed message queue for executing duration&#45;based commands.">
<polygon fill="white" stroke="#666666" points="398.88,-240.25 280.12,-240.25 280.12,-221 398.88,-221 398.88,-240.25"/>
<text text-anchor="middle" x="339.5" y="-226.75" font-family="Helvetica,sans-Serif" font-size="10.00">bcnp/message_queue.h</text>
</a>
</g>
</g>
<!-- Node3&#45;&gt;Node25 -->
<g id="edge34_Node000003_Node000025" class="edge">
<title>Node3&#45;&gt;Node25</title>
<g id="a_edge34_Node000003_Node000025"><a xlink:title=" ">
<path fill="none" stroke="#63b8ff" d="M423.37,-275.84C407.84,-267.66 384.7,-255.46 366.66,-245.94"/>
<polygon fill="#63b8ff" stroke="#63b8ff" points="368.53,-242.98 358.06,-241.41 365.27,-249.17 368.53,-242.98"/>
</a>
</g>
</g>
<!-- Node27 -->
<g id="Node000027" class="node">
<title>Node27</title>
<g id="a_Node000027"><a xlink:title=" ">
<polygon fill="#e0e0e0" stroke="#999999" points="463.12,-185 417.88,-185 417.88,-165.75 463.12,-165.75 463.12,-185"/>
<text text-anchor="middle" x="440.5" y="-171.5" font-family="Helvetica,sans-Serif" font-size="10.00">chrono</text>
</a>
</g>
</g>
<!-- Node3&#45;&gt;Node27 -->
<g id="edge43_Node000003_Node000027" class="edge">
<title>Node3&#45;&gt;Node27</title>
<g id="a_edge43_Node000003_Node000027"><a xlink:title=" ">
<path fill="none" stroke="#63b8ff" d="M440.5,-276C440.5,-258.75 440.5,-220.33 440.5,-196.56"/>
<polygon fill="#63b8ff" stroke="#63b8ff" points="444,-196.89 440.5,-186.89 437,-196.89 444,-196.89"/>
</a>
</g>
</g>
<!-- Node28 -->
<g id="Node000028" class="node">
<title>Node28</title>
<g id="a_Node000028"><a xlink:title=" ">
<polygon fill="#e0e0e0" stroke="#999999" points="121.62,-185 79.38,-185 79.38,-165.75 121.62,-165.75 121.62,-185"/>
<text text-anchor="middle" x="100.5" y="-171.5" font-family="Helvetica,sans-Serif" font-size="10.00">mutex</text>
</a>
</g>
</g>
<!-- Node3&#45;&gt;Node28 -->
<g id="edge46_Node000003_Node000028" class="edge">
<title>Node3&#45;&gt;Node28</title>
<g id="a_edge46_Node000003_Node000028"><a xlink:title=" ">
<path fill="none" stroke="#63b8ff" d="M393.99,-284.84C313.79,-283.78 154.27,-276.97 114.5,-240.25 102.63,-229.29 99.63,-210.78 99.31,-196.49"/>
<polygon fill="#63b8ff" stroke="#63b8ff" points="102.8,-196.92 99.52,-186.84 95.8,-196.76 102.8,-196.92"/>
</a>
</g>
</g>
<!-- Node30 -->
<g id="Node000030" class="node">
<title>Node30</title>
<g id="a_Node000030"><a xlink:title=" ">
<polygon fill="#e0e0e0" stroke="#999999" points="205.88,-240.25 123.12,-240.25 123.12,-221 205.88,-221 205.88,-240.25"/>
<text text-anchor="middle" x="164.5" y="-226.75" font-family="Helvetica,sans-Serif" font-size="10.00">unordered_map</text>
</a>
</g>
</g>
<!-- Node3&#45;&gt;Node30 -->
<g id="edge47_Node000003_Node000030" class="edge">
<title>Node3&#45;&gt;Node30</title>
<g id="a_edge47_Node000003_Node000030"><a xlink:title=" ">
<path fill="none" stroke="#63b8ff" d="M393.99,-275.9C345.15,-266.48 268.46,-251.68 217.36,-241.82"/>
<polygon fill="#63b8ff" stroke="#63b8ff" points="218.19,-238.42 207.71,-239.96 216.86,-245.29 218.19,-238.42"/>
</a>
</g>
</g>
<!-- Node4&#45;&gt;Node5 -->
<g id="edge4_Node000004_Node000005" class="edge">
<title>Node4&#45;&gt;Node5</title>
<g id="a_edge4_Node000004_Node000005"><a xlink:title=" ">
<path fill="none" stroke="#63b8ff" d="M803.09,-220.59C836.08,-211.72 886.63,-198.12 922.96,-188.35"/>
<polygon fill="#63b8ff" stroke="#63b8ff" points="923.54,-191.82 932.29,-185.85 921.72,-185.06 923.54,-191.82"/>
</a>
</g>
</g>
<!-- Node7 -->
<g id="Node000007" class="node">
<title>Node7</title>
<g id="a_Node000007"><a xlink:title=" ">
<polygon fill="#e0e0e0" stroke="#999999" points="846,-74.5 809,-74.5 809,-55.25 846,-55.25 846,-74.5"/>
<text text-anchor="middle" x="827.5" y="-61" font-family="Helvetica,sans-Serif" font-size="10.00">array</text>
</a>
</g>
</g>
<!-- Node4&#45;&gt;Node7 -->
<g id="edge29_Node000004_Node000007" class="edge">
<title>Node4&#45;&gt;Node7</title>
<g id="a_edge29_Node000004_Node000007"><a xlink:title=" ">
<path fill="none" stroke="#63b8ff" d="M771.85,-220.87C775.24,-208.5 781.81,-185.23 788.5,-165.75 798.21,-137.48 811.08,-105.38 819.33,-85.37"/>
<polygon fill="#63b8ff" stroke="#63b8ff" points="822.51,-86.85 823.12,-76.27 816.04,-84.16 822.51,-86.85"/>
</a>
</g>
</g>
<!-- Node8 -->
<g id="Node000008" class="node">
<title>Node8</title>
<g id="a_Node000008"><a xlink:title=" ">
<polygon fill="#e0e0e0" stroke="#999999" points="898.62,-19.25 850.38,-19.25 850.38,0 898.62,0 898.62,-19.25"/>
<text text-anchor="middle" x="874.5" y="-5.75" font-family="Helvetica,sans-Serif" font-size="10.00">cstddef</text>
</a>
</g>
</g>
<!-- Node4&#45;&gt;Node8 -->
<g id="edge30_Node000004_Node000008" class="edge">
<title>Node4&#45;&gt;Node8</title>
<g id="a_edge30_Node000004_Node000008"><a xlink:title=" ">
<path fill="none" stroke="#63b8ff" d="M795.79,-220.6C812.39,-213.51 832.83,-201.98 844.5,-185 877.21,-137.41 878.06,-65.69 876.2,-30.93"/>
<polygon fill="#63b8ff" stroke="#63b8ff" points="879.7,-30.8 875.52,-21.06 872.71,-31.28 879.7,-30.8"/>
</a>
</g>
</g>
<!-- Node4&#45;&gt;Node9 -->
<g id="edge31_Node000004_Node000009" class="edge">
<title>Node4&#45;&gt;Node9</title>
<g id="a_edge31_Node000004_Node000009"><a xlink:title=" ">
<path fill="none" stroke="#63b8ff" d="M744.5,-220.59C668,-192.94 437.04,-109.45 350.09,-78.02"/>
<polygon fill="#63b8ff" stroke="#63b8ff" points="351.53,-74.82 340.94,-74.71 349.15,-81.4 351.53,-74.82"/>
</a>
</g>
</g>
<!-- Node4&#45;&gt;Node12 -->
<g id="edge32_Node000004_Node000012" class="edge">
<title>Node4&#45;&gt;Node12</title>
<g id="a_edge32_Node000004_Node000012"><a xlink:title=" ">
<path fill="none" stroke="#63b8ff" d="M754.15,-220.53C717.99,-199.36 624.26,-145.85 541.5,-110.5 511.33,-97.61 476.08,-85.85 449.6,-77.65"/>
<polygon fill="#63b8ff" stroke="#63b8ff" points="450.86,-74.37 440.27,-74.8 448.81,-81.07 450.86,-74.37"/>
</a>
</g>
</g>
<!-- Node24 -->
<g id="Node000024" class="node">
<title>Node24</title>
<g id="a_Node000024"><a xlink:title=" ">
<polygon fill="#e0e0e0" stroke="#999999" points="835.75,-185 797.25,-185 797.25,-165.75 835.75,-165.75 835.75,-185"/>
<text text-anchor="middle" x="816.5" y="-171.5" font-family="Helvetica,sans-Serif" font-size="10.00">utility</text>
</a>
</g>
</g>
<!-- Node4&#45;&gt;Node24 -->
<g id="edge33_Node000004_Node000024" class="edge">
<title>Node4&#45;&gt;Node24</title>
<g id="a_edge33_Node000004_Node000024"><a xlink:title=" ">
<path fill="none" stroke="#63b8ff" d="M777.26,-220.83C783.69,-213.55 793.01,-202.98 800.96,-193.98"/>
<polygon fill="#63b8ff" stroke="#63b8ff" points="803.58,-196.31 807.57,-186.49 798.33,-191.68 803.58,-196.31"/>
</a>
</g>
</g>
<!-- Node5&#45;&gt;Node6 -->
<g id="edge5_Node000005_Node000006" class="edge">
<title>Node5&#45;&gt;Node6</title>
<g id="a_edge5_Node000005_Node000006"><a xlink:title=" ">
<path fill="none" stroke="#63b8ff" d="M928.85,-166.97C882.05,-158.01 802.75,-142.82 748.34,-132.4"/>
<polygon fill="#63b8ff" stroke="#63b8ff" points="749.1,-128.98 738.62,-130.53 747.78,-135.85 749.1,-128.98"/>
</a>
</g>
</g>
<!-- Node5&#45;&gt;Node8 -->
<g id="edge26_Node000005_Node000008" class="edge">
<title>Node5&#45;&gt;Node8</title>
<g id="a_edge26_Node000005_Node000008"><a xlink:title=" ">
<path fill="none" stroke="#63b8ff" d="M1006.04,-172.17C1062.47,-168.05 1163.27,-156.99 1185.5,-129.75 1190.91,-123.12 1187.37,-118.85 1185.5,-110.5 1179.58,-84.01 1181.22,-71.53 1159.5,-55.25 1120.75,-26.21 977.9,-15.58 910.35,-12.12"/>
<polygon fill="#63b8ff" stroke="#63b8ff" points="910.71,-8.63 900.55,-11.64 910.37,-15.62 910.71,-8.63"/>
</a>
</g>
</g>
<!-- Node5&#45;&gt;Node9 -->
<g id="edge27_Node000005_Node000009" class="edge">
<title>Node5&#45;&gt;Node9</title>
<g id="a_edge27_Node000005_Node000009"><a xlink:title=" ">
<path fill="none" stroke="#63b8ff" d="M928.75,-170.7C864.7,-164.33 732.85,-149.94 622.5,-129.75 586.1,-123.09 577.65,-118.38 541.5,-110.5 474.14,-95.82 394.98,-80.59 350.79,-72.26"/>
<polygon fill="#63b8ff" stroke="#63b8ff" points="351.52,-68.84 341.04,-70.43 350.23,-75.72 351.52,-68.84"/>
</a>
</g>
</g>
<!-- Node16 -->
<g id="Node000016" class="node">
<title>Node16</title>
<g id="a_Node000016"><a xlink:href="static__vector_8h.html" target="_top" xlink:title="Fixed&#45;capacity vector with stack allocation (no heap).">
<polygon fill="white" stroke="#666666" points="1323.38,-74.5 1219.62,-74.5 1219.62,-55.25 1323.38,-55.25 1323.38,-74.5"/>
<text text-anchor="middle" x="1271.5" y="-61" font-family="Helvetica,sans-Serif" font-size="10.00">bcnp/static_vector.h</text>
</a>
</g>
</g>
<!-- Node5&#45;&gt;Node16 -->
<g id="edge15_Node000005_Node000016" class="edge">
<title>Node5&#45;&gt;Node16</title>
<g id="a_edge15_Node000005_Node000016"><a xlink:title=" ">
<path fill="none" stroke="#63b8ff" d="M1006.05,-170.78C1067.17,-164.55 1183.02,-150.4 1218.5,-129.75 1237.14,-118.9 1252.1,-98.9 1261.31,-84.16"/>
<polygon fill="#63b8ff" stroke="#63b8ff" points="1264.14,-86.26 1266.21,-75.87 1258.11,-82.7 1264.14,-86.26"/>
</a>
</g>
</g>
<!-- Node20 -->
<g id="Node000020" class="node">
<title>Node20</title>
<g id="a_Node000020"><a xlink:href="packet__storage_8h.html" target="_top" xlink:title=" ">
<polygon fill="white" stroke="#666666" points="1176.62,-129.75 1062.38,-129.75 1062.38,-110.5 1176.62,-110.5 1176.62,-129.75"/>
<text text-anchor="middle" x="1119.5" y="-116.25" font-family="Helvetica,sans-Serif" font-size="10.00">bcnp/packet_storage.h</text>
</a>
</g>
</g>
<!-- Node5&#45;&gt;Node20 -->
<g id="edge20_Node000005_Node000020" class="edge">
<title>Node5&#45;&gt;Node20</title>
<g id="a_edge20_Node000005_Node000020"><a xlink:title=" ">
<path fill="none" stroke="#63b8ff" d="M993.28,-165.34C1017.85,-156.74 1055.09,-143.69 1082.76,-134"/>
<polygon fill="#63b8ff" stroke="#63b8ff" points="1083.88,-137.31 1092.16,-130.7 1081.57,-130.71 1083.88,-137.31"/>
</a>
</g>
</g>
<!-- Node5&#45;&gt;Node22 -->
<g id="edge28_Node000005_Node000022" class="edge">
<title>Node5&#45;&gt;Node22</title>
<g id="a_edge28_Node000005_Node000022"><a xlink:title=" ">
<path fill="none" stroke="#63b8ff" d="M964.96,-165.5C960.01,-148.17 948.96,-109.48 942.17,-85.74"/>
<polygon fill="#63b8ff" stroke="#63b8ff" points="945.6,-84.99 939.49,-76.33 938.87,-86.91 945.6,-84.99"/>
</a>
</g>
</g>
<!-- Node23 -->
<g id="Node000023" class="node">
<title>Node23</title>
<g id="a_Node000023"><a xlink:title=" ">
<polygon fill="#e0e0e0" stroke="#999999" points="1043.88,-129.75 967.12,-129.75 967.12,-110.5 1043.88,-110.5 1043.88,-129.75"/>
<text text-anchor="middle" x="1005.5" y="-116.25" font-family="Helvetica,sans-Serif" font-size="10.00">crab/prelude.h</text>
</a>
</g>
</g>
<!-- Node5&#45;&gt;Node23 -->
<g id="edge25_Node000005_Node000023" class="edge">
<title>Node5&#45;&gt;Node23</title>
<g id="a_edge25_Node000005_Node000023"><a xlink:title=" ">
<path fill="none" stroke="#63b8ff" d="M973.77,-165.58C978.86,-158.46 986.2,-148.18 992.53,-139.3"/>
<polygon fill="#63b8ff" stroke="#63b8ff" points="995.25,-141.51 998.21,-131.34 989.55,-137.45 995.25,-141.51"/>
</a>
</g>
</g>
<!-- Node6&#45;&gt;Node7 -->
<g id="edge6_Node000006_Node000007" class="edge">
<title>Node6&#45;&gt;Node7</title>
<g id="a_edge6_Node000006_Node000007"><a xlink:title=" ">
<path fill="none" stroke="#63b8ff" d="M712.91,-110.09C736.49,-100.99 772.92,-86.93 798.36,-77.12"/>
<polygon fill="#63b8ff" stroke="#63b8ff" points="799.37,-80.48 807.44,-73.62 796.85,-73.95 799.37,-80.48"/>
</a>
</g>
</g>
<!-- Node6&#45;&gt;Node8 -->
<g id="edge7_Node000006_Node000008" class="edge">
<title>Node6&#45;&gt;Node8</title>
<g id="a_edge7_Node000006_Node000008"><a xlink:title=" ">
<path fill="none" stroke="#63b8ff" d="M704.95,-110.06C736.92,-91.31 810.56,-48.12 849.43,-25.33"/>
<polygon fill="#63b8ff" stroke="#63b8ff" points="850.8,-28.58 857.65,-20.51 847.26,-22.55 850.8,-28.58"/>
</a>
</g>
</g>
<!-- Node6&#45;&gt;Node9 -->
<g id="edge8_Node000006_Node000009" class="edge">
<title>Node6&#45;&gt;Node9</title>
<g id="a_edge8_Node000006_Node000009"><a xlink:title=" ">
<path fill="none" stroke="#63b8ff" d="M631.14,-111.22C567.33,-102.52 462.07,-87.96 371.5,-74.5 364.76,-73.5 357.57,-72.4 350.68,-71.32"/>
<polygon fill="#63b8ff" stroke="#63b8ff" points="351.42,-67.9 341,-69.8 350.33,-74.81 351.42,-67.9"/>
</a>
</g>
</g>
<!-- Node10 -->
<g id="Node000010" class="node">
<title>Node10</title>
<g id="a_Node000010"><a xlink:title=" ">
<polygon fill="#e0e0e0" stroke="#999999" points="500,-74.5 457,-74.5 457,-55.25 500,-55.25 500,-74.5"/>
<text text-anchor="middle" x="478.5" y="-61" font-family="Helvetica,sans-Serif" font-size="10.00">cmath</text>
</a>
</g>
</g>
<!-- Node6&#45;&gt;Node10 -->
<g id="edge9_Node000006_Node000010" class="edge">
<title>Node6&#45;&gt;Node10</title>
<g id="a_edge9_Node000006_Node000010"><a xlink:title=" ">
<path fill="none" stroke="#63b8ff" d="M650.9,-110.06C616.55,-101.89 564.67,-89.32 511.44,-75.22"/>
<polygon fill="#63b8ff" stroke="#63b8ff" points="512.45,-71.87 501.89,-72.67 510.65,-78.63 512.45,-71.87"/>
</a>
</g>
</g>
<!-- Node11 -->
<g id="Node000011" class="node">
<title>Node11</title>
<g id="a_Node000011"><a xlink:title=" ">
<polygon fill="#e0e0e0" stroke="#999999" points="563.12,-74.5 517.88,-74.5 517.88,-55.25 563.12,-55.25 563.12,-74.5"/>
<text text-anchor="middle" x="540.5" y="-61" font-family="Helvetica,sans-Serif" font-size="10.00">cstring</text>
</a>
</g>
</g>
<!-- Node6&#45;&gt;Node11 -->
<g id="edge10_Node000006_Node000011" class="edge">
<title>Node6&#45;&gt;Node11</title>
<g id="a_edge10_Node000006_Node000011"><a xlink:title=" ">
<path fill="none" stroke="#63b8ff" d="M664.22,-110.09C639.41,-101.22 601.42,-87.65 574.08,-77.88"/>
<polygon fill="#63b8ff" stroke="#63b8ff" points="575.47,-74.66 564.87,-74.59 573.11,-81.25 575.47,-74.66"/>
</a>
</g>
</g>
<!-- Node6&#45;&gt;Node12 -->
<g id="edge11_Node000006_Node000012" class="edge">
<title>Node6&#45;&gt;Node12</title>
<g id="a_edge11_Node000006_Node000012"><a xlink:title=" ">
<path fill="none" stroke="#63b8ff" d="M636.98,-110.08C590.37,-101.91 520.15,-89.25 450.16,-74.98"/>
<polygon fill="#63b8ff" stroke="#63b8ff" points="450.91,-71.56 440.42,-72.98 449.51,-78.42 450.91,-71.56"/>
</a>
</g>
</g>
<!-- Node13 -->
<g id="Node000013" class="node">
<title>Node13</title>
<g id="a_Node000013"><a xlink:title=" ">
<polygon fill="#e0e0e0" stroke="#999999" points="620.12,-74.5 580.88,-74.5 580.88,-55.25 620.12,-55.25 620.12,-74.5"/>
<text text-anchor="middle" x="600.5" y="-61" font-family="Helvetica,sans-Serif" font-size="10.00">limits</text>
</a>
</g>
</g>
<!-- Node6&#45;&gt;Node13 -->
<g id="edge12_Node000006_Node000013" class="edge">
<title>Node6&#45;&gt;Node13</title>
<g id="a_edge12_Node000006_Node000013"><a xlink:title=" ">
<path fill="none" stroke="#63b8ff" d="M674.4,-110.09C660.98,-102.06 641.09,-90.16 625.33,-80.73"/>
<polygon fill="#63b8ff" stroke="#63b8ff" points="627.35,-77.86 616.97,-75.73 623.75,-83.87 627.35,-77.86"/>
</a>
</g>
</g>
<!-- Node14 -->
<g id="Node000014" class="node">
<title>Node14</title>
<g id="a_Node000014"><a xlink:title=" ">
<polygon fill="#e0e0e0" stroke="#999999" points="688.38,-74.5 638.62,-74.5 638.62,-55.25 688.38,-55.25 688.38,-74.5"/>
<text text-anchor="middle" x="663.5" y="-61" font-family="Helvetica,sans-Serif" font-size="10.00">optional</text>
</a>
</g>
</g>
<!-- Node6&#45;&gt;Node14 -->
<g id="edge13_Node000006_Node000014" class="edge">
<title>Node6&#45;&gt;Node14</title>
<g id="a_edge13_Node000006_Node000014"><a xlink:title=" ">
<path fill="none" stroke="#63b8ff" d="M685.21,-110.33C681.88,-103.51 677.14,-93.81 672.94,-85.2"/>
<polygon fill="#63b8ff" stroke="#63b8ff" points="676.08,-83.67 668.55,-76.22 669.79,-86.74 676.08,-83.67"/>
</a>
</g>
</g>
<!-- Node15 -->
<g id="Node000015" class="node">
<title>Node15</title>
<g id="a_Node000015"><a xlink:title=" ">
<polygon fill="#e0e0e0" stroke="#999999" points="752.12,-74.5 706.88,-74.5 706.88,-55.25 752.12,-55.25 752.12,-74.5"/>
<text text-anchor="middle" x="729.5" y="-61" font-family="Helvetica,sans-Serif" font-size="10.00">variant</text>
</a>
</g>
</g>
<!-- Node6&#45;&gt;Node15 -->
<g id="edge14_Node000006_Node000015" class="edge">
<title>Node6&#45;&gt;Node15</title>
<g id="a_edge14_Node000006_Node000015"><a xlink:title=" ">
<path fill="none" stroke="#63b8ff" d="M696.11,-110.33C701.46,-103.21 709.18,-92.93 715.85,-84.05"/>
<polygon fill="#63b8ff" stroke="#63b8ff" points="718.63,-86.17 721.84,-76.07 713.04,-81.96 718.63,-86.17"/>
</a>
</g>
</g>
<!-- Node16&#45;&gt;Node8 -->
<g id="edge17_Node000016_Node000008" class="edge">
<title>Node16&#45;&gt;Node8</title>
<g id="a_edge17_Node000016_Node000008"><a xlink:title=" ">
<path fill="none" stroke="#63b8ff" d="M1219.19,-56.86C1137.19,-45.86 980.49,-24.84 910.19,-15.41"/>
<polygon fill="#63b8ff" stroke="#63b8ff" points="910.76,-11.96 900.38,-14.1 909.83,-18.9 910.76,-11.96"/>
</a>
</g>
</g>
<!-- Node17 -->
<g id="Node000017" class="node">
<title>Node17</title>
<g id="a_Node000017"><a xlink:title=" ">
<polygon fill="#e0e0e0" stroke="#999999" points="1322.25,-19.25 1220.75,-19.25 1220.75,0 1322.25,0 1322.25,-19.25"/>
<text text-anchor="middle" x="1271.5" y="-5.75" font-family="Helvetica,sans-Serif" font-size="10.00">crab/static_vector.h</text>
</a>
</g>
</g>
<!-- Node16&#45;&gt;Node17 -->
<g id="edge16_Node000016_Node000017" class="edge">
<title>Node16&#45;&gt;Node17</title>
<g id="a_edge16_Node000016_Node000017"><a xlink:title=" ">
<path fill="none" stroke="#63b8ff" d="M1271.5,-55.08C1271.5,-48.57 1271.5,-39.42 1271.5,-31.12"/>
<polygon fill="#63b8ff" stroke="#63b8ff" points="1275,-31.12 1271.5,-21.12 1268,-31.12 1275,-31.12"/>
</a>
</g>
</g>
<!-- Node18 -->
<g id="Node000018" class="node">
<title>Node18</title>
<g id="a_Node000018"><a xlink:title=" ">
<polygon fill="#e0e0e0" stroke="#999999" points="1412.25,-19.25 1340.75,-19.25 1340.75,0 1412.25,0 1412.25,-19.25"/>
<text text-anchor="middle" x="1376.5" y="-5.75" font-family="Helvetica,sans-Serif" font-size="10.00">initializer_list</text>
</a>
</g>
</g>
<!-- Node16&#45;&gt;Node18 -->
<g id="edge18_Node000016_Node000018" class="edge">
<title>Node16&#45;&gt;Node18</title>
<g id="a_edge18_Node000016_Node000018"><a xlink:title=" ">
<path fill="none" stroke="#63b8ff" d="M1289.31,-54.84C1305.53,-46.62 1329.74,-34.34 1348.53,-24.81"/>
<polygon fill="#63b8ff" stroke="#63b8ff" points="1349.92,-28.03 1357.25,-20.39 1346.75,-21.79 1349.92,-28.03"/>
</a>
</g>
</g>
<!-- Node19 -->
<g id="Node000019" class="node">
<title>Node19</title>
<g id="a_Node000019"><a xlink:title=" ">
<polygon fill="#e0e0e0" stroke="#999999" points="1202.5,-19.25 1144.5,-19.25 1144.5,0 1202.5,0 1202.5,-19.25"/>
<text text-anchor="middle" x="1173.5" y="-5.75" font-family="Helvetica,sans-Serif" font-size="10.00">stdexcept</text>
</a>
</g>
</g>
<!-- Node16&#45;&gt;Node19 -->
<g id="edge19_Node000016_Node000019" class="edge">
<title>Node16&#45;&gt;Node19</title>
<g id="a_edge19_Node000016_Node000019"><a xlink:title=" ">
<path fill="none" stroke="#63b8ff" d="M1254.88,-54.84C1239.81,-46.66 1217.36,-34.46 1199.85,-24.94"/>
<polygon fill="#63b8ff" stroke="#63b8ff" points="1201.99,-22.12 1191.54,-20.43 1198.65,-28.27 1201.99,-22.12"/>
</a>
</g>
</g>
<!-- Node20&#45;&gt;Node8 -->
<g id="edge22_Node000020_Node000008" class="edge">
<title>Node20&#45;&gt;Node8</title>
<g id="a_edge22_Node000020_Node000008"><a xlink:title=" ">
<path fill="none" stroke="#63b8ff" d="M1099.03,-110.06C1056.07,-91.03 956.26,-46.83 905.44,-24.33"/>
<polygon fill="#63b8ff" stroke="#63b8ff" points="907.03,-21.2 896.47,-20.35 904.19,-27.6 907.03,-21.2"/>
</a>
</g>
</g>
<!-- Node20&#45;&gt;Node16 -->
<g id="edge21_Node000020_Node000016" class="edge">
<title>Node20&#45;&gt;Node16</title>
<g id="a_edge21_Node000020_Node000016"><a xlink:title=" ">
<path fill="none" stroke="#63b8ff" d="M1145.28,-110.09C1169.85,-101.49 1207.09,-88.44 1234.76,-78.75"/>
<polygon fill="#63b8ff" stroke="#63b8ff" points="1235.88,-82.06 1244.16,-75.45 1233.57,-75.46 1235.88,-82.06"/>
</a>
</g>
</g>
<!-- Node21 -->
<g id="Node000021" class="node">
<title>Node21</title>
<g id="a_Node000021"><a xlink:title=" ">
<polygon fill="#e0e0e0" stroke="#999999" points="1150,-74.5 1089,-74.5 1089,-55.25 1150,-55.25 1150,-74.5"/>
<text text-anchor="middle" x="1119.5" y="-61" font-family="Helvetica,sans-Serif" font-size="10.00">type_traits</text>
</a>
</g>
</g>
<!-- Node20&#45;&gt;Node21 -->
<g id="edge23_Node000020_Node000021" class="edge">
<title>Node20&#45;&gt;Node21</title>
<g id="a_edge23_Node000020_Node000021"><a xlink:title=" ">
<path fill="none" stroke="#63b8ff" d="M1119.5,-110.33C1119.5,-103.82 1119.5,-94.67 1119.5,-86.37"/>
<polygon fill="#63b8ff" stroke="#63b8ff" points="1123,-86.37 1119.5,-76.37 1116,-86.37 1123,-86.37"/>
</a>
</g>
</g>
<!-- Node20&#45;&gt;Node22 -->
<g id="edge24_Node000020_Node000022" class="edge">
<title>Node20&#45;&gt;Node22</title>
<g id="a_edge24_Node000020_Node000022"><a xlink:title=" ">
<path fill="none" stroke="#63b8ff" d="M1088.46,-110.09C1055.29,-100.44 1002.94,-85.21 969.17,-75.38"/>
<polygon fill="#63b8ff" stroke="#63b8ff" points="970.51,-72.13 959.93,-72.69 968.56,-78.85 970.51,-72.13"/>
</a>
</g>
</g>
<!-- Node25&#45;&gt;Node8 -->
<g id="edge37_Node000025_Node000008" class="edge">
<title>Node25&#45;&gt;Node8</title>
<g id="a_edge37_Node000025_Node000008"><a xlink:title=" ">
<path fill="none" stroke="#63b8ff" d="M279.85,-225.04C252.85,-219.64 223.28,-208.33 206.5,-185 169.4,-133.43 132.79,-141.27 284.5,-55.25 332.66,-27.94 718.16,-14.98 838.65,-11.57"/>
<polygon fill="#63b8ff" stroke="#63b8ff" points="838.69,-15.07 848.59,-11.29 838.49,-8.07 838.69,-15.07"/>
</a>
</g>
</g>
<!-- Node25&#45;&gt;Node9 -->
<g id="edge38_Node000025_Node000009" class="edge">
<title>Node25&#45;&gt;Node9</title>
<g id="a_edge38_Node000025_Node000009"><a xlink:title=" ">
<path fill="none" stroke="#63b8ff" d="M338.26,-220.82C334.71,-195.5 324.38,-122 319.34,-86.09"/>
<polygon fill="#63b8ff" stroke="#63b8ff" points="322.81,-85.64 317.95,-76.22 315.88,-86.61 322.81,-85.64"/>
</a>
</g>
</g>
<!-- Node25&#45;&gt;Node22 -->
<g id="edge40_Node000025_Node000022" class="edge">
<title>Node25&#45;&gt;Node22</title>
<g id="a_edge40_Node000025_Node000022"><a xlink:title=" ">
<path fill="none" stroke="#63b8ff" d="M384.35,-220.52C461.18,-204.55 622.67,-169.4 756.5,-129.75 808.94,-114.21 868.53,-92.18 904.28,-78.47"/>
<polygon fill="#63b8ff" stroke="#63b8ff" points="905.1,-81.91 913.17,-75.05 902.58,-75.38 905.1,-81.91"/>
</a>
</g>
</g>
<!-- Node26 -->
<g id="Node000026" class="node">
<title>Node26</title>
<g id="a_Node000026"><a xlink:title=" ">
<polygon fill="#e0e0e0" stroke="#999999" points="399.38,-185 343.62,-185 343.62,-165.75 399.38,-165.75 399.38,-185"/>
<text text-anchor="middle" x="371.5" y="-171.5" font-family="Helvetica,sans-Serif" font-size="10.00">algorithm</text>
</a>
</g>
</g>
<!-- Node25&#45;&gt;Node26 -->
<g id="edge35_Node000025_Node000026" class="edge">
<title>Node25&#45;&gt;Node26</title>
<g id="a_edge35_Node000025_Node000026"><a xlink:title=" ">
<path fill="none" stroke="#63b8ff" d="M344.78,-220.83C348.97,-213.86 354.98,-203.87 360.23,-195.12"/>
<polygon fill="#63b8ff" stroke="#63b8ff" points="363.17,-197.03 365.32,-186.66 357.17,-193.43 363.17,-197.03"/>
</a>
</g>
</g>
<!-- Node25&#45;&gt;Node27 -->
<g id="edge36_Node000025_Node000027" class="edge">
<title>Node25&#45;&gt;Node27</title>
<g id="a_edge36_Node000025_Node000027"><a xlink:title=" ">
<path fill="none" stroke="#63b8ff" d="M356.63,-220.59C372.16,-212.41 395.3,-200.21 413.34,-190.69"/>
<polygon fill="#63b8ff" stroke="#63b8ff" points="414.73,-193.92 421.94,-186.16 411.47,-187.73 414.73,-193.92"/>
</a>
</g>
</g>
<!-- Node25&#45;&gt;Node28 -->
<g id="edge39_Node000025_Node000028" class="edge">
<title>Node25&#45;&gt;Node28</title>
<g id="a_edge39_Node000025_Node000028"><a xlink:title=" ">
<path fill="none" stroke="#63b8ff" d="M296.44,-220.55C255.11,-211.76 190.94,-197.89 135.5,-185 134.68,-184.81 133.84,-184.61 133,-184.42"/>
<polygon fill="#63b8ff" stroke="#63b8ff" points="133.96,-181.05 123.42,-182.11 132.32,-187.85 133.96,-181.05"/>
</a>
</g>
</g>
<!-- Node29 -->
<g id="Node000029" class="node">
<title>Node29</title>
<g id="a_Node000029"><a xlink:title=" ">
<polygon fill="#e0e0e0" stroke="#999999" points="287.25,-185 215.75,-185 215.75,-165.75 287.25,-165.75 287.25,-185"/>
<text text-anchor="middle" x="251.5" y="-171.5" font-family="Helvetica,sans-Serif" font-size="10.00">crab/option.h</text>
</a>
</g>
</g>
<!-- Node25&#45;&gt;Node29 -->
<g id="edge41_Node000025_Node000029" class="edge">
<title>Node25&#45;&gt;Node29</title>
<g id="a_edge41_Node000025_Node000029"><a xlink:title=" ">
<path fill="none" stroke="#63b8ff" d="M324.57,-220.59C311.3,-212.56 291.63,-200.66 276.05,-191.23"/>
<polygon fill="#63b8ff" stroke="#63b8ff" points="278.16,-188.42 267.8,-186.24 274.54,-194.41 278.16,-188.42"/>
</a>
</g>
</g>
<!-- Node31&#45;&gt;Node8 -->
<g id="edge49_Node000031_Node000008" class="edge">
<title>Node31&#45;&gt;Node8</title>
<g id="a_edge49_Node000031_Node000008"><a xlink:title=" ">
<path fill="none" stroke="#63b8ff" d="M67.64,-110.08C79.77,-95.47 105.99,-67.13 135.5,-55.25 201.1,-28.83 700.1,-14.85 838.82,-11.45"/>
<polygon fill="#63b8ff" stroke="#63b8ff" points="838.59,-14.96 848.5,-11.22 838.42,-7.96 838.59,-14.96"/>
</a>
</g>
</g>
<!-- Node31&#45;&gt;Node9 -->
<g id="edge50_Node000031_Node000009" class="edge">
<title>Node31&#45;&gt;Node9</title>
<g id="a_edge50_Node000031_Node000009"><a xlink:title=" ">
<path fill="none" stroke="#63b8ff" d="M104.22,-110.03C154.66,-99.54 236.55,-82.51 282.48,-72.95"/>
<polygon fill="#63b8ff" stroke="#63b8ff" points="283.05,-76.41 292.13,-70.94 281.63,-69.55 283.05,-76.41"/>
</a>
</g>
</g>
</g>
</svg>
