<?xml version="1.0" encoding="UTF-8" standalone="no"?>
<!DOCTYPE svg PUBLIC "-//W3C//DTD SVG 1.1//EN"
 "http://www.w3.org/Graphics/SVG/1.1/DTD/svg11.dtd">
<!-- Generated by graphviz version 12.2.0 (20241103.1931)
 -->
<!-- Title: bcnp/dispatcher.cpp Pages: 1 -->
<!--zoomable 359 -->

<svg id="main" version="1.1" xmlns="http://www.w3.org/2000/svg" xmlns:xlink="http://www.w3.org/1999/xlink" xml:space="preserve" onload="init(evt)">

<style type="text/css"><![CDATA[
.node, .edge {opacity: 0.7;}
.node.selected, .edge.selected {opacity: 1;}
.edge:hover path { stroke: red; }
.edge:hover polygon { stroke: red; fill: red; }
]]></style>

<defs>
  <circle id="rim" cx="0" cy="0" r="7"/>
  <circle id="rim2" cx="0" cy="0" r="3.5"/>
  <g id="zoomPlus">
    <use xlink:href="#rim" fill="#404040"><set attributeName="fill" to="#808080" begin="zoomplus.mouseover" end="zoomplus.mouseout"/></use>
    <path d="M-4,0h8M0,-4v8" fill="none" stroke="white" stroke-width="1.5" pointer-events="none"/>
  </g>
  <g id="zoomMin">
    <use xlink:href="#rim" fill="#404040"><set attributeName="fill" to="#808080" begin="zoomminus.mouseover" end="zoomminus.mouseout"/></use>
    <path d="M-4,0h8" fill="none" stroke="white" stroke-width="1.5" pointer-events="none"/>
  </g>
  <g id="arrowUp" transform="translate(30 24)">
    <use xlink:href="#rim"/>
    <path pointer-events="none" fill="none" stroke="white" stroke-width="1.5" d="M0,-3.0v7 M-2.5,-0.5L0,-3.0L2.5,-0.5"/>
  </g>
  <g id="arrowRight" transform="rotate(90) translate(36 -43)">
    <use xlink:href="#rim"/>
    <path pointer-events="none" fill="none" stroke="white" stroke-width="1.5" d="M0,-3.0v7 M-2.5,-0.5L0,-3.0L2.5,-0.5"/>
  </g>
  <g id="arrowDown" transform="rotate(180) translate(-30 -48)">
    <use xlink:href="#rim"/>
    <path pointer-events="none" fill="none" stroke="white" stroke-width="1.5" d="M0,-3.0v7 M-2.5,-0.5L0,-3.0L2.5,-0.5"/>
  </g>
  <g id="arrowLeft" transform="rotate(270) translate(-36 17)">
    <use xlink:href="#rim"/>
    <path pointer-events="none" fill="none" stroke="white" stroke-width="1.5" d="M0,-3.0v7 M-2.5,-0.5L0,-3.0L2.5,-0.5"/>
  </g>
  <g id="resetDef">
    <use xlink:href="#rim2" fill="#404040"><set attributeName="fill" to="#808080" begin="reset.mouseover" end="reset.mouseout"/></use>
  </g>
</defs>
<script type="application/ecmascript">
var viewWidth = 1273;
var viewHeight = 359;
var sectionId = 'dynsection-0';
</script>
<script type="application/ecmascript" xlink:href="svg.min.js"/>
<svg id="graph" class="graph">
<g id="viewport">
<title>bcnp/dispatcher.cpp</title>
<!-- Node1 -->
<g id="Node000001" class="node">
<title>Node1</title>
<g id="a_Node000001"><a xlink:title="Implementation of the BCNP packet dispatcher.">
<polygon fill="#999999" stroke="#666666" points="1036.75,-350.75 933.75,-350.75 933.75,-331.5 1036.75,-331.5 1036.75,-350.75"/>
<text text-anchor="middle" x="985.25" y="-337.25" font-family="Helvetica,sans-Serif" font-size="10.00">bcnp/dispatcher.cpp</text>
</a>
</g>
</g>
<!-- Node2 -->
<g id="Node000002" class="node">
<title>Node2</title>
<g id="a_Node000002"><a xlink:href="dispatcher_8h.html" target="_top" xlink:title=" ">
<polygon fill="white" stroke="#666666" points="1031.5,-295.5 939,-295.5 939,-276.25 1031.5,-276.25 1031.5,-295.5"/>
<text text-anchor="middle" x="985.25" y="-282" font-family="Helvetica,sans-Serif" font-size="10.00">bcnp/dispatcher.h</text>
</a>
</g>
</g>
<!-- Node1&#45;&gt;Node2 -->
<g id="edge1_Node000001_Node000002" class="edge">
<title>Node1&#45;&gt;Node2</title>
<g id="a_edge1_Node000001_Node000002"><a xlink:title=" ">
<path fill="none" stroke="#63b8ff" d="M985.25,-331.33C985.25,-324.82 985.25,-315.67 985.25,-307.37"/>
<polygon fill="#63b8ff" stroke="#63b8ff" points="988.75,-307.37 985.25,-297.37 981.75,-307.37 988.75,-307.37"/>
</a>
</g>
</g>
<!-- Node3 -->
<g id="Node000003" class="node">
<title>Node3</title>
<g id="a_Node000003"><a xlink:href="stream__parser_8h.html" target="_top" xlink:title=" ">
<polygon fill="white" stroke="#666666" points="526.12,-240.25 416.38,-240.25 416.38,-221 526.12,-221 526.12,-240.25"/>
<text text-anchor="middle" x="471.25" y="-226.75" font-family="Helvetica,sans-Serif" font-size="10.00">bcnp/stream_parser.h</text>
</a>
</g>
</g>
<!-- Node2&#45;&gt;Node3 -->
<g id="edge2_Node000002_Node000003" class="edge">
<title>Node2&#45;&gt;Node3</title>
<g id="a_edge2_Node000002_Node000003"><a xlink:title=" ">
<path fill="none" stroke="#63b8ff" d="M938.73,-280.06C847.17,-270.57 643.33,-249.45 537.65,-238.5"/>
<polygon fill="#63b8ff" stroke="#63b8ff" points="538.31,-235.05 528.01,-237.5 537.59,-242.02 538.31,-235.05"/>
</a>
</g>
</g>
<!-- Node5 -->
<g id="Node000005" class="node">
<title>Node5</title>
<g id="a_Node000005"><a xlink:href="message__types_8h.html" target="_top" xlink:title=" ">
<polygon fill="white" stroke="#666666" points="724.12,-129.75 608.38,-129.75 608.38,-110.5 724.12,-110.5 724.12,-129.75"/>
<text text-anchor="middle" x="666.25" y="-116.25" font-family="Helvetica,sans-Serif" font-size="10.00">bcnp/message_types.h</text>
</a>
</g>
</g>
<!-- Node2&#45;&gt;Node5 -->
<g id="edge43_Node000002_Node000005" class="edge">
<title>Node2&#45;&gt;Node5</title>
<g id="a_edge43_Node000002_Node000005"><a xlink:title=" ">
<path fill="none" stroke="#63b8ff" d="M965.09,-275.76C945.77,-266.94 915.83,-253.05 890.25,-240.25 817.96,-204.08 734.2,-158.55 692.56,-135.66"/>
<polygon fill="#63b8ff" stroke="#63b8ff" points="694.46,-132.71 684.01,-130.96 691.08,-138.84 694.46,-132.71"/>
</a>
</g>
</g>
<!-- Node8 -->
<g id="Node000008" class="node">
<title>Node8</title>
<g id="a_Node000008"><a xlink:title=" ">
<polygon fill="#e0e0e0" stroke="#999999" points="979.88,-74.5 934.62,-74.5 934.62,-55.25 979.88,-55.25 979.88,-74.5"/>
<text text-anchor="middle" x="957.25" y="-61" font-family="Helvetica,sans-Serif" font-size="10.00">cstdint</text>
</a>
</g>
</g>
<!-- Node2&#45;&gt;Node8 -->
<g id="edge45_Node000002_Node000008" class="edge">
<title>Node2&#45;&gt;Node8</title>
<g id="a_edge45_Node000002_Node000008"><a xlink:title=" ">
<path fill="none" stroke="#63b8ff" d="M983.55,-275.82C979.15,-252 967.3,-185.56 961.25,-129.75 959.69,-115.32 958.68,-98.99 958.06,-86.45"/>
<polygon fill="#63b8ff" stroke="#63b8ff" points="961.56,-86.34 957.63,-76.51 954.57,-86.65 961.56,-86.34"/>
</a>
</g>
</g>
<!-- Node11 -->
<g id="Node000011" class="node">
<title>Node11</title>
<g id="a_Node000011"><a xlink:title=" ">
<polygon fill="#e0e0e0" stroke="#999999" points="848.25,-74.5 790.25,-74.5 790.25,-55.25 848.25,-55.25 848.25,-74.5"/>
<text text-anchor="middle" x="819.25" y="-61" font-family="Helvetica,sans-Serif" font-size="10.00">functional</text>
</a>
</g>
</g>
<!-- Node2&#45;&gt;Node11 -->
<g id="edge46_Node000002_Node000011" class="edge">
<title>Node2&#45;&gt;Node11</title>
<g id="a_edge46_Node000002_Node000011"><a xlink:title=" ">
<path fill="none" stroke="#63b8ff" d="M978.54,-276.02C953.66,-243.2 866.46,-128.16 832.72,-83.65"/>
<polygon fill="#63b8ff" stroke="#63b8ff" points="835.61,-81.66 826.78,-75.81 830.03,-85.89 835.61,-81.66"/>
</a>
</g>
</g>
<!-- Node23 -->
<g id="Node000023" class="node">
<title>Node23</title>
<g id="a_Node000023"><a xlink:href="message__queue_8h.html" target="_top" xlink:title="Timed message queue for executing duration&#45;based commands.">
<polygon fill="white" stroke="#666666" points="1088.62,-129.75 969.88,-129.75 969.88,-110.5 1088.62,-110.5 1088.62,-129.75"/>
<text text-anchor="middle" x="1029.25" y="-116.25" font-family="Helvetica,sans-Serif" font-size="10.00">bcnp/message_queue.h</text>
</a>
</g>
</g>
<!-- Node2&#45;&gt;Node23 -->
<g id="edge35_Node000002_Node000023" class="edge">
<title>Node2&#45;&gt;Node23</title>
<g id="a_edge35_Node000002_Node000023"><a xlink:title=" ">
<path fill="none" stroke="#63b8ff" d="M987.62,-276.07C994.45,-250.64 1014.34,-176.6 1023.94,-140.87"/>
<polygon fill="#63b8ff" stroke="#63b8ff" points="1027.26,-142 1026.48,-131.43 1020.5,-140.18 1027.26,-142"/>
</a>
</g>
</g>
<!-- Node25 -->
<g id="Node000025" class="node">
<title>Node25</title>
<g id="a_Node000025"><a xlink:title=" ">
<polygon fill="#e0e0e0" stroke="#999999" points="1155.88,-74.5 1110.62,-74.5 1110.62,-55.25 1155.88,-55.25 1155.88,-74.5"/>
<text text-anchor="middle" x="1133.25" y="-61" font-family="Helvetica,sans-Serif" font-size="10.00">chrono</text>
</a>
</g>
</g>
<!-- Node2&#45;&gt;Node25 -->
<g id="edge44_Node000002_Node000025" class="edge">
<title>Node2&#45;&gt;Node25</title>
<g id="a_edge44_Node000002_Node000025"><a xlink:title=" ">
<path fill="none" stroke="#63b8ff" d="M992.18,-276.03C1010.32,-252.71 1060.37,-187.39 1097.25,-129.75 1106.7,-114.99 1116.39,-97.63 1123.34,-84.74"/>
<polygon fill="#63b8ff" stroke="#63b8ff" points="1126.34,-86.54 1127.95,-76.07 1120.16,-83.26 1126.34,-86.54"/>
</a>
</g>
</g>
<!-- Node26 -->
<g id="Node000026" class="node">
<title>Node26</title>
<g id="a_Node000026"><a xlink:title=" ">
<polygon fill="#e0e0e0" stroke="#999999" points="1216.38,-74.5 1174.12,-74.5 1174.12,-55.25 1216.38,-55.25 1216.38,-74.5"/>
<text text-anchor="middle" x="1195.25" y="-61" font-family="Helvetica,sans-Serif" font-size="10.00">mutex</text>
</a>
</g>
</g>
<!-- Node2&#45;&gt;Node26 -->
<g id="edge47_Node000002_Node000026" class="edge">
<title>Node2&#45;&gt;Node26</title>
<g id="a_edge47_Node000002_Node000026"><a xlink:title=" ">
<path fill="none" stroke="#63b8ff" d="M997.52,-275.83C1008.99,-267.18 1026.38,-253.51 1040.25,-240.25 1096.24,-186.73 1155.06,-115.87 1181.25,-83.44"/>
<polygon fill="#63b8ff" stroke="#63b8ff" points="1183.81,-85.84 1187.34,-75.85 1178.36,-81.46 1183.81,-85.84"/>
</a>
</g>
</g>
<!-- Node27 -->
<g id="Node000027" class="node">
<title>Node27</title>
<g id="a_Node000027"><a xlink:title=" ">
<polygon fill="#e0e0e0" stroke="#999999" points="1264.62,-240.25 1181.88,-240.25 1181.88,-221 1264.62,-221 1264.62,-240.25"/>
<text text-anchor="middle" x="1223.25" y="-226.75" font-family="Helvetica,sans-Serif" font-size="10.00">unordered_map</text>
</a>
</g>
</g>
<!-- Node2&#45;&gt;Node27 -->
<g id="edge48_Node000002_Node000027" class="edge">
<title>Node2&#45;&gt;Node27</title>
<g id="a_edge48_Node000002_Node000027"><a xlink:title=" ">
<path fill="none" stroke="#63b8ff" d="M1025.89,-275.78C1066.2,-266.76 1128.09,-252.92 1171.8,-243.14"/>
<polygon fill="#63b8ff" stroke="#63b8ff" points="1172.3,-246.61 1181.3,-241.01 1170.77,-239.78 1172.3,-246.61"/>
</a>
</g>
</g>
<!-- Node4 -->
<g id="Node000004" class="node">
<title>Node4</title>
<g id="a_Node000004"><a xlink:href="packet_8h.html" target="_top" xlink:title="BCNP packet structures, encoding, and decoding utilities.">
<polygon fill="white" stroke="#666666" points="396.62,-185 319.88,-185 319.88,-165.75 396.62,-165.75 396.62,-185"/>
<text text-anchor="middle" x="358.25" y="-171.5" font-family="Helvetica,sans-Serif" font-size="10.00">bcnp/packet.h</text>
</a>
</g>
</g>
<!-- Node3&#45;&gt;Node4 -->
<g id="edge3_Node000003_Node000004" class="edge">
<title>Node3&#45;&gt;Node4</title>
<g id="a_edge3_Node000003_Node000004"><a xlink:title=" ">
<path fill="none" stroke="#63b8ff" d="M452.08,-220.59C434.47,-212.29 408.09,-199.86 387.79,-190.29"/>
<polygon fill="#63b8ff" stroke="#63b8ff" points="389.42,-187.19 378.88,-186.1 386.44,-193.53 389.42,-187.19"/>
</a>
</g>
</g>
<!-- Node6 -->
<g id="Node000006" class="node">
<title>Node6</title>
<g id="a_Node000006"><a xlink:title=" ">
<polygon fill="#e0e0e0" stroke="#999999" points="489.75,-74.5 452.75,-74.5 452.75,-55.25 489.75,-55.25 489.75,-74.5"/>
<text text-anchor="middle" x="471.25" y="-61" font-family="Helvetica,sans-Serif" font-size="10.00">array</text>
</a>
</g>
</g>
<!-- Node3&#45;&gt;Node6 -->
<g id="edge30_Node000003_Node000006" class="edge">
<title>Node3&#45;&gt;Node6</title>
<g id="a_edge30_Node000003_Node000006"><a xlink:title=" ">
<path fill="none" stroke="#63b8ff" d="M471.25,-220.82C471.25,-195.5 471.25,-122 471.25,-86.09"/>
<polygon fill="#63b8ff" stroke="#63b8ff" points="474.75,-86.24 471.25,-76.24 467.75,-86.24 474.75,-86.24"/>
</a>
</g>
</g>
<!-- Node7 -->
<g id="Node000007" class="node">
<title>Node7</title>
<g id="a_Node000007"><a xlink:title=" ">
<polygon fill="#e0e0e0" stroke="#999999" points="429.38,-19.25 381.12,-19.25 381.12,0 429.38,0 429.38,-19.25"/>
<text text-anchor="middle" x="405.25" y="-5.75" font-family="Helvetica,sans-Serif" font-size="10.00">cstddef</text>
</a>
</g>
</g>
<!-- Node3&#45;&gt;Node7 -->
<g id="edge31_Node000003_Node000007" class="edge">
<title>Node3&#45;&gt;Node7</title>
<g id="a_edge31_Node000003_Node000007"><a xlink:title=" ">
<path fill="none" stroke="#63b8ff" d="M468.58,-220.77C458.82,-188.37 424.89,-75.8 411.12,-30.12"/>
<polygon fill="#63b8ff" stroke="#63b8ff" points="414.55,-29.37 408.32,-20.8 407.85,-31.39 414.55,-29.37"/>
</a>
</g>
</g>
<!-- Node3&#45;&gt;Node8 -->
<g id="edge32_Node000003_Node000008" class="edge">
<title>Node3&#45;&gt;Node8</title>
<g id="a_edge32_Node000003_Node000008"><a xlink:title=" ">
<path fill="none" stroke="#63b8ff" d="M513.3,-220.51C580.22,-205.4 714.47,-172.51 823.25,-129.75 861.2,-114.84 903.42,-93.96 930.14,-80.19"/>
<polygon fill="#63b8ff" stroke="#63b8ff" points="931.65,-83.35 938.9,-75.63 928.42,-77.14 931.65,-83.35"/>
</a>
</g>
</g>
<!-- Node3&#45;&gt;Node11 -->
<g id="edge33_Node000003_Node000011" class="edge">
<title>Node3&#45;&gt;Node11</title>
<g id="a_edge33_Node000003_Node000011"><a xlink:title=" ">
<path fill="none" stroke="#63b8ff" d="M503.13,-220.59C553.72,-205.57 654.71,-172.81 733.25,-129.75 758.16,-116.1 783.95,-96 800.71,-82.01"/>
<polygon fill="#63b8ff" stroke="#63b8ff" points="802.52,-85.06 807.88,-75.92 797.99,-79.73 802.52,-85.06"/>
</a>
</g>
</g>
<!-- Node20 -->
<g id="Node000020" class="node">
<title>Node20</title>
<g id="a_Node000020"><a xlink:title=" ">
<polygon fill="#e0e0e0" stroke="#999999" points="38.5,-19.25 0,-19.25 0,0 38.5,0 38.5,-19.25"/>
<text text-anchor="middle" x="19.25" y="-5.75" font-family="Helvetica,sans-Serif" font-size="10.00">utility</text>
</a>
</g>
</g>
<!-- Node3&#45;&gt;Node20 -->
<g id="edge34_Node000003_Node000020" class="edge">
<title>Node3&#45;&gt;Node20</title>
<g id="a_edge34_Node000003_Node000020"><a xlink:title=" ">
<path fill="none" stroke="#63b8ff" d="M433.67,-220.55C400.98,-212.33 352.52,-199.33 311.25,-185 251.17,-164.14 234.5,-161.25 179.25,-129.75 124.65,-98.62 67.05,-51.76 38.15,-27.12"/>
<polygon fill="#63b8ff" stroke="#63b8ff" points="40.5,-24.52 30.64,-20.65 35.94,-29.83 40.5,-24.52"/>
</a>
</g>
</g>
<!-- Node4&#45;&gt;Node5 -->
<g id="edge4_Node000004_Node000005" class="edge">
<title>Node4&#45;&gt;Node5</title>
<g id="a_edge4_Node000004_Node000005"><a xlink:title=" ">
<path fill="none" stroke="#63b8ff" d="M396.95,-167.68C448.51,-158.77 540.42,-142.88 602.35,-132.17"/>
<polygon fill="#63b8ff" stroke="#63b8ff" points="602.8,-135.65 612.06,-130.49 601.61,-128.75 602.8,-135.65"/>
</a>
</g>
</g>
<!-- Node4&#45;&gt;Node7 -->
<g id="edge26_Node000004_Node000007" class="edge">
<title>Node4&#45;&gt;Node7</title>
<g id="a_edge26_Node000004_Node000007"><a xlink:title=" ">
<path fill="none" stroke="#63b8ff" d="M360.78,-165.57C368.08,-140.14 389.33,-66.1 399.58,-30.37"/>
<polygon fill="#63b8ff" stroke="#63b8ff" points="402.9,-31.5 402.29,-20.93 396.17,-29.57 402.9,-31.5"/>
</a>
</g>
</g>
<!-- Node4&#45;&gt;Node8 -->
<g id="edge27_Node000004_Node000008" class="edge">
<title>Node4&#45;&gt;Node8</title>
<g id="a_edge27_Node000004_Node000008"><a xlink:title=" ">
<path fill="none" stroke="#63b8ff" d="M397.07,-173.24C471.49,-170.41 639.05,-160.83 776.25,-129.75 830.44,-117.47 890.83,-94.09 926.35,-79.28"/>
<polygon fill="#63b8ff" stroke="#63b8ff" points="927.29,-82.68 935.15,-75.56 924.57,-76.23 927.29,-82.68"/>
</a>
</g>
</g>
<!-- Node13 -->
<g id="Node000013" class="node">
<title>Node13</title>
<g id="a_Node000013"><a xlink:title=" ">
<polygon fill="#e0e0e0" stroke="#999999" points="916.12,-74.5 866.38,-74.5 866.38,-55.25 916.12,-55.25 916.12,-74.5"/>
<text text-anchor="middle" x="891.25" y="-61" font-family="Helvetica,sans-Serif" font-size="10.00">optional</text>
</a>
</g>
</g>
<!-- Node4&#45;&gt;Node13 -->
<g id="edge28_Node000004_Node000013" class="edge">
<title>Node4&#45;&gt;Node13</title>
<g id="a_edge28_Node000004_Node000013"><a xlink:title=" ">
<path fill="none" stroke="#63b8ff" d="M396.93,-173.15C465.64,-170.23 613.07,-160.61 733.25,-129.75 780.42,-117.64 832.25,-94.7 863.25,-79.86"/>
<polygon fill="#63b8ff" stroke="#63b8ff" points="864.47,-83.15 871.94,-75.64 861.41,-76.86 864.47,-83.15"/>
</a>
</g>
</g>
<!-- Node15 -->
<g id="Node000015" class="node">
<title>Node15</title>
<g id="a_Node000015"><a xlink:href="static__vector_8h.html" target="_top" xlink:title="Fixed&#45;capacity vector with stack allocation (no heap).">
<polygon fill="white" stroke="#666666" points="220.12,-74.5 116.38,-74.5 116.38,-55.25 220.12,-55.25 220.12,-74.5"/>
<text text-anchor="middle" x="168.25" y="-61" font-family="Helvetica,sans-Serif" font-size="10.00">bcnp/static_vector.h</text>
</a>
</g>
</g>
<!-- Node4&#45;&gt;Node15 -->
<g id="edge14_Node000004_Node000015" class="edge">
<title>Node4&#45;&gt;Node15</title>
<g id="a_edge14_Node000004_Node000015"><a xlink:title=" ">
<path fill="none" stroke="#63b8ff" d="M319.48,-172.73C283.9,-169.3 231.64,-159.16 197.25,-129.75 184.08,-118.49 176.59,-100.01 172.53,-85.81"/>
<polygon fill="#63b8ff" stroke="#63b8ff" points="175.96,-85.07 170.16,-76.2 169.16,-86.75 175.96,-85.07"/>
</a>
</g>
</g>
<!-- Node21 -->
<g id="Node000021" class="node">
<title>Node21</title>
<g id="a_Node000021"><a xlink:href="packet__storage_8h.html" target="_top" xlink:title=" ">
<polygon fill="white" stroke="#666666" points="320.38,-129.75 206.12,-129.75 206.12,-110.5 320.38,-110.5 320.38,-129.75"/>
<text text-anchor="middle" x="263.25" y="-116.25" font-family="Helvetica,sans-Serif" font-size="10.00">bcnp/packet_storage.h</text>
</a>
</g>
</g>
<!-- Node4&#45;&gt;Node21 -->
<g id="edge21_Node000004_Node000021" class="edge">
<title>Node4&#45;&gt;Node21</title>
<g id="a_edge21_Node000004_Node000021"><a xlink:title=" ">
<path fill="none" stroke="#63b8ff" d="M342.13,-165.34C327.67,-157.23 306.17,-145.18 289.27,-135.71"/>
<polygon fill="#63b8ff" stroke="#63b8ff" points="291.2,-132.78 280.76,-130.94 287.78,-138.89 291.2,-132.78"/>
</a>
</g>
</g>
<!-- Node22 -->
<g id="Node000022" class="node">
<title>Node22</title>
<g id="a_Node000022"><a xlink:title=" ">
<polygon fill="#e0e0e0" stroke="#999999" points="357.75,-74.5 314.75,-74.5 314.75,-55.25 357.75,-55.25 357.75,-74.5"/>
<text text-anchor="middle" x="336.25" y="-61" font-family="Helvetica,sans-Serif" font-size="10.00">vector</text>
</a>
</g>
</g>
<!-- Node4&#45;&gt;Node22 -->
<g id="edge29_Node000004_Node000022" class="edge">
<title>Node4&#45;&gt;Node22</title>
<g id="a_edge29_Node000004_Node000022"><a xlink:title=" ">
<path fill="none" stroke="#63b8ff" d="M356.45,-165.5C352.95,-148.25 345.16,-109.83 340.34,-86.06"/>
<polygon fill="#63b8ff" stroke="#63b8ff" points="343.79,-85.47 338.38,-76.36 336.93,-86.86 343.79,-85.47"/>
</a>
</g>
</g>
<!-- Node5&#45;&gt;Node6 -->
<g id="edge5_Node000005_Node000006" class="edge">
<title>Node5&#45;&gt;Node6</title>
<g id="a_edge5_Node000005_Node000006"><a xlink:title=" ">
<path fill="none" stroke="#63b8ff" d="M630.06,-110.06C598.27,-101.98 550.53,-89.56 501.02,-75.21"/>
<polygon fill="#63b8ff" stroke="#63b8ff" points="502.13,-71.89 491.55,-72.45 500.17,-78.61 502.13,-71.89"/>
</a>
</g>
</g>
<!-- Node5&#45;&gt;Node7 -->
<g id="edge6_Node000005_Node000007" class="edge">
<title>Node5&#45;&gt;Node7</title>
<g id="a_edge6_Node000005_Node000007"><a xlink:title=" ">
<path fill="none" stroke="#63b8ff" d="M692.55,-110.06C721.9,-98.58 762.83,-77.58 743.25,-55.25 723.52,-32.74 523.9,-17.94 441.02,-12.72"/>
<polygon fill="#63b8ff" stroke="#63b8ff" points="441.38,-9.24 431.19,-12.11 440.95,-16.22 441.38,-9.24"/>
</a>
</g>
</g>
<!-- Node5&#45;&gt;Node8 -->
<g id="edge7_Node000005_Node000008" class="edge">
<title>Node5&#45;&gt;Node8</title>
<g id="a_edge7_Node000005_Node000008"><a xlink:title=" ">
<path fill="none" stroke="#63b8ff" d="M724.41,-110.68C774.63,-103.04 849.33,-90.81 923.33,-74.75"/>
<polygon fill="#63b8ff" stroke="#63b8ff" points="923.75,-78.24 932.76,-72.68 922.24,-71.4 923.75,-78.24"/>
</a>
</g>
</g>
<!-- Node9 -->
<g id="Node000009" class="node">
<title>Node9</title>
<g id="a_Node000009"><a xlink:title=" ">
<polygon fill="#e0e0e0" stroke="#999999" points="550.75,-74.5 507.75,-74.5 507.75,-55.25 550.75,-55.25 550.75,-74.5"/>
<text text-anchor="middle" x="529.25" y="-61" font-family="Helvetica,sans-Serif" font-size="10.00">cmath</text>
</a>
</g>
</g>
<!-- Node5&#45;&gt;Node9 -->
<g id="edge8_Node000005_Node000009" class="edge">
<title>Node5&#45;&gt;Node9</title>
<g id="a_edge8_Node000005_Node000009"><a xlink:title=" ">
<path fill="none" stroke="#63b8ff" d="M643.01,-110.09C620.67,-101.41 586.69,-88.2 561.69,-78.48"/>
<polygon fill="#63b8ff" stroke="#63b8ff" points="563.24,-75.33 552.65,-74.97 560.71,-81.86 563.24,-75.33"/>
</a>
</g>
</g>
<!-- Node10 -->
<g id="Node000010" class="node">
<title>Node10</title>
<g id="a_Node000010"><a xlink:title=" ">
<polygon fill="#e0e0e0" stroke="#999999" points="613.88,-74.5 568.62,-74.5 568.62,-55.25 613.88,-55.25 613.88,-74.5"/>
<text text-anchor="middle" x="591.25" y="-61" font-family="Helvetica,sans-Serif" font-size="10.00">cstring</text>
</a>
</g>
</g>
<!-- Node5&#45;&gt;Node10 -->
<g id="edge9_Node000005_Node000010" class="edge">
<title>Node5&#45;&gt;Node10</title>
<g id="a_edge9_Node000005_Node000010"><a xlink:title=" ">
<path fill="none" stroke="#63b8ff" d="M653.53,-110.09C642.54,-102.29 626.41,-90.84 613.32,-81.54"/>
<polygon fill="#63b8ff" stroke="#63b8ff" points="615.45,-78.76 605.27,-75.83 611.4,-84.47 615.45,-78.76"/>
</a>
</g>
</g>
<!-- Node5&#45;&gt;Node11 -->
<g id="edge10_Node000005_Node000011" class="edge">
<title>Node5&#45;&gt;Node11</title>
<g id="a_edge10_Node000005_Node000011"><a xlink:title=" ">
<path fill="none" stroke="#63b8ff" d="M692.2,-110.09C717.04,-101.45 754.75,-88.32 782.63,-78.62"/>
<polygon fill="#63b8ff" stroke="#63b8ff" points="783.44,-82.04 791.74,-75.45 781.14,-75.43 783.44,-82.04"/>
</a>
</g>
</g>
<!-- Node12 -->
<g id="Node000012" class="node">
<title>Node12</title>
<g id="a_Node000012"><a xlink:title=" ">
<polygon fill="#e0e0e0" stroke="#999999" points="670.88,-74.5 631.62,-74.5 631.62,-55.25 670.88,-55.25 670.88,-74.5"/>
<text text-anchor="middle" x="651.25" y="-61" font-family="Helvetica,sans-Serif" font-size="10.00">limits</text>
</a>
</g>
</g>
<!-- Node5&#45;&gt;Node12 -->
<g id="edge11_Node000005_Node000012" class="edge">
<title>Node5&#45;&gt;Node12</title>
<g id="a_edge11_Node000005_Node000012"><a xlink:title=" ">
<path fill="none" stroke="#63b8ff" d="M663.77,-110.33C661.9,-103.67 659.24,-94.24 656.86,-85.78"/>
<polygon fill="#63b8ff" stroke="#63b8ff" points="660.27,-84.99 654.19,-76.32 653.53,-86.89 660.27,-84.99"/>
</a>
</g>
</g>
<!-- Node5&#45;&gt;Node13 -->
<g id="edge12_Node000005_Node000013" class="edge">
<title>Node5&#45;&gt;Node13</title>
<g id="a_edge12_Node000005_Node000013"><a xlink:title=" ">
<path fill="none" stroke="#63b8ff" d="M706.18,-110.03C742.51,-101.7 797.92,-88.87 854.97,-75.02"/>
<polygon fill="#63b8ff" stroke="#63b8ff" points="855.65,-78.46 864.54,-72.69 854,-71.66 855.65,-78.46"/>
</a>
</g>
</g>
<!-- Node14 -->
<g id="Node000014" class="node">
<title>Node14</title>
<g id="a_Node000014"><a xlink:title=" ">
<polygon fill="#e0e0e0" stroke="#999999" points="733.88,-74.5 688.62,-74.5 688.62,-55.25 733.88,-55.25 733.88,-74.5"/>
<text text-anchor="middle" x="711.25" y="-61" font-family="Helvetica,sans-Serif" font-size="10.00">variant</text>
</a>
</g>
</g>
<!-- Node5&#45;&gt;Node14 -->
<g id="edge13_Node000005_Node000014" class="edge">
<title>Node5&#45;&gt;Node14</title>
<g id="a_edge13_Node000005_Node000014"><a xlink:title=" ">
<path fill="none" stroke="#63b8ff" d="M673.68,-110.33C679.83,-103.05 688.76,-92.48 696.38,-83.48"/>
<polygon fill="#63b8ff" stroke="#63b8ff" points="698.9,-85.91 702.68,-76.02 693.55,-81.39 698.9,-85.91"/>
</a>
</g>
</g>
<!-- Node15&#45;&gt;Node7 -->
<g id="edge15_Node000015_Node000007" class="edge">
<title>Node15&#45;&gt;Node7</title>
<g id="a_edge15_Node000015_Node000007"><a xlink:title=" ">
<path fill="none" stroke="#63b8ff" d="M208.72,-54.78C254.02,-44.6 326.69,-28.28 369.82,-18.59"/>
<polygon fill="#63b8ff" stroke="#63b8ff" points="370.42,-22.04 379.41,-16.43 368.89,-15.21 370.42,-22.04"/>
</a>
</g>
</g>
<!-- Node16 -->
<g id="Node000016" class="node">
<title>Node16</title>
<g id="a_Node000016"><a xlink:title=" ">
<polygon fill="#e0e0e0" stroke="#999999" points="204,-19.25 132.5,-19.25 132.5,0 204,0 204,-19.25"/>
<text text-anchor="middle" x="168.25" y="-5.75" font-family="Helvetica,sans-Serif" font-size="10.00">initializer_list</text>
</a>
</g>
</g>
<!-- Node15&#45;&gt;Node16 -->
<g id="edge16_Node000015_Node000016" class="edge">
<title>Node15&#45;&gt;Node16</title>
<g id="a_edge16_Node000015_Node000016"><a xlink:title=" ">
<path fill="none" stroke="#63b8ff" d="M168.25,-55.08C168.25,-48.57 168.25,-39.42 168.25,-31.12"/>
<polygon fill="#63b8ff" stroke="#63b8ff" points="171.75,-31.12 168.25,-21.12 164.75,-31.12 171.75,-31.12"/>
</a>
</g>
</g>
<!-- Node17 -->
<g id="Node000017" class="node">
<title>Node17</title>
<g id="a_Node000017"><a xlink:title=" ">
<polygon fill="#e0e0e0" stroke="#999999" points="256.25,-19.25 222.25,-19.25 222.25,0 256.25,0 256.25,-19.25"/>
<text text-anchor="middle" x="239.25" y="-5.75" font-family="Helvetica,sans-Serif" font-size="10.00">new</text>
</a>
</g>
</g>
<!-- Node15&#45;&gt;Node17 -->
<g id="edge17_Node000015_Node000017" class="edge">
<title>Node15&#45;&gt;Node17</title>
<g id="a_edge17_Node000015_Node000017"><a xlink:title=" ">
<path fill="none" stroke="#63b8ff" d="M180.29,-54.84C190.66,-47.07 205.85,-35.67 218.22,-26.4"/>
<polygon fill="#63b8ff" stroke="#63b8ff" points="220.27,-29.23 226.17,-20.43 216.07,-23.63 220.27,-29.23"/>
</a>
</g>
</g>
<!-- Node18 -->
<g id="Node000018" class="node">
<title>Node18</title>
<g id="a_Node000018"><a xlink:title=" ">
<polygon fill="#e0e0e0" stroke="#999999" points="114.25,-19.25 56.25,-19.25 56.25,0 114.25,0 114.25,-19.25"/>
<text text-anchor="middle" x="85.25" y="-5.75" font-family="Helvetica,sans-Serif" font-size="10.00">stdexcept</text>
</a>
</g>
</g>
<!-- Node15&#45;&gt;Node18 -->
<g id="edge18_Node000015_Node000018" class="edge">
<title>Node15&#45;&gt;Node18</title>
<g id="a_edge18_Node000015_Node000018"><a xlink:title=" ">
<path fill="none" stroke="#63b8ff" d="M154.17,-54.84C141.77,-46.89 123.46,-35.14 108.82,-25.75"/>
<polygon fill="#63b8ff" stroke="#63b8ff" points="110.98,-22.97 100.67,-20.52 107.2,-28.87 110.98,-22.97"/>
</a>
</g>
</g>
<!-- Node19 -->
<g id="Node000019" class="node">
<title>Node19</title>
<g id="a_Node000019"><a xlink:title=" ">
<polygon fill="#e0e0e0" stroke="#999999" points="335.75,-19.25 274.75,-19.25 274.75,0 335.75,0 335.75,-19.25"/>
<text text-anchor="middle" x="305.25" y="-5.75" font-family="Helvetica,sans-Serif" font-size="10.00">type_traits</text>
</a>
</g>
</g>
<!-- Node15&#45;&gt;Node19 -->
<g id="edge19_Node000015_Node000019" class="edge">
<title>Node15&#45;&gt;Node19</title>
<g id="a_edge19_Node000015_Node000019"><a xlink:title=" ">
<path fill="none" stroke="#63b8ff" d="M191.49,-54.84C213.44,-46.31 246.6,-33.42 271.46,-23.76"/>
<polygon fill="#63b8ff" stroke="#63b8ff" points="272.43,-27.14 280.49,-20.25 269.9,-20.61 272.43,-27.14"/>
</a>
</g>
</g>
<!-- Node15&#45;&gt;Node20 -->
<g id="edge20_Node000015_Node000020" class="edge">
<title>Node15&#45;&gt;Node20</title>
<g id="a_edge20_Node000015_Node000020"><a xlink:title=" ">
<path fill="none" stroke="#63b8ff" d="M142.97,-54.84C117.14,-45.61 77.02,-31.27 49.51,-21.44"/>
<polygon fill="#63b8ff" stroke="#63b8ff" points="50.95,-18.24 40.35,-18.17 48.59,-24.83 50.95,-18.24"/>
</a>
</g>
</g>
<!-- Node21&#45;&gt;Node7 -->
<g id="edge23_Node000021_Node000007" class="edge">
<title>Node21&#45;&gt;Node7</title>
<g id="a_edge23_Node000021_Node000007"><a xlink:title=" ">
<path fill="none" stroke="#63b8ff" d="M267.14,-110.12C273.38,-96.58 286.84,-70.89 305.25,-55.25 324.07,-39.25 349.55,-28 370.08,-20.79"/>
<polygon fill="#63b8ff" stroke="#63b8ff" points="371.07,-24.15 379.46,-17.68 368.87,-17.51 371.07,-24.15"/>
</a>
</g>
</g>
<!-- Node21&#45;&gt;Node15 -->
<g id="edge22_Node000021_Node000015" class="edge">
<title>Node21&#45;&gt;Node15</title>
<g id="a_edge22_Node000021_Node000015"><a xlink:title=" ">
<path fill="none" stroke="#63b8ff" d="M247.13,-110.09C232.67,-101.98 211.17,-89.93 194.27,-80.46"/>
<polygon fill="#63b8ff" stroke="#63b8ff" points="196.2,-77.53 185.76,-75.69 192.78,-83.64 196.2,-77.53"/>
</a>
</g>
</g>
<!-- Node21&#45;&gt;Node19 -->
<g id="edge24_Node000021_Node000019" class="edge">
<title>Node21&#45;&gt;Node19</title>
<g id="a_edge24_Node000021_Node000019"><a xlink:title=" ">
<path fill="none" stroke="#63b8ff" d="M263.15,-110.09C263.3,-97.37 264.7,-73.7 272.25,-55.25 276.2,-45.59 282.71,-36.12 288.91,-28.41"/>
<polygon fill="#63b8ff" stroke="#63b8ff" points="291.55,-30.71 295.4,-20.84 286.23,-26.16 291.55,-30.71"/>
</a>
</g>
</g>
<!-- Node21&#45;&gt;Node22 -->
<g id="edge25_Node000021_Node000022" class="edge">
<title>Node21&#45;&gt;Node22</title>
<g id="a_edge25_Node000021_Node000022"><a xlink:title=" ">
<path fill="none" stroke="#63b8ff" d="M275.63,-110.09C286.4,-102.24 302.22,-90.7 315,-81.37"/>
<polygon fill="#63b8ff" stroke="#63b8ff" points="316.81,-84.39 322.83,-75.67 312.69,-78.73 316.81,-84.39"/>
</a>
</g>
</g>
<!-- Node23&#45;&gt;Node7 -->
<g id="edge38_Node000023_Node000007" class="edge">
<title>Node23&#45;&gt;Node7</title>
<g id="a_edge38_Node000023_Node000007"><a xlink:title=" ">
<path fill="none" stroke="#63b8ff" d="M1026.58,-110.23C1021.76,-95.86 1010.08,-67.84 989.25,-55.25 942.4,-26.93 561.1,-14.68 441.2,-11.5"/>
<polygon fill="#63b8ff" stroke="#63b8ff" points="441.39,-8 431.31,-11.24 441.21,-15 441.39,-8"/>
</a>
</g>
</g>
<!-- Node23&#45;&gt;Node8 -->
<g id="edge39_Node000023_Node000008" class="edge">
<title>Node23&#45;&gt;Node8</title>
<g id="a_edge39_Node000023_Node000008"><a xlink:title=" ">
<path fill="none" stroke="#63b8ff" d="M1017.04,-110.09C1006.42,-102.24 990.81,-90.7 978.21,-81.37"/>
<polygon fill="#63b8ff" stroke="#63b8ff" points="980.62,-78.81 970.5,-75.67 976.46,-84.44 980.62,-78.81"/>
</a>
</g>
</g>
<!-- Node23&#45;&gt;Node13 -->
<g id="edge41_Node000023_Node000013" class="edge">
<title>Node23&#45;&gt;Node13</title>
<g id="a_edge41_Node000023_Node000013"><a xlink:title=" ">
<path fill="none" stroke="#63b8ff" d="M1005.84,-110.09C983.73,-101.56 950.33,-88.67 925.28,-79.01"/>
<polygon fill="#63b8ff" stroke="#63b8ff" points="926.78,-75.83 916.19,-75.5 924.26,-82.36 926.78,-75.83"/>
</a>
</g>
</g>
<!-- Node23&#45;&gt;Node22 -->
<g id="edge42_Node000023_Node000022" class="edge">
<title>Node23&#45;&gt;Node22</title>
<g id="a_edge42_Node000023_Node000022"><a xlink:title=" ">
<path fill="none" stroke="#63b8ff" d="M969.77,-114.68C863.89,-106.76 635.75,-89.59 443.25,-74.5 418.44,-72.56 390.4,-70.29 369.25,-68.57"/>
<polygon fill="#63b8ff" stroke="#63b8ff" points="369.73,-65.1 359.48,-67.78 369.16,-72.08 369.73,-65.1"/>
</a>
</g>
</g>
<!-- Node24 -->
<g id="Node000024" class="node">
<title>Node24</title>
<g id="a_Node000024"><a xlink:title=" ">
<polygon fill="#e0e0e0" stroke="#999999" points="1092.12,-74.5 1036.38,-74.5 1036.38,-55.25 1092.12,-55.25 1092.12,-74.5"/>
<text text-anchor="middle" x="1064.25" y="-61" font-family="Helvetica,sans-Serif" font-size="10.00">algorithm</text>
</a>
</g>
</g>
<!-- Node23&#45;&gt;Node24 -->
<g id="edge36_Node000023_Node000024" class="edge">
<title>Node23&#45;&gt;Node24</title>
<g id="a_edge36_Node000023_Node000024"><a xlink:title=" ">
<path fill="none" stroke="#63b8ff" d="M1035.03,-110.33C1039.66,-103.28 1046.32,-93.15 1052.12,-84.33"/>
<polygon fill="#63b8ff" stroke="#63b8ff" points="1054.95,-86.4 1057.51,-76.12 1049.1,-82.56 1054.95,-86.4"/>
</a>
</g>
</g>
<!-- Node23&#45;&gt;Node25 -->
<g id="edge37_Node000023_Node000025" class="edge">
<title>Node23&#45;&gt;Node25</title>
<g id="a_edge37_Node000023_Node000025"><a xlink:title=" ">
<path fill="none" stroke="#63b8ff" d="M1046.89,-110.09C1062.88,-101.91 1086.71,-89.71 1105.29,-80.19"/>
<polygon fill="#63b8ff" stroke="#63b8ff" points="1106.87,-83.32 1114.17,-75.64 1103.68,-77.08 1106.87,-83.32"/>
</a>
</g>
</g>
<!-- Node23&#45;&gt;Node26 -->
<g id="edge40_Node000023_Node000026" class="edge">
<title>Node23&#45;&gt;Node26</title>
<g id="a_edge40_Node000023_Node000026"><a xlink:title=" ">
<path fill="none" stroke="#63b8ff" d="M1057.41,-110.09C1086.61,-100.73 1132.2,-86.1 1162.87,-76.26"/>
<polygon fill="#63b8ff" stroke="#63b8ff" points="1163.94,-79.6 1172.39,-73.21 1161.8,-72.93 1163.94,-79.6"/>
</a>
</g>
</g>
</g>
</svg>

<g id="navigator" transform="translate(0 0)" fill="#404254">
  <rect fill="#f2f5e9" fill-opacity="0.5" stroke="#606060" stroke-width=".5" x="0" y="0" width="60" height="60"/>
  <use id="zoomplus" xlink:href="#zoomPlus" x="17" y="9" onmousedown="handleZoom(evt,'in')"/>
  <use id="zoomminus" xlink:href="#zoomMin" x="42" y="9" onmousedown="handleZoom(evt,'out')"/>
  <use id="reset" xlink:href="#resetDef" x="30" y="36" onmousedown="handleReset()"/>
   <use id="arrowup" xlink:href="#arrowUp" x="0" y="0" onmousedown="handlePan(0,-1)"/>
  <use id="arrowright" xlink:href="#arrowRight" x="0" y="0" onmousedown="handlePan(1,0)"/>
  <use id="arrowdown" xlink:href="#arrowDown" x="0" y="0" onmousedown="handlePan(0,1)"/>
  <use id="arrowleft" xlink:href="#arrowLeft" x="0" y="0" onmousedown="handlePan(-1,0)"/>
</g>
<svg viewBox="0 0 15 15" width="100%" height="30px" preserveAspectRatio="xMaxYMin meet">
 <g id="arrow_out" transform="scale(0.3 0.3)">
  <a xlink:href="dispatcher_8cpp__incl_org.svg" target="_base">
   <rect id="button" ry="5" rx="5" y="6" x="6" height="38" width="38"
        fill="#f2f5e9" fill-opacity="0.5" stroke="#606060" stroke-width="1.0"/>
   <path id="arrow"
     d="M 11.500037,31.436501 C 11.940474,20.09759 22.043105,11.32322 32.158766,21.979434 L 37.068811,17.246167 C 37.068811,17.246167 37.088388,32 37.088388,32 L 22.160133,31.978069 C 22.160133,31.978069 26.997745,27.140456 26.997745,27.140456 C 18.528582,18.264221 13.291696,25.230495 11.500037,31.436501 z"
     style="fill:#404040;"/>
  </a>
 </g>
</svg>

<style type='text/css'>
<![CDATA[
[data-mouse-over-selected='false'] { opacity: 0.7; }
[data-mouse-over-selected='true']  { opacity: 1.0; }
]]>
</style>
<script type="application/ecmascript"><![CDATA[
document.addEventListener('DOMContentLoaded', (event) => {
  highlightEdges();
  highlightAdjacentNodes();
});
]]></script>
</svg>
