<?xml version="1.0" encoding="UTF-8" standalone="no"?>
<!DOCTYPE svg PUBLIC "-//W3C//DTD SVG 1.1//EN"
 "http://www.w3.org/Graphics/SVG/1.1/DTD/svg11.dtd">
<!-- Generated by graphviz version 12.2.0 (20241103.1931)
 -->
<!-- Title: Graphical Class Hierarchy Pages: 1 -->
<svg width="394pt" height="64pt"
 viewBox="0.00 0.00 394.25 64.25" xmlns="http://www.w3.org/2000/svg" xmlns:xlink="http://www.w3.org/1999/xlink">
<g id="graph0" class="graph" transform="scale(1 1) rotate(0) translate(4 60.25)">
<title>Graphical Class Hierarchy</title>
<!-- Node0 -->
<g id="Node000000" class="node">
<title>Node0</title>
<g id="a_Node000000"><a xlink:href="classbcnp_1_1ByteStream.html" target="_top" xlink:title="Interface for receiving raw bytes from a transport.">
<polygon fill="white" stroke="#666666" points="92.5,-56.25 0,-56.25 0,-37 92.5,-37 92.5,-56.25"/>
<text text-anchor="middle" x="46.25" y="-42.75" font-family="Helvetica,sans-Serif" font-size="10.00">bcnp::ByteStream</text>
</a>
</g>
</g>
<!-- Node1 -->
<g id="Node000001" class="node">
<title>Node1</title>
<g id="a_Node000001"><a xlink:href="classbcnp_1_1DuplexAdapter.html" target="_top" xlink:title="Combined send/receive interface for bidirectional transports.">
<polygon fill="white" stroke="#666666" points="233,-37.25 128.5,-37.25 128.5,-18 233,-18 233,-37.25"/>
<text text-anchor="middle" x="180.75" y="-23.75" font-family="Helvetica,sans-Serif" font-size="10.00">bcnp::DuplexAdapter</text>
</a>
</g>
</g>
<!-- Node0&#45;&gt;Node1 -->
<g id="edge1_Node000000_Node000001" class="edge">
<title>Node0&#45;&gt;Node1</title>
<g id="a_edge1_Node000000_Node000001"><a xlink:title=" ">
<path fill="none" stroke="#63b8ff" d="M104.01,-38.49C112.03,-37.34 120.24,-36.16 128.15,-35.02"/>
<polygon fill="#63b8ff" stroke="#63b8ff" points="103.75,-34.99 94.35,-39.87 104.74,-41.92 103.75,-34.99"/>
</a>
</g>
</g>
<!-- Node2 -->
<g id="Node000002" class="node">
<title>Node2</title>
<g id="a_Node000002"><a xlink:href="classbcnp_1_1TcpPosixAdapter.html" target="_top" xlink:title="TCP transport adapter for BCNP over POSIX sockets.">
<polygon fill="white" stroke="#666666" points="385.5,-56.25 269.75,-56.25 269.75,-37 385.5,-37 385.5,-56.25"/>
<text text-anchor="middle" x="327.62" y="-42.75" font-family="Helvetica,sans-Serif" font-size="10.00">bcnp::TcpPosixAdapter</text>
</a>
</g>
</g>
<!-- Node1&#45;&gt;Node2 -->
<g id="edge2_Node000001_Node000002" class="edge">
<title>Node1&#45;&gt;Node2</title>
<g id="a_edge2_Node000001_Node000002"><a xlink:title=" ">
<path fill="none" stroke="#63b8ff" d="M244.41,-35.84C252.71,-36.93 261.19,-38.04 269.39,-39.12"/>
<polygon fill="#63b8ff" stroke="#63b8ff" points="245.11,-32.4 234.74,-34.57 244.2,-39.34 245.11,-32.4"/>
</a>
</g>
</g>
<!-- Node3 -->
<g id="Node000003" class="node">
<title>Node3</title>
<g id="a_Node000003"><a xlink:href="classbcnp_1_1UdpPosixAdapter.html" target="_top" xlink:title="UDP transport adapter for BCNP over POSIX sockets.">
<polygon fill="white" stroke="#666666" points="386.25,-19.25 269,-19.25 269,0 386.25,0 386.25,-19.25"/>
<text text-anchor="middle" x="327.62" y="-5.75" font-family="Helvetica,sans-Serif" font-size="10.00">bcnp::UdpPosixAdapter</text>
</a>
</g>
</g>
<!-- Node1&#45;&gt;Node3 -->
<g id="edge3_Node000001_Node000003" class="edge">
<title>Node1&#45;&gt;Node3</title>
<g id="a_edge3_Node000001_Node000003"><a xlink:title=" ">
<path fill="none" stroke="#63b8ff" d="M244.53,-19.83C252.63,-18.82 260.89,-17.79 268.89,-16.8"/>
<polygon fill="#63b8ff" stroke="#63b8ff" points="244.23,-16.34 234.74,-21.04 245.09,-23.28 244.23,-16.34"/>
</a>
</g>
</g>
<!-- Node4 -->
<g id="Node000004" class="node">
<title>Node4</title>
<g id="a_Node000004"><a xlink:href="classbcnp_1_1ByteWriter.html" target="_top" xlink:title="Interface for sending raw bytes over a transport.">
<polygon fill="white" stroke="#666666" points="89.5,-19.25 3,-19.25 3,0 89.5,0 89.5,-19.25"/>
<text text-anchor="middle" x="46.25" y="-5.75" font-family="Helvetica,sans-Serif" font-size="10.00">bcnp::ByteWriter</text>
</a>
</g>
</g>
<!-- Node4&#45;&gt;Node1 -->
<g id="edge4_Node000004_Node000001" class="edge">
<title>Node4&#45;&gt;Node1</title>
<g id="a_edge4_Node000004_Node000001"><a xlink:title=" ">
<path fill="none" stroke="#63b8ff" d="M101.09,-16.94C110.1,-18.16 119.43,-19.43 128.38,-20.65"/>
<polygon fill="#63b8ff" stroke="#63b8ff" points="101.78,-13.5 91.4,-15.62 100.84,-20.44 101.78,-13.5"/>
</a>
</g>
</g>
</g>
</svg>
