<?xml version="1.0" encoding="UTF-8" standalone="no"?>
<!DOCTYPE svg PUBLIC "-//W3C//DTD SVG 1.1//EN"
 "http://www.w3.org/Graphics/SVG/1.1/DTD/svg11.dtd">
<!-- Generated by graphviz version 12.2.0 (20241103.1931)
 -->
<!-- Title: Graphical Class Hierarchy Pages: 1 -->
<svg width="278pt" height="416pt"
 viewBox="0.00 0.00 277.75 415.62" xmlns="http://www.w3.org/2000/svg" xmlns:xlink="http://www.w3.org/1999/xlink">
<g id="graph0" class="graph" transform="scale(1 1) rotate(0) translate(4 411.62)">
<title>Graphical Class Hierarchy</title>
<!-- Node0 -->
<g id="Node000000" class="node">
<title>Node0</title>
<g id="a_Node000000"><a xlink:title=" ">
<polygon fill="#e0e0e0" stroke="#999999" points="73.75,-204.12 0,-204.12 0,-184.88 73.75,-184.88 73.75,-204.12"/>
<text text-anchor="middle" x="36.88" y="-190.62" font-family="Helvetica,sans-Serif" font-size="10.00">std::true_type</text>
</a>
</g>
</g>
<!-- Node1 -->
<g id="Node000001" class="node">
<title>Node1</title>
<g id="a_Node000001"><a xlink:href="structbcnp_1_1detail_1_1has__begin__end_3_01T_00_01std_1_1void__t_3_01decltype_07std_1_1declval_404f3e67ccc28f5018061412bce9d633.html" target="_top" xlink:title=" ">
<polygon fill="white" stroke="#666666" points="258.5,-407.62 121,-407.62 121,-343.38 258.5,-343.38 258.5,-407.62"/>
<text text-anchor="start" x="129" y="-394.12" font-family="Helvetica,sans-Serif" font-size="10.00">bcnp::detail::has_begin</text>
<text text-anchor="start" x="129" y="-382.88" font-family="Helvetica,sans-Serif" font-size="10.00">_end&lt; T, std::void_t&lt;</text>
<text text-anchor="start" x="129" y="-371.62" font-family="Helvetica,sans-Serif" font-size="10.00"> decltype(std::declval</text>
<text text-anchor="start" x="129" y="-360.38" font-family="Helvetica,sans-Serif" font-size="10.00">&lt; T &gt;().begin()), decltype</text>
<text text-anchor="middle" x="189.75" y="-349.12" font-family="Helvetica,sans-Serif" font-size="10.00">(std::declval&lt; T &gt;().end())&gt; &gt;</text>
</a>
</g>
</g>
<!-- Node0&#45;&gt;Node1 -->
<g id="edge12_Node000000_Node000001" class="edge">
<title>Node0&#45;&gt;Node1</title>
<g id="a_edge12_Node000000_Node000001"><a xlink:title=" ">
<path fill="none" stroke="#63b8ff" d="M44.06,-215.32C53.78,-245.02 75.19,-299.78 109.75,-334.5 113.13,-337.89 116.85,-341.07 120.78,-344.02"/>
<polygon fill="#63b8ff" stroke="#63b8ff" points="47.48,-214.54 41.15,-206.04 40.8,-216.63 47.48,-214.54"/>
</a>
</g>
</g>
<!-- Node2 -->
<g id="Node000002" class="node">
<title>Node2</title>
<g id="a_Node000002"><a xlink:href="structbcnp_1_1detail_1_1has__clear_3_01T_00_01std_1_1void__t_3_01decltype_07std_1_1declval_3_01T2e5090700075ccb5ea5e1e2d91c18a9c.html" target="_top" xlink:title=" ">
<polygon fill="white" stroke="#666666" points="261.12,-325.38 118.38,-325.38 118.38,-283.62 261.12,-283.62 261.12,-325.38"/>
<text text-anchor="start" x="126.38" y="-311.88" font-family="Helvetica,sans-Serif" font-size="10.00">bcnp::detail::has_clear</text>
<text text-anchor="start" x="126.38" y="-300.62" font-family="Helvetica,sans-Serif" font-size="10.00">&lt; T, std::void_t&lt; decltype</text>
<text text-anchor="middle" x="189.75" y="-289.38" font-family="Helvetica,sans-Serif" font-size="10.00">(std::declval&lt; T &gt;().clear())&gt; &gt;</text>
</a>
</g>
</g>
<!-- Node0&#45;&gt;Node2 -->
<g id="edge13_Node000000_Node000002" class="edge">
<title>Node0&#45;&gt;Node2</title>
<g id="a_edge13_Node000000_Node000002"><a xlink:title=" ">
<path fill="none" stroke="#63b8ff" d="M50.95,-213.69C64,-231.58 85.56,-257.92 109.75,-274.5 114.35,-277.65 119.32,-280.53 124.46,-283.14"/>
<polygon fill="#63b8ff" stroke="#63b8ff" points="53.96,-211.88 45.32,-205.74 48.24,-215.92 53.96,-211.88"/>
</a>
</g>
</g>
<!-- Node3 -->
<g id="Node000003" class="node">
<title>Node3</title>
<g id="a_Node000003"><a xlink:href="structbcnp_1_1detail_1_1has__push__back_3_01T_00_01std_1_1void__t_3_01decltype_07std_1_1declval_280dfca7fa6871b94d5cc8df9ce584da.html" target="_top" xlink:title=" ">
<polygon fill="white" stroke="#666666" points="269.75,-265.62 109.75,-265.62 109.75,-201.38 269.75,-201.38 269.75,-265.62"/>
<text text-anchor="start" x="117.75" y="-252.12" font-family="Helvetica,sans-Serif" font-size="10.00">bcnp::detail::has_push</text>
<text text-anchor="start" x="117.75" y="-240.88" font-family="Helvetica,sans-Serif" font-size="10.00">_back&lt; T, std::void_t</text>
<text text-anchor="start" x="117.75" y="-229.62" font-family="Helvetica,sans-Serif" font-size="10.00">&lt; decltype(std::declval</text>
<text text-anchor="start" x="117.75" y="-218.38" font-family="Helvetica,sans-Serif" font-size="10.00">&lt; T &gt;().push_back(std::declval</text>
<text text-anchor="middle" x="189.75" y="-207.12" font-family="Helvetica,sans-Serif" font-size="10.00">&lt; typename T::value_type &gt;()))&gt; &gt;</text>
</a>
</g>
</g>
<!-- Node0&#45;&gt;Node3 -->
<g id="edge14_Node000000_Node000003" class="edge">
<title>Node0&#45;&gt;Node3</title>
<g id="a_edge14_Node000000_Node000003"><a xlink:title=" ">
<path fill="none" stroke="#63b8ff" d="M85,-206.68C92.75,-208.69 100.98,-210.81 109.27,-212.95"/>
<polygon fill="#63b8ff" stroke="#63b8ff" points="86.04,-203.33 75.48,-204.22 84.28,-210.11 86.04,-203.33"/>
</a>
</g>
</g>
<!-- Node4 -->
<g id="Node000004" class="node">
<title>Node4</title>
<g id="a_Node000004"><a xlink:href="structbcnp_1_1detail_1_1has__reserve_3_01T_00_01std_1_1void__t_3_01decltype_07std_1_1declval_3_0c5deb810df35b33a54a186c7de96feab.html" target="_top" xlink:title=" ">
<polygon fill="white" stroke="#666666" points="255.12,-183 124.38,-183 124.38,-130 255.12,-130 255.12,-183"/>
<text text-anchor="start" x="132.38" y="-169.5" font-family="Helvetica,sans-Serif" font-size="10.00">bcnp::detail::has_reserve</text>
<text text-anchor="start" x="132.38" y="-158.25" font-family="Helvetica,sans-Serif" font-size="10.00">&lt; T, std::void_t&lt; decltype</text>
<text text-anchor="start" x="132.38" y="-147" font-family="Helvetica,sans-Serif" font-size="10.00">(std::declval&lt; T &gt;().reserve</text>
<text text-anchor="middle" x="189.75" y="-135.75" font-family="Helvetica,sans-Serif" font-size="10.00">(std::size_t{}))&gt; &gt;</text>
</a>
</g>
</g>
<!-- Node0&#45;&gt;Node4 -->
<g id="edge15_Node000000_Node000004" class="edge">
<title>Node0&#45;&gt;Node4</title>
<g id="a_edge15_Node000000_Node000004"><a xlink:title=" ">
<path fill="none" stroke="#63b8ff" d="M84.98,-182.64C97.34,-179.52 110.89,-176.11 124,-172.81"/>
<polygon fill="#63b8ff" stroke="#63b8ff" points="84.32,-179.19 75.48,-185.03 86.03,-185.98 84.32,-179.19"/>
</a>
</g>
</g>
<!-- Node5 -->
<g id="Node000005" class="node">
<title>Node5</title>
<g id="a_Node000005"><a xlink:href="structbcnp_1_1detail_1_1has__size_3_01T_00_01std_1_1void__t_3_01decltype_07std_1_1declval_3_01T_911eb359e91f0b77387e5a7dd4f0fb26.html" target="_top" xlink:title=" ">
<polygon fill="white" stroke="#666666" points="259.25,-112.38 120.25,-112.38 120.25,-70.62 259.25,-70.62 259.25,-112.38"/>
<text text-anchor="start" x="128.25" y="-98.88" font-family="Helvetica,sans-Serif" font-size="10.00">bcnp::detail::has_size</text>
<text text-anchor="start" x="128.25" y="-87.62" font-family="Helvetica,sans-Serif" font-size="10.00">&lt; T, std::void_t&lt; decltype</text>
<text text-anchor="middle" x="189.75" y="-76.38" font-family="Helvetica,sans-Serif" font-size="10.00">(std::declval&lt; T &gt;().size())&gt; &gt;</text>
</a>
</g>
</g>
<!-- Node0&#45;&gt;Node5 -->
<g id="edge16_Node000000_Node000005" class="edge">
<title>Node0&#45;&gt;Node5</title>
<g id="a_edge16_Node000000_Node000005"><a xlink:title=" ">
<path fill="none" stroke="#63b8ff" d="M52.36,-175.77C65.74,-159.53 86.96,-136.37 109.75,-121.5 114.66,-118.29 119.97,-115.36 125.43,-112.68"/>
<polygon fill="#63b8ff" stroke="#63b8ff" points="49.9,-173.24 46.37,-183.23 55.36,-177.62 49.9,-173.24"/>
</a>
</g>
</g>
<!-- Node6 -->
<g id="Node000006" class="node">
<title>Node6</title>
<g id="a_Node000006"><a xlink:href="structbcnp_1_1detail_1_1has__subscript_3_01T_00_01std_1_1void__t_3_01decltype_07std_1_1declval_3858d61096a9d19f3d09178a4bc961f79.html" target="_top" xlink:title=" ">
<polygon fill="white" stroke="#666666" points="254.75,-53 124.75,-53 124.75,0 254.75,0 254.75,-53"/>
<text text-anchor="start" x="132.75" y="-39.5" font-family="Helvetica,sans-Serif" font-size="10.00">bcnp::detail::has_subscript</text>
<text text-anchor="start" x="132.75" y="-28.25" font-family="Helvetica,sans-Serif" font-size="10.00">&lt; T, std::void_t&lt; decltype</text>
<text text-anchor="start" x="132.75" y="-17" font-family="Helvetica,sans-Serif" font-size="10.00">(std::declval&lt; T &gt;()[std::</text>
<text text-anchor="middle" x="189.75" y="-5.75" font-family="Helvetica,sans-Serif" font-size="10.00">size_t{}])&gt; &gt;</text>
</a>
</g>
</g>
<!-- Node0&#45;&gt;Node6 -->
<g id="edge17_Node000000_Node000006" class="edge">
<title>Node0&#45;&gt;Node6</title>
<g id="a_edge17_Node000000_Node000006"><a xlink:title=" ">
<path fill="none" stroke="#63b8ff" d="M44.33,-173.63C54.19,-144.91 75.52,-93.15 109.75,-61.5 114.16,-57.43 119.11,-53.77 124.34,-50.5"/>
<polygon fill="#63b8ff" stroke="#63b8ff" points="41.06,-172.38 41.28,-182.97 47.72,-174.55 41.06,-172.38"/>
</a>
</g>
</g>
</g>
</svg>
