<?xml version="1.0" encoding="UTF-8" standalone="no"?>
<!DOCTYPE svg PUBLIC "-//W3C//DTD SVG 1.1//EN"
 "http://www.w3.org/Graphics/SVG/1.1/DTD/svg11.dtd">
<!-- Generated by graphviz version 12.2.0 (20241103.1931)
 -->
<!-- Title: Graphical Class Hierarchy Pages: 1 -->
<svg width="270pt" height="284pt"
 viewBox="0.00 0.00 270.25 283.50" xmlns="http://www.w3.org/2000/svg" xmlns:xlink="http://www.w3.org/1999/xlink">
<g id="graph0" class="graph" transform="scale(1 1) rotate(0) translate(4 279.5)">
<title>Graphical Class Hierarchy</title>
<!-- Node0 -->
<g id="Node000000" class="node">
<title>Node0</title>
<g id="a_Node000000"><a xlink:title=" ">
<polygon fill="#e0e0e0" stroke="#999999" points="78.25,-146.88 0,-146.88 0,-127.62 78.25,-127.62 78.25,-146.88"/>
<text text-anchor="middle" x="39.12" y="-133.38" font-family="Helvetica,sans-Serif" font-size="10.00">std::false_type</text>
</a>
</g>
</g>
<!-- Node1 -->
<g id="Node000001" class="node">
<title>Node1</title>
<g id="a_Node000001"><a xlink:href="structbcnp_1_1detail_1_1has__begin__end.html" target="_top" xlink:title=" ">
<polygon fill="white" stroke="#666666" points="259.62,-275.5 116.88,-275.5 116.88,-245 259.62,-245 259.62,-275.5"/>
<text text-anchor="start" x="124.88" y="-262" font-family="Helvetica,sans-Serif" font-size="10.00">bcnp::detail::has_begin</text>
<text text-anchor="middle" x="188.25" y="-250.75" font-family="Helvetica,sans-Serif" font-size="10.00">_end&lt; typename, typename &gt;</text>
</a>
</g>
</g>
<!-- Node0&#45;&gt;Node1 -->
<g id="edge6_Node000000_Node000001" class="edge">
<title>Node0&#45;&gt;Node1</title>
<g id="a_edge6_Node000000_Node000001"><a xlink:title=" ">
<path fill="none" stroke="#63b8ff" d="M50.35,-157.05C62.69,-179.1 85.42,-214.38 114.25,-235.25 119.24,-238.86 124.8,-241.99 130.55,-244.68"/>
<polygon fill="#63b8ff" stroke="#63b8ff" points="53.55,-155.61 45.72,-148.47 47.39,-158.93 53.55,-155.61"/>
</a>
</g>
</g>
<!-- Node2 -->
<g id="Node000002" class="node">
<title>Node2</title>
<g id="a_Node000002"><a xlink:href="structbcnp_1_1detail_1_1has__clear.html" target="_top" xlink:title=" ">
<polygon fill="white" stroke="#666666" points="249.12,-226.5 127.38,-226.5 127.38,-196 249.12,-196 249.12,-226.5"/>
<text text-anchor="start" x="135.38" y="-213" font-family="Helvetica,sans-Serif" font-size="10.00">bcnp::detail::has_clear</text>
<text text-anchor="middle" x="188.25" y="-201.75" font-family="Helvetica,sans-Serif" font-size="10.00">&lt; typename, typename &gt;</text>
</a>
</g>
</g>
<!-- Node0&#45;&gt;Node2 -->
<g id="edge7_Node000000_Node000002" class="edge">
<title>Node0&#45;&gt;Node2</title>
<g id="a_edge7_Node000000_Node000002"><a xlink:title=" ">
<path fill="none" stroke="#63b8ff" d="M62.19,-153.99C76.48,-164.28 95.8,-177.18 114.25,-186.25 121.1,-189.62 128.52,-192.73 135.92,-195.52"/>
<polygon fill="#63b8ff" stroke="#63b8ff" points="64.52,-151.36 54.39,-148.26 60.37,-157 64.52,-151.36"/>
</a>
</g>
</g>
<!-- Node3 -->
<g id="Node000003" class="node">
<title>Node3</title>
<g id="a_Node000003"><a xlink:href="structbcnp_1_1detail_1_1has__push__back.html" target="_top" xlink:title=" ">
<polygon fill="white" stroke="#666666" points="262.25,-177.5 114.25,-177.5 114.25,-147 262.25,-147 262.25,-177.5"/>
<text text-anchor="start" x="122.25" y="-164" font-family="Helvetica,sans-Serif" font-size="10.00">bcnp::detail::has_push</text>
<text text-anchor="middle" x="188.25" y="-152.75" font-family="Helvetica,sans-Serif" font-size="10.00">_back&lt; typename, typename &gt;</text>
</a>
</g>
</g>
<!-- Node0&#45;&gt;Node3 -->
<g id="edge8_Node000000_Node000003" class="edge">
<title>Node0&#45;&gt;Node3</title>
<g id="a_edge8_Node000000_Node000003"><a xlink:title=" ">
<path fill="none" stroke="#63b8ff" d="M89.51,-145.64C97.33,-146.97 105.57,-148.37 113.8,-149.77"/>
<polygon fill="#63b8ff" stroke="#63b8ff" points="90.33,-142.23 79.89,-144.01 89.16,-149.13 90.33,-142.23"/>
</a>
</g>
</g>
<!-- Node4 -->
<g id="Node000004" class="node">
<title>Node4</title>
<g id="a_Node000004"><a xlink:href="structbcnp_1_1detail_1_1has__reserve.html" target="_top" xlink:title=" ">
<polygon fill="white" stroke="#666666" points="249.5,-128.5 127,-128.5 127,-98 249.5,-98 249.5,-128.5"/>
<text text-anchor="start" x="135" y="-115" font-family="Helvetica,sans-Serif" font-size="10.00">bcnp::detail::has_reserve</text>
<text text-anchor="middle" x="188.25" y="-103.75" font-family="Helvetica,sans-Serif" font-size="10.00">&lt; typename, typename &gt;</text>
</a>
</g>
</g>
<!-- Node0&#45;&gt;Node4 -->
<g id="edge9_Node000000_Node000004" class="edge">
<title>Node0&#45;&gt;Node4</title>
<g id="a_edge9_Node000000_Node000004"><a xlink:title=" ">
<path fill="none" stroke="#63b8ff" d="M89.49,-129.2C101.41,-127.25 114.28,-125.15 126.65,-123.13"/>
<polygon fill="#63b8ff" stroke="#63b8ff" points="89.2,-125.7 79.89,-130.76 90.32,-132.61 89.2,-125.7"/>
</a>
</g>
</g>
<!-- Node5 -->
<g id="Node000005" class="node">
<title>Node5</title>
<g id="a_Node000005"><a xlink:href="structbcnp_1_1detail_1_1has__size.html" target="_top" xlink:title=" ">
<polygon fill="white" stroke="#666666" points="249.12,-79.5 127.38,-79.5 127.38,-49 249.12,-49 249.12,-79.5"/>
<text text-anchor="start" x="135.38" y="-66" font-family="Helvetica,sans-Serif" font-size="10.00">bcnp::detail::has_size</text>
<text text-anchor="middle" x="188.25" y="-54.75" font-family="Helvetica,sans-Serif" font-size="10.00">&lt; typename, typename &gt;</text>
</a>
</g>
</g>
<!-- Node0&#45;&gt;Node5 -->
<g id="edge10_Node000000_Node000005" class="edge">
<title>Node0&#45;&gt;Node5</title>
<g id="a_edge10_Node000000_Node000005"><a xlink:title=" ">
<path fill="none" stroke="#63b8ff" d="M62.5,-120.7C76.78,-110.66 95.99,-98.12 114.25,-89.25 121.24,-85.85 128.81,-82.71 136.34,-79.89"/>
<polygon fill="#63b8ff" stroke="#63b8ff" points="60.78,-117.62 54.7,-126.29 64.86,-123.31 60.78,-117.62"/>
</a>
</g>
</g>
<!-- Node6 -->
<g id="Node000006" class="node">
<title>Node6</title>
<g id="a_Node000006"><a xlink:href="structbcnp_1_1detail_1_1has__subscript.html" target="_top" xlink:title=" ">
<polygon fill="white" stroke="#666666" points="253.25,-30.5 123.25,-30.5 123.25,0 253.25,0 253.25,-30.5"/>
<text text-anchor="start" x="131.25" y="-17" font-family="Helvetica,sans-Serif" font-size="10.00">bcnp::detail::has_subscript</text>
<text text-anchor="middle" x="188.25" y="-5.75" font-family="Helvetica,sans-Serif" font-size="10.00">&lt; typename, typename &gt;</text>
</a>
</g>
</g>
<!-- Node0&#45;&gt;Node6 -->
<g id="edge11_Node000000_Node000006" class="edge">
<title>Node0&#45;&gt;Node6</title>
<g id="a_edge11_Node000000_Node000006"><a xlink:title=" ">
<path fill="none" stroke="#63b8ff" d="M50.59,-117.32C63.02,-95.48 85.71,-60.81 114.25,-40.25 119.25,-36.65 124.81,-33.53 130.57,-30.85"/>
<polygon fill="#63b8ff" stroke="#63b8ff" points="47.66,-115.39 45.92,-125.84 53.8,-118.75 47.66,-115.39"/>
</a>
</g>
</g>
</g>
</svg>
