<?xml version="1.0" encoding="UTF-8" standalone="no"?>
<!DOCTYPE svg PUBLIC "-//W3C//DTD SVG 1.1//EN"
 "http://www.w3.org/Graphics/SVG/1.1/DTD/svg11.dtd">
<!-- Generated by graphviz version 12.2.0 (20241103.1931)
 -->
<!-- Title: bcnp/message_queue.h Pages: 1 -->
<svg width="384pt" height="216pt"
 viewBox="0.00 0.00 384.38 215.50" xmlns="http://www.w3.org/2000/svg" xmlns:xlink="http://www.w3.org/1999/xlink">
<g id="graph0" class="graph" transform="scale(1 1) rotate(0) translate(4 211.5)">
<title>bcnp/message_queue.h</title>
<!-- Node1 -->
<g id="Node000001" class="node">
<title>Node1</title>
<g id="a_Node000001"><a xlink:title="Timed message queue for executing duration&#45;based commands.">
<polygon fill="#999999" stroke="#666666" points="182.25,-207.5 63.5,-207.5 63.5,-188.25 182.25,-188.25 182.25,-207.5"/>
<text text-anchor="middle" x="122.88" y="-194" font-family="Helvetica,sans-Serif" font-size="10.00">bcnp/message_queue.h</text>
</a>
</g>
</g>
<!-- Node2 -->
<g id="Node000002" class="node">
<title>Node2</title>
<g id="a_Node000002"><a xlink:href="command__queue_8h.html" target="_top" xlink:title=" ">
<polygon fill="white" stroke="#666666" points="121.75,-152.25 0,-152.25 0,-133 121.75,-133 121.75,-152.25"/>
<text text-anchor="middle" x="60.88" y="-138.75" font-family="Helvetica,sans-Serif" font-size="10.00">bcnp/command_queue.h</text>
</a>
</g>
</g>
<!-- Node1&#45;&gt;Node2 -->
<g id="edge1_Node000001_Node000002" class="edge">
<title>Node1&#45;&gt;Node2</title>
<g id="a_edge1_Node000001_Node000002"><a xlink:title=" ">
<path fill="none" stroke="#63b8ff" d="M103.68,-180.39C92.97,-171.19 80.06,-160.1 71.24,-152.52"/>
<polygon fill="#63b8ff" stroke="#63b8ff" points="101.34,-183 111.21,-186.86 105.9,-177.69 101.34,-183"/>
</a>
</g>
</g>
<!-- Node3 -->
<g id="Node000003" class="node">
<title>Node3</title>
<g id="a_Node000003"><a xlink:href="dispatcher_8h.html" target="_top" xlink:title=" ">
<polygon fill="white" stroke="#666666" points="232.12,-152.25 139.62,-152.25 139.62,-133 232.12,-133 232.12,-152.25"/>
<text text-anchor="middle" x="185.88" y="-138.75" font-family="Helvetica,sans-Serif" font-size="10.00">bcnp/dispatcher.h</text>
</a>
</g>
</g>
<!-- Node1&#45;&gt;Node3 -->
<g id="edge2_Node000001_Node000003" class="edge">
<title>Node1&#45;&gt;Node3</title>
<g id="a_edge2_Node000001_Node000003"><a xlink:title=" ">
<path fill="none" stroke="#63b8ff" d="M142.05,-180.66C152.99,-171.42 166.29,-160.18 175.35,-152.52"/>
<polygon fill="#63b8ff" stroke="#63b8ff" points="140.1,-177.74 134.72,-186.86 144.61,-183.08 140.1,-177.74"/>
</a>
</g>
</g>
<!-- Node4 -->
<g id="Node000004" class="node">
<title>Node4</title>
<g id="a_Node000004"><a xlink:href="controller_8h.html" target="_top" xlink:title=" ">
<polygon fill="white" stroke="#666666" points="116.5,-91.38 29.25,-91.38 29.25,-72.12 116.5,-72.12 116.5,-91.38"/>
<text text-anchor="middle" x="72.88" y="-77.88" font-family="Helvetica,sans-Serif" font-size="10.00">bcnp/controller.h</text>
</a>
</g>
</g>
<!-- Node3&#45;&gt;Node4 -->
<g id="edge3_Node000003_Node000004" class="edge">
<title>Node3&#45;&gt;Node4</title>
<g id="a_edge3_Node000003_Node000004"><a xlink:title=" ">
<path fill="none" stroke="#63b8ff" d="M158.67,-127.45C137.38,-116.36 108.43,-101.28 90.2,-91.78"/>
<polygon fill="#63b8ff" stroke="#63b8ff" points="156.88,-130.47 167.37,-131.98 160.12,-124.26 156.88,-130.47"/>
</a>
</g>
</g>
<!-- Node5 -->
<g id="Node000005" class="node">
<title>Node5</title>
<g id="a_Node000005"><a xlink:href="dispatcher_8cpp.html" target="_top" xlink:title="Implementation of the BCNP packet dispatcher.">
<polygon fill="white" stroke="#666666" points="237.38,-91.38 134.38,-91.38 134.38,-72.12 237.38,-72.12 237.38,-91.38"/>
<text text-anchor="middle" x="185.88" y="-77.88" font-family="Helvetica,sans-Serif" font-size="10.00">bcnp/dispatcher.cpp</text>
</a>
</g>
</g>
<!-- Node3&#45;&gt;Node5 -->
<g id="edge4_Node000003_Node000005" class="edge">
<title>Node3&#45;&gt;Node5</title>
<g id="a_edge4_Node000003_Node000005"><a xlink:title=" ">
<path fill="none" stroke="#63b8ff" d="M185.88,-121.2C185.88,-111.17 185.88,-99.58 185.88,-91.78"/>
<polygon fill="#63b8ff" stroke="#63b8ff" points="182.38,-121.17 185.88,-131.17 189.38,-121.17 182.38,-121.17"/>
</a>
</g>
</g>
<!-- Node6 -->
<g id="Node000006" class="node">
<title>Node6</title>
<g id="a_Node000006"><a xlink:href="controller__driver_8h.html" target="_top" xlink:title=" ">
<polygon fill="white" stroke="#666666" points="376.38,-97 255.38,-97 255.38,-66.5 376.38,-66.5 376.38,-97"/>
<text text-anchor="start" x="263.38" y="-83.5" font-family="Helvetica,sans-Serif" font-size="10.00">bcnp/transport/controller</text>
<text text-anchor="middle" x="315.88" y="-72.25" font-family="Helvetica,sans-Serif" font-size="10.00">_driver.h</text>
</a>
</g>
</g>
<!-- Node3&#45;&gt;Node6 -->
<g id="edge5_Node000003_Node000006" class="edge">
<title>Node3&#45;&gt;Node6</title>
<g id="a_edge5_Node000003_Node000006"><a xlink:title=" ">
<path fill="none" stroke="#63b8ff" d="M216.38,-127.81C236.52,-118.69 262.9,-106.74 283.43,-97.44"/>
<polygon fill="#63b8ff" stroke="#63b8ff" points="214.95,-124.62 207.28,-131.93 217.83,-130.99 214.95,-124.62"/>
</a>
</g>
</g>
<!-- Node7 -->
<g id="Node000007" class="node">
<title>Node7</title>
<g id="a_Node000007"><a xlink:href="controller__driver_8cpp.html" target="_top" xlink:title=" ">
<polygon fill="white" stroke="#666666" points="376.38,-30.5 255.38,-30.5 255.38,0 376.38,0 376.38,-30.5"/>
<text text-anchor="start" x="263.38" y="-17" font-family="Helvetica,sans-Serif" font-size="10.00">bcnp/transport/controller</text>
<text text-anchor="middle" x="315.88" y="-5.75" font-family="Helvetica,sans-Serif" font-size="10.00">_driver.cpp</text>
</a>
</g>
</g>
<!-- Node6&#45;&gt;Node7 -->
<g id="edge6_Node000006_Node000007" class="edge">
<title>Node6&#45;&gt;Node7</title>
<g id="a_edge6_Node000006_Node000007"><a xlink:title=" ">
<path fill="none" stroke="#63b8ff" d="M315.88,-54.81C315.88,-46.64 315.88,-37.91 315.88,-30.83"/>
<polygon fill="#63b8ff" stroke="#63b8ff" points="312.38,-54.6 315.88,-64.6 319.38,-54.6 312.38,-54.6"/>
</a>
</g>
</g>
</g>
</svg>
