<?xml version="1.0" encoding="UTF-8" standalone="no"?>
<!DOCTYPE svg PUBLIC "-//W3C//DTD SVG 1.1//EN"
 "http://www.w3.org/Graphics/SVG/1.1/DTD/svg11.dtd">
<!-- Generated by graphviz version 12.2.0 (20241103.1931)
 -->
<!-- Title: bcnp/message_queue.h Pages: 1 -->
<svg width="469pt" height="83pt"
 viewBox="0.00 0.00 468.62 82.50" xmlns="http://www.w3.org/2000/svg" xmlns:xlink="http://www.w3.org/1999/xlink">
<g id="graph0" class="graph" transform="scale(1 1) rotate(0) translate(4 78.5)">
<title>bcnp/message_queue.h</title>
<!-- Node1 -->
<g id="Node000001" class="node">
<title>Node1</title>
<g id="a_Node000001"><a xlink:title="Timed message queue for executing duration&#45;based commands.">
<polygon fill="#999999" stroke="#666666" points="286.25,-74.5 167.5,-74.5 167.5,-55.25 286.25,-55.25 286.25,-74.5"/>
<text text-anchor="middle" x="226.88" y="-61" font-family="Helvetica,sans-Serif" font-size="10.00">bcnp/message_queue.h</text>
</a>
</g>
</g>
<!-- Node2 -->
<g id="Node000002" class="node">
<title>Node2</title>
<g id="a_Node000002"><a xlink:title=" ">
<polygon fill="#e0e0e0" stroke="#999999" points="55.75,-19.25 0,-19.25 0,0 55.75,0 55.75,-19.25"/>
<text text-anchor="middle" x="27.88" y="-5.75" font-family="Helvetica,sans-Serif" font-size="10.00">algorithm</text>
</a>
</g>
</g>
<!-- Node1&#45;&gt;Node2 -->
<g id="edge1_Node000001_Node000002" class="edge">
<title>Node1&#45;&gt;Node2</title>
<g id="a_edge1_Node000001_Node000002"><a xlink:title=" ">
<path fill="none" stroke="#63b8ff" d="M193.12,-54.84C158.15,-45.48 103.56,-30.88 66.79,-21.04"/>
<polygon fill="#63b8ff" stroke="#63b8ff" points="68.02,-17.75 57.46,-18.54 66.22,-24.51 68.02,-17.75"/>
</a>
</g>
</g>
<!-- Node3 -->
<g id="Node000003" class="node">
<title>Node3</title>
<g id="a_Node000003"><a xlink:title=" ">
<polygon fill="#e0e0e0" stroke="#999999" points="119.5,-19.25 74.25,-19.25 74.25,0 119.5,0 119.5,-19.25"/>
<text text-anchor="middle" x="96.88" y="-5.75" font-family="Helvetica,sans-Serif" font-size="10.00">chrono</text>
</a>
</g>
</g>
<!-- Node1&#45;&gt;Node3 -->
<g id="edge2_Node000001_Node000003" class="edge">
<title>Node1&#45;&gt;Node3</title>
<g id="a_edge2_Node000001_Node000003"><a xlink:title=" ">
<path fill="none" stroke="#63b8ff" d="M204.82,-54.84C184.19,-46.39 153.09,-33.65 129.57,-24.02"/>
<polygon fill="#63b8ff" stroke="#63b8ff" points="131.02,-20.83 120.44,-20.28 128.36,-27.31 131.02,-20.83"/>
</a>
</g>
</g>
<!-- Node4 -->
<g id="Node000004" class="node">
<title>Node4</title>
<g id="a_Node000004"><a xlink:title=" ">
<polygon fill="#e0e0e0" stroke="#999999" points="186,-19.25 137.75,-19.25 137.75,0 186,0 186,-19.25"/>
<text text-anchor="middle" x="161.88" y="-5.75" font-family="Helvetica,sans-Serif" font-size="10.00">cstddef</text>
</a>
</g>
</g>
<!-- Node1&#45;&gt;Node4 -->
<g id="edge3_Node000001_Node000004" class="edge">
<title>Node1&#45;&gt;Node4</title>
<g id="a_edge3_Node000001_Node000004"><a xlink:title=" ">
<path fill="none" stroke="#63b8ff" d="M215.85,-54.84C206.45,-47.15 192.73,-35.9 181.47,-26.68"/>
<polygon fill="#63b8ff" stroke="#63b8ff" points="183.86,-24.11 173.91,-20.48 179.43,-29.53 183.86,-24.11"/>
</a>
</g>
</g>
<!-- Node5 -->
<g id="Node000005" class="node">
<title>Node5</title>
<g id="a_Node000005"><a xlink:title=" ">
<polygon fill="#e0e0e0" stroke="#999999" points="249.5,-19.25 204.25,-19.25 204.25,0 249.5,0 249.5,-19.25"/>
<text text-anchor="middle" x="226.88" y="-5.75" font-family="Helvetica,sans-Serif" font-size="10.00">cstdint</text>
</a>
</g>
</g>
<!-- Node1&#45;&gt;Node5 -->
<g id="edge4_Node000001_Node000005" class="edge">
<title>Node1&#45;&gt;Node5</title>
<g id="a_edge4_Node000001_Node000005"><a xlink:title=" ">
<path fill="none" stroke="#63b8ff" d="M226.88,-55.08C226.88,-48.57 226.88,-39.42 226.88,-31.12"/>
<polygon fill="#63b8ff" stroke="#63b8ff" points="230.38,-31.12 226.88,-21.12 223.38,-31.12 230.38,-31.12"/>
</a>
</g>
</g>
<!-- Node6 -->
<g id="Node000006" class="node">
<title>Node6</title>
<g id="a_Node000006"><a xlink:title=" ">
<polygon fill="#e0e0e0" stroke="#999999" points="310,-19.25 267.75,-19.25 267.75,0 310,0 310,-19.25"/>
<text text-anchor="middle" x="288.88" y="-5.75" font-family="Helvetica,sans-Serif" font-size="10.00">mutex</text>
</a>
</g>
</g>
<!-- Node1&#45;&gt;Node6 -->
<g id="edge5_Node000001_Node000006" class="edge">
<title>Node1&#45;&gt;Node6</title>
<g id="a_edge5_Node000001_Node000006"><a xlink:title=" ">
<path fill="none" stroke="#63b8ff" d="M237.39,-54.84C246.26,-47.22 259.19,-36.12 269.86,-26.95"/>
<polygon fill="#63b8ff" stroke="#63b8ff" points="272.06,-29.68 277.36,-20.51 267.5,-24.37 272.06,-29.68"/>
</a>
</g>
</g>
<!-- Node7 -->
<g id="Node000007" class="node">
<title>Node7</title>
<g id="a_Node000007"><a xlink:title=" ">
<polygon fill="#e0e0e0" stroke="#999999" points="371.38,-19.25 328.38,-19.25 328.38,0 371.38,0 371.38,-19.25"/>
<text text-anchor="middle" x="349.88" y="-5.75" font-family="Helvetica,sans-Serif" font-size="10.00">vector</text>
</a>
</g>
</g>
<!-- Node1&#45;&gt;Node7 -->
<g id="edge6_Node000001_Node000007" class="edge">
<title>Node1&#45;&gt;Node7</title>
<g id="a_edge6_Node000001_Node000007"><a xlink:title=" ">
<path fill="none" stroke="#63b8ff" d="M247.74,-54.84C267.18,-46.43 296.42,-33.77 318.64,-24.15"/>
<polygon fill="#63b8ff" stroke="#63b8ff" points="319.73,-27.49 327.52,-20.3 316.95,-21.06 319.73,-27.49"/>
</a>
</g>
</g>
<!-- Node8 -->
<g id="Node000008" class="node">
<title>Node8</title>
<g id="a_Node000008"><a xlink:title=" ">
<polygon fill="#e0e0e0" stroke="#999999" points="460.62,-19.25 389.12,-19.25 389.12,0 460.62,0 460.62,-19.25"/>
<text text-anchor="middle" x="424.88" y="-5.75" font-family="Helvetica,sans-Serif" font-size="10.00">crab/option.h</text>
</a>
</g>
</g>
<!-- Node1&#45;&gt;Node8 -->
<g id="edge7_Node000001_Node000008" class="edge">
<title>Node1&#45;&gt;Node8</title>
<g id="a_edge7_Node000001_Node000008"><a xlink:title=" ">
<path fill="none" stroke="#63b8ff" d="M260.46,-54.84C293.46,-45.97 344,-32.37 380.34,-22.6"/>
<polygon fill="#63b8ff" stroke="#63b8ff" points="380.91,-26.07 389.66,-20.1 379.09,-19.31 380.91,-26.07"/>
</a>
</g>
</g>
</g>
</svg>
