<?xml version="1.0" encoding="UTF-8" standalone="no"?>
<!DOCTYPE svg PUBLIC "-//W3C//DTD SVG 1.1//EN"
 "http://www.w3.org/Graphics/SVG/1.1/DTD/svg11.dtd">
<!-- Generated by graphviz version 12.2.0 (20241103.1931)
 -->
<!-- Title: bcnp/message_types.h Pages: 1 -->
<svg width="565pt" height="83pt"
 viewBox="0.00 0.00 565.12 82.50" xmlns="http://www.w3.org/2000/svg" xmlns:xlink="http://www.w3.org/1999/xlink">
<g id="graph0" class="graph" transform="scale(1 1) rotate(0) translate(4 78.5)">
<title>bcnp/message_types.h</title>
<!-- Node1 -->
<g id="Node000001" class="node">
<title>Node1</title>
<g id="a_Node000001"><a xlink:title=" ">
<polygon fill="#999999" stroke="#666666" points="326.38,-74.5 210.62,-74.5 210.62,-55.25 326.38,-55.25 326.38,-74.5"/>
<text text-anchor="middle" x="268.5" y="-61" font-family="Helvetica,sans-Serif" font-size="10.00">bcnp/message_types.h</text>
</a>
</g>
</g>
<!-- Node2 -->
<g id="Node000002" class="node">
<title>Node2</title>
<g id="a_Node000002"><a xlink:title=" ">
<polygon fill="#e0e0e0" stroke="#999999" points="37,-19.25 0,-19.25 0,0 37,0 37,-19.25"/>
<text text-anchor="middle" x="18.5" y="-5.75" font-family="Helvetica,sans-Serif" font-size="10.00">array</text>
</a>
</g>
</g>
<!-- Node1&#45;&gt;Node2 -->
<g id="edge1_Node000001_Node000002" class="edge">
<title>Node1&#45;&gt;Node2</title>
<g id="a_edge1_Node000001_Node000002"><a xlink:title=" ">
<path fill="none" stroke="#63b8ff" d="M215.68,-54.8C172.96,-47.12 111.07,-35.2 48.3,-19.49"/>
<polygon fill="#63b8ff" stroke="#63b8ff" points="49.43,-16.17 38.87,-17.1 47.7,-22.95 49.43,-16.17"/>
</a>
</g>
</g>
<!-- Node3 -->
<g id="Node000003" class="node">
<title>Node3</title>
<g id="a_Node000003"><a xlink:title=" ">
<polygon fill="#e0e0e0" stroke="#999999" points="103.62,-19.25 55.38,-19.25 55.38,0 103.62,0 103.62,-19.25"/>
<text text-anchor="middle" x="79.5" y="-5.75" font-family="Helvetica,sans-Serif" font-size="10.00">cstddef</text>
</a>
</g>
</g>
<!-- Node1&#45;&gt;Node3 -->
<g id="edge2_Node000001_Node000003" class="edge">
<title>Node1&#45;&gt;Node3</title>
<g id="a_edge2_Node000001_Node000003"><a xlink:title=" ">
<path fill="none" stroke="#63b8ff" d="M236.44,-54.84C202.61,-45.31 149.45,-30.33 114.54,-20.5"/>
<polygon fill="#63b8ff" stroke="#63b8ff" points="115.92,-17.25 105.34,-17.91 114.02,-23.99 115.92,-17.25"/>
</a>
</g>
</g>
<!-- Node4 -->
<g id="Node000004" class="node">
<title>Node4</title>
<g id="a_Node000004"><a xlink:title=" ">
<polygon fill="#e0e0e0" stroke="#999999" points="167.12,-19.25 121.88,-19.25 121.88,0 167.12,0 167.12,-19.25"/>
<text text-anchor="middle" x="144.5" y="-5.75" font-family="Helvetica,sans-Serif" font-size="10.00">cstdint</text>
</a>
</g>
</g>
<!-- Node1&#45;&gt;Node4 -->
<g id="edge3_Node000001_Node000004" class="edge">
<title>Node1&#45;&gt;Node4</title>
<g id="a_edge3_Node000001_Node000004"><a xlink:title=" ">
<path fill="none" stroke="#63b8ff" d="M247.47,-54.84C227.87,-46.43 198.39,-33.77 175.99,-24.15"/>
<polygon fill="#63b8ff" stroke="#63b8ff" points="177.6,-21.03 167.03,-20.3 174.84,-27.46 177.6,-21.03"/>
</a>
</g>
</g>
<!-- Node5 -->
<g id="Node000005" class="node">
<title>Node5</title>
<g id="a_Node000005"><a xlink:title=" ">
<polygon fill="#e0e0e0" stroke="#999999" points="228,-19.25 185,-19.25 185,0 228,0 228,-19.25"/>
<text text-anchor="middle" x="206.5" y="-5.75" font-family="Helvetica,sans-Serif" font-size="10.00">cmath</text>
</a>
</g>
</g>
<!-- Node1&#45;&gt;Node5 -->
<g id="edge4_Node000001_Node000005" class="edge">
<title>Node1&#45;&gt;Node5</title>
<g id="a_edge4_Node000001_Node000005"><a xlink:title=" ">
<path fill="none" stroke="#63b8ff" d="M257.98,-54.84C249.11,-47.22 236.19,-36.12 225.51,-26.95"/>
<polygon fill="#63b8ff" stroke="#63b8ff" points="227.88,-24.37 218.01,-20.51 223.32,-29.68 227.88,-24.37"/>
</a>
</g>
</g>
<!-- Node6 -->
<g id="Node000006" class="node">
<title>Node6</title>
<g id="a_Node000006"><a xlink:title=" ">
<polygon fill="#e0e0e0" stroke="#999999" points="291.12,-19.25 245.88,-19.25 245.88,0 291.12,0 291.12,-19.25"/>
<text text-anchor="middle" x="268.5" y="-5.75" font-family="Helvetica,sans-Serif" font-size="10.00">cstring</text>
</a>
</g>
</g>
<!-- Node1&#45;&gt;Node6 -->
<g id="edge5_Node000001_Node000006" class="edge">
<title>Node1&#45;&gt;Node6</title>
<g id="a_edge5_Node000001_Node000006"><a xlink:title=" ">
<path fill="none" stroke="#63b8ff" d="M268.5,-55.08C268.5,-48.57 268.5,-39.42 268.5,-31.12"/>
<polygon fill="#63b8ff" stroke="#63b8ff" points="272,-31.12 268.5,-21.12 265,-31.12 272,-31.12"/>
</a>
</g>
</g>
<!-- Node7 -->
<g id="Node000007" class="node">
<title>Node7</title>
<g id="a_Node000007"><a xlink:title=" ">
<polygon fill="#e0e0e0" stroke="#999999" points="367.5,-19.25 309.5,-19.25 309.5,0 367.5,0 367.5,-19.25"/>
<text text-anchor="middle" x="338.5" y="-5.75" font-family="Helvetica,sans-Serif" font-size="10.00">functional</text>
</a>
</g>
</g>
<!-- Node1&#45;&gt;Node7 -->
<g id="edge6_Node000001_Node000007" class="edge">
<title>Node1&#45;&gt;Node7</title>
<g id="a_edge6_Node000001_Node000007"><a xlink:title=" ">
<path fill="none" stroke="#63b8ff" d="M280.37,-54.84C290.59,-47.07 305.57,-35.67 317.76,-26.4"/>
<polygon fill="#63b8ff" stroke="#63b8ff" points="319.76,-29.28 325.6,-20.44 315.52,-23.71 319.76,-29.28"/>
</a>
</g>
</g>
<!-- Node8 -->
<g id="Node000008" class="node">
<title>Node8</title>
<g id="a_Node000008"><a xlink:title=" ">
<polygon fill="#e0e0e0" stroke="#999999" points="425.12,-19.25 385.88,-19.25 385.88,0 425.12,0 425.12,-19.25"/>
<text text-anchor="middle" x="405.5" y="-5.75" font-family="Helvetica,sans-Serif" font-size="10.00">limits</text>
</a>
</g>
</g>
<!-- Node1&#45;&gt;Node8 -->
<g id="edge7_Node000001_Node000008" class="edge">
<title>Node1&#45;&gt;Node8</title>
<g id="a_edge7_Node000001_Node000008"><a xlink:title=" ">
<path fill="none" stroke="#63b8ff" d="M291.74,-54.84C314.75,-45.9 350.09,-32.16 375.27,-22.37"/>
<polygon fill="#63b8ff" stroke="#63b8ff" points="376.25,-25.75 384.3,-18.87 373.71,-19.23 376.25,-25.75"/>
</a>
</g>
</g>
<!-- Node9 -->
<g id="Node000009" class="node">
<title>Node9</title>
<g id="a_Node000009"><a xlink:title=" ">
<polygon fill="#e0e0e0" stroke="#999999" points="493.38,-19.25 443.62,-19.25 443.62,0 493.38,0 493.38,-19.25"/>
<text text-anchor="middle" x="468.5" y="-5.75" font-family="Helvetica,sans-Serif" font-size="10.00">optional</text>
</a>
</g>
</g>
<!-- Node1&#45;&gt;Node9 -->
<g id="edge8_Node000001_Node000009" class="edge">
<title>Node1&#45;&gt;Node9</title>
<g id="a_edge8_Node000001_Node000009"><a xlink:title=" ">
<path fill="none" stroke="#63b8ff" d="M302.43,-54.84C338.58,-45.21 395.6,-30.03 432.53,-20.2"/>
<polygon fill="#63b8ff" stroke="#63b8ff" points="433.07,-23.68 441.83,-17.73 431.27,-16.92 433.07,-23.68"/>
</a>
</g>
</g>
<!-- Node10 -->
<g id="Node000010" class="node">
<title>Node10</title>
<g id="a_Node000010"><a xlink:title=" ">
<polygon fill="#e0e0e0" stroke="#999999" points="557.12,-19.25 511.88,-19.25 511.88,0 557.12,0 557.12,-19.25"/>
<text text-anchor="middle" x="534.5" y="-5.75" font-family="Helvetica,sans-Serif" font-size="10.00">variant</text>
</a>
</g>
</g>
<!-- Node1&#45;&gt;Node10 -->
<g id="edge9_Node000001_Node000010" class="edge">
<title>Node1&#45;&gt;Node10</title>
<g id="a_edge9_Node000001_Node000010"><a xlink:title=" ">
<path fill="none" stroke="#63b8ff" d="M322.18,-54.82C367.25,-46.94 433.58,-34.75 500.33,-19.61"/>
<polygon fill="#63b8ff" stroke="#63b8ff" points="501.04,-23.03 510,-17.39 499.48,-16.21 501.04,-23.03"/>
</a>
</g>
</g>
</g>
</svg>
