<?xml version="1.0" encoding="UTF-8" standalone="no"?>
<!DOCTYPE svg PUBLIC "-//W3C//DTD SVG 1.1//EN"
 "http://www.w3.org/Graphics/SVG/1.1/DTD/svg11.dtd">
<!-- Generated by graphviz version 12.2.0 (20241103.1931)
 -->
<!-- Title: bcnp::detail::LoadU32 Pages: 1 -->
<svg width="497pt" height="193pt"
 viewBox="0.00 0.00 497.00 193.25" xmlns="http://www.w3.org/2000/svg" xmlns:xlink="http://www.w3.org/1999/xlink">
<g id="graph0" class="graph" transform="scale(1 1) rotate(0) translate(4 189.25)">
<title>bcnp::detail::LoadU32</title>
<!-- Node1 -->
<g id="Node000001" class="node">
<title>Node1</title>
<g id="a_Node000001"><a xlink:title=" ">
<polygon fill="#999999" stroke="#666666" points="489,-93.25 380,-93.25 380,-74 489,-74 489,-93.25"/>
<text text-anchor="middle" x="434.5" y="-79.75" font-family="Helvetica,sans-Serif" font-size="10.00">bcnp::detail::LoadU32</text>
</a>
</g>
</g>
<!-- Node2 -->
<g id="Node000002" class="node">
<title>Node2</title>
<g id="a_Node000002"><a xlink:href="namespacebcnp.html#abfa84506649424c70b4d70dfc47f5434" target="_top" xlink:title="Decode a packet with explicitly provided message wire size.">
<polygon fill="white" stroke="#666666" points="342.12,-167.25 176.88,-167.25 176.88,-148 342.12,-148 342.12,-167.25"/>
<text text-anchor="middle" x="259.5" y="-153.75" font-family="Helvetica,sans-Serif" font-size="10.00">bcnp::DecodePacketViewWithSize</text>
</a>
</g>
</g>
<!-- Node1&#45;&gt;Node2 -->
<g id="edge1_Node000001_Node000002" class="edge">
<title>Node1&#45;&gt;Node2</title>
<g id="a_edge1_Node000001_Node000002"><a xlink:title=" ">
<path fill="none" stroke="#63b8ff" d="M411.85,-100.19C394.41,-112.77 368.79,-129.56 344,-139.62 336.31,-142.75 327.98,-145.37 319.67,-147.55"/>
<polygon fill="#63b8ff" stroke="#63b8ff" points="413.45,-103.36 419.42,-94.6 409.3,-97.72 413.45,-103.36"/>
</a>
</g>
</g>
<!-- Node5 -->
<g id="Node000005" class="node">
<title>Node5</title>
<g id="a_Node000005"><a xlink:href="namespacebcnp.html#a9774aff8eeac9257a872b237890ba56c" target="_top" xlink:title=" ">
<polygon fill="white" stroke="#666666" points="324.88,-130.25 194.12,-130.25 194.12,-111 324.88,-111 324.88,-130.25"/>
<text text-anchor="middle" x="259.5" y="-116.75" font-family="Helvetica,sans-Serif" font-size="10.00">bcnp::ExtractSchemaHash</text>
</a>
</g>
</g>
<!-- Node1&#45;&gt;Node5 -->
<g id="edge4_Node000001_Node000005" class="edge">
<title>Node1&#45;&gt;Node5</title>
<g id="a_edge4_Node000001_Node000005"><a xlink:title=" ">
<path fill="none" stroke="#63b8ff" d="M375.04,-96.13C353.12,-100.82 328.5,-106.08 307.72,-110.53"/>
<polygon fill="#63b8ff" stroke="#63b8ff" points="375.7,-99.57 384.75,-94.05 374.24,-92.72 375.7,-99.57"/>
</a>
</g>
</g>
<!-- Node6 -->
<g id="Node000006" class="node">
<title>Node6</title>
<g id="a_Node000006"><a xlink:href="namespacebcnp_1_1detail.html#ab76c70abff4137592d822604ad65cb84" target="_top" xlink:title=" ">
<polygon fill="white" stroke="#666666" points="313.62,-93.25 205.38,-93.25 205.38,-74 313.62,-74 313.62,-93.25"/>
<text text-anchor="middle" x="259.5" y="-79.75" font-family="Helvetica,sans-Serif" font-size="10.00">bcnp::detail::LoadS32</text>
</a>
</g>
</g>
<!-- Node1&#45;&gt;Node6 -->
<g id="edge5_Node000001_Node000006" class="edge">
<title>Node1&#45;&gt;Node6</title>
<g id="a_edge5_Node000001_Node000006"><a xlink:title=" ">
<path fill="none" stroke="#63b8ff" d="M368.43,-83.62C350.46,-83.62 331.18,-83.62 313.96,-83.62"/>
<polygon fill="#63b8ff" stroke="#63b8ff" points="368.2,-87.13 378.2,-83.63 368.2,-80.13 368.2,-87.13"/>
</a>
</g>
</g>
<!-- Node7 -->
<g id="Node000007" class="node">
<title>Node7</title>
<g id="a_Node000007"><a xlink:href="namespacebcnp.html#ae3ae8e77c0d6a1ccdf99860bd48ffdda" target="_top" xlink:title=" ">
<polygon fill="white" stroke="#666666" points="322.62,-56.25 196.38,-56.25 196.38,-37 322.62,-37 322.62,-56.25"/>
<text text-anchor="middle" x="259.5" y="-42.75" font-family="Helvetica,sans-Serif" font-size="10.00">bcnp::ValidateHandshake</text>
</a>
</g>
</g>
<!-- Node1&#45;&gt;Node7 -->
<g id="edge6_Node000001_Node000007" class="edge">
<title>Node1&#45;&gt;Node7</title>
<g id="a_edge6_Node000001_Node000007"><a xlink:title=" ">
<path fill="none" stroke="#63b8ff" d="M375.04,-71.12C353.12,-66.43 328.5,-61.17 307.72,-56.72"/>
<polygon fill="#63b8ff" stroke="#63b8ff" points="374.24,-74.53 384.75,-73.2 375.7,-67.68 374.24,-74.53"/>
</a>
</g>
</g>
<!-- Node8 -->
<g id="Node000008" class="node">
<title>Node8</title>
<g id="a_Node000008"><a xlink:href="namespacebcnp.html#a8566dae7c5d0d4154c3dbbbac98f7509" target="_top" xlink:title="Validate handshake against custom expected hash (for testing)">
<polygon fill="white" stroke="#666666" points="344,-19.25 175,-19.25 175,0 344,0 344,-19.25"/>
<text text-anchor="middle" x="259.5" y="-5.75" font-family="Helvetica,sans-Serif" font-size="10.00">bcnp::ValidateHandshakeWithHash</text>
</a>
</g>
</g>
<!-- Node1&#45;&gt;Node8 -->
<g id="edge7_Node000001_Node000008" class="edge">
<title>Node1&#45;&gt;Node8</title>
<g id="a_edge7_Node000001_Node000008"><a xlink:title=" ">
<path fill="none" stroke="#63b8ff" d="M411.85,-67.06C394.41,-54.48 368.79,-37.69 344,-27.62 336.31,-24.5 327.98,-21.88 319.67,-19.7"/>
<polygon fill="#63b8ff" stroke="#63b8ff" points="409.3,-69.53 419.42,-72.65 413.45,-63.89 409.3,-69.53"/>
</a>
</g>
</g>
<!-- Node3 -->
<g id="Node000003" class="node">
<title>Node3</title>
<g id="a_Node000003"><a xlink:href="namespacebcnp.html#a8b5330ec65ad03a70dd3f46e95763492" target="_top" xlink:title="Decode a packet using the global message type registry.">
<polygon fill="white" stroke="#666666" points="133,-185.25 6,-185.25 6,-166 133,-166 133,-185.25"/>
<text text-anchor="middle" x="69.5" y="-171.75" font-family="Helvetica,sans-Serif" font-size="10.00">bcnp::DecodePacketView</text>
</a>
</g>
</g>
<!-- Node2&#45;&gt;Node3 -->
<g id="edge2_Node000002_Node000003" class="edge">
<title>Node2&#45;&gt;Node3</title>
<g id="a_edge2_Node000002_Node000003"><a xlink:title=" ">
<path fill="none" stroke="#63b8ff" d="M165.36,-166.54C154.56,-167.58 143.74,-168.61 133.48,-169.59"/>
<polygon fill="#63b8ff" stroke="#63b8ff" points="165.46,-170.05 175.08,-165.61 164.79,-163.08 165.46,-170.05"/>
</a>
</g>
</g>
<!-- Node4 -->
<g id="Node000004" class="node">
<title>Node4</title>
<g id="a_Node000004"><a xlink:href="namespacebcnp.html#a780ed4fce673d8bb91f37027c0d45ae1" target="_top" xlink:title="Type&#45;safe packet view decode using compile&#45;time message type.">
<polygon fill="white" stroke="#666666" points="139,-148.25 0,-148.25 0,-129 139,-129 139,-148.25"/>
<text text-anchor="middle" x="69.5" y="-134.75" font-family="Helvetica,sans-Serif" font-size="10.00">bcnp::DecodePacketViewAs</text>
</a>
</g>
</g>
<!-- Node2&#45;&gt;Node4 -->
<g id="edge3_Node000002_Node000004" class="edge">
<title>Node2&#45;&gt;Node4</title>
<g id="a_edge3_Node000002_Node000004"><a xlink:title=" ">
<path fill="none" stroke="#63b8ff" d="M165.14,-148.19C156.4,-147.31 147.66,-146.42 139.22,-145.57"/>
<polygon fill="#63b8ff" stroke="#63b8ff" points="164.78,-151.67 175.08,-149.19 165.48,-144.71 164.78,-151.67"/>
</a>
</g>
</g>
</g>
</svg>
