<?xml version="1.0" encoding="UTF-8" standalone="no"?>
<!DOCTYPE svg PUBLIC "-//W3C//DTD SVG 1.1//EN"
 "http://www.w3.org/Graphics/SVG/1.1/DTD/svg11.dtd">
<!-- Generated by graphviz version 12.2.0 (20241103.1931)
 -->
<!-- Title: bcnp::detail::StoreU32 Pages: 1 -->
<svg width="639pt" height="223pt"
 viewBox="0.00 0.00 639.00 222.50" xmlns="http://www.w3.org/2000/svg" xmlns:xlink="http://www.w3.org/1999/xlink">
<g id="graph0" class="graph" transform="scale(1 1) rotate(0) translate(4 218.5)">
<title>bcnp::detail::StoreU32</title>
<!-- Node1 -->
<g id="Node000001" class="node">
<title>Node1</title>
<g id="a_Node000001"><a xlink:title=" ">
<polygon fill="#999999" stroke="#666666" points="631,-137.88 520.5,-137.88 520.5,-118.62 631,-118.62 631,-137.88"/>
<text text-anchor="middle" x="575.75" y="-124.38" font-family="Helvetica,sans-Serif" font-size="10.00">bcnp::detail::StoreU32</text>
</a>
</g>
</g>
<!-- Node2 -->
<g id="Node000002" class="node">
<title>Node2</title>
<g id="a_Node000002"><a xlink:href="namespacebcnp.html#a3f0cc90c3f6a10d31333918c13f24666" target="_top" xlink:title="Encode handshake with default schema hash.">
<polygon fill="white" stroke="#666666" points="463.12,-159.88 339.88,-159.88 339.88,-140.62 463.12,-140.62 463.12,-159.88"/>
<text text-anchor="middle" x="401.5" y="-146.38" font-family="Helvetica,sans-Serif" font-size="10.00">bcnp::EncodeHandshake</text>
</a>
</g>
</g>
<!-- Node1&#45;&gt;Node2 -->
<g id="edge1_Node000001_Node000002" class="edge">
<title>Node1&#45;&gt;Node2</title>
<g id="a_edge1_Node000001_Node000002"><a xlink:title=" ">
<path fill="none" stroke="#63b8ff" d="M509.02,-136.64C494.08,-138.55 478.27,-140.57 463.53,-142.45"/>
<polygon fill="#63b8ff" stroke="#63b8ff" points="509.27,-140.14 518.75,-135.4 508.38,-133.2 509.27,-140.14"/>
</a>
</g>
</g>
<!-- Node6 -->
<g id="Node000006" class="node">
<title>Node6</title>
<g id="a_Node000006"><a xlink:href="namespacebcnp.html#a583dc6cf97c84c106a05ca36b38913b2" target="_top" xlink:title="Encode handshake with custom schema hash (for testing)">
<polygon fill="white" stroke="#666666" points="484.5,-202.88 318.5,-202.88 318.5,-183.62 484.5,-183.62 484.5,-202.88"/>
<text text-anchor="middle" x="401.5" y="-189.38" font-family="Helvetica,sans-Serif" font-size="10.00">bcnp::EncodeHandshakeWithHash</text>
</a>
</g>
</g>
<!-- Node1&#45;&gt;Node6 -->
<g id="edge5_Node000001_Node000006" class="edge">
<title>Node1&#45;&gt;Node6</title>
<g id="a_edge5_Node000001_Node000006"><a xlink:title=" ">
<path fill="none" stroke="#63b8ff" d="M544.58,-143.25C527.26,-151.54 504.94,-161.66 484.5,-169.25 470.59,-174.41 455.04,-179.21 441.25,-183.13"/>
<polygon fill="#63b8ff" stroke="#63b8ff" points="545.83,-146.54 553.3,-139.03 542.78,-140.24 545.83,-146.54"/>
</a>
</g>
</g>
<!-- Node7 -->
<g id="Node000007" class="node">
<title>Node7</title>
<g id="a_Node000007"><a xlink:href="namespacebcnp.html#a7230ac0a91ddcc20ac446c0699119779" target="_top" xlink:title="Encode a typed packet to a pre&#45;allocated buffer.">
<polygon fill="white" stroke="#666666" points="466.88,-116.88 336.12,-116.88 336.12,-97.62 466.88,-97.62 466.88,-116.88"/>
<text text-anchor="middle" x="401.5" y="-103.38" font-family="Helvetica,sans-Serif" font-size="10.00">bcnp::EncodeTypedPacket</text>
</a>
</g>
</g>
<!-- Node1&#45;&gt;Node7 -->
<g id="edge7_Node000001_Node000007" class="edge">
<title>Node1&#45;&gt;Node7</title>
<g id="a_edge7_Node000001_Node000007"><a xlink:title=" ">
<path fill="none" stroke="#63b8ff" d="M508.95,-120.23C495.26,-118.56 480.84,-116.8 467.19,-115.14"/>
<polygon fill="#63b8ff" stroke="#63b8ff" points="508.4,-123.69 518.75,-121.42 509.24,-116.74 508.4,-123.69"/>
</a>
</g>
</g>
<!-- Node11 -->
<g id="Node000011" class="node">
<title>Node11</title>
<g id="a_Node000011"><a xlink:href="namespacebcnp_1_1detail.html#aedb4d07afe5f19587db412c2ff534181" target="_top" xlink:title=" ">
<polygon fill="white" stroke="#666666" points="456.38,-79.88 346.62,-79.88 346.62,-60.62 456.38,-60.62 456.38,-79.88"/>
<text text-anchor="middle" x="401.5" y="-66.38" font-family="Helvetica,sans-Serif" font-size="10.00">bcnp::detail::StoreS32</text>
</a>
</g>
</g>
<!-- Node1&#45;&gt;Node11 -->
<g id="edge11_Node000001_Node000011" class="edge">
<title>Node1&#45;&gt;Node11</title>
<g id="a_edge11_Node000001_Node000011"><a xlink:title=" ">
<path fill="none" stroke="#63b8ff" d="M545.07,-113.28C527.74,-105.01 505.27,-95.06 484.5,-88.25 475.36,-85.25 465.48,-82.61 455.85,-80.33"/>
<polygon fill="#63b8ff" stroke="#63b8ff" points="543.25,-116.29 553.77,-117.51 546.31,-109.99 543.25,-116.29"/>
</a>
</g>
</g>
<!-- Node3 -->
<g id="Node000003" class="node">
<title>Node3</title>
<g id="a_Node000003"><a xlink:href="classbcnp_1_1TcpPosixAdapter.html#a771c39d8f37f40b5854b6ba9aae40230" target="_top" xlink:title="Sends the V3 protocol handshake to the peer.">
<polygon fill="white" stroke="#666666" points="275,-214.5 159.25,-214.5 159.25,-184 275,-184 275,-214.5"/>
<text text-anchor="start" x="167.25" y="-201" font-family="Helvetica,sans-Serif" font-size="10.00">bcnp::TcpPosixAdapter</text>
<text text-anchor="middle" x="217.12" y="-189.75" font-family="Helvetica,sans-Serif" font-size="10.00">::SendHandshake</text>
</a>
</g>
</g>
<!-- Node2&#45;&gt;Node3 -->
<g id="edge2_Node000002_Node000003" class="edge">
<title>Node2&#45;&gt;Node3</title>
<g id="a_edge2_Node000002_Node000003"><a xlink:title=" ">
<path fill="none" stroke="#63b8ff" d="M352.32,-163.2C328.64,-169.56 299.95,-177.26 275.19,-183.92"/>
<polygon fill="#63b8ff" stroke="#63b8ff" points="352.94,-166.65 361.69,-160.68 351.13,-159.89 352.94,-166.65"/>
</a>
</g>
</g>
<!-- Node5 -->
<g id="Node000005" class="node">
<title>Node5</title>
<g id="a_Node000005"><a xlink:href="classbcnp_1_1UdpPosixAdapter.html#aa9eea738990193152acf70b096a2fe55" target="_top" xlink:title="Sends the V3 protocol handshake to the current peer.">
<polygon fill="white" stroke="#666666" points="275.75,-165.5 158.5,-165.5 158.5,-135 275.75,-135 275.75,-165.5"/>
<text text-anchor="start" x="166.5" y="-152" font-family="Helvetica,sans-Serif" font-size="10.00">bcnp::UdpPosixAdapter</text>
<text text-anchor="middle" x="217.12" y="-140.75" font-family="Helvetica,sans-Serif" font-size="10.00">::SendHandshake</text>
</a>
</g>
</g>
<!-- Node2&#45;&gt;Node5 -->
<g id="edge4_Node000002_Node000005" class="edge">
<title>Node2&#45;&gt;Node5</title>
<g id="a_edge4_Node000002_Node000005"><a xlink:title=" ">
<path fill="none" stroke="#63b8ff" d="M328.27,-150.25C310.9,-150.25 292.58,-150.25 275.96,-150.25"/>
<polygon fill="#63b8ff" stroke="#63b8ff" points="328,-153.75 338,-150.25 328,-146.75 328,-153.75"/>
</a>
</g>
</g>
<!-- Node4 -->
<g id="Node000004" class="node">
<title>Node4</title>
<g id="a_Node000004"><a xlink:href="classbcnp_1_1TcpPosixAdapter.html#a9f02e95ffe1e0132c3b17395435bb785" target="_top" xlink:title="Receives bytes from the TCP connection.">
<polygon fill="white" stroke="#666666" points="115.75,-214.5 0,-214.5 0,-184 115.75,-184 115.75,-214.5"/>
<text text-anchor="start" x="8" y="-201" font-family="Helvetica,sans-Serif" font-size="10.00">bcnp::TcpPosixAdapter</text>
<text text-anchor="middle" x="57.88" y="-189.75" font-family="Helvetica,sans-Serif" font-size="10.00">::ReceiveChunk</text>
</a>
</g>
</g>
<!-- Node3&#45;&gt;Node4 -->
<g id="edge3_Node000003_Node000004" class="edge">
<title>Node3&#45;&gt;Node4</title>
<g id="a_edge3_Node000003_Node000004"><a xlink:title=" ">
<path fill="none" stroke="#63b8ff" d="M147.61,-199.25C137.08,-199.25 126.3,-199.25 116.05,-199.25"/>
<polygon fill="#63b8ff" stroke="#63b8ff" points="147.4,-202.75 157.4,-199.25 147.4,-195.75 147.4,-202.75"/>
</a>
</g>
</g>
<!-- Node6&#45;&gt;Node3 -->
<g id="edge6_Node000006_Node000003" class="edge">
<title>Node6&#45;&gt;Node3</title>
<g id="a_edge6_Node000006_Node000003"><a xlink:title=" ">
<path fill="none" stroke="#63b8ff" d="M306.91,-196.33C296.15,-196.68 285.44,-197.04 275.36,-197.37"/>
<polygon fill="#63b8ff" stroke="#63b8ff" points="306.72,-199.84 316.6,-196.01 306.49,-192.84 306.72,-199.84"/>
</a>
</g>
</g>
<!-- Node8 -->
<g id="Node000008" class="node">
<title>Node8</title>
<g id="a_Node000008"><a xlink:href="namespacebcnp.html#a4146fa7eded1d9b950f7590c0f3e4f15" target="_top" xlink:title="Encode a typed packet to a dynamically&#45;sized vector.">
<polygon fill="white" stroke="#666666" points="282.5,-116.88 151.75,-116.88 151.75,-97.62 282.5,-97.62 282.5,-116.88"/>
<text text-anchor="middle" x="217.12" y="-103.38" font-family="Helvetica,sans-Serif" font-size="10.00">bcnp::EncodeTypedPacket</text>
</a>
</g>
</g>
<!-- Node7&#45;&gt;Node8 -->
<g id="edge8_Node000007_Node000008" class="edge">
<title>Node7&#45;&gt;Node8</title>
<g id="a_edge8_Node000007_Node000008"><a xlink:title=" ">
<path fill="none" stroke="#63b8ff" d="M324.23,-107.25C310.43,-107.25 296.16,-107.25 282.73,-107.25"/>
<polygon fill="#63b8ff" stroke="#63b8ff" points="324.17,-110.75 334.17,-107.25 324.17,-103.75 324.17,-110.75"/>
</a>
</g>
</g>
<!-- Node9 -->
<g id="Node000009" class="node">
<title>Node9</title>
<g id="a_Node000009"><a xlink:href="classbcnp_1_1DispatcherDriver.html#abe00a2e8e6c1d26fbfd7e148767bf0e1" target="_top" xlink:title="Send a typed packet.">
<polygon fill="white" stroke="#666666" points="273.88,-79.5 160.38,-79.5 160.38,-49 273.88,-49 273.88,-79.5"/>
<text text-anchor="start" x="168.38" y="-66" font-family="Helvetica,sans-Serif" font-size="10.00">bcnp::DispatcherDriver</text>
<text text-anchor="middle" x="217.12" y="-54.75" font-family="Helvetica,sans-Serif" font-size="10.00">::SendPacket</text>
</a>
</g>
</g>
<!-- Node7&#45;&gt;Node9 -->
<g id="edge9_Node000007_Node000009" class="edge">
<title>Node7&#45;&gt;Node9</title>
<g id="a_edge9_Node000007_Node000009"><a xlink:title=" ">
<path fill="none" stroke="#63b8ff" d="M342.39,-94.7C334.35,-92.91 326.22,-91.06 318.5,-89.25 304.16,-85.89 288.71,-82.12 274.33,-78.54"/>
<polygon fill="#63b8ff" stroke="#63b8ff" points="341.62,-98.12 352.14,-96.87 343.13,-91.29 341.62,-98.12"/>
</a>
</g>
</g>
<!-- Node10 -->
<g id="Node000010" class="node">
<title>Node10</title>
<g id="a_Node000010"><a xlink:href="classbcnp_1_1SpiStreamAdapter.html#a329f6b5039478e609fa727560ae8d48f" target="_top" xlink:title="Send a typed packet over SPI.">
<polygon fill="white" stroke="#666666" points="277.62,-30.5 156.62,-30.5 156.62,0 277.62,0 277.62,-30.5"/>
<text text-anchor="start" x="164.62" y="-17" font-family="Helvetica,sans-Serif" font-size="10.00">bcnp::SpiStreamAdapter</text>
<text text-anchor="middle" x="217.12" y="-5.75" font-family="Helvetica,sans-Serif" font-size="10.00">::SendPacket</text>
</a>
</g>
</g>
<!-- Node7&#45;&gt;Node10 -->
<g id="edge10_Node000007_Node000010" class="edge">
<title>Node7&#45;&gt;Node10</title>
<g id="a_edge10_Node000007_Node000010"><a xlink:title=" ">
<path fill="none" stroke="#63b8ff" d="M325.58,-93.33C323.14,-92.08 320.77,-90.73 318.5,-89.25 295.85,-74.52 303.95,-56.69 282.5,-40.25 277.84,-36.68 272.6,-33.56 267.18,-30.84"/>
<polygon fill="#63b8ff" stroke="#63b8ff" points="324.04,-96.47 334.61,-97.25 326.83,-90.05 324.04,-96.47"/>
</a>
</g>
</g>
</g>
</svg>
