<?xml version="1.0" encoding="UTF-8" standalone="no"?>
<!DOCTYPE svg PUBLIC "-//W3C//DTD SVG 1.1//EN"
 "http://www.w3.org/Graphics/SVG/1.1/DTD/svg11.dtd">
<!-- Generated by graphviz version 12.2.0 (20241103.1931)
 -->
<!-- Title: bcnp::detail::LoadU16 Pages: 1 -->
<svg width="493pt" height="101pt"
 viewBox="0.00 0.00 493.25 101.25" xmlns="http://www.w3.org/2000/svg" xmlns:xlink="http://www.w3.org/1999/xlink">

<svg id="main" version="1.1" xmlns="http://www.w3.org/2000/svg" xmlns:xlink="http://www.w3.org/1999/xlink" xml:space="preserve">

<style type="text/css"><![CDATA[
.node, .edge {opacity: 0.7;}
.node.selected, .edge.selected {opacity: 1;}
.edge:hover path { stroke: red; }
.edge:hover polygon { stroke: red; fill: red; }
]]></style>
<script type="application/ecmascript" xlink:href="svg.min.js"/>
<svg id="graph" class="graph">
<g id="graph0" class="graph" transform="scale(1 1) rotate(0) translate(4 97.25)">
<title>bcnp::detail::LoadU16</title>
<!-- Node1 -->
<g id="Node000001" class="node">
<title>Node1</title>
<g id="a_Node000001"><a xlink:title=" ">
<polygon fill="#999999" stroke="#666666" points="485.25,-56.25 376.25,-56.25 376.25,-37 485.25,-37 485.25,-56.25"/>
<text text-anchor="middle" x="430.75" y="-42.75" font-family="Helvetica,sans-Serif" font-size="10.00">bcnp::detail::LoadU16</text>
</a>
</g>
</g>
<!-- Node2 -->
<g id="Node000002" class="node">
<title>Node2</title>
<g id="a_Node000002"><a xlink:href="namespacebcnp.html#a8b5330ec65ad03a70dd3f46e95763492" target="_top" xlink:title="Decode a packet using the global message type registry.">
<polygon fill="white" stroke="#666666" points="133,-93.25 6,-93.25 6,-74 133,-74 133,-93.25"/>
<text text-anchor="middle" x="69.5" y="-79.75" font-family="Helvetica,sans-Serif" font-size="10.00">bcnp::DecodePacketView</text>
</a>
</g>
</g>
<!-- Node1&#45;&gt;Node2 -->
<g id="edge1_Node000001_Node000002" class="edge">
<title>Node1&#45;&gt;Node2</title>
<g id="a_edge1_Node000001_Node000002"><a xlink:title=" ">
<path fill="none" stroke="#63b8ff" d="M377.59,-59C365.4,-61.53 352.42,-63.94 340.25,-65.62 269.82,-75.4 188.28,-79.91 133.44,-81.96"/>
<polygon fill="#63b8ff" stroke="#63b8ff" points="378,-62.5 387.05,-56.98 376.54,-55.65 378,-62.5"/>
</a>
</g>
</g>
<!-- Node3 -->
<g id="Node000003" class="node">
<title>Node3</title>
<g id="a_Node000003"><a xlink:href="namespacebcnp.html#abfa84506649424c70b4d70dfc47f5434" target="_top" xlink:title="Decode a packet with explicitly provided message wire size.">
<polygon fill="white" stroke="#666666" points="340.25,-56.25 175,-56.25 175,-37 340.25,-37 340.25,-56.25"/>
<text text-anchor="middle" x="257.62" y="-42.75" font-family="Helvetica,sans-Serif" font-size="10.00">bcnp::DecodePacketViewWithSize</text>
</a>
</g>
</g>
<!-- Node1&#45;&gt;Node3 -->
<g id="edge2_Node000001_Node000003" class="edge">
<title>Node1&#45;&gt;Node3</title>
<g id="a_edge2_Node000001_Node000003"><a xlink:title=" ">
<path fill="none" stroke="#63b8ff" d="M364.73,-46.62C356.85,-46.62 348.72,-46.62 340.63,-46.62"/>
<polygon fill="#63b8ff" stroke="#63b8ff" points="364.56,-50.13 374.56,-46.63 364.56,-43.13 364.56,-50.13"/>
</a>
</g>
</g>
<!-- Node5 -->
<g id="Node000005" class="node">
<title>Node5</title>
<g id="a_Node000005"><a xlink:href="namespacebcnp_1_1detail.html#a0aa6aaeeb48bf83d7fe13b81c3138585" target="_top" xlink:title=" ">
<polygon fill="white" stroke="#666666" points="311.75,-19.25 203.5,-19.25 203.5,0 311.75,0 311.75,-19.25"/>
<text text-anchor="middle" x="257.62" y="-5.75" font-family="Helvetica,sans-Serif" font-size="10.00">bcnp::detail::LoadS16</text>
</a>
</g>
</g>
<!-- Node1&#45;&gt;Node5 -->
<g id="edge5_Node000001_Node000005" class="edge">
<title>Node1&#45;&gt;Node5</title>
<g id="a_edge5_Node000001_Node000005"><a xlink:title=" ">
<path fill="none" stroke="#63b8ff" d="M371.93,-34.12C350.24,-29.43 325.88,-24.17 305.33,-19.72"/>
<polygon fill="#63b8ff" stroke="#63b8ff" points="371,-37.5 381.51,-36.19 372.48,-30.66 371,-37.5"/>
</a>
</g>
</g>
<!-- Node3&#45;&gt;Node2 -->
<g id="edge3_Node000003_Node000002" class="edge">
<title>Node3&#45;&gt;Node2</title>
<g id="a_edge3_Node000003_Node000002"><a xlink:title=" ">
<path fill="none" stroke="#63b8ff" d="M194.7,-58.93C170.87,-63.67 143.96,-69.02 121.3,-73.53"/>
<polygon fill="#63b8ff" stroke="#63b8ff" points="195.16,-62.41 204.28,-57.03 193.79,-55.55 195.16,-62.41"/>
</a>
</g>
</g>
<!-- Node4 -->
<g id="Node000004" class="node">
<title>Node4</title>
<g id="a_Node000004"><a xlink:href="namespacebcnp.html#a780ed4fce673d8bb91f37027c0d45ae1" target="_top" xlink:title="Type&#45;safe packet view decode using compile&#45;time message type.">
<polygon fill="white" stroke="#666666" points="139,-56.25 0,-56.25 0,-37 139,-37 139,-56.25"/>
<text text-anchor="middle" x="69.5" y="-42.75" font-family="Helvetica,sans-Serif" font-size="10.00">bcnp::DecodePacketViewAs</text>
</a>
</g>
</g>
<!-- Node3&#45;&gt;Node4 -->
<g id="edge4_Node000003_Node000004" class="edge">
<title>Node3&#45;&gt;Node4</title>
<g id="a_edge4_Node000003_Node000004"><a xlink:title=" ">
<path fill="none" stroke="#63b8ff" d="M163.33,-46.62C155.25,-46.62 147.18,-46.62 139.36,-46.62"/>
<polygon fill="#63b8ff" stroke="#63b8ff" points="163.2,-50.13 173.2,-46.63 163.2,-43.13 163.2,-50.13"/>
</a>
</g>
</g>
</g>
</svg>
</svg>

<style type='text/css'>
<![CDATA[
[data-mouse-over-selected='false'] { opacity: 0.7; }
[data-mouse-over-selected='true']  { opacity: 1.0; }
]]>
</style>
<script type="application/ecmascript"><![CDATA[
document.addEventListener('DOMContentLoaded', (event) => {
  highlightEdges();
  highlightAdjacentNodes();
});
]]></script>
</svg>
