<?xml version="1.0" encoding="UTF-8" standalone="no"?>
<!DOCTYPE svg PUBLIC "-//W3C//DTD SVG 1.1//EN"
 "http://www.w3.org/Graphics/SVG/1.1/DTD/svg11.dtd">
<!-- Generated by graphviz version 12.2.0 (20241103.1931)
 -->
<!-- Title: bcnp::ComputeCrc32 Pages: 1 -->
<svg width="490pt" height="199pt"
 viewBox="0.00 0.00 490.25 198.88" xmlns="http://www.w3.org/2000/svg" xmlns:xlink="http://www.w3.org/1999/xlink">
<g id="graph0" class="graph" transform="scale(1 1) rotate(0) translate(4 194.88)">
<title>bcnp::ComputeCrc32</title>
<!-- Node1 -->
<g id="Node000001" class="node">
<title>Node1</title>
<g id="a_Node000001"><a xlink:title="Compute CRC32 checksum for data integrity verification.">
<polygon fill="#999999" stroke="#666666" points="482.25,-113.88 376.25,-113.88 376.25,-94.62 482.25,-94.62 482.25,-113.88"/>
<text text-anchor="middle" x="429.25" y="-100.38" font-family="Helvetica,sans-Serif" font-size="10.00">bcnp::ComputeCrc32</text>
</a>
</g>
</g>
<!-- Node2 -->
<g id="Node000002" class="node">
<title>Node2</title>
<g id="a_Node000002"><a xlink:href="namespacebcnp.html#abfa84506649424c70b4d70dfc47f5434" target="_top" xlink:title="Decode a packet with explicitly provided message wire size.">
<polygon fill="white" stroke="#666666" points="340.25,-153.88 175,-153.88 175,-134.62 340.25,-134.62 340.25,-153.88"/>
<text text-anchor="middle" x="257.62" y="-140.38" font-family="Helvetica,sans-Serif" font-size="10.00">bcnp::DecodePacketViewWithSize</text>
</a>
</g>
</g>
<!-- Node1&#45;&gt;Node2 -->
<g id="edge1_Node000001_Node000002" class="edge">
<title>Node1&#45;&gt;Node2</title>
<g id="a_edge1_Node000001_Node000002"><a xlink:title=" ">
<path fill="none" stroke="#63b8ff" d="M374.55,-116.91C350.95,-122.48 323.61,-128.93 301.41,-134.16"/>
<polygon fill="#63b8ff" stroke="#63b8ff" points="375.04,-120.39 383.97,-114.69 373.44,-113.58 375.04,-120.39"/>
</a>
</g>
</g>
<!-- Node5 -->
<g id="Node000005" class="node">
<title>Node5</title>
<g id="a_Node000005"><a xlink:href="namespacebcnp.html#a7230ac0a91ddcc20ac446c0699119779" target="_top" xlink:title="Encode a typed packet to a pre&#45;allocated buffer.">
<polygon fill="white" stroke="#666666" points="323,-95.88 192.25,-95.88 192.25,-76.62 323,-76.62 323,-95.88"/>
<text text-anchor="middle" x="257.62" y="-82.38" font-family="Helvetica,sans-Serif" font-size="10.00">bcnp::EncodeTypedPacket</text>
</a>
</g>
</g>
<!-- Node1&#45;&gt;Node5 -->
<g id="edge4_Node000001_Node000005" class="edge">
<title>Node1&#45;&gt;Node5</title>
<g id="a_edge4_Node000001_Node000005"><a xlink:title=" ">
<path fill="none" stroke="#63b8ff" d="M364.8,-97.52C351.24,-96.08 336.9,-94.56 323.3,-93.11"/>
<polygon fill="#63b8ff" stroke="#63b8ff" points="364.15,-100.97 374.47,-98.54 364.89,-94.01 364.15,-100.97"/>
</a>
</g>
</g>
<!-- Node3 -->
<g id="Node000003" class="node">
<title>Node3</title>
<g id="a_Node000003"><a xlink:href="namespacebcnp.html#a8b5330ec65ad03a70dd3f46e95763492" target="_top" xlink:title="Decode a packet using the global message type registry.">
<polygon fill="white" stroke="#666666" points="133,-190.88 6,-190.88 6,-171.62 133,-171.62 133,-190.88"/>
<text text-anchor="middle" x="69.5" y="-177.38" font-family="Helvetica,sans-Serif" font-size="10.00">bcnp::DecodePacketView</text>
</a>
</g>
</g>
<!-- Node2&#45;&gt;Node3 -->
<g id="edge2_Node000002_Node000003" class="edge">
<title>Node2&#45;&gt;Node3</title>
<g id="a_edge2_Node000002_Node000003"><a xlink:title=" ">
<path fill="none" stroke="#63b8ff" d="M194.7,-156.56C170.87,-161.3 143.96,-166.65 121.3,-171.15"/>
<polygon fill="#63b8ff" stroke="#63b8ff" points="195.16,-160.04 204.28,-154.66 193.79,-153.17 195.16,-160.04"/>
</a>
</g>
</g>
<!-- Node4 -->
<g id="Node000004" class="node">
<title>Node4</title>
<g id="a_Node000004"><a xlink:href="namespacebcnp.html#a780ed4fce673d8bb91f37027c0d45ae1" target="_top" xlink:title="Type&#45;safe packet view decode using compile&#45;time message type.">
<polygon fill="white" stroke="#666666" points="139,-153.88 0,-153.88 0,-134.62 139,-134.62 139,-153.88"/>
<text text-anchor="middle" x="69.5" y="-140.38" font-family="Helvetica,sans-Serif" font-size="10.00">bcnp::DecodePacketViewAs</text>
</a>
</g>
</g>
<!-- Node2&#45;&gt;Node4 -->
<g id="edge3_Node000002_Node000004" class="edge">
<title>Node2&#45;&gt;Node4</title>
<g id="a_edge3_Node000002_Node000004"><a xlink:title=" ">
<path fill="none" stroke="#63b8ff" d="M163.33,-144.25C155.25,-144.25 147.18,-144.25 139.36,-144.25"/>
<polygon fill="#63b8ff" stroke="#63b8ff" points="163.2,-147.75 173.2,-144.25 163.2,-140.75 163.2,-147.75"/>
</a>
</g>
</g>
<!-- Node6 -->
<g id="Node000006" class="node">
<title>Node6</title>
<g id="a_Node000006"><a xlink:href="namespacebcnp.html#a4146fa7eded1d9b950f7590c0f3e4f15" target="_top" xlink:title="Encode a typed packet to a dynamically&#45;sized vector.">
<polygon fill="white" stroke="#666666" points="134.88,-116.88 4.12,-116.88 4.12,-97.62 134.88,-97.62 134.88,-116.88"/>
<text text-anchor="middle" x="69.5" y="-103.38" font-family="Helvetica,sans-Serif" font-size="10.00">bcnp::EncodeTypedPacket</text>
</a>
</g>
</g>
<!-- Node5&#45;&gt;Node6 -->
<g id="edge5_Node000005_Node000006" class="edge">
<title>Node5&#45;&gt;Node6</title>
<g id="a_edge5_Node000005_Node000006"><a xlink:title=" ">
<path fill="none" stroke="#63b8ff" d="M180.43,-94.85C165.38,-96.54 149.72,-98.31 135.1,-99.96"/>
<polygon fill="#63b8ff" stroke="#63b8ff" points="180.74,-98.33 190.28,-93.74 179.96,-91.38 180.74,-98.33"/>
</a>
</g>
</g>
<!-- Node7 -->
<g id="Node000007" class="node">
<title>Node7</title>
<g id="a_Node000007"><a xlink:href="classbcnp_1_1DispatcherDriver.html#abe00a2e8e6c1d26fbfd7e148767bf0e1" target="_top" xlink:title="Send a typed packet.">
<polygon fill="white" stroke="#666666" points="126.25,-79.5 12.75,-79.5 12.75,-49 126.25,-49 126.25,-79.5"/>
<text text-anchor="start" x="20.75" y="-66" font-family="Helvetica,sans-Serif" font-size="10.00">bcnp::DispatcherDriver</text>
<text text-anchor="middle" x="69.5" y="-54.75" font-family="Helvetica,sans-Serif" font-size="10.00">::SendPacket</text>
</a>
</g>
</g>
<!-- Node5&#45;&gt;Node7 -->
<g id="edge6_Node000005_Node000007" class="edge">
<title>Node5&#45;&gt;Node7</title>
<g id="a_edge6_Node000005_Node000007"><a xlink:title=" ">
<path fill="none" stroke="#63b8ff" d="M180.44,-77.24C162.48,-75.12 143.64,-72.9 126.74,-70.9"/>
<polygon fill="#63b8ff" stroke="#63b8ff" points="179.94,-80.71 190.29,-78.41 180.77,-73.76 179.94,-80.71"/>
</a>
</g>
</g>
<!-- Node8 -->
<g id="Node000008" class="node">
<title>Node8</title>
<g id="a_Node000008"><a xlink:href="classbcnp_1_1SpiStreamAdapter.html#a329f6b5039478e609fa727560ae8d48f" target="_top" xlink:title="Send a typed packet over SPI.">
<polygon fill="white" stroke="#666666" points="130,-30.5 9,-30.5 9,0 130,0 130,-30.5"/>
<text text-anchor="start" x="17" y="-17" font-family="Helvetica,sans-Serif" font-size="10.00">bcnp::SpiStreamAdapter</text>
<text text-anchor="middle" x="69.5" y="-5.75" font-family="Helvetica,sans-Serif" font-size="10.00">::SendPacket</text>
</a>
</g>
</g>
<!-- Node5&#45;&gt;Node8 -->
<g id="edge7_Node000005_Node000008" class="edge">
<title>Node5&#45;&gt;Node8</title>
<g id="a_edge7_Node000005_Node000008"><a xlink:title=" ">
<path fill="none" stroke="#63b8ff" d="M221.02,-72.08C197.73,-62.88 166.62,-50.69 139,-40.25 130.95,-37.21 122.34,-34.02 114.04,-30.97"/>
<polygon fill="#63b8ff" stroke="#63b8ff" points="219.46,-75.23 230.04,-75.66 222.03,-68.72 219.46,-75.23"/>
</a>
</g>
</g>
</g>
</svg>
