<?xml version="1.0" encoding="UTF-8" standalone="no"?>
<!DOCTYPE svg PUBLIC "-//W3C//DTD SVG 1.1//EN"
 "http://www.w3.org/Graphics/SVG/1.1/DTD/svg11.dtd">
<!-- Generated by graphviz version 12.2.0 (20241103.1931)
 -->
<!-- Title: bcnp::detail::StoreU16 Pages: 1 -->
<svg width="452pt" height="125pt"
 viewBox="0.00 0.00 452.00 124.88" xmlns="http://www.w3.org/2000/svg" xmlns:xlink="http://www.w3.org/1999/xlink">

<svg id="main" version="1.1" xmlns="http://www.w3.org/2000/svg" xmlns:xlink="http://www.w3.org/1999/xlink" xml:space="preserve">

<style type="text/css"><![CDATA[
.node, .edge {opacity: 0.7;}
.node.selected, .edge.selected {opacity: 1;}
.edge:hover path { stroke: red; }
.edge:hover polygon { stroke: red; fill: red; }
]]></style>
<script type="application/ecmascript" xlink:href="svg.min.js"/>
<svg id="graph" class="graph">
<g id="graph0" class="graph" transform="scale(1 1) rotate(0) translate(4 120.88)">
<title>bcnp::detail::StoreU16</title>
<!-- Node1 -->
<g id="Node000001" class="node">
<title>Node1</title>
<g id="a_Node000001"><a xlink:title=" ">
<polygon fill="#999999" stroke="#666666" points="444,-54.88 333.5,-54.88 333.5,-35.62 444,-35.62 444,-54.88"/>
<text text-anchor="middle" x="388.75" y="-41.38" font-family="Helvetica,sans-Serif" font-size="10.00">bcnp::detail::StoreU16</text>
</a>
</g>
</g>
<!-- Node2 -->
<g id="Node000002" class="node">
<title>Node2</title>
<g id="a_Node000002"><a xlink:href="namespacebcnp.html#a7230ac0a91ddcc20ac446c0699119779" target="_top" xlink:title="Encode a typed packet to a pre&#45;allocated buffer.">
<polygon fill="white" stroke="#666666" points="297.5,-73.88 166.75,-73.88 166.75,-54.62 297.5,-54.62 297.5,-73.88"/>
<text text-anchor="middle" x="232.12" y="-60.38" font-family="Helvetica,sans-Serif" font-size="10.00">bcnp::EncodeTypedPacket</text>
</a>
</g>
</g>
<!-- Node1&#45;&gt;Node2 -->
<g id="edge1_Node000001_Node000002" class="edge">
<title>Node1&#45;&gt;Node2</title>
<g id="a_edge1_Node000001_Node000002"><a xlink:title=" ">
<path fill="none" stroke="#63b8ff" d="M322.02,-53.33C313.98,-54.32 305.76,-55.32 297.74,-56.31"/>
<polygon fill="#63b8ff" stroke="#63b8ff" points="322.23,-56.83 331.73,-52.13 321.38,-49.88 322.23,-56.83"/>
</a>
</g>
</g>
<!-- Node6 -->
<g id="Node000006" class="node">
<title>Node6</title>
<g id="a_Node000006"><a xlink:href="namespacebcnp_1_1detail.html#a4f0e0fe32551ebdddd3586457aed023d" target="_top" xlink:title=" ">
<polygon fill="white" stroke="#666666" points="287,-36.88 177.25,-36.88 177.25,-17.62 287,-17.62 287,-36.88"/>
<text text-anchor="middle" x="232.12" y="-23.38" font-family="Helvetica,sans-Serif" font-size="10.00">bcnp::detail::StoreS16</text>
</a>
</g>
</g>
<!-- Node1&#45;&gt;Node6 -->
<g id="edge5_Node000001_Node000006" class="edge">
<title>Node1&#45;&gt;Node6</title>
<g id="a_edge5_Node000001_Node000006"><a xlink:title=" ">
<path fill="none" stroke="#63b8ff" d="M321.89,-37.58C310.39,-36.24 298.55,-34.87 287.41,-33.57"/>
<polygon fill="#63b8ff" stroke="#63b8ff" points="321.39,-41.05 331.73,-38.73 322.2,-34.1 321.39,-41.05"/>
</a>
</g>
</g>
<!-- Node3 -->
<g id="Node000003" class="node">
<title>Node3</title>
<g id="a_Node000003"><a xlink:href="namespacebcnp.html#a4146fa7eded1d9b950f7590c0f3e4f15" target="_top" xlink:title="Encode a typed packet to a dynamically&#45;sized vector.">
<polygon fill="white" stroke="#666666" points="130.75,-116.88 0,-116.88 0,-97.62 130.75,-97.62 130.75,-116.88"/>
<text text-anchor="middle" x="65.38" y="-103.38" font-family="Helvetica,sans-Serif" font-size="10.00">bcnp::EncodeTypedPacket</text>
</a>
</g>
</g>
<!-- Node2&#45;&gt;Node3 -->
<g id="edge2_Node000002_Node000003" class="edge">
<title>Node2&#45;&gt;Node3</title>
<g id="a_edge2_Node000002_Node000003"><a xlink:title=" ">
<path fill="none" stroke="#63b8ff" d="M181.6,-77.18C157.07,-83.58 127.9,-91.19 105.04,-97.16"/>
<polygon fill="#63b8ff" stroke="#63b8ff" points="182.24,-80.63 191.03,-74.71 180.47,-73.85 182.24,-80.63"/>
</a>
</g>
</g>
<!-- Node4 -->
<g id="Node000004" class="node">
<title>Node4</title>
<g id="a_Node000004"><a xlink:href="classbcnp_1_1DispatcherDriver.html#abe00a2e8e6c1d26fbfd7e148767bf0e1" target="_top" xlink:title="Send a typed packet.">
<polygon fill="white" stroke="#666666" points="122.12,-79.5 8.62,-79.5 8.62,-49 122.12,-49 122.12,-79.5"/>
<text text-anchor="start" x="16.62" y="-66" font-family="Helvetica,sans-Serif" font-size="10.00">bcnp::DispatcherDriver</text>
<text text-anchor="middle" x="65.38" y="-54.75" font-family="Helvetica,sans-Serif" font-size="10.00">::SendPacket</text>
</a>
</g>
</g>
<!-- Node2&#45;&gt;Node4 -->
<g id="edge3_Node000002_Node000004" class="edge">
<title>Node2&#45;&gt;Node4</title>
<g id="a_edge3_Node000002_Node000004"><a xlink:title=" ">
<path fill="none" stroke="#63b8ff" d="M155.14,-64.25C144.17,-64.25 133.04,-64.25 122.55,-64.25"/>
<polygon fill="#63b8ff" stroke="#63b8ff" points="154.97,-67.75 164.97,-64.25 154.97,-60.75 154.97,-67.75"/>
</a>
</g>
</g>
<!-- Node5 -->
<g id="Node000005" class="node">
<title>Node5</title>
<g id="a_Node000005"><a xlink:href="classbcnp_1_1SpiStreamAdapter.html#a329f6b5039478e609fa727560ae8d48f" target="_top" xlink:title="Send a typed packet over SPI.">
<polygon fill="white" stroke="#666666" points="125.88,-30.5 4.88,-30.5 4.88,0 125.88,0 125.88,-30.5"/>
<text text-anchor="start" x="12.88" y="-17" font-family="Helvetica,sans-Serif" font-size="10.00">bcnp::SpiStreamAdapter</text>
<text text-anchor="middle" x="65.38" y="-5.75" font-family="Helvetica,sans-Serif" font-size="10.00">::SendPacket</text>
</a>
</g>
</g>
<!-- Node2&#45;&gt;Node5 -->
<g id="edge4_Node000002_Node000005" class="edge">
<title>Node2&#45;&gt;Node5</title>
<g id="a_edge4_Node000002_Node000005"><a xlink:title=" ">
<path fill="none" stroke="#63b8ff" d="M183.54,-51.1C177.87,-49.49 172.18,-47.85 166.75,-46.25 150.3,-41.41 132.4,-35.95 116.33,-30.97"/>
<polygon fill="#63b8ff" stroke="#63b8ff" points="182.28,-54.38 192.85,-53.73 184.18,-47.64 182.28,-54.38"/>
</a>
</g>
</g>
</g>
</svg>
</svg>

<style type='text/css'>
<![CDATA[
[data-mouse-over-selected='false'] { opacity: 0.7; }
[data-mouse-over-selected='true']  { opacity: 1.0; }
]]>
</style>
<script type="application/ecmascript"><![CDATA[
document.addEventListener('DOMContentLoaded', (event) => {
  highlightEdges();
  highlightAdjacentNodes();
});
]]></script>
</svg>
