<?xml version="1.0" encoding="UTF-8" standalone="no"?>
<!DOCTYPE svg PUBLIC "-//W3C//DTD SVG 1.1//EN"
 "http://www.w3.org/Graphics/SVG/1.1/DTD/svg11.dtd">
<!-- Generated by graphviz version 12.2.0 (20241103.1931)
 -->
<!-- Title: bcnp_codegen.compute_schema_hash Pages: 1 -->
<svg width="420pt" height="174pt"
 viewBox="0.00 0.00 419.75 173.50" xmlns="http://www.w3.org/2000/svg" xmlns:xlink="http://www.w3.org/1999/xlink">
<g id="graph0" class="graph" transform="scale(1 1) rotate(0) translate(4 169.5)">
<title>bcnp_codegen.compute_schema_hash</title>
<!-- Node1 -->
<g id="Node000001" class="node">
<title>Node1</title>
<g id="a_Node000001"><a xlink:title=" ">
<polygon fill="#999999" stroke="#666666" points="411.75,-100.5 293,-100.5 293,-70 411.75,-70 411.75,-100.5"/>
<text text-anchor="start" x="301" y="-87" font-family="Helvetica,sans-Serif" font-size="10.00">bcnp_codegen.compute</text>
<text text-anchor="middle" x="352.38" y="-75.75" font-family="Helvetica,sans-Serif" font-size="10.00">_schema_hash</text>
</a>
</g>
</g>
<!-- Node2 -->
<g id="Node000002" class="node">
<title>Node2</title>
<g id="a_Node000002"><a xlink:href="namespacebcnp__codegen.html#a14271e82d9d657419ff293b3c707ef57" target="_top" xlink:title=" ">
<polygon fill="white" stroke="#666666" points="257,-165.5 138.25,-165.5 138.25,-135 257,-135 257,-165.5"/>
<text text-anchor="start" x="146.25" y="-152" font-family="Helvetica,sans-Serif" font-size="10.00">bcnp_codegen.generate</text>
<text text-anchor="middle" x="197.62" y="-140.75" font-family="Helvetica,sans-Serif" font-size="10.00">_cpp_header</text>
</a>
</g>
</g>
<!-- Node1&#45;&gt;Node2 -->
<g id="edge1_Node000001_Node000002" class="edge">
<title>Node1&#45;&gt;Node2</title>
<g id="a_edge1_Node000001_Node000002"><a xlink:title=" ">
<path fill="none" stroke="#63b8ff" d="M303.92,-105.44C281.88,-114.82 256.08,-125.8 235.53,-134.55"/>
<polygon fill="#63b8ff" stroke="#63b8ff" points="305.17,-108.71 313.01,-101.58 302.43,-102.27 305.17,-108.71"/>
</a>
</g>
</g>
<!-- Node3 -->
<g id="Node000003" class="node">
<title>Node3</title>
<g id="a_Node000003"><a xlink:href="namespacebcnp__codegen.html#a3098a8cf8ab4cd7f48d959546d1249bd" target="_top" xlink:title=" ">
<polygon fill="white" stroke="#666666" points="102.25,-94.88 0,-94.88 0,-75.62 102.25,-75.62 102.25,-94.88"/>
<text text-anchor="middle" x="51.12" y="-81.38" font-family="Helvetica,sans-Serif" font-size="10.00">bcnp_codegen.main</text>
</a>
</g>
</g>
<!-- Node1&#45;&gt;Node3 -->
<g id="edge8_Node000001_Node000003" class="edge">
<title>Node1&#45;&gt;Node3</title>
<g id="a_edge8_Node000001_Node000003"><a xlink:title=" ">
<path fill="none" stroke="#63b8ff" d="M281.25,-87.73C273.07,-87.94 264.85,-88.13 257,-88.25 204.23,-89.09 191.02,-89.17 138.25,-88.25 126.73,-88.05 114.35,-87.7 102.67,-87.3"/>
<polygon fill="#63b8ff" stroke="#63b8ff" points="281.32,-91.23 291.22,-87.45 281.12,-84.23 281.32,-91.23"/>
</a>
</g>
</g>
<!-- Node4 -->
<g id="Node000004" class="node">
<title>Node4</title>
<g id="a_Node000004"><a xlink:href="namespacebcnp__codegen.html#a82e8f6b2a4e8697bf79d4c651a7779c2" target="_top" xlink:title=" ">
<polygon fill="white" stroke="#666666" points="257,-79.5 138.25,-79.5 138.25,-49 257,-49 257,-79.5"/>
<text text-anchor="start" x="146.25" y="-66" font-family="Helvetica,sans-Serif" font-size="10.00">bcnp_codegen.generate</text>
<text text-anchor="middle" x="197.62" y="-54.75" font-family="Helvetica,sans-Serif" font-size="10.00">_java_flyweights</text>
</a>
</g>
</g>
<!-- Node1&#45;&gt;Node4 -->
<g id="edge4_Node000001_Node000004" class="edge">
<title>Node1&#45;&gt;Node4</title>
<g id="a_edge4_Node000001_Node000004"><a xlink:title=" ">
<path fill="none" stroke="#63b8ff" d="M281.46,-75.64C273.39,-74.53 265.23,-73.41 257.34,-72.32"/>
<polygon fill="#63b8ff" stroke="#63b8ff" points="280.87,-79.09 291.26,-76.98 281.83,-72.16 280.87,-79.09"/>
</a>
</g>
</g>
<!-- Node5 -->
<g id="Node000005" class="node">
<title>Node5</title>
<g id="a_Node000005"><a xlink:href="namespacebcnp__codegen.html#affd215d78c16e027dd6be394b339e960" target="_top" xlink:title=" ">
<polygon fill="white" stroke="#666666" points="257,-30.5 138.25,-30.5 138.25,0 257,0 257,-30.5"/>
<text text-anchor="start" x="146.25" y="-17" font-family="Helvetica,sans-Serif" font-size="10.00">bcnp_codegen.generate</text>
<text text-anchor="middle" x="197.62" y="-5.75" font-family="Helvetica,sans-Serif" font-size="10.00">_python_bindings</text>
</a>
</g>
</g>
<!-- Node1&#45;&gt;Node5 -->
<g id="edge6_Node000001_Node000005" class="edge">
<title>Node1&#45;&gt;Node5</title>
<g id="a_edge6_Node000001_Node000005"><a xlink:title=" ">
<path fill="none" stroke="#63b8ff" d="M308.96,-64.58C292.77,-56.81 274.09,-47.98 257,-40.25 250.17,-37.16 242.85,-33.95 235.78,-30.9"/>
<polygon fill="#63b8ff" stroke="#63b8ff" points="307.31,-67.67 317.84,-68.86 310.35,-61.36 307.31,-67.67"/>
</a>
</g>
</g>
<!-- Node2&#45;&gt;Node3 -->
<g id="edge2_Node000002_Node000003" class="edge">
<title>Node2&#45;&gt;Node3</title>
<g id="a_edge2_Node000002_Node000003"><a xlink:title=" ">
<path fill="none" stroke="#63b8ff" d="M151.37,-129.89C125.67,-118.33 94.64,-104.38 74.2,-95.18"/>
<polygon fill="#63b8ff" stroke="#63b8ff" points="149.71,-132.98 160.27,-133.89 152.58,-126.6 149.71,-132.98"/>
</a>
</g>
</g>
<!-- Node3&#45;&gt;Node3 -->
<g id="edge3_Node000003_Node000003" class="edge">
<title>Node3&#45;&gt;Node3</title>
<g id="a_edge3_Node000003_Node000003"><a xlink:title=" ">
<path fill="none" stroke="#63b8ff" d="M77.39,-105.94C74.37,-109.99 65.61,-112.88 51.12,-112.88 25.37,-112.88 17.73,-103.77 28.19,-95.16"/>
<polygon fill="#63b8ff" stroke="#63b8ff" points="80.81,-105.13 74.51,-96.61 74.12,-107.2 80.81,-105.13"/>
</a>
</g>
</g>
<!-- Node4&#45;&gt;Node3 -->
<g id="edge5_Node000004_Node000003" class="edge">
<title>Node4&#45;&gt;Node3</title>
<g id="a_edge5_Node000004_Node000003"><a xlink:title=" ">
<path fill="none" stroke="#63b8ff" d="M126.48,-74.44C118.39,-75.62 110.27,-76.8 102.51,-77.93"/>
<polygon fill="#63b8ff" stroke="#63b8ff" points="126.96,-77.91 136.35,-73.01 125.95,-70.98 126.96,-77.91"/>
</a>
</g>
</g>
<!-- Node5&#45;&gt;Node3 -->
<g id="edge7_Node000005_Node000003" class="edge">
<title>Node5&#45;&gt;Node3</title>
<g id="a_edge7_Node000005_Node000003"><a xlink:title=" ">
<path fill="none" stroke="#63b8ff" d="M148.39,-35.56C144.95,-37.12 141.54,-38.69 138.25,-40.25 114.47,-51.53 87.69,-65.77 70.4,-75.18"/>
<polygon fill="#63b8ff" stroke="#63b8ff" points="149.65,-38.83 157.37,-31.58 146.81,-32.43 149.65,-38.83"/>
</a>
</g>
</g>
</g>
</svg>
