<?xml version="1.0" encoding="UTF-8" standalone="no"?>
<!DOCTYPE svg PUBLIC "-//W3C//DTD SVG 1.1//EN"
 "http://www.w3.org/Graphics/SVG/1.1/DTD/svg11.dtd">
<!-- Generated by graphviz version 12.2.0 (20241103.1931)
 -->
<!-- Title: bcnp_codegen.main Pages: 1 -->
<svg width="602pt" height="103pt"
 viewBox="0.00 0.00 601.50 102.88" xmlns="http://www.w3.org/2000/svg" xmlns:xlink="http://www.w3.org/1999/xlink">
<g id="graph0" class="graph" transform="scale(1 1) rotate(0) translate(4 98.88)">
<title>bcnp_codegen.main</title>
<!-- Node1 -->
<g id="Node000001" class="node">
<title>Node1</title>
<g id="a_Node000001"><a xlink:title=" ">
<polygon fill="#999999" stroke="#666666" points="102.25,-73.88 0,-73.88 0,-54.62 102.25,-54.62 102.25,-73.88"/>
<text text-anchor="middle" x="51.12" y="-60.38" font-family="Helvetica,sans-Serif" font-size="10.00">bcnp_codegen.main</text>
</a>
</g>
</g>
<!-- Node1&#45;&gt;Node1 -->
<g id="edge10_Node000001_Node000001" class="edge">
<title>Node1&#45;&gt;Node1</title>
<g id="a_edge10_Node000001_Node000001"><a xlink:title=" ">
<path fill="none" stroke="#63b8ff" d="M28.19,-74.16C17.73,-82.77 25.37,-91.88 51.12,-91.88 65.61,-91.88 74.37,-88.99 77.39,-84.94"/>
<polygon fill="#63b8ff" stroke="#63b8ff" points="80.81,-84.13 74.51,-75.61 74.12,-86.2 80.81,-84.13"/>
</a>
</g>
</g>
<!-- Node2 -->
<g id="Node000002" class="node">
<title>Node2</title>
<g id="a_Node000002"><a xlink:href="namespacebcnp__codegen.html#abb056087aa8b13cd55f9c66f889581ea" target="_top" xlink:title=" ">
<polygon fill="white" stroke="#666666" points="411.75,-79.5 293,-79.5 293,-49 411.75,-49 411.75,-79.5"/>
<text text-anchor="start" x="301" y="-66" font-family="Helvetica,sans-Serif" font-size="10.00">bcnp_codegen.compute</text>
<text text-anchor="middle" x="352.38" y="-54.75" font-family="Helvetica,sans-Serif" font-size="10.00">_schema_hash</text>
</a>
</g>
</g>
<!-- Node1&#45;&gt;Node2 -->
<g id="edge1_Node000001_Node000002" class="edge">
<title>Node1&#45;&gt;Node2</title>
<g id="a_edge1_Node000001_Node000002"><a xlink:title=" ">
<path fill="none" stroke="#63b8ff" d="M80.81,-74.36C97.37,-79.65 118.72,-85.58 138.25,-88.25 190.54,-95.4 204.63,-94.8 257,-88.25 267.22,-86.97 277.93,-84.94 288.31,-82.59"/>
<polygon fill="#63b8ff" stroke="#63b8ff" points="289.02,-86.02 297.93,-80.28 287.39,-79.21 289.02,-86.02"/>
</a>
</g>
</g>
<!-- Node5 -->
<g id="Node000005" class="node">
<title>Node5</title>
<g id="a_Node000005"><a xlink:href="namespacebcnp__codegen.html#a14271e82d9d657419ff293b3c707ef57" target="_top" xlink:title=" ">
<polygon fill="white" stroke="#666666" points="257,-30.5 138.25,-30.5 138.25,0 257,0 257,-30.5"/>
<text text-anchor="start" x="146.25" y="-17" font-family="Helvetica,sans-Serif" font-size="10.00">bcnp_codegen.generate</text>
<text text-anchor="middle" x="197.62" y="-5.75" font-family="Helvetica,sans-Serif" font-size="10.00">_cpp_header</text>
</a>
</g>
</g>
<!-- Node1&#45;&gt;Node5 -->
<g id="edge4_Node000001_Node000005" class="edge">
<title>Node1&#45;&gt;Node5</title>
<g id="a_edge4_Node000001_Node000005"><a xlink:title=" ">
<path fill="none" stroke="#63b8ff" d="M81.72,-54.22C98.37,-48.57 119.73,-41.33 139.5,-34.62"/>
<polygon fill="#63b8ff" stroke="#63b8ff" points="140.51,-37.98 148.85,-31.45 138.26,-31.35 140.51,-37.98"/>
</a>
</g>
</g>
<!-- Node7 -->
<g id="Node000007" class="node">
<title>Node7</title>
<g id="a_Node000007"><a xlink:href="namespacebcnp__codegen.html#affd215d78c16e027dd6be394b339e960" target="_top" xlink:title=" ">
<polygon fill="white" stroke="#666666" points="257,-79.5 138.25,-79.5 138.25,-49 257,-49 257,-79.5"/>
<text text-anchor="start" x="146.25" y="-66" font-family="Helvetica,sans-Serif" font-size="10.00">bcnp_codegen.generate</text>
<text text-anchor="middle" x="197.62" y="-54.75" font-family="Helvetica,sans-Serif" font-size="10.00">_python_bindings</text>
</a>
</g>
</g>
<!-- Node1&#45;&gt;Node7 -->
<g id="edge7_Node000001_Node000007" class="edge">
<title>Node1&#45;&gt;Node7</title>
<g id="a_edge7_Node000001_Node000007"><a xlink:title=" ">
<path fill="none" stroke="#63b8ff" d="M102.66,-64.25C110.41,-64.25 118.52,-64.25 126.59,-64.25"/>
<polygon fill="#63b8ff" stroke="#63b8ff" points="126.43,-67.75 136.43,-64.25 126.43,-60.75 126.43,-67.75"/>
</a>
</g>
</g>
<!-- Node3 -->
<g id="Node000003" class="node">
<title>Node3</title>
<g id="a_Node000003"><a xlink:href="namespacebcnp__codegen.html#ab80c965b830102cc8adb068cd83b8f51" target="_top" xlink:title=" ">
<polygon fill="white" stroke="#666666" points="593.5,-94.88 447.75,-94.88 447.75,-75.62 593.5,-75.62 593.5,-94.88"/>
<text text-anchor="middle" x="520.62" y="-81.38" font-family="Helvetica,sans-Serif" font-size="10.00">bcnp_codegen.canonical_json</text>
</a>
</g>
</g>
<!-- Node2&#45;&gt;Node3 -->
<g id="edge2_Node000002_Node000003" class="edge">
<title>Node2&#45;&gt;Node3</title>
<g id="a_edge2_Node000002_Node000003"><a xlink:title=" ">
<path fill="none" stroke="#63b8ff" d="M411.99,-71.65C419.74,-72.63 427.8,-73.65 435.88,-74.67"/>
<polygon fill="#63b8ff" stroke="#63b8ff" points="435.4,-78.14 445.76,-75.92 436.28,-71.19 435.4,-78.14"/>
</a>
</g>
</g>
<!-- Node4 -->
<g id="Node000004" class="node">
<title>Node4</title>
<g id="a_Node000004"><a xlink:href="namespacebcnp__codegen.html#a84d4a9196705830f11f9bd9606f771fa" target="_top" xlink:title=" ">
<polygon fill="white" stroke="#666666" points="580,-57.5 461.25,-57.5 461.25,-27 580,-27 580,-57.5"/>
<text text-anchor="start" x="469.25" y="-44" font-family="Helvetica,sans-Serif" font-size="10.00">bcnp_codegen.compute</text>
<text text-anchor="middle" x="520.62" y="-32.75" font-family="Helvetica,sans-Serif" font-size="10.00">_crc32</text>
</a>
</g>
</g>
<!-- Node2&#45;&gt;Node4 -->
<g id="edge3_Node000002_Node000004" class="edge">
<title>Node2&#45;&gt;Node4</title>
<g id="a_edge3_Node000002_Node000004"><a xlink:title=" ">
<path fill="none" stroke="#63b8ff" d="M411.99,-56.49C424.16,-54.88 437.09,-53.17 449.62,-51.51"/>
<polygon fill="#63b8ff" stroke="#63b8ff" points="450.03,-54.99 459.48,-50.21 449.11,-48.05 450.03,-54.99"/>
</a>
</g>
</g>
<!-- Node5&#45;&gt;Node2 -->
<g id="edge6_Node000005_Node000002" class="edge">
<title>Node5&#45;&gt;Node2</title>
<g id="a_edge6_Node000005_Node000002"><a xlink:title=" ">
<path fill="none" stroke="#63b8ff" d="M247.38,-30.89C261.36,-35.37 276.77,-40.32 291.35,-45"/>
<polygon fill="#63b8ff" stroke="#63b8ff" points="290.27,-48.32 300.86,-48.05 292.41,-41.66 290.27,-48.32"/>
</a>
</g>
</g>
<!-- Node6 -->
<g id="Node000006" class="node">
<title>Node6</title>
<g id="a_Node000006"><a xlink:href="namespacebcnp__codegen.html#a5569b387445f53139c1894e3d2ee5780" target="_top" xlink:title=" ">
<polygon fill="white" stroke="#666666" points="411.75,-30.5 293,-30.5 293,0 411.75,0 411.75,-30.5"/>
<text text-anchor="start" x="301" y="-17" font-family="Helvetica,sans-Serif" font-size="10.00">bcnp_codegen.compute</text>
<text text-anchor="middle" x="352.38" y="-5.75" font-family="Helvetica,sans-Serif" font-size="10.00">_message_size</text>
</a>
</g>
</g>
<!-- Node5&#45;&gt;Node6 -->
<g id="edge5_Node000005_Node000006" class="edge">
<title>Node5&#45;&gt;Node6</title>
<g id="a_edge5_Node000005_Node000006"><a xlink:title=" ">
<path fill="none" stroke="#63b8ff" d="M257.25,-15.25C265.14,-15.25 273.3,-15.25 281.36,-15.25"/>
<polygon fill="#63b8ff" stroke="#63b8ff" points="281.15,-18.75 291.15,-15.25 281.15,-11.75 281.15,-18.75"/>
</a>
</g>
</g>
<!-- Node7&#45;&gt;Node2 -->
<g id="edge9_Node000007_Node000002" class="edge">
<title>Node7&#45;&gt;Node2</title>
<g id="a_edge9_Node000007_Node000002"><a xlink:title=" ">
<path fill="none" stroke="#63b8ff" d="M257.25,-64.25C265.14,-64.25 273.3,-64.25 281.36,-64.25"/>
<polygon fill="#63b8ff" stroke="#63b8ff" points="281.15,-67.75 291.15,-64.25 281.15,-60.75 281.15,-67.75"/>
</a>
</g>
</g>
<!-- Node7&#45;&gt;Node6 -->
<g id="edge8_Node000007_Node000006" class="edge">
<title>Node7&#45;&gt;Node6</title>
<g id="a_edge8_Node000007_Node000006"><a xlink:title=" ">
<path fill="none" stroke="#63b8ff" d="M247.38,-48.61C261.36,-44.13 276.77,-39.18 291.35,-34.5"/>
<polygon fill="#63b8ff" stroke="#63b8ff" points="292.41,-37.84 300.86,-31.45 290.27,-31.18 292.41,-37.84"/>
</a>
</g>
</g>
</g>
</svg>
