<?xml version="1.0" encoding="UTF-8" standalone="no"?>
<!DOCTYPE svg PUBLIC "-//W3C//DTD SVG 1.1//EN"
 "http://www.w3.org/Graphics/SVG/1.1/DTD/svg11.dtd">
<!-- Generated by graphviz version 12.2.0 (20241103.1931)
 -->
<!-- Title: bcnp_codegen.compute_schema_hash Pages: 1 -->
<svg width="309pt" height="76pt"
 viewBox="0.00 0.00 308.50 75.88" xmlns="http://www.w3.org/2000/svg" xmlns:xlink="http://www.w3.org/1999/xlink">
<g id="graph0" class="graph" transform="scale(1 1) rotate(0) translate(4 71.88)">
<title>bcnp_codegen.compute_schema_hash</title>
<!-- Node1 -->
<g id="Node000001" class="node">
<title>Node1</title>
<g id="a_Node000001"><a xlink:title=" ">
<polygon fill="#999999" stroke="#666666" points="118.75,-51.5 0,-51.5 0,-21 118.75,-21 118.75,-51.5"/>
<text text-anchor="start" x="8" y="-38" font-family="Helvetica,sans-Serif" font-size="10.00">bcnp_codegen.compute</text>
<text text-anchor="middle" x="59.38" y="-26.75" font-family="Helvetica,sans-Serif" font-size="10.00">_schema_hash</text>
</a>
</g>
</g>
<!-- Node2 -->
<g id="Node000002" class="node">
<title>Node2</title>
<g id="a_Node000002"><a xlink:href="namespacebcnp__codegen.html#ab80c965b830102cc8adb068cd83b8f51" target="_top" xlink:title=" ">
<polygon fill="white" stroke="#666666" points="300.5,-67.88 154.75,-67.88 154.75,-48.62 300.5,-48.62 300.5,-67.88"/>
<text text-anchor="middle" x="227.62" y="-54.38" font-family="Helvetica,sans-Serif" font-size="10.00">bcnp_codegen.canonical_json</text>
</a>
</g>
</g>
<!-- Node1&#45;&gt;Node2 -->
<g id="edge1_Node000001_Node000002" class="edge">
<title>Node1&#45;&gt;Node2</title>
<g id="a_edge1_Node000001_Node000002"><a xlink:title=" ">
<path fill="none" stroke="#63b8ff" d="M118.99,-44.01C126.74,-45.03 134.8,-46.1 142.88,-47.17"/>
<polygon fill="#63b8ff" stroke="#63b8ff" points="142.39,-50.63 152.76,-48.48 143.31,-43.69 142.39,-50.63"/>
</a>
</g>
</g>
<!-- Node3 -->
<g id="Node000003" class="node">
<title>Node3</title>
<g id="a_Node000003"><a xlink:href="namespacebcnp__codegen.html#a84d4a9196705830f11f9bd9606f771fa" target="_top" xlink:title=" ">
<polygon fill="white" stroke="#666666" points="287,-30.5 168.25,-30.5 168.25,0 287,0 287,-30.5"/>
<text text-anchor="start" x="176.25" y="-17" font-family="Helvetica,sans-Serif" font-size="10.00">bcnp_codegen.compute</text>
<text text-anchor="middle" x="227.62" y="-5.75" font-family="Helvetica,sans-Serif" font-size="10.00">_crc32</text>
</a>
</g>
</g>
<!-- Node1&#45;&gt;Node3 -->
<g id="edge2_Node000001_Node000003" class="edge">
<title>Node1&#45;&gt;Node3</title>
<g id="a_edge2_Node000001_Node000003"><a xlink:title=" ">
<path fill="none" stroke="#63b8ff" d="M118.99,-28.85C131.16,-27.31 144.09,-25.68 156.62,-24.09"/>
<polygon fill="#63b8ff" stroke="#63b8ff" points="157,-27.57 166.48,-22.85 156.12,-20.63 157,-27.57"/>
</a>
</g>
</g>
</g>
</svg>
