<?xml version="1.0" encoding="UTF-8" standalone="no"?>
<!DOCTYPE svg PUBLIC "-//W3C//DTD SVG 1.1//EN"
 "http://www.w3.org/Graphics/SVG/1.1/DTD/svg11.dtd">
<!-- Generated by graphviz version 12.2.0 (20241103.1931)
 -->
<!-- Title: bcnp::DecodePacketView Pages: 1 -->
<svg width="481pt" height="139pt"
 viewBox="0.00 0.00 481.25 139.25" xmlns="http://www.w3.org/2000/svg" xmlns:xlink="http://www.w3.org/1999/xlink">

<svg id="main" version="1.1" xmlns="http://www.w3.org/2000/svg" xmlns:xlink="http://www.w3.org/1999/xlink" xml:space="preserve">

<style type="text/css"><![CDATA[
.node, .edge {opacity: 0.7;}
.node.selected, .edge.selected {opacity: 1;}
.edge:hover path { stroke: red; }
.edge:hover polygon { stroke: red; fill: red; }
]]></style>
<script type="application/ecmascript" xlink:href="svg.min.js"/>
<svg id="graph" class="graph">
<g id="graph0" class="graph" transform="scale(1 1) rotate(0) translate(4 135.25)">
<title>bcnp::DecodePacketView</title>
<!-- Node1 -->
<g id="Node000001" class="node">
<title>Node1</title>
<g id="a_Node000001"><a xlink:title="Decode a packet using the global message type registry.">
<polygon fill="#999999" stroke="#666666" points="127,-57.25 0,-57.25 0,-38 127,-38 127,-57.25"/>
<text text-anchor="middle" x="63.5" y="-43.75" font-family="Helvetica,sans-Serif" font-size="10.00">bcnp::DecodePacketView</text>
</a>
</g>
</g>
<!-- Node2 -->
<g id="Node000002" class="node">
<title>Node2</title>
<g id="a_Node000002"><a xlink:href="namespacebcnp.html#abfa84506649424c70b4d70dfc47f5434" target="_top" xlink:title="Decode a packet with explicitly provided message wire size.">
<polygon fill="white" stroke="#666666" points="328.25,-95.25 163,-95.25 163,-76 328.25,-76 328.25,-95.25"/>
<text text-anchor="middle" x="245.62" y="-81.75" font-family="Helvetica,sans-Serif" font-size="10.00">bcnp::DecodePacketViewWithSize</text>
</a>
</g>
</g>
<!-- Node1&#45;&gt;Node2 -->
<g id="edge1_Node000001_Node000002" class="edge">
<title>Node1&#45;&gt;Node2</title>
<g id="a_edge1_Node000001_Node000002"><a xlink:title=" ">
<path fill="none" stroke="#63b8ff" d="M112.3,-57.71C134.88,-62.47 162.05,-68.2 185.88,-73.23"/>
<polygon fill="#63b8ff" stroke="#63b8ff" points="184.93,-76.61 195.44,-75.25 186.37,-69.76 184.93,-76.61"/>
</a>
</g>
</g>
<!-- Node4 -->
<g id="Node000004" class="node">
<title>Node4</title>
<g id="a_Node000004"><a xlink:href="namespacebcnp_1_1detail.html#a991470361e8f2953df4cacda42728080" target="_top" xlink:title=" ">
<polygon fill="white" stroke="#666666" points="473.25,-57.25 364.25,-57.25 364.25,-38 473.25,-38 473.25,-57.25"/>
<text text-anchor="middle" x="418.75" y="-43.75" font-family="Helvetica,sans-Serif" font-size="10.00">bcnp::detail::LoadU16</text>
</a>
</g>
</g>
<!-- Node1&#45;&gt;Node4 -->
<g id="edge6_Node000001_Node000004" class="edge">
<title>Node1&#45;&gt;Node4</title>
<g id="a_edge6_Node000001_Node000004"><a xlink:title=" ">
<path fill="none" stroke="#63b8ff" d="M127.25,-47.62C190.74,-47.62 288.47,-47.62 352.76,-47.62"/>
<polygon fill="#63b8ff" stroke="#63b8ff" points="352.45,-51.13 362.45,-47.63 352.45,-44.13 352.45,-51.13"/>
</a>
</g>
</g>
<!-- Node6 -->
<g id="Node000006" class="node">
<title>Node6</title>
<g id="a_Node000006"><a xlink:href="namespacebcnp.html#a2fb3333c8519eab14611fe883377cf23" target="_top" xlink:title=" ">
<polygon fill="white" stroke="#666666" points="302.38,-19.25 188.88,-19.25 188.88,0 302.38,0 302.38,-19.25"/>
<text text-anchor="middle" x="245.62" y="-5.75" font-family="Helvetica,sans-Serif" font-size="10.00">bcnp::GetMessageInfo</text>
</a>
</g>
</g>
<!-- Node1&#45;&gt;Node6 -->
<g id="edge5_Node000001_Node000006" class="edge">
<title>Node1&#45;&gt;Node6</title>
<g id="a_edge5_Node000001_Node000006"><a xlink:title=" ">
<path fill="none" stroke="#63b8ff" d="M112.3,-37.54C134.88,-32.78 162.05,-27.05 185.88,-22.02"/>
<polygon fill="#63b8ff" stroke="#63b8ff" points="186.37,-25.49 195.44,-20 184.93,-18.64 186.37,-25.49"/>
</a>
</g>
</g>
<!-- Node3 -->
<g id="Node000003" class="node">
<title>Node3</title>
<g id="a_Node000003"><a xlink:href="namespacebcnp.html#a9fe5fd2d19a061440fb7ff0bffab5101" target="_top" xlink:title="Compute CRC32 checksum for data integrity verification.">
<polygon fill="white" stroke="#666666" points="471.75,-131.25 365.75,-131.25 365.75,-112 471.75,-112 471.75,-131.25"/>
<text text-anchor="middle" x="418.75" y="-117.75" font-family="Helvetica,sans-Serif" font-size="10.00">bcnp::ComputeCrc32</text>
</a>
</g>
</g>
<!-- Node2&#45;&gt;Node3 -->
<g id="edge2_Node000002_Node000003" class="edge">
<title>Node2&#45;&gt;Node3</title>
<g id="a_edge2_Node000002_Node000003"><a xlink:title=" ">
<path fill="none" stroke="#63b8ff" d="M294.75,-95.75C314.61,-99.93 337.82,-104.81 358.7,-109.2"/>
<polygon fill="#63b8ff" stroke="#63b8ff" points="357.7,-112.57 368.21,-111.2 359.15,-105.72 357.7,-112.57"/>
</a>
</g>
</g>
<!-- Node2&#45;&gt;Node4 -->
<g id="edge3_Node000002_Node000004" class="edge">
<title>Node2&#45;&gt;Node4</title>
<g id="a_edge3_Node000002_Node000004"><a xlink:title=" ">
<path fill="none" stroke="#63b8ff" d="M292.03,-75.54C313.3,-70.82 338.83,-65.15 361.32,-60.16"/>
<polygon fill="#63b8ff" stroke="#63b8ff" points="361.94,-63.6 370.95,-58.02 360.43,-56.77 361.94,-63.6"/>
</a>
</g>
</g>
<!-- Node5 -->
<g id="Node000005" class="node">
<title>Node5</title>
<g id="a_Node000005"><a xlink:href="namespacebcnp_1_1detail.html#a340b9931eb1792e2f6cc8a9cc9bd0e27" target="_top" xlink:title=" ">
<polygon fill="white" stroke="#666666" points="473.25,-94.25 364.25,-94.25 364.25,-75 473.25,-75 473.25,-94.25"/>
<text text-anchor="middle" x="418.75" y="-80.75" font-family="Helvetica,sans-Serif" font-size="10.00">bcnp::detail::LoadU32</text>
</a>
</g>
</g>
<!-- Node2&#45;&gt;Node5 -->
<g id="edge4_Node000002_Node000005" class="edge">
<title>Node2&#45;&gt;Node5</title>
<g id="a_edge4_Node000002_Node000005"><a xlink:title=" ">
<path fill="none" stroke="#63b8ff" d="M328.68,-85.15C336.75,-85.1 344.86,-85.05 352.72,-85.01"/>
<polygon fill="#63b8ff" stroke="#63b8ff" points="352.54,-88.51 362.52,-84.95 352.5,-81.51 352.54,-88.51"/>
</a>
</g>
</g>
</g>
</svg>
</svg>

<style type='text/css'>
<![CDATA[
[data-mouse-over-selected='false'] { opacity: 0.7; }
[data-mouse-over-selected='true']  { opacity: 1.0; }
]]>
</style>
<script type="application/ecmascript"><![CDATA[
document.addEventListener('DOMContentLoaded', (event) => {
  highlightEdges();
  highlightAdjacentNodes();
});
]]></script>
</svg>
