<?xml version="1.0" encoding="UTF-8" standalone="no"?>
<!DOCTYPE svg PUBLIC "-//W3C//DTD SVG 1.1//EN"
 "http://www.w3.org/Graphics/SVG/1.1/DTD/svg11.dtd">
<!-- Generated by graphviz version 12.2.0 (20241103.1931)
 -->
<!-- Title: bcnp_codegen.generate_java_flyweights Pages: 1 -->
<svg width="463pt" height="109pt"
 viewBox="0.00 0.00 463.25 108.50" xmlns="http://www.w3.org/2000/svg" xmlns:xlink="http://www.w3.org/1999/xlink">
<g id="graph0" class="graph" transform="scale(1 1) rotate(0) translate(4 104.5)">
<title>bcnp_codegen.generate_java_flyweights</title>
<!-- Node1 -->
<g id="Node000001" class="node">
<title>Node1</title>
<g id="a_Node000001"><a xlink:title=" ">
<polygon fill="#999999" stroke="#666666" points="118.75,-75.5 0,-75.5 0,-45 118.75,-45 118.75,-75.5"/>
<text text-anchor="start" x="8" y="-62" font-family="Helvetica,sans-Serif" font-size="10.00">bcnp_codegen.generate</text>
<text text-anchor="middle" x="59.38" y="-50.75" font-family="Helvetica,sans-Serif" font-size="10.00">_java_flyweights</text>
</a>
</g>
</g>
<!-- Node2 -->
<g id="Node000002" class="node">
<title>Node2</title>
<g id="a_Node000002"><a xlink:href="namespacebcnp__codegen.html#a5569b387445f53139c1894e3d2ee5780" target="_top" xlink:title=" ">
<polygon fill="white" stroke="#666666" points="273.5,-100.5 154.75,-100.5 154.75,-70 273.5,-70 273.5,-100.5"/>
<text text-anchor="start" x="162.75" y="-87" font-family="Helvetica,sans-Serif" font-size="10.00">bcnp_codegen.compute</text>
<text text-anchor="middle" x="214.12" y="-75.75" font-family="Helvetica,sans-Serif" font-size="10.00">_message_size</text>
</a>
</g>
</g>
<!-- Node1&#45;&gt;Node2 -->
<g id="edge1_Node000001_Node000002" class="edge">
<title>Node1&#45;&gt;Node2</title>
<g id="a_edge1_Node000001_Node000002"><a xlink:title=" ">
<path fill="none" stroke="#63b8ff" d="M119,-69.84C126.89,-71.14 135.05,-72.47 143.11,-73.79"/>
<polygon fill="#63b8ff" stroke="#63b8ff" points="142.48,-77.23 152.92,-75.4 143.61,-70.33 142.48,-77.23"/>
</a>
</g>
</g>
<!-- Node3 -->
<g id="Node000003" class="node">
<title>Node3</title>
<g id="a_Node000003"><a xlink:href="namespacebcnp__codegen.html#abb056087aa8b13cd55f9c66f889581ea" target="_top" xlink:title=" ">
<polygon fill="white" stroke="#666666" points="273.5,-51.5 154.75,-51.5 154.75,-21 273.5,-21 273.5,-51.5"/>
<text text-anchor="start" x="162.75" y="-38" font-family="Helvetica,sans-Serif" font-size="10.00">bcnp_codegen.compute</text>
<text text-anchor="middle" x="214.12" y="-26.75" font-family="Helvetica,sans-Serif" font-size="10.00">_schema_hash</text>
</a>
</g>
</g>
<!-- Node1&#45;&gt;Node3 -->
<g id="edge2_Node000001_Node000003" class="edge">
<title>Node1&#45;&gt;Node3</title>
<g id="a_edge2_Node000001_Node000003"><a xlink:title=" ">
<path fill="none" stroke="#63b8ff" d="M119,-51.04C126.89,-49.8 135.05,-48.52 143.11,-47.25"/>
<polygon fill="#63b8ff" stroke="#63b8ff" points="143.58,-50.72 152.91,-45.71 142.49,-43.8 143.58,-50.72"/>
</a>
</g>
</g>
<!-- Node4 -->
<g id="Node000004" class="node">
<title>Node4</title>
<g id="a_Node000004"><a xlink:href="namespacebcnp__codegen.html#ab80c965b830102cc8adb068cd83b8f51" target="_top" xlink:title=" ">
<polygon fill="white" stroke="#666666" points="455.25,-67.88 309.5,-67.88 309.5,-48.62 455.25,-48.62 455.25,-67.88"/>
<text text-anchor="middle" x="382.38" y="-54.38" font-family="Helvetica,sans-Serif" font-size="10.00">bcnp_codegen.canonical_json</text>
</a>
</g>
</g>
<!-- Node3&#45;&gt;Node4 -->
<g id="edge3_Node000003_Node000004" class="edge">
<title>Node3&#45;&gt;Node4</title>
<g id="a_edge3_Node000003_Node000004"><a xlink:title=" ">
<path fill="none" stroke="#63b8ff" d="M273.74,-44.01C281.49,-45.03 289.55,-46.1 297.63,-47.17"/>
<polygon fill="#63b8ff" stroke="#63b8ff" points="297.14,-50.63 307.51,-48.48 298.06,-43.69 297.14,-50.63"/>
</a>
</g>
</g>
<!-- Node5 -->
<g id="Node000005" class="node">
<title>Node5</title>
<g id="a_Node000005"><a xlink:href="namespacebcnp__codegen.html#a84d4a9196705830f11f9bd9606f771fa" target="_top" xlink:title=" ">
<polygon fill="white" stroke="#666666" points="441.75,-30.5 323,-30.5 323,0 441.75,0 441.75,-30.5"/>
<text text-anchor="start" x="331" y="-17" font-family="Helvetica,sans-Serif" font-size="10.00">bcnp_codegen.compute</text>
<text text-anchor="middle" x="382.38" y="-5.75" font-family="Helvetica,sans-Serif" font-size="10.00">_crc32</text>
</a>
</g>
</g>
<!-- Node3&#45;&gt;Node5 -->
<g id="edge4_Node000003_Node000005" class="edge">
<title>Node3&#45;&gt;Node5</title>
<g id="a_edge4_Node000003_Node000005"><a xlink:title=" ">
<path fill="none" stroke="#63b8ff" d="M273.74,-28.85C285.91,-27.31 298.84,-25.68 311.37,-24.09"/>
<polygon fill="#63b8ff" stroke="#63b8ff" points="311.75,-27.57 321.23,-22.85 310.87,-20.63 311.75,-27.57"/>
</a>
</g>
</g>
</g>
</svg>
