<?xml version="1.0" encoding="UTF-8" standalone="no"?>
<!DOCTYPE svg PUBLIC "-//W3C//DTD SVG 1.1//EN"
 "http://www.w3.org/Graphics/SVG/1.1/DTD/svg11.dtd">
<!-- Generated by graphviz version 12.2.0 (20241103.1931)
 -->
<!-- Title: bcnp_codegen.canonical_json Pages: 1 -->
<svg width="602pt" height="125pt"
 viewBox="0.00 0.00 601.50 124.50" xmlns="http://www.w3.org/2000/svg" xmlns:xlink="http://www.w3.org/1999/xlink">
<g id="graph0" class="graph" transform="scale(1 1) rotate(0) translate(4 120.5)">
<title>bcnp_codegen.canonical_json</title>
<!-- Node1 -->
<g id="Node000001" class="node">
<title>Node1</title>
<g id="a_Node000001"><a xlink:title=" ">
<polygon fill="#999999" stroke="#666666" points="593.5,-67.88 447.75,-67.88 447.75,-48.62 593.5,-48.62 593.5,-67.88"/>
<text text-anchor="middle" x="520.62" y="-54.38" font-family="Helvetica,sans-Serif" font-size="10.00">bcnp_codegen.canonical_json</text>
</a>
</g>
</g>
<!-- Node2 -->
<g id="Node000002" class="node">
<title>Node2</title>
<g id="a_Node000002"><a xlink:href="namespacebcnp__codegen.html#abb056087aa8b13cd55f9c66f889581ea" target="_top" xlink:title=" ">
<polygon fill="white" stroke="#666666" points="411.75,-73.5 293,-73.5 293,-43 411.75,-43 411.75,-73.5"/>
<text text-anchor="start" x="301" y="-60" font-family="Helvetica,sans-Serif" font-size="10.00">bcnp_codegen.compute</text>
<text text-anchor="middle" x="352.38" y="-48.75" font-family="Helvetica,sans-Serif" font-size="10.00">_schema_hash</text>
</a>
</g>
</g>
<!-- Node1&#45;&gt;Node2 -->
<g id="edge1_Node000001_Node000002" class="edge">
<title>Node1&#45;&gt;Node2</title>
<g id="a_edge1_Node000001_Node000002"><a xlink:title=" ">
<path fill="none" stroke="#63b8ff" d="M436.23,-58.25C428.11,-58.25 419.99,-58.25 412.19,-58.25"/>
<polygon fill="#63b8ff" stroke="#63b8ff" points="436.16,-61.75 446.16,-58.25 436.16,-54.75 436.16,-61.75"/>
</a>
</g>
</g>
<!-- Node3 -->
<g id="Node000003" class="node">
<title>Node3</title>
<g id="a_Node000003"><a xlink:href="namespacebcnp__codegen.html#a14271e82d9d657419ff293b3c707ef57" target="_top" xlink:title=" ">
<polygon fill="white" stroke="#666666" points="257,-116.5 138.25,-116.5 138.25,-86 257,-86 257,-116.5"/>
<text text-anchor="start" x="146.25" y="-103" font-family="Helvetica,sans-Serif" font-size="10.00">bcnp_codegen.generate</text>
<text text-anchor="middle" x="197.62" y="-91.75" font-family="Helvetica,sans-Serif" font-size="10.00">_cpp_header</text>
</a>
</g>
</g>
<!-- Node2&#45;&gt;Node3 -->
<g id="edge2_Node000002_Node000003" class="edge">
<title>Node2&#45;&gt;Node3</title>
<g id="a_edge2_Node000002_Node000003"><a xlink:title=" ">
<path fill="none" stroke="#63b8ff" d="M284.89,-76.96C274.73,-79.83 264.32,-82.76 254.42,-85.54"/>
<polygon fill="#63b8ff" stroke="#63b8ff" points="285.66,-80.38 294.34,-74.31 283.77,-73.65 285.66,-80.38"/>
</a>
</g>
</g>
<!-- Node4 -->
<g id="Node000004" class="node">
<title>Node4</title>
<g id="a_Node000004"><a xlink:href="namespacebcnp__codegen.html#a3098a8cf8ab4cd7f48d959546d1249bd" target="_top" xlink:title=" ">
<polygon fill="white" stroke="#666666" points="102.25,-67.88 0,-67.88 0,-48.62 102.25,-48.62 102.25,-67.88"/>
<text text-anchor="middle" x="51.12" y="-54.38" font-family="Helvetica,sans-Serif" font-size="10.00">bcnp_codegen.main</text>
</a>
</g>
</g>
<!-- Node2&#45;&gt;Node4 -->
<g id="edge7_Node000002_Node000004" class="edge">
<title>Node2&#45;&gt;Node4</title>
<g id="a_edge7_Node000002_Node000004"><a xlink:title=" ">
<path fill="none" stroke="#63b8ff" d="M281.22,-58.25C226.32,-58.25 151.31,-58.25 102.31,-58.25"/>
<polygon fill="#63b8ff" stroke="#63b8ff" points="281.1,-61.75 291.1,-58.25 281.1,-54.75 281.1,-61.75"/>
</a>
</g>
</g>
<!-- Node5 -->
<g id="Node000005" class="node">
<title>Node5</title>
<g id="a_Node000005"><a xlink:href="namespacebcnp__codegen.html#affd215d78c16e027dd6be394b339e960" target="_top" xlink:title=" ">
<polygon fill="white" stroke="#666666" points="257,-30.5 138.25,-30.5 138.25,0 257,0 257,-30.5"/>
<text text-anchor="start" x="146.25" y="-17" font-family="Helvetica,sans-Serif" font-size="10.00">bcnp_codegen.generate</text>
<text text-anchor="middle" x="197.62" y="-5.75" font-family="Helvetica,sans-Serif" font-size="10.00">_python_bindings</text>
</a>
</g>
</g>
<!-- Node2&#45;&gt;Node5 -->
<g id="edge5_Node000002_Node000005" class="edge">
<title>Node2&#45;&gt;Node5</title>
<g id="a_edge5_Node000002_Node000005"><a xlink:title=" ">
<path fill="none" stroke="#63b8ff" d="M284.89,-39.54C274.73,-36.67 264.32,-33.74 254.42,-30.96"/>
<polygon fill="#63b8ff" stroke="#63b8ff" points="283.77,-42.85 294.34,-42.19 285.66,-36.12 283.77,-42.85"/>
</a>
</g>
</g>
<!-- Node3&#45;&gt;Node4 -->
<g id="edge3_Node000003_Node000004" class="edge">
<title>Node3&#45;&gt;Node4</title>
<g id="a_edge3_Node000003_Node000004"><a xlink:title=" ">
<path fill="none" stroke="#63b8ff" d="M133.45,-82.45C117.12,-77.59 100.17,-72.55 85.99,-68.33"/>
<polygon fill="#63b8ff" stroke="#63b8ff" points="132.01,-85.68 142.6,-85.17 134.01,-78.97 132.01,-85.68"/>
</a>
</g>
</g>
<!-- Node4&#45;&gt;Node4 -->
<g id="edge4_Node000004_Node000004" class="edge">
<title>Node4&#45;&gt;Node4</title>
<g id="a_edge4_Node000004_Node000004"><a xlink:title=" ">
<path fill="none" stroke="#63b8ff" d="M77.39,-78.94C74.37,-82.99 65.61,-85.88 51.12,-85.88 25.37,-85.88 17.73,-76.77 28.19,-68.16"/>
<polygon fill="#63b8ff" stroke="#63b8ff" points="80.81,-78.13 74.51,-69.61 74.12,-80.2 80.81,-78.13"/>
</a>
</g>
</g>
<!-- Node5&#45;&gt;Node4 -->
<g id="edge6_Node000005_Node000004" class="edge">
<title>Node5&#45;&gt;Node4</title>
<g id="a_edge6_Node000005_Node000004"><a xlink:title=" ">
<path fill="none" stroke="#63b8ff" d="M133.45,-34.05C117.12,-38.91 100.17,-43.95 85.99,-48.17"/>
<polygon fill="#63b8ff" stroke="#63b8ff" points="134.01,-37.53 142.6,-31.33 132.01,-30.82 134.01,-37.53"/>
</a>
</g>
</g>
</g>
</svg>
