<?xml version="1.0" encoding="UTF-8" standalone="no"?>
<!DOCTYPE svg PUBLIC "-//W3C//DTD SVG 1.1//EN"
 "http://www.w3.org/Graphics/SVG/1.1/DTD/svg11.dtd">
<!-- Generated by graphviz version 12.2.0 (20241103.1931)
 -->
<!-- Title: bcnp::EncodeTypedPacket Pages: 1 -->
<svg width="452pt" height="101pt"
 viewBox="0.00 0.00 452.00 101.25" xmlns="http://www.w3.org/2000/svg" xmlns:xlink="http://www.w3.org/1999/xlink">

<svg id="main" version="1.1" xmlns="http://www.w3.org/2000/svg" xmlns:xlink="http://www.w3.org/1999/xlink" xml:space="preserve">

<style type="text/css"><![CDATA[
.node, .edge {opacity: 0.7;}
.node.selected, .edge.selected {opacity: 1;}
.edge:hover path { stroke: red; }
.edge:hover polygon { stroke: red; fill: red; }
]]></style>
<script type="application/ecmascript" xlink:href="svg.min.js"/>
<svg id="graph" class="graph">
<g id="graph0" class="graph" transform="scale(1 1) rotate(0) translate(4 97.25)">
<title>bcnp::EncodeTypedPacket</title>
<!-- Node1 -->
<g id="Node000001" class="node">
<title>Node1</title>
<g id="a_Node000001"><a xlink:title="Encode a typed packet to a dynamically&#45;sized vector.">
<polygon fill="#999999" stroke="#666666" points="130.75,-56.25 0,-56.25 0,-37 130.75,-37 130.75,-56.25"/>
<text text-anchor="middle" x="65.38" y="-42.75" font-family="Helvetica,sans-Serif" font-size="10.00">bcnp::EncodeTypedPacket</text>
</a>
</g>
</g>
<!-- Node2 -->
<g id="Node000002" class="node">
<title>Node2</title>
<g id="a_Node000002"><a xlink:href="namespacebcnp.html#a7230ac0a91ddcc20ac446c0699119779" target="_top" xlink:title="Encode a typed packet to a pre&#45;allocated buffer.">
<polygon fill="white" stroke="#666666" points="297.5,-56.25 166.75,-56.25 166.75,-37 297.5,-37 297.5,-56.25"/>
<text text-anchor="middle" x="232.12" y="-42.75" font-family="Helvetica,sans-Serif" font-size="10.00">bcnp::EncodeTypedPacket</text>
</a>
</g>
</g>
<!-- Node1&#45;&gt;Node2 -->
<g id="edge1_Node000001_Node000002" class="edge">
<title>Node1&#45;&gt;Node2</title>
<g id="a_edge1_Node000001_Node000002"><a xlink:title=" ">
<path fill="none" stroke="#63b8ff" d="M131.02,-46.62C138.92,-46.62 147.05,-46.62 155.1,-46.62"/>
<polygon fill="#63b8ff" stroke="#63b8ff" points="154.89,-50.13 164.89,-46.63 154.89,-43.13 154.89,-50.13"/>
</a>
</g>
</g>
<!-- Node3 -->
<g id="Node000003" class="node">
<title>Node3</title>
<g id="a_Node000003"><a xlink:href="namespacebcnp.html#a9fe5fd2d19a061440fb7ff0bffab5101" target="_top" xlink:title="Compute CRC32 checksum for data integrity verification.">
<polygon fill="white" stroke="#666666" points="441.75,-93.25 335.75,-93.25 335.75,-74 441.75,-74 441.75,-93.25"/>
<text text-anchor="middle" x="388.75" y="-79.75" font-family="Helvetica,sans-Serif" font-size="10.00">bcnp::ComputeCrc32</text>
</a>
</g>
</g>
<!-- Node2&#45;&gt;Node3 -->
<g id="edge2_Node000002_Node000003" class="edge">
<title>Node2&#45;&gt;Node3</title>
<g id="a_edge2_Node000002_Node000003"><a xlink:title=" ">
<path fill="none" stroke="#63b8ff" d="M275.38,-56.74C293.62,-61.1 315.16,-66.25 334.47,-70.88"/>
<polygon fill="#63b8ff" stroke="#63b8ff" points="333.54,-74.25 344.08,-73.17 335.17,-67.44 333.54,-74.25"/>
</a>
</g>
</g>
<!-- Node4 -->
<g id="Node000004" class="node">
<title>Node4</title>
<g id="a_Node000004"><a xlink:href="namespacebcnp_1_1detail.html#a0f11d2df38ea2cb9f5bb35568bd10b50" target="_top" xlink:title=" ">
<polygon fill="white" stroke="#666666" points="444,-56.25 333.5,-56.25 333.5,-37 444,-37 444,-56.25"/>
<text text-anchor="middle" x="388.75" y="-42.75" font-family="Helvetica,sans-Serif" font-size="10.00">bcnp::detail::StoreU16</text>
</a>
</g>
</g>
<!-- Node2&#45;&gt;Node4 -->
<g id="edge3_Node000002_Node000004" class="edge">
<title>Node2&#45;&gt;Node4</title>
<g id="a_edge3_Node000002_Node000004"><a xlink:title=" ">
<path fill="none" stroke="#63b8ff" d="M297.8,-46.62C305.7,-46.62 313.78,-46.62 321.69,-46.62"/>
<polygon fill="#63b8ff" stroke="#63b8ff" points="321.62,-50.13 331.62,-46.63 321.62,-43.13 321.62,-50.13"/>
</a>
</g>
</g>
<!-- Node5 -->
<g id="Node000005" class="node">
<title>Node5</title>
<g id="a_Node000005"><a xlink:href="namespacebcnp_1_1detail.html#a8a74ef20767465b361f711c630f7bc3b" target="_top" xlink:title=" ">
<polygon fill="white" stroke="#666666" points="444,-19.25 333.5,-19.25 333.5,0 444,0 444,-19.25"/>
<text text-anchor="middle" x="388.75" y="-5.75" font-family="Helvetica,sans-Serif" font-size="10.00">bcnp::detail::StoreU32</text>
</a>
</g>
</g>
<!-- Node2&#45;&gt;Node5 -->
<g id="edge4_Node000002_Node000005" class="edge">
<title>Node2&#45;&gt;Node5</title>
<g id="a_edge4_Node000002_Node000005"><a xlink:title=" ">
<path fill="none" stroke="#63b8ff" d="M275.38,-36.51C293.62,-32.15 315.16,-27 334.47,-22.37"/>
<polygon fill="#63b8ff" stroke="#63b8ff" points="335.17,-25.81 344.08,-20.08 333.54,-19 335.17,-25.81"/>
</a>
</g>
</g>
</g>
</svg>
</svg>

<style type='text/css'>
<![CDATA[
[data-mouse-over-selected='false'] { opacity: 0.7; }
[data-mouse-over-selected='true']  { opacity: 1.0; }
]]>
</style>
<script type="application/ecmascript"><![CDATA[
document.addEventListener('DOMContentLoaded', (event) => {
  highlightEdges();
  highlightAdjacentNodes();
});
]]></script>
</svg>
