<?xml version="1.0" encoding="UTF-8" standalone="no"?>
<!DOCTYPE svg PUBLIC "-//W3C//DTD SVG 1.1//EN"
 "http://www.w3.org/Graphics/SVG/1.1/DTD/svg11.dtd">
<!-- Generated by graphviz version 12.2.0 (20241103.1931)
 -->
<!-- Title: bcnp::DecodePacketViewWithSize Pages: 1 -->
<svg width="318pt" height="101pt"
 viewBox="0.00 0.00 318.25 101.25" xmlns="http://www.w3.org/2000/svg" xmlns:xlink="http://www.w3.org/1999/xlink">
<g id="graph0" class="graph" transform="scale(1 1) rotate(0) translate(4 97.25)">
<title>bcnp::DecodePacketViewWithSize</title>
<!-- Node1 -->
<g id="Node000001" class="node">
<title>Node1</title>
<g id="a_Node000001"><a xlink:title="Decode a packet with explicitly provided message wire size.">
<polygon fill="#999999" stroke="#666666" points="165.25,-56.25 0,-56.25 0,-37 165.25,-37 165.25,-56.25"/>
<text text-anchor="middle" x="82.62" y="-42.75" font-family="Helvetica,sans-Serif" font-size="10.00">bcnp::DecodePacketViewWithSize</text>
</a>
</g>
</g>
<!-- Node2 -->
<g id="Node000002" class="node">
<title>Node2</title>
<g id="a_Node000002"><a xlink:href="namespacebcnp.html#a9fe5fd2d19a061440fb7ff0bffab5101" target="_top" xlink:title="Compute CRC32 checksum for data integrity verification.">
<polygon fill="white" stroke="#666666" points="308.75,-93.25 202.75,-93.25 202.75,-74 308.75,-74 308.75,-93.25"/>
<text text-anchor="middle" x="255.75" y="-79.75" font-family="Helvetica,sans-Serif" font-size="10.00">bcnp::ComputeCrc32</text>
</a>
</g>
</g>
<!-- Node1&#45;&gt;Node2 -->
<g id="edge1_Node000001_Node000002" class="edge">
<title>Node1&#45;&gt;Node2</title>
<g id="a_edge1_Node000001_Node000002"><a xlink:title=" ">
<path fill="none" stroke="#63b8ff" d="M130.39,-56.74C150.95,-61.18 175.3,-66.45 196.98,-71.14"/>
<polygon fill="#63b8ff" stroke="#63b8ff" points="196.05,-74.51 206.57,-73.21 197.53,-67.67 196.05,-74.51"/>
</a>
</g>
</g>
<!-- Node3 -->
<g id="Node000003" class="node">
<title>Node3</title>
<g id="a_Node000003"><a xlink:href="namespacebcnp_1_1detail.html#a991470361e8f2953df4cacda42728080" target="_top" xlink:title=" ">
<polygon fill="white" stroke="#666666" points="310.25,-56.25 201.25,-56.25 201.25,-37 310.25,-37 310.25,-56.25"/>
<text text-anchor="middle" x="255.75" y="-42.75" font-family="Helvetica,sans-Serif" font-size="10.00">bcnp::detail::LoadU16</text>
</a>
</g>
</g>
<!-- Node1&#45;&gt;Node3 -->
<g id="edge2_Node000001_Node000003" class="edge">
<title>Node1&#45;&gt;Node3</title>
<g id="a_edge2_Node000001_Node000003"><a xlink:title=" ">
<path fill="none" stroke="#63b8ff" d="M165.68,-46.62C173.75,-46.62 181.86,-46.62 189.72,-46.62"/>
<polygon fill="#63b8ff" stroke="#63b8ff" points="189.52,-50.13 199.52,-46.63 189.52,-43.13 189.52,-50.13"/>
</a>
</g>
</g>
<!-- Node4 -->
<g id="Node000004" class="node">
<title>Node4</title>
<g id="a_Node000004"><a xlink:href="namespacebcnp_1_1detail.html#a340b9931eb1792e2f6cc8a9cc9bd0e27" target="_top" xlink:title=" ">
<polygon fill="white" stroke="#666666" points="310.25,-19.25 201.25,-19.25 201.25,0 310.25,0 310.25,-19.25"/>
<text text-anchor="middle" x="255.75" y="-5.75" font-family="Helvetica,sans-Serif" font-size="10.00">bcnp::detail::LoadU32</text>
</a>
</g>
</g>
<!-- Node1&#45;&gt;Node4 -->
<g id="edge3_Node000001_Node000004" class="edge">
<title>Node1&#45;&gt;Node4</title>
<g id="a_edge3_Node000001_Node000004"><a xlink:title=" ">
<path fill="none" stroke="#63b8ff" d="M130.39,-36.51C150.95,-32.07 175.3,-26.8 196.98,-22.11"/>
<polygon fill="#63b8ff" stroke="#63b8ff" points="197.53,-25.58 206.57,-20.04 196.05,-18.74 197.53,-25.58"/>
</a>
</g>
</g>
</g>
</svg>
