<?xml version="1.0" encoding="UTF-8" standalone="no"?>
<!DOCTYPE svg PUBLIC "-//W3C//DTD SVG 1.1//EN"
 "http://www.w3.org/Graphics/SVG/1.1/DTD/svg11.dtd">
<!-- Generated by graphviz version 12.2.0 (20241103.1931)
 -->
<!-- Title: bcnp_codegen.compute_message_size Pages: 1 -->
<svg width="420pt" height="137pt"
 viewBox="0.00 0.00 419.75 136.50" xmlns="http://www.w3.org/2000/svg" xmlns:xlink="http://www.w3.org/1999/xlink">

<svg id="main" version="1.1" xmlns="http://www.w3.org/2000/svg" xmlns:xlink="http://www.w3.org/1999/xlink" xml:space="preserve">

<style type="text/css"><![CDATA[
.node, .edge {opacity: 0.7;}
.node.selected, .edge.selected {opacity: 1;}
.edge:hover path { stroke: red; }
.edge:hover polygon { stroke: red; fill: red; }
]]></style>
<script type="application/ecmascript" xlink:href="svg.min.js"/>
<svg id="graph" class="graph">
<g id="graph0" class="graph" transform="scale(1 1) rotate(0) translate(4 132.5)">
<title>bcnp_codegen.compute_message_size</title>
<!-- Node1 -->
<g id="Node000001" class="node">
<title>Node1</title>
<g id="a_Node000001"><a xlink:title=" ">
<polygon fill="#999999" stroke="#666666" points="411.75,-79.5 293,-79.5 293,-49 411.75,-49 411.75,-79.5"/>
<text text-anchor="start" x="301" y="-66" font-family="Helvetica,sans-Serif" font-size="10.00">bcnp_codegen.compute</text>
<text text-anchor="middle" x="352.38" y="-54.75" font-family="Helvetica,sans-Serif" font-size="10.00">_message_size</text>
</a>
</g>
</g>
<!-- Node2 -->
<g id="Node000002" class="node">
<title>Node2</title>
<g id="a_Node000002"><a xlink:href="namespacebcnp__codegen.html#a14271e82d9d657419ff293b3c707ef57" target="_top" xlink:title=" ">
<polygon fill="white" stroke="#666666" points="257,-128.5 138.25,-128.5 138.25,-98 257,-98 257,-128.5"/>
<text text-anchor="start" x="146.25" y="-115" font-family="Helvetica,sans-Serif" font-size="10.00">bcnp_codegen.generate</text>
<text text-anchor="middle" x="197.62" y="-103.75" font-family="Helvetica,sans-Serif" font-size="10.00">_cpp_header</text>
</a>
</g>
</g>
<!-- Node1&#45;&gt;Node2 -->
<g id="edge1_Node000001_Node000002" class="edge">
<title>Node1&#45;&gt;Node2</title>
<g id="a_edge1_Node000001_Node000002"><a xlink:title=" ">
<path fill="none" stroke="#63b8ff" d="M291.69,-83.4C277.12,-88.07 261.71,-93.01 247.7,-97.51"/>
<polygon fill="#63b8ff" stroke="#63b8ff" points="292.73,-86.74 301.18,-80.35 290.59,-80.07 292.73,-86.74"/>
</a>
</g>
</g>
<!-- Node4 -->
<g id="Node000004" class="node">
<title>Node4</title>
<g id="a_Node000004"><a xlink:href="namespacebcnp__codegen.html#a82e8f6b2a4e8697bf79d4c651a7779c2" target="_top" xlink:title=" ">
<polygon fill="white" stroke="#666666" points="257,-79.5 138.25,-79.5 138.25,-49 257,-49 257,-79.5"/>
<text text-anchor="start" x="146.25" y="-66" font-family="Helvetica,sans-Serif" font-size="10.00">bcnp_codegen.generate</text>
<text text-anchor="middle" x="197.62" y="-54.75" font-family="Helvetica,sans-Serif" font-size="10.00">_java_flyweights</text>
</a>
</g>
</g>
<!-- Node1&#45;&gt;Node4 -->
<g id="edge4_Node000001_Node000004" class="edge">
<title>Node1&#45;&gt;Node4</title>
<g id="a_edge4_Node000001_Node000004"><a xlink:title=" ">
<path fill="none" stroke="#63b8ff" d="M281.46,-64.25C273.39,-64.25 265.23,-64.25 257.34,-64.25"/>
<polygon fill="#63b8ff" stroke="#63b8ff" points="281.24,-67.75 291.24,-64.25 281.24,-60.75 281.24,-67.75"/>
</a>
</g>
</g>
<!-- Node5 -->
<g id="Node000005" class="node">
<title>Node5</title>
<g id="a_Node000005"><a xlink:href="namespacebcnp__codegen.html#affd215d78c16e027dd6be394b339e960" target="_top" xlink:title=" ">
<polygon fill="white" stroke="#666666" points="257,-30.5 138.25,-30.5 138.25,0 257,0 257,-30.5"/>
<text text-anchor="start" x="146.25" y="-17" font-family="Helvetica,sans-Serif" font-size="10.00">bcnp_codegen.generate</text>
<text text-anchor="middle" x="197.62" y="-5.75" font-family="Helvetica,sans-Serif" font-size="10.00">_python_bindings</text>
</a>
</g>
</g>
<!-- Node1&#45;&gt;Node5 -->
<g id="edge6_Node000001_Node000005" class="edge">
<title>Node1&#45;&gt;Node5</title>
<g id="a_edge6_Node000001_Node000005"><a xlink:title=" ">
<path fill="none" stroke="#63b8ff" d="M291.69,-45.1C277.12,-40.43 261.71,-35.49 247.7,-30.99"/>
<polygon fill="#63b8ff" stroke="#63b8ff" points="290.59,-48.43 301.18,-48.15 292.73,-41.76 290.59,-48.43"/>
</a>
</g>
</g>
<!-- Node3 -->
<g id="Node000003" class="node">
<title>Node3</title>
<g id="a_Node000003"><a xlink:href="namespacebcnp__codegen.html#a3098a8cf8ab4cd7f48d959546d1249bd" target="_top" xlink:title=" ">
<polygon fill="white" stroke="#666666" points="102.25,-73.88 0,-73.88 0,-54.62 102.25,-54.62 102.25,-73.88"/>
<text text-anchor="middle" x="51.12" y="-60.38" font-family="Helvetica,sans-Serif" font-size="10.00">bcnp_codegen.main</text>
</a>
</g>
</g>
<!-- Node2&#45;&gt;Node3 -->
<g id="edge2_Node000002_Node000003" class="edge">
<title>Node2&#45;&gt;Node3</title>
<g id="a_edge2_Node000002_Node000003"><a xlink:title=" ">
<path fill="none" stroke="#63b8ff" d="M139.73,-93.96C119.96,-87.25 98.59,-80.01 81.9,-74.35"/>
<polygon fill="#63b8ff" stroke="#63b8ff" points="138.48,-97.23 149.07,-97.13 140.73,-90.6 138.48,-97.23"/>
</a>
</g>
</g>
<!-- Node3&#45;&gt;Node3 -->
<g id="edge3_Node000003_Node000003" class="edge">
<title>Node3&#45;&gt;Node3</title>
<g id="a_edge3_Node000003_Node000003"><a xlink:title=" ">
<path fill="none" stroke="#63b8ff" d="M77.39,-84.94C74.37,-88.99 65.61,-91.88 51.12,-91.88 25.37,-91.88 17.73,-82.77 28.19,-74.16"/>
<polygon fill="#63b8ff" stroke="#63b8ff" points="80.81,-84.13 74.51,-75.61 74.12,-86.2 80.81,-84.13"/>
</a>
</g>
</g>
<!-- Node4&#45;&gt;Node3 -->
<g id="edge5_Node000004_Node000003" class="edge">
<title>Node4&#45;&gt;Node3</title>
<g id="a_edge5_Node000004_Node000003"><a xlink:title=" ">
<path fill="none" stroke="#63b8ff" d="M126.48,-64.25C118.39,-64.25 110.27,-64.25 102.51,-64.25"/>
<polygon fill="#63b8ff" stroke="#63b8ff" points="126.34,-67.75 136.34,-64.25 126.34,-60.75 126.34,-67.75"/>
</a>
</g>
</g>
<!-- Node5&#45;&gt;Node3 -->
<g id="edge7_Node000005_Node000003" class="edge">
<title>Node5&#45;&gt;Node3</title>
<g id="a_edge7_Node000005_Node000003"><a xlink:title=" ">
<path fill="none" stroke="#63b8ff" d="M139.73,-34.54C119.96,-41.25 98.59,-48.49 81.9,-54.15"/>
<polygon fill="#63b8ff" stroke="#63b8ff" points="140.73,-37.9 149.07,-31.37 138.48,-31.27 140.73,-37.9"/>
</a>
</g>
</g>
</g>
</svg>
</svg>

<style type='text/css'>
<![CDATA[
[data-mouse-over-selected='false'] { opacity: 0.7; }
[data-mouse-over-selected='true']  { opacity: 1.0; }
]]>
</style>
<script type="application/ecmascript"><![CDATA[
document.addEventListener('DOMContentLoaded', (event) => {
  highlightEdges();
  highlightAdjacentNodes();
});
]]></script>
</svg>
