<?xml version="1.0" encoding="UTF-8" standalone="no"?>
<!DOCTYPE svg PUBLIC "-//W3C//DTD SVG 1.1//EN"
 "http://www.w3.org/Graphics/SVG/1.1/DTD/svg11.dtd">
<!-- Generated by graphviz version 12.2.0 (20241103.1931)
 -->
<!-- Title: bcnp_codegen.main Pages: 1 -->
<svg width="602pt" height="152pt"
 viewBox="0.00 0.00 601.50 152.40" xmlns="http://www.w3.org/2000/svg" xmlns:xlink="http://www.w3.org/1999/xlink">
<g id="graph0" class="graph" transform="scale(1 1) rotate(0) translate(4 148.4)">
<title>bcnp_codegen.main</title>
<!-- Node1 -->
<g id="Node000001" class="node">
<title>Node1</title>
<g id="a_Node000001"><a xlink:title=" ">
<polygon fill="#999999" stroke="#666666" points="102.25,-97.88 0,-97.88 0,-78.62 102.25,-78.62 102.25,-97.88"/>
<text text-anchor="middle" x="51.12" y="-84.38" font-family="Helvetica,sans-Serif" font-size="10.00">bcnp_codegen.main</text>
</a>
</g>
</g>
<!-- Node1&#45;&gt;Node1 -->
<g id="edge13_Node000001_Node000001" class="edge">
<title>Node1&#45;&gt;Node1</title>
<g id="a_edge13_Node000001_Node000001"><a xlink:title=" ">
<path fill="none" stroke="#63b8ff" d="M28.19,-98.16C17.73,-106.77 25.37,-115.88 51.12,-115.88 65.61,-115.88 74.37,-112.99 77.39,-108.94"/>
<polygon fill="#63b8ff" stroke="#63b8ff" points="80.81,-108.13 74.51,-99.61 74.12,-110.2 80.81,-108.13"/>
</a>
</g>
</g>
<!-- Node2 -->
<g id="Node000002" class="node">
<title>Node2</title>
<g id="a_Node000002"><a xlink:href="namespacebcnp__codegen.html#abb056087aa8b13cd55f9c66f889581ea" target="_top" xlink:title=" ">
<polygon fill="white" stroke="#666666" points="411.75,-128.5 293,-128.5 293,-98 411.75,-98 411.75,-128.5"/>
<text text-anchor="start" x="301" y="-115" font-family="Helvetica,sans-Serif" font-size="10.00">bcnp_codegen.compute</text>
<text text-anchor="middle" x="352.38" y="-103.75" font-family="Helvetica,sans-Serif" font-size="10.00">_schema_hash</text>
</a>
</g>
</g>
<!-- Node1&#45;&gt;Node2 -->
<g id="edge1_Node000001_Node000002" class="edge">
<title>Node1&#45;&gt;Node2</title>
<g id="a_edge1_Node000001_Node000002"><a xlink:title=" ">
<path fill="none" stroke="#63b8ff" d="M64.62,-98.17C80.6,-110.16 109.65,-129.68 138.25,-137.25 188.75,-150.61 247.9,-142.12 291.06,-131.72"/>
<polygon fill="#63b8ff" stroke="#63b8ff" points="291.64,-135.18 300.48,-129.34 289.93,-128.39 291.64,-135.18"/>
</a>
</g>
</g>
<!-- Node5 -->
<g id="Node000005" class="node">
<title>Node5</title>
<g id="a_Node000005"><a xlink:href="namespacebcnp__codegen.html#a14271e82d9d657419ff293b3c707ef57" target="_top" xlink:title=" ">
<polygon fill="white" stroke="#666666" points="257,-128.5 138.25,-128.5 138.25,-98 257,-98 257,-128.5"/>
<text text-anchor="start" x="146.25" y="-115" font-family="Helvetica,sans-Serif" font-size="10.00">bcnp_codegen.generate</text>
<text text-anchor="middle" x="197.62" y="-103.75" font-family="Helvetica,sans-Serif" font-size="10.00">_cpp_header</text>
</a>
</g>
</g>
<!-- Node1&#45;&gt;Node5 -->
<g id="edge4_Node000001_Node000005" class="edge">
<title>Node1&#45;&gt;Node5</title>
<g id="a_edge4_Node000001_Node000005"><a xlink:title=" ">
<path fill="none" stroke="#63b8ff" d="M102.66,-96.99C110.5,-98.35 118.71,-99.77 126.87,-101.18"/>
<polygon fill="#63b8ff" stroke="#63b8ff" points="126,-104.58 136.45,-102.84 127.19,-97.69 126,-104.58"/>
</a>
</g>
</g>
<!-- Node7 -->
<g id="Node000007" class="node">
<title>Node7</title>
<g id="a_Node000007"><a xlink:href="namespacebcnp__codegen.html#a82e8f6b2a4e8697bf79d4c651a7779c2" target="_top" xlink:title=" ">
<polygon fill="white" stroke="#666666" points="257,-79.5 138.25,-79.5 138.25,-49 257,-49 257,-79.5"/>
<text text-anchor="start" x="146.25" y="-66" font-family="Helvetica,sans-Serif" font-size="10.00">bcnp_codegen.generate</text>
<text text-anchor="middle" x="197.62" y="-54.75" font-family="Helvetica,sans-Serif" font-size="10.00">_java_flyweights</text>
</a>
</g>
</g>
<!-- Node1&#45;&gt;Node7 -->
<g id="edge7_Node000001_Node000007" class="edge">
<title>Node1&#45;&gt;Node7</title>
<g id="a_edge7_Node000001_Node000007"><a xlink:title=" ">
<path fill="none" stroke="#63b8ff" d="M102.66,-79.86C110.41,-78.57 118.52,-77.22 126.59,-75.88"/>
<polygon fill="#63b8ff" stroke="#63b8ff" points="127.16,-79.34 136.45,-74.24 126.01,-72.43 127.16,-79.34"/>
</a>
</g>
</g>
<!-- Node8 -->
<g id="Node000008" class="node">
<title>Node8</title>
<g id="a_Node000008"><a xlink:href="namespacebcnp__codegen.html#affd215d78c16e027dd6be394b339e960" target="_top" xlink:title=" ">
<polygon fill="white" stroke="#666666" points="257,-30.5 138.25,-30.5 138.25,0 257,0 257,-30.5"/>
<text text-anchor="start" x="146.25" y="-17" font-family="Helvetica,sans-Serif" font-size="10.00">bcnp_codegen.generate</text>
<text text-anchor="middle" x="197.62" y="-5.75" font-family="Helvetica,sans-Serif" font-size="10.00">_python_bindings</text>
</a>
</g>
</g>
<!-- Node1&#45;&gt;Node8 -->
<g id="edge10_Node000001_Node000008" class="edge">
<title>Node1&#45;&gt;Node8</title>
<g id="a_edge10_Node000001_Node000008"><a xlink:title=" ">
<path fill="none" stroke="#63b8ff" d="M69,-78.16C86.17,-68.06 113.67,-52.32 138.25,-40.25 141.37,-38.72 144.6,-37.19 147.87,-35.68"/>
<polygon fill="#63b8ff" stroke="#63b8ff" points="149.3,-38.87 156.99,-31.58 146.43,-32.49 149.3,-38.87"/>
</a>
</g>
</g>
<!-- Node3 -->
<g id="Node000003" class="node">
<title>Node3</title>
<g id="a_Node000003"><a xlink:href="namespacebcnp__codegen.html#ab80c965b830102cc8adb068cd83b8f51" target="_top" xlink:title=" ">
<polygon fill="white" stroke="#666666" points="593.5,-143.88 447.75,-143.88 447.75,-124.62 593.5,-124.62 593.5,-143.88"/>
<text text-anchor="middle" x="520.62" y="-130.38" font-family="Helvetica,sans-Serif" font-size="10.00">bcnp_codegen.canonical_json</text>
</a>
</g>
</g>
<!-- Node2&#45;&gt;Node3 -->
<g id="edge2_Node000002_Node000003" class="edge">
<title>Node2&#45;&gt;Node3</title>
<g id="a_edge2_Node000002_Node000003"><a xlink:title=" ">
<path fill="none" stroke="#63b8ff" d="M411.99,-120.65C419.74,-121.63 427.8,-122.65 435.88,-123.67"/>
<polygon fill="#63b8ff" stroke="#63b8ff" points="435.4,-127.14 445.76,-124.92 436.28,-120.19 435.4,-127.14"/>
</a>
</g>
</g>
<!-- Node4 -->
<g id="Node000004" class="node">
<title>Node4</title>
<g id="a_Node000004"><a xlink:href="namespacebcnp__codegen.html#a84d4a9196705830f11f9bd9606f771fa" target="_top" xlink:title=" ">
<polygon fill="white" stroke="#666666" points="580,-106.5 461.25,-106.5 461.25,-76 580,-76 580,-106.5"/>
<text text-anchor="start" x="469.25" y="-93" font-family="Helvetica,sans-Serif" font-size="10.00">bcnp_codegen.compute</text>
<text text-anchor="middle" x="520.62" y="-81.75" font-family="Helvetica,sans-Serif" font-size="10.00">_crc32</text>
</a>
</g>
</g>
<!-- Node2&#45;&gt;Node4 -->
<g id="edge3_Node000002_Node000004" class="edge">
<title>Node2&#45;&gt;Node4</title>
<g id="a_edge3_Node000002_Node000004"><a xlink:title=" ">
<path fill="none" stroke="#63b8ff" d="M411.99,-105.49C424.16,-103.88 437.09,-102.17 449.62,-100.51"/>
<polygon fill="#63b8ff" stroke="#63b8ff" points="450.03,-103.99 459.48,-99.21 449.11,-97.05 450.03,-103.99"/>
</a>
</g>
</g>
<!-- Node5&#45;&gt;Node2 -->
<g id="edge6_Node000005_Node000002" class="edge">
<title>Node5&#45;&gt;Node2</title>
<g id="a_edge6_Node000005_Node000002"><a xlink:title=" ">
<path fill="none" stroke="#63b8ff" d="M257.25,-113.25C265.14,-113.25 273.3,-113.25 281.36,-113.25"/>
<polygon fill="#63b8ff" stroke="#63b8ff" points="281.15,-116.75 291.15,-113.25 281.15,-109.75 281.15,-116.75"/>
</a>
</g>
</g>
<!-- Node6 -->
<g id="Node000006" class="node">
<title>Node6</title>
<g id="a_Node000006"><a xlink:href="namespacebcnp__codegen.html#a5569b387445f53139c1894e3d2ee5780" target="_top" xlink:title=" ">
<polygon fill="white" stroke="#666666" points="411.75,-79.5 293,-79.5 293,-49 411.75,-49 411.75,-79.5"/>
<text text-anchor="start" x="301" y="-66" font-family="Helvetica,sans-Serif" font-size="10.00">bcnp_codegen.compute</text>
<text text-anchor="middle" x="352.38" y="-54.75" font-family="Helvetica,sans-Serif" font-size="10.00">_message_size</text>
</a>
</g>
</g>
<!-- Node5&#45;&gt;Node6 -->
<g id="edge5_Node000005_Node000006" class="edge">
<title>Node5&#45;&gt;Node6</title>
<g id="a_edge5_Node000005_Node000006"><a xlink:title=" ">
<path fill="none" stroke="#63b8ff" d="M247.38,-97.61C261.36,-93.13 276.77,-88.18 291.35,-83.5"/>
<polygon fill="#63b8ff" stroke="#63b8ff" points="292.41,-86.84 300.86,-80.45 290.27,-80.18 292.41,-86.84"/>
</a>
</g>
</g>
<!-- Node7&#45;&gt;Node2 -->
<g id="edge9_Node000007_Node000002" class="edge">
<title>Node7&#45;&gt;Node2</title>
<g id="a_edge9_Node000007_Node000002"><a xlink:title=" ">
<path fill="none" stroke="#63b8ff" d="M247.38,-79.89C261.36,-84.37 276.77,-89.32 291.35,-94"/>
<polygon fill="#63b8ff" stroke="#63b8ff" points="290.27,-97.32 300.86,-97.05 292.41,-90.66 290.27,-97.32"/>
</a>
</g>
</g>
<!-- Node7&#45;&gt;Node6 -->
<g id="edge8_Node000007_Node000006" class="edge">
<title>Node7&#45;&gt;Node6</title>
<g id="a_edge8_Node000007_Node000006"><a xlink:title=" ">
<path fill="none" stroke="#63b8ff" d="M257.25,-64.25C265.14,-64.25 273.3,-64.25 281.36,-64.25"/>
<polygon fill="#63b8ff" stroke="#63b8ff" points="281.15,-67.75 291.15,-64.25 281.15,-60.75 281.15,-67.75"/>
</a>
</g>
</g>
<!-- Node8&#45;&gt;Node2 -->
<g id="edge12_Node000008_Node000002" class="edge">
<title>Node8&#45;&gt;Node2</title>
<g id="a_edge12_Node000008_Node000002"><a xlink:title=" ">
<path fill="none" stroke="#63b8ff" d="M242.47,-30.99C247.6,-33.69 252.58,-36.78 257,-40.25 277.97,-56.73 272.03,-71.77 293,-88.25 294.52,-89.44 296.11,-90.59 297.74,-91.69"/>
<polygon fill="#63b8ff" stroke="#63b8ff" points="295.85,-94.64 306.23,-96.74 299.42,-88.62 295.85,-94.64"/>
</a>
</g>
</g>
<!-- Node8&#45;&gt;Node6 -->
<g id="edge11_Node000008_Node000006" class="edge">
<title>Node8&#45;&gt;Node6</title>
<g id="a_edge11_Node000008_Node000006"><a xlink:title=" ">
<path fill="none" stroke="#63b8ff" d="M247.38,-30.89C261.36,-35.37 276.77,-40.32 291.35,-45"/>
<polygon fill="#63b8ff" stroke="#63b8ff" points="290.27,-48.32 300.86,-48.05 292.41,-41.66 290.27,-48.32"/>
</a>
</g>
</g>
</g>
</svg>
