<?xml version="1.0" encoding="UTF-8" standalone="no"?>
<!DOCTYPE svg PUBLIC "-//W3C//DTD SVG 1.1//EN"
 "http://www.w3.org/Graphics/SVG/1.1/DTD/svg11.dtd">
<!-- Generated by graphviz version 12.2.0 (20241103.1931)
 -->
<!-- Title: bcnp::DecodePacketViewAs Pages: 1 -->
<svg width="493pt" height="101pt"
 viewBox="0.00 0.00 493.25 101.25" xmlns="http://www.w3.org/2000/svg" xmlns:xlink="http://www.w3.org/1999/xlink">
<g id="graph0" class="graph" transform="scale(1 1) rotate(0) translate(4 97.25)">
<title>bcnp::DecodePacketViewAs</title>
<!-- Node1 -->
<g id="Node000001" class="node">
<title>Node1</title>
<g id="a_Node000001"><a xlink:title="Type&#45;safe packet view decode using compile&#45;time message type.">
<polygon fill="#999999" stroke="#666666" points="139,-56.25 0,-56.25 0,-37 139,-37 139,-56.25"/>
<text text-anchor="middle" x="69.5" y="-42.75" font-family="Helvetica,sans-Serif" font-size="10.00">bcnp::DecodePacketViewAs</text>
</a>
</g>
</g>
<!-- Node2 -->
<g id="Node000002" class="node">
<title>Node2</title>
<g id="a_Node000002"><a xlink:href="namespacebcnp.html#abfa84506649424c70b4d70dfc47f5434" target="_top" xlink:title="Decode a packet with explicitly provided message wire size.">
<polygon fill="white" stroke="#666666" points="340.25,-56.25 175,-56.25 175,-37 340.25,-37 340.25,-56.25"/>
<text text-anchor="middle" x="257.62" y="-42.75" font-family="Helvetica,sans-Serif" font-size="10.00">bcnp::DecodePacketViewWithSize</text>
</a>
</g>
</g>
<!-- Node1&#45;&gt;Node2 -->
<g id="edge1_Node000001_Node000002" class="edge">
<title>Node1&#45;&gt;Node2</title>
<g id="a_edge1_Node000001_Node000002"><a xlink:title=" ">
<path fill="none" stroke="#63b8ff" d="M139.28,-46.62C147.09,-46.62 155.15,-46.62 163.21,-46.62"/>
<polygon fill="#63b8ff" stroke="#63b8ff" points="163.07,-50.13 173.07,-46.63 163.07,-43.13 163.07,-50.13"/>
</a>
</g>
</g>
<!-- Node3 -->
<g id="Node000003" class="node">
<title>Node3</title>
<g id="a_Node000003"><a xlink:href="namespacebcnp.html#a9fe5fd2d19a061440fb7ff0bffab5101" target="_top" xlink:title="Compute CRC32 checksum for data integrity verification.">
<polygon fill="white" stroke="#666666" points="483.75,-93.25 377.75,-93.25 377.75,-74 483.75,-74 483.75,-93.25"/>
<text text-anchor="middle" x="430.75" y="-79.75" font-family="Helvetica,sans-Serif" font-size="10.00">bcnp::ComputeCrc32</text>
</a>
</g>
</g>
<!-- Node2&#45;&gt;Node3 -->
<g id="edge2_Node000002_Node000003" class="edge">
<title>Node2&#45;&gt;Node3</title>
<g id="a_edge2_Node000002_Node000003"><a xlink:title=" ">
<path fill="none" stroke="#63b8ff" d="M305.39,-56.74C325.95,-61.18 350.3,-66.45 371.98,-71.14"/>
<polygon fill="#63b8ff" stroke="#63b8ff" points="371.05,-74.51 381.57,-73.21 372.53,-67.67 371.05,-74.51"/>
</a>
</g>
</g>
<!-- Node4 -->
<g id="Node000004" class="node">
<title>Node4</title>
<g id="a_Node000004"><a xlink:href="namespacebcnp_1_1detail.html#a991470361e8f2953df4cacda42728080" target="_top" xlink:title=" ">
<polygon fill="white" stroke="#666666" points="485.25,-56.25 376.25,-56.25 376.25,-37 485.25,-37 485.25,-56.25"/>
<text text-anchor="middle" x="430.75" y="-42.75" font-family="Helvetica,sans-Serif" font-size="10.00">bcnp::detail::LoadU16</text>
</a>
</g>
</g>
<!-- Node2&#45;&gt;Node4 -->
<g id="edge3_Node000002_Node000004" class="edge">
<title>Node2&#45;&gt;Node4</title>
<g id="a_edge3_Node000002_Node000004"><a xlink:title=" ">
<path fill="none" stroke="#63b8ff" d="M340.68,-46.62C348.75,-46.62 356.86,-46.62 364.72,-46.62"/>
<polygon fill="#63b8ff" stroke="#63b8ff" points="364.52,-50.13 374.52,-46.63 364.52,-43.13 364.52,-50.13"/>
</a>
</g>
</g>
<!-- Node5 -->
<g id="Node000005" class="node">
<title>Node5</title>
<g id="a_Node000005"><a xlink:href="namespacebcnp_1_1detail.html#a340b9931eb1792e2f6cc8a9cc9bd0e27" target="_top" xlink:title=" ">
<polygon fill="white" stroke="#666666" points="485.25,-19.25 376.25,-19.25 376.25,0 485.25,0 485.25,-19.25"/>
<text text-anchor="middle" x="430.75" y="-5.75" font-family="Helvetica,sans-Serif" font-size="10.00">bcnp::detail::LoadU32</text>
</a>
</g>
</g>
<!-- Node2&#45;&gt;Node5 -->
<g id="edge4_Node000002_Node000005" class="edge">
<title>Node2&#45;&gt;Node5</title>
<g id="a_edge4_Node000002_Node000005"><a xlink:title=" ">
<path fill="none" stroke="#63b8ff" d="M305.39,-36.51C325.95,-32.07 350.3,-26.8 371.98,-22.11"/>
<polygon fill="#63b8ff" stroke="#63b8ff" points="372.53,-25.58 381.57,-20.04 371.05,-18.74 372.53,-25.58"/>
</a>
</g>
</g>
</g>
</svg>
