<?xml version="1.0" encoding="UTF-8" standalone="no"?>
<!DOCTYPE svg PUBLIC "-//W3C//DTD SVG 1.1//EN"
 "http://www.w3.org/Graphics/SVG/1.1/DTD/svg11.dtd">
<!-- Generated by graphviz version 12.2.0 (20241103.1931)
 -->
<!-- Title: bcnp/packet.h Pages: 1 -->
<!--zoomable 193 -->

<svg id="main" version="1.1" xmlns="http://www.w3.org/2000/svg" xmlns:xlink="http://www.w3.org/1999/xlink" xml:space="preserve" onload="init(evt)">

<style type="text/css"><![CDATA[
.node, .edge {opacity: 0.7;}
.node.selected, .edge.selected {opacity: 1;}
.edge:hover path { stroke: red; }
.edge:hover polygon { stroke: red; fill: red; }
]]></style>

<defs>
  <circle id="rim" cx="0" cy="0" r="7"/>
  <circle id="rim2" cx="0" cy="0" r="3.5"/>
  <g id="zoomPlus">
    <use xlink:href="#rim" fill="#404040"><set attributeName="fill" to="#808080" begin="zoomplus.mouseover" end="zoomplus.mouseout"/></use>
    <path d="M-4,0h8M0,-4v8" fill="none" stroke="white" stroke-width="1.5" pointer-events="none"/>
  </g>
  <g id="zoomMin">
    <use xlink:href="#rim" fill="#404040"><set attributeName="fill" to="#808080" begin="zoomminus.mouseover" end="zoomminus.mouseout"/></use>
    <path d="M-4,0h8" fill="none" stroke="white" stroke-width="1.5" pointer-events="none"/>
  </g>
  <g id="arrowUp" transform="translate(30 24)">
    <use xlink:href="#rim"/>
    <path pointer-events="none" fill="none" stroke="white" stroke-width="1.5" d="M0,-3.0v7 M-2.5,-0.5L0,-3.0L2.5,-0.5"/>
  </g>
  <g id="arrowRight" transform="rotate(90) translate(36 -43)">
    <use xlink:href="#rim"/>
    <path pointer-events="none" fill="none" stroke="white" stroke-width="1.5" d="M0,-3.0v7 M-2.5,-0.5L0,-3.0L2.5,-0.5"/>
  </g>
  <g id="arrowDown" transform="rotate(180) translate(-30 -48)">
    <use xlink:href="#rim"/>
    <path pointer-events="none" fill="none" stroke="white" stroke-width="1.5" d="M0,-3.0v7 M-2.5,-0.5L0,-3.0L2.5,-0.5"/>
  </g>
  <g id="arrowLeft" transform="rotate(270) translate(-36 17)">
    <use xlink:href="#rim"/>
    <path pointer-events="none" fill="none" stroke="white" stroke-width="1.5" d="M0,-3.0v7 M-2.5,-0.5L0,-3.0L2.5,-0.5"/>
  </g>
  <g id="resetDef">
    <use xlink:href="#rim2" fill="#404040"><set attributeName="fill" to="#808080" begin="reset.mouseover" end="reset.mouseout"/></use>
  </g>
</defs>
<script type="application/ecmascript">
var viewWidth = 987;
var viewHeight = 193;
var sectionId = 'dynsection-0';
</script>
<script type="application/ecmascript" xlink:href="svg.min.js"/>
<svg id="graph" class="graph">
<g id="viewport">
<title>bcnp/packet.h</title>
<!-- Node1 -->
<g id="Node000001" class="node">
<title>Node1</title>
<g id="a_Node000001"><a xlink:title="BCNP packet structures, encoding, and decoding utilities.">
<polygon fill="#999999" stroke="#666666" points="460.38,-185 383.62,-185 383.62,-165.75 460.38,-165.75 460.38,-185"/>
<text text-anchor="middle" x="422" y="-171.5" font-family="Helvetica,sans-Serif" font-size="10.00">bcnp/packet.h</text>
</a>
</g>
</g>
<!-- Node2 -->
<g id="Node000002" class="node">
<title>Node2</title>
<g id="a_Node000002"><a xlink:href="message__types_8h.html" target="_top" xlink:title=" ">
<polygon fill="white" stroke="#666666" points="717.88,-129.75 602.12,-129.75 602.12,-110.5 717.88,-110.5 717.88,-129.75"/>
<text text-anchor="middle" x="660" y="-116.25" font-family="Helvetica,sans-Serif" font-size="10.00">bcnp/message_types.h</text>
</a>
</g>
</g>
<!-- Node1&#45;&gt;Node2 -->
<g id="edge1_Node000001_Node000002" class="edge">
<title>Node1&#45;&gt;Node2</title>
<g id="a_edge1_Node000001_Node000002"><a xlink:title=" ">
<path fill="none" stroke="#63b8ff" d="M460.77,-165.7C500.88,-156.73 563.74,-142.66 608.11,-132.73"/>
<polygon fill="#63b8ff" stroke="#63b8ff" points="608.78,-136.17 617.78,-130.57 607.25,-129.34 608.78,-136.17"/>
</a>
</g>
</g>
<!-- Node4 -->
<g id="Node000004" class="node">
<title>Node4</title>
<g id="a_Node000004"><a xlink:title=" ">
<polygon fill="#e0e0e0" stroke="#999999" points="431.12,-19.25 382.88,-19.25 382.88,0 431.12,0 431.12,-19.25"/>
<text text-anchor="middle" x="407" y="-5.75" font-family="Helvetica,sans-Serif" font-size="10.00">cstddef</text>
</a>
</g>
</g>
<!-- Node1&#45;&gt;Node4 -->
<g id="edge23_Node000001_Node000004" class="edge">
<title>Node1&#45;&gt;Node4</title>
<g id="a_edge23_Node000001_Node000004"><a xlink:title=" ">
<path fill="none" stroke="#63b8ff" d="M421.19,-165.57C418.87,-140.25 412.14,-66.75 408.85,-30.84"/>
<polygon fill="#63b8ff" stroke="#63b8ff" points="412.35,-30.62 407.95,-20.98 405.38,-31.26 412.35,-30.62"/>
</a>
</g>
</g>
<!-- Node5 -->
<g id="Node000005" class="node">
<title>Node5</title>
<g id="a_Node000005"><a xlink:title=" ">
<polygon fill="#e0e0e0" stroke="#999999" points="495.62,-74.5 450.38,-74.5 450.38,-55.25 495.62,-55.25 495.62,-74.5"/>
<text text-anchor="middle" x="473" y="-61" font-family="Helvetica,sans-Serif" font-size="10.00">cstdint</text>
</a>
</g>
</g>
<!-- Node1&#45;&gt;Node5 -->
<g id="edge24_Node000001_Node000005" class="edge">
<title>Node1&#45;&gt;Node5</title>
<g id="a_edge24_Node000001_Node000005"><a xlink:title=" ">
<path fill="none" stroke="#63b8ff" d="M426.17,-165.5C434.39,-148.01 452.84,-108.77 463.97,-85.09"/>
<polygon fill="#63b8ff" stroke="#63b8ff" points="467.04,-86.79 468.12,-76.25 460.7,-83.81 467.04,-86.79"/>
</a>
</g>
</g>
<!-- Node10 -->
<g id="Node000010" class="node">
<title>Node10</title>
<g id="a_Node000010"><a xlink:title=" ">
<polygon fill="#e0e0e0" stroke="#999999" points="978.88,-74.5 929.12,-74.5 929.12,-55.25 978.88,-55.25 978.88,-74.5"/>
<text text-anchor="middle" x="954" y="-61" font-family="Helvetica,sans-Serif" font-size="10.00">optional</text>
</a>
</g>
</g>
<!-- Node1&#45;&gt;Node10 -->
<g id="edge25_Node000001_Node000010" class="edge">
<title>Node1&#45;&gt;Node10</title>
<g id="a_edge25_Node000001_Node000010"><a xlink:title=" ">
<path fill="none" stroke="#63b8ff" d="M460.8,-170.32C519.02,-163.88 632.26,-149.92 727,-129.75 795.33,-115.2 873.43,-91.67 917.91,-77.59"/>
<polygon fill="#63b8ff" stroke="#63b8ff" points="918.83,-80.97 927.29,-74.6 916.7,-74.3 918.83,-80.97"/>
</a>
</g>
</g>
<!-- Node12 -->
<g id="Node000012" class="node">
<title>Node12</title>
<g id="a_Node000012"><a xlink:href="static__vector_8h.html" target="_top" xlink:title="Fixed&#45;capacity vector with stack allocation (no heap).">
<polygon fill="white" stroke="#666666" points="255.88,-74.5 152.12,-74.5 152.12,-55.25 255.88,-55.25 255.88,-74.5"/>
<text text-anchor="middle" x="204" y="-61" font-family="Helvetica,sans-Serif" font-size="10.00">bcnp/static_vector.h</text>
</a>
</g>
</g>
<!-- Node1&#45;&gt;Node12 -->
<g id="edge11_Node000001_Node000012" class="edge">
<title>Node1&#45;&gt;Node12</title>
<g id="a_edge11_Node000001_Node000012"><a xlink:title=" ">
<path fill="none" stroke="#63b8ff" d="M383.24,-174.85C341.66,-173.36 275.84,-164.98 233,-129.75 219.61,-118.74 212.15,-100.23 208.16,-85.96"/>
<polygon fill="#63b8ff" stroke="#63b8ff" points="211.57,-85.19 205.84,-76.28 204.77,-86.83 211.57,-85.19"/>
</a>
</g>
</g>
<!-- Node18 -->
<g id="Node000018" class="node">
<title>Node18</title>
<g id="a_Node000018"><a xlink:href="packet__storage_8h.html" target="_top" xlink:title=" ">
<polygon fill="white" stroke="#666666" points="356.12,-129.75 241.88,-129.75 241.88,-110.5 356.12,-110.5 356.12,-129.75"/>
<text text-anchor="middle" x="299" y="-116.25" font-family="Helvetica,sans-Serif" font-size="10.00">bcnp/packet_storage.h</text>
</a>
</g>
</g>
<!-- Node1&#45;&gt;Node18 -->
<g id="edge18_Node000001_Node000018" class="edge">
<title>Node1&#45;&gt;Node18</title>
<g id="a_edge18_Node000001_Node000018"><a xlink:title=" ">
<path fill="none" stroke="#63b8ff" d="M401.13,-165.34C381.7,-156.93 352.46,-144.27 330.24,-134.65"/>
<polygon fill="#63b8ff" stroke="#63b8ff" points="331.92,-131.56 321.36,-130.8 329.14,-137.99 331.92,-131.56"/>
</a>
</g>
</g>
<!-- Node19 -->
<g id="Node000019" class="node">
<title>Node19</title>
<g id="a_Node000019"><a xlink:title=" ">
<polygon fill="#e0e0e0" stroke="#999999" points="393.5,-74.5 350.5,-74.5 350.5,-55.25 393.5,-55.25 393.5,-74.5"/>
<text text-anchor="middle" x="372" y="-61" font-family="Helvetica,sans-Serif" font-size="10.00">vector</text>
</a>
</g>
</g>
<!-- Node1&#45;&gt;Node19 -->
<g id="edge26_Node000001_Node000019" class="edge">
<title>Node1&#45;&gt;Node19</title>
<g id="a_edge26_Node000001_Node000019"><a xlink:title=" ">
<path fill="none" stroke="#63b8ff" d="M417.91,-165.5C409.85,-148.01 391.77,-108.77 380.85,-85.09"/>
<polygon fill="#63b8ff" stroke="#63b8ff" points="384.15,-83.87 376.78,-76.25 377.79,-86.8 384.15,-83.87"/>
</a>
</g>
</g>
<!-- Node3 -->
<g id="Node000003" class="node">
<title>Node3</title>
<g id="a_Node000003"><a xlink:title=" ">
<polygon fill="#e0e0e0" stroke="#999999" points="589.5,-74.5 552.5,-74.5 552.5,-55.25 589.5,-55.25 589.5,-74.5"/>
<text text-anchor="middle" x="571" y="-61" font-family="Helvetica,sans-Serif" font-size="10.00">array</text>
</a>
</g>
</g>
<!-- Node2&#45;&gt;Node3 -->
<g id="edge2_Node000002_Node000003" class="edge">
<title>Node2&#45;&gt;Node3</title>
<g id="a_edge2_Node000002_Node000003"><a xlink:title=" ">
<path fill="none" stroke="#63b8ff" d="M644.9,-110.09C631.48,-102.06 611.59,-90.16 595.83,-80.73"/>
<polygon fill="#63b8ff" stroke="#63b8ff" points="597.85,-77.86 587.47,-75.73 594.25,-83.87 597.85,-77.86"/>
</a>
</g>
</g>
<!-- Node2&#45;&gt;Node4 -->
<g id="edge3_Node000002_Node000004" class="edge">
<title>Node2&#45;&gt;Node4</title>
<g id="a_edge3_Node000002_Node000004"><a xlink:title=" ">
<path fill="none" stroke="#63b8ff" d="M634.38,-110.03C610.7,-101.45 574.64,-87.92 544,-74.5 526.29,-66.74 522.46,-63.53 505,-55.25 482.59,-44.62 457.08,-33.02 437.71,-24.31"/>
<polygon fill="#63b8ff" stroke="#63b8ff" points="439.29,-21.19 428.74,-20.29 436.43,-27.58 439.29,-21.19"/>
</a>
</g>
</g>
<!-- Node2&#45;&gt;Node5 -->
<g id="edge4_Node000002_Node000005" class="edge">
<title>Node2&#45;&gt;Node5</title>
<g id="a_edge4_Node000002_Node000005"><a xlink:title=" ">
<path fill="none" stroke="#63b8ff" d="M628.28,-110.09C594.57,-100.49 541.49,-85.38 506.96,-75.54"/>
<polygon fill="#63b8ff" stroke="#63b8ff" points="508.04,-72.21 497.47,-72.84 506.13,-78.95 508.04,-72.21"/>
</a>
</g>
</g>
<!-- Node6 -->
<g id="Node000006" class="node">
<title>Node6</title>
<g id="a_Node000006"><a xlink:title=" ">
<polygon fill="#e0e0e0" stroke="#999999" points="650.5,-74.5 607.5,-74.5 607.5,-55.25 650.5,-55.25 650.5,-74.5"/>
<text text-anchor="middle" x="629" y="-61" font-family="Helvetica,sans-Serif" font-size="10.00">cmath</text>
</a>
</g>
</g>
<!-- Node2&#45;&gt;Node6 -->
<g id="edge5_Node000002_Node000006" class="edge">
<title>Node2&#45;&gt;Node6</title>
<g id="a_edge5_Node000002_Node000006"><a xlink:title=" ">
<path fill="none" stroke="#63b8ff" d="M654.88,-110.33C650.82,-103.36 645.01,-93.37 639.91,-84.62"/>
<polygon fill="#63b8ff" stroke="#63b8ff" points="643.05,-83.05 634.99,-76.17 637,-86.57 643.05,-83.05"/>
</a>
</g>
</g>
<!-- Node7 -->
<g id="Node000007" class="node">
<title>Node7</title>
<g id="a_Node000007"><a xlink:title=" ">
<polygon fill="#e0e0e0" stroke="#999999" points="713.62,-74.5 668.38,-74.5 668.38,-55.25 713.62,-55.25 713.62,-74.5"/>
<text text-anchor="middle" x="691" y="-61" font-family="Helvetica,sans-Serif" font-size="10.00">cstring</text>
</a>
</g>
</g>
<!-- Node2&#45;&gt;Node7 -->
<g id="edge6_Node000002_Node000007" class="edge">
<title>Node2&#45;&gt;Node7</title>
<g id="a_edge6_Node000002_Node000007"><a xlink:title=" ">
<path fill="none" stroke="#63b8ff" d="M665.12,-110.33C669.18,-103.36 674.99,-93.37 680.09,-84.62"/>
<polygon fill="#63b8ff" stroke="#63b8ff" points="683,-86.57 685.01,-76.17 676.95,-83.05 683,-86.57"/>
</a>
</g>
</g>
<!-- Node8 -->
<g id="Node000008" class="node">
<title>Node8</title>
<g id="a_Node000008"><a xlink:title=" ">
<polygon fill="#e0e0e0" stroke="#999999" points="790,-74.5 732,-74.5 732,-55.25 790,-55.25 790,-74.5"/>
<text text-anchor="middle" x="761" y="-61" font-family="Helvetica,sans-Serif" font-size="10.00">functional</text>
</a>
</g>
</g>
<!-- Node2&#45;&gt;Node8 -->
<g id="edge7_Node000002_Node000008" class="edge">
<title>Node2&#45;&gt;Node8</title>
<g id="a_edge7_Node000002_Node000008"><a xlink:title=" ">
<path fill="none" stroke="#63b8ff" d="M677.13,-110.09C692.66,-101.91 715.8,-89.71 733.84,-80.19"/>
<polygon fill="#63b8ff" stroke="#63b8ff" points="735.23,-83.42 742.44,-75.66 731.97,-77.23 735.23,-83.42"/>
</a>
</g>
</g>
<!-- Node9 -->
<g id="Node000009" class="node">
<title>Node9</title>
<g id="a_Node000009"><a xlink:title=" ">
<polygon fill="#e0e0e0" stroke="#999999" points="847.62,-74.5 808.38,-74.5 808.38,-55.25 847.62,-55.25 847.62,-74.5"/>
<text text-anchor="middle" x="828" y="-61" font-family="Helvetica,sans-Serif" font-size="10.00">limits</text>
</a>
</g>
</g>
<!-- Node2&#45;&gt;Node9 -->
<g id="edge8_Node000002_Node000009" class="edge">
<title>Node2&#45;&gt;Node9</title>
<g id="a_edge8_Node000002_Node000009"><a xlink:title=" ">
<path fill="none" stroke="#63b8ff" d="M688.5,-110.09C718.85,-100.47 766.69,-85.31 797.71,-75.48"/>
<polygon fill="#63b8ff" stroke="#63b8ff" points="798.39,-78.93 806.87,-72.57 796.28,-72.26 798.39,-78.93"/>
</a>
</g>
</g>
<!-- Node2&#45;&gt;Node10 -->
<g id="edge9_Node000002_Node000010" class="edge">
<title>Node2&#45;&gt;Node10</title>
<g id="a_edge9_Node000002_Node000010"><a xlink:title=" ">
<path fill="none" stroke="#63b8ff" d="M718.33,-110.45C768.72,-102.66 843.69,-90.35 917.86,-74.82"/>
<polygon fill="#63b8ff" stroke="#63b8ff" points="918.26,-78.31 927.32,-72.82 916.81,-71.46 918.26,-78.31"/>
</a>
</g>
</g>
<!-- Node11 -->
<g id="Node000011" class="node">
<title>Node11</title>
<g id="a_Node000011"><a xlink:title=" ">
<polygon fill="#e0e0e0" stroke="#999999" points="910.62,-74.5 865.38,-74.5 865.38,-55.25 910.62,-55.25 910.62,-74.5"/>
<text text-anchor="middle" x="888" y="-61" font-family="Helvetica,sans-Serif" font-size="10.00">variant</text>
</a>
</g>
</g>
<!-- Node2&#45;&gt;Node11 -->
<g id="edge10_Node000002_Node000011" class="edge">
<title>Node2&#45;&gt;Node11</title>
<g id="a_edge10_Node000002_Node000011"><a xlink:title=" ">
<path fill="none" stroke="#63b8ff" d="M702.8,-110.06C740.38,-101.96 796.78,-89.46 853.95,-75.19"/>
<polygon fill="#63b8ff" stroke="#63b8ff" points="854.7,-78.61 863.54,-72.77 852.99,-71.82 854.7,-78.61"/>
</a>
</g>
</g>
<!-- Node12&#45;&gt;Node4 -->
<g id="edge12_Node000012_Node000004" class="edge">
<title>Node12&#45;&gt;Node4</title>
<g id="a_edge12_Node000012_Node000004"><a xlink:title=" ">
<path fill="none" stroke="#63b8ff" d="M238.44,-54.84C275.55,-45.11 334.3,-29.69 371.73,-19.88"/>
<polygon fill="#63b8ff" stroke="#63b8ff" points="372.37,-23.33 381.15,-17.4 370.59,-16.56 372.37,-23.33"/>
</a>
</g>
</g>
<!-- Node13 -->
<g id="Node000013" class="node">
<title>Node13</title>
<g id="a_Node000013"><a xlink:title=" ">
<polygon fill="#e0e0e0" stroke="#999999" points="255.75,-19.25 184.25,-19.25 184.25,0 255.75,0 255.75,-19.25"/>
<text text-anchor="middle" x="220" y="-5.75" font-family="Helvetica,sans-Serif" font-size="10.00">initializer_list</text>
</a>
</g>
</g>
<!-- Node12&#45;&gt;Node13 -->
<g id="edge13_Node000012_Node000013" class="edge">
<title>Node12&#45;&gt;Node13</title>
<g id="a_edge13_Node000012_Node000013"><a xlink:title=" ">
<path fill="none" stroke="#63b8ff" d="M206.64,-55.08C208.64,-48.42 211.48,-38.99 214.02,-30.53"/>
<polygon fill="#63b8ff" stroke="#63b8ff" points="217.34,-31.64 216.86,-21.06 210.64,-29.63 217.34,-31.64"/>
</a>
</g>
</g>
<!-- Node14 -->
<g id="Node000014" class="node">
<title>Node14</title>
<g id="a_Node000014"><a xlink:title=" ">
<polygon fill="#e0e0e0" stroke="#999999" points="34,-19.25 0,-19.25 0,0 34,0 34,-19.25"/>
<text text-anchor="middle" x="17" y="-5.75" font-family="Helvetica,sans-Serif" font-size="10.00">new</text>
</a>
</g>
</g>
<!-- Node12&#45;&gt;Node14 -->
<g id="edge14_Node000012_Node000014" class="edge">
<title>Node12&#45;&gt;Node14</title>
<g id="a_edge14_Node000012_Node000014"><a xlink:title=" ">
<path fill="none" stroke="#63b8ff" d="M169.31,-54.8C138.9,-46.72 93.28,-34.32 45.24,-19.82"/>
<polygon fill="#63b8ff" stroke="#63b8ff" points="46.34,-16.5 35.75,-16.94 44.3,-23.2 46.34,-16.5"/>
</a>
</g>
</g>
<!-- Node15 -->
<g id="Node000015" class="node">
<title>Node15</title>
<g id="a_Node000015"><a xlink:title=" ">
<polygon fill="#e0e0e0" stroke="#999999" points="110,-19.25 52,-19.25 52,0 110,0 110,-19.25"/>
<text text-anchor="middle" x="81" y="-5.75" font-family="Helvetica,sans-Serif" font-size="10.00">stdexcept</text>
</a>
</g>
</g>
<!-- Node12&#45;&gt;Node15 -->
<g id="edge15_Node000012_Node000015" class="edge">
<title>Node12&#45;&gt;Node15</title>
<g id="a_edge15_Node000012_Node000015"><a xlink:title=" ">
<path fill="none" stroke="#63b8ff" d="M183.13,-54.84C163.7,-46.43 134.46,-33.77 112.24,-24.15"/>
<polygon fill="#63b8ff" stroke="#63b8ff" points="113.92,-21.06 103.36,-20.3 111.14,-27.49 113.92,-21.06"/>
</a>
</g>
</g>
<!-- Node16 -->
<g id="Node000016" class="node">
<title>Node16</title>
<g id="a_Node000016"><a xlink:title=" ">
<polygon fill="#e0e0e0" stroke="#999999" points="334.5,-19.25 273.5,-19.25 273.5,0 334.5,0 334.5,-19.25"/>
<text text-anchor="middle" x="304" y="-5.75" font-family="Helvetica,sans-Serif" font-size="10.00">type_traits</text>
</a>
</g>
</g>
<!-- Node12&#45;&gt;Node16 -->
<g id="edge16_Node000012_Node000016" class="edge">
<title>Node12&#45;&gt;Node16</title>
<g id="a_edge16_Node000012_Node000016"><a xlink:title=" ">
<path fill="none" stroke="#63b8ff" d="M220.96,-54.84C236.26,-46.69 259.03,-34.57 276.86,-25.08"/>
<polygon fill="#63b8ff" stroke="#63b8ff" points="278.44,-28.2 285.62,-20.41 275.15,-22.02 278.44,-28.2"/>
</a>
</g>
</g>
<!-- Node17 -->
<g id="Node000017" class="node">
<title>Node17</title>
<g id="a_Node000017"><a xlink:title=" ">
<polygon fill="#e0e0e0" stroke="#999999" points="166.25,-19.25 127.75,-19.25 127.75,0 166.25,0 166.25,-19.25"/>
<text text-anchor="middle" x="147" y="-5.75" font-family="Helvetica,sans-Serif" font-size="10.00">utility</text>
</a>
</g>
</g>
<!-- Node12&#45;&gt;Node17 -->
<g id="edge17_Node000012_Node000017" class="edge">
<title>Node12&#45;&gt;Node17</title>
<g id="a_edge17_Node000012_Node000017"><a xlink:title=" ">
<path fill="none" stroke="#63b8ff" d="M194.33,-54.84C186.26,-47.3 174.53,-36.35 164.78,-27.23"/>
<polygon fill="#63b8ff" stroke="#63b8ff" points="167.33,-24.83 157.63,-20.56 162.55,-29.94 167.33,-24.83"/>
</a>
</g>
</g>
<!-- Node18&#45;&gt;Node4 -->
<g id="edge20_Node000018_Node000004" class="edge">
<title>Node18&#45;&gt;Node4</title>
<g id="a_edge20_Node000018_Node000004"><a xlink:title=" ">
<path fill="none" stroke="#63b8ff" d="M303.47,-110.07C310.27,-96.92 324.22,-72.25 341,-55.25 352.5,-43.6 367.48,-33.18 380.25,-25.35"/>
<polygon fill="#63b8ff" stroke="#63b8ff" points="381.78,-28.51 388.62,-20.42 378.23,-22.48 381.78,-28.51"/>
</a>
</g>
</g>
<!-- Node18&#45;&gt;Node12 -->
<g id="edge19_Node000018_Node000012" class="edge">
<title>Node18&#45;&gt;Node12</title>
<g id="a_edge19_Node000018_Node000012"><a xlink:title=" ">
<path fill="none" stroke="#63b8ff" d="M282.88,-110.09C268.42,-101.98 246.92,-89.93 230.02,-80.46"/>
<polygon fill="#63b8ff" stroke="#63b8ff" points="231.95,-77.53 221.51,-75.69 228.53,-83.64 231.95,-77.53"/>
</a>
</g>
</g>
<!-- Node18&#45;&gt;Node16 -->
<g id="edge21_Node000018_Node000016" class="edge">
<title>Node18&#45;&gt;Node16</title>
<g id="a_edge21_Node000018_Node000016"><a xlink:title=" ">
<path fill="none" stroke="#63b8ff" d="M299.41,-110.25C300.2,-93 301.97,-54.58 303.07,-30.81"/>
<polygon fill="#63b8ff" stroke="#63b8ff" points="306.55,-31.29 303.52,-21.14 299.56,-30.97 306.55,-31.29"/>
</a>
</g>
</g>
<!-- Node18&#45;&gt;Node19 -->
<g id="edge22_Node000018_Node000019" class="edge">
<title>Node18&#45;&gt;Node19</title>
<g id="a_edge22_Node000018_Node000019"><a xlink:title=" ">
<path fill="none" stroke="#63b8ff" d="M311.38,-110.09C322.15,-102.24 337.97,-90.7 350.75,-81.37"/>
<polygon fill="#63b8ff" stroke="#63b8ff" points="352.56,-84.39 358.58,-75.67 348.44,-78.73 352.56,-84.39"/>
</a>
</g>
</g>
</g>
</svg>

<g id="navigator" transform="translate(0 0)" fill="#404254">
  <rect fill="#f2f5e9" fill-opacity="0.5" stroke="#606060" stroke-width=".5" x="0" y="0" width="60" height="60"/>
  <use id="zoomplus" xlink:href="#zoomPlus" x="17" y="9" onmousedown="handleZoom(evt,'in')"/>
  <use id="zoomminus" xlink:href="#zoomMin" x="42" y="9" onmousedown="handleZoom(evt,'out')"/>
  <use id="reset" xlink:href="#resetDef" x="30" y="36" onmousedown="handleReset()"/>
   <use id="arrowup" xlink:href="#arrowUp" x="0" y="0" onmousedown="handlePan(0,-1)"/>
  <use id="arrowright" xlink:href="#arrowRight" x="0" y="0" onmousedown="handlePan(1,0)"/>
  <use id="arrowdown" xlink:href="#arrowDown" x="0" y="0" onmousedown="handlePan(0,1)"/>
  <use id="arrowleft" xlink:href="#arrowLeft" x="0" y="0" onmousedown="handlePan(-1,0)"/>
</g>
<svg viewBox="0 0 15 15" width="100%" height="30px" preserveAspectRatio="xMaxYMin meet">
 <g id="arrow_out" transform="scale(0.3 0.3)">
  <a xlink:href="packet_8h__incl_org.svg" target="_base">
   <rect id="button" ry="5" rx="5" y="6" x="6" height="38" width="38"
        fill="#f2f5e9" fill-opacity="0.5" stroke="#606060" stroke-width="1.0"/>
   <path id="arrow"
     d="M 11.500037,31.436501 C 11.940474,20.09759 22.043105,11.32322 32.158766,21.979434 L 37.068811,17.246167 C 37.068811,17.246167 37.088388,32 37.088388,32 L 22.160133,31.978069 C 22.160133,31.978069 26.997745,27.140456 26.997745,27.140456 C 18.528582,18.264221 13.291696,25.230495 11.500037,31.436501 z"
     style="fill:#404040;"/>
  </a>
 </g>
</svg>

<style type='text/css'>
<![CDATA[
[data-mouse-over-selected='false'] { opacity: 0.7; }
[data-mouse-over-selected='true']  { opacity: 1.0; }
]]>
</style>
<script type="application/ecmascript"><![CDATA[
document.addEventListener('DOMContentLoaded', (event) => {
  highlightEdges();
  highlightAdjacentNodes();
});
]]></script>
</svg>
