<?xml version="1.0" encoding="UTF-8" standalone="no"?>
<!DOCTYPE svg PUBLIC "-//W3C//DTD SVG 1.1//EN"
 "http://www.w3.org/Graphics/SVG/1.1/DTD/svg11.dtd">
<!-- Generated by graphviz version 12.2.0 (20241103.1931)
 -->
<!-- Title: bcnp/packet.cpp Pages: 1 -->
<svg width="1005pt" height="248pt"
 viewBox="0.00 0.00 1004.88 248.25" xmlns="http://www.w3.org/2000/svg" xmlns:xlink="http://www.w3.org/1999/xlink">
<g id="graph0" class="graph" transform="scale(1 1) rotate(0) translate(4 244.25)">
<title>bcnp/packet.cpp</title>
<!-- Node1 -->
<g id="Node000001" class="node">
<title>Node1</title>
<g id="a_Node000001"><a xlink:title="Implementation of BCNP packet encoding and decoding functions.">
<polygon fill="#999999" stroke="#666666" points="899.62,-240.25 812.38,-240.25 812.38,-221 899.62,-221 899.62,-240.25"/>
<text text-anchor="middle" x="856" y="-226.75" font-family="Helvetica,sans-Serif" font-size="10.00">bcnp/packet.cpp</text>
</a>
</g>
</g>
<!-- Node2 -->
<g id="Node000002" class="node">
<title>Node2</title>
<g id="a_Node000002"><a xlink:href="packet_8h.html" target="_top" xlink:title="BCNP packet structures, encoding, and decoding utilities.">
<polygon fill="white" stroke="#666666" points="480.38,-185 403.62,-185 403.62,-165.75 480.38,-165.75 480.38,-185"/>
<text text-anchor="middle" x="442" y="-171.5" font-family="Helvetica,sans-Serif" font-size="10.00">bcnp/packet.h</text>
</a>
</g>
</g>
<!-- Node1&#45;&gt;Node2 -->
<g id="edge1_Node000001_Node000002" class="edge">
<title>Node1&#45;&gt;Node2</title>
<g id="a_edge1_Node000001_Node000002"><a xlink:title=" ">
<path fill="none" stroke="#63b8ff" d="M812.09,-223.98C734.37,-213.98 573.15,-193.24 491.57,-182.75"/>
<polygon fill="#63b8ff" stroke="#63b8ff" points="492.47,-179.34 482.11,-181.53 491.58,-186.28 492.47,-179.34"/>
</a>
</g>
</g>
<!-- Node4 -->
<g id="Node000004" class="node">
<title>Node4</title>
<g id="a_Node000004"><a xlink:title=" ">
<polygon fill="#e0e0e0" stroke="#999999" points="797.5,-74.5 760.5,-74.5 760.5,-55.25 797.5,-55.25 797.5,-74.5"/>
<text text-anchor="middle" x="779" y="-61" font-family="Helvetica,sans-Serif" font-size="10.00">array</text>
</a>
</g>
</g>
<!-- Node1&#45;&gt;Node4 -->
<g id="edge29_Node000001_Node000004" class="edge">
<title>Node1&#45;&gt;Node4</title>
<g id="a_edge29_Node000001_Node000004"><a xlink:title=" ">
<path fill="none" stroke="#63b8ff" d="M851.86,-220.82C839.8,-195.17 804.48,-120.05 787.85,-84.69"/>
<polygon fill="#63b8ff" stroke="#63b8ff" points="791.23,-83.65 783.8,-76.09 784.89,-86.63 791.23,-83.65"/>
</a>
</g>
</g>
<!-- Node7 -->
<g id="Node000007" class="node">
<title>Node7</title>
<g id="a_Node000007"><a xlink:title=" ">
<polygon fill="#e0e0e0" stroke="#999999" points="858.5,-74.5 815.5,-74.5 815.5,-55.25 858.5,-55.25 858.5,-74.5"/>
<text text-anchor="middle" x="837" y="-61" font-family="Helvetica,sans-Serif" font-size="10.00">cmath</text>
</a>
</g>
</g>
<!-- Node1&#45;&gt;Node7 -->
<g id="edge30_Node000001_Node000007" class="edge">
<title>Node1&#45;&gt;Node7</title>
<g id="a_edge30_Node000001_Node000007"><a xlink:title=" ">
<path fill="none" stroke="#63b8ff" d="M854.98,-220.82C852.04,-195.5 843.51,-122 839.35,-86.09"/>
<polygon fill="#63b8ff" stroke="#63b8ff" points="842.83,-85.76 838.2,-76.23 835.88,-86.56 842.83,-85.76"/>
</a>
</g>
</g>
<!-- Node8 -->
<g id="Node000008" class="node">
<title>Node8</title>
<g id="a_Node000008"><a xlink:title=" ">
<polygon fill="#e0e0e0" stroke="#999999" points="921.62,-74.5 876.38,-74.5 876.38,-55.25 921.62,-55.25 921.62,-74.5"/>
<text text-anchor="middle" x="899" y="-61" font-family="Helvetica,sans-Serif" font-size="10.00">cstring</text>
</a>
</g>
</g>
<!-- Node1&#45;&gt;Node8 -->
<g id="edge31_Node000001_Node000008" class="edge">
<title>Node1&#45;&gt;Node8</title>
<g id="a_edge31_Node000001_Node000008"><a xlink:title=" ">
<path fill="none" stroke="#63b8ff" d="M858.31,-220.82C864.99,-195.39 884.43,-121.35 893.81,-85.62"/>
<polygon fill="#63b8ff" stroke="#63b8ff" points="897.14,-86.75 896.29,-76.19 890.37,-84.97 897.14,-86.75"/>
</a>
</g>
</g>
<!-- Node10 -->
<g id="Node000010" class="node">
<title>Node10</title>
<g id="a_Node000010"><a xlink:title=" ">
<polygon fill="#e0e0e0" stroke="#999999" points="978.62,-74.5 939.38,-74.5 939.38,-55.25 978.62,-55.25 978.62,-74.5"/>
<text text-anchor="middle" x="959" y="-61" font-family="Helvetica,sans-Serif" font-size="10.00">limits</text>
</a>
</g>
</g>
<!-- Node1&#45;&gt;Node10 -->
<g id="edge32_Node000001_Node000010" class="edge">
<title>Node1&#45;&gt;Node10</title>
<g id="a_edge32_Node000001_Node000010"><a xlink:title=" ">
<path fill="none" stroke="#63b8ff" d="M861.54,-220.82C877.75,-195.05 925.33,-119.4 947.45,-84.24"/>
<polygon fill="#63b8ff" stroke="#63b8ff" points="950.27,-86.33 952.63,-76 944.34,-82.6 950.27,-86.33"/>
</a>
</g>
</g>
<!-- Node21 -->
<g id="Node000021" class="node">
<title>Node21</title>
<g id="a_Node000021"><a xlink:title=" ">
<polygon fill="#e0e0e0" stroke="#999999" points="996.88,-185 941.12,-185 941.12,-165.75 996.88,-165.75 996.88,-185"/>
<text text-anchor="middle" x="969" y="-171.5" font-family="Helvetica,sans-Serif" font-size="10.00">algorithm</text>
</a>
</g>
</g>
<!-- Node1&#45;&gt;Node21 -->
<g id="edge28_Node000001_Node000021" class="edge">
<title>Node1&#45;&gt;Node21</title>
<g id="a_edge28_Node000001_Node000021"><a xlink:title=" ">
<path fill="none" stroke="#63b8ff" d="M875.17,-220.59C892.78,-212.29 919.16,-199.86 939.46,-190.29"/>
<polygon fill="#63b8ff" stroke="#63b8ff" points="940.81,-193.53 948.37,-186.1 937.83,-187.19 940.81,-193.53"/>
</a>
</g>
</g>
<!-- Node3 -->
<g id="Node000003" class="node">
<title>Node3</title>
<g id="a_Node000003"><a xlink:href="message__types_8h.html" target="_top" xlink:title=" ">
<polygon fill="white" stroke="#666666" points="741.88,-129.75 626.12,-129.75 626.12,-110.5 741.88,-110.5 741.88,-129.75"/>
<text text-anchor="middle" x="684" y="-116.25" font-family="Helvetica,sans-Serif" font-size="10.00">bcnp/message_types.h</text>
</a>
</g>
</g>
<!-- Node2&#45;&gt;Node3 -->
<g id="edge2_Node000002_Node000003" class="edge">
<title>Node2&#45;&gt;Node3</title>
<g id="a_edge2_Node000002_Node000003"><a xlink:title=" ">
<path fill="none" stroke="#63b8ff" d="M480.61,-165.88C521.46,-156.89 586.15,-142.66 631.58,-132.66"/>
<polygon fill="#63b8ff" stroke="#63b8ff" points="632.2,-136.11 641.21,-130.54 630.69,-129.27 632.2,-136.11"/>
</a>
</g>
</g>
<!-- Node5 -->
<g id="Node000005" class="node">
<title>Node5</title>
<g id="a_Node000005"><a xlink:title=" ">
<polygon fill="#e0e0e0" stroke="#999999" points="431.12,-19.25 382.88,-19.25 382.88,0 431.12,0 431.12,-19.25"/>
<text text-anchor="middle" x="407" y="-5.75" font-family="Helvetica,sans-Serif" font-size="10.00">cstddef</text>
</a>
</g>
</g>
<!-- Node2&#45;&gt;Node5 -->
<g id="edge24_Node000002_Node000005" class="edge">
<title>Node2&#45;&gt;Node5</title>
<g id="a_edge24_Node000002_Node000005"><a xlink:title=" ">
<path fill="none" stroke="#63b8ff" d="M440.12,-165.57C434.68,-140.14 418.86,-66.1 411.22,-30.37"/>
<polygon fill="#63b8ff" stroke="#63b8ff" points="414.72,-30 409.21,-20.95 407.87,-31.46 414.72,-30"/>
</a>
</g>
</g>
<!-- Node6 -->
<g id="Node000006" class="node">
<title>Node6</title>
<g id="a_Node000006"><a xlink:title=" ">
<polygon fill="#e0e0e0" stroke="#999999" points="495.62,-74.5 450.38,-74.5 450.38,-55.25 495.62,-55.25 495.62,-74.5"/>
<text text-anchor="middle" x="473" y="-61" font-family="Helvetica,sans-Serif" font-size="10.00">cstdint</text>
</a>
</g>
</g>
<!-- Node2&#45;&gt;Node6 -->
<g id="edge25_Node000002_Node000006" class="edge">
<title>Node2&#45;&gt;Node6</title>
<g id="a_edge25_Node000002_Node000006"><a xlink:title=" ">
<path fill="none" stroke="#63b8ff" d="M444.54,-165.5C449.49,-148.17 460.54,-109.48 467.33,-85.74"/>
<polygon fill="#63b8ff" stroke="#63b8ff" points="470.63,-86.91 470.01,-76.33 463.9,-84.99 470.63,-86.91"/>
</a>
</g>
</g>
<!-- Node11 -->
<g id="Node000011" class="node">
<title>Node11</title>
<g id="a_Node000011"><a xlink:title=" ">
<polygon fill="#e0e0e0" stroke="#999999" points="563.88,-74.5 514.12,-74.5 514.12,-55.25 563.88,-55.25 563.88,-74.5"/>
<text text-anchor="middle" x="539" y="-61" font-family="Helvetica,sans-Serif" font-size="10.00">optional</text>
</a>
</g>
</g>
<!-- Node2&#45;&gt;Node11 -->
<g id="edge26_Node000002_Node000011" class="edge">
<title>Node2&#45;&gt;Node11</title>
<g id="a_edge26_Node000002_Node000011"><a xlink:title=" ">
<path fill="none" stroke="#63b8ff" d="M449.94,-165.5C466,-147.53 502.58,-106.61 523.52,-83.19"/>
<polygon fill="#63b8ff" stroke="#63b8ff" points="525.89,-85.79 529.94,-76.01 520.67,-81.13 525.89,-85.79"/>
</a>
</g>
</g>
<!-- Node13 -->
<g id="Node000013" class="node">
<title>Node13</title>
<g id="a_Node000013"><a xlink:href="static__vector_8h.html" target="_top" xlink:title="Fixed&#45;capacity vector with stack allocation (no heap).">
<polygon fill="white" stroke="#666666" points="255.88,-74.5 152.12,-74.5 152.12,-55.25 255.88,-55.25 255.88,-74.5"/>
<text text-anchor="middle" x="204" y="-61" font-family="Helvetica,sans-Serif" font-size="10.00">bcnp/static_vector.h</text>
</a>
</g>
</g>
<!-- Node2&#45;&gt;Node13 -->
<g id="edge12_Node000002_Node000013" class="edge">
<title>Node2&#45;&gt;Node13</title>
<g id="a_edge12_Node000002_Node000013"><a xlink:title=" ">
<path fill="none" stroke="#63b8ff" d="M403.23,-170.29C350.23,-164.01 258.8,-150.51 233,-129.75 219.5,-118.89 212.04,-100.36 208.09,-86.05"/>
<polygon fill="#63b8ff" stroke="#63b8ff" points="211.5,-85.26 205.8,-76.33 204.68,-86.87 211.5,-85.26"/>
</a>
</g>
</g>
<!-- Node19 -->
<g id="Node000019" class="node">
<title>Node19</title>
<g id="a_Node000019"><a xlink:href="packet__storage_8h.html" target="_top" xlink:title=" ">
<polygon fill="white" stroke="#666666" points="356.12,-129.75 241.88,-129.75 241.88,-110.5 356.12,-110.5 356.12,-129.75"/>
<text text-anchor="middle" x="299" y="-116.25" font-family="Helvetica,sans-Serif" font-size="10.00">bcnp/packet_storage.h</text>
</a>
</g>
</g>
<!-- Node2&#45;&gt;Node19 -->
<g id="edge19_Node000002_Node000019" class="edge">
<title>Node2&#45;&gt;Node19</title>
<g id="a_edge19_Node000002_Node000019"><a xlink:title=" ">
<path fill="none" stroke="#63b8ff" d="M417.74,-165.34C394.73,-156.77 359.91,-143.81 333.92,-134.13"/>
<polygon fill="#63b8ff" stroke="#63b8ff" points="335.39,-130.94 324.8,-130.73 332.95,-137.5 335.39,-130.94"/>
</a>
</g>
</g>
<!-- Node20 -->
<g id="Node000020" class="node">
<title>Node20</title>
<g id="a_Node000020"><a xlink:title=" ">
<polygon fill="#e0e0e0" stroke="#999999" points="393.5,-74.5 350.5,-74.5 350.5,-55.25 393.5,-55.25 393.5,-74.5"/>
<text text-anchor="middle" x="372" y="-61" font-family="Helvetica,sans-Serif" font-size="10.00">vector</text>
</a>
</g>
</g>
<!-- Node2&#45;&gt;Node20 -->
<g id="edge27_Node000002_Node000020" class="edge">
<title>Node2&#45;&gt;Node20</title>
<g id="a_edge27_Node000002_Node000020"><a xlink:title=" ">
<path fill="none" stroke="#63b8ff" d="M434.59,-165.41C427.43,-156.59 416.46,-142.6 408,-129.75 398.36,-115.11 388.68,-97.74 381.79,-84.82"/>
<polygon fill="#63b8ff" stroke="#63b8ff" points="384.97,-83.35 377.22,-76.12 378.77,-86.6 384.97,-83.35"/>
</a>
</g>
</g>
<!-- Node3&#45;&gt;Node4 -->
<g id="edge3_Node000003_Node000004" class="edge">
<title>Node3&#45;&gt;Node4</title>
<g id="a_edge3_Node000003_Node000004"><a xlink:title=" ">
<path fill="none" stroke="#63b8ff" d="M700.12,-110.09C714.58,-101.98 736.08,-89.93 752.98,-80.46"/>
<polygon fill="#63b8ff" stroke="#63b8ff" points="754.47,-83.64 761.49,-75.69 751.05,-77.53 754.47,-83.64"/>
</a>
</g>
</g>
<!-- Node3&#45;&gt;Node5 -->
<g id="edge4_Node000003_Node000005" class="edge">
<title>Node3&#45;&gt;Node5</title>
<g id="a_edge4_Node000003_Node000005"><a xlink:title=" ">
<path fill="none" stroke="#63b8ff" d="M693.5,-110.4C706.72,-97.23 727.5,-72.02 713,-55.25 678.4,-15.24 515.8,-10.38 442.72,-10.27"/>
<polygon fill="#63b8ff" stroke="#63b8ff" points="442.89,-6.77 432.9,-10.29 442.91,-13.77 442.89,-6.77"/>
</a>
</g>
</g>
<!-- Node3&#45;&gt;Node6 -->
<g id="edge5_Node000003_Node000006" class="edge">
<title>Node3&#45;&gt;Node6</title>
<g id="a_edge5_Node000003_Node000006"><a xlink:title=" ">
<path fill="none" stroke="#63b8ff" d="M646.58,-110.01C612.59,-101.69 560.81,-88.89 506.87,-74.95"/>
<polygon fill="#63b8ff" stroke="#63b8ff" points="508.08,-71.65 497.52,-72.53 506.33,-78.42 508.08,-71.65"/>
</a>
</g>
</g>
<!-- Node3&#45;&gt;Node7 -->
<g id="edge6_Node000003_Node000007" class="edge">
<title>Node3&#45;&gt;Node7</title>
<g id="a_edge6_Node000003_Node000007"><a xlink:title=" ">
<path fill="none" stroke="#63b8ff" d="M709.95,-110.09C736.15,-100.98 776.65,-86.88 804.86,-77.06"/>
<polygon fill="#63b8ff" stroke="#63b8ff" points="805.65,-80.49 813.95,-73.9 803.35,-73.88 805.65,-80.49"/>
</a>
</g>
</g>
<!-- Node3&#45;&gt;Node8 -->
<g id="edge7_Node000003_Node000008" class="edge">
<title>Node3&#45;&gt;Node8</title>
<g id="a_edge7_Node000003_Node000008"><a xlink:title=" ">
<path fill="none" stroke="#63b8ff" d="M723.22,-110.01C758.2,-101.8 811.09,-89.16 865.17,-75.18"/>
<polygon fill="#63b8ff" stroke="#63b8ff" points="865.74,-78.65 874.54,-72.75 863.98,-71.87 865.74,-78.65"/>
</a>
</g>
</g>
<!-- Node9 -->
<g id="Node000009" class="node">
<title>Node9</title>
<g id="a_Node000009"><a xlink:title=" ">
<polygon fill="#e0e0e0" stroke="#999999" points="704,-74.5 646,-74.5 646,-55.25 704,-55.25 704,-74.5"/>
<text text-anchor="middle" x="675" y="-61" font-family="Helvetica,sans-Serif" font-size="10.00">functional</text>
</a>
</g>
</g>
<!-- Node3&#45;&gt;Node9 -->
<g id="edge8_Node000003_Node000009" class="edge">
<title>Node3&#45;&gt;Node9</title>
<g id="a_edge8_Node000003_Node000009"><a xlink:title=" ">
<path fill="none" stroke="#63b8ff" d="M682.51,-110.33C681.4,-103.74 679.83,-94.46 678.41,-86.07"/>
<polygon fill="#63b8ff" stroke="#63b8ff" points="681.89,-85.63 676.77,-76.35 674.99,-86.8 681.89,-85.63"/>
</a>
</g>
</g>
<!-- Node3&#45;&gt;Node10 -->
<g id="edge9_Node000003_Node000010" class="edge">
<title>Node3&#45;&gt;Node10</title>
<g id="a_edge9_Node000003_Node000010"><a xlink:title=" ">
<path fill="none" stroke="#63b8ff" d="M742.31,-110.62C790.06,-103.19 859.57,-91.34 927.93,-75.04"/>
<polygon fill="#63b8ff" stroke="#63b8ff" points="928.53,-78.5 937.42,-72.74 926.88,-71.69 928.53,-78.5"/>
</a>
</g>
</g>
<!-- Node3&#45;&gt;Node11 -->
<g id="edge10_Node000003_Node000011" class="edge">
<title>Node3&#45;&gt;Node11</title>
<g id="a_edge10_Node000003_Node000011"><a xlink:title=" ">
<path fill="none" stroke="#63b8ff" d="M659.4,-110.09C636.07,-101.52 600.76,-88.56 574.4,-78.88"/>
<polygon fill="#63b8ff" stroke="#63b8ff" points="575.73,-75.64 565.14,-75.47 573.32,-82.21 575.73,-75.64"/>
</a>
</g>
</g>
<!-- Node12 -->
<g id="Node000012" class="node">
<title>Node12</title>
<g id="a_Node000012"><a xlink:title=" ">
<polygon fill="#e0e0e0" stroke="#999999" points="627.62,-74.5 582.38,-74.5 582.38,-55.25 627.62,-55.25 627.62,-74.5"/>
<text text-anchor="middle" x="605" y="-61" font-family="Helvetica,sans-Serif" font-size="10.00">variant</text>
</a>
</g>
</g>
<!-- Node3&#45;&gt;Node12 -->
<g id="edge11_Node000003_Node000012" class="edge">
<title>Node3&#45;&gt;Node12</title>
<g id="a_edge11_Node000003_Node000012"><a xlink:title=" ">
<path fill="none" stroke="#63b8ff" d="M670.6,-110.09C658.91,-102.21 641.7,-90.61 627.84,-81.27"/>
<polygon fill="#63b8ff" stroke="#63b8ff" points="629.97,-78.49 619.72,-75.8 626.06,-84.29 629.97,-78.49"/>
</a>
</g>
</g>
<!-- Node13&#45;&gt;Node5 -->
<g id="edge13_Node000013_Node000005" class="edge">
<title>Node13&#45;&gt;Node5</title>
<g id="a_edge13_Node000013_Node000005"><a xlink:title=" ">
<path fill="none" stroke="#63b8ff" d="M238.44,-54.84C275.55,-45.11 334.3,-29.69 371.73,-19.88"/>
<polygon fill="#63b8ff" stroke="#63b8ff" points="372.37,-23.33 381.15,-17.4 370.59,-16.56 372.37,-23.33"/>
</a>
</g>
</g>
<!-- Node14 -->
<g id="Node000014" class="node">
<title>Node14</title>
<g id="a_Node000014"><a xlink:title=" ">
<polygon fill="#e0e0e0" stroke="#999999" points="255.75,-19.25 184.25,-19.25 184.25,0 255.75,0 255.75,-19.25"/>
<text text-anchor="middle" x="220" y="-5.75" font-family="Helvetica,sans-Serif" font-size="10.00">initializer_list</text>
</a>
</g>
</g>
<!-- Node13&#45;&gt;Node14 -->
<g id="edge14_Node000013_Node000014" class="edge">
<title>Node13&#45;&gt;Node14</title>
<g id="a_edge14_Node000013_Node000014"><a xlink:title=" ">
<path fill="none" stroke="#63b8ff" d="M206.64,-55.08C208.64,-48.42 211.48,-38.99 214.02,-30.53"/>
<polygon fill="#63b8ff" stroke="#63b8ff" points="217.34,-31.64 216.86,-21.06 210.64,-29.63 217.34,-31.64"/>
</a>
</g>
</g>
<!-- Node15 -->
<g id="Node000015" class="node">
<title>Node15</title>
<g id="a_Node000015"><a xlink:title=" ">
<polygon fill="#e0e0e0" stroke="#999999" points="34,-19.25 0,-19.25 0,0 34,0 34,-19.25"/>
<text text-anchor="middle" x="17" y="-5.75" font-family="Helvetica,sans-Serif" font-size="10.00">new</text>
</a>
</g>
</g>
<!-- Node13&#45;&gt;Node15 -->
<g id="edge15_Node000013_Node000015" class="edge">
<title>Node13&#45;&gt;Node15</title>
<g id="a_edge15_Node000013_Node000015"><a xlink:title=" ">
<path fill="none" stroke="#63b8ff" d="M169.31,-54.8C138.9,-46.72 93.28,-34.32 45.24,-19.82"/>
<polygon fill="#63b8ff" stroke="#63b8ff" points="46.34,-16.5 35.75,-16.94 44.3,-23.2 46.34,-16.5"/>
</a>
</g>
</g>
<!-- Node16 -->
<g id="Node000016" class="node">
<title>Node16</title>
<g id="a_Node000016"><a xlink:title=" ">
<polygon fill="#e0e0e0" stroke="#999999" points="110,-19.25 52,-19.25 52,0 110,0 110,-19.25"/>
<text text-anchor="middle" x="81" y="-5.75" font-family="Helvetica,sans-Serif" font-size="10.00">stdexcept</text>
</a>
</g>
</g>
<!-- Node13&#45;&gt;Node16 -->
<g id="edge16_Node000013_Node000016" class="edge">
<title>Node13&#45;&gt;Node16</title>
<g id="a_edge16_Node000013_Node000016"><a xlink:title=" ">
<path fill="none" stroke="#63b8ff" d="M183.13,-54.84C163.7,-46.43 134.46,-33.77 112.24,-24.15"/>
<polygon fill="#63b8ff" stroke="#63b8ff" points="113.92,-21.06 103.36,-20.3 111.14,-27.49 113.92,-21.06"/>
</a>
</g>
</g>
<!-- Node17 -->
<g id="Node000017" class="node">
<title>Node17</title>
<g id="a_Node000017"><a xlink:title=" ">
<polygon fill="#e0e0e0" stroke="#999999" points="334.5,-19.25 273.5,-19.25 273.5,0 334.5,0 334.5,-19.25"/>
<text text-anchor="middle" x="304" y="-5.75" font-family="Helvetica,sans-Serif" font-size="10.00">type_traits</text>
</a>
</g>
</g>
<!-- Node13&#45;&gt;Node17 -->
<g id="edge17_Node000013_Node000017" class="edge">
<title>Node13&#45;&gt;Node17</title>
<g id="a_edge17_Node000013_Node000017"><a xlink:title=" ">
<path fill="none" stroke="#63b8ff" d="M220.96,-54.84C236.26,-46.69 259.03,-34.57 276.86,-25.08"/>
<polygon fill="#63b8ff" stroke="#63b8ff" points="278.44,-28.2 285.62,-20.41 275.15,-22.02 278.44,-28.2"/>
</a>
</g>
</g>
<!-- Node18 -->
<g id="Node000018" class="node">
<title>Node18</title>
<g id="a_Node000018"><a xlink:title=" ">
<polygon fill="#e0e0e0" stroke="#999999" points="166.25,-19.25 127.75,-19.25 127.75,0 166.25,0 166.25,-19.25"/>
<text text-anchor="middle" x="147" y="-5.75" font-family="Helvetica,sans-Serif" font-size="10.00">utility</text>
</a>
</g>
</g>
<!-- Node13&#45;&gt;Node18 -->
<g id="edge18_Node000013_Node000018" class="edge">
<title>Node13&#45;&gt;Node18</title>
<g id="a_edge18_Node000013_Node000018"><a xlink:title=" ">
<path fill="none" stroke="#63b8ff" d="M194.33,-54.84C186.26,-47.3 174.53,-36.35 164.78,-27.23"/>
<polygon fill="#63b8ff" stroke="#63b8ff" points="167.33,-24.83 157.63,-20.56 162.55,-29.94 167.33,-24.83"/>
</a>
</g>
</g>
<!-- Node19&#45;&gt;Node5 -->
<g id="edge21_Node000019_Node000005" class="edge">
<title>Node19&#45;&gt;Node5</title>
<g id="a_edge21_Node000019_Node000005"><a xlink:title=" ">
<path fill="none" stroke="#63b8ff" d="M303.64,-110.1C310.69,-96.98 325.06,-72.34 342,-55.25 353.4,-43.74 368.16,-33.34 380.72,-25.47"/>
<polygon fill="#63b8ff" stroke="#63b8ff" points="382.18,-28.68 388.93,-20.52 378.56,-22.69 382.18,-28.68"/>
</a>
</g>
</g>
<!-- Node19&#45;&gt;Node13 -->
<g id="edge20_Node000019_Node000013" class="edge">
<title>Node19&#45;&gt;Node13</title>
<g id="a_edge20_Node000019_Node000013"><a xlink:title=" ">
<path fill="none" stroke="#63b8ff" d="M282.88,-110.09C268.42,-101.98 246.92,-89.93 230.02,-80.46"/>
<polygon fill="#63b8ff" stroke="#63b8ff" points="231.95,-77.53 221.51,-75.69 228.53,-83.64 231.95,-77.53"/>
</a>
</g>
</g>
<!-- Node19&#45;&gt;Node17 -->
<g id="edge22_Node000019_Node000017" class="edge">
<title>Node19&#45;&gt;Node17</title>
<g id="a_edge22_Node000019_Node000017"><a xlink:title=" ">
<path fill="none" stroke="#63b8ff" d="M299.41,-110.25C300.2,-93 301.97,-54.58 303.07,-30.81"/>
<polygon fill="#63b8ff" stroke="#63b8ff" points="306.55,-31.29 303.52,-21.14 299.56,-30.97 306.55,-31.29"/>
</a>
</g>
</g>
<!-- Node19&#45;&gt;Node20 -->
<g id="edge23_Node000019_Node000020" class="edge">
<title>Node19&#45;&gt;Node20</title>
<g id="a_edge23_Node000019_Node000020"><a xlink:title=" ">
<path fill="none" stroke="#63b8ff" d="M311.38,-110.09C322.15,-102.24 337.97,-90.7 350.75,-81.37"/>
<polygon fill="#63b8ff" stroke="#63b8ff" points="352.56,-84.39 358.58,-75.67 348.44,-78.73 352.56,-84.39"/>
</a>
</g>
</g>
</g>
</svg>
