<?xml version="1.0" encoding="UTF-8" standalone="no"?>
<!DOCTYPE svg PUBLIC "-//W3C//DTD SVG 1.1//EN"
 "http://www.w3.org/Graphics/SVG/1.1/DTD/svg11.dtd">
<!-- Generated by graphviz version 12.2.0 (20241103.1931)
 -->
<!-- Title: bcnp/packet_storage.h Pages: 1 -->
<svg width="796pt" height="349pt"
 viewBox="0.00 0.00 796.00 348.50" xmlns="http://www.w3.org/2000/svg" xmlns:xlink="http://www.w3.org/1999/xlink">
<g id="graph0" class="graph" transform="scale(1 1) rotate(0) translate(4 344.5)">
<title>bcnp/packet_storage.h</title>
<!-- Node1 -->
<g id="Node000001" class="node">
<title>Node1</title>
<g id="a_Node000001"><a xlink:title=" ">
<polygon fill="#999999" stroke="#666666" points="592.25,-340.5 478,-340.5 478,-321.25 592.25,-321.25 592.25,-340.5"/>
<text text-anchor="middle" x="535.12" y="-327" font-family="Helvetica,sans-Serif" font-size="10.00">bcnp/packet_storage.h</text>
</a>
</g>
</g>
<!-- Node2 -->
<g id="Node000002" class="node">
<title>Node2</title>
<g id="a_Node000002"><a xlink:href="packet_8h.html" target="_top" xlink:title="BCNP packet structures, encoding, and decoding utilities.">
<polygon fill="white" stroke="#666666" points="540.5,-285.25 463.75,-285.25 463.75,-266 540.5,-266 540.5,-285.25"/>
<text text-anchor="middle" x="502.12" y="-271.75" font-family="Helvetica,sans-Serif" font-size="10.00">bcnp/packet.h</text>
</a>
</g>
</g>
<!-- Node1&#45;&gt;Node2 -->
<g id="edge1_Node000001_Node000002" class="edge">
<title>Node1&#45;&gt;Node2</title>
<g id="a_edge1_Node000001_Node000002"><a xlink:title=" ">
<path fill="none" stroke="#63b8ff" d="M523.65,-311.37C518.25,-302.64 512.05,-292.64 507.69,-285.61"/>
<polygon fill="#63b8ff" stroke="#63b8ff" points="520.64,-313.14 528.88,-319.8 526.59,-309.45 520.64,-313.14"/>
</a>
</g>
</g>
<!-- Node13 -->
<g id="Node000013" class="node">
<title>Node13</title>
<g id="a_Node000013"><a xlink:href="telemetry__accumulator_8h.html" target="_top" xlink:title=" ">
<polygon fill="white" stroke="#666666" points="788,-224.38 642.25,-224.38 642.25,-205.12 788,-205.12 788,-224.38"/>
<text text-anchor="middle" x="715.12" y="-210.88" font-family="Helvetica,sans-Serif" font-size="10.00">bcnp/telemetry_accumulator.h</text>
</a>
</g>
</g>
<!-- Node1&#45;&gt;Node13 -->
<g id="edge17_Node000001_Node000013" class="edge">
<title>Node1&#45;&gt;Node13</title>
<g id="a_edge17_Node000001_Node000013"><a xlink:title=" ">
<path fill="none" stroke="#63b8ff" d="M558.5,-315.05C596.43,-291 670.24,-244.21 701.07,-224.66"/>
<polygon fill="#63b8ff" stroke="#63b8ff" points="557.1,-311.8 550.53,-320.11 560.85,-317.71 557.1,-311.8"/>
</a>
</g>
</g>
<!-- Node3 -->
<g id="Node000003" class="node">
<title>Node3</title>
<g id="a_Node000003"><a xlink:href="packet_8cpp.html" target="_top" xlink:title="Implementation of BCNP packet encoding and decoding functions.">
<polygon fill="white" stroke="#666666" points="302.75,-224.38 215.5,-224.38 215.5,-205.12 302.75,-205.12 302.75,-224.38"/>
<text text-anchor="middle" x="259.12" y="-210.88" font-family="Helvetica,sans-Serif" font-size="10.00">bcnp/packet.cpp</text>
</a>
</g>
</g>
<!-- Node2&#45;&gt;Node3 -->
<g id="edge2_Node000002_Node000003" class="edge">
<title>Node2&#45;&gt;Node3</title>
<g id="a_edge2_Node000002_Node000003"><a xlink:title=" ">
<path fill="none" stroke="#63b8ff" d="M453.14,-262.87C415.84,-253.9 363.24,-241.23 317.12,-230 310.27,-228.33 302.97,-226.54 295.94,-224.82"/>
<polygon fill="#63b8ff" stroke="#63b8ff" points="452.19,-266.24 462.73,-265.17 453.83,-259.43 452.19,-266.24"/>
</a>
</g>
</g>
<!-- Node4 -->
<g id="Node000004" class="node">
<title>Node4</title>
<g id="a_Node000004"><a xlink:href="spi__adapter_8h.html" target="_top" xlink:title="SPI transport adapter for BCNP (deprecated).">
<polygon fill="white" stroke="#666666" points="226,-157.88 128.25,-157.88 128.25,-138.62 226,-138.62 226,-157.88"/>
<text text-anchor="middle" x="177.12" y="-144.38" font-family="Helvetica,sans-Serif" font-size="10.00">bcnp/spi_adapter.h</text>
</a>
</g>
</g>
<!-- Node2&#45;&gt;Node4 -->
<g id="edge3_Node000002_Node000004" class="edge">
<title>Node2&#45;&gt;Node4</title>
<g id="a_edge3_Node000002_Node000004"><a xlink:title=" ">
<path fill="none" stroke="#63b8ff" d="M452.52,-265.22C421.87,-258.18 382.37,-246.83 350.12,-230 330.93,-219.98 330.96,-210.19 312.12,-199.5 279.39,-180.92 238.49,-166.82 210.33,-158.35"/>
<polygon fill="#63b8ff" stroke="#63b8ff" points="451.38,-268.55 461.9,-267.3 452.89,-261.72 451.38,-268.55"/>
</a>
</g>
</g>
<!-- Node6 -->
<g id="Node000006" class="node">
<title>Node6</title>
<g id="a_Node000006"><a xlink:href="stream__parser_8h.html" target="_top" xlink:title=" ">
<polygon fill="white" stroke="#666666" points="469,-224.38 359.25,-224.38 359.25,-205.12 469,-205.12 469,-224.38"/>
<text text-anchor="middle" x="414.12" y="-210.88" font-family="Helvetica,sans-Serif" font-size="10.00">bcnp/stream_parser.h</text>
</a>
</g>
</g>
<!-- Node2&#45;&gt;Node6 -->
<g id="edge5_Node000002_Node000006" class="edge">
<title>Node2&#45;&gt;Node6</title>
<g id="a_edge5_Node000002_Node000006"><a xlink:title=" ">
<path fill="none" stroke="#63b8ff" d="M479.33,-259.38C462.93,-248.4 441.36,-233.97 427.62,-224.78"/>
<polygon fill="#63b8ff" stroke="#63b8ff" points="477.24,-262.19 487.5,-264.84 481.14,-256.37 477.24,-262.19"/>
</a>
</g>
</g>
<!-- Node11 -->
<g id="Node000011" class="node">
<title>Node11</title>
<g id="a_Node000011"><a xlink:href="controller__driver_8cpp.html" target="_top" xlink:title=" ">
<polygon fill="white" stroke="#666666" points="517.62,-30.5 396.62,-30.5 396.62,0 517.62,0 517.62,-30.5"/>
<text text-anchor="start" x="404.62" y="-17" font-family="Helvetica,sans-Serif" font-size="10.00">bcnp/transport/controller</text>
<text text-anchor="middle" x="457.12" y="-5.75" font-family="Helvetica,sans-Serif" font-size="10.00">_driver.cpp</text>
</a>
</g>
</g>
<!-- Node2&#45;&gt;Node11 -->
<g id="edge14_Node000002_Node000011" class="edge">
<title>Node2&#45;&gt;Node11</title>
<g id="a_edge14_Node000002_Node000011"><a xlink:title=" ">
<path fill="none" stroke="#63b8ff" d="M502.83,-254.31C503.58,-216.51 502.6,-133.17 483.12,-66.5 479.38,-53.68 472.27,-40.3 466.44,-30.57"/>
<polygon fill="#63b8ff" stroke="#63b8ff" points="499.33,-254.07 502.56,-264.16 506.33,-254.26 499.33,-254.07"/>
</a>
</g>
</g>
<!-- Node2&#45;&gt;Node13 -->
<g id="edge13_Node000002_Node000013" class="edge">
<title>Node2&#45;&gt;Node13</title>
<g id="a_edge13_Node000002_Node000013"><a xlink:title=" ">
<path fill="none" stroke="#63b8ff" d="M545.83,-262.55C586.33,-251.35 645.67,-234.95 682.27,-224.83"/>
<polygon fill="#63b8ff" stroke="#63b8ff" points="545.1,-259.11 536.4,-265.15 546.97,-265.86 545.1,-259.11"/>
</a>
</g>
</g>
<!-- Node14 -->
<g id="Node000014" class="node">
<title>Node14</title>
<g id="a_Node000014"><a xlink:href="tcp__posix_8h.html" target="_top" xlink:title=" ">
<polygon fill="white" stroke="#666666" points="624.5,-230 529.75,-230 529.75,-199.5 624.5,-199.5 624.5,-230"/>
<text text-anchor="start" x="537.75" y="-216.5" font-family="Helvetica,sans-Serif" font-size="10.00">bcnp/transport/tcp</text>
<text text-anchor="middle" x="577.12" y="-205.25" font-family="Helvetica,sans-Serif" font-size="10.00">_posix.h</text>
</a>
</g>
</g>
<!-- Node2&#45;&gt;Node14 -->
<g id="edge15_Node000002_Node000014" class="edge">
<title>Node2&#45;&gt;Node14</title>
<g id="a_edge15_Node000002_Node000014"><a xlink:title=" ">
<path fill="none" stroke="#63b8ff" d="M522.25,-258.82C533.56,-249.95 547.58,-238.94 558.61,-230.28"/>
<polygon fill="#63b8ff" stroke="#63b8ff" points="520.41,-255.82 514.71,-264.75 524.73,-261.33 520.41,-255.82"/>
</a>
</g>
</g>
<!-- Node5 -->
<g id="Node000005" class="node">
<title>Node5</title>
<g id="a_Node000005"><a xlink:href="spi__adapter_8cpp.html" target="_top" xlink:title="Implementation of the deprecated SPI transport adapter.">
<polygon fill="white" stroke="#666666" points="108.25,-91.38 0,-91.38 0,-72.12 108.25,-72.12 108.25,-91.38"/>
<text text-anchor="middle" x="54.12" y="-77.88" font-family="Helvetica,sans-Serif" font-size="10.00">bcnp/spi_adapter.cpp</text>
</a>
</g>
</g>
<!-- Node4&#45;&gt;Node5 -->
<g id="edge4_Node000004_Node000005" class="edge">
<title>Node4&#45;&gt;Node5</title>
<g id="a_edge4_Node000004_Node000005"><a xlink:title=" ">
<path fill="none" stroke="#63b8ff" d="M149.87,-132.96C125.92,-120.4 91.78,-102.5 71.4,-91.81"/>
<polygon fill="#63b8ff" stroke="#63b8ff" points="147.94,-135.9 158.42,-137.44 151.19,-129.7 147.94,-135.9"/>
</a>
</g>
</g>
<!-- Node6&#45;&gt;Node4 -->
<g id="edge11_Node000006_Node000004" class="edge">
<title>Node6&#45;&gt;Node4</title>
<g id="a_edge11_Node000006_Node000004"><a xlink:title=" ">
<path fill="none" stroke="#63b8ff" d="M369.77,-201.68C323.52,-189.09 252.06,-169.64 210.41,-158.31"/>
<polygon fill="#63b8ff" stroke="#63b8ff" points="368.64,-205 379.21,-204.25 370.48,-198.24 368.64,-205"/>
</a>
</g>
</g>
<!-- Node7 -->
<g id="Node000007" class="node">
<title>Node7</title>
<g id="a_Node000007"><a xlink:href="dispatcher_8h.html" target="_top" xlink:title=" ">
<polygon fill="white" stroke="#666666" points="336.38,-157.88 243.88,-157.88 243.88,-138.62 336.38,-138.62 336.38,-157.88"/>
<text text-anchor="middle" x="290.12" y="-144.38" font-family="Helvetica,sans-Serif" font-size="10.00">bcnp/dispatcher.h</text>
</a>
</g>
</g>
<!-- Node6&#45;&gt;Node7 -->
<g id="edge6_Node000006_Node000007" class="edge">
<title>Node6&#45;&gt;Node7</title>
<g id="a_edge6_Node000006_Node000007"><a xlink:title=" ">
<path fill="none" stroke="#63b8ff" d="M386.65,-199.46C362.5,-186.9 328.09,-169 307.54,-158.31"/>
<polygon fill="#63b8ff" stroke="#63b8ff" points="384.79,-202.44 395.28,-203.95 388.02,-196.23 384.79,-202.44"/>
</a>
</g>
</g>
<!-- Node12 -->
<g id="Node000012" class="node">
<title>Node12</title>
<g id="a_Node000012"><a xlink:href="stream__parser_8cpp.html" target="_top" xlink:title="Implementation of the BCNP stream parser.">
<polygon fill="white" stroke="#666666" points="474.25,-157.88 354,-157.88 354,-138.62 474.25,-138.62 474.25,-157.88"/>
<text text-anchor="middle" x="414.12" y="-144.38" font-family="Helvetica,sans-Serif" font-size="10.00">bcnp/stream_parser.cpp</text>
</a>
</g>
</g>
<!-- Node6&#45;&gt;Node12 -->
<g id="edge12_Node000006_Node000012" class="edge">
<title>Node6&#45;&gt;Node12</title>
<g id="a_edge12_Node000006_Node000012"><a xlink:title=" ">
<path fill="none" stroke="#63b8ff" d="M414.12,-193.27C414.12,-181.44 414.12,-167.16 414.12,-158.14"/>
<polygon fill="#63b8ff" stroke="#63b8ff" points="410.63,-193.27 414.13,-203.27 417.63,-193.27 410.63,-193.27"/>
</a>
</g>
</g>
<!-- Node8 -->
<g id="Node000008" class="node">
<title>Node8</title>
<g id="a_Node000008"><a xlink:href="controller_8h.html" target="_top" xlink:title=" ">
<polygon fill="white" stroke="#666666" points="213.75,-91.38 126.5,-91.38 126.5,-72.12 213.75,-72.12 213.75,-91.38"/>
<text text-anchor="middle" x="170.12" y="-77.88" font-family="Helvetica,sans-Serif" font-size="10.00">bcnp/controller.h</text>
</a>
</g>
</g>
<!-- Node7&#45;&gt;Node8 -->
<g id="edge7_Node000007_Node000008" class="edge">
<title>Node7&#45;&gt;Node8</title>
<g id="a_edge7_Node000007_Node000008"><a xlink:title=" ">
<path fill="none" stroke="#63b8ff" d="M263.22,-132.79C239.87,-120.24 206.77,-102.45 186.98,-91.81"/>
<polygon fill="#63b8ff" stroke="#63b8ff" points="261.39,-135.78 271.85,-137.43 264.7,-129.61 261.39,-135.78"/>
</a>
</g>
</g>
<!-- Node9 -->
<g id="Node000009" class="node">
<title>Node9</title>
<g id="a_Node000009"><a xlink:href="dispatcher_8cpp.html" target="_top" xlink:title="Implementation of the BCNP packet dispatcher.">
<polygon fill="white" stroke="#666666" points="334.62,-91.38 231.62,-91.38 231.62,-72.12 334.62,-72.12 334.62,-91.38"/>
<text text-anchor="middle" x="283.12" y="-77.88" font-family="Helvetica,sans-Serif" font-size="10.00">bcnp/dispatcher.cpp</text>
</a>
</g>
</g>
<!-- Node7&#45;&gt;Node9 -->
<g id="edge8_Node000007_Node000009" class="edge">
<title>Node7&#45;&gt;Node9</title>
<g id="a_edge8_Node000007_Node000009"><a xlink:title=" ">
<path fill="none" stroke="#63b8ff" d="M287.94,-127.15C286.65,-115.25 285.08,-100.76 284.09,-91.64"/>
<polygon fill="#63b8ff" stroke="#63b8ff" points="284.43,-127.21 288.99,-136.78 291.39,-126.46 284.43,-127.21"/>
</a>
</g>
</g>
<!-- Node10 -->
<g id="Node000010" class="node">
<title>Node10</title>
<g id="a_Node000010"><a xlink:href="controller__driver_8h.html" target="_top" xlink:title=" ">
<polygon fill="white" stroke="#666666" points="473.62,-97 352.62,-97 352.62,-66.5 473.62,-66.5 473.62,-97"/>
<text text-anchor="start" x="360.62" y="-83.5" font-family="Helvetica,sans-Serif" font-size="10.00">bcnp/transport/controller</text>
<text text-anchor="middle" x="413.12" y="-72.25" font-family="Helvetica,sans-Serif" font-size="10.00">_driver.h</text>
</a>
</g>
</g>
<!-- Node7&#45;&gt;Node10 -->
<g id="edge9_Node000007_Node000010" class="edge">
<title>Node7&#45;&gt;Node10</title>
<g id="a_edge9_Node000007_Node000010"><a xlink:title=" ">
<path fill="none" stroke="#63b8ff" d="M317.61,-132.84C337.81,-122.24 365.17,-107.9 385.42,-97.28"/>
<polygon fill="#63b8ff" stroke="#63b8ff" points="316.06,-129.7 308.83,-137.44 319.31,-135.9 316.06,-129.7"/>
</a>
</g>
</g>
<!-- Node10&#45;&gt;Node11 -->
<g id="edge10_Node000010_Node000011" class="edge">
<title>Node10&#45;&gt;Node11</title>
<g id="a_edge10_Node000010_Node000011"><a xlink:title=" ">
<path fill="none" stroke="#63b8ff" d="M429.47,-56.79C435.42,-48.07 441.95,-38.49 447.18,-30.83"/>
<polygon fill="#63b8ff" stroke="#63b8ff" points="426.71,-54.63 423.96,-64.86 432.49,-58.58 426.71,-54.63"/>
</a>
</g>
</g>
<!-- Node15 -->
<g id="Node000015" class="node">
<title>Node15</title>
<g id="a_Node000015"><a xlink:href="tcp__posix_8cpp.html" target="_top" xlink:title="TCP transport adapter implementation for POSIX systems.">
<polygon fill="white" stroke="#666666" points="624.5,-163.5 529.75,-163.5 529.75,-133 624.5,-133 624.5,-163.5"/>
<text text-anchor="start" x="537.75" y="-150" font-family="Helvetica,sans-Serif" font-size="10.00">bcnp/transport/tcp</text>
<text text-anchor="middle" x="577.12" y="-138.75" font-family="Helvetica,sans-Serif" font-size="10.00">_posix.cpp</text>
</a>
</g>
</g>
<!-- Node14&#45;&gt;Node15 -->
<g id="edge16_Node000014_Node000015" class="edge">
<title>Node14&#45;&gt;Node15</title>
<g id="a_edge16_Node000014_Node000015"><a xlink:title=" ">
<path fill="none" stroke="#63b8ff" d="M577.12,-187.81C577.12,-179.64 577.12,-170.91 577.12,-163.83"/>
<polygon fill="#63b8ff" stroke="#63b8ff" points="573.63,-187.6 577.13,-197.6 580.63,-187.6 573.63,-187.6"/>
</a>
</g>
</g>
</g>
</svg>
