<?xml version="1.0" encoding="UTF-8" standalone="no"?>
<!DOCTYPE svg PUBLIC "-//W3C//DTD SVG 1.1//EN"
 "http://www.w3.org/Graphics/SVG/1.1/DTD/svg11.dtd">
<!-- Generated by graphviz version 12.2.0 (20241103.1931)
 -->
<!-- Title: bcnp/packet_storage.h Pages: 1 -->
<svg width="342pt" height="138pt"
 viewBox="0.00 0.00 342.12 137.75" xmlns="http://www.w3.org/2000/svg" xmlns:xlink="http://www.w3.org/1999/xlink">

<svg id="main" version="1.1" xmlns="http://www.w3.org/2000/svg" xmlns:xlink="http://www.w3.org/1999/xlink" xml:space="preserve">

<style type="text/css"><![CDATA[
.node, .edge {opacity: 0.7;}
.node.selected, .edge.selected {opacity: 1;}
.edge:hover path { stroke: red; }
.edge:hover polygon { stroke: red; fill: red; }
]]></style>
<script type="application/ecmascript" xlink:href="svg.min.js"/>
<svg id="graph" class="graph">
<g id="graph0" class="graph" transform="scale(1 1) rotate(0) translate(4 133.75)">
<title>bcnp/packet_storage.h</title>
<!-- Node1 -->
<g id="Node000001" class="node">
<title>Node1</title>
<g id="a_Node000001"><a xlink:title=" ">
<polygon fill="#999999" stroke="#666666" points="224.25,-129.75 110,-129.75 110,-110.5 224.25,-110.5 224.25,-129.75"/>
<text text-anchor="middle" x="167.12" y="-116.25" font-family="Helvetica,sans-Serif" font-size="10.00">bcnp/packet_storage.h</text>
</a>
</g>
</g>
<!-- Node2 -->
<g id="Node000002" class="node">
<title>Node2</title>
<g id="a_Node000002"><a xlink:href="static__vector_8h.html" target="_top" xlink:title="Fixed&#45;capacity vector with stack allocation (no heap).">
<polygon fill="white" stroke="#666666" points="169,-74.5 65.25,-74.5 65.25,-55.25 169,-55.25 169,-74.5"/>
<text text-anchor="middle" x="117.12" y="-61" font-family="Helvetica,sans-Serif" font-size="10.00">bcnp/static_vector.h</text>
</a>
</g>
</g>
<!-- Node1&#45;&gt;Node2 -->
<g id="edge1_Node000001_Node000002" class="edge">
<title>Node1&#45;&gt;Node2</title>
<g id="a_edge1_Node000001_Node000002"><a xlink:title=" ">
<path fill="none" stroke="#63b8ff" d="M158.87,-110.33C151.96,-102.98 141.9,-92.26 133.39,-83.19"/>
<polygon fill="#63b8ff" stroke="#63b8ff" points="135.99,-80.86 126.6,-75.96 130.89,-85.65 135.99,-80.86"/>
</a>
</g>
</g>
<!-- Node4 -->
<g id="Node000004" class="node">
<title>Node4</title>
<g id="a_Node000004"><a xlink:title=" ">
<polygon fill="#e0e0e0" stroke="#999999" points="48.25,-19.25 0,-19.25 0,0 48.25,0 48.25,-19.25"/>
<text text-anchor="middle" x="24.12" y="-5.75" font-family="Helvetica,sans-Serif" font-size="10.00">cstddef</text>
</a>
</g>
</g>
<!-- Node1&#45;&gt;Node4 -->
<g id="edge6_Node000001_Node000004" class="edge">
<title>Node1&#45;&gt;Node4</title>
<g id="a_edge6_Node000001_Node000004"><a xlink:title=" ">
<path fill="none" stroke="#63b8ff" d="M125.22,-110.01C102.56,-103.32 75.37,-92.23 56.12,-74.5 43.28,-62.67 34.89,-44.54 29.93,-30.61"/>
<polygon fill="#63b8ff" stroke="#63b8ff" points="33.29,-29.61 26.9,-21.16 26.62,-31.75 33.29,-29.61"/>
</a>
</g>
</g>
<!-- Node7 -->
<g id="Node000007" class="node">
<title>Node7</title>
<g id="a_Node000007"><a xlink:title=" ">
<polygon fill="#e0e0e0" stroke="#999999" points="247.62,-74.5 186.62,-74.5 186.62,-55.25 247.62,-55.25 247.62,-74.5"/>
<text text-anchor="middle" x="217.12" y="-61" font-family="Helvetica,sans-Serif" font-size="10.00">type_traits</text>
</a>
</g>
</g>
<!-- Node1&#45;&gt;Node7 -->
<g id="edge7_Node000001_Node000007" class="edge">
<title>Node1&#45;&gt;Node7</title>
<g id="a_edge7_Node000001_Node000007"><a xlink:title=" ">
<path fill="none" stroke="#63b8ff" d="M175.38,-110.33C182.29,-102.98 192.35,-92.26 200.86,-83.19"/>
<polygon fill="#63b8ff" stroke="#63b8ff" points="203.36,-85.65 207.65,-75.96 198.26,-80.86 203.36,-85.65"/>
</a>
</g>
</g>
<!-- Node8 -->
<g id="Node000008" class="node">
<title>Node8</title>
<g id="a_Node000008"><a xlink:title=" ">
<polygon fill="#e0e0e0" stroke="#999999" points="308.62,-74.5 265.62,-74.5 265.62,-55.25 308.62,-55.25 308.62,-74.5"/>
<text text-anchor="middle" x="287.12" y="-61" font-family="Helvetica,sans-Serif" font-size="10.00">vector</text>
</a>
</g>
</g>
<!-- Node1&#45;&gt;Node8 -->
<g id="edge8_Node000001_Node000008" class="edge">
<title>Node1&#45;&gt;Node8</title>
<g id="a_edge8_Node000001_Node000008"><a xlink:title=" ">
<path fill="none" stroke="#63b8ff" d="M187.48,-110.09C206.36,-101.72 234.71,-89.13 256.35,-79.53"/>
<polygon fill="#63b8ff" stroke="#63b8ff" points="257.56,-82.82 265.29,-75.57 254.73,-76.42 257.56,-82.82"/>
</a>
</g>
</g>
<!-- Node3 -->
<g id="Node000003" class="node">
<title>Node3</title>
<g id="a_Node000003"><a xlink:title=" ">
<polygon fill="#e0e0e0" stroke="#999999" points="167.88,-19.25 66.38,-19.25 66.38,0 167.88,0 167.88,-19.25"/>
<text text-anchor="middle" x="117.12" y="-5.75" font-family="Helvetica,sans-Serif" font-size="10.00">crab/static_vector.h</text>
</a>
</g>
</g>
<!-- Node2&#45;&gt;Node3 -->
<g id="edge2_Node000002_Node000003" class="edge">
<title>Node2&#45;&gt;Node3</title>
<g id="a_edge2_Node000002_Node000003"><a xlink:title=" ">
<path fill="none" stroke="#63b8ff" d="M117.12,-55.08C117.12,-48.57 117.12,-39.42 117.12,-31.12"/>
<polygon fill="#63b8ff" stroke="#63b8ff" points="120.63,-31.12 117.13,-21.12 113.63,-31.12 120.63,-31.12"/>
</a>
</g>
</g>
<!-- Node2&#45;&gt;Node4 -->
<g id="edge3_Node000002_Node000004" class="edge">
<title>Node2&#45;&gt;Node4</title>
<g id="a_edge3_Node000002_Node000004"><a xlink:title=" ">
<path fill="none" stroke="#63b8ff" d="M101.35,-54.84C87.19,-46.73 66.14,-34.68 49.6,-25.21"/>
<polygon fill="#63b8ff" stroke="#63b8ff" points="51.71,-22.39 41.29,-20.45 48.23,-28.46 51.71,-22.39"/>
</a>
</g>
</g>
<!-- Node5 -->
<g id="Node000005" class="node">
<title>Node5</title>
<g id="a_Node000005"><a xlink:title=" ">
<polygon fill="#e0e0e0" stroke="#999999" points="257.88,-19.25 186.38,-19.25 186.38,0 257.88,0 257.88,-19.25"/>
<text text-anchor="middle" x="222.12" y="-5.75" font-family="Helvetica,sans-Serif" font-size="10.00">initializer_list</text>
</a>
</g>
</g>
<!-- Node2&#45;&gt;Node5 -->
<g id="edge4_Node000002_Node000005" class="edge">
<title>Node2&#45;&gt;Node5</title>
<g id="a_edge4_Node000002_Node000005"><a xlink:title=" ">
<path fill="none" stroke="#63b8ff" d="M134.94,-54.84C151.15,-46.62 175.36,-34.34 194.16,-24.81"/>
<polygon fill="#63b8ff" stroke="#63b8ff" points="195.54,-28.03 202.88,-20.39 192.37,-21.79 195.54,-28.03"/>
</a>
</g>
</g>
<!-- Node6 -->
<g id="Node000006" class="node">
<title>Node6</title>
<g id="a_Node000006"><a xlink:title=" ">
<polygon fill="#e0e0e0" stroke="#999999" points="334.12,-19.25 276.12,-19.25 276.12,0 334.12,0 334.12,-19.25"/>
<text text-anchor="middle" x="305.12" y="-5.75" font-family="Helvetica,sans-Serif" font-size="10.00">stdexcept</text>
</a>
</g>
</g>
<!-- Node2&#45;&gt;Node6 -->
<g id="edge5_Node000002_Node000006" class="edge">
<title>Node2&#45;&gt;Node6</title>
<g id="a_edge5_Node000002_Node000006"><a xlink:title=" ">
<path fill="none" stroke="#63b8ff" d="M149.02,-54.84C181.06,-45.77 230.54,-31.75 265.18,-21.94"/>
<polygon fill="#63b8ff" stroke="#63b8ff" points="265.74,-25.42 274.41,-19.33 263.83,-18.68 265.74,-25.42"/>
</a>
</g>
</g>
</g>
</svg>
</svg>

<style type='text/css'>
<![CDATA[
[data-mouse-over-selected='false'] { opacity: 0.7; }
[data-mouse-over-selected='true']  { opacity: 1.0; }
]]>
</style>
<script type="application/ecmascript"><![CDATA[
document.addEventListener('DOMContentLoaded', (event) => {
  highlightEdges();
  highlightAdjacentNodes();
});
]]></script>
</svg>
