<?xml version="1.0" encoding="UTF-8" standalone="no"?>
<!DOCTYPE svg PUBLIC "-//W3C//DTD SVG 1.1//EN"
 "http://www.w3.org/Graphics/SVG/1.1/DTD/svg11.dtd">
<!-- Generated by graphviz version 12.2.0 (20241103.1931)
 -->
<!-- Title: bcnp/packet.cpp Pages: 1 -->
<!--zoomable 248 -->

<svg id="main" version="1.1" xmlns="http://www.w3.org/2000/svg" xmlns:xlink="http://www.w3.org/1999/xlink" xml:space="preserve" onload="init(evt)">

<style type="text/css"><![CDATA[
.node, .edge {opacity: 0.7;}
.node.selected, .edge.selected {opacity: 1;}
.edge:hover path { stroke: red; }
.edge:hover polygon { stroke: red; fill: red; }
]]></style>

<defs>
  <circle id="rim" cx="0" cy="0" r="7"/>
  <circle id="rim2" cx="0" cy="0" r="3.5"/>
  <g id="zoomPlus">
    <use xlink:href="#rim" fill="#404040"><set attributeName="fill" to="#808080" begin="zoomplus.mouseover" end="zoomplus.mouseout"/></use>
    <path d="M-4,0h8M0,-4v8" fill="none" stroke="white" stroke-width="1.5" pointer-events="none"/>
  </g>
  <g id="zoomMin">
    <use xlink:href="#rim" fill="#404040"><set attributeName="fill" to="#808080" begin="zoomminus.mouseover" end="zoomminus.mouseout"/></use>
    <path d="M-4,0h8" fill="none" stroke="white" stroke-width="1.5" pointer-events="none"/>
  </g>
  <g id="arrowUp" transform="translate(30 24)">
    <use xlink:href="#rim"/>
    <path pointer-events="none" fill="none" stroke="white" stroke-width="1.5" d="M0,-3.0v7 M-2.5,-0.5L0,-3.0L2.5,-0.5"/>
  </g>
  <g id="arrowRight" transform="rotate(90) translate(36 -43)">
    <use xlink:href="#rim"/>
    <path pointer-events="none" fill="none" stroke="white" stroke-width="1.5" d="M0,-3.0v7 M-2.5,-0.5L0,-3.0L2.5,-0.5"/>
  </g>
  <g id="arrowDown" transform="rotate(180) translate(-30 -48)">
    <use xlink:href="#rim"/>
    <path pointer-events="none" fill="none" stroke="white" stroke-width="1.5" d="M0,-3.0v7 M-2.5,-0.5L0,-3.0L2.5,-0.5"/>
  </g>
  <g id="arrowLeft" transform="rotate(270) translate(-36 17)">
    <use xlink:href="#rim"/>
    <path pointer-events="none" fill="none" stroke="white" stroke-width="1.5" d="M0,-3.0v7 M-2.5,-0.5L0,-3.0L2.5,-0.5"/>
  </g>
  <g id="resetDef">
    <use xlink:href="#rim2" fill="#404040"><set attributeName="fill" to="#808080" begin="reset.mouseover" end="reset.mouseout"/></use>
  </g>
</defs>
<script type="application/ecmascript">
var viewWidth = 1025;
var viewHeight = 248;
var sectionId = 'dynsection-0';
</script>
<script type="application/ecmascript" xlink:href="svg.min.js"/>
<svg id="graph" class="graph">
<g id="viewport">
<title>bcnp/packet.cpp</title>
<!-- Node1 -->
<g id="Node000001" class="node">
<title>Node1</title>
<g id="a_Node000001"><a xlink:title="Implementation of BCNP packet encoding and decoding functions.">
<polygon fill="#999999" stroke="#666666" points="919.38,-240.25 832.12,-240.25 832.12,-221 919.38,-221 919.38,-240.25"/>
<text text-anchor="middle" x="875.75" y="-226.75" font-family="Helvetica,sans-Serif" font-size="10.00">bcnp/packet.cpp</text>
</a>
</g>
</g>
<!-- Node2 -->
<g id="Node000002" class="node">
<title>Node2</title>
<g id="a_Node000002"><a xlink:href="packet_8h.html" target="_top" xlink:title="BCNP packet structures, encoding, and decoding utilities.">
<polygon fill="white" stroke="#666666" points="474.12,-185 397.38,-185 397.38,-165.75 474.12,-165.75 474.12,-185"/>
<text text-anchor="middle" x="435.75" y="-171.5" font-family="Helvetica,sans-Serif" font-size="10.00">bcnp/packet.h</text>
</a>
</g>
</g>
<!-- Node1&#45;&gt;Node2 -->
<g id="edge1_Node000001_Node000002" class="edge">
<title>Node1&#45;&gt;Node2</title>
<g id="a_edge1_Node000001_Node000002"><a xlink:title=" ">
<path fill="none" stroke="#63b8ff" d="M831.95,-224.32C749.76,-214.38 572.88,-192.97 485.99,-182.46"/>
<polygon fill="#63b8ff" stroke="#63b8ff" points="486.45,-178.99 476.1,-181.26 485.61,-185.93 486.45,-178.99"/>
</a>
</g>
</g>
<!-- Node4 -->
<g id="Node000004" class="node">
<title>Node4</title>
<g id="a_Node000004"><a xlink:title=" ">
<polygon fill="#e0e0e0" stroke="#999999" points="817.25,-74.5 780.25,-74.5 780.25,-55.25 817.25,-55.25 817.25,-74.5"/>
<text text-anchor="middle" x="798.75" y="-61" font-family="Helvetica,sans-Serif" font-size="10.00">array</text>
</a>
</g>
</g>
<!-- Node1&#45;&gt;Node4 -->
<g id="edge27_Node000001_Node000004" class="edge">
<title>Node1&#45;&gt;Node4</title>
<g id="a_edge27_Node000001_Node000004"><a xlink:title=" ">
<path fill="none" stroke="#63b8ff" d="M871.61,-220.82C859.55,-195.17 824.23,-120.05 807.6,-84.69"/>
<polygon fill="#63b8ff" stroke="#63b8ff" points="810.98,-83.65 803.55,-76.09 804.64,-86.63 810.98,-83.65"/>
</a>
</g>
</g>
<!-- Node7 -->
<g id="Node000007" class="node">
<title>Node7</title>
<g id="a_Node000007"><a xlink:title=" ">
<polygon fill="#e0e0e0" stroke="#999999" points="878.25,-74.5 835.25,-74.5 835.25,-55.25 878.25,-55.25 878.25,-74.5"/>
<text text-anchor="middle" x="856.75" y="-61" font-family="Helvetica,sans-Serif" font-size="10.00">cmath</text>
</a>
</g>
</g>
<!-- Node1&#45;&gt;Node7 -->
<g id="edge28_Node000001_Node000007" class="edge">
<title>Node1&#45;&gt;Node7</title>
<g id="a_edge28_Node000001_Node000007"><a xlink:title=" ">
<path fill="none" stroke="#63b8ff" d="M874.73,-220.82C871.79,-195.5 863.26,-122 859.1,-86.09"/>
<polygon fill="#63b8ff" stroke="#63b8ff" points="862.58,-85.76 857.95,-76.23 855.63,-86.56 862.58,-85.76"/>
</a>
</g>
</g>
<!-- Node8 -->
<g id="Node000008" class="node">
<title>Node8</title>
<g id="a_Node000008"><a xlink:title=" ">
<polygon fill="#e0e0e0" stroke="#999999" points="941.38,-74.5 896.12,-74.5 896.12,-55.25 941.38,-55.25 941.38,-74.5"/>
<text text-anchor="middle" x="918.75" y="-61" font-family="Helvetica,sans-Serif" font-size="10.00">cstring</text>
</a>
</g>
</g>
<!-- Node1&#45;&gt;Node8 -->
<g id="edge29_Node000001_Node000008" class="edge">
<title>Node1&#45;&gt;Node8</title>
<g id="a_edge29_Node000001_Node000008"><a xlink:title=" ">
<path fill="none" stroke="#63b8ff" d="M878.06,-220.82C884.74,-195.39 904.18,-121.35 913.56,-85.62"/>
<polygon fill="#63b8ff" stroke="#63b8ff" points="916.89,-86.75 916.04,-76.19 910.12,-84.97 916.89,-86.75"/>
</a>
</g>
</g>
<!-- Node10 -->
<g id="Node000010" class="node">
<title>Node10</title>
<g id="a_Node000010"><a xlink:title=" ">
<polygon fill="#e0e0e0" stroke="#999999" points="998.38,-74.5 959.12,-74.5 959.12,-55.25 998.38,-55.25 998.38,-74.5"/>
<text text-anchor="middle" x="978.75" y="-61" font-family="Helvetica,sans-Serif" font-size="10.00">limits</text>
</a>
</g>
</g>
<!-- Node1&#45;&gt;Node10 -->
<g id="edge30_Node000001_Node000010" class="edge">
<title>Node1&#45;&gt;Node10</title>
<g id="a_edge30_Node000001_Node000010"><a xlink:title=" ">
<path fill="none" stroke="#63b8ff" d="M881.29,-220.82C897.5,-195.05 945.08,-119.4 967.2,-84.24"/>
<polygon fill="#63b8ff" stroke="#63b8ff" points="970.02,-86.33 972.38,-76 964.09,-82.6 970.02,-86.33"/>
</a>
</g>
</g>
<!-- Node21 -->
<g id="Node000021" class="node">
<title>Node21</title>
<g id="a_Node000021"><a xlink:title=" ">
<polygon fill="#e0e0e0" stroke="#999999" points="1016.62,-185 960.88,-185 960.88,-165.75 1016.62,-165.75 1016.62,-185"/>
<text text-anchor="middle" x="988.75" y="-171.5" font-family="Helvetica,sans-Serif" font-size="10.00">algorithm</text>
</a>
</g>
</g>
<!-- Node1&#45;&gt;Node21 -->
<g id="edge26_Node000001_Node000021" class="edge">
<title>Node1&#45;&gt;Node21</title>
<g id="a_edge26_Node000001_Node000021"><a xlink:title=" ">
<path fill="none" stroke="#63b8ff" d="M894.92,-220.59C912.53,-212.29 938.91,-199.86 959.21,-190.29"/>
<polygon fill="#63b8ff" stroke="#63b8ff" points="960.56,-193.53 968.12,-186.1 957.58,-187.19 960.56,-193.53"/>
</a>
</g>
</g>
<!-- Node3 -->
<g id="Node000003" class="node">
<title>Node3</title>
<g id="a_Node000003"><a xlink:href="message__types_8h.html" target="_top" xlink:title=" ">
<polygon fill="white" stroke="#666666" points="761.62,-129.75 645.88,-129.75 645.88,-110.5 761.62,-110.5 761.62,-129.75"/>
<text text-anchor="middle" x="703.75" y="-116.25" font-family="Helvetica,sans-Serif" font-size="10.00">bcnp/message_types.h</text>
</a>
</g>
</g>
<!-- Node2&#45;&gt;Node3 -->
<g id="edge2_Node000002_Node000003" class="edge">
<title>Node2&#45;&gt;Node3</title>
<g id="a_edge2_Node000002_Node000003"><a xlink:title=" ">
<path fill="none" stroke="#63b8ff" d="M474.43,-166.69C519.67,-157.7 594.97,-142.74 646.87,-132.43"/>
<polygon fill="#63b8ff" stroke="#63b8ff" points="647.28,-135.91 656.41,-130.53 645.92,-129.05 647.28,-135.91"/>
</a>
</g>
</g>
<!-- Node5 -->
<g id="Node000005" class="node">
<title>Node5</title>
<g id="a_Node000005"><a xlink:title=" ">
<polygon fill="#e0e0e0" stroke="#999999" points="409.88,-19.25 361.62,-19.25 361.62,0 409.88,0 409.88,-19.25"/>
<text text-anchor="middle" x="385.75" y="-5.75" font-family="Helvetica,sans-Serif" font-size="10.00">cstddef</text>
</a>
</g>
</g>
<!-- Node2&#45;&gt;Node5 -->
<g id="edge23_Node000002_Node000005" class="edge">
<title>Node2&#45;&gt;Node5</title>
<g id="a_edge23_Node000002_Node000005"><a xlink:title=" ">
<path fill="none" stroke="#63b8ff" d="M435.8,-165.33C435.63,-144.91 433.5,-94 417.75,-55.25 413.81,-45.56 407.37,-35.98 401.3,-28.2"/>
<polygon fill="#63b8ff" stroke="#63b8ff" points="404.07,-26.05 394.99,-20.59 398.68,-30.52 404.07,-26.05"/>
</a>
</g>
</g>
<!-- Node6 -->
<g id="Node000006" class="node">
<title>Node6</title>
<g id="a_Node000006"><a xlink:title=" ">
<polygon fill="#e0e0e0" stroke="#999999" points="515.38,-74.5 470.12,-74.5 470.12,-55.25 515.38,-55.25 515.38,-74.5"/>
<text text-anchor="middle" x="492.75" y="-61" font-family="Helvetica,sans-Serif" font-size="10.00">cstdint</text>
</a>
</g>
</g>
<!-- Node2&#45;&gt;Node6 -->
<g id="edge24_Node000002_Node000006" class="edge">
<title>Node2&#45;&gt;Node6</title>
<g id="a_edge24_Node000002_Node000006"><a xlink:title=" ">
<path fill="none" stroke="#63b8ff" d="M443.64,-165.31C450.89,-156.64 461.57,-142.96 468.75,-129.75 476.38,-115.71 482.64,-98.73 486.84,-85.81"/>
<polygon fill="#63b8ff" stroke="#63b8ff" points="490.16,-86.93 489.78,-76.34 483.48,-84.85 490.16,-86.93"/>
</a>
</g>
</g>
<!-- Node13 -->
<g id="Node000013" class="node">
<title>Node13</title>
<g id="a_Node000013"><a xlink:href="static__vector_8h.html" target="_top" xlink:title="Fixed&#45;capacity vector with stack allocation (no heap).">
<polygon fill="white" stroke="#666666" points="207.62,-74.5 103.88,-74.5 103.88,-55.25 207.62,-55.25 207.62,-74.5"/>
<text text-anchor="middle" x="155.75" y="-61" font-family="Helvetica,sans-Serif" font-size="10.00">bcnp/static_vector.h</text>
</a>
</g>
</g>
<!-- Node2&#45;&gt;Node13 -->
<g id="edge12_Node000002_Node000013" class="edge">
<title>Node2&#45;&gt;Node13</title>
<g id="a_edge12_Node000002_Node000013"><a xlink:title=" ">
<path fill="none" stroke="#63b8ff" d="M396.88,-172.98C331.34,-169.81 202.82,-159.84 170.75,-129.75 158.93,-118.66 155.61,-100.16 155,-85.92"/>
<polygon fill="#63b8ff" stroke="#63b8ff" points="158.5,-86.31 155.01,-76.3 151.5,-86.3 158.5,-86.31"/>
</a>
</g>
</g>
<!-- Node17 -->
<g id="Node000017" class="node">
<title>Node17</title>
<g id="a_Node000017"><a xlink:href="packet__storage_8h.html" target="_top" xlink:title=" ">
<polygon fill="white" stroke="#666666" points="293.88,-129.75 179.62,-129.75 179.62,-110.5 293.88,-110.5 293.88,-129.75"/>
<text text-anchor="middle" x="236.75" y="-116.25" font-family="Helvetica,sans-Serif" font-size="10.00">bcnp/packet_storage.h</text>
</a>
</g>
</g>
<!-- Node2&#45;&gt;Node17 -->
<g id="edge17_Node000002_Node000017" class="edge">
<title>Node2&#45;&gt;Node17</title>
<g id="a_edge17_Node000002_Node000017"><a xlink:title=" ">
<path fill="none" stroke="#63b8ff" d="M401.99,-165.34C368.83,-156.47 318.03,-142.87 281.51,-133.1"/>
<polygon fill="#63b8ff" stroke="#63b8ff" points="282.7,-129.8 272.14,-130.59 280.89,-136.56 282.7,-129.8"/>
</a>
</g>
</g>
<!-- Node19 -->
<g id="Node000019" class="node">
<title>Node19</title>
<g id="a_Node000019"><a xlink:title=" ">
<polygon fill="#e0e0e0" stroke="#999999" points="409.25,-74.5 366.25,-74.5 366.25,-55.25 409.25,-55.25 409.25,-74.5"/>
<text text-anchor="middle" x="387.75" y="-61" font-family="Helvetica,sans-Serif" font-size="10.00">vector</text>
</a>
</g>
</g>
<!-- Node2&#45;&gt;Node19 -->
<g id="edge25_Node000002_Node000019" class="edge">
<title>Node2&#45;&gt;Node19</title>
<g id="a_edge25_Node000002_Node000019"><a xlink:title=" ">
<path fill="none" stroke="#63b8ff" d="M431.82,-165.5C424.09,-148.01 406.73,-108.77 396.25,-85.09"/>
<polygon fill="#63b8ff" stroke="#63b8ff" points="399.59,-83.99 392.34,-76.26 393.19,-86.82 399.59,-83.99"/>
</a>
</g>
</g>
<!-- Node20 -->
<g id="Node000020" class="node">
<title>Node20</title>
<g id="a_Node000020"><a xlink:title=" ">
<polygon fill="#e0e0e0" stroke="#999999" points="389.12,-129.75 312.38,-129.75 312.38,-110.5 389.12,-110.5 389.12,-129.75"/>
<text text-anchor="middle" x="350.75" y="-116.25" font-family="Helvetica,sans-Serif" font-size="10.00">crab/prelude.h</text>
</a>
</g>
</g>
<!-- Node2&#45;&gt;Node20 -->
<g id="edge22_Node000002_Node000020" class="edge">
<title>Node2&#45;&gt;Node20</title>
<g id="a_edge22_Node000002_Node000020"><a xlink:title=" ">
<path fill="none" stroke="#63b8ff" d="M421.33,-165.34C408.63,-157.39 389.88,-145.64 374.89,-136.25"/>
<polygon fill="#63b8ff" stroke="#63b8ff" points="376.85,-133.35 366.52,-131.01 373.14,-139.28 376.85,-133.35"/>
</a>
</g>
</g>
<!-- Node3&#45;&gt;Node4 -->
<g id="edge3_Node000003_Node000004" class="edge">
<title>Node3&#45;&gt;Node4</title>
<g id="a_edge3_Node000003_Node000004"><a xlink:title=" ">
<path fill="none" stroke="#63b8ff" d="M719.87,-110.09C734.33,-101.98 755.83,-89.93 772.73,-80.46"/>
<polygon fill="#63b8ff" stroke="#63b8ff" points="774.22,-83.64 781.24,-75.69 770.8,-77.53 774.22,-83.64"/>
</a>
</g>
</g>
<!-- Node3&#45;&gt;Node5 -->
<g id="edge4_Node000003_Node000005" class="edge">
<title>Node3&#45;&gt;Node5</title>
<g id="a_edge4_Node000003_Node000005"><a xlink:title=" ">
<path fill="none" stroke="#63b8ff" d="M713.29,-110.37C726.56,-97.16 747.39,-71.89 732.75,-55.25 712.39,-32.11 506.16,-17.61 421.61,-12.6"/>
<polygon fill="#63b8ff" stroke="#63b8ff" points="421.99,-9.11 411.8,-12.03 421.58,-16.1 421.99,-9.11"/>
</a>
</g>
</g>
<!-- Node3&#45;&gt;Node6 -->
<g id="edge5_Node000003_Node000006" class="edge">
<title>Node3&#45;&gt;Node6</title>
<g id="a_edge5_Node000003_Node000006"><a xlink:title=" ">
<path fill="none" stroke="#63b8ff" d="M666.33,-110.01C632.34,-101.69 580.56,-88.89 526.62,-74.95"/>
<polygon fill="#63b8ff" stroke="#63b8ff" points="527.83,-71.65 517.27,-72.53 526.08,-78.42 527.83,-71.65"/>
</a>
</g>
</g>
<!-- Node3&#45;&gt;Node7 -->
<g id="edge6_Node000003_Node000007" class="edge">
<title>Node3&#45;&gt;Node7</title>
<g id="a_edge6_Node000003_Node000007"><a xlink:title=" ">
<path fill="none" stroke="#63b8ff" d="M729.7,-110.09C755.9,-100.98 796.4,-86.88 824.61,-77.06"/>
<polygon fill="#63b8ff" stroke="#63b8ff" points="825.4,-80.49 833.7,-73.9 823.1,-73.88 825.4,-80.49"/>
</a>
</g>
</g>
<!-- Node3&#45;&gt;Node8 -->
<g id="edge7_Node000003_Node000008" class="edge">
<title>Node3&#45;&gt;Node8</title>
<g id="a_edge7_Node000003_Node000008"><a xlink:title=" ">
<path fill="none" stroke="#63b8ff" d="M742.97,-110.01C777.95,-101.8 830.84,-89.16 884.92,-75.18"/>
<polygon fill="#63b8ff" stroke="#63b8ff" points="885.49,-78.65 894.29,-72.75 883.73,-71.87 885.49,-78.65"/>
</a>
</g>
</g>
<!-- Node9 -->
<g id="Node000009" class="node">
<title>Node9</title>
<g id="a_Node000009"><a xlink:title=" ">
<polygon fill="#e0e0e0" stroke="#999999" points="723.75,-74.5 665.75,-74.5 665.75,-55.25 723.75,-55.25 723.75,-74.5"/>
<text text-anchor="middle" x="694.75" y="-61" font-family="Helvetica,sans-Serif" font-size="10.00">functional</text>
</a>
</g>
</g>
<!-- Node3&#45;&gt;Node9 -->
<g id="edge8_Node000003_Node000009" class="edge">
<title>Node3&#45;&gt;Node9</title>
<g id="a_edge8_Node000003_Node000009"><a xlink:title=" ">
<path fill="none" stroke="#63b8ff" d="M702.26,-110.33C701.15,-103.74 699.58,-94.46 698.16,-86.07"/>
<polygon fill="#63b8ff" stroke="#63b8ff" points="701.64,-85.63 696.52,-76.35 694.74,-86.8 701.64,-85.63"/>
</a>
</g>
</g>
<!-- Node3&#45;&gt;Node10 -->
<g id="edge9_Node000003_Node000010" class="edge">
<title>Node3&#45;&gt;Node10</title>
<g id="a_edge9_Node000003_Node000010"><a xlink:title=" ">
<path fill="none" stroke="#63b8ff" d="M762.06,-110.62C809.81,-103.19 879.32,-91.34 947.68,-75.04"/>
<polygon fill="#63b8ff" stroke="#63b8ff" points="948.28,-78.5 957.17,-72.74 946.63,-71.69 948.28,-78.5"/>
</a>
</g>
</g>
<!-- Node11 -->
<g id="Node000011" class="node">
<title>Node11</title>
<g id="a_Node000011"><a xlink:title=" ">
<polygon fill="#e0e0e0" stroke="#999999" points="583.62,-74.5 533.88,-74.5 533.88,-55.25 583.62,-55.25 583.62,-74.5"/>
<text text-anchor="middle" x="558.75" y="-61" font-family="Helvetica,sans-Serif" font-size="10.00">optional</text>
</a>
</g>
</g>
<!-- Node3&#45;&gt;Node11 -->
<g id="edge10_Node000003_Node000011" class="edge">
<title>Node3&#45;&gt;Node11</title>
<g id="a_edge10_Node000003_Node000011"><a xlink:title=" ">
<path fill="none" stroke="#63b8ff" d="M679.15,-110.09C655.82,-101.52 620.51,-88.56 594.15,-78.88"/>
<polygon fill="#63b8ff" stroke="#63b8ff" points="595.48,-75.64 584.89,-75.47 593.07,-82.21 595.48,-75.64"/>
</a>
</g>
</g>
<!-- Node12 -->
<g id="Node000012" class="node">
<title>Node12</title>
<g id="a_Node000012"><a xlink:title=" ">
<polygon fill="#e0e0e0" stroke="#999999" points="647.38,-74.5 602.12,-74.5 602.12,-55.25 647.38,-55.25 647.38,-74.5"/>
<text text-anchor="middle" x="624.75" y="-61" font-family="Helvetica,sans-Serif" font-size="10.00">variant</text>
</a>
</g>
</g>
<!-- Node3&#45;&gt;Node12 -->
<g id="edge11_Node000003_Node000012" class="edge">
<title>Node3&#45;&gt;Node12</title>
<g id="a_edge11_Node000003_Node000012"><a xlink:title=" ">
<path fill="none" stroke="#63b8ff" d="M690.35,-110.09C678.66,-102.21 661.45,-90.61 647.59,-81.27"/>
<polygon fill="#63b8ff" stroke="#63b8ff" points="649.72,-78.49 639.47,-75.8 645.81,-84.29 649.72,-78.49"/>
</a>
</g>
</g>
<!-- Node13&#45;&gt;Node5 -->
<g id="edge14_Node000013_Node000005" class="edge">
<title>Node13&#45;&gt;Node5</title>
<g id="a_edge14_Node000013_Node000005"><a xlink:title=" ">
<path fill="none" stroke="#63b8ff" d="M195.03,-54.78C238.54,-44.71 308.08,-28.61 350.08,-18.88"/>
<polygon fill="#63b8ff" stroke="#63b8ff" points="350.73,-22.33 359.68,-16.66 349.15,-15.51 350.73,-22.33"/>
</a>
</g>
</g>
<!-- Node14 -->
<g id="Node000014" class="node">
<title>Node14</title>
<g id="a_Node000014"><a xlink:title=" ">
<polygon fill="#e0e0e0" stroke="#999999" points="101.5,-19.25 0,-19.25 0,0 101.5,0 101.5,-19.25"/>
<text text-anchor="middle" x="50.75" y="-5.75" font-family="Helvetica,sans-Serif" font-size="10.00">crab/static_vector.h</text>
</a>
</g>
</g>
<!-- Node13&#45;&gt;Node14 -->
<g id="edge13_Node000013_Node000014" class="edge">
<title>Node13&#45;&gt;Node14</title>
<g id="a_edge13_Node000013_Node000014"><a xlink:title=" ">
<path fill="none" stroke="#63b8ff" d="M137.94,-54.84C121.72,-46.62 97.51,-34.34 78.72,-24.81"/>
<polygon fill="#63b8ff" stroke="#63b8ff" points="80.5,-21.79 70,-20.39 77.33,-28.03 80.5,-21.79"/>
</a>
</g>
</g>
<!-- Node15 -->
<g id="Node000015" class="node">
<title>Node15</title>
<g id="a_Node000015"><a xlink:title=" ">
<polygon fill="#e0e0e0" stroke="#999999" points="191.5,-19.25 120,-19.25 120,0 191.5,0 191.5,-19.25"/>
<text text-anchor="middle" x="155.75" y="-5.75" font-family="Helvetica,sans-Serif" font-size="10.00">initializer_list</text>
</a>
</g>
</g>
<!-- Node13&#45;&gt;Node15 -->
<g id="edge15_Node000013_Node000015" class="edge">
<title>Node13&#45;&gt;Node15</title>
<g id="a_edge15_Node000013_Node000015"><a xlink:title=" ">
<path fill="none" stroke="#63b8ff" d="M155.75,-55.08C155.75,-48.57 155.75,-39.42 155.75,-31.12"/>
<polygon fill="#63b8ff" stroke="#63b8ff" points="159.25,-31.12 155.75,-21.12 152.25,-31.12 159.25,-31.12"/>
</a>
</g>
</g>
<!-- Node16 -->
<g id="Node000016" class="node">
<title>Node16</title>
<g id="a_Node000016"><a xlink:title=" ">
<polygon fill="#e0e0e0" stroke="#999999" points="267.75,-19.25 209.75,-19.25 209.75,0 267.75,0 267.75,-19.25"/>
<text text-anchor="middle" x="238.75" y="-5.75" font-family="Helvetica,sans-Serif" font-size="10.00">stdexcept</text>
</a>
</g>
</g>
<!-- Node13&#45;&gt;Node16 -->
<g id="edge16_Node000013_Node000016" class="edge">
<title>Node13&#45;&gt;Node16</title>
<g id="a_edge16_Node000013_Node000016"><a xlink:title=" ">
<path fill="none" stroke="#63b8ff" d="M169.83,-54.84C182.23,-46.89 200.54,-35.14 215.18,-25.75"/>
<polygon fill="#63b8ff" stroke="#63b8ff" points="216.8,-28.87 223.33,-20.52 213.02,-22.97 216.8,-28.87"/>
</a>
</g>
</g>
<!-- Node17&#45;&gt;Node5 -->
<g id="edge19_Node000017_Node000005" class="edge">
<title>Node17&#45;&gt;Node5</title>
<g id="a_edge19_Node000017_Node000005"><a xlink:title=" ">
<path fill="none" stroke="#63b8ff" d="M249.2,-110.06C274.57,-91.59 332.53,-49.38 364.17,-26.34"/>
<polygon fill="#63b8ff" stroke="#63b8ff" points="366.2,-29.19 372.22,-20.48 362.08,-23.54 366.2,-29.19"/>
</a>
</g>
</g>
<!-- Node17&#45;&gt;Node13 -->
<g id="edge18_Node000017_Node000013" class="edge">
<title>Node17&#45;&gt;Node13</title>
<g id="a_edge18_Node000017_Node000013"><a xlink:title=" ">
<path fill="none" stroke="#63b8ff" d="M223.01,-110.09C211.02,-102.21 193.38,-90.61 179.17,-81.27"/>
<polygon fill="#63b8ff" stroke="#63b8ff" points="181.1,-78.35 170.82,-75.78 177.26,-84.2 181.1,-78.35"/>
</a>
</g>
</g>
<!-- Node18 -->
<g id="Node000018" class="node">
<title>Node18</title>
<g id="a_Node000018"><a xlink:title=" ">
<polygon fill="#e0e0e0" stroke="#999999" points="286.25,-74.5 225.25,-74.5 225.25,-55.25 286.25,-55.25 286.25,-74.5"/>
<text text-anchor="middle" x="255.75" y="-61" font-family="Helvetica,sans-Serif" font-size="10.00">type_traits</text>
</a>
</g>
</g>
<!-- Node17&#45;&gt;Node18 -->
<g id="edge20_Node000017_Node000018" class="edge">
<title>Node17&#45;&gt;Node18</title>
<g id="a_edge20_Node000017_Node000018"><a xlink:title=" ">
<path fill="none" stroke="#63b8ff" d="M239.89,-110.33C242.29,-103.59 245.71,-94.02 248.75,-85.49"/>
<polygon fill="#63b8ff" stroke="#63b8ff" points="251.97,-86.88 252.04,-76.28 245.38,-84.53 251.97,-86.88"/>
</a>
</g>
</g>
<!-- Node17&#45;&gt;Node19 -->
<g id="edge21_Node000017_Node000019" class="edge">
<title>Node17&#45;&gt;Node19</title>
<g id="a_edge21_Node000017_Node000019"><a xlink:title=" ">
<path fill="none" stroke="#63b8ff" d="M262.37,-110.09C287.95,-101.07 327.38,-87.17 355.18,-77.36"/>
<polygon fill="#63b8ff" stroke="#63b8ff" points="356.24,-80.7 364.51,-74.07 353.91,-74.1 356.24,-80.7"/>
</a>
</g>
</g>
</g>
</svg>

<g id="navigator" transform="translate(0 0)" fill="#404254">
  <rect fill="#f2f5e9" fill-opacity="0.5" stroke="#606060" stroke-width=".5" x="0" y="0" width="60" height="60"/>
  <use id="zoomplus" xlink:href="#zoomPlus" x="17" y="9" onmousedown="handleZoom(evt,'in')"/>
  <use id="zoomminus" xlink:href="#zoomMin" x="42" y="9" onmousedown="handleZoom(evt,'out')"/>
  <use id="reset" xlink:href="#resetDef" x="30" y="36" onmousedown="handleReset()"/>
   <use id="arrowup" xlink:href="#arrowUp" x="0" y="0" onmousedown="handlePan(0,-1)"/>
  <use id="arrowright" xlink:href="#arrowRight" x="0" y="0" onmousedown="handlePan(1,0)"/>
  <use id="arrowdown" xlink:href="#arrowDown" x="0" y="0" onmousedown="handlePan(0,1)"/>
  <use id="arrowleft" xlink:href="#arrowLeft" x="0" y="0" onmousedown="handlePan(-1,0)"/>
</g>
<svg viewBox="0 0 15 15" width="100%" height="30px" preserveAspectRatio="xMaxYMin meet">
 <g id="arrow_out" transform="scale(0.3 0.3)">
  <a xlink:href="packet_8cpp__incl_org.svg" target="_base">
   <rect id="button" ry="5" rx="5" y="6" x="6" height="38" width="38"
        fill="#f2f5e9" fill-opacity="0.5" stroke="#606060" stroke-width="1.0"/>
   <path id="arrow"
     d="M 11.500037,31.436501 C 11.940474,20.09759 22.043105,11.32322 32.158766,21.979434 L 37.068811,17.246167 C 37.068811,17.246167 37.088388,32 37.088388,32 L 22.160133,31.978069 C 22.160133,31.978069 26.997745,27.140456 26.997745,27.140456 C 18.528582,18.264221 13.291696,25.230495 11.500037,31.436501 z"
     style="fill:#404040;"/>
  </a>
 </g>
</svg>

<style type='text/css'>
<![CDATA[
[data-mouse-over-selected='false'] { opacity: 0.7; }
[data-mouse-over-selected='true']  { opacity: 1.0; }
]]>
</style>
<script type="application/ecmascript"><![CDATA[
document.addEventListener('DOMContentLoaded', (event) => {
  highlightEdges();
  highlightAdjacentNodes();
});
]]></script>
</svg>
