<?xml version="1.0" encoding="UTF-8" standalone="no"?>
<!DOCTYPE svg PUBLIC "-//W3C//DTD SVG 1.1//EN"
 "http://www.w3.org/Graphics/SVG/1.1/DTD/svg11.dtd">
<!-- Generated by graphviz version 12.2.0 (20241103.1931)
 -->
<!-- Title: bcnp/packet.h Pages: 1 -->
<!--zoomable 293 -->

<svg id="main" version="1.1" xmlns="http://www.w3.org/2000/svg" xmlns:xlink="http://www.w3.org/1999/xlink" xml:space="preserve" onload="init(evt)">

<style type="text/css"><![CDATA[
.node, .edge {opacity: 0.7;}
.node.selected, .edge.selected {opacity: 1;}
.edge:hover path { stroke: red; }
.edge:hover polygon { stroke: red; fill: red; }
]]></style>

<defs>
  <circle id="rim" cx="0" cy="0" r="7"/>
  <circle id="rim2" cx="0" cy="0" r="3.5"/>
  <g id="zoomPlus">
    <use xlink:href="#rim" fill="#404040"><set attributeName="fill" to="#808080" begin="zoomplus.mouseover" end="zoomplus.mouseout"/></use>
    <path d="M-4,0h8M0,-4v8" fill="none" stroke="white" stroke-width="1.5" pointer-events="none"/>
  </g>
  <g id="zoomMin">
    <use xlink:href="#rim" fill="#404040"><set attributeName="fill" to="#808080" begin="zoomminus.mouseover" end="zoomminus.mouseout"/></use>
    <path d="M-4,0h8" fill="none" stroke="white" stroke-width="1.5" pointer-events="none"/>
  </g>
  <g id="arrowUp" transform="translate(30 24)">
    <use xlink:href="#rim"/>
    <path pointer-events="none" fill="none" stroke="white" stroke-width="1.5" d="M0,-3.0v7 M-2.5,-0.5L0,-3.0L2.5,-0.5"/>
  </g>
  <g id="arrowRight" transform="rotate(90) translate(36 -43)">
    <use xlink:href="#rim"/>
    <path pointer-events="none" fill="none" stroke="white" stroke-width="1.5" d="M0,-3.0v7 M-2.5,-0.5L0,-3.0L2.5,-0.5"/>
  </g>
  <g id="arrowDown" transform="rotate(180) translate(-30 -48)">
    <use xlink:href="#rim"/>
    <path pointer-events="none" fill="none" stroke="white" stroke-width="1.5" d="M0,-3.0v7 M-2.5,-0.5L0,-3.0L2.5,-0.5"/>
  </g>
  <g id="arrowLeft" transform="rotate(270) translate(-36 17)">
    <use xlink:href="#rim"/>
    <path pointer-events="none" fill="none" stroke="white" stroke-width="1.5" d="M0,-3.0v7 M-2.5,-0.5L0,-3.0L2.5,-0.5"/>
  </g>
  <g id="resetDef">
    <use xlink:href="#rim2" fill="#404040"><set attributeName="fill" to="#808080" begin="reset.mouseover" end="reset.mouseout"/></use>
  </g>
</defs>
<script type="application/ecmascript">
var viewWidth = 797;
var viewHeight = 293;
var sectionId = 'dynsection-1';
</script>
<script type="application/ecmascript" xlink:href="svg.min.js"/>
<svg id="graph" class="graph">
<g id="viewport">
<title>bcnp/packet.h</title>
<!-- Node1 -->
<g id="Node000001" class="node">
<title>Node1</title>
<g id="a_Node000001"><a xlink:title="BCNP packet structures, encoding, and decoding utilities.">
<polygon fill="#999999" stroke="#666666" points="496.5,-285.25 419.75,-285.25 419.75,-266 496.5,-266 496.5,-285.25"/>
<text text-anchor="middle" x="458.12" y="-271.75" font-family="Helvetica,sans-Serif" font-size="10.00">bcnp/packet.h</text>
</a>
</g>
</g>
<!-- Node2 -->
<g id="Node000002" class="node">
<title>Node2</title>
<g id="a_Node000002"><a xlink:href="packet_8cpp.html" target="_top" xlink:title="Implementation of BCNP packet encoding and decoding functions.">
<polygon fill="white" stroke="#666666" points="302.75,-224.38 215.5,-224.38 215.5,-205.12 302.75,-205.12 302.75,-224.38"/>
<text text-anchor="middle" x="259.12" y="-210.88" font-family="Helvetica,sans-Serif" font-size="10.00">bcnp/packet.cpp</text>
</a>
</g>
</g>
<!-- Node1&#45;&gt;Node2 -->
<g id="edge1_Node000001_Node000002" class="edge">
<title>Node1&#45;&gt;Node2</title>
<g id="a_edge1_Node000001_Node000002"><a xlink:title=" ">
<path fill="none" stroke="#63b8ff" d="M416.81,-262.4C378.98,-251.21 323.87,-234.9 289.82,-224.83"/>
<polygon fill="#63b8ff" stroke="#63b8ff" points="415.43,-265.64 426.02,-265.13 417.42,-258.93 415.43,-265.64"/>
</a>
</g>
</g>
<!-- Node3 -->
<g id="Node000003" class="node">
<title>Node3</title>
<g id="a_Node000003"><a xlink:href="spi__adapter_8h.html" target="_top" xlink:title="SPI transport adapter for BCNP (deprecated).">
<polygon fill="white" stroke="#666666" points="226,-157.88 128.25,-157.88 128.25,-138.62 226,-138.62 226,-157.88"/>
<text text-anchor="middle" x="177.12" y="-144.38" font-family="Helvetica,sans-Serif" font-size="10.00">bcnp/spi_adapter.h</text>
</a>
</g>
</g>
<!-- Node1&#45;&gt;Node3 -->
<g id="edge2_Node000001_Node000003" class="edge">
<title>Node1&#45;&gt;Node3</title>
<g id="a_edge2_Node000001_Node000003"><a xlink:title=" ">
<path fill="none" stroke="#63b8ff" d="M419.47,-261.7C398.29,-253.88 371.98,-242.93 350.12,-230 331.48,-218.98 330.96,-210.19 312.12,-199.5 279.39,-180.92 238.49,-166.82 210.33,-158.35"/>
<polygon fill="#63b8ff" stroke="#63b8ff" points="418,-264.9 428.6,-264.99 420.37,-258.31 418,-264.9"/>
</a>
</g>
</g>
<!-- Node5 -->
<g id="Node000005" class="node">
<title>Node5</title>
<g id="a_Node000005"><a xlink:href="stream__parser_8h.html" target="_top" xlink:title=" ">
<polygon fill="white" stroke="#666666" points="469,-224.38 359.25,-224.38 359.25,-205.12 469,-205.12 469,-224.38"/>
<text text-anchor="middle" x="414.12" y="-210.88" font-family="Helvetica,sans-Serif" font-size="10.00">bcnp/stream_parser.h</text>
</a>
</g>
</g>
<!-- Node1&#45;&gt;Node5 -->
<g id="edge4_Node000001_Node000005" class="edge">
<title>Node1&#45;&gt;Node5</title>
<g id="a_edge4_Node000001_Node000005"><a xlink:title=" ">
<path fill="none" stroke="#63b8ff" d="M444.59,-256.51C436.72,-245.99 427.16,-233.19 420.87,-224.78"/>
<polygon fill="#63b8ff" stroke="#63b8ff" points="441.75,-258.56 450.54,-264.47 447.35,-254.37 441.75,-258.56"/>
</a>
</g>
</g>
<!-- Node10 -->
<g id="Node000010" class="node">
<title>Node10</title>
<g id="a_Node000010"><a xlink:href="controller__driver_8cpp.html" target="_top" xlink:title=" ">
<polygon fill="white" stroke="#666666" points="517.62,-30.5 396.62,-30.5 396.62,0 517.62,0 517.62,-30.5"/>
<text text-anchor="start" x="404.62" y="-17" font-family="Helvetica,sans-Serif" font-size="10.00">bcnp/transport/controller</text>
<text text-anchor="middle" x="457.12" y="-5.75" font-family="Helvetica,sans-Serif" font-size="10.00">_driver.cpp</text>
</a>
</g>
</g>
<!-- Node1&#45;&gt;Node10 -->
<g id="edge13_Node000001_Node000010" class="edge">
<title>Node1&#45;&gt;Node10</title>
<g id="a_edge13_Node000001_Node000010"><a xlink:title=" ">
<path fill="none" stroke="#63b8ff" d="M468.38,-255.64C472.09,-247.9 475.91,-238.74 478.12,-230 495.98,-159.53 500.32,-137.14 483.12,-66.5 480.01,-53.71 473.03,-40.54 467.09,-30.9"/>
<polygon fill="#63b8ff" stroke="#63b8ff" points="465.35,-253.88 463.91,-264.38 471.58,-257.07 465.35,-253.88"/>
</a>
</g>
</g>
<!-- Node12 -->
<g id="Node000012" class="node">
<title>Node12</title>
<g id="a_Node000012"><a xlink:href="telemetry__accumulator_8h.html" target="_top" xlink:title=" ">
<polygon fill="white" stroke="#666666" points="676,-224.38 530.25,-224.38 530.25,-205.12 676,-205.12 676,-224.38"/>
<text text-anchor="middle" x="603.12" y="-210.88" font-family="Helvetica,sans-Serif" font-size="10.00">bcnp/telemetry_accumulator.h</text>
</a>
</g>
</g>
<!-- Node1&#45;&gt;Node12 -->
<g id="edge12_Node000001_Node000012" class="edge">
<title>Node1&#45;&gt;Node12</title>
<g id="a_edge12_Node000001_Node000012"><a xlink:title=" ">
<path fill="none" stroke="#63b8ff" d="M490.78,-261.37C518.31,-250.19 556.96,-234.49 581,-224.73"/>
<polygon fill="#63b8ff" stroke="#63b8ff" points="489.81,-257.98 481.87,-264.99 492.45,-264.47 489.81,-257.98"/>
</a>
</g>
</g>
<!-- Node13 -->
<g id="Node000013" class="node">
<title>Node13</title>
<g id="a_Node000013"><a xlink:href="tcp__posix_8h.html" target="_top" xlink:title=" ">
<polygon fill="white" stroke="#666666" points="788.5,-230 693.75,-230 693.75,-199.5 788.5,-199.5 788.5,-230"/>
<text text-anchor="start" x="701.75" y="-216.5" font-family="Helvetica,sans-Serif" font-size="10.00">bcnp/transport/tcp</text>
<text text-anchor="middle" x="741.12" y="-205.25" font-family="Helvetica,sans-Serif" font-size="10.00">_posix.h</text>
</a>
</g>
</g>
<!-- Node1&#45;&gt;Node13 -->
<g id="edge14_Node000001_Node000013" class="edge">
<title>Node1&#45;&gt;Node13</title>
<g id="a_edge14_Node000001_Node000013"><a xlink:title=" ">
<path fill="none" stroke="#63b8ff" d="M508,-265.64C554.1,-257.14 624.44,-243.67 685.12,-230 687.87,-229.38 690.68,-228.73 693.51,-228.06"/>
<polygon fill="#63b8ff" stroke="#63b8ff" points="507.51,-262.17 498.31,-267.42 508.78,-269.05 507.51,-262.17"/>
</a>
</g>
</g>
<!-- Node4 -->
<g id="Node000004" class="node">
<title>Node4</title>
<g id="a_Node000004"><a xlink:href="spi__adapter_8cpp.html" target="_top" xlink:title="Implementation of the deprecated SPI transport adapter.">
<polygon fill="white" stroke="#666666" points="108.25,-91.38 0,-91.38 0,-72.12 108.25,-72.12 108.25,-91.38"/>
<text text-anchor="middle" x="54.12" y="-77.88" font-family="Helvetica,sans-Serif" font-size="10.00">bcnp/spi_adapter.cpp</text>
</a>
</g>
</g>
<!-- Node3&#45;&gt;Node4 -->
<g id="edge3_Node000003_Node000004" class="edge">
<title>Node3&#45;&gt;Node4</title>
<g id="a_edge3_Node000003_Node000004"><a xlink:title=" ">
<path fill="none" stroke="#63b8ff" d="M149.87,-132.96C125.92,-120.4 91.78,-102.5 71.4,-91.81"/>
<polygon fill="#63b8ff" stroke="#63b8ff" points="147.94,-135.9 158.42,-137.44 151.19,-129.7 147.94,-135.9"/>
</a>
</g>
</g>
<!-- Node5&#45;&gt;Node3 -->
<g id="edge10_Node000005_Node000003" class="edge">
<title>Node5&#45;&gt;Node3</title>
<g id="a_edge10_Node000005_Node000003"><a xlink:title=" ">
<path fill="none" stroke="#63b8ff" d="M369.77,-201.68C323.52,-189.09 252.06,-169.64 210.41,-158.31"/>
<polygon fill="#63b8ff" stroke="#63b8ff" points="368.64,-205 379.21,-204.25 370.48,-198.24 368.64,-205"/>
</a>
</g>
</g>
<!-- Node6 -->
<g id="Node000006" class="node">
<title>Node6</title>
<g id="a_Node000006"><a xlink:href="dispatcher_8h.html" target="_top" xlink:title=" ">
<polygon fill="white" stroke="#666666" points="336.38,-157.88 243.88,-157.88 243.88,-138.62 336.38,-138.62 336.38,-157.88"/>
<text text-anchor="middle" x="290.12" y="-144.38" font-family="Helvetica,sans-Serif" font-size="10.00">bcnp/dispatcher.h</text>
</a>
</g>
</g>
<!-- Node5&#45;&gt;Node6 -->
<g id="edge5_Node000005_Node000006" class="edge">
<title>Node5&#45;&gt;Node6</title>
<g id="a_edge5_Node000005_Node000006"><a xlink:title=" ">
<path fill="none" stroke="#63b8ff" d="M386.65,-199.46C362.5,-186.9 328.09,-169 307.54,-158.31"/>
<polygon fill="#63b8ff" stroke="#63b8ff" points="384.79,-202.44 395.28,-203.95 388.02,-196.23 384.79,-202.44"/>
</a>
</g>
</g>
<!-- Node11 -->
<g id="Node000011" class="node">
<title>Node11</title>
<g id="a_Node000011"><a xlink:href="stream__parser_8cpp.html" target="_top" xlink:title="Implementation of the BCNP stream parser.">
<polygon fill="white" stroke="#666666" points="474.25,-157.88 354,-157.88 354,-138.62 474.25,-138.62 474.25,-157.88"/>
<text text-anchor="middle" x="414.12" y="-144.38" font-family="Helvetica,sans-Serif" font-size="10.00">bcnp/stream_parser.cpp</text>
</a>
</g>
</g>
<!-- Node5&#45;&gt;Node11 -->
<g id="edge11_Node000005_Node000011" class="edge">
<title>Node5&#45;&gt;Node11</title>
<g id="a_edge11_Node000005_Node000011"><a xlink:title=" ">
<path fill="none" stroke="#63b8ff" d="M414.12,-193.27C414.12,-181.44 414.12,-167.16 414.12,-158.14"/>
<polygon fill="#63b8ff" stroke="#63b8ff" points="410.63,-193.27 414.13,-203.27 417.63,-193.27 410.63,-193.27"/>
</a>
</g>
</g>
<!-- Node7 -->
<g id="Node000007" class="node">
<title>Node7</title>
<g id="a_Node000007"><a xlink:href="controller_8h.html" target="_top" xlink:title=" ">
<polygon fill="white" stroke="#666666" points="213.75,-91.38 126.5,-91.38 126.5,-72.12 213.75,-72.12 213.75,-91.38"/>
<text text-anchor="middle" x="170.12" y="-77.88" font-family="Helvetica,sans-Serif" font-size="10.00">bcnp/controller.h</text>
</a>
</g>
</g>
<!-- Node6&#45;&gt;Node7 -->
<g id="edge6_Node000006_Node000007" class="edge">
<title>Node6&#45;&gt;Node7</title>
<g id="a_edge6_Node000006_Node000007"><a xlink:title=" ">
<path fill="none" stroke="#63b8ff" d="M263.22,-132.79C239.87,-120.24 206.77,-102.45 186.98,-91.81"/>
<polygon fill="#63b8ff" stroke="#63b8ff" points="261.39,-135.78 271.85,-137.43 264.7,-129.61 261.39,-135.78"/>
</a>
</g>
</g>
<!-- Node8 -->
<g id="Node000008" class="node">
<title>Node8</title>
<g id="a_Node000008"><a xlink:href="dispatcher_8cpp.html" target="_top" xlink:title="Implementation of the BCNP packet dispatcher.">
<polygon fill="white" stroke="#666666" points="334.62,-91.38 231.62,-91.38 231.62,-72.12 334.62,-72.12 334.62,-91.38"/>
<text text-anchor="middle" x="283.12" y="-77.88" font-family="Helvetica,sans-Serif" font-size="10.00">bcnp/dispatcher.cpp</text>
</a>
</g>
</g>
<!-- Node6&#45;&gt;Node8 -->
<g id="edge7_Node000006_Node000008" class="edge">
<title>Node6&#45;&gt;Node8</title>
<g id="a_edge7_Node000006_Node000008"><a xlink:title=" ">
<path fill="none" stroke="#63b8ff" d="M287.94,-127.15C286.65,-115.25 285.08,-100.76 284.09,-91.64"/>
<polygon fill="#63b8ff" stroke="#63b8ff" points="284.43,-127.21 288.99,-136.78 291.39,-126.46 284.43,-127.21"/>
</a>
</g>
</g>
<!-- Node9 -->
<g id="Node000009" class="node">
<title>Node9</title>
<g id="a_Node000009"><a xlink:href="controller__driver_8h.html" target="_top" xlink:title=" ">
<polygon fill="white" stroke="#666666" points="473.62,-97 352.62,-97 352.62,-66.5 473.62,-66.5 473.62,-97"/>
<text text-anchor="start" x="360.62" y="-83.5" font-family="Helvetica,sans-Serif" font-size="10.00">bcnp/transport/controller</text>
<text text-anchor="middle" x="413.12" y="-72.25" font-family="Helvetica,sans-Serif" font-size="10.00">_driver.h</text>
</a>
</g>
</g>
<!-- Node6&#45;&gt;Node9 -->
<g id="edge8_Node000006_Node000009" class="edge">
<title>Node6&#45;&gt;Node9</title>
<g id="a_edge8_Node000006_Node000009"><a xlink:title=" ">
<path fill="none" stroke="#63b8ff" d="M317.61,-132.84C337.81,-122.24 365.17,-107.9 385.42,-97.28"/>
<polygon fill="#63b8ff" stroke="#63b8ff" points="316.06,-129.7 308.83,-137.44 319.31,-135.9 316.06,-129.7"/>
</a>
</g>
</g>
<!-- Node9&#45;&gt;Node10 -->
<g id="edge9_Node000009_Node000010" class="edge">
<title>Node9&#45;&gt;Node10</title>
<g id="a_edge9_Node000009_Node000010"><a xlink:title=" ">
<path fill="none" stroke="#63b8ff" d="M429.47,-56.79C435.42,-48.07 441.95,-38.49 447.18,-30.83"/>
<polygon fill="#63b8ff" stroke="#63b8ff" points="426.71,-54.63 423.96,-64.86 432.49,-58.58 426.71,-54.63"/>
</a>
</g>
</g>
<!-- Node14 -->
<g id="Node000014" class="node">
<title>Node14</title>
<g id="a_Node000014"><a xlink:href="tcp__posix_8cpp.html" target="_top" xlink:title="TCP transport adapter implementation for POSIX systems.">
<polygon fill="white" stroke="#666666" points="788.5,-163.5 693.75,-163.5 693.75,-133 788.5,-133 788.5,-163.5"/>
<text text-anchor="start" x="701.75" y="-150" font-family="Helvetica,sans-Serif" font-size="10.00">bcnp/transport/tcp</text>
<text text-anchor="middle" x="741.12" y="-138.75" font-family="Helvetica,sans-Serif" font-size="10.00">_posix.cpp</text>
</a>
</g>
</g>
<!-- Node13&#45;&gt;Node14 -->
<g id="edge15_Node000013_Node000014" class="edge">
<title>Node13&#45;&gt;Node14</title>
<g id="a_edge15_Node000013_Node000014"><a xlink:title=" ">
<path fill="none" stroke="#63b8ff" d="M741.12,-187.81C741.12,-179.64 741.12,-170.91 741.12,-163.83"/>
<polygon fill="#63b8ff" stroke="#63b8ff" points="737.63,-187.6 741.13,-197.6 744.63,-187.6 737.63,-187.6"/>
</a>
</g>
</g>
</g>
</svg>

<g id="navigator" transform="translate(0 0)" fill="#404254">
  <rect fill="#f2f5e9" fill-opacity="0.5" stroke="#606060" stroke-width=".5" x="0" y="0" width="60" height="60"/>
  <use id="zoomplus" xlink:href="#zoomPlus" x="17" y="9" onmousedown="handleZoom(evt,'in')"/>
  <use id="zoomminus" xlink:href="#zoomMin" x="42" y="9" onmousedown="handleZoom(evt,'out')"/>
  <use id="reset" xlink:href="#resetDef" x="30" y="36" onmousedown="handleReset()"/>
   <use id="arrowup" xlink:href="#arrowUp" x="0" y="0" onmousedown="handlePan(0,-1)"/>
  <use id="arrowright" xlink:href="#arrowRight" x="0" y="0" onmousedown="handlePan(1,0)"/>
  <use id="arrowdown" xlink:href="#arrowDown" x="0" y="0" onmousedown="handlePan(0,1)"/>
  <use id="arrowleft" xlink:href="#arrowLeft" x="0" y="0" onmousedown="handlePan(-1,0)"/>
</g>
<svg viewBox="0 0 15 15" width="100%" height="30px" preserveAspectRatio="xMaxYMin meet">
 <g id="arrow_out" transform="scale(0.3 0.3)">
  <a xlink:href="packet_8h__dep__incl_org.svg" target="_base">
   <rect id="button" ry="5" rx="5" y="6" x="6" height="38" width="38"
        fill="#f2f5e9" fill-opacity="0.5" stroke="#606060" stroke-width="1.0"/>
   <path id="arrow"
     d="M 11.500037,31.436501 C 11.940474,20.09759 22.043105,11.32322 32.158766,21.979434 L 37.068811,17.246167 C 37.068811,17.246167 37.088388,32 37.088388,32 L 22.160133,31.978069 C 22.160133,31.978069 26.997745,27.140456 26.997745,27.140456 C 18.528582,18.264221 13.291696,25.230495 11.500037,31.436501 z"
     style="fill:#404040;"/>
  </a>
 </g>
</svg>

<style type='text/css'>
<![CDATA[
[data-mouse-over-selected='false'] { opacity: 0.7; }
[data-mouse-over-selected='true']  { opacity: 1.0; }
]]>
</style>
<script type="application/ecmascript"><![CDATA[
document.addEventListener('DOMContentLoaded', (event) => {
  highlightEdges();
  highlightAdjacentNodes();
});
]]></script>
</svg>
