<?xml version="1.0" encoding="UTF-8" standalone="no"?>
<!DOCTYPE svg PUBLIC "-//W3C//DTD SVG 1.1//EN"
 "http://www.w3.org/Graphics/SVG/1.1/DTD/svg11.dtd">
<!-- Generated by graphviz version 12.2.0 (20241103.1931)
 -->
<!-- Title: bcnp/packet_storage.h Pages: 1 -->
<svg width="410pt" height="138pt"
 viewBox="0.00 0.00 409.62 137.75" xmlns="http://www.w3.org/2000/svg" xmlns:xlink="http://www.w3.org/1999/xlink">

<svg id="main" version="1.1" xmlns="http://www.w3.org/2000/svg" xmlns:xlink="http://www.w3.org/1999/xlink" xml:space="preserve">

<style type="text/css"><![CDATA[
.node, .edge {opacity: 0.7;}
.node.selected, .edge.selected {opacity: 1;}
.edge:hover path { stroke: red; }
.edge:hover polygon { stroke: red; fill: red; }
]]></style>
<script type="application/ecmascript" xlink:href="svg.min.js"/>
<svg id="graph" class="graph">
<g id="graph0" class="graph" transform="scale(1 1) rotate(0) translate(4 133.75)">
<title>bcnp/packet_storage.h</title>
<!-- Node1 -->
<g id="Node000001" class="node">
<title>Node1</title>
<g id="a_Node000001"><a xlink:title=" ">
<polygon fill="#999999" stroke="#666666" points="302.25,-129.75 188,-129.75 188,-110.5 302.25,-110.5 302.25,-129.75"/>
<text text-anchor="middle" x="245.12" y="-116.25" font-family="Helvetica,sans-Serif" font-size="10.00">bcnp/packet_storage.h</text>
</a>
</g>
</g>
<!-- Node2 -->
<g id="Node000002" class="node">
<title>Node2</title>
<g id="a_Node000002"><a xlink:href="static__vector_8h.html" target="_top" xlink:title="Fixed&#45;capacity vector with stack allocation (no heap).">
<polygon fill="white" stroke="#666666" points="257,-74.5 153.25,-74.5 153.25,-55.25 257,-55.25 257,-74.5"/>
<text text-anchor="middle" x="205.12" y="-61" font-family="Helvetica,sans-Serif" font-size="10.00">bcnp/static_vector.h</text>
</a>
</g>
</g>
<!-- Node1&#45;&gt;Node2 -->
<g id="edge1_Node000001_Node000002" class="edge">
<title>Node1&#45;&gt;Node2</title>
<g id="a_edge1_Node000001_Node000002"><a xlink:title=" ">
<path fill="none" stroke="#63b8ff" d="M238.52,-110.33C233.17,-103.21 225.45,-92.93 218.78,-84.05"/>
<polygon fill="#63b8ff" stroke="#63b8ff" points="221.59,-81.96 212.78,-76.07 215.99,-86.17 221.59,-81.96"/>
</a>
</g>
</g>
<!-- Node3 -->
<g id="Node000003" class="node">
<title>Node3</title>
<g id="a_Node000003"><a xlink:title=" ">
<polygon fill="#e0e0e0" stroke="#999999" points="48.25,-19.25 0,-19.25 0,0 48.25,0 48.25,-19.25"/>
<text text-anchor="middle" x="24.12" y="-5.75" font-family="Helvetica,sans-Serif" font-size="10.00">cstddef</text>
</a>
</g>
</g>
<!-- Node1&#45;&gt;Node3 -->
<g id="edge8_Node000001_Node000003" class="edge">
<title>Node1&#45;&gt;Node3</title>
<g id="a_edge8_Node000001_Node000003"><a xlink:title=" ">
<path fill="none" stroke="#63b8ff" d="M223.24,-110C202.64,-101.29 171.02,-87.58 144.12,-74.5 111.22,-58.5 74.15,-38.45 50.03,-25.12"/>
<polygon fill="#63b8ff" stroke="#63b8ff" points="52,-22.21 41.56,-20.42 48.6,-28.33 52,-22.21"/>
</a>
</g>
</g>
<!-- Node7 -->
<g id="Node000007" class="node">
<title>Node7</title>
<g id="a_Node000007"><a xlink:title=" ">
<polygon fill="#e0e0e0" stroke="#999999" points="401.62,-19.25 340.62,-19.25 340.62,0 401.62,0 401.62,-19.25"/>
<text text-anchor="middle" x="371.12" y="-5.75" font-family="Helvetica,sans-Serif" font-size="10.00">type_traits</text>
</a>
</g>
</g>
<!-- Node1&#45;&gt;Node7 -->
<g id="edge9_Node000001_Node000007" class="edge">
<title>Node1&#45;&gt;Node7</title>
<g id="a_edge9_Node000001_Node000007"><a xlink:title=" ">
<path fill="none" stroke="#63b8ff" d="M252.34,-110.27C263.08,-97.37 284.28,-73.01 305.12,-55.25 317.92,-44.35 333.44,-33.74 346.21,-25.61"/>
<polygon fill="#63b8ff" stroke="#63b8ff" points="347.84,-28.71 354.48,-20.45 344.14,-22.77 347.84,-28.71"/>
</a>
</g>
</g>
<!-- Node9 -->
<g id="Node000009" class="node">
<title>Node9</title>
<g id="a_Node000009"><a xlink:title=" ">
<polygon fill="#e0e0e0" stroke="#999999" points="356.62,-74.5 313.62,-74.5 313.62,-55.25 356.62,-55.25 356.62,-74.5"/>
<text text-anchor="middle" x="335.12" y="-61" font-family="Helvetica,sans-Serif" font-size="10.00">vector</text>
</a>
</g>
</g>
<!-- Node1&#45;&gt;Node9 -->
<g id="edge10_Node000001_Node000009" class="edge">
<title>Node1&#45;&gt;Node9</title>
<g id="a_edge10_Node000001_Node000009"><a xlink:title=" ">
<path fill="none" stroke="#63b8ff" d="M260.39,-110.09C273.97,-102.06 294.08,-90.16 310.02,-80.73"/>
<polygon fill="#63b8ff" stroke="#63b8ff" points="311.66,-83.83 318.48,-75.72 308.09,-77.8 311.66,-83.83"/>
</a>
</g>
</g>
<!-- Node2&#45;&gt;Node3 -->
<g id="edge2_Node000002_Node000003" class="edge">
<title>Node2&#45;&gt;Node3</title>
<g id="a_edge2_Node000002_Node000003"><a xlink:title=" ">
<path fill="none" stroke="#63b8ff" d="M174.42,-54.84C142.52,-45.46 92.69,-30.8 59.25,-20.96"/>
<polygon fill="#63b8ff" stroke="#63b8ff" points="60.62,-17.71 50.03,-18.25 58.64,-24.43 60.62,-17.71"/>
</a>
</g>
</g>
<!-- Node4 -->
<g id="Node000004" class="node">
<title>Node4</title>
<g id="a_Node000004"><a xlink:title=" ">
<polygon fill="#e0e0e0" stroke="#999999" points="137.88,-19.25 66.38,-19.25 66.38,0 137.88,0 137.88,-19.25"/>
<text text-anchor="middle" x="102.12" y="-5.75" font-family="Helvetica,sans-Serif" font-size="10.00">initializer_list</text>
</a>
</g>
</g>
<!-- Node2&#45;&gt;Node4 -->
<g id="edge3_Node000002_Node000004" class="edge">
<title>Node2&#45;&gt;Node4</title>
<g id="a_edge3_Node000002_Node000004"><a xlink:title=" ">
<path fill="none" stroke="#63b8ff" d="M187.65,-54.84C171.82,-46.66 148.22,-34.46 129.82,-24.94"/>
<polygon fill="#63b8ff" stroke="#63b8ff" points="131.52,-21.88 121.03,-20.4 128.3,-28.1 131.52,-21.88"/>
</a>
</g>
</g>
<!-- Node5 -->
<g id="Node000005" class="node">
<title>Node5</title>
<g id="a_Node000005"><a xlink:title=" ">
<polygon fill="#e0e0e0" stroke="#999999" points="190.12,-19.25 156.12,-19.25 156.12,0 190.12,0 190.12,-19.25"/>
<text text-anchor="middle" x="173.12" y="-5.75" font-family="Helvetica,sans-Serif" font-size="10.00">new</text>
</a>
</g>
</g>
<!-- Node2&#45;&gt;Node5 -->
<g id="edge4_Node000002_Node000005" class="edge">
<title>Node2&#45;&gt;Node5</title>
<g id="a_edge4_Node000002_Node000005"><a xlink:title=" ">
<path fill="none" stroke="#63b8ff" d="M199.84,-55.08C195.65,-48.11 189.65,-38.12 184.39,-29.37"/>
<polygon fill="#63b8ff" stroke="#63b8ff" points="187.45,-27.68 179.3,-20.91 181.45,-31.28 187.45,-27.68"/>
</a>
</g>
</g>
<!-- Node6 -->
<g id="Node000006" class="node">
<title>Node6</title>
<g id="a_Node000006"><a xlink:title=" ">
<polygon fill="#e0e0e0" stroke="#999999" points="266.12,-19.25 208.12,-19.25 208.12,0 266.12,0 266.12,-19.25"/>
<text text-anchor="middle" x="237.12" y="-5.75" font-family="Helvetica,sans-Serif" font-size="10.00">stdexcept</text>
</a>
</g>
</g>
<!-- Node2&#45;&gt;Node6 -->
<g id="edge5_Node000002_Node000006" class="edge">
<title>Node2&#45;&gt;Node6</title>
<g id="a_edge5_Node000002_Node000006"><a xlink:title=" ">
<path fill="none" stroke="#63b8ff" d="M210.41,-55.08C214.6,-48.11 220.6,-38.12 225.86,-29.37"/>
<polygon fill="#63b8ff" stroke="#63b8ff" points="228.8,-31.28 230.95,-20.91 222.8,-27.68 228.8,-31.28"/>
</a>
</g>
</g>
<!-- Node2&#45;&gt;Node7 -->
<g id="edge6_Node000002_Node000007" class="edge">
<title>Node2&#45;&gt;Node7</title>
<g id="a_edge6_Node000002_Node000007"><a xlink:title=" ">
<path fill="none" stroke="#63b8ff" d="M233.28,-54.84C260.47,-46.12 301.87,-32.84 332.2,-23.11"/>
<polygon fill="#63b8ff" stroke="#63b8ff" points="332.93,-26.55 341.39,-20.16 330.79,-19.89 332.93,-26.55"/>
</a>
</g>
</g>
<!-- Node8 -->
<g id="Node000008" class="node">
<title>Node8</title>
<g id="a_Node000008"><a xlink:title=" ">
<polygon fill="#e0e0e0" stroke="#999999" points="322.38,-19.25 283.88,-19.25 283.88,0 322.38,0 322.38,-19.25"/>
<text text-anchor="middle" x="303.12" y="-5.75" font-family="Helvetica,sans-Serif" font-size="10.00">utility</text>
</a>
</g>
</g>
<!-- Node2&#45;&gt;Node8 -->
<g id="edge7_Node000002_Node000008" class="edge">
<title>Node2&#45;&gt;Node8</title>
<g id="a_edge7_Node000002_Node000008"><a xlink:title=" ">
<path fill="none" stroke="#63b8ff" d="M221.75,-54.84C236.81,-46.66 259.27,-34.46 276.78,-24.94"/>
<polygon fill="#63b8ff" stroke="#63b8ff" points="277.97,-28.27 285.09,-20.43 274.63,-22.12 277.97,-28.27"/>
</a>
</g>
</g>
</g>
</svg>
</svg>

<style type='text/css'>
<![CDATA[
[data-mouse-over-selected='false'] { opacity: 0.7; }
[data-mouse-over-selected='true']  { opacity: 1.0; }
]]>
</style>
<script type="application/ecmascript"><![CDATA[
document.addEventListener('DOMContentLoaded', (event) => {
  highlightEdges();
  highlightAdjacentNodes();
});
]]></script>
</svg>
