<?xml version="1.0" encoding="UTF-8" standalone="no"?>
<!DOCTYPE svg PUBLIC "-//W3C//DTD SVG 1.1//EN"
 "http://www.w3.org/Graphics/SVG/1.1/DTD/svg11.dtd">
<!-- Generated by graphviz version 12.2.0 (20241103.1931)
 -->
<!-- Title: bcnp/spi_adapter.h Pages: 1 -->
<svg width="938pt" height="304pt"
 viewBox="0.00 0.00 938.39 303.50" xmlns="http://www.w3.org/2000/svg" xmlns:xlink="http://www.w3.org/1999/xlink">
<g id="graph0" class="graph" transform="scale(1 1) rotate(0) translate(4 299.5)">
<title>bcnp/spi_adapter.h</title>
<!-- Node1 -->
<g id="Node000001" class="node">
<title>Node1</title>
<g id="a_Node000001"><a xlink:title="SPI transport adapter for BCNP (deprecated).">
<polygon fill="#999999" stroke="#666666" points="746.38,-295.5 648.62,-295.5 648.62,-276.25 746.38,-276.25 746.38,-295.5"/>
<text text-anchor="middle" x="697.5" y="-282" font-family="Helvetica,sans-Serif" font-size="10.00">bcnp/spi_adapter.h</text>
</a>
</g>
</g>
<!-- Node2 -->
<g id="Node000002" class="node">
<title>Node2</title>
<g id="a_Node000002"><a xlink:href="packet_8h.html" target="_top" xlink:title="BCNP packet structures, encoding, and decoding utilities.">
<polygon fill="white" stroke="#666666" points="360.88,-185 284.12,-185 284.12,-165.75 360.88,-165.75 360.88,-185"/>
<text text-anchor="middle" x="322.5" y="-171.5" font-family="Helvetica,sans-Serif" font-size="10.00">bcnp/packet.h</text>
</a>
</g>
</g>
<!-- Node1&#45;&gt;Node2 -->
<g id="edge1_Node000001_Node000002" class="edge">
<title>Node1&#45;&gt;Node2</title>
<g id="a_edge1_Node000001_Node000002"><a xlink:title=" ">
<path fill="none" stroke="#63b8ff" d="M666.17,-275.81C599.03,-256.38 441.2,-210.72 365.06,-188.69"/>
<polygon fill="#63b8ff" stroke="#63b8ff" points="366.03,-185.33 355.46,-185.91 364.09,-192.05 366.03,-185.33"/>
</a>
</g>
</g>
<!-- Node5 -->
<g id="Node000005" class="node">
<title>Node5</title>
<g id="a_Node000005"><a xlink:title=" ">
<polygon fill="#e0e0e0" stroke="#999999" points="593.62,-19.25 545.38,-19.25 545.38,0 593.62,0 593.62,-19.25"/>
<text text-anchor="middle" x="569.5" y="-5.75" font-family="Helvetica,sans-Serif" font-size="10.00">cstddef</text>
</a>
</g>
</g>
<!-- Node1&#45;&gt;Node5 -->
<g id="edge35_Node000001_Node000005" class="edge">
<title>Node1&#45;&gt;Node5</title>
<g id="a_edge35_Node000001_Node000005"><a xlink:title=" ">
<path fill="none" stroke="#63b8ff" d="M746.7,-283.03C814.8,-277.54 929.5,-256.41 929.5,-176.38 929.5,-176.38 929.5,-176.38 929.5,-119.12 929.5,-89.51 933.04,-74.46 910.5,-55.25 865.12,-16.57 682.95,-11.08 605.09,-10.54"/>
<polygon fill="#63b8ff" stroke="#63b8ff" points="605.48,-7.04 595.47,-10.5 605.45,-14.04 605.48,-7.04"/>
</a>
</g>
</g>
<!-- Node6 -->
<g id="Node000006" class="node">
<title>Node6</title>
<g id="a_Node000006"><a xlink:title=" ">
<polygon fill="#e0e0e0" stroke="#999999" points="749.12,-74.5 703.88,-74.5 703.88,-55.25 749.12,-55.25 749.12,-74.5"/>
<text text-anchor="middle" x="726.5" y="-61" font-family="Helvetica,sans-Serif" font-size="10.00">cstdint</text>
</a>
</g>
</g>
<!-- Node1&#45;&gt;Node6 -->
<g id="edge36_Node000001_Node000006" class="edge">
<title>Node1&#45;&gt;Node6</title>
<g id="a_edge36_Node000001_Node000006"><a xlink:title=" ">
<path fill="none" stroke="#63b8ff" d="M703.72,-275.79C709.28,-267.1 717.07,-253.41 720.5,-240.25 734.67,-185.91 731.47,-118.83 728.62,-85.95"/>
<polygon fill="#63b8ff" stroke="#63b8ff" points="732.13,-85.91 727.69,-76.29 725.16,-86.58 732.13,-85.91"/>
</a>
</g>
</g>
<!-- Node9 -->
<g id="Node000009" class="node">
<title>Node9</title>
<g id="a_Node000009"><a xlink:title=" ">
<polygon fill="#e0e0e0" stroke="#999999" points="901.5,-74.5 843.5,-74.5 843.5,-55.25 901.5,-55.25 901.5,-74.5"/>
<text text-anchor="middle" x="872.5" y="-61" font-family="Helvetica,sans-Serif" font-size="10.00">functional</text>
</a>
</g>
</g>
<!-- Node1&#45;&gt;Node9 -->
<g id="edge37_Node000001_Node000009" class="edge">
<title>Node1&#45;&gt;Node9</title>
<g id="a_edge37_Node000001_Node000009"><a xlink:title=" ">
<path fill="none" stroke="#63b8ff" d="M718.57,-275.86C750.93,-261.09 813.15,-228.93 851.5,-185 874.56,-158.58 879.46,-145.52 877.5,-110.5 877.05,-102.42 876.14,-93.56 875.22,-85.88"/>
<polygon fill="#63b8ff" stroke="#63b8ff" points="878.73,-85.71 873.98,-76.24 871.79,-86.61 878.73,-85.71"/>
</a>
</g>
</g>
<!-- Node20 -->
<g id="Node000020" class="node">
<title>Node20</title>
<g id="a_Node000020"><a xlink:title=" ">
<polygon fill="#e0e0e0" stroke="#999999" points="43,-74.5 0,-74.5 0,-55.25 43,-55.25 43,-74.5"/>
<text text-anchor="middle" x="21.5" y="-61" font-family="Helvetica,sans-Serif" font-size="10.00">vector</text>
</a>
</g>
</g>
<!-- Node1&#45;&gt;Node20 -->
<g id="edge38_Node000001_Node000020" class="edge">
<title>Node1&#45;&gt;Node20</title>
<g id="a_edge38_Node000001_Node000020"><a xlink:title=" ">
<path fill="none" stroke="#63b8ff" d="M651.03,-275.82C607.59,-267.2 540.98,-253.61 483.5,-240.25 290.88,-195.5 205.65,-254.86 52.5,-129.75 38.78,-118.54 30.69,-99.78 26.24,-85.48"/>
<polygon fill="#63b8ff" stroke="#63b8ff" points="29.73,-84.97 23.71,-76.25 22.97,-86.81 29.73,-84.97"/>
</a>
</g>
</g>
<!-- Node21 -->
<g id="Node000021" class="node">
<title>Node21</title>
<g id="a_Node000021"><a xlink:href="stream__parser_8h.html" target="_top" xlink:title=" ">
<polygon fill="white" stroke="#666666" points="711.38,-240.25 601.62,-240.25 601.62,-221 711.38,-221 711.38,-240.25"/>
<text text-anchor="middle" x="656.5" y="-226.75" font-family="Helvetica,sans-Serif" font-size="10.00">bcnp/stream_parser.h</text>
</a>
</g>
</g>
<!-- Node1&#45;&gt;Node21 -->
<g id="edge28_Node000001_Node000021" class="edge">
<title>Node1&#45;&gt;Node21</title>
<g id="a_edge28_Node000001_Node000021"><a xlink:title=" ">
<path fill="none" stroke="#63b8ff" d="M690.73,-276.08C685.18,-268.88 677.16,-258.46 670.27,-249.51"/>
<polygon fill="#63b8ff" stroke="#63b8ff" points="673.21,-247.6 664.34,-241.81 667.67,-251.87 673.21,-247.6"/>
</a>
</g>
</g>
<!-- Node3 -->
<g id="Node000003" class="node">
<title>Node3</title>
<g id="a_Node000003"><a xlink:href="message__types_8h.html" target="_top" xlink:title=" ">
<polygon fill="white" stroke="#666666" points="583.38,-129.75 467.62,-129.75 467.62,-110.5 583.38,-110.5 583.38,-129.75"/>
<text text-anchor="middle" x="525.5" y="-116.25" font-family="Helvetica,sans-Serif" font-size="10.00">bcnp/message_types.h</text>
</a>
</g>
</g>
<!-- Node2&#45;&gt;Node3 -->
<g id="edge2_Node000002_Node000003" class="edge">
<title>Node2&#45;&gt;Node3</title>
<g id="a_edge2_Node000002_Node000003"><a xlink:title=" ">
<path fill="none" stroke="#63b8ff" d="M356.94,-165.34C390.77,-156.47 442.59,-142.87 479.84,-133.1"/>
<polygon fill="#63b8ff" stroke="#63b8ff" points="480.65,-136.51 489.43,-130.59 478.87,-129.74 480.65,-136.51"/>
</a>
</g>
</g>
<!-- Node2&#45;&gt;Node5 -->
<g id="edge24_Node000002_Node000005" class="edge">
<title>Node2&#45;&gt;Node5</title>
<g id="a_edge24_Node000002_Node000005"><a xlink:title=" ">
<path fill="none" stroke="#63b8ff" d="M315.09,-165.44C298.14,-143.9 260.15,-88.46 288.5,-55.25 296.43,-45.96 460.05,-24.36 533.89,-15.04"/>
<polygon fill="#63b8ff" stroke="#63b8ff" points="533.94,-18.56 543.43,-13.84 533.07,-11.61 533.94,-18.56"/>
</a>
</g>
</g>
<!-- Node2&#45;&gt;Node6 -->
<g id="edge25_Node000002_Node000006" class="edge">
<title>Node2&#45;&gt;Node6</title>
<g id="a_edge25_Node000002_Node000006"><a xlink:title=" ">
<path fill="none" stroke="#63b8ff" d="M361.3,-171.41C414.47,-166.57 512.5,-154.88 592.5,-129.75 632.26,-117.26 675.26,-95.06 701.54,-80.4"/>
<polygon fill="#63b8ff" stroke="#63b8ff" points="703.11,-83.54 710.08,-75.56 699.66,-77.45 703.11,-83.54"/>
</a>
</g>
</g>
<!-- Node11 -->
<g id="Node000011" class="node">
<title>Node11</title>
<g id="a_Node000011"><a xlink:title=" ">
<polygon fill="#e0e0e0" stroke="#999999" points="347.38,-74.5 297.62,-74.5 297.62,-55.25 347.38,-55.25 347.38,-74.5"/>
<text text-anchor="middle" x="322.5" y="-61" font-family="Helvetica,sans-Serif" font-size="10.00">optional</text>
</a>
</g>
</g>
<!-- Node2&#45;&gt;Node11 -->
<g id="edge26_Node000002_Node000011" class="edge">
<title>Node2&#45;&gt;Node11</title>
<g id="a_edge26_Node000002_Node000011"><a xlink:title=" ">
<path fill="none" stroke="#63b8ff" d="M322.5,-165.5C322.5,-148.25 322.5,-109.83 322.5,-86.06"/>
<polygon fill="#63b8ff" stroke="#63b8ff" points="326,-86.39 322.5,-76.39 319,-86.39 326,-86.39"/>
</a>
</g>
</g>
<!-- Node13 -->
<g id="Node000013" class="node">
<title>Node13</title>
<g id="a_Node000013"><a xlink:href="static__vector_8h.html" target="_top" xlink:title="Fixed&#45;capacity vector with stack allocation (no heap).">
<polygon fill="white" stroke="#666666" points="203.38,-74.5 99.62,-74.5 99.62,-55.25 203.38,-55.25 203.38,-74.5"/>
<text text-anchor="middle" x="151.5" y="-61" font-family="Helvetica,sans-Serif" font-size="10.00">bcnp/static_vector.h</text>
</a>
</g>
</g>
<!-- Node2&#45;&gt;Node13 -->
<g id="edge12_Node000002_Node000013" class="edge">
<title>Node2&#45;&gt;Node13</title>
<g id="a_edge12_Node000002_Node000013"><a xlink:title=" ">
<path fill="none" stroke="#63b8ff" d="M308.21,-165.31C278.85,-146.68 211.42,-103.9 175.33,-81"/>
<polygon fill="#63b8ff" stroke="#63b8ff" points="177.22,-78.05 166.9,-75.65 173.47,-83.96 177.22,-78.05"/>
</a>
</g>
</g>
<!-- Node19 -->
<g id="Node000019" class="node">
<title>Node19</title>
<g id="a_Node000019"><a xlink:href="packet__storage_8h.html" target="_top" xlink:title=" ">
<polygon fill="white" stroke="#666666" points="203.62,-129.75 89.38,-129.75 89.38,-110.5 203.62,-110.5 203.62,-129.75"/>
<text text-anchor="middle" x="146.5" y="-116.25" font-family="Helvetica,sans-Serif" font-size="10.00">bcnp/packet_storage.h</text>
</a>
</g>
</g>
<!-- Node2&#45;&gt;Node19 -->
<g id="edge19_Node000002_Node000019" class="edge">
<title>Node2&#45;&gt;Node19</title>
<g id="a_edge19_Node000002_Node000019"><a xlink:title=" ">
<path fill="none" stroke="#63b8ff" d="M292.64,-165.34C263.69,-156.58 219.55,-143.23 187.35,-133.48"/>
<polygon fill="#63b8ff" stroke="#63b8ff" points="188.54,-130.19 177.95,-130.64 186.51,-136.89 188.54,-130.19"/>
</a>
</g>
</g>
<!-- Node2&#45;&gt;Node20 -->
<g id="edge27_Node000002_Node000020" class="edge">
<title>Node2&#45;&gt;Node20</title>
<g id="a_edge27_Node000002_Node000020"><a xlink:title=" ">
<path fill="none" stroke="#63b8ff" d="M283.96,-174.62C234.01,-173.35 145.6,-165.63 80.5,-129.75 60.52,-118.74 43.57,-98.47 33.03,-83.71"/>
<polygon fill="#63b8ff" stroke="#63b8ff" points="36.17,-82.1 27.66,-75.8 30.39,-86.04 36.17,-82.1"/>
</a>
</g>
</g>
<!-- Node4 -->
<g id="Node000004" class="node">
<title>Node4</title>
<g id="a_Node000004"><a xlink:title=" ">
<polygon fill="#e0e0e0" stroke="#999999" points="686,-74.5 649,-74.5 649,-55.25 686,-55.25 686,-74.5"/>
<text text-anchor="middle" x="667.5" y="-61" font-family="Helvetica,sans-Serif" font-size="10.00">array</text>
</a>
</g>
</g>
<!-- Node3&#45;&gt;Node4 -->
<g id="edge3_Node000003_Node000004" class="edge">
<title>Node3&#45;&gt;Node4</title>
<g id="a_edge3_Node000003_Node000004"><a xlink:title=" ">
<path fill="none" stroke="#63b8ff" d="M549.59,-110.09C574.1,-100.9 612.11,-86.65 638.31,-76.82"/>
<polygon fill="#63b8ff" stroke="#63b8ff" points="639.2,-80.23 647.33,-73.44 636.74,-73.67 639.2,-80.23"/>
</a>
</g>
</g>
<!-- Node3&#45;&gt;Node5 -->
<g id="edge4_Node000003_Node000005" class="edge">
<title>Node3&#45;&gt;Node5</title>
<g id="a_edge4_Node000003_Node000005"><a xlink:title=" ">
<path fill="none" stroke="#63b8ff" d="M555.04,-110.04C571.87,-103.17 591.54,-91.9 601.5,-74.5 610.41,-58.93 599.04,-40.57 587.46,-27.54"/>
<polygon fill="#63b8ff" stroke="#63b8ff" points="590.18,-25.31 580.71,-20.55 585.14,-30.17 590.18,-25.31"/>
</a>
</g>
</g>
<!-- Node3&#45;&gt;Node6 -->
<g id="edge5_Node000003_Node000006" class="edge">
<title>Node3&#45;&gt;Node6</title>
<g id="a_edge5_Node000003_Node000006"><a xlink:title=" ">
<path fill="none" stroke="#63b8ff" d="M560.7,-110.04C592.83,-101.72 641.89,-88.93 692.64,-75.25"/>
<polygon fill="#63b8ff" stroke="#63b8ff" points="693.28,-78.7 702.03,-72.71 691.46,-71.94 693.28,-78.7"/>
</a>
</g>
</g>
<!-- Node7 -->
<g id="Node000007" class="node">
<title>Node7</title>
<g id="a_Node000007"><a xlink:title=" ">
<polygon fill="#e0e0e0" stroke="#999999" points="472,-74.5 429,-74.5 429,-55.25 472,-55.25 472,-74.5"/>
<text text-anchor="middle" x="450.5" y="-61" font-family="Helvetica,sans-Serif" font-size="10.00">cmath</text>
</a>
</g>
</g>
<!-- Node3&#45;&gt;Node7 -->
<g id="edge6_Node000003_Node000007" class="edge">
<title>Node3&#45;&gt;Node7</title>
<g id="a_edge6_Node000003_Node000007"><a xlink:title=" ">
<path fill="none" stroke="#63b8ff" d="M512.78,-110.09C501.79,-102.29 485.66,-90.84 472.57,-81.54"/>
<polygon fill="#63b8ff" stroke="#63b8ff" points="474.7,-78.76 464.52,-75.83 470.65,-84.47 474.7,-78.76"/>
</a>
</g>
</g>
<!-- Node8 -->
<g id="Node000008" class="node">
<title>Node8</title>
<g id="a_Node000008"><a xlink:title=" ">
<polygon fill="#e0e0e0" stroke="#999999" points="535.12,-74.5 489.88,-74.5 489.88,-55.25 535.12,-55.25 535.12,-74.5"/>
<text text-anchor="middle" x="512.5" y="-61" font-family="Helvetica,sans-Serif" font-size="10.00">cstring</text>
</a>
</g>
</g>
<!-- Node3&#45;&gt;Node8 -->
<g id="edge7_Node000003_Node000008" class="edge">
<title>Node3&#45;&gt;Node8</title>
<g id="a_edge7_Node000003_Node000008"><a xlink:title=" ">
<path fill="none" stroke="#63b8ff" d="M523.35,-110.33C521.73,-103.67 519.42,-94.24 517.36,-85.78"/>
<polygon fill="#63b8ff" stroke="#63b8ff" points="520.82,-85.21 515.05,-76.33 514.02,-86.87 520.82,-85.21"/>
</a>
</g>
</g>
<!-- Node3&#45;&gt;Node9 -->
<g id="edge8_Node000003_Node000009" class="edge">
<title>Node3&#45;&gt;Node9</title>
<g id="a_edge8_Node000003_Node000009"><a xlink:title=" ">
<path fill="none" stroke="#63b8ff" d="M583.58,-110.21C653.91,-99.42 770.53,-81.52 831.89,-72.11"/>
<polygon fill="#63b8ff" stroke="#63b8ff" points="832.19,-75.6 841.55,-70.63 831.13,-68.68 832.19,-75.6"/>
</a>
</g>
</g>
<!-- Node10 -->
<g id="Node000010" class="node">
<title>Node10</title>
<g id="a_Node000010"><a xlink:title=" ">
<polygon fill="#e0e0e0" stroke="#999999" points="592.12,-74.5 552.88,-74.5 552.88,-55.25 592.12,-55.25 592.12,-74.5"/>
<text text-anchor="middle" x="572.5" y="-61" font-family="Helvetica,sans-Serif" font-size="10.00">limits</text>
</a>
</g>
</g>
<!-- Node3&#45;&gt;Node10 -->
<g id="edge9_Node000003_Node000010" class="edge">
<title>Node3&#45;&gt;Node10</title>
<g id="a_edge9_Node000003_Node000010"><a xlink:title=" ">
<path fill="none" stroke="#63b8ff" d="M533.26,-110.33C539.69,-103.05 549.01,-92.48 556.96,-83.48"/>
<polygon fill="#63b8ff" stroke="#63b8ff" points="559.58,-85.81 563.57,-75.99 554.33,-81.18 559.58,-85.81"/>
</a>
</g>
</g>
<!-- Node3&#45;&gt;Node11 -->
<g id="edge10_Node000003_Node000011" class="edge">
<title>Node3&#45;&gt;Node11</title>
<g id="a_edge10_Node000003_Node000011"><a xlink:title=" ">
<path fill="none" stroke="#63b8ff" d="M491.06,-110.09C454.26,-100.44 396.17,-85.2 358.7,-75.37"/>
<polygon fill="#63b8ff" stroke="#63b8ff" points="359.81,-72.04 349.25,-72.89 358.03,-78.81 359.81,-72.04"/>
</a>
</g>
</g>
<!-- Node12 -->
<g id="Node000012" class="node">
<title>Node12</title>
<g id="a_Node000012"><a xlink:title=" ">
<polygon fill="#e0e0e0" stroke="#999999" points="411.12,-74.5 365.88,-74.5 365.88,-55.25 411.12,-55.25 411.12,-74.5"/>
<text text-anchor="middle" x="388.5" y="-61" font-family="Helvetica,sans-Serif" font-size="10.00">variant</text>
</a>
</g>
</g>
<!-- Node3&#45;&gt;Node12 -->
<g id="edge11_Node000003_Node000012" class="edge">
<title>Node3&#45;&gt;Node12</title>
<g id="a_edge11_Node000003_Node000012"><a xlink:title=" ">
<path fill="none" stroke="#63b8ff" d="M502.26,-110.09C480.18,-101.51 446.75,-88.52 421.83,-78.83"/>
<polygon fill="#63b8ff" stroke="#63b8ff" points="423.4,-75.68 412.81,-75.32 420.86,-82.21 423.4,-75.68"/>
</a>
</g>
</g>
<!-- Node13&#45;&gt;Node5 -->
<g id="edge13_Node000013_Node000005" class="edge">
<title>Node13&#45;&gt;Node5</title>
<g id="a_edge13_Node000013_Node000005"><a xlink:title=" ">
<path fill="none" stroke="#63b8ff" d="M203.74,-57.03C208.39,-56.43 213.03,-55.83 217.5,-55.25 333.15,-40.36 470.24,-23.09 533.82,-15.1"/>
<polygon fill="#63b8ff" stroke="#63b8ff" points="534.18,-18.58 543.67,-13.87 533.31,-11.64 534.18,-18.58"/>
</a>
</g>
</g>
<!-- Node14 -->
<g id="Node000014" class="node">
<title>Node14</title>
<g id="a_Node000014"><a xlink:title=" ">
<polygon fill="#e0e0e0" stroke="#999999" points="320.25,-19.25 248.75,-19.25 248.75,0 320.25,0 320.25,-19.25"/>
<text text-anchor="middle" x="284.5" y="-5.75" font-family="Helvetica,sans-Serif" font-size="10.00">initializer_list</text>
</a>
</g>
</g>
<!-- Node13&#45;&gt;Node14 -->
<g id="edge14_Node000013_Node000014" class="edge">
<title>Node13&#45;&gt;Node14</title>
<g id="a_edge14_Node000013_Node000014"><a xlink:title=" ">
<path fill="none" stroke="#63b8ff" d="M174.06,-54.84C195.27,-46.35 227.27,-33.54 251.38,-23.89"/>
<polygon fill="#63b8ff" stroke="#63b8ff" points="252.44,-27.23 260.42,-20.27 249.84,-20.73 252.44,-27.23"/>
</a>
</g>
</g>
<!-- Node15 -->
<g id="Node000015" class="node">
<title>Node15</title>
<g id="a_Node000015"><a xlink:title=" ">
<polygon fill="#e0e0e0" stroke="#999999" points="154.5,-19.25 120.5,-19.25 120.5,0 154.5,0 154.5,-19.25"/>
<text text-anchor="middle" x="137.5" y="-5.75" font-family="Helvetica,sans-Serif" font-size="10.00">new</text>
</a>
</g>
</g>
<!-- Node13&#45;&gt;Node15 -->
<g id="edge15_Node000013_Node000015" class="edge">
<title>Node13&#45;&gt;Node15</title>
<g id="a_edge15_Node000013_Node000015"><a xlink:title=" ">
<path fill="none" stroke="#63b8ff" d="M149.19,-55.08C147.44,-48.42 144.96,-38.99 142.73,-30.53"/>
<polygon fill="#63b8ff" stroke="#63b8ff" points="146.17,-29.85 140.25,-21.07 139.4,-31.63 146.17,-29.85"/>
</a>
</g>
</g>
<!-- Node16 -->
<g id="Node000016" class="node">
<title>Node16</title>
<g id="a_Node000016"><a xlink:title=" ">
<polygon fill="#e0e0e0" stroke="#999999" points="230.5,-19.25 172.5,-19.25 172.5,0 230.5,0 230.5,-19.25"/>
<text text-anchor="middle" x="201.5" y="-5.75" font-family="Helvetica,sans-Serif" font-size="10.00">stdexcept</text>
</a>
</g>
</g>
<!-- Node13&#45;&gt;Node16 -->
<g id="edge16_Node000013_Node000016" class="edge">
<title>Node13&#45;&gt;Node16</title>
<g id="a_edge16_Node000013_Node000016"><a xlink:title=" ">
<path fill="none" stroke="#63b8ff" d="M159.76,-55.08C166.66,-47.73 176.72,-37.01 185.24,-27.94"/>
<polygon fill="#63b8ff" stroke="#63b8ff" points="187.73,-30.4 192.03,-20.71 182.63,-25.61 187.73,-30.4"/>
</a>
</g>
</g>
<!-- Node17 -->
<g id="Node000017" class="node">
<title>Node17</title>
<g id="a_Node000017"><a xlink:title=" ">
<polygon fill="#e0e0e0" stroke="#999999" points="102,-19.25 41,-19.25 41,0 102,0 102,-19.25"/>
<text text-anchor="middle" x="71.5" y="-5.75" font-family="Helvetica,sans-Serif" font-size="10.00">type_traits</text>
</a>
</g>
</g>
<!-- Node13&#45;&gt;Node17 -->
<g id="edge17_Node000013_Node000017" class="edge">
<title>Node13&#45;&gt;Node17</title>
<g id="a_edge17_Node000013_Node000017"><a xlink:title=" ">
<path fill="none" stroke="#63b8ff" d="M137.93,-54.84C126.09,-46.96 108.66,-35.36 94.63,-26.02"/>
<polygon fill="#63b8ff" stroke="#63b8ff" points="96.66,-23.17 86.4,-20.54 92.78,-29 96.66,-23.17"/>
</a>
</g>
</g>
<!-- Node18 -->
<g id="Node000018" class="node">
<title>Node18</title>
<g id="a_Node000018"><a xlink:title=" ">
<polygon fill="#e0e0e0" stroke="#999999" points="477.75,-19.25 439.25,-19.25 439.25,0 477.75,0 477.75,-19.25"/>
<text text-anchor="middle" x="458.5" y="-5.75" font-family="Helvetica,sans-Serif" font-size="10.00">utility</text>
</a>
</g>
</g>
<!-- Node13&#45;&gt;Node18 -->
<g id="edge18_Node000013_Node000018" class="edge">
<title>Node13&#45;&gt;Node18</title>
<g id="a_edge18_Node000013_Node000018"><a xlink:title=" ">
<path fill="none" stroke="#63b8ff" d="M203.58,-54.84C267.86,-43.69 375.08,-25.09 427.6,-15.98"/>
<polygon fill="#63b8ff" stroke="#63b8ff" points="428.08,-19.45 437.34,-14.3 426.89,-12.56 428.08,-19.45"/>
</a>
</g>
</g>
<!-- Node19&#45;&gt;Node5 -->
<g id="edge21_Node000019_Node000005" class="edge">
<title>Node19&#45;&gt;Node5</title>
<g id="a_edge21_Node000019_Node000005"><a xlink:title=" ">
<path fill="none" stroke="#63b8ff" d="M158.16,-110.19C177.32,-96.02 217.19,-68.61 255.5,-55.25 281.4,-46.22 457.23,-24.21 533.89,-14.9"/>
<polygon fill="#63b8ff" stroke="#63b8ff" points="533.87,-18.43 543.38,-13.75 533.03,-11.48 533.87,-18.43"/>
</a>
</g>
</g>
<!-- Node19&#45;&gt;Node13 -->
<g id="edge20_Node000019_Node000013" class="edge">
<title>Node19&#45;&gt;Node13</title>
<g id="a_edge20_Node000019_Node000013"><a xlink:title=" ">
<path fill="none" stroke="#63b8ff" d="M147.33,-110.33C147.94,-103.74 148.82,-94.46 149.6,-86.07"/>
<polygon fill="#63b8ff" stroke="#63b8ff" points="153.06,-86.65 150.51,-76.37 146.1,-86 153.06,-86.65"/>
</a>
</g>
</g>
<!-- Node19&#45;&gt;Node17 -->
<g id="edge22_Node000019_Node000017" class="edge">
<title>Node19&#45;&gt;Node17</title>
<g id="a_edge22_Node000019_Node000017"><a xlink:title=" ">
<path fill="none" stroke="#63b8ff" d="M130.5,-110.14C117.9,-102.28 100.79,-89.75 90.5,-74.5 81.67,-61.42 76.86,-44.14 74.29,-30.86"/>
<polygon fill="#63b8ff" stroke="#63b8ff" points="77.76,-30.41 72.69,-21.1 70.85,-31.53 77.76,-30.41"/>
</a>
</g>
</g>
<!-- Node19&#45;&gt;Node20 -->
<g id="edge23_Node000019_Node000020" class="edge">
<title>Node19&#45;&gt;Node20</title>
<g id="a_edge23_Node000019_Node000020"><a xlink:title=" ">
<path fill="none" stroke="#63b8ff" d="M125.3,-110.09C105.54,-101.68 75.83,-89.02 53.25,-79.4"/>
<polygon fill="#63b8ff" stroke="#63b8ff" points="54.77,-76.24 44.2,-75.55 52.03,-82.68 54.77,-76.24"/>
</a>
</g>
</g>
<!-- Node21&#45;&gt;Node2 -->
<g id="edge29_Node000021_Node000002" class="edge">
<title>Node21&#45;&gt;Node2</title>
<g id="a_edge29_Node000021_Node000002"><a xlink:title=" ">
<path fill="none" stroke="#63b8ff" d="M601.35,-220.83C537.64,-210.67 433.74,-194.11 372.36,-184.32"/>
<polygon fill="#63b8ff" stroke="#63b8ff" points="372.97,-180.88 362.54,-182.76 371.87,-187.79 372.97,-180.88"/>
</a>
</g>
</g>
<!-- Node21&#45;&gt;Node4 -->
<g id="edge30_Node000021_Node000004" class="edge">
<title>Node21&#45;&gt;Node4</title>
<g id="a_edge30_Node000021_Node000004"><a xlink:title=" ">
<path fill="none" stroke="#63b8ff" d="M657.09,-220.82C658.79,-195.5 663.73,-122 666.14,-86.09"/>
<polygon fill="#63b8ff" stroke="#63b8ff" points="669.63,-86.44 666.8,-76.23 662.64,-85.98 669.63,-86.44"/>
</a>
</g>
</g>
<!-- Node21&#45;&gt;Node5 -->
<g id="edge31_Node000021_Node000005" class="edge">
<title>Node21&#45;&gt;Node5</title>
<g id="a_edge31_Node000021_Node000005"><a xlink:title=" ">
<path fill="none" stroke="#63b8ff" d="M711.83,-226.23C740.56,-221.32 773.35,-210.11 791.5,-185 825.28,-138.26 828.04,-99.86 791.5,-55.25 768.36,-27 661.89,-16.25 605.22,-12.48"/>
<polygon fill="#63b8ff" stroke="#63b8ff" points="605.64,-9 595.44,-11.87 605.2,-15.98 605.64,-9"/>
</a>
</g>
</g>
<!-- Node21&#45;&gt;Node6 -->
<g id="edge32_Node000021_Node000006" class="edge">
<title>Node21&#45;&gt;Node6</title>
<g id="a_edge32_Node000021_Node000006"><a xlink:title=" ">
<path fill="none" stroke="#63b8ff" d="M660.26,-220.82C671.18,-195.28 703.06,-120.7 718.26,-85.15"/>
<polygon fill="#63b8ff" stroke="#63b8ff" points="721.41,-86.69 722.12,-76.11 714.97,-83.93 721.41,-86.69"/>
</a>
</g>
</g>
<!-- Node21&#45;&gt;Node9 -->
<g id="edge33_Node000021_Node000009" class="edge">
<title>Node21&#45;&gt;Node9</title>
<g id="a_edge33_Node000021_Node000009"><a xlink:title=" ">
<path fill="none" stroke="#63b8ff" d="M711.49,-228.41C749,-224.76 797.5,-214.13 829.5,-185 858.01,-159.05 867.64,-112.78 870.87,-86.18"/>
<polygon fill="#63b8ff" stroke="#63b8ff" points="874.34,-86.69 871.85,-76.39 867.37,-85.99 874.34,-86.69"/>
</a>
</g>
</g>
<!-- Node21&#45;&gt;Node18 -->
<g id="edge34_Node000021_Node000018" class="edge">
<title>Node21&#45;&gt;Node18</title>
<g id="a_edge34_Node000021_Node000018"><a xlink:title=" ">
<path fill="none" stroke="#63b8ff" d="M669.33,-220.55C706.2,-193.41 806.83,-111.3 758.5,-55.25 749.73,-45.07 564.19,-22.75 489.37,-14.12"/>
<polygon fill="#63b8ff" stroke="#63b8ff" points="489.79,-10.65 479.46,-12.99 488.99,-17.6 489.79,-10.65"/>
</a>
</g>
</g>
</g>
</svg>
