<?xml version="1.0" encoding="UTF-8" standalone="no"?>
<!DOCTYPE svg PUBLIC "-//W3C//DTD SVG 1.1//EN"
 "http://www.w3.org/Graphics/SVG/1.1/DTD/svg11.dtd">
<!-- Generated by graphviz version 12.2.0 (20241103.1931)
 -->
<!-- Title: bcnp/spi_adapter.h Pages: 1 -->
<!--zoomable 304 -->

<svg id="main" version="1.1" xmlns="http://www.w3.org/2000/svg" xmlns:xlink="http://www.w3.org/1999/xlink" xml:space="preserve" onload="init(evt)">

<style type="text/css"><![CDATA[
.node, .edge {opacity: 0.7;}
.node.selected, .edge.selected {opacity: 1;}
.edge:hover path { stroke: red; }
.edge:hover polygon { stroke: red; fill: red; }
]]></style>

<defs>
  <circle id="rim" cx="0" cy="0" r="7"/>
  <circle id="rim2" cx="0" cy="0" r="3.5"/>
  <g id="zoomPlus">
    <use xlink:href="#rim" fill="#404040"><set attributeName="fill" to="#808080" begin="zoomplus.mouseover" end="zoomplus.mouseout"/></use>
    <path d="M-4,0h8M0,-4v8" fill="none" stroke="white" stroke-width="1.5" pointer-events="none"/>
  </g>
  <g id="zoomMin">
    <use xlink:href="#rim" fill="#404040"><set attributeName="fill" to="#808080" begin="zoomminus.mouseover" end="zoomminus.mouseout"/></use>
    <path d="M-4,0h8" fill="none" stroke="white" stroke-width="1.5" pointer-events="none"/>
  </g>
  <g id="arrowUp" transform="translate(30 24)">
    <use xlink:href="#rim"/>
    <path pointer-events="none" fill="none" stroke="white" stroke-width="1.5" d="M0,-3.0v7 M-2.5,-0.5L0,-3.0L2.5,-0.5"/>
  </g>
  <g id="arrowRight" transform="rotate(90) translate(36 -43)">
    <use xlink:href="#rim"/>
    <path pointer-events="none" fill="none" stroke="white" stroke-width="1.5" d="M0,-3.0v7 M-2.5,-0.5L0,-3.0L2.5,-0.5"/>
  </g>
  <g id="arrowDown" transform="rotate(180) translate(-30 -48)">
    <use xlink:href="#rim"/>
    <path pointer-events="none" fill="none" stroke="white" stroke-width="1.5" d="M0,-3.0v7 M-2.5,-0.5L0,-3.0L2.5,-0.5"/>
  </g>
  <g id="arrowLeft" transform="rotate(270) translate(-36 17)">
    <use xlink:href="#rim"/>
    <path pointer-events="none" fill="none" stroke="white" stroke-width="1.5" d="M0,-3.0v7 M-2.5,-0.5L0,-3.0L2.5,-0.5"/>
  </g>
  <g id="resetDef">
    <use xlink:href="#rim2" fill="#404040"><set attributeName="fill" to="#808080" begin="reset.mouseover" end="reset.mouseout"/></use>
  </g>
</defs>
<script type="application/ecmascript">
var viewWidth = 1008;
var viewHeight = 304;
var sectionId = 'dynsection-0';
</script>
<script type="application/ecmascript" xlink:href="svg.min.js"/>
<svg id="graph" class="graph">
<g id="viewport">
<title>bcnp/spi_adapter.h</title>
<!-- Node1 -->
<g id="Node000001" class="node">
<title>Node1</title>
<g id="a_Node000001"><a xlink:title="SPI transport adapter for BCNP (deprecated).">
<polygon fill="#999999" stroke="#666666" points="732.62,-295.5 634.88,-295.5 634.88,-276.25 732.62,-276.25 732.62,-295.5"/>
<text text-anchor="middle" x="683.75" y="-282" font-family="Helvetica,sans-Serif" font-size="10.00">bcnp/spi_adapter.h</text>
</a>
</g>
</g>
<!-- Node2 -->
<g id="Node000002" class="node">
<title>Node2</title>
<g id="a_Node000002"><a xlink:href="packet_8h.html" target="_top" xlink:title="BCNP packet structures, encoding, and decoding utilities.">
<polygon fill="white" stroke="#666666" points="473.12,-185 396.38,-185 396.38,-165.75 473.12,-165.75 473.12,-185"/>
<text text-anchor="middle" x="434.75" y="-171.5" font-family="Helvetica,sans-Serif" font-size="10.00">bcnp/packet.h</text>
</a>
</g>
</g>
<!-- Node1&#45;&gt;Node2 -->
<g id="edge1_Node000001_Node000002" class="edge">
<title>Node1&#45;&gt;Node2</title>
<g id="a_edge1_Node000001_Node000002"><a xlink:title=" ">
<path fill="none" stroke="#63b8ff" d="M634.64,-282.64C592.6,-278.74 531.9,-268.25 486.75,-240.25 468.76,-229.09 454.18,-209.47 445.09,-194.91"/>
<polygon fill="#63b8ff" stroke="#63b8ff" points="448.34,-193.53 440.24,-186.7 442.31,-197.09 448.34,-193.53"/>
</a>
</g>
</g>
<!-- Node5 -->
<g id="Node000005" class="node">
<title>Node5</title>
<g id="a_Node000005"><a xlink:title=" ">
<polygon fill="#e0e0e0" stroke="#999999" points="417.88,-19.25 369.62,-19.25 369.62,0 417.88,0 417.88,-19.25"/>
<text text-anchor="middle" x="393.75" y="-5.75" font-family="Helvetica,sans-Serif" font-size="10.00">cstddef</text>
</a>
</g>
</g>
<!-- Node1&#45;&gt;Node5 -->
<g id="edge33_Node000001_Node000005" class="edge">
<title>Node1&#45;&gt;Node5</title>
<g id="a_edge33_Node000001_Node000005"><a xlink:title=" ">
<path fill="none" stroke="#63b8ff" d="M732.79,-281.78C780.7,-277.29 854.83,-266.42 913.75,-240.25 956.94,-221.07 998.75,-223.63 998.75,-176.38 998.75,-176.38 998.75,-176.38 998.75,-119.12 998.75,-89.51 1002.8,-73.85 979.75,-55.25 936.95,-20.72 550.62,-12.7 429.74,-11.03"/>
<polygon fill="#63b8ff" stroke="#63b8ff" points="429.8,-7.53 419.76,-10.9 429.71,-14.53 429.8,-7.53"/>
</a>
</g>
</g>
<!-- Node6 -->
<g id="Node000006" class="node">
<title>Node6</title>
<g id="a_Node000006"><a xlink:title=" ">
<polygon fill="#e0e0e0" stroke="#999999" points="450.38,-74.5 405.12,-74.5 405.12,-55.25 450.38,-55.25 450.38,-74.5"/>
<text text-anchor="middle" x="427.75" y="-61" font-family="Helvetica,sans-Serif" font-size="10.00">cstdint</text>
</a>
</g>
</g>
<!-- Node1&#45;&gt;Node6 -->
<g id="edge34_Node000001_Node000006" class="edge">
<title>Node1&#45;&gt;Node6</title>
<g id="a_edge34_Node000001_Node000006"><a xlink:title=" ">
<path fill="none" stroke="#63b8ff" d="M675.29,-275.94C649.75,-249.21 570.61,-168.09 496.75,-110.5 482.85,-99.66 466.3,-88.9 452.9,-80.65"/>
<polygon fill="#63b8ff" stroke="#63b8ff" points="455.02,-77.84 444.65,-75.67 451.39,-83.84 455.02,-77.84"/>
</a>
</g>
</g>
<!-- Node9 -->
<g id="Node000009" class="node">
<title>Node9</title>
<g id="a_Node000009"><a xlink:title=" ">
<polygon fill="#e0e0e0" stroke="#999999" points="970.75,-74.5 912.75,-74.5 912.75,-55.25 970.75,-55.25 970.75,-74.5"/>
<text text-anchor="middle" x="941.75" y="-61" font-family="Helvetica,sans-Serif" font-size="10.00">functional</text>
</a>
</g>
</g>
<!-- Node1&#45;&gt;Node9 -->
<g id="edge35_Node000001_Node000009" class="edge">
<title>Node1&#45;&gt;Node9</title>
<g id="a_edge35_Node000001_Node000009"><a xlink:title=" ">
<path fill="none" stroke="#63b8ff" d="M733,-283.31C795.87,-278.23 901.33,-258.56 941.75,-185 958.88,-153.83 953,-110.79 947.29,-85.89"/>
<polygon fill="#63b8ff" stroke="#63b8ff" points="950.74,-85.27 944.89,-76.43 943.96,-86.98 950.74,-85.27"/>
</a>
</g>
</g>
<!-- Node19 -->
<g id="Node000019" class="node">
<title>Node19</title>
<g id="a_Node000019"><a xlink:title=" ">
<polygon fill="#e0e0e0" stroke="#999999" points="387.25,-74.5 344.25,-74.5 344.25,-55.25 387.25,-55.25 387.25,-74.5"/>
<text text-anchor="middle" x="365.75" y="-61" font-family="Helvetica,sans-Serif" font-size="10.00">vector</text>
</a>
</g>
</g>
<!-- Node1&#45;&gt;Node19 -->
<g id="edge36_Node000001_Node000019" class="edge">
<title>Node1&#45;&gt;Node19</title>
<g id="a_edge36_Node000001_Node000019"><a xlink:title=" ">
<path fill="none" stroke="#63b8ff" d="M668.86,-275.76C655.17,-267.16 634.51,-253.62 617.75,-240.25 589.67,-217.84 584.77,-209.77 558.75,-185 524.26,-152.17 521.89,-136.12 481.75,-110.5 467.48,-101.39 427.1,-86.68 398,-76.66"/>
<polygon fill="#63b8ff" stroke="#63b8ff" points="399.5,-73.47 388.91,-73.55 397.24,-80.1 399.5,-73.47"/>
</a>
</g>
</g>
<!-- Node21 -->
<g id="Node000021" class="node">
<title>Node21</title>
<g id="a_Node000021"><a xlink:href="stream__parser_8h.html" target="_top" xlink:title=" ">
<polygon fill="white" stroke="#666666" points="845.62,-240.25 735.88,-240.25 735.88,-221 845.62,-221 845.62,-240.25"/>
<text text-anchor="middle" x="790.75" y="-226.75" font-family="Helvetica,sans-Serif" font-size="10.00">bcnp/stream_parser.h</text>
</a>
</g>
</g>
<!-- Node1&#45;&gt;Node21 -->
<g id="edge26_Node000001_Node000021" class="edge">
<title>Node1&#45;&gt;Node21</title>
<g id="a_edge26_Node000001_Node000021"><a xlink:title=" ">
<path fill="none" stroke="#63b8ff" d="M701.9,-275.84C718.43,-267.62 743.09,-255.34 762.25,-245.81"/>
<polygon fill="#63b8ff" stroke="#63b8ff" points="763.76,-248.97 771.15,-241.38 760.64,-242.7 763.76,-248.97"/>
</a>
</g>
</g>
<!-- Node3 -->
<g id="Node000003" class="node">
<title>Node3</title>
<g id="a_Node000003"><a xlink:href="message__types_8h.html" target="_top" xlink:title=" ">
<polygon fill="white" stroke="#666666" points="758.62,-129.75 642.88,-129.75 642.88,-110.5 758.62,-110.5 758.62,-129.75"/>
<text text-anchor="middle" x="700.75" y="-116.25" font-family="Helvetica,sans-Serif" font-size="10.00">bcnp/message_types.h</text>
</a>
</g>
</g>
<!-- Node2&#45;&gt;Node3 -->
<g id="edge2_Node000002_Node000003" class="edge">
<title>Node2&#45;&gt;Node3</title>
<g id="a_edge2_Node000002_Node000003"><a xlink:title=" ">
<path fill="none" stroke="#63b8ff" d="M473.43,-166.63C518.31,-157.65 592.7,-142.76 644.09,-132.47"/>
<polygon fill="#63b8ff" stroke="#63b8ff" points="644.74,-135.91 653.85,-130.51 643.36,-129.04 644.74,-135.91"/>
</a>
</g>
</g>
<!-- Node2&#45;&gt;Node5 -->
<g id="edge23_Node000002_Node000005" class="edge">
<title>Node2&#45;&gt;Node5</title>
<g id="a_edge23_Node000002_Node000005"><a xlink:title=" ">
<path fill="none" stroke="#63b8ff" d="M395.92,-172.11C339.66,-167.93 239.81,-156.8 217.75,-129.75 198.28,-105.87 228.26,-71.17 247.75,-55.25 279.47,-29.34 326.09,-18.45 358.07,-13.89"/>
<polygon fill="#63b8ff" stroke="#63b8ff" points="358.15,-17.4 367.63,-12.67 357.27,-10.46 358.15,-17.4"/>
</a>
</g>
</g>
<!-- Node2&#45;&gt;Node6 -->
<g id="edge24_Node000002_Node000006" class="edge">
<title>Node2&#45;&gt;Node6</title>
<g id="a_edge24_Node000002_Node000006"><a xlink:title=" ">
<path fill="none" stroke="#63b8ff" d="M449.57,-165.38C466.87,-153.64 491.9,-132.05 481.75,-110.5 476.04,-98.37 465.23,-88.41 454.78,-81"/>
<polygon fill="#63b8ff" stroke="#63b8ff" points="456.99,-78.27 446.7,-75.75 453.18,-84.14 456.99,-78.27"/>
</a>
</g>
</g>
<!-- Node13 -->
<g id="Node000013" class="node">
<title>Node13</title>
<g id="a_Node000013"><a xlink:href="static__vector_8h.html" target="_top" xlink:title="Fixed&#45;capacity vector with stack allocation (no heap).">
<polygon fill="white" stroke="#666666" points="170.62,-74.5 66.88,-74.5 66.88,-55.25 170.62,-55.25 170.62,-74.5"/>
<text text-anchor="middle" x="118.75" y="-61" font-family="Helvetica,sans-Serif" font-size="10.00">bcnp/static_vector.h</text>
</a>
</g>
</g>
<!-- Node2&#45;&gt;Node13 -->
<g id="edge12_Node000002_Node000013" class="edge">
<title>Node2&#45;&gt;Node13</title>
<g id="a_edge12_Node000002_Node000013"><a xlink:title=" ">
<path fill="none" stroke="#63b8ff" d="M396.13,-174.35C345.04,-172.84 253.44,-164.89 184.75,-129.75 163.09,-118.67 143.8,-98.11 131.76,-83.3"/>
<polygon fill="#63b8ff" stroke="#63b8ff" points="134.78,-81.48 125.86,-75.75 129.26,-85.79 134.78,-81.48"/>
</a>
</g>
</g>
<!-- Node17 -->
<g id="Node000017" class="node">
<title>Node17</title>
<g id="a_Node000017"><a xlink:href="packet__storage_8h.html" target="_top" xlink:title=" ">
<polygon fill="white" stroke="#666666" points="340.88,-129.75 226.62,-129.75 226.62,-110.5 340.88,-110.5 340.88,-129.75"/>
<text text-anchor="middle" x="283.75" y="-116.25" font-family="Helvetica,sans-Serif" font-size="10.00">bcnp/packet_storage.h</text>
</a>
</g>
</g>
<!-- Node2&#45;&gt;Node17 -->
<g id="edge17_Node000002_Node000017" class="edge">
<title>Node2&#45;&gt;Node17</title>
<g id="a_edge17_Node000002_Node000017"><a xlink:title=" ">
<path fill="none" stroke="#63b8ff" d="M409.13,-165.34C384.73,-156.74 347.74,-143.69 320.25,-134"/>
<polygon fill="#63b8ff" stroke="#63b8ff" points="321.51,-130.73 310.92,-130.71 319.18,-137.33 321.51,-130.73"/>
</a>
</g>
</g>
<!-- Node2&#45;&gt;Node19 -->
<g id="edge25_Node000002_Node000019" class="edge">
<title>Node2&#45;&gt;Node19</title>
<g id="a_edge25_Node000002_Node000019"><a xlink:title=" ">
<path fill="none" stroke="#63b8ff" d="M422.36,-165.39C411.84,-157.17 397,-144.13 387.75,-129.75 379.1,-116.29 373.42,-99.04 370,-85.86"/>
<polygon fill="#63b8ff" stroke="#63b8ff" points="373.43,-85.14 367.74,-76.2 366.61,-86.73 373.43,-85.14"/>
</a>
</g>
</g>
<!-- Node20 -->
<g id="Node000020" class="node">
<title>Node20</title>
<g id="a_Node000020"><a xlink:title=" ">
<polygon fill="#e0e0e0" stroke="#999999" points="473.12,-129.75 396.38,-129.75 396.38,-110.5 473.12,-110.5 473.12,-129.75"/>
<text text-anchor="middle" x="434.75" y="-116.25" font-family="Helvetica,sans-Serif" font-size="10.00">crab/prelude.h</text>
</a>
</g>
</g>
<!-- Node2&#45;&gt;Node20 -->
<g id="edge22_Node000002_Node000020" class="edge">
<title>Node2&#45;&gt;Node20</title>
<g id="a_edge22_Node000002_Node000020"><a xlink:title=" ">
<path fill="none" stroke="#63b8ff" d="M434.75,-165.58C434.75,-159.07 434.75,-149.92 434.75,-141.62"/>
<polygon fill="#63b8ff" stroke="#63b8ff" points="438.25,-141.62 434.75,-131.62 431.25,-141.62 438.25,-141.62"/>
</a>
</g>
</g>
<!-- Node4 -->
<g id="Node000004" class="node">
<title>Node4</title>
<g id="a_Node000004"><a xlink:title=" ">
<polygon fill="#e0e0e0" stroke="#999999" points="856.25,-74.5 819.25,-74.5 819.25,-55.25 856.25,-55.25 856.25,-74.5"/>
<text text-anchor="middle" x="837.75" y="-61" font-family="Helvetica,sans-Serif" font-size="10.00">array</text>
</a>
</g>
</g>
<!-- Node3&#45;&gt;Node4 -->
<g id="edge3_Node000003_Node000004" class="edge">
<title>Node3&#45;&gt;Node4</title>
<g id="a_edge3_Node000003_Node000004"><a xlink:title=" ">
<path fill="none" stroke="#63b8ff" d="M723.99,-110.09C747.27,-101.05 783.16,-87.09 808.39,-77.29"/>
<polygon fill="#63b8ff" stroke="#63b8ff" points="809.35,-80.67 817.4,-73.78 806.82,-74.14 809.35,-80.67"/>
</a>
</g>
</g>
<!-- Node3&#45;&gt;Node5 -->
<g id="edge4_Node000003_Node000005" class="edge">
<title>Node3&#45;&gt;Node5</title>
<g id="a_edge4_Node000003_Node000005"><a xlink:title=" ">
<path fill="none" stroke="#63b8ff" d="M642.78,-111.66C601.32,-105.06 544.76,-93.47 497.75,-74.5 481.34,-67.88 442.09,-42.72 416.77,-26.02"/>
<polygon fill="#63b8ff" stroke="#63b8ff" points="418.73,-23.12 408.46,-20.51 414.86,-28.95 418.73,-23.12"/>
</a>
</g>
</g>
<!-- Node3&#45;&gt;Node6 -->
<g id="edge5_Node000003_Node000006" class="edge">
<title>Node3&#45;&gt;Node6</title>
<g id="a_edge5_Node000003_Node000006"><a xlink:title=" ">
<path fill="none" stroke="#63b8ff" d="M649.53,-110.08C601.64,-101.48 528.19,-87.89 464.75,-74.5 463.76,-74.29 462.76,-74.08 461.75,-73.86"/>
<polygon fill="#63b8ff" stroke="#63b8ff" points="462.81,-70.51 452.29,-71.74 461.28,-77.34 462.81,-70.51"/>
</a>
</g>
</g>
<!-- Node7 -->
<g id="Node000007" class="node">
<title>Node7</title>
<g id="a_Node000007"><a xlink:title=" ">
<polygon fill="#e0e0e0" stroke="#999999" points="681.25,-74.5 638.25,-74.5 638.25,-55.25 681.25,-55.25 681.25,-74.5"/>
<text text-anchor="middle" x="659.75" y="-61" font-family="Helvetica,sans-Serif" font-size="10.00">cmath</text>
</a>
</g>
</g>
<!-- Node3&#45;&gt;Node7 -->
<g id="edge6_Node000003_Node000007" class="edge">
<title>Node3&#45;&gt;Node7</title>
<g id="a_edge6_Node000003_Node000007"><a xlink:title=" ">
<path fill="none" stroke="#63b8ff" d="M693.98,-110.33C688.43,-103.13 680.41,-92.71 673.52,-83.76"/>
<polygon fill="#63b8ff" stroke="#63b8ff" points="676.46,-81.85 667.59,-76.06 670.92,-86.12 676.46,-81.85"/>
</a>
</g>
</g>
<!-- Node8 -->
<g id="Node000008" class="node">
<title>Node8</title>
<g id="a_Node000008"><a xlink:title=" ">
<polygon fill="#e0e0e0" stroke="#999999" points="744.38,-74.5 699.12,-74.5 699.12,-55.25 744.38,-55.25 744.38,-74.5"/>
<text text-anchor="middle" x="721.75" y="-61" font-family="Helvetica,sans-Serif" font-size="10.00">cstring</text>
</a>
</g>
</g>
<!-- Node3&#45;&gt;Node8 -->
<g id="edge7_Node000003_Node000008" class="edge">
<title>Node3&#45;&gt;Node8</title>
<g id="a_edge7_Node000003_Node000008"><a xlink:title=" ">
<path fill="none" stroke="#63b8ff" d="M704.22,-110.33C706.88,-103.59 710.65,-94.02 714.01,-85.49"/>
<polygon fill="#63b8ff" stroke="#63b8ff" points="717.24,-86.85 717.65,-76.27 710.73,-84.29 717.24,-86.85"/>
</a>
</g>
</g>
<!-- Node3&#45;&gt;Node9 -->
<g id="edge8_Node000003_Node000009" class="edge">
<title>Node3&#45;&gt;Node9</title>
<g id="a_edge8_Node000003_Node000009"><a xlink:title=" ">
<path fill="none" stroke="#63b8ff" d="M741.91,-110.03C786.46,-100.19 857.06,-84.59 901.32,-74.81"/>
<polygon fill="#63b8ff" stroke="#63b8ff" points="902.03,-78.24 911.04,-72.66 900.52,-71.4 902.03,-78.24"/>
</a>
</g>
</g>
<!-- Node10 -->
<g id="Node000010" class="node">
<title>Node10</title>
<g id="a_Node000010"><a xlink:title=" ">
<polygon fill="#e0e0e0" stroke="#999999" points="801.38,-74.5 762.12,-74.5 762.12,-55.25 801.38,-55.25 801.38,-74.5"/>
<text text-anchor="middle" x="781.75" y="-61" font-family="Helvetica,sans-Serif" font-size="10.00">limits</text>
</a>
</g>
</g>
<!-- Node3&#45;&gt;Node10 -->
<g id="edge9_Node000003_Node000010" class="edge">
<title>Node3&#45;&gt;Node10</title>
<g id="a_edge9_Node000003_Node000010"><a xlink:title=" ">
<path fill="none" stroke="#63b8ff" d="M714.49,-110.09C726.48,-102.21 744.12,-90.61 758.33,-81.27"/>
<polygon fill="#63b8ff" stroke="#63b8ff" points="760.24,-84.2 766.68,-75.78 756.4,-78.35 760.24,-84.2"/>
</a>
</g>
</g>
<!-- Node11 -->
<g id="Node000011" class="node">
<title>Node11</title>
<g id="a_Node000011"><a xlink:title=" ">
<polygon fill="#e0e0e0" stroke="#999999" points="556.62,-74.5 506.88,-74.5 506.88,-55.25 556.62,-55.25 556.62,-74.5"/>
<text text-anchor="middle" x="531.75" y="-61" font-family="Helvetica,sans-Serif" font-size="10.00">optional</text>
</a>
</g>
</g>
<!-- Node3&#45;&gt;Node11 -->
<g id="edge10_Node000003_Node000011" class="edge">
<title>Node3&#45;&gt;Node11</title>
<g id="a_edge10_Node000003_Node000011"><a xlink:title=" ">
<path fill="none" stroke="#63b8ff" d="M672.08,-110.09C643.31,-101.03 598.92,-87.04 567.78,-77.23"/>
<polygon fill="#63b8ff" stroke="#63b8ff" points="569,-73.94 558.41,-74.28 566.9,-80.62 569,-73.94"/>
</a>
</g>
</g>
<!-- Node12 -->
<g id="Node000012" class="node">
<title>Node12</title>
<g id="a_Node000012"><a xlink:title=" ">
<polygon fill="#e0e0e0" stroke="#999999" points="620.38,-74.5 575.12,-74.5 575.12,-55.25 620.38,-55.25 620.38,-74.5"/>
<text text-anchor="middle" x="597.75" y="-61" font-family="Helvetica,sans-Serif" font-size="10.00">variant</text>
</a>
</g>
</g>
<!-- Node3&#45;&gt;Node12 -->
<g id="edge11_Node000003_Node000012" class="edge">
<title>Node3&#45;&gt;Node12</title>
<g id="a_edge11_Node000003_Node000012"><a xlink:title=" ">
<path fill="none" stroke="#63b8ff" d="M683.28,-110.09C667.44,-101.91 643.84,-89.71 625.44,-80.19"/>
<polygon fill="#63b8ff" stroke="#63b8ff" points="627.14,-77.13 616.65,-75.65 623.93,-83.35 627.14,-77.13"/>
</a>
</g>
</g>
<!-- Node13&#45;&gt;Node5 -->
<g id="edge14_Node000013_Node000005" class="edge">
<title>Node13&#45;&gt;Node5</title>
<g id="a_edge14_Node000013_Node000005"><a xlink:title=" ">
<path fill="none" stroke="#63b8ff" d="M165.71,-54.78C220.25,-44.22 308.99,-27.04 358.14,-17.52"/>
<polygon fill="#63b8ff" stroke="#63b8ff" points="358.53,-21.01 367.68,-15.67 357.2,-14.14 358.53,-21.01"/>
</a>
</g>
</g>
<!-- Node14 -->
<g id="Node000014" class="node">
<title>Node14</title>
<g id="a_Node000014"><a xlink:title=" ">
<polygon fill="#e0e0e0" stroke="#999999" points="267.5,-19.25 166,-19.25 166,0 267.5,0 267.5,-19.25"/>
<text text-anchor="middle" x="216.75" y="-5.75" font-family="Helvetica,sans-Serif" font-size="10.00">crab/static_vector.h</text>
</a>
</g>
</g>
<!-- Node13&#45;&gt;Node14 -->
<g id="edge13_Node000013_Node000014" class="edge">
<title>Node13&#45;&gt;Node14</title>
<g id="a_edge13_Node000013_Node000014"><a xlink:title=" ">
<path fill="none" stroke="#63b8ff" d="M135.37,-54.84C150.44,-46.66 172.89,-34.46 190.4,-24.94"/>
<polygon fill="#63b8ff" stroke="#63b8ff" points="191.6,-28.27 198.71,-20.43 188.26,-22.12 191.6,-28.27"/>
</a>
</g>
</g>
<!-- Node15 -->
<g id="Node000015" class="node">
<title>Node15</title>
<g id="a_Node000015"><a xlink:title=" ">
<polygon fill="#e0e0e0" stroke="#999999" points="71.5,-19.25 0,-19.25 0,0 71.5,0 71.5,-19.25"/>
<text text-anchor="middle" x="35.75" y="-5.75" font-family="Helvetica,sans-Serif" font-size="10.00">initializer_list</text>
</a>
</g>
</g>
<!-- Node13&#45;&gt;Node15 -->
<g id="edge15_Node000013_Node000015" class="edge">
<title>Node13&#45;&gt;Node15</title>
<g id="a_edge15_Node000013_Node000015"><a xlink:title=" ">
<path fill="none" stroke="#63b8ff" d="M104.67,-54.84C92.27,-46.89 73.96,-35.14 59.32,-25.75"/>
<polygon fill="#63b8ff" stroke="#63b8ff" points="61.48,-22.97 51.17,-20.52 57.7,-28.87 61.48,-22.97"/>
</a>
</g>
</g>
<!-- Node16 -->
<g id="Node000016" class="node">
<title>Node16</title>
<g id="a_Node000016"><a xlink:title=" ">
<polygon fill="#e0e0e0" stroke="#999999" points="147.75,-19.25 89.75,-19.25 89.75,0 147.75,0 147.75,-19.25"/>
<text text-anchor="middle" x="118.75" y="-5.75" font-family="Helvetica,sans-Serif" font-size="10.00">stdexcept</text>
</a>
</g>
</g>
<!-- Node13&#45;&gt;Node16 -->
<g id="edge16_Node000013_Node000016" class="edge">
<title>Node13&#45;&gt;Node16</title>
<g id="a_edge16_Node000013_Node000016"><a xlink:title=" ">
<path fill="none" stroke="#63b8ff" d="M118.75,-55.08C118.75,-48.57 118.75,-39.42 118.75,-31.12"/>
<polygon fill="#63b8ff" stroke="#63b8ff" points="122.25,-31.12 118.75,-21.12 115.25,-31.12 122.25,-31.12"/>
</a>
</g>
</g>
<!-- Node17&#45;&gt;Node5 -->
<g id="edge19_Node000017_Node000005" class="edge">
<title>Node17&#45;&gt;Node5</title>
<g id="a_edge19_Node000017_Node000005"><a xlink:title=" ">
<path fill="none" stroke="#63b8ff" d="M274.42,-110.24C261.98,-97.29 242.93,-72.87 255.75,-55.25 278.97,-23.33 325.49,-13.77 358.08,-11.16"/>
<polygon fill="#63b8ff" stroke="#63b8ff" points="358.1,-14.66 367.87,-10.57 357.68,-7.67 358.1,-14.66"/>
</a>
</g>
</g>
<!-- Node17&#45;&gt;Node13 -->
<g id="edge18_Node000017_Node000013" class="edge">
<title>Node17&#45;&gt;Node13</title>
<g id="a_edge18_Node000017_Node000013"><a xlink:title=" ">
<path fill="none" stroke="#63b8ff" d="M255.76,-110.09C228.74,-101.37 187.59,-88.09 157.44,-78.36"/>
<polygon fill="#63b8ff" stroke="#63b8ff" points="158.91,-75.16 148.32,-75.42 156.76,-81.82 158.91,-75.16"/>
</a>
</g>
</g>
<!-- Node18 -->
<g id="Node000018" class="node">
<title>Node18</title>
<g id="a_Node000018"><a xlink:title=" ">
<polygon fill="#e0e0e0" stroke="#999999" points="326.25,-74.5 265.25,-74.5 265.25,-55.25 326.25,-55.25 326.25,-74.5"/>
<text text-anchor="middle" x="295.75" y="-61" font-family="Helvetica,sans-Serif" font-size="10.00">type_traits</text>
</a>
</g>
</g>
<!-- Node17&#45;&gt;Node18 -->
<g id="edge20_Node000017_Node000018" class="edge">
<title>Node17&#45;&gt;Node18</title>
<g id="a_edge20_Node000017_Node000018"><a xlink:title=" ">
<path fill="none" stroke="#63b8ff" d="M285.73,-110.33C287.22,-103.74 289.31,-94.46 291.2,-86.07"/>
<polygon fill="#63b8ff" stroke="#63b8ff" points="294.61,-86.86 293.39,-76.34 287.78,-85.32 294.61,-86.86"/>
</a>
</g>
</g>
<!-- Node17&#45;&gt;Node19 -->
<g id="edge21_Node000017_Node000019" class="edge">
<title>Node17&#45;&gt;Node19</title>
<g id="a_edge21_Node000017_Node000019"><a xlink:title=" ">
<path fill="none" stroke="#63b8ff" d="M297.66,-110.09C309.91,-102.14 328,-90.39 342.46,-81"/>
<polygon fill="#63b8ff" stroke="#63b8ff" points="344.02,-84.16 350.5,-75.78 340.21,-78.29 344.02,-84.16"/>
</a>
</g>
</g>
<!-- Node21&#45;&gt;Node2 -->
<g id="edge27_Node000021_Node000002" class="edge">
<title>Node21&#45;&gt;Node2</title>
<g id="a_edge27_Node000021_Node000002"><a xlink:title=" ">
<path fill="none" stroke="#63b8ff" d="M735.52,-221.36C666.98,-211.11 551.1,-193.78 484.97,-183.89"/>
<polygon fill="#63b8ff" stroke="#63b8ff" points="485.52,-180.43 475.12,-182.41 484.49,-187.35 485.52,-180.43"/>
</a>
</g>
</g>
<!-- Node21&#45;&gt;Node4 -->
<g id="edge28_Node000021_Node000004" class="edge">
<title>Node21&#45;&gt;Node4</title>
<g id="a_edge28_Node000021_Node000004"><a xlink:title=" ">
<path fill="none" stroke="#63b8ff" d="M791.69,-220.73C793.99,-200.63 800.78,-150.32 814.75,-110.5 817.85,-101.67 822.39,-92.39 826.63,-84.6"/>
<polygon fill="#63b8ff" stroke="#63b8ff" points="829.57,-86.51 831.47,-76.09 823.48,-83.05 829.57,-86.51"/>
</a>
</g>
</g>
<!-- Node21&#45;&gt;Node5 -->
<g id="edge29_Node000021_Node000005" class="edge">
<title>Node21&#45;&gt;Node5</title>
<g id="a_edge29_Node000021_Node000005"><a xlink:title=" ">
<path fill="none" stroke="#63b8ff" d="M797.12,-220.56C819.19,-188.6 889.81,-81.7 865.75,-55.25 836.51,-23.12 534.5,-13.63 429.5,-11.3"/>
<polygon fill="#63b8ff" stroke="#63b8ff" points="429.85,-7.8 419.77,-11.09 429.7,-14.8 429.85,-7.8"/>
</a>
</g>
</g>
<!-- Node21&#45;&gt;Node6 -->
<g id="edge30_Node000021_Node000006" class="edge">
<title>Node21&#45;&gt;Node6</title>
<g id="a_edge30_Node000021_Node000006"><a xlink:title=" ">
<path fill="none" stroke="#63b8ff" d="M778.29,-220.55C747.77,-198.7 666.24,-142.62 590.75,-110.5 587.71,-109.21 508.23,-87.64 461.4,-74.97"/>
<polygon fill="#63b8ff" stroke="#63b8ff" points="462.57,-71.66 452,-72.43 460.74,-78.41 462.57,-71.66"/>
</a>
</g>
</g>
<!-- Node21&#45;&gt;Node9 -->
<g id="edge31_Node000021_Node000009" class="edge">
<title>Node21&#45;&gt;Node9</title>
<g id="a_edge31_Node000021_Node000009"><a xlink:title=" ">
<path fill="none" stroke="#63b8ff" d="M802.4,-220.57C813.27,-211.9 829.73,-198.23 842.75,-185 875.76,-151.46 909.9,-108.11 928.2,-84.03"/>
<polygon fill="#63b8ff" stroke="#63b8ff" points="930.89,-86.28 934.12,-76.19 925.3,-82.07 930.89,-86.28"/>
</a>
</g>
</g>
<!-- Node22 -->
<g id="Node000022" class="node">
<title>Node22</title>
<g id="a_Node000022"><a xlink:title=" ">
<polygon fill="#e0e0e0" stroke="#999999" points="933,-185 894.5,-185 894.5,-165.75 933,-165.75 933,-185"/>
<text text-anchor="middle" x="913.75" y="-171.5" font-family="Helvetica,sans-Serif" font-size="10.00">utility</text>
</a>
</g>
</g>
<!-- Node21&#45;&gt;Node22 -->
<g id="edge32_Node000021_Node000022" class="edge">
<title>Node21&#45;&gt;Node22</title>
<g id="a_edge32_Node000021_Node000022"><a xlink:title=" ">
<path fill="none" stroke="#63b8ff" d="M811.62,-220.59C831.41,-212.02 861.36,-199.06 883.72,-189.38"/>
<polygon fill="#63b8ff" stroke="#63b8ff" points="884.83,-192.71 892.62,-185.52 882.05,-186.29 884.83,-192.71"/>
</a>
</g>
</g>
</g>
</svg>

<g id="navigator" transform="translate(0 0)" fill="#404254">
  <rect fill="#f2f5e9" fill-opacity="0.5" stroke="#606060" stroke-width=".5" x="0" y="0" width="60" height="60"/>
  <use id="zoomplus" xlink:href="#zoomPlus" x="17" y="9" onmousedown="handleZoom(evt,'in')"/>
  <use id="zoomminus" xlink:href="#zoomMin" x="42" y="9" onmousedown="handleZoom(evt,'out')"/>
  <use id="reset" xlink:href="#resetDef" x="30" y="36" onmousedown="handleReset()"/>
   <use id="arrowup" xlink:href="#arrowUp" x="0" y="0" onmousedown="handlePan(0,-1)"/>
  <use id="arrowright" xlink:href="#arrowRight" x="0" y="0" onmousedown="handlePan(1,0)"/>
  <use id="arrowdown" xlink:href="#arrowDown" x="0" y="0" onmousedown="handlePan(0,1)"/>
  <use id="arrowleft" xlink:href="#arrowLeft" x="0" y="0" onmousedown="handlePan(-1,0)"/>
</g>
<svg viewBox="0 0 15 15" width="100%" height="30px" preserveAspectRatio="xMaxYMin meet">
 <g id="arrow_out" transform="scale(0.3 0.3)">
  <a xlink:href="spi__adapter_8h__incl_org.svg" target="_base">
   <rect id="button" ry="5" rx="5" y="6" x="6" height="38" width="38"
        fill="#f2f5e9" fill-opacity="0.5" stroke="#606060" stroke-width="1.0"/>
   <path id="arrow"
     d="M 11.500037,31.436501 C 11.940474,20.09759 22.043105,11.32322 32.158766,21.979434 L 37.068811,17.246167 C 37.068811,17.246167 37.088388,32 37.088388,32 L 22.160133,31.978069 C 22.160133,31.978069 26.997745,27.140456 26.997745,27.140456 C 18.528582,18.264221 13.291696,25.230495 11.500037,31.436501 z"
     style="fill:#404040;"/>
  </a>
 </g>
</svg>

<style type='text/css'>
<![CDATA[
[data-mouse-over-selected='false'] { opacity: 0.7; }
[data-mouse-over-selected='true']  { opacity: 1.0; }
]]>
</style>
<script type="application/ecmascript"><![CDATA[
document.addEventListener('DOMContentLoaded', (event) => {
  highlightEdges();
  highlightAdjacentNodes();
});
]]></script>
</svg>
