<?xml version="1.0" encoding="UTF-8" standalone="no"?>
<!DOCTYPE svg PUBLIC "-//W3C//DTD SVG 1.1//EN"
 "http://www.w3.org/Graphics/SVG/1.1/DTD/svg11.dtd">
<!-- Generated by graphviz version 12.2.0 (20241103.1931)
 -->
<!-- Title: bcnp/static_vector.h Pages: 1 -->
<svg width="410pt" height="83pt"
 viewBox="0.00 0.00 410.38 82.50" xmlns="http://www.w3.org/2000/svg" xmlns:xlink="http://www.w3.org/1999/xlink">
<g id="graph0" class="graph" transform="scale(1 1) rotate(0) translate(4 78.5)">
<title>bcnp/static_vector.h</title>
<!-- Node1 -->
<g id="Node000001" class="node">
<title>Node1</title>
<g id="a_Node000001"><a xlink:title="Fixed&#45;capacity vector with stack allocation (no heap).">
<polygon fill="#999999" stroke="#666666" points="257,-74.5 153.25,-74.5 153.25,-55.25 257,-55.25 257,-74.5"/>
<text text-anchor="middle" x="205.12" y="-61" font-family="Helvetica,sans-Serif" font-size="10.00">bcnp/static_vector.h</text>
</a>
</g>
</g>
<!-- Node2 -->
<g id="Node000002" class="node">
<title>Node2</title>
<g id="a_Node000002"><a xlink:title=" ">
<polygon fill="#e0e0e0" stroke="#999999" points="48.25,-19.25 0,-19.25 0,0 48.25,0 48.25,-19.25"/>
<text text-anchor="middle" x="24.12" y="-5.75" font-family="Helvetica,sans-Serif" font-size="10.00">cstddef</text>
</a>
</g>
</g>
<!-- Node1&#45;&gt;Node2 -->
<g id="edge1_Node000001_Node000002" class="edge">
<title>Node1&#45;&gt;Node2</title>
<g id="a_edge1_Node000001_Node000002"><a xlink:title=" ">
<path fill="none" stroke="#63b8ff" d="M174.42,-54.84C142.52,-45.46 92.69,-30.8 59.25,-20.96"/>
<polygon fill="#63b8ff" stroke="#63b8ff" points="60.62,-17.71 50.03,-18.25 58.64,-24.43 60.62,-17.71"/>
</a>
</g>
</g>
<!-- Node3 -->
<g id="Node000003" class="node">
<title>Node3</title>
<g id="a_Node000003"><a xlink:title=" ">
<polygon fill="#e0e0e0" stroke="#999999" points="137.88,-19.25 66.38,-19.25 66.38,0 137.88,0 137.88,-19.25"/>
<text text-anchor="middle" x="102.12" y="-5.75" font-family="Helvetica,sans-Serif" font-size="10.00">initializer_list</text>
</a>
</g>
</g>
<!-- Node1&#45;&gt;Node3 -->
<g id="edge2_Node000001_Node000003" class="edge">
<title>Node1&#45;&gt;Node3</title>
<g id="a_edge2_Node000001_Node000003"><a xlink:title=" ">
<path fill="none" stroke="#63b8ff" d="M187.65,-54.84C171.82,-46.66 148.22,-34.46 129.82,-24.94"/>
<polygon fill="#63b8ff" stroke="#63b8ff" points="131.52,-21.88 121.03,-20.4 128.3,-28.1 131.52,-21.88"/>
</a>
</g>
</g>
<!-- Node4 -->
<g id="Node000004" class="node">
<title>Node4</title>
<g id="a_Node000004"><a xlink:title=" ">
<polygon fill="#e0e0e0" stroke="#999999" points="190.12,-19.25 156.12,-19.25 156.12,0 190.12,0 190.12,-19.25"/>
<text text-anchor="middle" x="173.12" y="-5.75" font-family="Helvetica,sans-Serif" font-size="10.00">new</text>
</a>
</g>
</g>
<!-- Node1&#45;&gt;Node4 -->
<g id="edge3_Node000001_Node000004" class="edge">
<title>Node1&#45;&gt;Node4</title>
<g id="a_edge3_Node000001_Node000004"><a xlink:title=" ">
<path fill="none" stroke="#63b8ff" d="M199.84,-55.08C195.65,-48.11 189.65,-38.12 184.39,-29.37"/>
<polygon fill="#63b8ff" stroke="#63b8ff" points="187.45,-27.68 179.3,-20.91 181.45,-31.28 187.45,-27.68"/>
</a>
</g>
</g>
<!-- Node5 -->
<g id="Node000005" class="node">
<title>Node5</title>
<g id="a_Node000005"><a xlink:title=" ">
<polygon fill="#e0e0e0" stroke="#999999" points="266.12,-19.25 208.12,-19.25 208.12,0 266.12,0 266.12,-19.25"/>
<text text-anchor="middle" x="237.12" y="-5.75" font-family="Helvetica,sans-Serif" font-size="10.00">stdexcept</text>
</a>
</g>
</g>
<!-- Node1&#45;&gt;Node5 -->
<g id="edge4_Node000001_Node000005" class="edge">
<title>Node1&#45;&gt;Node5</title>
<g id="a_edge4_Node000001_Node000005"><a xlink:title=" ">
<path fill="none" stroke="#63b8ff" d="M210.41,-55.08C214.6,-48.11 220.6,-38.12 225.86,-29.37"/>
<polygon fill="#63b8ff" stroke="#63b8ff" points="228.8,-31.28 230.95,-20.91 222.8,-27.68 228.8,-31.28"/>
</a>
</g>
</g>
<!-- Node6 -->
<g id="Node000006" class="node">
<title>Node6</title>
<g id="a_Node000006"><a xlink:title=" ">
<polygon fill="#e0e0e0" stroke="#999999" points="345.62,-19.25 284.62,-19.25 284.62,0 345.62,0 345.62,-19.25"/>
<text text-anchor="middle" x="315.12" y="-5.75" font-family="Helvetica,sans-Serif" font-size="10.00">type_traits</text>
</a>
</g>
</g>
<!-- Node1&#45;&gt;Node6 -->
<g id="edge5_Node000001_Node000006" class="edge">
<title>Node1&#45;&gt;Node6</title>
<g id="a_edge5_Node000001_Node000006"><a xlink:title=" ">
<path fill="none" stroke="#63b8ff" d="M223.79,-54.84C240.85,-46.58 266.37,-34.23 286.1,-24.68"/>
<polygon fill="#63b8ff" stroke="#63b8ff" points="287.54,-27.87 295.01,-20.36 284.49,-21.57 287.54,-27.87"/>
</a>
</g>
</g>
<!-- Node7 -->
<g id="Node000007" class="node">
<title>Node7</title>
<g id="a_Node000007"><a xlink:title=" ">
<polygon fill="#e0e0e0" stroke="#999999" points="402.38,-19.25 363.88,-19.25 363.88,0 402.38,0 402.38,-19.25"/>
<text text-anchor="middle" x="383.12" y="-5.75" font-family="Helvetica,sans-Serif" font-size="10.00">utility</text>
</a>
</g>
</g>
<!-- Node1&#45;&gt;Node7 -->
<g id="edge6_Node000001_Node000007" class="edge">
<title>Node1&#45;&gt;Node7</title>
<g id="a_edge6_Node000001_Node000007"><a xlink:title=" ">
<path fill="none" stroke="#63b8ff" d="M235.89,-54.82C263.98,-46.53 306.93,-33.8 352.54,-20.01"/>
<polygon fill="#63b8ff" stroke="#63b8ff" points="353.54,-23.37 362.1,-17.12 351.52,-16.67 353.54,-23.37"/>
</a>
</g>
</g>
</g>
</svg>
