<?xml version="1.0" encoding="UTF-8" standalone="no"?>
<!DOCTYPE svg PUBLIC "-//W3C//DTD SVG 1.1//EN"
 "http://www.w3.org/Graphics/SVG/1.1/DTD/svg11.dtd">
<!-- Generated by graphviz version 12.2.0 (20241103.1931)
 -->
<!-- Title: bcnp/static_vector.h Pages: 1 -->
<!--zoomable 404 -->

<svg id="main" version="1.1" xmlns="http://www.w3.org/2000/svg" xmlns:xlink="http://www.w3.org/1999/xlink" xml:space="preserve" onload="init(evt)">

<style type="text/css"><![CDATA[
.node, .edge {opacity: 0.7;}
.node.selected, .edge.selected {opacity: 1;}
.edge:hover path { stroke: red; }
.edge:hover polygon { stroke: red; fill: red; }
]]></style>

<defs>
  <circle id="rim" cx="0" cy="0" r="7"/>
  <circle id="rim2" cx="0" cy="0" r="3.5"/>
  <g id="zoomPlus">
    <use xlink:href="#rim" fill="#404040"><set attributeName="fill" to="#808080" begin="zoomplus.mouseover" end="zoomplus.mouseout"/></use>
    <path d="M-4,0h8M0,-4v8" fill="none" stroke="white" stroke-width="1.5" pointer-events="none"/>
  </g>
  <g id="zoomMin">
    <use xlink:href="#rim" fill="#404040"><set attributeName="fill" to="#808080" begin="zoomminus.mouseover" end="zoomminus.mouseout"/></use>
    <path d="M-4,0h8" fill="none" stroke="white" stroke-width="1.5" pointer-events="none"/>
  </g>
  <g id="arrowUp" transform="translate(30 24)">
    <use xlink:href="#rim"/>
    <path pointer-events="none" fill="none" stroke="white" stroke-width="1.5" d="M0,-3.0v7 M-2.5,-0.5L0,-3.0L2.5,-0.5"/>
  </g>
  <g id="arrowRight" transform="rotate(90) translate(36 -43)">
    <use xlink:href="#rim"/>
    <path pointer-events="none" fill="none" stroke="white" stroke-width="1.5" d="M0,-3.0v7 M-2.5,-0.5L0,-3.0L2.5,-0.5"/>
  </g>
  <g id="arrowDown" transform="rotate(180) translate(-30 -48)">
    <use xlink:href="#rim"/>
    <path pointer-events="none" fill="none" stroke="white" stroke-width="1.5" d="M0,-3.0v7 M-2.5,-0.5L0,-3.0L2.5,-0.5"/>
  </g>
  <g id="arrowLeft" transform="rotate(270) translate(-36 17)">
    <use xlink:href="#rim"/>
    <path pointer-events="none" fill="none" stroke="white" stroke-width="1.5" d="M0,-3.0v7 M-2.5,-0.5L0,-3.0L2.5,-0.5"/>
  </g>
  <g id="resetDef">
    <use xlink:href="#rim2" fill="#404040"><set attributeName="fill" to="#808080" begin="reset.mouseover" end="reset.mouseout"/></use>
  </g>
</defs>
<script type="application/ecmascript">
var viewWidth = 796;
var viewHeight = 404;
var sectionId = 'dynsection-1';
</script>
<script type="application/ecmascript" xlink:href="svg.min.js"/>
<svg id="graph" class="graph">
<g id="viewport">
<title>bcnp/static_vector.h</title>
<!-- Node1 -->
<g id="Node000001" class="node">
<title>Node1</title>
<g id="a_Node000001"><a xlink:title="Fixed&#45;capacity vector with stack allocation (no heap).">
<polygon fill="#999999" stroke="#666666" points="674,-395.75 570.25,-395.75 570.25,-376.5 674,-376.5 674,-395.75"/>
<text text-anchor="middle" x="622.12" y="-382.25" font-family="Helvetica,sans-Serif" font-size="10.00">bcnp/static_vector.h</text>
</a>
</g>
</g>
<!-- Node2 -->
<g id="Node000002" class="node">
<title>Node2</title>
<g id="a_Node000002"><a xlink:href="packet_8h.html" target="_top" xlink:title="BCNP packet structures, encoding, and decoding utilities.">
<polygon fill="white" stroke="#666666" points="543.5,-285.25 466.75,-285.25 466.75,-266 543.5,-266 543.5,-285.25"/>
<text text-anchor="middle" x="505.12" y="-271.75" font-family="Helvetica,sans-Serif" font-size="10.00">bcnp/packet.h</text>
</a>
</g>
</g>
<!-- Node1&#45;&gt;Node2 -->
<g id="edge1_Node000001_Node000002" class="edge">
<title>Node1&#45;&gt;Node2</title>
<g id="a_edge1_Node000001_Node000002"><a xlink:title=" ">
<path fill="none" stroke="#63b8ff" d="M596.34,-370.25C583.57,-362.26 568.31,-351.76 556.12,-340.5 537.36,-323.17 519.77,-298.63 510.98,-285.59"/>
<polygon fill="#63b8ff" stroke="#63b8ff" points="594.29,-373.09 604.65,-375.29 597.92,-367.11 594.29,-373.09"/>
</a>
</g>
</g>
<!-- Node13 -->
<g id="Node000013" class="node">
<title>Node13</title>
<g id="a_Node000013"><a xlink:href="telemetry__accumulator_8h.html" target="_top" xlink:title=" ">
<polygon fill="white" stroke="#666666" points="788,-224.38 642.25,-224.38 642.25,-205.12 788,-205.12 788,-224.38"/>
<text text-anchor="middle" x="715.12" y="-210.88" font-family="Helvetica,sans-Serif" font-size="10.00">bcnp/telemetry_accumulator.h</text>
</a>
</g>
</g>
<!-- Node1&#45;&gt;Node13 -->
<g id="edge20_Node000001_Node000013" class="edge">
<title>Node1&#45;&gt;Node13</title>
<g id="a_edge20_Node000001_Node000013"><a xlink:title=" ">
<path fill="none" stroke="#63b8ff" d="M653.03,-370.84C665.72,-363.49 679.44,-353.34 688.12,-340.5 713.33,-303.24 715.54,-246.63 715.37,-224.79"/>
<polygon fill="#63b8ff" stroke="#63b8ff" points="651.66,-367.6 644.52,-375.42 654.98,-373.76 651.66,-367.6"/>
</a>
</g>
</g>
<!-- Node16 -->
<g id="Node000016" class="node">
<title>Node16</title>
<g id="a_Node000016"><a xlink:href="packet__storage_8h.html" target="_top" xlink:title=" ">
<polygon fill="white" stroke="#666666" points="679.25,-340.5 565,-340.5 565,-321.25 679.25,-321.25 679.25,-340.5"/>
<text text-anchor="middle" x="622.12" y="-327" font-family="Helvetica,sans-Serif" font-size="10.00">bcnp/packet_storage.h</text>
</a>
</g>
</g>
<!-- Node1&#45;&gt;Node16 -->
<g id="edge17_Node000001_Node000016" class="edge">
<title>Node1&#45;&gt;Node16</title>
<g id="a_edge17_Node000001_Node000016"><a xlink:title=" ">
<path fill="none" stroke="#63b8ff" d="M622.12,-364.88C622.12,-356.59 622.12,-347.42 622.12,-340.86"/>
<polygon fill="#63b8ff" stroke="#63b8ff" points="618.63,-364.82 622.13,-374.82 625.63,-364.82 618.63,-364.82"/>
</a>
</g>
</g>
<!-- Node3 -->
<g id="Node000003" class="node">
<title>Node3</title>
<g id="a_Node000003"><a xlink:href="packet_8cpp.html" target="_top" xlink:title="Implementation of BCNP packet encoding and decoding functions.">
<polygon fill="white" stroke="#666666" points="301.75,-224.38 214.5,-224.38 214.5,-205.12 301.75,-205.12 301.75,-224.38"/>
<text text-anchor="middle" x="258.12" y="-210.88" font-family="Helvetica,sans-Serif" font-size="10.00">bcnp/packet.cpp</text>
</a>
</g>
</g>
<!-- Node2&#45;&gt;Node3 -->
<g id="edge2_Node000002_Node000003" class="edge">
<title>Node2&#45;&gt;Node3</title>
<g id="a_edge2_Node000002_Node000003"><a xlink:title=" ">
<path fill="none" stroke="#63b8ff" d="M455.56,-263.05C417.42,-254.11 363.41,-241.39 316.12,-230 309.27,-228.35 301.96,-226.57 294.93,-224.85"/>
<polygon fill="#63b8ff" stroke="#63b8ff" points="454.36,-266.37 464.9,-265.24 455.96,-259.55 454.36,-266.37"/>
</a>
</g>
</g>
<!-- Node4 -->
<g id="Node000004" class="node">
<title>Node4</title>
<g id="a_Node000004"><a xlink:href="spi__adapter_8h.html" target="_top" xlink:title="SPI transport adapter for BCNP (deprecated).">
<polygon fill="white" stroke="#666666" points="211,-157.88 113.25,-157.88 113.25,-138.62 211,-138.62 211,-157.88"/>
<text text-anchor="middle" x="162.12" y="-144.38" font-family="Helvetica,sans-Serif" font-size="10.00">bcnp/spi_adapter.h</text>
</a>
</g>
</g>
<!-- Node2&#45;&gt;Node4 -->
<g id="edge3_Node000002_Node000004" class="edge">
<title>Node2&#45;&gt;Node4</title>
<g id="a_edge3_Node000002_Node000004"><a xlink:title=" ">
<path fill="none" stroke="#63b8ff" d="M455.16,-265.64C423.57,-258.69 382.55,-247.29 349.12,-230 329.89,-220.05 330.12,-209.9 311.12,-199.5 275.92,-180.23 232.02,-166.52 201.01,-158.34"/>
<polygon fill="#63b8ff" stroke="#63b8ff" points="454.35,-269.04 464.86,-267.68 455.8,-262.19 454.35,-269.04"/>
</a>
</g>
</g>
<!-- Node6 -->
<g id="Node000006" class="node">
<title>Node6</title>
<g id="a_Node000006"><a xlink:href="stream__parser_8h.html" target="_top" xlink:title=" ">
<polygon fill="white" stroke="#666666" points="468,-224.38 358.25,-224.38 358.25,-205.12 468,-205.12 468,-224.38"/>
<text text-anchor="middle" x="413.12" y="-210.88" font-family="Helvetica,sans-Serif" font-size="10.00">bcnp/stream_parser.h</text>
</a>
</g>
</g>
<!-- Node2&#45;&gt;Node6 -->
<g id="edge5_Node000002_Node000006" class="edge">
<title>Node2&#45;&gt;Node6</title>
<g id="a_edge5_Node000002_Node000006"><a xlink:title=" ">
<path fill="none" stroke="#63b8ff" d="M481.78,-259.68C464.57,-248.67 441.73,-234.06 427.23,-224.78"/>
<polygon fill="#63b8ff" stroke="#63b8ff" points="479.57,-262.43 489.88,-264.87 483.34,-256.53 479.57,-262.43"/>
</a>
</g>
</g>
<!-- Node11 -->
<g id="Node000011" class="node">
<title>Node11</title>
<g id="a_Node000011"><a xlink:href="controller__driver_8cpp.html" target="_top" xlink:title=" ">
<polygon fill="white" stroke="#666666" points="517.62,-30.5 396.62,-30.5 396.62,0 517.62,0 517.62,-30.5"/>
<text text-anchor="start" x="404.62" y="-17" font-family="Helvetica,sans-Serif" font-size="10.00">bcnp/transport/controller</text>
<text text-anchor="middle" x="457.12" y="-5.75" font-family="Helvetica,sans-Serif" font-size="10.00">_driver.cpp</text>
</a>
</g>
</g>
<!-- Node2&#45;&gt;Node11 -->
<g id="edge14_Node000002_Node000011" class="edge">
<title>Node2&#45;&gt;Node11</title>
<g id="a_edge14_Node000002_Node000011"><a xlink:title=" ">
<path fill="none" stroke="#63b8ff" d="M505.45,-254.3C505.51,-216.48 503.11,-133.12 483.12,-66.5 479.29,-53.7 472.19,-40.32 466.38,-30.59"/>
<polygon fill="#63b8ff" stroke="#63b8ff" points="501.95,-254.13 505.36,-264.16 508.95,-254.19 501.95,-254.13"/>
</a>
</g>
</g>
<!-- Node2&#45;&gt;Node13 -->
<g id="edge13_Node000002_Node000013" class="edge">
<title>Node2&#45;&gt;Node13</title>
<g id="a_edge13_Node000002_Node000013"><a xlink:title=" ">
<path fill="none" stroke="#63b8ff" d="M548.47,-262.47C588.39,-251.28 646.73,-234.93 682.74,-224.83"/>
<polygon fill="#63b8ff" stroke="#63b8ff" points="547.62,-259.08 538.93,-265.15 549.51,-265.82 547.62,-259.08"/>
</a>
</g>
</g>
<!-- Node14 -->
<g id="Node000014" class="node">
<title>Node14</title>
<g id="a_Node000014"><a xlink:href="tcp__posix_8h.html" target="_top" xlink:title=" ">
<polygon fill="white" stroke="#666666" points="624.5,-230 529.75,-230 529.75,-199.5 624.5,-199.5 624.5,-230"/>
<text text-anchor="start" x="537.75" y="-216.5" font-family="Helvetica,sans-Serif" font-size="10.00">bcnp/transport/tcp</text>
<text text-anchor="middle" x="577.12" y="-205.25" font-family="Helvetica,sans-Serif" font-size="10.00">_posix.h</text>
</a>
</g>
</g>
<!-- Node2&#45;&gt;Node14 -->
<g id="edge15_Node000002_Node000014" class="edge">
<title>Node2&#45;&gt;Node14</title>
<g id="a_edge15_Node000002_Node000014"><a xlink:title=" ">
<path fill="none" stroke="#63b8ff" d="M524.78,-258.56C535.57,-249.73 548.87,-238.86 559.35,-230.28"/>
<polygon fill="#63b8ff" stroke="#63b8ff" points="522.76,-255.69 517.23,-264.73 527.19,-261.1 522.76,-255.69"/>
</a>
</g>
</g>
<!-- Node5 -->
<g id="Node000005" class="node">
<title>Node5</title>
<g id="a_Node000005"><a xlink:href="spi__adapter_8cpp.html" target="_top" xlink:title="Implementation of the deprecated SPI transport adapter.">
<polygon fill="white" stroke="#666666" points="108.25,-91.38 0,-91.38 0,-72.12 108.25,-72.12 108.25,-91.38"/>
<text text-anchor="middle" x="54.12" y="-77.88" font-family="Helvetica,sans-Serif" font-size="10.00">bcnp/spi_adapter.cpp</text>
</a>
</g>
</g>
<!-- Node4&#45;&gt;Node5 -->
<g id="edge4_Node000004_Node000005" class="edge">
<title>Node4&#45;&gt;Node5</title>
<g id="a_edge4_Node000004_Node000005"><a xlink:title=" ">
<path fill="none" stroke="#63b8ff" d="M137.3,-132.42C116.35,-119.91 87.01,-102.39 69.36,-91.85"/>
<polygon fill="#63b8ff" stroke="#63b8ff" points="135.43,-135.38 145.81,-137.51 139.02,-129.37 135.43,-135.38"/>
</a>
</g>
</g>
<!-- Node6&#45;&gt;Node4 -->
<g id="edge11_Node000006_Node000004" class="edge">
<title>Node6&#45;&gt;Node4</title>
<g id="a_edge11_Node000006_Node000004"><a xlink:title=" ">
<path fill="none" stroke="#63b8ff" d="M366.77,-201.84C317.8,-189.26 241.67,-169.69 197.37,-158.31"/>
<polygon fill="#63b8ff" stroke="#63b8ff" points="365.67,-205.17 376.23,-204.27 367.42,-198.39 365.67,-205.17"/>
</a>
</g>
</g>
<!-- Node7 -->
<g id="Node000007" class="node">
<title>Node7</title>
<g id="a_Node000007"><a xlink:href="dispatcher_8h.html" target="_top" xlink:title=" ">
<polygon fill="white" stroke="#666666" points="459.38,-157.88 366.88,-157.88 366.88,-138.62 459.38,-138.62 459.38,-157.88"/>
<text text-anchor="middle" x="413.12" y="-144.38" font-family="Helvetica,sans-Serif" font-size="10.00">bcnp/dispatcher.h</text>
</a>
</g>
</g>
<!-- Node6&#45;&gt;Node7 -->
<g id="edge6_Node000006_Node000007" class="edge">
<title>Node6&#45;&gt;Node7</title>
<g id="a_edge6_Node000006_Node000007"><a xlink:title=" ">
<path fill="none" stroke="#63b8ff" d="M413.12,-193.27C413.12,-181.44 413.12,-167.16 413.12,-158.14"/>
<polygon fill="#63b8ff" stroke="#63b8ff" points="409.63,-193.27 413.13,-203.27 416.63,-193.27 409.63,-193.27"/>
</a>
</g>
</g>
<!-- Node12 -->
<g id="Node000012" class="node">
<title>Node12</title>
<g id="a_Node000012"><a xlink:href="stream__parser_8cpp.html" target="_top" xlink:title="Implementation of the BCNP stream parser.">
<polygon fill="white" stroke="#666666" points="349.25,-157.88 229,-157.88 229,-138.62 349.25,-138.62 349.25,-157.88"/>
<text text-anchor="middle" x="289.12" y="-144.38" font-family="Helvetica,sans-Serif" font-size="10.00">bcnp/stream_parser.cpp</text>
</a>
</g>
</g>
<!-- Node6&#45;&gt;Node12 -->
<g id="edge12_Node000006_Node000012" class="edge">
<title>Node6&#45;&gt;Node12</title>
<g id="a_edge12_Node000006_Node000012"><a xlink:title=" ">
<path fill="none" stroke="#63b8ff" d="M385.65,-199.46C361.5,-186.9 327.09,-169 306.54,-158.31"/>
<polygon fill="#63b8ff" stroke="#63b8ff" points="383.79,-202.44 394.28,-203.95 387.02,-196.23 383.79,-202.44"/>
</a>
</g>
</g>
<!-- Node8 -->
<g id="Node000008" class="node">
<title>Node8</title>
<g id="a_Node000008"><a xlink:href="controller_8h.html" target="_top" xlink:title=" ">
<polygon fill="white" stroke="#666666" points="213.75,-91.38 126.5,-91.38 126.5,-72.12 213.75,-72.12 213.75,-91.38"/>
<text text-anchor="middle" x="170.12" y="-77.88" font-family="Helvetica,sans-Serif" font-size="10.00">bcnp/controller.h</text>
</a>
</g>
</g>
<!-- Node7&#45;&gt;Node8 -->
<g id="edge7_Node000007_Node000008" class="edge">
<title>Node7&#45;&gt;Node8</title>
<g id="a_edge7_Node000007_Node000008"><a xlink:title=" ">
<path fill="none" stroke="#63b8ff" d="M367.34,-135.34C328.62,-125.24 271.7,-110.31 222.12,-97 215.98,-95.35 209.43,-93.57 203.12,-91.85"/>
<polygon fill="#63b8ff" stroke="#63b8ff" points="366.22,-138.67 376.78,-137.81 367.99,-131.9 366.22,-138.67"/>
</a>
</g>
</g>
<!-- Node9 -->
<g id="Node000009" class="node">
<title>Node9</title>
<g id="a_Node000009"><a xlink:href="dispatcher_8cpp.html" target="_top" xlink:title="Implementation of the BCNP packet dispatcher.">
<polygon fill="white" stroke="#666666" points="334.62,-91.38 231.62,-91.38 231.62,-72.12 334.62,-72.12 334.62,-91.38"/>
<text text-anchor="middle" x="283.12" y="-77.88" font-family="Helvetica,sans-Serif" font-size="10.00">bcnp/dispatcher.cpp</text>
</a>
</g>
</g>
<!-- Node7&#45;&gt;Node9 -->
<g id="edge8_Node000007_Node000009" class="edge">
<title>Node7&#45;&gt;Node9</title>
<g id="a_edge8_Node000007_Node000009"><a xlink:title=" ">
<path fill="none" stroke="#63b8ff" d="M384.66,-133.13C359.33,-120.56 323.02,-102.54 301.38,-91.81"/>
<polygon fill="#63b8ff" stroke="#63b8ff" points="382.91,-136.16 393.42,-137.47 386.02,-129.89 382.91,-136.16"/>
</a>
</g>
</g>
<!-- Node10 -->
<g id="Node000010" class="node">
<title>Node10</title>
<g id="a_Node000010"><a xlink:href="controller__driver_8h.html" target="_top" xlink:title=" ">
<polygon fill="white" stroke="#666666" points="473.62,-97 352.62,-97 352.62,-66.5 473.62,-66.5 473.62,-97"/>
<text text-anchor="start" x="360.62" y="-83.5" font-family="Helvetica,sans-Serif" font-size="10.00">bcnp/transport/controller</text>
<text text-anchor="middle" x="413.12" y="-72.25" font-family="Helvetica,sans-Serif" font-size="10.00">_driver.h</text>
</a>
</g>
</g>
<!-- Node7&#45;&gt;Node10 -->
<g id="edge9_Node000007_Node000010" class="edge">
<title>Node7&#45;&gt;Node10</title>
<g id="a_edge9_Node000007_Node000010"><a xlink:title=" ">
<path fill="none" stroke="#63b8ff" d="M413.12,-126.87C413.12,-117.19 413.12,-105.85 413.12,-97.09"/>
<polygon fill="#63b8ff" stroke="#63b8ff" points="409.63,-126.77 413.13,-136.77 416.63,-126.77 409.63,-126.77"/>
</a>
</g>
</g>
<!-- Node10&#45;&gt;Node11 -->
<g id="edge10_Node000010_Node000011" class="edge">
<title>Node10&#45;&gt;Node11</title>
<g id="a_edge10_Node000010_Node000011"><a xlink:title=" ">
<path fill="none" stroke="#63b8ff" d="M429.47,-56.79C435.42,-48.07 441.95,-38.49 447.18,-30.83"/>
<polygon fill="#63b8ff" stroke="#63b8ff" points="426.71,-54.63 423.96,-64.86 432.49,-58.58 426.71,-54.63"/>
</a>
</g>
</g>
<!-- Node15 -->
<g id="Node000015" class="node">
<title>Node15</title>
<g id="a_Node000015"><a xlink:href="tcp__posix_8cpp.html" target="_top" xlink:title="TCP transport adapter implementation for POSIX systems.">
<polygon fill="white" stroke="#666666" points="624.5,-163.5 529.75,-163.5 529.75,-133 624.5,-133 624.5,-163.5"/>
<text text-anchor="start" x="537.75" y="-150" font-family="Helvetica,sans-Serif" font-size="10.00">bcnp/transport/tcp</text>
<text text-anchor="middle" x="577.12" y="-138.75" font-family="Helvetica,sans-Serif" font-size="10.00">_posix.cpp</text>
</a>
</g>
</g>
<!-- Node14&#45;&gt;Node15 -->
<g id="edge16_Node000014_Node000015" class="edge">
<title>Node14&#45;&gt;Node15</title>
<g id="a_edge16_Node000014_Node000015"><a xlink:title=" ">
<path fill="none" stroke="#63b8ff" d="M577.12,-187.81C577.12,-179.64 577.12,-170.91 577.12,-163.83"/>
<polygon fill="#63b8ff" stroke="#63b8ff" points="573.63,-187.6 577.13,-197.6 580.63,-187.6 573.63,-187.6"/>
</a>
</g>
</g>
<!-- Node16&#45;&gt;Node2 -->
<g id="edge18_Node000016_Node000002" class="edge">
<title>Node16&#45;&gt;Node2</title>
<g id="a_edge18_Node000016_Node000002"><a xlink:title=" ">
<path fill="none" stroke="#63b8ff" d="M591.94,-316.14C570.9,-306.56 543.42,-294.06 525.07,-285.7"/>
<polygon fill="#63b8ff" stroke="#63b8ff" points="590.35,-319.26 600.9,-320.21 593.25,-312.89 590.35,-319.26"/>
</a>
</g>
</g>
<!-- Node16&#45;&gt;Node13 -->
<g id="edge19_Node000016_Node000013" class="edge">
<title>Node16&#45;&gt;Node13</title>
<g id="a_edge19_Node000016_Node000013"><a xlink:title=" ">
<path fill="none" stroke="#63b8ff" d="M636.53,-312.19C656.69,-287.46 692.54,-243.46 707.86,-224.66"/>
<polygon fill="#63b8ff" stroke="#63b8ff" points="633.98,-309.78 630.38,-319.75 639.41,-314.21 633.98,-309.78"/>
</a>
</g>
</g>
</g>
</svg>

<g id="navigator" transform="translate(0 0)" fill="#404254">
  <rect fill="#f2f5e9" fill-opacity="0.5" stroke="#606060" stroke-width=".5" x="0" y="0" width="60" height="60"/>
  <use id="zoomplus" xlink:href="#zoomPlus" x="17" y="9" onmousedown="handleZoom(evt,'in')"/>
  <use id="zoomminus" xlink:href="#zoomMin" x="42" y="9" onmousedown="handleZoom(evt,'out')"/>
  <use id="reset" xlink:href="#resetDef" x="30" y="36" onmousedown="handleReset()"/>
   <use id="arrowup" xlink:href="#arrowUp" x="0" y="0" onmousedown="handlePan(0,-1)"/>
  <use id="arrowright" xlink:href="#arrowRight" x="0" y="0" onmousedown="handlePan(1,0)"/>
  <use id="arrowdown" xlink:href="#arrowDown" x="0" y="0" onmousedown="handlePan(0,1)"/>
  <use id="arrowleft" xlink:href="#arrowLeft" x="0" y="0" onmousedown="handlePan(-1,0)"/>
</g>
<svg viewBox="0 0 15 15" width="100%" height="30px" preserveAspectRatio="xMaxYMin meet">
 <g id="arrow_out" transform="scale(0.3 0.3)">
  <a xlink:href="static__vector_8h__dep__incl_org.svg" target="_base">
   <rect id="button" ry="5" rx="5" y="6" x="6" height="38" width="38"
        fill="#f2f5e9" fill-opacity="0.5" stroke="#606060" stroke-width="1.0"/>
   <path id="arrow"
     d="M 11.500037,31.436501 C 11.940474,20.09759 22.043105,11.32322 32.158766,21.979434 L 37.068811,17.246167 C 37.068811,17.246167 37.088388,32 37.088388,32 L 22.160133,31.978069 C 22.160133,31.978069 26.997745,27.140456 26.997745,27.140456 C 18.528582,18.264221 13.291696,25.230495 11.500037,31.436501 z"
     style="fill:#404040;"/>
  </a>
 </g>
</svg>

<style type='text/css'>
<![CDATA[
[data-mouse-over-selected='false'] { opacity: 0.7; }
[data-mouse-over-selected='true']  { opacity: 1.0; }
]]>
</style>
<script type="application/ecmascript"><![CDATA[
document.addEventListener('DOMContentLoaded', (event) => {
  highlightEdges();
  highlightAdjacentNodes();
});
]]></script>
</svg>
