<?xml version="1.0" encoding="UTF-8" standalone="no"?>
<!DOCTYPE svg PUBLIC "-//W3C//DTD SVG 1.1//EN"
 "http://www.w3.org/Graphics/SVG/1.1/DTD/svg11.dtd">
<!-- Generated by graphviz version 12.2.0 (20241103.1931)
 -->
<!-- Title: bcnp/stream_parser.h Pages: 1 -->
<!--zoomable 248 -->

<svg id="main" version="1.1" xmlns="http://www.w3.org/2000/svg" xmlns:xlink="http://www.w3.org/1999/xlink" xml:space="preserve" onload="init(evt)">

<style type="text/css"><![CDATA[
.node, .edge {opacity: 0.7;}
.node.selected, .edge.selected {opacity: 1;}
.edge:hover path { stroke: red; }
.edge:hover polygon { stroke: red; fill: red; }
]]></style>

<defs>
  <circle id="rim" cx="0" cy="0" r="7"/>
  <circle id="rim2" cx="0" cy="0" r="3.5"/>
  <g id="zoomPlus">
    <use xlink:href="#rim" fill="#404040"><set attributeName="fill" to="#808080" begin="zoomplus.mouseover" end="zoomplus.mouseout"/></use>
    <path d="M-4,0h8M0,-4v8" fill="none" stroke="white" stroke-width="1.5" pointer-events="none"/>
  </g>
  <g id="zoomMin">
    <use xlink:href="#rim" fill="#404040"><set attributeName="fill" to="#808080" begin="zoomminus.mouseover" end="zoomminus.mouseout"/></use>
    <path d="M-4,0h8" fill="none" stroke="white" stroke-width="1.5" pointer-events="none"/>
  </g>
  <g id="arrowUp" transform="translate(30 24)">
    <use xlink:href="#rim"/>
    <path pointer-events="none" fill="none" stroke="white" stroke-width="1.5" d="M0,-3.0v7 M-2.5,-0.5L0,-3.0L2.5,-0.5"/>
  </g>
  <g id="arrowRight" transform="rotate(90) translate(36 -43)">
    <use xlink:href="#rim"/>
    <path pointer-events="none" fill="none" stroke="white" stroke-width="1.5" d="M0,-3.0v7 M-2.5,-0.5L0,-3.0L2.5,-0.5"/>
  </g>
  <g id="arrowDown" transform="rotate(180) translate(-30 -48)">
    <use xlink:href="#rim"/>
    <path pointer-events="none" fill="none" stroke="white" stroke-width="1.5" d="M0,-3.0v7 M-2.5,-0.5L0,-3.0L2.5,-0.5"/>
  </g>
  <g id="arrowLeft" transform="rotate(270) translate(-36 17)">
    <use xlink:href="#rim"/>
    <path pointer-events="none" fill="none" stroke="white" stroke-width="1.5" d="M0,-3.0v7 M-2.5,-0.5L0,-3.0L2.5,-0.5"/>
  </g>
  <g id="resetDef">
    <use xlink:href="#rim2" fill="#404040"><set attributeName="fill" to="#808080" begin="reset.mouseover" end="reset.mouseout"/></use>
  </g>
</defs>
<script type="application/ecmascript">
var viewWidth = 1073;
var viewHeight = 248;
var sectionId = 'dynsection-0';
</script>
<script type="application/ecmascript" xlink:href="svg.min.js"/>
<svg id="graph" class="graph">
<g id="viewport">
<title>bcnp/stream_parser.h</title>
<!-- Node1 -->
<g id="Node000001" class="node">
<title>Node1</title>
<g id="a_Node000001"><a xlink:title=" ">
<polygon fill="#999999" stroke="#666666" points="951.62,-240.25 841.88,-240.25 841.88,-221 951.62,-221 951.62,-240.25"/>
<text text-anchor="middle" x="896.75" y="-226.75" font-family="Helvetica,sans-Serif" font-size="10.00">bcnp/stream_parser.h</text>
</a>
</g>
</g>
<!-- Node2 -->
<g id="Node000002" class="node">
<title>Node2</title>
<g id="a_Node000002"><a xlink:href="packet_8h.html" target="_top" xlink:title="BCNP packet structures, encoding, and decoding utilities.">
<polygon fill="white" stroke="#666666" points="673.12,-185 596.38,-185 596.38,-165.75 673.12,-165.75 673.12,-185"/>
<text text-anchor="middle" x="634.75" y="-171.5" font-family="Helvetica,sans-Serif" font-size="10.00">bcnp/packet.h</text>
</a>
</g>
</g>
<!-- Node1&#45;&gt;Node2 -->
<g id="edge1_Node000001_Node000002" class="edge">
<title>Node1&#45;&gt;Node2</title>
<g id="a_edge1_Node000001_Node000002"><a xlink:title=" ">
<path fill="none" stroke="#63b8ff" d="M852.01,-220.53C805.46,-211.07 732.76,-196.3 684.46,-186.48"/>
<polygon fill="#63b8ff" stroke="#63b8ff" points="685.31,-183.08 674.82,-184.52 683.92,-189.94 685.31,-183.08"/>
</a>
</g>
</g>
<!-- Node4 -->
<g id="Node000004" class="node">
<title>Node4</title>
<g id="a_Node000004"><a xlink:title=" ">
<polygon fill="#e0e0e0" stroke="#999999" points="793.25,-74.5 756.25,-74.5 756.25,-55.25 793.25,-55.25 793.25,-74.5"/>
<text text-anchor="middle" x="774.75" y="-61" font-family="Helvetica,sans-Serif" font-size="10.00">array</text>
</a>
</g>
</g>
<!-- Node1&#45;&gt;Node4 -->
<g id="edge26_Node000001_Node000004" class="edge">
<title>Node1&#45;&gt;Node4</title>
<g id="a_edge26_Node000001_Node000004"><a xlink:title=" ">
<path fill="none" stroke="#63b8ff" d="M890.19,-220.82C870.91,-194.94 814.14,-118.75 788.09,-83.78"/>
<polygon fill="#63b8ff" stroke="#63b8ff" points="791.03,-81.86 782.25,-75.94 785.41,-86.05 791.03,-81.86"/>
</a>
</g>
</g>
<!-- Node5 -->
<g id="Node000005" class="node">
<title>Node5</title>
<g id="a_Node000005"><a xlink:title=" ">
<polygon fill="#e0e0e0" stroke="#999999" points="751.88,-19.25 703.62,-19.25 703.62,0 751.88,0 751.88,-19.25"/>
<text text-anchor="middle" x="727.75" y="-5.75" font-family="Helvetica,sans-Serif" font-size="10.00">cstddef</text>
</a>
</g>
</g>
<!-- Node1&#45;&gt;Node5 -->
<g id="edge27_Node000001_Node000005" class="edge">
<title>Node1&#45;&gt;Node5</title>
<g id="a_edge27_Node000001_Node000005"><a xlink:title=" ">
<path fill="none" stroke="#63b8ff" d="M907.31,-220.77C938.53,-193.56 1025.42,-109.72 979.75,-55.25 952.53,-22.79 826.01,-13.93 763.25,-11.52"/>
<polygon fill="#63b8ff" stroke="#63b8ff" points="763.58,-8.03 753.47,-11.18 763.34,-15.02 763.58,-8.03"/>
</a>
</g>
</g>
<!-- Node6 -->
<g id="Node000006" class="node">
<title>Node6</title>
<g id="a_Node000006"><a xlink:title=" ">
<polygon fill="#e0e0e0" stroke="#999999" points="856.38,-74.5 811.12,-74.5 811.12,-55.25 856.38,-55.25 856.38,-74.5"/>
<text text-anchor="middle" x="833.75" y="-61" font-family="Helvetica,sans-Serif" font-size="10.00">cstdint</text>
</a>
</g>
</g>
<!-- Node1&#45;&gt;Node6 -->
<g id="edge28_Node000001_Node000006" class="edge">
<title>Node1&#45;&gt;Node6</title>
<g id="a_edge28_Node000001_Node000006"><a xlink:title=" ">
<path fill="none" stroke="#63b8ff" d="M893.36,-220.82C883.53,-195.28 854.84,-120.7 841.17,-85.15"/>
<polygon fill="#63b8ff" stroke="#63b8ff" points="844.55,-84.21 837.7,-76.14 838.02,-86.72 844.55,-84.21"/>
</a>
</g>
</g>
<!-- Node9 -->
<g id="Node000009" class="node">
<title>Node9</title>
<g id="a_Node000009"><a xlink:title=" ">
<polygon fill="#e0e0e0" stroke="#999999" points="970.75,-74.5 912.75,-74.5 912.75,-55.25 970.75,-55.25 970.75,-74.5"/>
<text text-anchor="middle" x="941.75" y="-61" font-family="Helvetica,sans-Serif" font-size="10.00">functional</text>
</a>
</g>
</g>
<!-- Node1&#45;&gt;Node9 -->
<g id="edge29_Node000001_Node000009" class="edge">
<title>Node1&#45;&gt;Node9</title>
<g id="a_edge29_Node000001_Node000009"><a xlink:title=" ">
<path fill="none" stroke="#63b8ff" d="M899.17,-220.82C906.16,-195.39 926.5,-121.35 936.32,-85.62"/>
<polygon fill="#63b8ff" stroke="#63b8ff" points="939.64,-86.75 938.92,-76.18 932.89,-84.9 939.64,-86.75"/>
</a>
</g>
</g>
<!-- Node21 -->
<g id="Node000021" class="node">
<title>Node21</title>
<g id="a_Node000021"><a xlink:title=" ">
<polygon fill="#e0e0e0" stroke="#999999" points="1065,-185 1026.5,-185 1026.5,-165.75 1065,-165.75 1065,-185"/>
<text text-anchor="middle" x="1045.75" y="-171.5" font-family="Helvetica,sans-Serif" font-size="10.00">utility</text>
</a>
</g>
</g>
<!-- Node1&#45;&gt;Node21 -->
<g id="edge30_Node000001_Node000021" class="edge">
<title>Node1&#45;&gt;Node21</title>
<g id="a_edge30_Node000001_Node000021"><a xlink:title=" ">
<path fill="none" stroke="#63b8ff" d="M922.03,-220.59C947.86,-211.36 987.98,-197.02 1015.49,-187.19"/>
<polygon fill="#63b8ff" stroke="#63b8ff" points="1016.41,-190.58 1024.65,-183.92 1014.05,-183.99 1016.41,-190.58"/>
</a>
</g>
</g>
<!-- Node3 -->
<g id="Node000003" class="node">
<title>Node3</title>
<g id="a_Node000003"><a xlink:href="message__types_8h.html" target="_top" xlink:title=" ">
<polygon fill="white" stroke="#666666" points="735.62,-129.75 619.88,-129.75 619.88,-110.5 735.62,-110.5 735.62,-129.75"/>
<text text-anchor="middle" x="677.75" y="-116.25" font-family="Helvetica,sans-Serif" font-size="10.00">bcnp/message_types.h</text>
</a>
</g>
</g>
<!-- Node2&#45;&gt;Node3 -->
<g id="edge2_Node000002_Node000003" class="edge">
<title>Node2&#45;&gt;Node3</title>
<g id="a_edge2_Node000002_Node000003"><a xlink:title=" ">
<path fill="none" stroke="#63b8ff" d="M641.85,-165.58C647.67,-158.38 656.08,-147.96 663.31,-139.01"/>
<polygon fill="#63b8ff" stroke="#63b8ff" points="665.98,-141.27 669.54,-131.29 660.54,-136.87 665.98,-141.27"/>
</a>
</g>
</g>
<!-- Node2&#45;&gt;Node5 -->
<g id="edge23_Node000002_Node000005" class="edge">
<title>Node2&#45;&gt;Node5</title>
<g id="a_edge23_Node000002_Node000005"><a xlink:title=" ">
<path fill="none" stroke="#63b8ff" d="M673.5,-171.29C728.55,-164.52 827.01,-142.95 865.75,-74.5 889.11,-33.22 811.69,-18.42 763.46,-13.26"/>
<polygon fill="#63b8ff" stroke="#63b8ff" points="763.99,-9.8 753.7,-12.32 763.32,-16.77 763.99,-9.8"/>
</a>
</g>
</g>
<!-- Node2&#45;&gt;Node6 -->
<g id="edge24_Node000002_Node000006" class="edge">
<title>Node2&#45;&gt;Node6</title>
<g id="a_edge24_Node000002_Node000006"><a xlink:title=" ">
<path fill="none" stroke="#63b8ff" d="M662.24,-165.28C685.01,-157.26 717.86,-144.58 744.75,-129.75 770.18,-115.72 796.95,-95.7 814.4,-81.83"/>
<polygon fill="#63b8ff" stroke="#63b8ff" points="816.31,-84.78 821.89,-75.78 811.91,-79.34 816.31,-84.78"/>
</a>
</g>
</g>
<!-- Node13 -->
<g id="Node000013" class="node">
<title>Node13</title>
<g id="a_Node000013"><a xlink:href="static__vector_8h.html" target="_top" xlink:title="Fixed&#45;capacity vector with stack allocation (no heap).">
<polygon fill="white" stroke="#666666" points="207.62,-74.5 103.88,-74.5 103.88,-55.25 207.62,-55.25 207.62,-74.5"/>
<text text-anchor="middle" x="155.75" y="-61" font-family="Helvetica,sans-Serif" font-size="10.00">bcnp/static_vector.h</text>
</a>
</g>
</g>
<!-- Node2&#45;&gt;Node13 -->
<g id="edge12_Node000002_Node000013" class="edge">
<title>Node2&#45;&gt;Node13</title>
<g id="a_edge12_Node000002_Node000013"><a xlink:title=" ">
<path fill="none" stroke="#63b8ff" d="M596.17,-172.28C511.48,-167.31 311.84,-153.39 248.75,-129.75 219.85,-118.92 191.3,-97.23 173.62,-82.15"/>
<polygon fill="#63b8ff" stroke="#63b8ff" points="176.38,-79.91 166.55,-75.95 171.76,-85.18 176.38,-79.91"/>
</a>
</g>
</g>
<!-- Node17 -->
<g id="Node000017" class="node">
<title>Node17</title>
<g id="a_Node000017"><a xlink:href="packet__storage_8h.html" target="_top" xlink:title=" ">
<polygon fill="white" stroke="#666666" points="371.88,-129.75 257.62,-129.75 257.62,-110.5 371.88,-110.5 371.88,-129.75"/>
<text text-anchor="middle" x="314.75" y="-116.25" font-family="Helvetica,sans-Serif" font-size="10.00">bcnp/packet_storage.h</text>
</a>
</g>
</g>
<!-- Node2&#45;&gt;Node17 -->
<g id="edge17_Node000002_Node000017" class="edge">
<title>Node2&#45;&gt;Node17</title>
<g id="a_edge17_Node000002_Node000017"><a xlink:title=" ">
<path fill="none" stroke="#63b8ff" d="M596.15,-167.95C542.83,-159.08 445.88,-142.95 380.89,-132.13"/>
<polygon fill="#63b8ff" stroke="#63b8ff" points="381.48,-128.68 371.04,-130.49 380.33,-135.59 381.48,-128.68"/>
</a>
</g>
</g>
<!-- Node19 -->
<g id="Node000019" class="node">
<title>Node19</title>
<g id="a_Node000019"><a xlink:title=" ">
<polygon fill="#e0e0e0" stroke="#999999" points="386.25,-74.5 343.25,-74.5 343.25,-55.25 386.25,-55.25 386.25,-74.5"/>
<text text-anchor="middle" x="364.75" y="-61" font-family="Helvetica,sans-Serif" font-size="10.00">vector</text>
</a>
</g>
</g>
<!-- Node2&#45;&gt;Node19 -->
<g id="edge25_Node000002_Node000019" class="edge">
<title>Node2&#45;&gt;Node19</title>
<g id="a_edge25_Node000002_Node000019"><a xlink:title=" ">
<path fill="none" stroke="#63b8ff" d="M628.72,-165.29C618.82,-151.17 597.71,-124.13 572.75,-110.5 504.96,-73.47 475.7,-91.9 397.49,-74.9"/>
<polygon fill="#63b8ff" stroke="#63b8ff" points="398.66,-71.58 388.13,-72.73 397.08,-78.4 398.66,-71.58"/>
</a>
</g>
</g>
<!-- Node20 -->
<g id="Node000020" class="node">
<title>Node20</title>
<g id="a_Node000020"><a xlink:title=" ">
<polygon fill="#e0e0e0" stroke="#999999" points="564.12,-129.75 487.38,-129.75 487.38,-110.5 564.12,-110.5 564.12,-129.75"/>
<text text-anchor="middle" x="525.75" y="-116.25" font-family="Helvetica,sans-Serif" font-size="10.00">crab/prelude.h</text>
</a>
</g>
</g>
<!-- Node2&#45;&gt;Node20 -->
<g id="edge22_Node000002_Node000020" class="edge">
<title>Node2&#45;&gt;Node20</title>
<g id="a_edge22_Node000002_Node000020"><a xlink:title=" ">
<path fill="none" stroke="#63b8ff" d="M616.26,-165.34C599.35,-157.08 574.06,-144.73 554.51,-135.18"/>
<polygon fill="#63b8ff" stroke="#63b8ff" points="556.21,-132.11 545.69,-130.87 553.14,-138.4 556.21,-132.11"/>
</a>
</g>
</g>
<!-- Node3&#45;&gt;Node4 -->
<g id="edge3_Node000003_Node000004" class="edge">
<title>Node3&#45;&gt;Node4</title>
<g id="a_edge3_Node000003_Node000004"><a xlink:title=" ">
<path fill="none" stroke="#63b8ff" d="M694.2,-110.09C708.98,-101.98 730.93,-89.93 748.18,-80.46"/>
<polygon fill="#63b8ff" stroke="#63b8ff" points="749.81,-83.56 756.89,-75.68 746.44,-77.43 749.81,-83.56"/>
</a>
</g>
</g>
<!-- Node3&#45;&gt;Node5 -->
<g id="edge4_Node000003_Node000005" class="edge">
<title>Node3&#45;&gt;Node5</title>
<g id="a_edge4_Node000003_Node000005"><a xlink:title=" ">
<path fill="none" stroke="#63b8ff" d="M685.02,-110.03C691.69,-101.33 701.45,-87.63 707.75,-74.5 714.53,-60.37 719.72,-43.4 723.11,-30.5"/>
<polygon fill="#63b8ff" stroke="#63b8ff" points="726.44,-31.63 725.44,-21.08 719.64,-29.94 726.44,-31.63"/>
</a>
</g>
</g>
<!-- Node3&#45;&gt;Node6 -->
<g id="edge5_Node000003_Node000006" class="edge">
<title>Node3&#45;&gt;Node6</title>
<g id="a_edge5_Node000003_Node000006"><a xlink:title=" ">
<path fill="none" stroke="#63b8ff" d="M704.21,-110.09C730.61,-101.08 771.27,-87.2 799.98,-77.4"/>
<polygon fill="#63b8ff" stroke="#63b8ff" points="800.96,-80.77 809.29,-74.22 798.69,-74.14 800.96,-80.77"/>
</a>
</g>
</g>
<!-- Node7 -->
<g id="Node000007" class="node">
<title>Node7</title>
<g id="a_Node000007"><a xlink:title=" ">
<polygon fill="#e0e0e0" stroke="#999999" points="699.25,-74.5 656.25,-74.5 656.25,-55.25 699.25,-55.25 699.25,-74.5"/>
<text text-anchor="middle" x="677.75" y="-61" font-family="Helvetica,sans-Serif" font-size="10.00">cmath</text>
</a>
</g>
</g>
<!-- Node3&#45;&gt;Node7 -->
<g id="edge6_Node000003_Node000007" class="edge">
<title>Node3&#45;&gt;Node7</title>
<g id="a_edge6_Node000003_Node000007"><a xlink:title=" ">
<path fill="none" stroke="#63b8ff" d="M677.75,-110.33C677.75,-103.82 677.75,-94.67 677.75,-86.37"/>
<polygon fill="#63b8ff" stroke="#63b8ff" points="681.25,-86.37 677.75,-76.37 674.25,-86.37 681.25,-86.37"/>
</a>
</g>
</g>
<!-- Node8 -->
<g id="Node000008" class="node">
<title>Node8</title>
<g id="a_Node000008"><a xlink:title=" ">
<polygon fill="#e0e0e0" stroke="#999999" points="449.38,-74.5 404.12,-74.5 404.12,-55.25 449.38,-55.25 449.38,-74.5"/>
<text text-anchor="middle" x="426.75" y="-61" font-family="Helvetica,sans-Serif" font-size="10.00">cstring</text>
</a>
</g>
</g>
<!-- Node3&#45;&gt;Node8 -->
<g id="edge7_Node000003_Node000008" class="edge">
<title>Node3&#45;&gt;Node8</title>
<g id="a_edge7_Node000003_Node000008"><a xlink:title=" ">
<path fill="none" stroke="#63b8ff" d="M627.72,-110.03C585.43,-102.11 523.02,-89.86 460.56,-75.06"/>
<polygon fill="#63b8ff" stroke="#63b8ff" points="461.74,-71.74 451.2,-72.82 460.11,-78.55 461.74,-71.74"/>
</a>
</g>
</g>
<!-- Node3&#45;&gt;Node9 -->
<g id="edge8_Node000003_Node000009" class="edge">
<title>Node3&#45;&gt;Node9</title>
<g id="a_edge8_Node000003_Node000009"><a xlink:title=" ">
<path fill="none" stroke="#63b8ff" d="M722.83,-110.03C772.9,-99.93 853,-83.78 901.17,-74.06"/>
<polygon fill="#63b8ff" stroke="#63b8ff" points="901.81,-77.5 910.92,-72.09 900.42,-70.64 901.81,-77.5"/>
</a>
</g>
</g>
<!-- Node10 -->
<g id="Node000010" class="node">
<title>Node10</title>
<g id="a_Node000010"><a xlink:title=" ">
<polygon fill="#e0e0e0" stroke="#999999" points="506.38,-74.5 467.12,-74.5 467.12,-55.25 506.38,-55.25 506.38,-74.5"/>
<text text-anchor="middle" x="486.75" y="-61" font-family="Helvetica,sans-Serif" font-size="10.00">limits</text>
</a>
</g>
</g>
<!-- Node3&#45;&gt;Node10 -->
<g id="edge9_Node000003_Node000010" class="edge">
<title>Node3&#45;&gt;Node10</title>
<g id="a_edge9_Node000003_Node000010"><a xlink:title=" ">
<path fill="none" stroke="#63b8ff" d="M643.87,-110.01C613.3,-101.73 566.83,-89.04 517.58,-74.98"/>
<polygon fill="#63b8ff" stroke="#63b8ff" points="518.73,-71.67 508.16,-72.28 516.81,-78.4 518.73,-71.67"/>
</a>
</g>
</g>
<!-- Node11 -->
<g id="Node000011" class="node">
<title>Node11</title>
<g id="a_Node000011"><a xlink:title=" ">
<polygon fill="#e0e0e0" stroke="#999999" points="574.62,-74.5 524.88,-74.5 524.88,-55.25 574.62,-55.25 574.62,-74.5"/>
<text text-anchor="middle" x="549.75" y="-61" font-family="Helvetica,sans-Serif" font-size="10.00">optional</text>
</a>
</g>
</g>
<!-- Node3&#45;&gt;Node11 -->
<g id="edge10_Node000003_Node000011" class="edge">
<title>Node3&#45;&gt;Node11</title>
<g id="a_edge10_Node000003_Node000011"><a xlink:title=" ">
<path fill="none" stroke="#63b8ff" d="M656.04,-110.09C635.72,-101.64 605.1,-88.9 581.94,-79.27"/>
<polygon fill="#63b8ff" stroke="#63b8ff" points="583.54,-76.14 572.97,-75.53 580.86,-82.61 583.54,-76.14"/>
</a>
</g>
</g>
<!-- Node12 -->
<g id="Node000012" class="node">
<title>Node12</title>
<g id="a_Node000012"><a xlink:title=" ">
<polygon fill="#e0e0e0" stroke="#999999" points="638.38,-74.5 593.12,-74.5 593.12,-55.25 638.38,-55.25 638.38,-74.5"/>
<text text-anchor="middle" x="615.75" y="-61" font-family="Helvetica,sans-Serif" font-size="10.00">variant</text>
</a>
</g>
</g>
<!-- Node3&#45;&gt;Node12 -->
<g id="edge11_Node000003_Node000012" class="edge">
<title>Node3&#45;&gt;Node12</title>
<g id="a_edge11_Node000003_Node000012"><a xlink:title=" ">
<path fill="none" stroke="#63b8ff" d="M667.23,-110.09C658.36,-102.47 645.44,-91.37 634.76,-82.2"/>
<polygon fill="#63b8ff" stroke="#63b8ff" points="637.13,-79.62 627.26,-75.76 632.57,-84.93 637.13,-79.62"/>
</a>
</g>
</g>
<!-- Node13&#45;&gt;Node5 -->
<g id="edge14_Node000013_Node000005" class="edge">
<title>Node13&#45;&gt;Node5</title>
<g id="a_edge14_Node000013_Node000005"><a xlink:title=" ">
<path fill="none" stroke="#63b8ff" d="M208.08,-56.18C210.67,-55.85 213.24,-55.54 215.75,-55.25 394.01,-34.69 608.17,-18.89 691.81,-13.06"/>
<polygon fill="#63b8ff" stroke="#63b8ff" points="691.94,-16.56 701.68,-12.38 691.46,-9.58 691.94,-16.56"/>
</a>
</g>
</g>
<!-- Node14 -->
<g id="Node000014" class="node">
<title>Node14</title>
<g id="a_Node000014"><a xlink:title=" ">
<polygon fill="#e0e0e0" stroke="#999999" points="101.5,-19.25 0,-19.25 0,0 101.5,0 101.5,-19.25"/>
<text text-anchor="middle" x="50.75" y="-5.75" font-family="Helvetica,sans-Serif" font-size="10.00">crab/static_vector.h</text>
</a>
</g>
</g>
<!-- Node13&#45;&gt;Node14 -->
<g id="edge13_Node000013_Node000014" class="edge">
<title>Node13&#45;&gt;Node14</title>
<g id="a_edge13_Node000013_Node000014"><a xlink:title=" ">
<path fill="none" stroke="#63b8ff" d="M137.94,-54.84C121.72,-46.62 97.51,-34.34 78.72,-24.81"/>
<polygon fill="#63b8ff" stroke="#63b8ff" points="80.5,-21.79 70,-20.39 77.33,-28.03 80.5,-21.79"/>
</a>
</g>
</g>
<!-- Node15 -->
<g id="Node000015" class="node">
<title>Node15</title>
<g id="a_Node000015"><a xlink:title=" ">
<polygon fill="#e0e0e0" stroke="#999999" points="191.5,-19.25 120,-19.25 120,0 191.5,0 191.5,-19.25"/>
<text text-anchor="middle" x="155.75" y="-5.75" font-family="Helvetica,sans-Serif" font-size="10.00">initializer_list</text>
</a>
</g>
</g>
<!-- Node13&#45;&gt;Node15 -->
<g id="edge15_Node000013_Node000015" class="edge">
<title>Node13&#45;&gt;Node15</title>
<g id="a_edge15_Node000013_Node000015"><a xlink:title=" ">
<path fill="none" stroke="#63b8ff" d="M155.75,-55.08C155.75,-48.57 155.75,-39.42 155.75,-31.12"/>
<polygon fill="#63b8ff" stroke="#63b8ff" points="159.25,-31.12 155.75,-21.12 152.25,-31.12 159.25,-31.12"/>
</a>
</g>
</g>
<!-- Node16 -->
<g id="Node000016" class="node">
<title>Node16</title>
<g id="a_Node000016"><a xlink:title=" ">
<polygon fill="#e0e0e0" stroke="#999999" points="267.75,-19.25 209.75,-19.25 209.75,0 267.75,0 267.75,-19.25"/>
<text text-anchor="middle" x="238.75" y="-5.75" font-family="Helvetica,sans-Serif" font-size="10.00">stdexcept</text>
</a>
</g>
</g>
<!-- Node13&#45;&gt;Node16 -->
<g id="edge16_Node000013_Node000016" class="edge">
<title>Node13&#45;&gt;Node16</title>
<g id="a_edge16_Node000013_Node000016"><a xlink:title=" ">
<path fill="none" stroke="#63b8ff" d="M169.83,-54.84C182.23,-46.89 200.54,-35.14 215.18,-25.75"/>
<polygon fill="#63b8ff" stroke="#63b8ff" points="216.8,-28.87 223.33,-20.52 213.02,-22.97 216.8,-28.87"/>
</a>
</g>
</g>
<!-- Node17&#45;&gt;Node5 -->
<g id="edge19_Node000017_Node000005" class="edge">
<title>Node17&#45;&gt;Node5</title>
<g id="a_edge19_Node000017_Node000005"><a xlink:title=" ">
<path fill="none" stroke="#63b8ff" d="M314.54,-110.05C314.75,-95.94 317.43,-68.92 333.75,-55.25 360.93,-32.49 599.49,-17.46 691.64,-12.46"/>
<polygon fill="#63b8ff" stroke="#63b8ff" points="691.83,-15.96 701.63,-11.93 691.45,-8.97 691.83,-15.96"/>
</a>
</g>
</g>
<!-- Node17&#45;&gt;Node13 -->
<g id="edge18_Node000017_Node000013" class="edge">
<title>Node17&#45;&gt;Node13</title>
<g id="a_edge18_Node000017_Node000013"><a xlink:title=" ">
<path fill="none" stroke="#63b8ff" d="M287.78,-110.09C261.85,-101.41 222.44,-88.21 193.42,-78.49"/>
<polygon fill="#63b8ff" stroke="#63b8ff" points="194.88,-75.29 184.29,-75.43 192.66,-81.93 194.88,-75.29"/>
</a>
</g>
</g>
<!-- Node18 -->
<g id="Node000018" class="node">
<title>Node18</title>
<g id="a_Node000018"><a xlink:title=" ">
<polygon fill="#e0e0e0" stroke="#999999" points="286.25,-74.5 225.25,-74.5 225.25,-55.25 286.25,-55.25 286.25,-74.5"/>
<text text-anchor="middle" x="255.75" y="-61" font-family="Helvetica,sans-Serif" font-size="10.00">type_traits</text>
</a>
</g>
</g>
<!-- Node17&#45;&gt;Node18 -->
<g id="edge20_Node000017_Node000018" class="edge">
<title>Node17&#45;&gt;Node18</title>
<g id="a_edge20_Node000017_Node000018"><a xlink:title=" ">
<path fill="none" stroke="#63b8ff" d="M304.74,-110.09C296.38,-102.55 284.25,-91.6 274.15,-82.48"/>
<polygon fill="#63b8ff" stroke="#63b8ff" points="276.5,-79.89 266.73,-75.79 271.81,-85.09 276.5,-79.89"/>
</a>
</g>
</g>
<!-- Node17&#45;&gt;Node19 -->
<g id="edge21_Node000017_Node000019" class="edge">
<title>Node17&#45;&gt;Node19</title>
<g id="a_edge21_Node000017_Node000019"><a xlink:title=" ">
<path fill="none" stroke="#63b8ff" d="M323.01,-110.33C329.91,-102.98 339.97,-92.26 348.49,-83.19"/>
<polygon fill="#63b8ff" stroke="#63b8ff" points="350.98,-85.65 355.28,-75.96 345.88,-80.86 350.98,-85.65"/>
</a>
</g>
</g>
</g>
</svg>

<g id="navigator" transform="translate(0 0)" fill="#404254">
  <rect fill="#f2f5e9" fill-opacity="0.5" stroke="#606060" stroke-width=".5" x="0" y="0" width="60" height="60"/>
  <use id="zoomplus" xlink:href="#zoomPlus" x="17" y="9" onmousedown="handleZoom(evt,'in')"/>
  <use id="zoomminus" xlink:href="#zoomMin" x="42" y="9" onmousedown="handleZoom(evt,'out')"/>
  <use id="reset" xlink:href="#resetDef" x="30" y="36" onmousedown="handleReset()"/>
   <use id="arrowup" xlink:href="#arrowUp" x="0" y="0" onmousedown="handlePan(0,-1)"/>
  <use id="arrowright" xlink:href="#arrowRight" x="0" y="0" onmousedown="handlePan(1,0)"/>
  <use id="arrowdown" xlink:href="#arrowDown" x="0" y="0" onmousedown="handlePan(0,1)"/>
  <use id="arrowleft" xlink:href="#arrowLeft" x="0" y="0" onmousedown="handlePan(-1,0)"/>
</g>
<svg viewBox="0 0 15 15" width="100%" height="30px" preserveAspectRatio="xMaxYMin meet">
 <g id="arrow_out" transform="scale(0.3 0.3)">
  <a xlink:href="stream__parser_8h__incl_org.svg" target="_base">
   <rect id="button" ry="5" rx="5" y="6" x="6" height="38" width="38"
        fill="#f2f5e9" fill-opacity="0.5" stroke="#606060" stroke-width="1.0"/>
   <path id="arrow"
     d="M 11.500037,31.436501 C 11.940474,20.09759 22.043105,11.32322 32.158766,21.979434 L 37.068811,17.246167 C 37.068811,17.246167 37.088388,32 37.088388,32 L 22.160133,31.978069 C 22.160133,31.978069 26.997745,27.140456 26.997745,27.140456 C 18.528582,18.264221 13.291696,25.230495 11.500037,31.436501 z"
     style="fill:#404040;"/>
  </a>
 </g>
</svg>

<style type='text/css'>
<![CDATA[
[data-mouse-over-selected='false'] { opacity: 0.7; }
[data-mouse-over-selected='true']  { opacity: 1.0; }
]]>
</style>
<script type="application/ecmascript"><![CDATA[
document.addEventListener('DOMContentLoaded', (event) => {
  highlightEdges();
  highlightAdjacentNodes();
});
]]></script>
</svg>
