<?xml version="1.0" encoding="UTF-8" standalone="no"?>
<!DOCTYPE svg PUBLIC "-//W3C//DTD SVG 1.1//EN"
 "http://www.w3.org/Graphics/SVG/1.1/DTD/svg11.dtd">
<!-- Generated by graphviz version 12.2.0 (20241103.1931)
 -->
<!-- Title: bcnp/stream_parser.cpp Pages: 1 -->
<!--zoomable 304 -->

<svg id="main" version="1.1" xmlns="http://www.w3.org/2000/svg" xmlns:xlink="http://www.w3.org/1999/xlink" xml:space="preserve" onload="init(evt)">

<style type="text/css"><![CDATA[
.node, .edge {opacity: 0.7;}
.node.selected, .edge.selected {opacity: 1;}
.edge:hover path { stroke: red; }
.edge:hover polygon { stroke: red; fill: red; }
]]></style>

<defs>
  <circle id="rim" cx="0" cy="0" r="7"/>
  <circle id="rim2" cx="0" cy="0" r="3.5"/>
  <g id="zoomPlus">
    <use xlink:href="#rim" fill="#404040"><set attributeName="fill" to="#808080" begin="zoomplus.mouseover" end="zoomplus.mouseout"/></use>
    <path d="M-4,0h8M0,-4v8" fill="none" stroke="white" stroke-width="1.5" pointer-events="none"/>
  </g>
  <g id="zoomMin">
    <use xlink:href="#rim" fill="#404040"><set attributeName="fill" to="#808080" begin="zoomminus.mouseover" end="zoomminus.mouseout"/></use>
    <path d="M-4,0h8" fill="none" stroke="white" stroke-width="1.5" pointer-events="none"/>
  </g>
  <g id="arrowUp" transform="translate(30 24)">
    <use xlink:href="#rim"/>
    <path pointer-events="none" fill="none" stroke="white" stroke-width="1.5" d="M0,-3.0v7 M-2.5,-0.5L0,-3.0L2.5,-0.5"/>
  </g>
  <g id="arrowRight" transform="rotate(90) translate(36 -43)">
    <use xlink:href="#rim"/>
    <path pointer-events="none" fill="none" stroke="white" stroke-width="1.5" d="M0,-3.0v7 M-2.5,-0.5L0,-3.0L2.5,-0.5"/>
  </g>
  <g id="arrowDown" transform="rotate(180) translate(-30 -48)">
    <use xlink:href="#rim"/>
    <path pointer-events="none" fill="none" stroke="white" stroke-width="1.5" d="M0,-3.0v7 M-2.5,-0.5L0,-3.0L2.5,-0.5"/>
  </g>
  <g id="arrowLeft" transform="rotate(270) translate(-36 17)">
    <use xlink:href="#rim"/>
    <path pointer-events="none" fill="none" stroke="white" stroke-width="1.5" d="M0,-3.0v7 M-2.5,-0.5L0,-3.0L2.5,-0.5"/>
  </g>
  <g id="resetDef">
    <use xlink:href="#rim2" fill="#404040"><set attributeName="fill" to="#808080" begin="reset.mouseover" end="reset.mouseout"/></use>
  </g>
</defs>
<script type="application/ecmascript">
var viewWidth = 960;
var viewHeight = 304;
var sectionId = 'dynsection-0';
</script>
<script type="application/ecmascript" xlink:href="svg.min.js"/>
<svg id="graph" class="graph">
<g id="viewport">
<title>bcnp/stream_parser.cpp</title>
<!-- Node1 -->
<g id="Node000001" class="node">
<title>Node1</title>
<g id="a_Node000001"><a xlink:title="Implementation of the BCNP stream parser.">
<polygon fill="#999999" stroke="#666666" points="692.94,-295.5 572.69,-295.5 572.69,-276.25 692.94,-276.25 692.94,-295.5"/>
<text text-anchor="middle" x="632.82" y="-282" font-family="Helvetica,sans-Serif" font-size="10.00">bcnp/stream_parser.cpp</text>
</a>
</g>
</g>
<!-- Node2 -->
<g id="Node000002" class="node">
<title>Node2</title>
<g id="a_Node000002"><a xlink:href="stream__parser_8h.html" target="_top" xlink:title=" ">
<polygon fill="white" stroke="#666666" points="225.69,-240.25 115.94,-240.25 115.94,-221 225.69,-221 225.69,-240.25"/>
<text text-anchor="middle" x="170.82" y="-226.75" font-family="Helvetica,sans-Serif" font-size="10.00">bcnp/stream_parser.h</text>
</a>
</g>
</g>
<!-- Node1&#45;&gt;Node2 -->
<g id="edge1_Node000001_Node000002" class="edge">
<title>Node1&#45;&gt;Node2</title>
<g id="a_edge1_Node000001_Node000002"><a xlink:title=" ">
<path fill="none" stroke="#63b8ff" d="M572.42,-277.91C485.96,-267.95 327.44,-249.68 237.59,-239.32"/>
<polygon fill="#63b8ff" stroke="#63b8ff" points="238.02,-235.85 227.69,-238.18 237.22,-242.8 238.02,-235.85"/>
</a>
</g>
</g>
<!-- Node9 -->
<g id="Node000009" class="node">
<title>Node9</title>
<g id="a_Node000009"><a xlink:title=" ">
<polygon fill="#e0e0e0" stroke="#999999" points="551.44,-74.5 506.19,-74.5 506.19,-55.25 551.44,-55.25 551.44,-74.5"/>
<text text-anchor="middle" x="528.82" y="-61" font-family="Helvetica,sans-Serif" font-size="10.00">cstring</text>
</a>
</g>
</g>
<!-- Node1&#45;&gt;Node9 -->
<g id="edge35_Node000001_Node000009" class="edge">
<title>Node1&#45;&gt;Node9</title>
<g id="a_edge35_Node000001_Node000009"><a xlink:title=" ">
<path fill="none" stroke="#63b8ff" d="M628.61,-276.02C613.16,-243.48 559.32,-130.09 537.8,-84.79"/>
<polygon fill="#63b8ff" stroke="#63b8ff" points="541.06,-83.5 533.61,-75.97 534.74,-86.5 541.06,-83.5"/>
</a>
</g>
</g>
<!-- Node22 -->
<g id="Node000022" class="node">
<title>Node22</title>
<g id="a_Node000022"><a xlink:title=" ">
<polygon fill="#e0e0e0" stroke="#999999" points="716.69,-240.25 660.94,-240.25 660.94,-221 716.69,-221 716.69,-240.25"/>
<text text-anchor="middle" x="688.82" y="-226.75" font-family="Helvetica,sans-Serif" font-size="10.00">algorithm</text>
</a>
</g>
</g>
<!-- Node1&#45;&gt;Node22 -->
<g id="edge34_Node000001_Node000022" class="edge">
<title>Node1&#45;&gt;Node22</title>
<g id="a_edge34_Node000001_Node000022"><a xlink:title=" ">
<path fill="none" stroke="#63b8ff" d="M642.32,-275.84C650.25,-268.3 661.77,-257.35 671.36,-248.23"/>
<polygon fill="#63b8ff" stroke="#63b8ff" points="673.53,-250.99 678.36,-241.57 668.71,-245.92 673.53,-250.99"/>
</a>
</g>
</g>
<!-- Node3 -->
<g id="Node000003" class="node">
<title>Node3</title>
<g id="a_Node000003"><a xlink:href="packet_8h.html" target="_top" xlink:title="BCNP packet structures, encoding, and decoding utilities.">
<polygon fill="white" stroke="#666666" points="548.19,-185 471.44,-185 471.44,-165.75 548.19,-165.75 548.19,-185"/>
<text text-anchor="middle" x="509.82" y="-171.5" font-family="Helvetica,sans-Serif" font-size="10.00">bcnp/packet.h</text>
</a>
</g>
</g>
<!-- Node2&#45;&gt;Node3 -->
<g id="edge2_Node000002_Node000003" class="edge">
<title>Node2&#45;&gt;Node3</title>
<g id="a_edge2_Node000002_Node000003"><a xlink:title=" ">
<path fill="none" stroke="#63b8ff" d="M226.04,-220.95C290.86,-210.77 397.42,-194.03 459.87,-184.22"/>
<polygon fill="#63b8ff" stroke="#63b8ff" points="460.17,-187.72 469.5,-182.71 459.08,-180.8 460.17,-187.72"/>
</a>
</g>
</g>
<!-- Node5 -->
<g id="Node000005" class="node">
<title>Node5</title>
<g id="a_Node000005"><a xlink:title=" ">
<polygon fill="#e0e0e0" stroke="#999999" points="60.32,-74.5 23.32,-74.5 23.32,-55.25 60.32,-55.25 60.32,-74.5"/>
<text text-anchor="middle" x="41.82" y="-61" font-family="Helvetica,sans-Serif" font-size="10.00">array</text>
</a>
</g>
</g>
<!-- Node2&#45;&gt;Node5 -->
<g id="edge29_Node000002_Node000005" class="edge">
<title>Node2&#45;&gt;Node5</title>
<g id="a_edge29_Node000002_Node000005"><a xlink:title=" ">
<path fill="none" stroke="#63b8ff" d="M163.88,-220.82C143.41,-194.83 82.96,-118.09 55.58,-83.34"/>
<polygon fill="#63b8ff" stroke="#63b8ff" points="58.66,-81.6 49.73,-75.91 53.17,-85.93 58.66,-81.6"/>
</a>
</g>
</g>
<!-- Node6 -->
<g id="Node000006" class="node">
<title>Node6</title>
<g id="a_Node000006"><a xlink:title=" ">
<polygon fill="#e0e0e0" stroke="#999999" points="598.94,-19.25 550.69,-19.25 550.69,0 598.94,0 598.94,-19.25"/>
<text text-anchor="middle" x="574.82" y="-5.75" font-family="Helvetica,sans-Serif" font-size="10.00">cstddef</text>
</a>
</g>
</g>
<!-- Node2&#45;&gt;Node6 -->
<g id="edge30_Node000002_Node000006" class="edge">
<title>Node2&#45;&gt;Node6</title>
<g id="a_edge30_Node000002_Node000006"><a xlink:title=" ">
<path fill="none" stroke="#63b8ff" d="M151.43,-220.66C97.93,-194.81 -44.08,-117.94 13.82,-55.25 49.47,-16.65 421.32,-11.41 539.19,-10.72"/>
<polygon fill="#63b8ff" stroke="#63b8ff" points="538.91,-14.22 548.9,-10.67 538.88,-7.22 538.91,-14.22"/>
</a>
</g>
</g>
<!-- Node7 -->
<g id="Node000007" class="node">
<title>Node7</title>
<g id="a_Node000007"><a xlink:title=" ">
<polygon fill="#e0e0e0" stroke="#999999" points="123.44,-74.5 78.19,-74.5 78.19,-55.25 123.44,-55.25 123.44,-74.5"/>
<text text-anchor="middle" x="100.82" y="-61" font-family="Helvetica,sans-Serif" font-size="10.00">cstdint</text>
</a>
</g>
</g>
<!-- Node2&#45;&gt;Node7 -->
<g id="edge31_Node000002_Node000007" class="edge">
<title>Node2&#45;&gt;Node7</title>
<g id="a_edge31_Node000002_Node000007"><a xlink:title=" ">
<path fill="none" stroke="#63b8ff" d="M167.06,-220.82C156.14,-195.28 124.26,-120.7 109.06,-85.15"/>
<polygon fill="#63b8ff" stroke="#63b8ff" points="112.35,-83.93 105.2,-76.11 105.91,-86.69 112.35,-83.93"/>
</a>
</g>
</g>
<!-- Node10 -->
<g id="Node000010" class="node">
<title>Node10</title>
<g id="a_Node000010"><a xlink:title=" ">
<polygon fill="#e0e0e0" stroke="#999999" points="199.82,-74.5 141.82,-74.5 141.82,-55.25 199.82,-55.25 199.82,-74.5"/>
<text text-anchor="middle" x="170.82" y="-61" font-family="Helvetica,sans-Serif" font-size="10.00">functional</text>
</a>
</g>
</g>
<!-- Node2&#45;&gt;Node10 -->
<g id="edge32_Node000002_Node000010" class="edge">
<title>Node2&#45;&gt;Node10</title>
<g id="a_edge32_Node000002_Node000010"><a xlink:title=" ">
<path fill="none" stroke="#63b8ff" d="M170.82,-220.82C170.82,-195.5 170.82,-122 170.82,-86.09"/>
<polygon fill="#63b8ff" stroke="#63b8ff" points="174.32,-86.24 170.82,-76.24 167.32,-86.24 174.32,-86.24"/>
</a>
</g>
</g>
<!-- Node19 -->
<g id="Node000019" class="node">
<title>Node19</title>
<g id="a_Node000019"><a xlink:title=" ">
<polygon fill="#e0e0e0" stroke="#999999" points="952.07,-19.25 913.57,-19.25 913.57,0 952.07,0 952.07,-19.25"/>
<text text-anchor="middle" x="932.82" y="-5.75" font-family="Helvetica,sans-Serif" font-size="10.00">utility</text>
</a>
</g>
</g>
<!-- Node2&#45;&gt;Node19 -->
<g id="edge33_Node000002_Node000019" class="edge">
<title>Node2&#45;&gt;Node19</title>
<g id="a_edge33_Node000002_Node000019"><a xlink:title=" ">
<path fill="none" stroke="#63b8ff" d="M226.12,-225.46C361.03,-214.58 703.31,-182.44 803.82,-129.75 852.9,-104.02 897.32,-54.77 918.95,-28.37"/>
<polygon fill="#63b8ff" stroke="#63b8ff" points="921.62,-30.64 925.14,-20.65 916.16,-26.26 921.62,-30.64"/>
</a>
</g>
</g>
<!-- Node4 -->
<g id="Node000004" class="node">
<title>Node4</title>
<g id="a_Node000004"><a xlink:href="message__types_8h.html" target="_top" xlink:title=" ">
<polygon fill="white" stroke="#666666" points="384.69,-129.75 268.94,-129.75 268.94,-110.5 384.69,-110.5 384.69,-129.75"/>
<text text-anchor="middle" x="326.82" y="-116.25" font-family="Helvetica,sans-Serif" font-size="10.00">bcnp/message_types.h</text>
</a>
</g>
</g>
<!-- Node3&#45;&gt;Node4 -->
<g id="edge3_Node000003_Node000004" class="edge">
<title>Node3&#45;&gt;Node4</title>
<g id="a_edge3_Node000003_Node000004"><a xlink:title=" ">
<path fill="none" stroke="#63b8ff" d="M478.78,-165.34C448.54,-156.54 402.37,-143.11 368.85,-133.36"/>
<polygon fill="#63b8ff" stroke="#63b8ff" points="370.05,-130.06 359.47,-130.63 368.09,-136.78 370.05,-130.06"/>
</a>
</g>
</g>
<!-- Node3&#45;&gt;Node6 -->
<g id="edge25_Node000003_Node000006" class="edge">
<title>Node3&#45;&gt;Node6</title>
<g id="a_edge25_Node000003_Node000006"><a xlink:title=" ">
<path fill="none" stroke="#63b8ff" d="M515.43,-165.37C525.83,-148.28 548.22,-109.69 560.82,-74.5 565.93,-60.23 569.52,-43.47 571.78,-30.7"/>
<polygon fill="#63b8ff" stroke="#63b8ff" points="575.21,-31.43 573.37,-21 568.3,-30.3 575.21,-31.43"/>
</a>
</g>
</g>
<!-- Node3&#45;&gt;Node7 -->
<g id="edge26_Node000003_Node000007" class="edge">
<title>Node3&#45;&gt;Node7</title>
<g id="a_edge26_Node000003_Node000007"><a xlink:title=" ">
<path fill="none" stroke="#63b8ff" d="M471.14,-169.98C421.53,-163.77 333.14,-150.78 259.82,-129.75 213.01,-116.32 161.05,-93.95 129.67,-79.56"/>
<polygon fill="#63b8ff" stroke="#63b8ff" points="131.39,-76.5 120.84,-75.47 128.44,-82.85 131.39,-76.5"/>
</a>
</g>
</g>
<!-- Node12 -->
<g id="Node000012" class="node">
<title>Node12</title>
<g id="a_Node000012"><a xlink:title=" ">
<polygon fill="#e0e0e0" stroke="#999999" points="487.69,-74.5 437.94,-74.5 437.94,-55.25 487.69,-55.25 487.69,-74.5"/>
<text text-anchor="middle" x="462.82" y="-61" font-family="Helvetica,sans-Serif" font-size="10.00">optional</text>
</a>
</g>
</g>
<!-- Node3&#45;&gt;Node12 -->
<g id="edge27_Node000003_Node000012" class="edge">
<title>Node3&#45;&gt;Node12</title>
<g id="a_edge27_Node000003_Node000012"><a xlink:title=" ">
<path fill="none" stroke="#63b8ff" d="M505.97,-165.5C498.43,-148.09 481.55,-109.12 471.28,-85.41"/>
<polygon fill="#63b8ff" stroke="#63b8ff" points="474.51,-84.05 467.32,-76.27 468.08,-86.83 474.51,-84.05"/>
</a>
</g>
</g>
<!-- Node14 -->
<g id="Node000014" class="node">
<title>Node14</title>
<g id="a_Node000014"><a xlink:href="static__vector_8h.html" target="_top" xlink:title="Fixed&#45;capacity vector with stack allocation (no heap).">
<polygon fill="white" stroke="#666666" points="849.69,-74.5 745.94,-74.5 745.94,-55.25 849.69,-55.25 849.69,-74.5"/>
<text text-anchor="middle" x="797.82" y="-61" font-family="Helvetica,sans-Serif" font-size="10.00">bcnp/static_vector.h</text>
</a>
</g>
</g>
<!-- Node3&#45;&gt;Node14 -->
<g id="edge13_Node000003_Node000014" class="edge">
<title>Node3&#45;&gt;Node14</title>
<g id="a_edge13_Node000003_Node000014"><a xlink:title=" ">
<path fill="none" stroke="#63b8ff" d="M548.47,-169.24C621.96,-159.33 775.32,-137.8 783.82,-129.75 795.55,-118.64 798.57,-100.14 798.93,-85.91"/>
<polygon fill="#63b8ff" stroke="#63b8ff" points="802.44,-86.23 798.75,-76.3 795.44,-86.36 802.44,-86.23"/>
</a>
</g>
</g>
<!-- Node20 -->
<g id="Node000020" class="node">
<title>Node20</title>
<g id="a_Node000020"><a xlink:href="packet__storage_8h.html" target="_top" xlink:title=" ">
<polygon fill="white" stroke="#666666" points="774.94,-129.75 660.69,-129.75 660.69,-110.5 774.94,-110.5 774.94,-129.75"/>
<text text-anchor="middle" x="717.82" y="-116.25" font-family="Helvetica,sans-Serif" font-size="10.00">bcnp/packet_storage.h</text>
</a>
</g>
</g>
<!-- Node3&#45;&gt;Node20 -->
<g id="edge20_Node000003_Node000020" class="edge">
<title>Node3&#45;&gt;Node20</title>
<g id="a_edge20_Node000003_Node000020"><a xlink:title=" ">
<path fill="none" stroke="#63b8ff" d="M545.1,-165.34C579.92,-156.43 633.32,-142.76 671.53,-132.98"/>
<polygon fill="#63b8ff" stroke="#63b8ff" points="672.08,-136.45 680.9,-130.58 670.34,-129.67 672.08,-136.45"/>
</a>
</g>
</g>
<!-- Node21 -->
<g id="Node000021" class="node">
<title>Node21</title>
<g id="a_Node000021"><a xlink:title=" ">
<polygon fill="#e0e0e0" stroke="#999999" points="651.32,-74.5 608.32,-74.5 608.32,-55.25 651.32,-55.25 651.32,-74.5"/>
<text text-anchor="middle" x="629.82" y="-61" font-family="Helvetica,sans-Serif" font-size="10.00">vector</text>
</a>
</g>
</g>
<!-- Node3&#45;&gt;Node21 -->
<g id="edge28_Node000003_Node000021" class="edge">
<title>Node3&#45;&gt;Node21</title>
<g id="a_edge28_Node000003_Node000021"><a xlink:title=" ">
<path fill="none" stroke="#63b8ff" d="M523.48,-165.5C536.23,-156.97 555.54,-143.37 570.82,-129.75 587.14,-115.2 603.88,-96.66 615.34,-83.31"/>
<polygon fill="#63b8ff" stroke="#63b8ff" points="617.91,-85.69 621.69,-75.79 612.56,-81.17 617.91,-85.69"/>
</a>
</g>
</g>
<!-- Node4&#45;&gt;Node5 -->
<g id="edge4_Node000004_Node000005" class="edge">
<title>Node4&#45;&gt;Node5</title>
<g id="a_edge4_Node000004_Node000005"><a xlink:title=" ">
<path fill="none" stroke="#63b8ff" d="M268.45,-111.38C218.42,-104.21 144.27,-92.33 71.76,-74.96"/>
<polygon fill="#63b8ff" stroke="#63b8ff" points="72.62,-71.57 62.08,-72.6 70.96,-78.37 72.62,-71.57"/>
</a>
</g>
</g>
<!-- Node4&#45;&gt;Node6 -->
<g id="edge5_Node000004_Node000006" class="edge">
<title>Node4&#45;&gt;Node6</title>
<g id="a_edge5_Node000004_Node000006"><a xlink:title=" ">
<path fill="none" stroke="#63b8ff" d="M299.65,-110.09C269.65,-98.72 228.05,-77.91 247.82,-55.25 285.28,-12.33 461.86,-9.16 538.82,-9.89"/>
<polygon fill="#63b8ff" stroke="#63b8ff" points="538.72,-13.39 548.77,-10.01 538.81,-6.39 538.72,-13.39"/>
</a>
</g>
</g>
<!-- Node4&#45;&gt;Node7 -->
<g id="edge6_Node000004_Node000007" class="edge">
<title>Node4&#45;&gt;Node7</title>
<g id="a_edge6_Node000004_Node000007"><a xlink:title=" ">
<path fill="none" stroke="#63b8ff" d="M285.46,-110.08C248.5,-101.89 192.58,-89.25 135.01,-74.98"/>
<polygon fill="#63b8ff" stroke="#63b8ff" points="135.88,-71.59 125.33,-72.56 134.19,-78.38 135.88,-71.59"/>
</a>
</g>
</g>
<!-- Node8 -->
<g id="Node000008" class="node">
<title>Node8</title>
<g id="a_Node000008"><a xlink:title=" ">
<polygon fill="#e0e0e0" stroke="#999999" points="299.32,-74.5 256.32,-74.5 256.32,-55.25 299.32,-55.25 299.32,-74.5"/>
<text text-anchor="middle" x="277.82" y="-61" font-family="Helvetica,sans-Serif" font-size="10.00">cmath</text>
</a>
</g>
</g>
<!-- Node4&#45;&gt;Node8 -->
<g id="edge7_Node000004_Node000008" class="edge">
<title>Node4&#45;&gt;Node8</title>
<g id="a_edge7_Node000004_Node000008"><a xlink:title=" ">
<path fill="none" stroke="#63b8ff" d="M318.73,-110.33C311.96,-102.98 302.1,-92.26 293.76,-83.19"/>
<polygon fill="#63b8ff" stroke="#63b8ff" points="296.46,-80.96 287.11,-75.97 291.31,-85.7 296.46,-80.96"/>
</a>
</g>
</g>
<!-- Node4&#45;&gt;Node9 -->
<g id="edge8_Node000004_Node000009" class="edge">
<title>Node4&#45;&gt;Node9</title>
<g id="a_edge8_Node000004_Node000009"><a xlink:title=" ">
<path fill="none" stroke="#63b8ff" d="M361.68,-110.05C393.77,-101.67 442.99,-88.79 494.69,-75.05"/>
<polygon fill="#63b8ff" stroke="#63b8ff" points="495.53,-78.45 504.29,-72.5 493.73,-71.69 495.53,-78.45"/>
</a>
</g>
</g>
<!-- Node4&#45;&gt;Node10 -->
<g id="edge9_Node000004_Node000010" class="edge">
<title>Node4&#45;&gt;Node10</title>
<g id="a_edge9_Node000004_Node000010"><a xlink:title=" ">
<path fill="none" stroke="#63b8ff" d="M300.36,-110.09C275.03,-101.45 236.59,-88.32 208.15,-78.62"/>
<polygon fill="#63b8ff" stroke="#63b8ff" points="209.44,-75.36 198.85,-75.44 207.18,-81.98 209.44,-75.36"/>
</a>
</g>
</g>
<!-- Node11 -->
<g id="Node000011" class="node">
<title>Node11</title>
<g id="a_Node000011"><a xlink:title=" ">
<polygon fill="#e0e0e0" stroke="#999999" points="356.44,-74.5 317.19,-74.5 317.19,-55.25 356.44,-55.25 356.44,-74.5"/>
<text text-anchor="middle" x="336.82" y="-61" font-family="Helvetica,sans-Serif" font-size="10.00">limits</text>
</a>
</g>
</g>
<!-- Node4&#45;&gt;Node11 -->
<g id="edge10_Node000004_Node000011" class="edge">
<title>Node4&#45;&gt;Node11</title>
<g id="a_edge10_Node000004_Node000011"><a xlink:title=" ">
<path fill="none" stroke="#63b8ff" d="M328.47,-110.33C329.71,-103.74 331.45,-94.46 333.03,-86.07"/>
<polygon fill="#63b8ff" stroke="#63b8ff" points="336.45,-86.82 334.85,-76.35 329.57,-85.53 336.45,-86.82"/>
</a>
</g>
</g>
<!-- Node4&#45;&gt;Node12 -->
<g id="edge11_Node000004_Node000012" class="edge">
<title>Node4&#45;&gt;Node12</title>
<g id="a_edge11_Node000004_Node000012"><a xlink:title=" ">
<path fill="none" stroke="#63b8ff" d="M349.89,-110.09C371.58,-101.6 404.3,-88.79 428.95,-79.14"/>
<polygon fill="#63b8ff" stroke="#63b8ff" points="430.19,-82.41 438.23,-75.5 427.64,-75.89 430.19,-82.41"/>
</a>
</g>
</g>
<!-- Node13 -->
<g id="Node000013" class="node">
<title>Node13</title>
<g id="a_Node000013"><a xlink:title=" ">
<polygon fill="#e0e0e0" stroke="#999999" points="419.44,-74.5 374.19,-74.5 374.19,-55.25 419.44,-55.25 419.44,-74.5"/>
<text text-anchor="middle" x="396.82" y="-61" font-family="Helvetica,sans-Serif" font-size="10.00">variant</text>
</a>
</g>
</g>
<!-- Node4&#45;&gt;Node13 -->
<g id="edge12_Node000004_Node000013" class="edge">
<title>Node4&#45;&gt;Node13</title>
<g id="a_edge12_Node000004_Node000013"><a xlink:title=" ">
<path fill="none" stroke="#63b8ff" d="M338.69,-110.09C348.91,-102.32 363.89,-90.92 376.08,-81.65"/>
<polygon fill="#63b8ff" stroke="#63b8ff" points="378.08,-84.53 383.92,-75.69 373.84,-78.96 378.08,-84.53"/>
</a>
</g>
</g>
<!-- Node14&#45;&gt;Node6 -->
<g id="edge14_Node000014_Node000006" class="edge">
<title>Node14&#45;&gt;Node6</title>
<g id="a_edge14_Node000014_Node000006"><a xlink:title=" ">
<path fill="none" stroke="#63b8ff" d="M758.68,-54.83C722.74,-46.49 667.73,-33.6 610.43,-19.61"/>
<polygon fill="#63b8ff" stroke="#63b8ff" points="611.34,-16.23 600.79,-17.25 609.67,-23.03 611.34,-16.23"/>
</a>
</g>
</g>
<!-- Node15 -->
<g id="Node000015" class="node">
<title>Node15</title>
<g id="a_Node000015"><a xlink:title=" ">
<polygon fill="#e0e0e0" stroke="#999999" points="767.57,-19.25 696.07,-19.25 696.07,0 767.57,0 767.57,-19.25"/>
<text text-anchor="middle" x="731.82" y="-5.75" font-family="Helvetica,sans-Serif" font-size="10.00">initializer_list</text>
</a>
</g>
</g>
<!-- Node14&#45;&gt;Node15 -->
<g id="edge15_Node000014_Node000015" class="edge">
<title>Node14&#45;&gt;Node15</title>
<g id="a_edge15_Node000014_Node000015"><a xlink:title=" ">
<path fill="none" stroke="#63b8ff" d="M786.62,-54.84C777.08,-47.15 763.15,-35.9 751.71,-26.68"/>
<polygon fill="#63b8ff" stroke="#63b8ff" points="754.01,-24.03 744.03,-20.48 749.61,-29.48 754.01,-24.03"/>
</a>
</g>
</g>
<!-- Node16 -->
<g id="Node000016" class="node">
<title>Node16</title>
<g id="a_Node000016"><a xlink:title=" ">
<polygon fill="#e0e0e0" stroke="#999999" points="819.82,-19.25 785.82,-19.25 785.82,0 819.82,0 819.82,-19.25"/>
<text text-anchor="middle" x="802.82" y="-5.75" font-family="Helvetica,sans-Serif" font-size="10.00">new</text>
</a>
</g>
</g>
<!-- Node14&#45;&gt;Node16 -->
<g id="edge16_Node000014_Node000016" class="edge">
<title>Node14&#45;&gt;Node16</title>
<g id="a_edge16_Node000014_Node000016"><a xlink:title=" ">
<path fill="none" stroke="#63b8ff" d="M798.65,-55.08C799.26,-48.49 800.14,-39.21 800.92,-30.82"/>
<polygon fill="#63b8ff" stroke="#63b8ff" points="804.38,-31.4 801.83,-21.12 797.42,-30.75 804.38,-31.4"/>
</a>
</g>
</g>
<!-- Node17 -->
<g id="Node000017" class="node">
<title>Node17</title>
<g id="a_Node000017"><a xlink:title=" ">
<polygon fill="#e0e0e0" stroke="#999999" points="895.82,-19.25 837.82,-19.25 837.82,0 895.82,0 895.82,-19.25"/>
<text text-anchor="middle" x="866.82" y="-5.75" font-family="Helvetica,sans-Serif" font-size="10.00">stdexcept</text>
</a>
</g>
</g>
<!-- Node14&#45;&gt;Node17 -->
<g id="edge17_Node000014_Node000017" class="edge">
<title>Node14&#45;&gt;Node17</title>
<g id="a_edge17_Node000014_Node000017"><a xlink:title=" ">
<path fill="none" stroke="#63b8ff" d="M809.52,-54.84C819.6,-47.07 834.36,-35.67 846.38,-26.4"/>
<polygon fill="#63b8ff" stroke="#63b8ff" points="848.31,-29.33 854.09,-20.45 844.03,-23.79 848.31,-29.33"/>
</a>
</g>
</g>
<!-- Node18 -->
<g id="Node000018" class="node">
<title>Node18</title>
<g id="a_Node000018"><a xlink:title=" ">
<polygon fill="#e0e0e0" stroke="#999999" points="678.32,-19.25 617.32,-19.25 617.32,0 678.32,0 678.32,-19.25"/>
<text text-anchor="middle" x="647.82" y="-5.75" font-family="Helvetica,sans-Serif" font-size="10.00">type_traits</text>
</a>
</g>
</g>
<!-- Node14&#45;&gt;Node18 -->
<g id="edge18_Node000014_Node000018" class="edge">
<title>Node14&#45;&gt;Node18</title>
<g id="a_edge18_Node000014_Node000018"><a xlink:title=" ">
<path fill="none" stroke="#63b8ff" d="M772.37,-54.84C748.13,-46.24 711.39,-33.19 684.08,-23.5"/>
<polygon fill="#63b8ff" stroke="#63b8ff" points="685.41,-20.26 674.82,-20.21 683.07,-26.85 685.41,-20.26"/>
</a>
</g>
</g>
<!-- Node14&#45;&gt;Node19 -->
<g id="edge19_Node000014_Node000019" class="edge">
<title>Node14&#45;&gt;Node19</title>
<g id="a_edge19_Node000014_Node000019"><a xlink:title=" ">
<path fill="none" stroke="#63b8ff" d="M820.72,-54.84C843.29,-45.94 877.91,-32.29 902.7,-22.51"/>
<polygon fill="#63b8ff" stroke="#63b8ff" points="903.89,-25.8 911.91,-18.87 901.32,-19.29 903.89,-25.8"/>
</a>
</g>
</g>
<!-- Node20&#45;&gt;Node6 -->
<g id="edge22_Node000020_Node000006" class="edge">
<title>Node20&#45;&gt;Node6</title>
<g id="a_edge22_Node000020_Node000006"><a xlink:title=" ">
<path fill="none" stroke="#63b8ff" d="M711.64,-110.36C701.98,-97.13 682.18,-71.84 660.82,-55.25 644.69,-42.72 624.52,-32.04 607.77,-24.27"/>
<polygon fill="#63b8ff" stroke="#63b8ff" points="609.27,-21.11 598.71,-20.21 606.4,-27.5 609.27,-21.11"/>
</a>
</g>
</g>
<!-- Node20&#45;&gt;Node14 -->
<g id="edge21_Node000020_Node000014" class="edge">
<title>Node20&#45;&gt;Node14</title>
<g id="a_edge21_Node000020_Node000014"><a xlink:title=" ">
<path fill="none" stroke="#63b8ff" d="M731.39,-110.09C743.23,-102.21 760.66,-90.61 774.69,-81.27"/>
<polygon fill="#63b8ff" stroke="#63b8ff" points="776.54,-84.25 782.92,-75.79 772.66,-78.42 776.54,-84.25"/>
</a>
</g>
</g>
<!-- Node20&#45;&gt;Node18 -->
<g id="edge23_Node000020_Node000018" class="edge">
<title>Node20&#45;&gt;Node18</title>
<g id="a_edge23_Node000020_Node000018"><a xlink:title=" ">
<path fill="none" stroke="#63b8ff" d="M715.82,-110.29C712.62,-97.42 705.51,-73.09 693.82,-55.25 686.94,-44.75 677.19,-34.84 668.44,-27.04"/>
<polygon fill="#63b8ff" stroke="#63b8ff" points="670.88,-24.52 660.99,-20.71 666.35,-29.85 670.88,-24.52"/>
</a>
</g>
</g>
<!-- Node20&#45;&gt;Node21 -->
<g id="edge24_Node000020_Node000021" class="edge">
<title>Node20&#45;&gt;Node21</title>
<g id="a_edge24_Node000020_Node000021"><a xlink:title=" ">
<path fill="none" stroke="#63b8ff" d="M702.89,-110.09C689.62,-102.06 669.95,-90.16 654.37,-80.73"/>
<polygon fill="#63b8ff" stroke="#63b8ff" points="656.48,-77.92 646.12,-75.74 652.86,-83.91 656.48,-77.92"/>
</a>
</g>
</g>
</g>
</svg>

<g id="navigator" transform="translate(0 0)" fill="#404254">
  <rect fill="#f2f5e9" fill-opacity="0.5" stroke="#606060" stroke-width=".5" x="0" y="0" width="60" height="60"/>
  <use id="zoomplus" xlink:href="#zoomPlus" x="17" y="9" onmousedown="handleZoom(evt,'in')"/>
  <use id="zoomminus" xlink:href="#zoomMin" x="42" y="9" onmousedown="handleZoom(evt,'out')"/>
  <use id="reset" xlink:href="#resetDef" x="30" y="36" onmousedown="handleReset()"/>
   <use id="arrowup" xlink:href="#arrowUp" x="0" y="0" onmousedown="handlePan(0,-1)"/>
  <use id="arrowright" xlink:href="#arrowRight" x="0" y="0" onmousedown="handlePan(1,0)"/>
  <use id="arrowdown" xlink:href="#arrowDown" x="0" y="0" onmousedown="handlePan(0,1)"/>
  <use id="arrowleft" xlink:href="#arrowLeft" x="0" y="0" onmousedown="handlePan(-1,0)"/>
</g>
<svg viewBox="0 0 15 15" width="100%" height="30px" preserveAspectRatio="xMaxYMin meet">
 <g id="arrow_out" transform="scale(0.3 0.3)">
  <a xlink:href="stream__parser_8cpp__incl_org.svg" target="_base">
   <rect id="button" ry="5" rx="5" y="6" x="6" height="38" width="38"
        fill="#f2f5e9" fill-opacity="0.5" stroke="#606060" stroke-width="1.0"/>
   <path id="arrow"
     d="M 11.500037,31.436501 C 11.940474,20.09759 22.043105,11.32322 32.158766,21.979434 L 37.068811,17.246167 C 37.068811,17.246167 37.088388,32 37.088388,32 L 22.160133,31.978069 C 22.160133,31.978069 26.997745,27.140456 26.997745,27.140456 C 18.528582,18.264221 13.291696,25.230495 11.500037,31.436501 z"
     style="fill:#404040;"/>
  </a>
 </g>
</svg>

<style type='text/css'>
<![CDATA[
[data-mouse-over-selected='false'] { opacity: 0.7; }
[data-mouse-over-selected='true']  { opacity: 1.0; }
]]>
</style>
<script type="application/ecmascript"><![CDATA[
document.addEventListener('DOMContentLoaded', (event) => {
  highlightEdges();
  highlightAdjacentNodes();
});
]]></script>
</svg>
