<?xml version="1.0" encoding="UTF-8" standalone="no"?>
<!DOCTYPE svg PUBLIC "-//W3C//DTD SVG 1.1//EN"
 "http://www.w3.org/Graphics/SVG/1.1/DTD/svg11.dtd">
<!-- Generated by graphviz version 12.2.0 (20241103.1931)
 -->
<!-- Title: bcnp/stream_parser.h Pages: 1 -->
<!--zoomable 248 -->

<svg id="main" version="1.1" xmlns="http://www.w3.org/2000/svg" xmlns:xlink="http://www.w3.org/1999/xlink" xml:space="preserve" onload="init(evt)">

<style type="text/css"><![CDATA[
.node, .edge {opacity: 0.7;}
.node.selected, .edge.selected {opacity: 1;}
.edge:hover path { stroke: red; }
.edge:hover polygon { stroke: red; fill: red; }
]]></style>

<defs>
  <circle id="rim" cx="0" cy="0" r="7"/>
  <circle id="rim2" cx="0" cy="0" r="3.5"/>
  <g id="zoomPlus">
    <use xlink:href="#rim" fill="#404040"><set attributeName="fill" to="#808080" begin="zoomplus.mouseover" end="zoomplus.mouseout"/></use>
    <path d="M-4,0h8M0,-4v8" fill="none" stroke="white" stroke-width="1.5" pointer-events="none"/>
  </g>
  <g id="zoomMin">
    <use xlink:href="#rim" fill="#404040"><set attributeName="fill" to="#808080" begin="zoomminus.mouseover" end="zoomminus.mouseout"/></use>
    <path d="M-4,0h8" fill="none" stroke="white" stroke-width="1.5" pointer-events="none"/>
  </g>
  <g id="arrowUp" transform="translate(30 24)">
    <use xlink:href="#rim"/>
    <path pointer-events="none" fill="none" stroke="white" stroke-width="1.5" d="M0,-3.0v7 M-2.5,-0.5L0,-3.0L2.5,-0.5"/>
  </g>
  <g id="arrowRight" transform="rotate(90) translate(36 -43)">
    <use xlink:href="#rim"/>
    <path pointer-events="none" fill="none" stroke="white" stroke-width="1.5" d="M0,-3.0v7 M-2.5,-0.5L0,-3.0L2.5,-0.5"/>
  </g>
  <g id="arrowDown" transform="rotate(180) translate(-30 -48)">
    <use xlink:href="#rim"/>
    <path pointer-events="none" fill="none" stroke="white" stroke-width="1.5" d="M0,-3.0v7 M-2.5,-0.5L0,-3.0L2.5,-0.5"/>
  </g>
  <g id="arrowLeft" transform="rotate(270) translate(-36 17)">
    <use xlink:href="#rim"/>
    <path pointer-events="none" fill="none" stroke="white" stroke-width="1.5" d="M0,-3.0v7 M-2.5,-0.5L0,-3.0L2.5,-0.5"/>
  </g>
  <g id="resetDef">
    <use xlink:href="#rim2" fill="#404040"><set attributeName="fill" to="#808080" begin="reset.mouseover" end="reset.mouseout"/></use>
  </g>
</defs>
<script type="application/ecmascript">
var viewWidth = 959;
var viewHeight = 248;
var sectionId = 'dynsection-0';
</script>
<script type="application/ecmascript" xlink:href="svg.min.js"/>
<svg id="graph" class="graph">
<g id="viewport">
<title>bcnp/stream_parser.h</title>
<!-- Node1 -->
<g id="Node000001" class="node">
<title>Node1</title>
<g id="a_Node000001"><a xlink:title=" ">
<polygon fill="#999999" stroke="#666666" points="639.12,-240.25 529.38,-240.25 529.38,-221 639.12,-221 639.12,-240.25"/>
<text text-anchor="middle" x="584.25" y="-226.75" font-family="Helvetica,sans-Serif" font-size="10.00">bcnp/stream_parser.h</text>
</a>
</g>
</g>
<!-- Node2 -->
<g id="Node000002" class="node">
<title>Node2</title>
<g id="a_Node000002"><a xlink:href="packet_8h.html" target="_top" xlink:title="BCNP packet structures, encoding, and decoding utilities.">
<polygon fill="white" stroke="#666666" points="424.62,-185 347.88,-185 347.88,-165.75 424.62,-165.75 424.62,-185"/>
<text text-anchor="middle" x="386.25" y="-171.5" font-family="Helvetica,sans-Serif" font-size="10.00">bcnp/packet.h</text>
</a>
</g>
</g>
<!-- Node1&#45;&gt;Node2 -->
<g id="edge1_Node000001_Node000002" class="edge">
<title>Node1&#45;&gt;Node2</title>
<g id="a_edge1_Node000001_Node000002"><a xlink:title=" ">
<path fill="none" stroke="#63b8ff" d="M550.66,-220.59C517.67,-211.72 467.12,-198.12 430.79,-188.35"/>
<polygon fill="#63b8ff" stroke="#63b8ff" points="432.03,-185.06 421.46,-185.85 430.21,-191.82 432.03,-185.06"/>
</a>
</g>
</g>
<!-- Node4 -->
<g id="Node000004" class="node">
<title>Node4</title>
<g id="a_Node000004"><a xlink:title=" ">
<polygon fill="#e0e0e0" stroke="#999999" points="845.75,-74.5 808.75,-74.5 808.75,-55.25 845.75,-55.25 845.75,-74.5"/>
<text text-anchor="middle" x="827.25" y="-61" font-family="Helvetica,sans-Serif" font-size="10.00">array</text>
</a>
</g>
</g>
<!-- Node1&#45;&gt;Node4 -->
<g id="edge28_Node000001_Node000004" class="edge">
<title>Node1&#45;&gt;Node4</title>
<g id="a_edge28_Node000001_Node000004"><a xlink:title=" ">
<path fill="none" stroke="#63b8ff" d="M597.66,-220.59C637.41,-193.8 754.9,-114.63 804.62,-81.13"/>
<polygon fill="#63b8ff" stroke="#63b8ff" points="806.29,-84.22 812.63,-75.73 802.38,-78.42 806.29,-84.22"/>
</a>
</g>
</g>
<!-- Node5 -->
<g id="Node000005" class="node">
<title>Node5</title>
<g id="a_Node000005"><a xlink:title=" ">
<polygon fill="#e0e0e0" stroke="#999999" points="401.38,-19.25 353.12,-19.25 353.12,0 401.38,0 401.38,-19.25"/>
<text text-anchor="middle" x="377.25" y="-5.75" font-family="Helvetica,sans-Serif" font-size="10.00">cstddef</text>
</a>
</g>
</g>
<!-- Node1&#45;&gt;Node5 -->
<g id="edge29_Node000001_Node000005" class="edge">
<title>Node1&#45;&gt;Node5</title>
<g id="a_edge29_Node000001_Node000005"><a xlink:title=" ">
<path fill="none" stroke="#63b8ff" d="M639.48,-222.54C758.8,-205.16 1022.81,-154.48 931.25,-55.25 896.14,-17.19 530.41,-11.58 413.19,-10.76"/>
<polygon fill="#63b8ff" stroke="#63b8ff" points="413.24,-7.26 403.22,-10.7 413.19,-14.26 413.24,-7.26"/>
</a>
</g>
</g>
<!-- Node6 -->
<g id="Node000006" class="node">
<title>Node6</title>
<g id="a_Node000006"><a xlink:title=" ">
<polygon fill="#e0e0e0" stroke="#999999" points="507.88,-74.5 462.62,-74.5 462.62,-55.25 507.88,-55.25 507.88,-74.5"/>
<text text-anchor="middle" x="485.25" y="-61" font-family="Helvetica,sans-Serif" font-size="10.00">cstdint</text>
</a>
</g>
</g>
<!-- Node1&#45;&gt;Node6 -->
<g id="edge30_Node000001_Node000006" class="edge">
<title>Node1&#45;&gt;Node6</title>
<g id="a_edge30_Node000001_Node000006"><a xlink:title=" ">
<path fill="none" stroke="#63b8ff" d="M578.93,-220.82C563.35,-195.05 517.61,-119.4 496.35,-84.24"/>
<polygon fill="#63b8ff" stroke="#63b8ff" points="499.55,-82.76 491.38,-76.02 493.56,-86.39 499.55,-82.76"/>
</a>
</g>
</g>
<!-- Node9 -->
<g id="Node000009" class="node">
<title>Node9</title>
<g id="a_Node000009"><a xlink:title=" ">
<polygon fill="#e0e0e0" stroke="#999999" points="922.25,-74.5 864.25,-74.5 864.25,-55.25 922.25,-55.25 922.25,-74.5"/>
<text text-anchor="middle" x="893.25" y="-61" font-family="Helvetica,sans-Serif" font-size="10.00">functional</text>
</a>
</g>
</g>
<!-- Node1&#45;&gt;Node9 -->
<g id="edge31_Node000001_Node000009" class="edge">
<title>Node1&#45;&gt;Node9</title>
<g id="a_edge31_Node000001_Node000009"><a xlink:title=" ">
<path fill="none" stroke="#63b8ff" d="M604.46,-220.62C623.83,-211.87 653.79,-198.05 679.25,-185 748.58,-149.47 828.28,-103.79 868,-80.68"/>
<polygon fill="#63b8ff" stroke="#63b8ff" points="869.69,-83.74 876.57,-75.68 866.17,-77.69 869.69,-83.74"/>
</a>
</g>
</g>
<!-- Node18 -->
<g id="Node000018" class="node">
<title>Node18</title>
<g id="a_Node000018"><a xlink:title=" ">
<polygon fill="#e0e0e0" stroke="#999999" points="38.5,-19.25 0,-19.25 0,0 38.5,0 38.5,-19.25"/>
<text text-anchor="middle" x="19.25" y="-5.75" font-family="Helvetica,sans-Serif" font-size="10.00">utility</text>
</a>
</g>
</g>
<!-- Node1&#45;&gt;Node18 -->
<g id="edge32_Node000001_Node000018" class="edge">
<title>Node1&#45;&gt;Node18</title>
<g id="a_edge32_Node000001_Node000018"><a xlink:title=" ">
<path fill="none" stroke="#63b8ff" d="M529.15,-225.41C444.95,-217.12 281.13,-193.53 158.25,-129.75 107,-103.15 58.48,-54.3 34.63,-28.19"/>
<polygon fill="#63b8ff" stroke="#63b8ff" points="37.29,-25.91 28.01,-20.8 32.08,-30.59 37.29,-25.91"/>
</a>
</g>
</g>
<!-- Node3 -->
<g id="Node000003" class="node">
<title>Node3</title>
<g id="a_Node000003"><a xlink:href="message__types_8h.html" target="_top" xlink:title=" ">
<polygon fill="white" stroke="#666666" points="670.12,-129.75 554.38,-129.75 554.38,-110.5 670.12,-110.5 670.12,-129.75"/>
<text text-anchor="middle" x="612.25" y="-116.25" font-family="Helvetica,sans-Serif" font-size="10.00">bcnp/message_types.h</text>
</a>
</g>
</g>
<!-- Node2&#45;&gt;Node3 -->
<g id="edge2_Node000002_Node000003" class="edge">
<title>Node2&#45;&gt;Node3</title>
<g id="a_edge2_Node000002_Node000003"><a xlink:title=" ">
<path fill="none" stroke="#63b8ff" d="M424.84,-165.28C462.95,-156.3 521.39,-142.53 562.86,-132.76"/>
<polygon fill="#63b8ff" stroke="#63b8ff" points="563.41,-136.23 572.34,-130.53 561.81,-129.41 563.41,-136.23"/>
</a>
</g>
</g>
<!-- Node2&#45;&gt;Node5 -->
<g id="edge24_Node000002_Node000005" class="edge">
<title>Node2&#45;&gt;Node5</title>
<g id="a_edge24_Node000002_Node000005"><a xlink:title=" ">
<path fill="none" stroke="#63b8ff" d="M385.77,-165.57C384.37,-140.25 380.33,-66.75 378.36,-30.84"/>
<polygon fill="#63b8ff" stroke="#63b8ff" points="381.86,-30.78 377.82,-20.98 374.87,-31.16 381.86,-30.78"/>
</a>
</g>
</g>
<!-- Node2&#45;&gt;Node6 -->
<g id="edge25_Node000002_Node000006" class="edge">
<title>Node2&#45;&gt;Node6</title>
<g id="a_edge25_Node000002_Node000006"><a xlink:title=" ">
<path fill="none" stroke="#63b8ff" d="M394.35,-165.5C410.74,-147.53 448.08,-106.61 469.46,-83.19"/>
<polygon fill="#63b8ff" stroke="#63b8ff" points="471.86,-85.74 476.02,-75.99 466.69,-81.02 471.86,-85.74"/>
</a>
</g>
</g>
<!-- Node11 -->
<g id="Node000011" class="node">
<title>Node11</title>
<g id="a_Node000011"><a xlink:title=" ">
<polygon fill="#e0e0e0" stroke="#999999" points="444.12,-74.5 394.38,-74.5 394.38,-55.25 444.12,-55.25 444.12,-74.5"/>
<text text-anchor="middle" x="419.25" y="-61" font-family="Helvetica,sans-Serif" font-size="10.00">optional</text>
</a>
</g>
</g>
<!-- Node2&#45;&gt;Node11 -->
<g id="edge26_Node000002_Node000011" class="edge">
<title>Node2&#45;&gt;Node11</title>
<g id="a_edge26_Node000002_Node000011"><a xlink:title=" ">
<path fill="none" stroke="#63b8ff" d="M388.95,-165.5C394.22,-148.17 405.99,-109.48 413.21,-85.74"/>
<polygon fill="#63b8ff" stroke="#63b8ff" points="416.51,-86.91 416.07,-76.32 409.81,-84.87 416.51,-86.91"/>
</a>
</g>
</g>
<!-- Node13 -->
<g id="Node000013" class="node">
<title>Node13</title>
<g id="a_Node000013"><a xlink:href="static__vector_8h.html" target="_top" xlink:title="Fixed&#45;capacity vector with stack allocation (no heap).">
<polygon fill="white" stroke="#666666" points="200.12,-74.5 96.38,-74.5 96.38,-55.25 200.12,-55.25 200.12,-74.5"/>
<text text-anchor="middle" x="148.25" y="-61" font-family="Helvetica,sans-Serif" font-size="10.00">bcnp/static_vector.h</text>
</a>
</g>
</g>
<!-- Node2&#45;&gt;Node13 -->
<g id="edge12_Node000002_Node000013" class="edge">
<title>Node2&#45;&gt;Node13</title>
<g id="a_edge12_Node000002_Node000013"><a xlink:title=" ">
<path fill="none" stroke="#63b8ff" d="M347.48,-170.29C294.48,-164.01 203.05,-150.51 177.25,-129.75 163.75,-118.89 156.29,-100.36 152.34,-86.05"/>
<polygon fill="#63b8ff" stroke="#63b8ff" points="155.75,-85.26 150.05,-76.33 148.93,-86.87 155.75,-85.26"/>
</a>
</g>
</g>
<!-- Node19 -->
<g id="Node000019" class="node">
<title>Node19</title>
<g id="a_Node000019"><a xlink:href="packet__storage_8h.html" target="_top" xlink:title=" ">
<polygon fill="white" stroke="#666666" points="300.38,-129.75 186.12,-129.75 186.12,-110.5 300.38,-110.5 300.38,-129.75"/>
<text text-anchor="middle" x="243.25" y="-116.25" font-family="Helvetica,sans-Serif" font-size="10.00">bcnp/packet_storage.h</text>
</a>
</g>
</g>
<!-- Node2&#45;&gt;Node19 -->
<g id="edge19_Node000002_Node000019" class="edge">
<title>Node2&#45;&gt;Node19</title>
<g id="a_edge19_Node000002_Node000019"><a xlink:title=" ">
<path fill="none" stroke="#63b8ff" d="M361.99,-165.34C338.98,-156.77 304.16,-143.81 278.17,-134.13"/>
<polygon fill="#63b8ff" stroke="#63b8ff" points="279.64,-130.94 269.05,-130.73 277.2,-137.5 279.64,-130.94"/>
</a>
</g>
</g>
<!-- Node20 -->
<g id="Node000020" class="node">
<title>Node20</title>
<g id="a_Node000020"><a xlink:title=" ">
<polygon fill="#e0e0e0" stroke="#999999" points="337.75,-74.5 294.75,-74.5 294.75,-55.25 337.75,-55.25 337.75,-74.5"/>
<text text-anchor="middle" x="316.25" y="-61" font-family="Helvetica,sans-Serif" font-size="10.00">vector</text>
</a>
</g>
</g>
<!-- Node2&#45;&gt;Node20 -->
<g id="edge27_Node000002_Node000020" class="edge">
<title>Node2&#45;&gt;Node20</title>
<g id="a_edge27_Node000002_Node000020"><a xlink:title=" ">
<path fill="none" stroke="#63b8ff" d="M378.84,-165.41C371.68,-156.59 360.71,-142.6 352.25,-129.75 342.61,-115.11 332.93,-97.74 326.04,-84.82"/>
<polygon fill="#63b8ff" stroke="#63b8ff" points="329.22,-83.35 321.47,-76.12 323.02,-86.6 329.22,-83.35"/>
</a>
</g>
</g>
<!-- Node3&#45;&gt;Node4 -->
<g id="edge3_Node000003_Node000004" class="edge">
<title>Node3&#45;&gt;Node4</title>
<g id="a_edge3_Node000003_Node000004"><a xlink:title=" ">
<path fill="none" stroke="#63b8ff" d="M654.67,-110.02C690.54,-102.11 743.5,-89.93 797.59,-75.09"/>
<polygon fill="#63b8ff" stroke="#63b8ff" points="798.26,-78.54 806.96,-72.5 796.39,-71.8 798.26,-78.54"/>
</a>
</g>
</g>
<!-- Node3&#45;&gt;Node5 -->
<g id="edge4_Node000003_Node000005" class="edge">
<title>Node3&#45;&gt;Node5</title>
<g id="a_edge4_Node000003_Node000005"><a xlink:title=" ">
<path fill="none" stroke="#63b8ff" d="M601.19,-110.14C584.09,-96.64 549.82,-70.99 517.25,-55.25 483.19,-38.78 441.6,-26.42 412.64,-18.93"/>
<polygon fill="#63b8ff" stroke="#63b8ff" points="413.85,-15.62 403.29,-16.58 412.14,-22.41 413.85,-15.62"/>
</a>
</g>
</g>
<!-- Node3&#45;&gt;Node6 -->
<g id="edge5_Node000003_Node000006" class="edge">
<title>Node3&#45;&gt;Node6</title>
<g id="a_edge5_Node000003_Node000006"><a xlink:title=" ">
<path fill="none" stroke="#63b8ff" d="M590.71,-110.09C570.64,-101.68 540.45,-89.02 517.5,-79.4"/>
<polygon fill="#63b8ff" stroke="#63b8ff" points="518.87,-76.18 508.3,-75.54 516.16,-82.63 518.87,-76.18"/>
</a>
</g>
</g>
<!-- Node7 -->
<g id="Node000007" class="node">
<title>Node7</title>
<g id="a_Node000007"><a xlink:title=" ">
<polygon fill="#e0e0e0" stroke="#999999" points="607.75,-74.5 564.75,-74.5 564.75,-55.25 607.75,-55.25 607.75,-74.5"/>
<text text-anchor="middle" x="586.25" y="-61" font-family="Helvetica,sans-Serif" font-size="10.00">cmath</text>
</a>
</g>
</g>
<!-- Node3&#45;&gt;Node7 -->
<g id="edge6_Node000003_Node000007" class="edge">
<title>Node3&#45;&gt;Node7</title>
<g id="a_edge6_Node000003_Node000007"><a xlink:title=" ">
<path fill="none" stroke="#63b8ff" d="M607.96,-110.33C604.63,-103.51 599.89,-93.81 595.69,-85.2"/>
<polygon fill="#63b8ff" stroke="#63b8ff" points="598.83,-83.67 591.3,-76.22 592.54,-86.74 598.83,-83.67"/>
</a>
</g>
</g>
<!-- Node8 -->
<g id="Node000008" class="node">
<title>Node8</title>
<g id="a_Node000008"><a xlink:title=" ">
<polygon fill="#e0e0e0" stroke="#999999" points="670.88,-74.5 625.62,-74.5 625.62,-55.25 670.88,-55.25 670.88,-74.5"/>
<text text-anchor="middle" x="648.25" y="-61" font-family="Helvetica,sans-Serif" font-size="10.00">cstring</text>
</a>
</g>
</g>
<!-- Node3&#45;&gt;Node8 -->
<g id="edge7_Node000003_Node000008" class="edge">
<title>Node3&#45;&gt;Node8</title>
<g id="a_edge7_Node000003_Node000008"><a xlink:title=" ">
<path fill="none" stroke="#63b8ff" d="M618.19,-110.33C622.96,-103.28 629.81,-93.15 635.77,-84.33"/>
<polygon fill="#63b8ff" stroke="#63b8ff" points="638.63,-86.36 641.33,-76.11 632.83,-82.44 638.63,-86.36"/>
</a>
</g>
</g>
<!-- Node3&#45;&gt;Node9 -->
<g id="edge8_Node000003_Node000009" class="edge">
<title>Node3&#45;&gt;Node9</title>
<g id="a_edge8_Node000003_Node000009"><a xlink:title=" ">
<path fill="none" stroke="#63b8ff" d="M665.46,-110.01C712.27,-101.84 782.54,-89.23 852.58,-74.98"/>
<polygon fill="#63b8ff" stroke="#63b8ff" points="853.24,-78.42 862.33,-72.99 851.84,-71.56 853.24,-78.42"/>
</a>
</g>
</g>
<!-- Node10 -->
<g id="Node000010" class="node">
<title>Node10</title>
<g id="a_Node000010"><a xlink:title=" ">
<polygon fill="#e0e0e0" stroke="#999999" points="727.88,-74.5 688.62,-74.5 688.62,-55.25 727.88,-55.25 727.88,-74.5"/>
<text text-anchor="middle" x="708.25" y="-61" font-family="Helvetica,sans-Serif" font-size="10.00">limits</text>
</a>
</g>
</g>
<!-- Node3&#45;&gt;Node10 -->
<g id="edge9_Node000003_Node000010" class="edge">
<title>Node3&#45;&gt;Node10</title>
<g id="a_edge9_Node000003_Node000010"><a xlink:title=" ">
<path fill="none" stroke="#63b8ff" d="M628.54,-110.09C643.15,-101.98 664.88,-89.93 681.96,-80.46"/>
<polygon fill="#63b8ff" stroke="#63b8ff" points="683.51,-83.6 690.56,-75.69 680.12,-77.48 683.51,-83.6"/>
</a>
</g>
</g>
<!-- Node3&#45;&gt;Node11 -->
<g id="edge10_Node000003_Node000011" class="edge">
<title>Node3&#45;&gt;Node11</title>
<g id="a_edge10_Node000003_Node000011"><a xlink:title=" ">
<path fill="none" stroke="#63b8ff" d="M579.51,-110.09C545.06,-100.59 490.99,-85.67 455.33,-75.83"/>
<polygon fill="#63b8ff" stroke="#63b8ff" points="456.48,-72.52 445.9,-73.23 454.61,-79.26 456.48,-72.52"/>
</a>
</g>
</g>
<!-- Node12 -->
<g id="Node000012" class="node">
<title>Node12</title>
<g id="a_Node000012"><a xlink:title=" ">
<polygon fill="#e0e0e0" stroke="#999999" points="790.88,-74.5 745.62,-74.5 745.62,-55.25 790.88,-55.25 790.88,-74.5"/>
<text text-anchor="middle" x="768.25" y="-61" font-family="Helvetica,sans-Serif" font-size="10.00">variant</text>
</a>
</g>
</g>
<!-- Node3&#45;&gt;Node12 -->
<g id="edge11_Node000003_Node000012" class="edge">
<title>Node3&#45;&gt;Node12</title>
<g id="a_edge11_Node000003_Node000012"><a xlink:title=" ">
<path fill="none" stroke="#63b8ff" d="M638.71,-110.09C665.11,-101.08 705.77,-87.2 734.48,-77.4"/>
<polygon fill="#63b8ff" stroke="#63b8ff" points="735.46,-80.77 743.79,-74.22 733.19,-74.14 735.46,-80.77"/>
</a>
</g>
</g>
<!-- Node13&#45;&gt;Node5 -->
<g id="edge13_Node000013_Node000005" class="edge">
<title>Node13&#45;&gt;Node5</title>
<g id="a_edge13_Node000013_Node000005"><a xlink:title=" ">
<path fill="none" stroke="#63b8ff" d="M190.02,-54.77C227.35,-46.54 283.84,-33.87 341.59,-19.85"/>
<polygon fill="#63b8ff" stroke="#63b8ff" points="342.41,-23.25 351.29,-17.48 340.75,-16.45 342.41,-23.25"/>
</a>
</g>
</g>
<!-- Node14 -->
<g id="Node000014" class="node">
<title>Node14</title>
<g id="a_Node000014"><a xlink:title=" ">
<polygon fill="#e0e0e0" stroke="#999999" points="256,-19.25 184.5,-19.25 184.5,0 256,0 256,-19.25"/>
<text text-anchor="middle" x="220.25" y="-5.75" font-family="Helvetica,sans-Serif" font-size="10.00">initializer_list</text>
</a>
</g>
</g>
<!-- Node13&#45;&gt;Node14 -->
<g id="edge14_Node000013_Node000014" class="edge">
<title>Node13&#45;&gt;Node14</title>
<g id="a_edge14_Node000013_Node000014"><a xlink:title=" ">
<path fill="none" stroke="#63b8ff" d="M160.46,-54.84C171.08,-46.99 186.69,-35.45 199.29,-26.12"/>
<polygon fill="#63b8ff" stroke="#63b8ff" points="201.04,-29.19 207,-20.42 196.88,-23.56 201.04,-29.19"/>
</a>
</g>
</g>
<!-- Node15 -->
<g id="Node000015" class="node">
<title>Node15</title>
<g id="a_Node000015"><a xlink:title=" ">
<polygon fill="#e0e0e0" stroke="#999999" points="90.25,-19.25 56.25,-19.25 56.25,0 90.25,0 90.25,-19.25"/>
<text text-anchor="middle" x="73.25" y="-5.75" font-family="Helvetica,sans-Serif" font-size="10.00">new</text>
</a>
</g>
</g>
<!-- Node13&#45;&gt;Node15 -->
<g id="edge15_Node000013_Node000015" class="edge">
<title>Node13&#45;&gt;Node15</title>
<g id="a_edge15_Node000013_Node000015"><a xlink:title=" ">
<path fill="none" stroke="#63b8ff" d="M135.53,-54.84C124.54,-47.04 108.41,-35.59 95.32,-26.29"/>
<polygon fill="#63b8ff" stroke="#63b8ff" points="97.45,-23.51 87.27,-20.58 93.4,-29.22 97.45,-23.51"/>
</a>
</g>
</g>
<!-- Node16 -->
<g id="Node000016" class="node">
<title>Node16</title>
<g id="a_Node000016"><a xlink:title=" ">
<polygon fill="#e0e0e0" stroke="#999999" points="166.25,-19.25 108.25,-19.25 108.25,0 166.25,0 166.25,-19.25"/>
<text text-anchor="middle" x="137.25" y="-5.75" font-family="Helvetica,sans-Serif" font-size="10.00">stdexcept</text>
</a>
</g>
</g>
<!-- Node13&#45;&gt;Node16 -->
<g id="edge16_Node000013_Node000016" class="edge">
<title>Node13&#45;&gt;Node16</title>
<g id="a_edge16_Node000013_Node000016"><a xlink:title=" ">
<path fill="none" stroke="#63b8ff" d="M146.43,-55.08C145.07,-48.49 143.15,-39.21 141.42,-30.82"/>
<polygon fill="#63b8ff" stroke="#63b8ff" points="144.86,-30.18 139.41,-21.09 138.01,-31.59 144.86,-30.18"/>
</a>
</g>
</g>
<!-- Node17 -->
<g id="Node000017" class="node">
<title>Node17</title>
<g id="a_Node000017"><a xlink:title=" ">
<polygon fill="#e0e0e0" stroke="#999999" points="334.75,-19.25 273.75,-19.25 273.75,0 334.75,0 334.75,-19.25"/>
<text text-anchor="middle" x="304.25" y="-5.75" font-family="Helvetica,sans-Serif" font-size="10.00">type_traits</text>
</a>
</g>
</g>
<!-- Node13&#45;&gt;Node17 -->
<g id="edge17_Node000013_Node000017" class="edge">
<title>Node13&#45;&gt;Node17</title>
<g id="a_edge17_Node000013_Node000017"><a xlink:title=" ">
<path fill="none" stroke="#63b8ff" d="M174.71,-54.84C200.04,-46.2 238.48,-33.07 266.92,-23.37"/>
<polygon fill="#63b8ff" stroke="#63b8ff" points="267.89,-26.73 276.22,-20.19 265.63,-20.11 267.89,-26.73"/>
</a>
</g>
</g>
<!-- Node13&#45;&gt;Node18 -->
<g id="edge18_Node000013_Node000018" class="edge">
<title>Node13&#45;&gt;Node18</title>
<g id="a_edge18_Node000013_Node000018"><a xlink:title=" ">
<path fill="none" stroke="#63b8ff" d="M126.37,-54.84C105.14,-46.08 72.78,-32.72 49.18,-22.98"/>
<polygon fill="#63b8ff" stroke="#63b8ff" points="50.68,-19.81 40.1,-19.23 48.01,-26.28 50.68,-19.81"/>
</a>
</g>
</g>
<!-- Node19&#45;&gt;Node5 -->
<g id="edge21_Node000019_Node000005" class="edge">
<title>Node19&#45;&gt;Node5</title>
<g id="a_edge21_Node000019_Node000005"><a xlink:title=" ">
<path fill="none" stroke="#63b8ff" d="M247.35,-110.21C253.91,-96.78 267.91,-71.24 286.25,-55.25 302.5,-41.08 324.05,-30.25 342.1,-22.81"/>
<polygon fill="#63b8ff" stroke="#63b8ff" points="343.36,-26.07 351.4,-19.16 340.81,-19.55 343.36,-26.07"/>
</a>
</g>
</g>
<!-- Node19&#45;&gt;Node13 -->
<g id="edge20_Node000019_Node000013" class="edge">
<title>Node19&#45;&gt;Node13</title>
<g id="a_edge20_Node000019_Node000013"><a xlink:title=" ">
<path fill="none" stroke="#63b8ff" d="M227.13,-110.09C212.67,-101.98 191.17,-89.93 174.27,-80.46"/>
<polygon fill="#63b8ff" stroke="#63b8ff" points="176.2,-77.53 165.76,-75.69 172.78,-83.64 176.2,-77.53"/>
</a>
</g>
</g>
<!-- Node19&#45;&gt;Node17 -->
<g id="edge22_Node000019_Node000017" class="edge">
<title>Node19&#45;&gt;Node17</title>
<g id="a_edge22_Node000019_Node000017"><a xlink:title=" ">
<path fill="none" stroke="#63b8ff" d="M242.6,-110.25C242.05,-97.33 242.57,-72.93 252.25,-55.25 258.66,-43.55 269.43,-33.53 279.51,-25.97"/>
<polygon fill="#63b8ff" stroke="#63b8ff" points="281.36,-28.95 287.57,-20.37 277.36,-23.21 281.36,-28.95"/>
</a>
</g>
</g>
<!-- Node19&#45;&gt;Node20 -->
<g id="edge23_Node000019_Node000020" class="edge">
<title>Node19&#45;&gt;Node20</title>
<g id="a_edge23_Node000019_Node000020"><a xlink:title=" ">
<path fill="none" stroke="#63b8ff" d="M255.63,-110.09C266.4,-102.24 282.22,-90.7 295,-81.37"/>
<polygon fill="#63b8ff" stroke="#63b8ff" points="296.81,-84.39 302.83,-75.67 292.69,-78.73 296.81,-84.39"/>
</a>
</g>
</g>
</g>
</svg>

<g id="navigator" transform="translate(0 0)" fill="#404254">
  <rect fill="#f2f5e9" fill-opacity="0.5" stroke="#606060" stroke-width=".5" x="0" y="0" width="60" height="60"/>
  <use id="zoomplus" xlink:href="#zoomPlus" x="17" y="9" onmousedown="handleZoom(evt,'in')"/>
  <use id="zoomminus" xlink:href="#zoomMin" x="42" y="9" onmousedown="handleZoom(evt,'out')"/>
  <use id="reset" xlink:href="#resetDef" x="30" y="36" onmousedown="handleReset()"/>
   <use id="arrowup" xlink:href="#arrowUp" x="0" y="0" onmousedown="handlePan(0,-1)"/>
  <use id="arrowright" xlink:href="#arrowRight" x="0" y="0" onmousedown="handlePan(1,0)"/>
  <use id="arrowdown" xlink:href="#arrowDown" x="0" y="0" onmousedown="handlePan(0,1)"/>
  <use id="arrowleft" xlink:href="#arrowLeft" x="0" y="0" onmousedown="handlePan(-1,0)"/>
</g>
<svg viewBox="0 0 15 15" width="100%" height="30px" preserveAspectRatio="xMaxYMin meet">
 <g id="arrow_out" transform="scale(0.3 0.3)">
  <a xlink:href="stream__parser_8h__incl_org.svg" target="_base">
   <rect id="button" ry="5" rx="5" y="6" x="6" height="38" width="38"
        fill="#f2f5e9" fill-opacity="0.5" stroke="#606060" stroke-width="1.0"/>
   <path id="arrow"
     d="M 11.500037,31.436501 C 11.940474,20.09759 22.043105,11.32322 32.158766,21.979434 L 37.068811,17.246167 C 37.068811,17.246167 37.088388,32 37.088388,32 L 22.160133,31.978069 C 22.160133,31.978069 26.997745,27.140456 26.997745,27.140456 C 18.528582,18.264221 13.291696,25.230495 11.500037,31.436501 z"
     style="fill:#404040;"/>
  </a>
 </g>
</svg>

<style type='text/css'>
<![CDATA[
[data-mouse-over-selected='false'] { opacity: 0.7; }
[data-mouse-over-selected='true']  { opacity: 1.0; }
]]>
</style>
<script type="application/ecmascript"><![CDATA[
document.addEventListener('DOMContentLoaded', (event) => {
  highlightEdges();
  highlightAdjacentNodes();
});
]]></script>
</svg>
