<?xml version="1.0" encoding="UTF-8" standalone="no"?>
<!DOCTYPE svg PUBLIC "-//W3C//DTD SVG 1.1//EN"
 "http://www.w3.org/Graphics/SVG/1.1/DTD/svg11.dtd">
<!-- Generated by graphviz version 12.2.0 (20241103.1931)
 -->
<!-- Title: bcnp/stream_parser.h Pages: 1 -->
<svg width="572pt" height="216pt"
 viewBox="0.00 0.00 571.75 215.50" xmlns="http://www.w3.org/2000/svg" xmlns:xlink="http://www.w3.org/1999/xlink">
<g id="graph0" class="graph" transform="scale(1 1) rotate(0) translate(4 211.5)">
<title>bcnp/stream_parser.h</title>
<!-- Node1 -->
<g id="Node000001" class="node">
<title>Node1</title>
<g id="a_Node000001"><a xlink:title=" ">
<polygon fill="#999999" stroke="#666666" points="431.5,-207.5 321.75,-207.5 321.75,-188.25 431.5,-188.25 431.5,-207.5"/>
<text text-anchor="middle" x="376.62" y="-194" font-family="Helvetica,sans-Serif" font-size="10.00">bcnp/stream_parser.h</text>
</a>
</g>
</g>
<!-- Node2 -->
<g id="Node000002" class="node">
<title>Node2</title>
<g id="a_Node000002"><a xlink:href="dispatcher_8h.html" target="_top" xlink:title=" ">
<polygon fill="white" stroke="#666666" points="267.88,-152.25 175.38,-152.25 175.38,-133 267.88,-133 267.88,-152.25"/>
<text text-anchor="middle" x="221.62" y="-138.75" font-family="Helvetica,sans-Serif" font-size="10.00">bcnp/dispatcher.h</text>
</a>
</g>
</g>
<!-- Node1&#45;&gt;Node2 -->
<g id="edge1_Node000001_Node000002" class="edge">
<title>Node1&#45;&gt;Node2</title>
<g id="a_edge1_Node000001_Node000002"><a xlink:title=" ">
<path fill="none" stroke="#63b8ff" d="M339.68,-184.18C311.46,-174.49 273.25,-161.36 248.05,-152.7"/>
<polygon fill="#63b8ff" stroke="#63b8ff" points="338.31,-187.41 348.9,-187.35 340.58,-180.79 338.31,-187.41"/>
</a>
</g>
</g>
<!-- Node7 -->
<g id="Node000007" class="node">
<title>Node7</title>
<g id="a_Node000007"><a xlink:href="spi__adapter_8h.html" target="_top" xlink:title="SPI transport adapter for BCNP (deprecated).">
<polygon fill="white" stroke="#666666" points="425.5,-152.25 327.75,-152.25 327.75,-133 425.5,-133 425.5,-152.25"/>
<text text-anchor="middle" x="376.62" y="-138.75" font-family="Helvetica,sans-Serif" font-size="10.00">bcnp/spi_adapter.h</text>
</a>
</g>
</g>
<!-- Node1&#45;&gt;Node7 -->
<g id="edge6_Node000001_Node000007" class="edge">
<title>Node1&#45;&gt;Node7</title>
<g id="a_edge6_Node000001_Node000007"><a xlink:title=" ">
<path fill="none" stroke="#63b8ff" d="M376.62,-176.63C376.62,-168.34 376.62,-159.17 376.62,-152.61"/>
<polygon fill="#63b8ff" stroke="#63b8ff" points="373.13,-176.57 376.63,-186.57 380.13,-176.57 373.13,-176.57"/>
</a>
</g>
</g>
<!-- Node9 -->
<g id="Node000009" class="node">
<title>Node9</title>
<g id="a_Node000009"><a xlink:href="stream__parser_8cpp.html" target="_top" xlink:title="Implementation of the BCNP stream parser.">
<polygon fill="white" stroke="#666666" points="563.75,-152.25 443.5,-152.25 443.5,-133 563.75,-133 563.75,-152.25"/>
<text text-anchor="middle" x="503.62" y="-138.75" font-family="Helvetica,sans-Serif" font-size="10.00">bcnp/stream_parser.cpp</text>
</a>
</g>
</g>
<!-- Node1&#45;&gt;Node9 -->
<g id="edge8_Node000001_Node000009" class="edge">
<title>Node1&#45;&gt;Node9</title>
<g id="a_edge8_Node000001_Node000009"><a xlink:title=" ">
<path fill="none" stroke="#63b8ff" d="M408.76,-183.4C431.67,-173.79 461.87,-161.13 481.98,-152.7"/>
<polygon fill="#63b8ff" stroke="#63b8ff" points="407.43,-180.16 399.56,-187.26 410.14,-186.62 407.43,-180.16"/>
</a>
</g>
</g>
<!-- Node3 -->
<g id="Node000003" class="node">
<title>Node3</title>
<g id="a_Node000003"><a xlink:href="controller_8h.html" target="_top" xlink:title=" ">
<polygon fill="white" stroke="#666666" points="87.25,-91.38 0,-91.38 0,-72.12 87.25,-72.12 87.25,-91.38"/>
<text text-anchor="middle" x="43.62" y="-77.88" font-family="Helvetica,sans-Serif" font-size="10.00">bcnp/controller.h</text>
</a>
</g>
</g>
<!-- Node2&#45;&gt;Node3 -->
<g id="edge2_Node000002_Node000003" class="edge">
<title>Node2&#45;&gt;Node3</title>
<g id="a_edge2_Node000002_Node000003"><a xlink:title=" ">
<path fill="none" stroke="#63b8ff" d="M183.35,-128.97C149.57,-117.79 101.14,-101.77 71.08,-91.83"/>
<polygon fill="#63b8ff" stroke="#63b8ff" points="182.17,-132.26 192.77,-132.08 184.37,-125.62 182.17,-132.26"/>
</a>
</g>
</g>
<!-- Node4 -->
<g id="Node000004" class="node">
<title>Node4</title>
<g id="a_Node000004"><a xlink:href="dispatcher_8cpp.html" target="_top" xlink:title="Implementation of the BCNP packet dispatcher.">
<polygon fill="white" stroke="#666666" points="208.12,-91.38 105.12,-91.38 105.12,-72.12 208.12,-72.12 208.12,-91.38"/>
<text text-anchor="middle" x="156.62" y="-77.88" font-family="Helvetica,sans-Serif" font-size="10.00">bcnp/dispatcher.cpp</text>
</a>
</g>
</g>
<!-- Node2&#45;&gt;Node4 -->
<g id="edge3_Node000002_Node000004" class="edge">
<title>Node2&#45;&gt;Node4</title>
<g id="a_edge3_Node000002_Node000004"><a xlink:title=" ">
<path fill="none" stroke="#63b8ff" d="M203.4,-125.12C191.48,-114.32 176.36,-100.62 166.59,-91.78"/>
<polygon fill="#63b8ff" stroke="#63b8ff" points="200.87,-127.55 210.63,-131.67 205.57,-122.36 200.87,-127.55"/>
</a>
</g>
</g>
<!-- Node5 -->
<g id="Node000005" class="node">
<title>Node5</title>
<g id="a_Node000005"><a xlink:href="controller__driver_8h.html" target="_top" xlink:title=" ">
<polygon fill="white" stroke="#666666" points="347.12,-97 226.12,-97 226.12,-66.5 347.12,-66.5 347.12,-97"/>
<text text-anchor="start" x="234.12" y="-83.5" font-family="Helvetica,sans-Serif" font-size="10.00">bcnp/transport/controller</text>
<text text-anchor="middle" x="286.62" y="-72.25" font-family="Helvetica,sans-Serif" font-size="10.00">_driver.h</text>
</a>
</g>
</g>
<!-- Node2&#45;&gt;Node5 -->
<g id="edge4_Node000002_Node000005" class="edge">
<title>Node2&#45;&gt;Node5</title>
<g id="a_edge4_Node000002_Node000005"><a xlink:title=" ">
<path fill="none" stroke="#63b8ff" d="M239.96,-125.02C249.6,-116.29 261.3,-105.68 270.58,-97.28"/>
<polygon fill="#63b8ff" stroke="#63b8ff" points="237.68,-122.36 232.62,-131.67 242.38,-127.55 237.68,-122.36"/>
</a>
</g>
</g>
<!-- Node6 -->
<g id="Node000006" class="node">
<title>Node6</title>
<g id="a_Node000006"><a xlink:href="controller__driver_8cpp.html" target="_top" xlink:title=" ">
<polygon fill="white" stroke="#666666" points="347.12,-30.5 226.12,-30.5 226.12,0 347.12,0 347.12,-30.5"/>
<text text-anchor="start" x="234.12" y="-17" font-family="Helvetica,sans-Serif" font-size="10.00">bcnp/transport/controller</text>
<text text-anchor="middle" x="286.62" y="-5.75" font-family="Helvetica,sans-Serif" font-size="10.00">_driver.cpp</text>
</a>
</g>
</g>
<!-- Node5&#45;&gt;Node6 -->
<g id="edge5_Node000005_Node000006" class="edge">
<title>Node5&#45;&gt;Node6</title>
<g id="a_edge5_Node000005_Node000006"><a xlink:title=" ">
<path fill="none" stroke="#63b8ff" d="M286.62,-54.81C286.62,-46.64 286.62,-37.91 286.62,-30.83"/>
<polygon fill="#63b8ff" stroke="#63b8ff" points="283.13,-54.6 286.63,-64.6 290.13,-54.6 283.13,-54.6"/>
</a>
</g>
</g>
<!-- Node8 -->
<g id="Node000008" class="node">
<title>Node8</title>
<g id="a_Node000008"><a xlink:href="spi__adapter_8cpp.html" target="_top" xlink:title="Implementation of the deprecated SPI transport adapter.">
<polygon fill="white" stroke="#666666" points="473.75,-91.38 365.5,-91.38 365.5,-72.12 473.75,-72.12 473.75,-91.38"/>
<text text-anchor="middle" x="419.62" y="-77.88" font-family="Helvetica,sans-Serif" font-size="10.00">bcnp/spi_adapter.cpp</text>
</a>
</g>
</g>
<!-- Node7&#45;&gt;Node8 -->
<g id="edge7_Node000007_Node000008" class="edge">
<title>Node7&#45;&gt;Node8</title>
<g id="a_edge7_Node000007_Node000008"><a xlink:title=" ">
<path fill="none" stroke="#63b8ff" d="M389.85,-123.51C397.54,-112.99 406.89,-100.19 413.03,-91.78"/>
<polygon fill="#63b8ff" stroke="#63b8ff" points="387.12,-121.32 384.05,-131.46 392.77,-125.45 387.12,-121.32"/>
</a>
</g>
</g>
</g>
</svg>
