<?xml version="1.0" encoding="UTF-8" standalone="no"?>
<!DOCTYPE svg PUBLIC "-//W3C//DTD SVG 1.1//EN"
 "http://www.w3.org/Graphics/SVG/1.1/DTD/svg11.dtd">
<!-- Generated by graphviz version 12.2.0 (20241103.1931)
 -->
<!-- Title: bcnp/transport/tcp_posix.h Pages: 1 -->
<!--zoomable 260 -->

<svg id="main" version="1.1" xmlns="http://www.w3.org/2000/svg" xmlns:xlink="http://www.w3.org/1999/xlink" xml:space="preserve" onload="init(evt)">

<style type="text/css"><![CDATA[
.node, .edge {opacity: 0.7;}
.node.selected, .edge.selected {opacity: 1;}
.edge:hover path { stroke: red; }
.edge:hover polygon { stroke: red; fill: red; }
]]></style>

<defs>
  <circle id="rim" cx="0" cy="0" r="7"/>
  <circle id="rim2" cx="0" cy="0" r="3.5"/>
  <g id="zoomPlus">
    <use xlink:href="#rim" fill="#404040"><set attributeName="fill" to="#808080" begin="zoomplus.mouseover" end="zoomplus.mouseout"/></use>
    <path d="M-4,0h8M0,-4v8" fill="none" stroke="white" stroke-width="1.5" pointer-events="none"/>
  </g>
  <g id="zoomMin">
    <use xlink:href="#rim" fill="#404040"><set attributeName="fill" to="#808080" begin="zoomminus.mouseover" end="zoomminus.mouseout"/></use>
    <path d="M-4,0h8" fill="none" stroke="white" stroke-width="1.5" pointer-events="none"/>
  </g>
  <g id="arrowUp" transform="translate(30 24)">
    <use xlink:href="#rim"/>
    <path pointer-events="none" fill="none" stroke="white" stroke-width="1.5" d="M0,-3.0v7 M-2.5,-0.5L0,-3.0L2.5,-0.5"/>
  </g>
  <g id="arrowRight" transform="rotate(90) translate(36 -43)">
    <use xlink:href="#rim"/>
    <path pointer-events="none" fill="none" stroke="white" stroke-width="1.5" d="M0,-3.0v7 M-2.5,-0.5L0,-3.0L2.5,-0.5"/>
  </g>
  <g id="arrowDown" transform="rotate(180) translate(-30 -48)">
    <use xlink:href="#rim"/>
    <path pointer-events="none" fill="none" stroke="white" stroke-width="1.5" d="M0,-3.0v7 M-2.5,-0.5L0,-3.0L2.5,-0.5"/>
  </g>
  <g id="arrowLeft" transform="rotate(270) translate(-36 17)">
    <use xlink:href="#rim"/>
    <path pointer-events="none" fill="none" stroke="white" stroke-width="1.5" d="M0,-3.0v7 M-2.5,-0.5L0,-3.0L2.5,-0.5"/>
  </g>
  <g id="resetDef">
    <use xlink:href="#rim2" fill="#404040"><set attributeName="fill" to="#808080" begin="reset.mouseover" end="reset.mouseout"/></use>
  </g>
</defs>
<script type="application/ecmascript">
var viewWidth = 965;
var viewHeight = 260;
var sectionId = 'dynsection-0';
</script>
<script type="application/ecmascript" xlink:href="svg.min.js"/>
<svg id="graph" class="graph">
<g id="viewport">
<title>bcnp/transport/tcp_posix.h</title>
<!-- Node1 -->
<g id="Node000001" class="node">
<title>Node1</title>
<g id="a_Node000001"><a xlink:title=" ">
<polygon fill="#999999" stroke="#666666" points="508.07,-251.5 413.32,-251.5 413.32,-221 508.07,-221 508.07,-251.5"/>
<text text-anchor="start" x="421.32" y="-238" font-family="Helvetica,sans-Serif" font-size="10.00">bcnp/transport/tcp</text>
<text text-anchor="middle" x="460.69" y="-226.75" font-family="Helvetica,sans-Serif" font-size="10.00">_posix.h</text>
</a>
</g>
</g>
<!-- Node2 -->
<g id="Node000002" class="node">
<title>Node2</title>
<g id="a_Node000002"><a xlink:href="packet_8h.html" target="_top" xlink:title="BCNP packet structures, encoding, and decoding utilities.">
<polygon fill="white" stroke="#666666" points="460.07,-185 383.32,-185 383.32,-165.75 460.07,-165.75 460.07,-185"/>
<text text-anchor="middle" x="421.69" y="-171.5" font-family="Helvetica,sans-Serif" font-size="10.00">bcnp/packet.h</text>
</a>
</g>
</g>
<!-- Node1&#45;&gt;Node2 -->
<g id="edge1_Node000001_Node000002" class="edge">
<title>Node1&#45;&gt;Node2</title>
<g id="a_edge1_Node000001_Node000002"><a xlink:title=" ">
<path fill="none" stroke="#63b8ff" d="M451.05,-220.7C445.92,-212.94 439.54,-203.31 434.04,-195.01"/>
<polygon fill="#63b8ff" stroke="#63b8ff" points="436.98,-193.12 428.54,-186.71 431.15,-196.98 436.98,-193.12"/>
</a>
</g>
</g>
<!-- Node3 -->
<g id="Node000003" class="node">
<title>Node3</title>
<g id="a_Node000003"><a xlink:href="message__types_8h.html" target="_top" xlink:title=" ">
<polygon fill="white" stroke="#666666" points="413.57,-129.75 297.82,-129.75 297.82,-110.5 413.57,-110.5 413.57,-129.75"/>
<text text-anchor="middle" x="355.69" y="-116.25" font-family="Helvetica,sans-Serif" font-size="10.00">bcnp/message_types.h</text>
</a>
</g>
</g>
<!-- Node1&#45;&gt;Node3 -->
<g id="edge29_Node000001_Node000003" class="edge">
<title>Node1&#45;&gt;Node3</title>
<g id="a_edge29_Node000001_Node000003"><a xlink:title=" ">
<path fill="none" stroke="#63b8ff" d="M422.34,-220.55C405.58,-212.37 386.97,-200.64 374.69,-185 364.74,-172.32 359.99,-154.52 357.73,-140.93"/>
<polygon fill="#63b8ff" stroke="#63b8ff" points="361.25,-140.86 356.48,-131.4 354.31,-141.77 361.25,-140.86"/>
</a>
</g>
</g>
<!-- Node21 -->
<g id="Node000021" class="node">
<title>Node21</title>
<g id="a_Node000021"><a xlink:href="adapter_8h.html" target="_top" xlink:title=" ">
<polygon fill="white" stroke="#666666" points="201.19,-129.75 80.19,-129.75 80.19,-110.5 201.19,-110.5 201.19,-129.75"/>
<text text-anchor="middle" x="140.69" y="-116.25" font-family="Helvetica,sans-Serif" font-size="10.00">bcnp/transport/adapter.h</text>
</a>
</g>
</g>
<!-- Node1&#45;&gt;Node21 -->
<g id="edge26_Node000001_Node000021" class="edge">
<title>Node1&#45;&gt;Node21</title>
<g id="a_edge26_Node000001_Node000021"><a xlink:title=" ">
<path fill="none" stroke="#63b8ff" d="M419.52,-220.56C356.4,-198.05 236.77,-155.39 176.83,-134.01"/>
<polygon fill="#63b8ff" stroke="#63b8ff" points="178.04,-130.73 167.44,-130.66 175.68,-137.32 178.04,-130.73"/>
</a>
</g>
</g>
<!-- Node22 -->
<g id="Node000022" class="node">
<title>Node22</title>
<g id="a_Node000022"><a xlink:title=" ">
<polygon fill="#e0e0e0" stroke="#999999" points="523.32,-185 478.07,-185 478.07,-165.75 523.32,-165.75 523.32,-185"/>
<text text-anchor="middle" x="500.69" y="-171.5" font-family="Helvetica,sans-Serif" font-size="10.00">chrono</text>
</a>
</g>
</g>
<!-- Node1&#45;&gt;Node22 -->
<g id="edge30_Node000001_Node000022" class="edge">
<title>Node1&#45;&gt;Node22</title>
<g id="a_edge30_Node000001_Node000022"><a xlink:title=" ">
<path fill="none" stroke="#63b8ff" d="M470.58,-220.7C475.91,-212.85 482.54,-203.1 488.22,-194.74"/>
<polygon fill="#63b8ff" stroke="#63b8ff" points="490.95,-196.94 493.68,-186.7 485.16,-193.01 490.95,-196.94"/>
</a>
</g>
</g>
<!-- Node23 -->
<g id="Node000023" class="node">
<title>Node23</title>
<g id="a_Node000023"><a xlink:title=" ">
<polygon fill="#e0e0e0" stroke="#999999" points="591.94,-185 541.44,-185 541.44,-165.75 591.94,-165.75 591.94,-185"/>
<text text-anchor="middle" x="566.69" y="-171.5" font-family="Helvetica,sans-Serif" font-size="10.00">memory</text>
</a>
</g>
</g>
<!-- Node1&#45;&gt;Node23 -->
<g id="edge31_Node000001_Node000023" class="edge">
<title>Node1&#45;&gt;Node23</title>
<g id="a_edge31_Node000001_Node000023"><a xlink:title=" ">
<path fill="none" stroke="#63b8ff" d="M487.17,-220.55C503.47,-211.49 524.27,-199.94 540.52,-190.91"/>
<polygon fill="#63b8ff" stroke="#63b8ff" points="542.07,-194.05 549.12,-186.14 538.67,-187.93 542.07,-194.05"/>
</a>
</g>
</g>
<!-- Node24 -->
<g id="Node000024" class="node">
<title>Node24</title>
<g id="a_Node000024"><a xlink:title=" ">
<polygon fill="#e0e0e0" stroke="#999999" points="673.32,-185 610.07,-185 610.07,-165.75 673.32,-165.75 673.32,-185"/>
<text text-anchor="middle" x="641.69" y="-171.5" font-family="Helvetica,sans-Serif" font-size="10.00">netinet/in.h</text>
</a>
</g>
</g>
<!-- Node1&#45;&gt;Node24 -->
<g id="edge32_Node000001_Node000024" class="edge">
<title>Node1&#45;&gt;Node24</title>
<g id="a_edge32_Node000001_Node000024"><a xlink:title=" ">
<path fill="none" stroke="#63b8ff" d="M505.9,-220.55C535.76,-210.83 574.48,-198.24 602.93,-188.98"/>
<polygon fill="#63b8ff" stroke="#63b8ff" points="603.8,-192.38 612.23,-185.96 601.64,-185.72 603.8,-192.38"/>
</a>
</g>
</g>
<!-- Node2&#45;&gt;Node3 -->
<g id="edge2_Node000002_Node000003" class="edge">
<title>Node2&#45;&gt;Node3</title>
<g id="a_edge2_Node000002_Node000003"><a xlink:title=" ">
<path fill="none" stroke="#63b8ff" d="M410.5,-165.34C400.96,-157.65 387.02,-146.4 375.59,-137.18"/>
<polygon fill="#63b8ff" stroke="#63b8ff" points="377.88,-134.53 367.9,-130.98 373.49,-139.98 377.88,-134.53"/>
</a>
</g>
</g>
<!-- Node5 -->
<g id="Node000005" class="node">
<title>Node5</title>
<g id="a_Node000005"><a xlink:title=" ">
<polygon fill="#e0e0e0" stroke="#999999" points="609.82,-19.25 561.57,-19.25 561.57,0 609.82,0 609.82,-19.25"/>
<text text-anchor="middle" x="585.69" y="-5.75" font-family="Helvetica,sans-Serif" font-size="10.00">cstddef</text>
</a>
</g>
</g>
<!-- Node2&#45;&gt;Node5 -->
<g id="edge23_Node000002_Node000005" class="edge">
<title>Node2&#45;&gt;Node5</title>
<g id="a_edge23_Node000002_Node000005"><a xlink:title=" ">
<path fill="none" stroke="#63b8ff" d="M382.99,-175.06C263.45,-175.98 -85.67,-169.24 19.69,-55.25 55.71,-16.28 431.67,-11.3 550.14,-10.7"/>
<polygon fill="#63b8ff" stroke="#63b8ff" points="549.92,-14.2 559.9,-10.65 549.89,-7.2 549.92,-14.2"/>
</a>
</g>
</g>
<!-- Node6 -->
<g id="Node000006" class="node">
<title>Node6</title>
<g id="a_Node000006"><a xlink:title=" ">
<polygon fill="#e0e0e0" stroke="#999999" points="74.32,-74.5 29.07,-74.5 29.07,-55.25 74.32,-55.25 74.32,-74.5"/>
<text text-anchor="middle" x="51.69" y="-61" font-family="Helvetica,sans-Serif" font-size="10.00">cstdint</text>
</a>
</g>
</g>
<!-- Node2&#45;&gt;Node6 -->
<g id="edge24_Node000002_Node000006" class="edge">
<title>Node2&#45;&gt;Node6</title>
<g id="a_edge24_Node000002_Node000006"><a xlink:title=" ">
<path fill="none" stroke="#63b8ff" d="M382.95,-174.6C301.67,-174.28 117.05,-169.12 70.69,-129.75 58.14,-119.09 53.68,-100.54 52.18,-86.17"/>
<polygon fill="#63b8ff" stroke="#63b8ff" points="55.69,-86.2 51.6,-76.43 48.7,-86.62 55.69,-86.2"/>
</a>
</g>
</g>
<!-- Node13 -->
<g id="Node000013" class="node">
<title>Node13</title>
<g id="a_Node000013"><a xlink:href="static__vector_8h.html" target="_top" xlink:title="Fixed&#45;capacity vector with stack allocation (no heap).">
<polygon fill="white" stroke="#666666" points="896.57,-74.5 792.82,-74.5 792.82,-55.25 896.57,-55.25 896.57,-74.5"/>
<text text-anchor="middle" x="844.69" y="-61" font-family="Helvetica,sans-Serif" font-size="10.00">bcnp/static_vector.h</text>
</a>
</g>
</g>
<!-- Node2&#45;&gt;Node13 -->
<g id="edge12_Node000002_Node000013" class="edge">
<title>Node2&#45;&gt;Node13</title>
<g id="a_edge12_Node000002_Node000013"><a xlink:title=" ">
<path fill="none" stroke="#63b8ff" d="M460.39,-167.07C463.2,-166.61 465.99,-166.16 468.69,-165.75 602.79,-145.5 647.79,-184.87 771.69,-129.75 795.39,-119.21 817,-98.23 830.46,-83.19"/>
<polygon fill="#63b8ff" stroke="#63b8ff" points="832.87,-85.75 836.74,-75.88 827.56,-81.18 832.87,-85.75"/>
</a>
</g>
</g>
<!-- Node17 -->
<g id="Node000017" class="node">
<title>Node17</title>
<g id="a_Node000017"><a xlink:href="packet__storage_8h.html" target="_top" xlink:title=" ">
<polygon fill="white" stroke="#666666" points="762.82,-129.75 648.57,-129.75 648.57,-110.5 762.82,-110.5 762.82,-129.75"/>
<text text-anchor="middle" x="705.69" y="-116.25" font-family="Helvetica,sans-Serif" font-size="10.00">bcnp/packet_storage.h</text>
</a>
</g>
</g>
<!-- Node2&#45;&gt;Node17 -->
<g id="edge17_Node000002_Node000017" class="edge">
<title>Node2&#45;&gt;Node17</title>
<g id="a_edge17_Node000002_Node000017"><a xlink:title=" ">
<path fill="none" stroke="#63b8ff" d="M460.29,-167.14C508.11,-158.17 590.09,-142.8 646.03,-132.31"/>
<polygon fill="#63b8ff" stroke="#63b8ff" points="646.53,-135.78 655.71,-130.5 645.24,-128.9 646.53,-135.78"/>
</a>
</g>
</g>
<!-- Node19 -->
<g id="Node000019" class="node">
<title>Node19</title>
<g id="a_Node000019"><a xlink:title=" ">
<polygon fill="#e0e0e0" stroke="#999999" points="657.19,-74.5 614.19,-74.5 614.19,-55.25 657.19,-55.25 657.19,-74.5"/>
<text text-anchor="middle" x="635.69" y="-61" font-family="Helvetica,sans-Serif" font-size="10.00">vector</text>
</a>
</g>
</g>
<!-- Node2&#45;&gt;Node19 -->
<g id="edge25_Node000002_Node000019" class="edge">
<title>Node2&#45;&gt;Node19</title>
<g id="a_edge25_Node000002_Node000019"><a xlink:title=" ">
<path fill="none" stroke="#63b8ff" d="M441.86,-165.28C461.19,-156.47 491.13,-142.6 516.69,-129.75 549.03,-113.49 585.64,-93.62 609.61,-80.4"/>
<polygon fill="#63b8ff" stroke="#63b8ff" points="611.29,-83.47 618.35,-75.56 607.9,-77.34 611.29,-83.47"/>
</a>
</g>
</g>
<!-- Node20 -->
<g id="Node000020" class="node">
<title>Node20</title>
<g id="a_Node000020"><a xlink:title=" ">
<polygon fill="#e0e0e0" stroke="#999999" points="508.07,-129.75 431.32,-129.75 431.32,-110.5 508.07,-110.5 508.07,-129.75"/>
<text text-anchor="middle" x="469.69" y="-116.25" font-family="Helvetica,sans-Serif" font-size="10.00">crab/prelude.h</text>
</a>
</g>
</g>
<!-- Node2&#45;&gt;Node20 -->
<g id="edge22_Node000002_Node000020" class="edge">
<title>Node2&#45;&gt;Node20</title>
<g id="a_edge22_Node000002_Node000020"><a xlink:title=" ">
<path fill="none" stroke="#63b8ff" d="M429.62,-165.58C436.25,-158.23 445.91,-147.51 454.08,-138.44"/>
<polygon fill="#63b8ff" stroke="#63b8ff" points="456.49,-141 460.58,-131.23 451.29,-136.32 456.49,-141"/>
</a>
</g>
</g>
<!-- Node4 -->
<g id="Node000004" class="node">
<title>Node4</title>
<g id="a_Node000004"><a xlink:title=" ">
<polygon fill="#e0e0e0" stroke="#999999" points="433.19,-74.5 396.19,-74.5 396.19,-55.25 433.19,-55.25 433.19,-74.5"/>
<text text-anchor="middle" x="414.69" y="-61" font-family="Helvetica,sans-Serif" font-size="10.00">array</text>
</a>
</g>
</g>
<!-- Node3&#45;&gt;Node4 -->
<g id="edge3_Node000003_Node000004" class="edge">
<title>Node3&#45;&gt;Node4</title>
<g id="a_edge3_Node000003_Node000004"><a xlink:title=" ">
<path fill="none" stroke="#63b8ff" d="M365.7,-110.09C374.06,-102.55 386.19,-91.6 396.3,-82.48"/>
<polygon fill="#63b8ff" stroke="#63b8ff" points="398.63,-85.09 403.71,-75.79 393.94,-79.89 398.63,-85.09"/>
</a>
</g>
</g>
<!-- Node3&#45;&gt;Node5 -->
<g id="edge4_Node000003_Node000005" class="edge">
<title>Node3&#45;&gt;Node5</title>
<g id="a_edge4_Node000003_Node000005"><a xlink:title=" ">
<path fill="none" stroke="#63b8ff" d="M413.49,-110.01C471.99,-100.3 555.41,-84.91 566.69,-74.5 578.8,-63.34 583.32,-44.85 584.94,-30.62"/>
<polygon fill="#63b8ff" stroke="#63b8ff" points="588.41,-31.25 585.64,-21.03 581.42,-30.75 588.41,-31.25"/>
</a>
</g>
</g>
<!-- Node3&#45;&gt;Node6 -->
<g id="edge5_Node000003_Node000006" class="edge">
<title>Node3&#45;&gt;Node6</title>
<g id="a_edge5_Node000003_Node000006"><a xlink:title=" ">
<path fill="none" stroke="#63b8ff" d="M303.78,-110.03C241.51,-99.12 138.88,-81.15 85.82,-71.85"/>
<polygon fill="#63b8ff" stroke="#63b8ff" points="86.62,-68.44 76.17,-70.16 85.41,-75.33 86.62,-68.44"/>
</a>
</g>
</g>
<!-- Node7 -->
<g id="Node000007" class="node">
<title>Node7</title>
<g id="a_Node000007"><a xlink:title=" ">
<polygon fill="#e0e0e0" stroke="#999999" points="494.19,-74.5 451.19,-74.5 451.19,-55.25 494.19,-55.25 494.19,-74.5"/>
<text text-anchor="middle" x="472.69" y="-61" font-family="Helvetica,sans-Serif" font-size="10.00">cmath</text>
</a>
</g>
</g>
<!-- Node3&#45;&gt;Node7 -->
<g id="edge6_Node000003_Node000007" class="edge">
<title>Node3&#45;&gt;Node7</title>
<g id="a_edge6_Node000003_Node000007"><a xlink:title=" ">
<path fill="none" stroke="#63b8ff" d="M375.54,-110.09C393.86,-101.75 421.34,-89.25 442.4,-79.66"/>
<polygon fill="#63b8ff" stroke="#63b8ff" points="443.72,-82.91 451.37,-75.58 440.82,-76.54 443.72,-82.91"/>
</a>
</g>
</g>
<!-- Node8 -->
<g id="Node000008" class="node">
<title>Node8</title>
<g id="a_Node000008"><a xlink:title=" ">
<polygon fill="#e0e0e0" stroke="#999999" points="557.32,-74.5 512.07,-74.5 512.07,-55.25 557.32,-55.25 557.32,-74.5"/>
<text text-anchor="middle" x="534.69" y="-61" font-family="Helvetica,sans-Serif" font-size="10.00">cstring</text>
</a>
</g>
</g>
<!-- Node3&#45;&gt;Node8 -->
<g id="edge7_Node000003_Node000008" class="edge">
<title>Node3&#45;&gt;Node8</title>
<g id="a_edge7_Node000003_Node000008"><a xlink:title=" ">
<path fill="none" stroke="#63b8ff" d="M386.06,-110.09C417.82,-100.64 467.57,-85.84 500.65,-76"/>
<polygon fill="#63b8ff" stroke="#63b8ff" points="501.56,-79.38 510.15,-73.18 499.56,-72.67 501.56,-79.38"/>
</a>
</g>
</g>
<!-- Node9 -->
<g id="Node000009" class="node">
<title>Node9</title>
<g id="a_Node000009"><a xlink:title=" ">
<polygon fill="#e0e0e0" stroke="#999999" points="188.69,-74.5 130.69,-74.5 130.69,-55.25 188.69,-55.25 188.69,-74.5"/>
<text text-anchor="middle" x="159.69" y="-61" font-family="Helvetica,sans-Serif" font-size="10.00">functional</text>
</a>
</g>
</g>
<!-- Node3&#45;&gt;Node9 -->
<g id="edge8_Node000003_Node000009" class="edge">
<title>Node3&#45;&gt;Node9</title>
<g id="a_edge8_Node000003_Node000009"><a xlink:title=" ">
<path fill="none" stroke="#63b8ff" d="M322.45,-110.09C288.5,-100.87 235.78,-86.55 199.6,-76.72"/>
<polygon fill="#63b8ff" stroke="#63b8ff" points="200.97,-73.46 190.4,-74.22 199.13,-80.22 200.97,-73.46"/>
</a>
</g>
</g>
<!-- Node10 -->
<g id="Node000010" class="node">
<title>Node10</title>
<g id="a_Node000010"><a xlink:title=" ">
<polygon fill="#e0e0e0" stroke="#999999" points="246.32,-74.5 207.07,-74.5 207.07,-55.25 246.32,-55.25 246.32,-74.5"/>
<text text-anchor="middle" x="226.69" y="-61" font-family="Helvetica,sans-Serif" font-size="10.00">limits</text>
</a>
</g>
</g>
<!-- Node3&#45;&gt;Node10 -->
<g id="edge9_Node000003_Node000010" class="edge">
<title>Node3&#45;&gt;Node10</title>
<g id="a_edge9_Node000003_Node000010"><a xlink:title=" ">
<path fill="none" stroke="#63b8ff" d="M333.81,-110.09C312.71,-101.38 280.6,-88.13 257.04,-78.4"/>
<polygon fill="#63b8ff" stroke="#63b8ff" points="258.54,-75.23 247.96,-74.65 255.87,-81.71 258.54,-75.23"/>
</a>
</g>
</g>
<!-- Node11 -->
<g id="Node000011" class="node">
<title>Node11</title>
<g id="a_Node000011"><a xlink:title=" ">
<polygon fill="#e0e0e0" stroke="#999999" points="314.57,-74.5 264.82,-74.5 264.82,-55.25 314.57,-55.25 314.57,-74.5"/>
<text text-anchor="middle" x="289.69" y="-61" font-family="Helvetica,sans-Serif" font-size="10.00">optional</text>
</a>
</g>
</g>
<!-- Node3&#45;&gt;Node11 -->
<g id="edge10_Node000003_Node000011" class="edge">
<title>Node3&#45;&gt;Node11</title>
<g id="a_edge10_Node000003_Node000011"><a xlink:title=" ">
<path fill="none" stroke="#63b8ff" d="M344.5,-110.09C334.96,-102.4 321.02,-91.15 309.59,-81.93"/>
<polygon fill="#63b8ff" stroke="#63b8ff" points="311.88,-79.28 301.9,-75.73 307.49,-84.73 311.88,-79.28"/>
</a>
</g>
</g>
<!-- Node12 -->
<g id="Node000012" class="node">
<title>Node12</title>
<g id="a_Node000012"><a xlink:title=" ">
<polygon fill="#e0e0e0" stroke="#999999" points="378.32,-74.5 333.07,-74.5 333.07,-55.25 378.32,-55.25 378.32,-74.5"/>
<text text-anchor="middle" x="355.69" y="-61" font-family="Helvetica,sans-Serif" font-size="10.00">variant</text>
</a>
</g>
</g>
<!-- Node3&#45;&gt;Node12 -->
<g id="edge11_Node000003_Node000012" class="edge">
<title>Node3&#45;&gt;Node12</title>
<g id="a_edge11_Node000003_Node000012"><a xlink:title=" ">
<path fill="none" stroke="#63b8ff" d="M355.69,-110.33C355.69,-103.82 355.69,-94.67 355.69,-86.37"/>
<polygon fill="#63b8ff" stroke="#63b8ff" points="359.19,-86.37 355.69,-76.37 352.19,-86.37 359.19,-86.37"/>
</a>
</g>
</g>
<!-- Node13&#45;&gt;Node5 -->
<g id="edge14_Node000013_Node000005" class="edge">
<title>Node13&#45;&gt;Node5</title>
<g id="a_edge14_Node000013_Node000005"><a xlink:title=" ">
<path fill="none" stroke="#63b8ff" d="M800.46,-54.78C749.85,-44.38 667.96,-27.54 621.28,-17.94"/>
<polygon fill="#63b8ff" stroke="#63b8ff" points="622.19,-14.56 611.69,-15.97 620.78,-21.41 622.19,-14.56"/>
</a>
</g>
</g>
<!-- Node14 -->
<g id="Node000014" class="node">
<title>Node14</title>
<g id="a_Node000014"><a xlink:title=" ">
<polygon fill="#e0e0e0" stroke="#999999" points="790.44,-19.25 688.94,-19.25 688.94,0 790.44,0 790.44,-19.25"/>
<text text-anchor="middle" x="739.69" y="-5.75" font-family="Helvetica,sans-Serif" font-size="10.00">crab/static_vector.h</text>
</a>
</g>
</g>
<!-- Node13&#45;&gt;Node14 -->
<g id="edge13_Node000013_Node000014" class="edge">
<title>Node13&#45;&gt;Node14</title>
<g id="a_edge13_Node000013_Node000014"><a xlink:title=" ">
<path fill="none" stroke="#63b8ff" d="M826.88,-54.84C810.67,-46.62 786.46,-34.34 767.66,-24.81"/>
<polygon fill="#63b8ff" stroke="#63b8ff" points="769.45,-21.79 758.94,-20.39 766.28,-28.03 769.45,-21.79"/>
</a>
</g>
</g>
<!-- Node15 -->
<g id="Node000015" class="node">
<title>Node15</title>
<g id="a_Node000015"><a xlink:title=" ">
<polygon fill="#e0e0e0" stroke="#999999" points="880.44,-19.25 808.94,-19.25 808.94,0 880.44,0 880.44,-19.25"/>
<text text-anchor="middle" x="844.69" y="-5.75" font-family="Helvetica,sans-Serif" font-size="10.00">initializer_list</text>
</a>
</g>
</g>
<!-- Node13&#45;&gt;Node15 -->
<g id="edge15_Node000013_Node000015" class="edge">
<title>Node13&#45;&gt;Node15</title>
<g id="a_edge15_Node000013_Node000015"><a xlink:title=" ">
<path fill="none" stroke="#63b8ff" d="M844.69,-55.08C844.69,-48.57 844.69,-39.42 844.69,-31.12"/>
<polygon fill="#63b8ff" stroke="#63b8ff" points="848.19,-31.12 844.69,-21.12 841.19,-31.12 848.19,-31.12"/>
</a>
</g>
</g>
<!-- Node16 -->
<g id="Node000016" class="node">
<title>Node16</title>
<g id="a_Node000016"><a xlink:title=" ">
<polygon fill="#e0e0e0" stroke="#999999" points="956.69,-19.25 898.69,-19.25 898.69,0 956.69,0 956.69,-19.25"/>
<text text-anchor="middle" x="927.69" y="-5.75" font-family="Helvetica,sans-Serif" font-size="10.00">stdexcept</text>
</a>
</g>
</g>
<!-- Node13&#45;&gt;Node16 -->
<g id="edge16_Node000013_Node000016" class="edge">
<title>Node13&#45;&gt;Node16</title>
<g id="a_edge16_Node000013_Node000016"><a xlink:title=" ">
<path fill="none" stroke="#63b8ff" d="M858.77,-54.84C871.18,-46.89 889.49,-35.14 904.12,-25.75"/>
<polygon fill="#63b8ff" stroke="#63b8ff" points="905.74,-28.87 912.27,-20.52 901.96,-22.97 905.74,-28.87"/>
</a>
</g>
</g>
<!-- Node17&#45;&gt;Node5 -->
<g id="edge19_Node000017_Node000005" class="edge">
<title>Node17&#45;&gt;Node5</title>
<g id="a_edge19_Node000017_Node000005"><a xlink:title=" ">
<path fill="none" stroke="#63b8ff" d="M718.49,-110.12C734.94,-97.43 759.78,-73.8 745.69,-55.25 730.71,-35.52 663.75,-22.17 621.34,-15.52"/>
<polygon fill="#63b8ff" stroke="#63b8ff" points="622,-12.08 611.59,-14.05 620.96,-19.01 622,-12.08"/>
</a>
</g>
</g>
<!-- Node17&#45;&gt;Node13 -->
<g id="edge18_Node000017_Node000013" class="edge">
<title>Node17&#45;&gt;Node13</title>
<g id="a_edge18_Node000017_Node000013"><a xlink:title=" ">
<path fill="none" stroke="#63b8ff" d="M729.27,-110.09C751.54,-101.56 785.19,-88.67 810.42,-79.01"/>
<polygon fill="#63b8ff" stroke="#63b8ff" points="811.5,-82.34 819.59,-75.49 809,-75.8 811.5,-82.34"/>
</a>
</g>
</g>
<!-- Node18 -->
<g id="Node000018" class="node">
<title>Node18</title>
<g id="a_Node000018"><a xlink:title=" ">
<polygon fill="#e0e0e0" stroke="#999999" points="736.19,-74.5 675.19,-74.5 675.19,-55.25 736.19,-55.25 736.19,-74.5"/>
<text text-anchor="middle" x="705.69" y="-61" font-family="Helvetica,sans-Serif" font-size="10.00">type_traits</text>
</a>
</g>
</g>
<!-- Node17&#45;&gt;Node18 -->
<g id="edge20_Node000017_Node000018" class="edge">
<title>Node17&#45;&gt;Node18</title>
<g id="a_edge20_Node000017_Node000018"><a xlink:title=" ">
<path fill="none" stroke="#63b8ff" d="M705.69,-110.33C705.69,-103.82 705.69,-94.67 705.69,-86.37"/>
<polygon fill="#63b8ff" stroke="#63b8ff" points="709.19,-86.37 705.69,-76.37 702.19,-86.37 709.19,-86.37"/>
</a>
</g>
</g>
<!-- Node17&#45;&gt;Node19 -->
<g id="edge21_Node000017_Node000019" class="edge">
<title>Node17&#45;&gt;Node19</title>
<g id="a_edge21_Node000017_Node000019"><a xlink:title=" ">
<path fill="none" stroke="#63b8ff" d="M693.82,-110.09C683.6,-102.32 668.62,-90.92 656.43,-81.65"/>
<polygon fill="#63b8ff" stroke="#63b8ff" points="658.68,-78.96 648.6,-75.69 654.44,-84.53 658.68,-78.96"/>
</a>
</g>
</g>
<!-- Node21&#45;&gt;Node5 -->
<g id="edge27_Node000021_Node000005" class="edge">
<title>Node21&#45;&gt;Node5</title>
<g id="a_edge27_Node000021_Node000005"><a xlink:title=" ">
<path fill="none" stroke="#63b8ff" d="M133.3,-110.11C123.11,-96.54 107.54,-70.84 121.69,-55.25 150.35,-23.7 446.04,-13.86 549.88,-11.36"/>
<polygon fill="#63b8ff" stroke="#63b8ff" points="549.86,-14.86 559.77,-11.13 549.69,-7.86 549.86,-14.86"/>
</a>
</g>
</g>
<!-- Node21&#45;&gt;Node6 -->
<g id="edge28_Node000021_Node000006" class="edge">
<title>Node21&#45;&gt;Node6</title>
<g id="a_edge28_Node000021_Node000006"><a xlink:title=" ">
<path fill="none" stroke="#63b8ff" d="M125.6,-110.09C112.17,-102.06 92.28,-90.16 76.52,-80.73"/>
<polygon fill="#63b8ff" stroke="#63b8ff" points="78.54,-77.86 68.16,-75.73 74.95,-83.87 78.54,-77.86"/>
</a>
</g>
</g>
</g>
</svg>

<g id="navigator" transform="translate(0 0)" fill="#404254">
  <rect fill="#f2f5e9" fill-opacity="0.5" stroke="#606060" stroke-width=".5" x="0" y="0" width="60" height="60"/>
  <use id="zoomplus" xlink:href="#zoomPlus" x="17" y="9" onmousedown="handleZoom(evt,'in')"/>
  <use id="zoomminus" xlink:href="#zoomMin" x="42" y="9" onmousedown="handleZoom(evt,'out')"/>
  <use id="reset" xlink:href="#resetDef" x="30" y="36" onmousedown="handleReset()"/>
   <use id="arrowup" xlink:href="#arrowUp" x="0" y="0" onmousedown="handlePan(0,-1)"/>
  <use id="arrowright" xlink:href="#arrowRight" x="0" y="0" onmousedown="handlePan(1,0)"/>
  <use id="arrowdown" xlink:href="#arrowDown" x="0" y="0" onmousedown="handlePan(0,1)"/>
  <use id="arrowleft" xlink:href="#arrowLeft" x="0" y="0" onmousedown="handlePan(-1,0)"/>
</g>
<svg viewBox="0 0 15 15" width="100%" height="30px" preserveAspectRatio="xMaxYMin meet">
 <g id="arrow_out" transform="scale(0.3 0.3)">
  <a xlink:href="tcp__posix_8h__incl_org.svg" target="_base">
   <rect id="button" ry="5" rx="5" y="6" x="6" height="38" width="38"
        fill="#f2f5e9" fill-opacity="0.5" stroke="#606060" stroke-width="1.0"/>
   <path id="arrow"
     d="M 11.500037,31.436501 C 11.940474,20.09759 22.043105,11.32322 32.158766,21.979434 L 37.068811,17.246167 C 37.068811,17.246167 37.088388,32 37.088388,32 L 22.160133,31.978069 C 22.160133,31.978069 26.997745,27.140456 26.997745,27.140456 C 18.528582,18.264221 13.291696,25.230495 11.500037,31.436501 z"
     style="fill:#404040;"/>
  </a>
 </g>
</svg>

<style type='text/css'>
<![CDATA[
[data-mouse-over-selected='false'] { opacity: 0.7; }
[data-mouse-over-selected='true']  { opacity: 1.0; }
]]>
</style>
<script type="application/ecmascript"><![CDATA[
document.addEventListener('DOMContentLoaded', (event) => {
  highlightEdges();
  highlightAdjacentNodes();
});
]]></script>
</svg>
