<?xml version="1.0" encoding="UTF-8" standalone="no"?>
<!DOCTYPE svg PUBLIC "-//W3C//DTD SVG 1.1//EN"
 "http://www.w3.org/Graphics/SVG/1.1/DTD/svg11.dtd">
<!-- Generated by graphviz version 12.2.0 (20241103.1931)
 -->
<!-- Title: bcnp/transport/tcp_posix.cpp Pages: 1 -->
<!--zoomable 326 -->

<svg id="main" version="1.1" xmlns="http://www.w3.org/2000/svg" xmlns:xlink="http://www.w3.org/1999/xlink" xml:space="preserve" onload="init(evt)">

<style type="text/css"><![CDATA[
.node, .edge {opacity: 0.7;}
.node.selected, .edge.selected {opacity: 1;}
.edge:hover path { stroke: red; }
.edge:hover polygon { stroke: red; fill: red; }
]]></style>

<defs>
  <circle id="rim" cx="0" cy="0" r="7"/>
  <circle id="rim2" cx="0" cy="0" r="3.5"/>
  <g id="zoomPlus">
    <use xlink:href="#rim" fill="#404040"><set attributeName="fill" to="#808080" begin="zoomplus.mouseover" end="zoomplus.mouseout"/></use>
    <path d="M-4,0h8M0,-4v8" fill="none" stroke="white" stroke-width="1.5" pointer-events="none"/>
  </g>
  <g id="zoomMin">
    <use xlink:href="#rim" fill="#404040"><set attributeName="fill" to="#808080" begin="zoomminus.mouseover" end="zoomminus.mouseout"/></use>
    <path d="M-4,0h8" fill="none" stroke="white" stroke-width="1.5" pointer-events="none"/>
  </g>
  <g id="arrowUp" transform="translate(30 24)">
    <use xlink:href="#rim"/>
    <path pointer-events="none" fill="none" stroke="white" stroke-width="1.5" d="M0,-3.0v7 M-2.5,-0.5L0,-3.0L2.5,-0.5"/>
  </g>
  <g id="arrowRight" transform="rotate(90) translate(36 -43)">
    <use xlink:href="#rim"/>
    <path pointer-events="none" fill="none" stroke="white" stroke-width="1.5" d="M0,-3.0v7 M-2.5,-0.5L0,-3.0L2.5,-0.5"/>
  </g>
  <g id="arrowDown" transform="rotate(180) translate(-30 -48)">
    <use xlink:href="#rim"/>
    <path pointer-events="none" fill="none" stroke="white" stroke-width="1.5" d="M0,-3.0v7 M-2.5,-0.5L0,-3.0L2.5,-0.5"/>
  </g>
  <g id="arrowLeft" transform="rotate(270) translate(-36 17)">
    <use xlink:href="#rim"/>
    <path pointer-events="none" fill="none" stroke="white" stroke-width="1.5" d="M0,-3.0v7 M-2.5,-0.5L0,-3.0L2.5,-0.5"/>
  </g>
  <g id="resetDef">
    <use xlink:href="#rim2" fill="#404040"><set attributeName="fill" to="#808080" begin="reset.mouseover" end="reset.mouseout"/></use>
  </g>
</defs>
<script type="application/ecmascript">
var viewWidth = 1095;
var viewHeight = 326;
var sectionId = 'dynsection-0';
</script>
<script type="application/ecmascript" xlink:href="svg.min.js"/>
<svg id="graph" class="graph">
<g id="viewport">
<title>bcnp/transport/tcp_posix.cpp</title>
<!-- Node1 -->
<g id="Node000001" class="node">
<title>Node1</title>
<g id="a_Node000001"><a xlink:title="TCP transport adapter implementation for POSIX systems.">
<polygon fill="#999999" stroke="#666666" points="660.88,-318 566.12,-318 566.12,-287.5 660.88,-287.5 660.88,-318"/>
<text text-anchor="start" x="574.12" y="-304.5" font-family="Helvetica,sans-Serif" font-size="10.00">bcnp/transport/tcp</text>
<text text-anchor="middle" x="613.5" y="-293.25" font-family="Helvetica,sans-Serif" font-size="10.00">_posix.cpp</text>
</a>
</g>
</g>
<!-- Node2 -->
<g id="Node000002" class="node">
<title>Node2</title>
<g id="a_Node000002"><a xlink:href="tcp__posix_8h.html" target="_top" xlink:title=" ">
<polygon fill="white" stroke="#666666" points="345.88,-251.5 251.12,-251.5 251.12,-221 345.88,-221 345.88,-251.5"/>
<text text-anchor="start" x="259.12" y="-238" font-family="Helvetica,sans-Serif" font-size="10.00">bcnp/transport/tcp</text>
<text text-anchor="middle" x="298.5" y="-226.75" font-family="Helvetica,sans-Serif" font-size="10.00">_posix.h</text>
</a>
</g>
</g>
<!-- Node1&#45;&gt;Node2 -->
<g id="edge1_Node000001_Node000002" class="edge">
<title>Node1&#45;&gt;Node2</title>
<g id="a_edge1_Node000001_Node000002"><a xlink:title=" ">
<path fill="none" stroke="#63b8ff" d="M565.65,-292.79C514.51,-283.09 431.12,-266.95 359.5,-251.5 358.68,-251.32 357.86,-251.15 357.03,-250.96"/>
<polygon fill="#63b8ff" stroke="#63b8ff" points="358.08,-247.61 347.56,-248.86 356.56,-254.45 358.08,-247.61"/>
</a>
</g>
</g>
<!-- Node9 -->
<g id="Node000009" class="node">
<title>Node9</title>
<g id="a_Node000009"><a xlink:title=" ">
<polygon fill="#e0e0e0" stroke="#999999" points="466.12,-74.5 420.88,-74.5 420.88,-55.25 466.12,-55.25 466.12,-74.5"/>
<text text-anchor="middle" x="443.5" y="-61" font-family="Helvetica,sans-Serif" font-size="10.00">cstring</text>
</a>
</g>
</g>
<!-- Node1&#45;&gt;Node9 -->
<g id="edge38_Node000001_Node000009" class="edge">
<title>Node1&#45;&gt;Node9</title>
<g id="a_edge38_Node000001_Node000009"><a xlink:title=" ">
<path fill="none" stroke="#63b8ff" d="M565.93,-295.27C517.38,-287.56 446.88,-272.98 430.5,-251.5 392.68,-201.89 419.31,-121.51 434.68,-85"/>
<polygon fill="#63b8ff" stroke="#63b8ff" points="437.74,-86.73 438.57,-76.17 431.34,-83.91 437.74,-86.73"/>
</a>
</g>
</g>
<!-- Node23 -->
<g id="Node000023" class="node">
<title>Node23</title>
<g id="a_Node000023"><a xlink:title=" ">
<polygon fill="#e0e0e0" stroke="#999999" points="383.12,-185 337.88,-185 337.88,-165.75 383.12,-165.75 383.12,-185"/>
<text text-anchor="middle" x="360.5" y="-171.5" font-family="Helvetica,sans-Serif" font-size="10.00">chrono</text>
</a>
</g>
</g>
<!-- Node1&#45;&gt;Node23 -->
<g id="edge37_Node000001_Node000023" class="edge">
<title>Node1&#45;&gt;Node23</title>
<g id="a_edge37_Node000001_Node000023"><a xlink:title=" ">
<path fill="none" stroke="#63b8ff" d="M565.96,-302.03C518.52,-299.91 445.9,-289.92 397.5,-251.5 380.09,-237.68 370.28,-213.57 365.2,-196.39"/>
<polygon fill="#63b8ff" stroke="#63b8ff" points="368.61,-195.6 362.68,-186.82 361.84,-197.38 368.61,-195.6"/>
</a>
</g>
</g>
<!-- Node26 -->
<g id="Node000026" class="node">
<title>Node26</title>
<g id="a_Node000026"><a xlink:title=" ">
<polygon fill="#e0e0e0" stroke="#999999" points="495.38,-245.88 439.62,-245.88 439.62,-226.62 495.38,-226.62 495.38,-245.88"/>
<text text-anchor="middle" x="467.5" y="-232.38" font-family="Helvetica,sans-Serif" font-size="10.00">algorithm</text>
</a>
</g>
</g>
<!-- Node1&#45;&gt;Node26 -->
<g id="edge34_Node000001_Node000026" class="edge">
<title>Node1&#45;&gt;Node26</title>
<g id="a_edge34_Node000001_Node000026"><a xlink:title=" ">
<path fill="none" stroke="#63b8ff" d="M580.37,-287.11C555.71,-276.22 522.29,-261.46 498.23,-250.83"/>
<polygon fill="#63b8ff" stroke="#63b8ff" points="499.84,-247.71 489.28,-246.87 497.01,-254.11 499.84,-247.71"/>
</a>
</g>
</g>
<!-- Node27 -->
<g id="Node000027" class="node">
<title>Node27</title>
<g id="a_Node000027"><a xlink:title=" ">
<polygon fill="#e0e0e0" stroke="#999999" points="574,-245.88 513,-245.88 513,-226.62 574,-226.62 574,-245.88"/>
<text text-anchor="middle" x="543.5" y="-232.38" font-family="Helvetica,sans-Serif" font-size="10.00">arpa/inet.h</text>
</a>
</g>
</g>
<!-- Node1&#45;&gt;Node27 -->
<g id="edge35_Node000001_Node000027" class="edge">
<title>Node1&#45;&gt;Node27</title>
<g id="a_edge35_Node000001_Node000027"><a xlink:title=" ">
<path fill="none" stroke="#63b8ff" d="M597.62,-287.11C586.79,-277.14 572.46,-263.93 561.26,-253.61"/>
<polygon fill="#63b8ff" stroke="#63b8ff" points="563.91,-251.3 554.19,-247.1 559.17,-256.45 563.91,-251.3"/>
</a>
</g>
</g>
<!-- Node28 -->
<g id="Node000028" class="node">
<title>Node28</title>
<g id="a_Node000028"><a xlink:title=" ">
<polygon fill="#e0e0e0" stroke="#999999" points="635,-245.88 592,-245.88 592,-226.62 635,-226.62 635,-245.88"/>
<text text-anchor="middle" x="613.5" y="-232.38" font-family="Helvetica,sans-Serif" font-size="10.00">cerrno</text>
</a>
</g>
</g>
<!-- Node1&#45;&gt;Node28 -->
<g id="edge36_Node000001_Node000028" class="edge">
<title>Node1&#45;&gt;Node28</title>
<g id="a_edge36_Node000001_Node000028"><a xlink:title=" ">
<path fill="none" stroke="#63b8ff" d="M613.5,-287.11C613.5,-278.33 613.5,-267.02 613.5,-257.4"/>
<polygon fill="#63b8ff" stroke="#63b8ff" points="617,-257.59 613.5,-247.59 610,-257.59 617,-257.59"/>
</a>
</g>
</g>
<!-- Node29 -->
<g id="Node000029" class="node">
<title>Node29</title>
<g id="a_Node000029"><a xlink:title=" ">
<polygon fill="#e0e0e0" stroke="#999999" points="695.62,-245.88 653.38,-245.88 653.38,-226.62 695.62,-226.62 695.62,-245.88"/>
<text text-anchor="middle" x="674.5" y="-232.38" font-family="Helvetica,sans-Serif" font-size="10.00">fcntl.h</text>
</a>
</g>
</g>
<!-- Node1&#45;&gt;Node29 -->
<g id="edge39_Node000001_Node000029" class="edge">
<title>Node1&#45;&gt;Node29</title>
<g id="a_edge39_Node000001_Node000029"><a xlink:title=" ">
<path fill="none" stroke="#63b8ff" d="M627.34,-287.11C636.59,-277.34 648.77,-264.45 658.44,-254.23"/>
<polygon fill="#63b8ff" stroke="#63b8ff" points="660.79,-256.84 665.12,-247.17 655.7,-252.03 660.79,-256.84"/>
</a>
</g>
</g>
<!-- Node30 -->
<g id="Node000030" class="node">
<title>Node30</title>
<g id="a_Node000030"><a xlink:title=" ">
<polygon fill="#e0e0e0" stroke="#999999" points="767.25,-245.88 713.75,-245.88 713.75,-226.62 767.25,-226.62 767.25,-245.88"/>
<text text-anchor="middle" x="740.5" y="-232.38" font-family="Helvetica,sans-Serif" font-size="10.00">iostream</text>
</a>
</g>
</g>
<!-- Node1&#45;&gt;Node30 -->
<g id="edge40_Node000001_Node000030" class="edge">
<title>Node1&#45;&gt;Node30</title>
<g id="a_edge40_Node000001_Node000030"><a xlink:title=" ">
<path fill="none" stroke="#63b8ff" d="M642.32,-287.11C663.38,-276.42 691.79,-261.99 712.63,-251.4"/>
<polygon fill="#63b8ff" stroke="#63b8ff" points="714.08,-254.59 721.41,-246.95 710.91,-248.35 714.08,-254.59"/>
</a>
</g>
</g>
<!-- Node31 -->
<g id="Node000031" class="node">
<title>Node31</title>
<g id="a_Node000031"><a xlink:title=" ">
<polygon fill="#e0e0e0" stroke="#999999" points="854.12,-245.88 784.88,-245.88 784.88,-226.62 854.12,-226.62 854.12,-245.88"/>
<text text-anchor="middle" x="819.5" y="-232.38" font-family="Helvetica,sans-Serif" font-size="10.00">netinet/tcp.h</text>
</a>
</g>
</g>
<!-- Node1&#45;&gt;Node31 -->
<g id="edge41_Node000001_Node000031" class="edge">
<title>Node1&#45;&gt;Node31</title>
<g id="a_edge41_Node000001_Node000031"><a xlink:title=" ">
<path fill="none" stroke="#63b8ff" d="M661.37,-287.28C693.89,-277.38 737.86,-263.86 776.5,-251.5 778.22,-250.95 779.98,-250.38 781.75,-249.81"/>
<polygon fill="#63b8ff" stroke="#63b8ff" points="782.84,-253.14 791.25,-246.7 780.66,-246.48 782.84,-253.14"/>
</a>
</g>
</g>
<!-- Node32 -->
<g id="Node000032" class="node">
<title>Node32</title>
<g id="a_Node000032"><a xlink:title=" ">
<polygon fill="#e0e0e0" stroke="#999999" points="942.88,-245.88 872.12,-245.88 872.12,-226.62 942.88,-226.62 942.88,-245.88"/>
<text text-anchor="middle" x="907.5" y="-232.38" font-family="Helvetica,sans-Serif" font-size="10.00">sys/socket.h</text>
</a>
</g>
</g>
<!-- Node1&#45;&gt;Node32 -->
<g id="edge42_Node000001_Node000032" class="edge">
<title>Node1&#45;&gt;Node32</title>
<g id="a_edge42_Node000001_Node000032"><a xlink:title=" ">
<path fill="none" stroke="#63b8ff" d="M661.33,-293.82C711.93,-285.04 793.9,-269.7 863.5,-251.5 865.75,-250.91 868.04,-250.28 870.36,-249.61"/>
<polygon fill="#63b8ff" stroke="#63b8ff" points="871.12,-253.04 879.67,-246.78 869.09,-246.34 871.12,-253.04"/>
</a>
</g>
</g>
<!-- Node33 -->
<g id="Node000033" class="node">
<title>Node33</title>
<g id="a_Node000033"><a xlink:title=" ">
<polygon fill="#e0e0e0" stroke="#999999" points="1010.38,-245.88 960.62,-245.88 960.62,-226.62 1010.38,-226.62 1010.38,-245.88"/>
<text text-anchor="middle" x="985.5" y="-232.38" font-family="Helvetica,sans-Serif" font-size="10.00">unistd.h</text>
</a>
</g>
</g>
<!-- Node1&#45;&gt;Node33 -->
<g id="edge43_Node000001_Node000033" class="edge">
<title>Node1&#45;&gt;Node33</title>
<g id="a_edge43_Node000001_Node000033"><a xlink:title=" ">
<path fill="none" stroke="#63b8ff" d="M661.3,-298.41C727.5,-292.95 850.36,-279.73 951.5,-251.5 952.89,-251.11 954.29,-250.68 955.7,-250.22"/>
<polygon fill="#63b8ff" stroke="#63b8ff" points="956.81,-253.54 964.96,-246.77 954.37,-246.99 956.81,-253.54"/>
</a>
</g>
</g>
<!-- Node3 -->
<g id="Node000003" class="node">
<title>Node3</title>
<g id="a_Node000003"><a xlink:href="packet_8h.html" target="_top" xlink:title="BCNP packet structures, encoding, and decoding utilities.">
<polygon fill="white" stroke="#666666" points="726.88,-185 650.12,-185 650.12,-165.75 726.88,-165.75 726.88,-185"/>
<text text-anchor="middle" x="688.5" y="-171.5" font-family="Helvetica,sans-Serif" font-size="10.00">bcnp/packet.h</text>
</a>
</g>
</g>
<!-- Node2&#45;&gt;Node3 -->
<g id="edge2_Node000002_Node000003" class="edge">
<title>Node2&#45;&gt;Node3</title>
<g id="a_edge2_Node000002_Node000003"><a xlink:title=" ">
<path fill="none" stroke="#63b8ff" d="M346.32,-228.03C420.61,-216.82 563.05,-195.31 638.59,-183.91"/>
<polygon fill="#63b8ff" stroke="#63b8ff" points="638.82,-187.41 648.18,-182.46 637.77,-180.49 638.82,-187.41"/>
</a>
</g>
</g>
<!-- Node4 -->
<g id="Node000004" class="node">
<title>Node4</title>
<g id="a_Node000004"><a xlink:href="message__types_8h.html" target="_top" xlink:title=" ">
<polygon fill="white" stroke="#666666" points="344.38,-129.75 228.62,-129.75 228.62,-110.5 344.38,-110.5 344.38,-129.75"/>
<text text-anchor="middle" x="286.5" y="-116.25" font-family="Helvetica,sans-Serif" font-size="10.00">bcnp/message_types.h</text>
</a>
</g>
</g>
<!-- Node2&#45;&gt;Node4 -->
<g id="edge30_Node000002_Node000004" class="edge">
<title>Node2&#45;&gt;Node4</title>
<g id="a_edge30_Node000002_Node000004"><a xlink:title=" ">
<path fill="none" stroke="#63b8ff" d="M250.92,-234.29C214.2,-230.73 165.56,-219.27 140.5,-185 116.41,-152.06 168.56,-135.87 217.08,-128.07"/>
<polygon fill="#63b8ff" stroke="#63b8ff" points="217.44,-131.55 226.82,-126.62 216.41,-124.63 217.44,-131.55"/>
</a>
</g>
</g>
<!-- Node22 -->
<g id="Node000022" class="node">
<title>Node22</title>
<g id="a_Node000022"><a xlink:href="adapter_8h.html" target="_top" xlink:title=" ">
<polygon fill="white" stroke="#666666" points="599,-129.75 478,-129.75 478,-110.5 599,-110.5 599,-129.75"/>
<text text-anchor="middle" x="538.5" y="-116.25" font-family="Helvetica,sans-Serif" font-size="10.00">bcnp/transport/adapter.h</text>
</a>
</g>
</g>
<!-- Node2&#45;&gt;Node22 -->
<g id="edge27_Node000002_Node000022" class="edge">
<title>Node2&#45;&gt;Node22</title>
<g id="a_edge27_Node000002_Node000022"><a xlink:title=" ">
<path fill="none" stroke="#63b8ff" d="M300.76,-220.65C304.02,-204.69 311.62,-179.58 328.5,-165.75 349.45,-148.59 414.3,-136.53 466.45,-129.31"/>
<polygon fill="#63b8ff" stroke="#63b8ff" points="466.75,-132.8 476.2,-128 465.82,-125.86 466.75,-132.8"/>
</a>
</g>
</g>
<!-- Node2&#45;&gt;Node23 -->
<g id="edge31_Node000002_Node000023" class="edge">
<title>Node2&#45;&gt;Node23</title>
<g id="a_edge31_Node000002_Node000023"><a xlink:title=" ">
<path fill="none" stroke="#63b8ff" d="M313.83,-220.7C322.54,-212.42 333.5,-202.02 342.6,-193.37"/>
<polygon fill="#63b8ff" stroke="#63b8ff" points="345,-195.92 349.84,-186.49 340.18,-190.84 345,-195.92"/>
</a>
</g>
</g>
<!-- Node24 -->
<g id="Node000024" class="node">
<title>Node24</title>
<g id="a_Node000024"><a xlink:title=" ">
<polygon fill="#e0e0e0" stroke="#999999" points="199.75,-185 149.25,-185 149.25,-165.75 199.75,-165.75 199.75,-185"/>
<text text-anchor="middle" x="174.5" y="-171.5" font-family="Helvetica,sans-Serif" font-size="10.00">memory</text>
</a>
</g>
</g>
<!-- Node2&#45;&gt;Node24 -->
<g id="edge32_Node000002_Node000024" class="edge">
<title>Node2&#45;&gt;Node24</title>
<g id="a_edge32_Node000002_Node000024"><a xlink:title=" ">
<path fill="none" stroke="#63b8ff" d="M267.53,-220.55C248.01,-211.28 222.96,-199.38 203.77,-190.27"/>
<polygon fill="#63b8ff" stroke="#63b8ff" points="205.42,-187.18 194.88,-186.05 202.42,-193.5 205.42,-187.18"/>
</a>
</g>
</g>
<!-- Node25 -->
<g id="Node000025" class="node">
<title>Node25</title>
<g id="a_Node000025"><a xlink:title=" ">
<polygon fill="#e0e0e0" stroke="#999999" points="281.12,-185 217.88,-185 217.88,-165.75 281.12,-165.75 281.12,-185"/>
<text text-anchor="middle" x="249.5" y="-171.5" font-family="Helvetica,sans-Serif" font-size="10.00">netinet/in.h</text>
</a>
</g>
</g>
<!-- Node2&#45;&gt;Node25 -->
<g id="edge33_Node000002_Node000025" class="edge">
<title>Node2&#45;&gt;Node25</title>
<g id="a_edge33_Node000002_Node000025"><a xlink:title=" ">
<path fill="none" stroke="#63b8ff" d="M286.39,-220.7C279.72,-212.68 271.38,-202.67 264.32,-194.19"/>
<polygon fill="#63b8ff" stroke="#63b8ff" points="267.11,-192.06 258.02,-186.61 261.73,-196.54 267.11,-192.06"/>
</a>
</g>
</g>
<!-- Node3&#45;&gt;Node4 -->
<g id="edge3_Node000003_Node000004" class="edge">
<title>Node3&#45;&gt;Node4</title>
<g id="a_edge3_Node000003_Node000004"><a xlink:title=" ">
<path fill="none" stroke="#63b8ff" d="M649.95,-169.27C582.32,-160.31 441.37,-141.64 356.25,-130.36"/>
<polygon fill="#63b8ff" stroke="#63b8ff" points="356.75,-126.9 346.37,-129.06 355.83,-133.84 356.75,-126.9"/>
</a>
</g>
</g>
<!-- Node6 -->
<g id="Node000006" class="node">
<title>Node6</title>
<g id="a_Node000006"><a xlink:title=" ">
<polygon fill="#e0e0e0" stroke="#999999" points="739.62,-19.25 691.38,-19.25 691.38,0 739.62,0 739.62,-19.25"/>
<text text-anchor="middle" x="715.5" y="-5.75" font-family="Helvetica,sans-Serif" font-size="10.00">cstddef</text>
</a>
</g>
</g>
<!-- Node3&#45;&gt;Node6 -->
<g id="edge24_Node000003_Node000006" class="edge">
<title>Node3&#45;&gt;Node6</title>
<g id="a_edge24_Node000003_Node000006"><a xlink:title=" ">
<path fill="none" stroke="#63b8ff" d="M691.93,-165.28C695.15,-156.36 699.87,-142.31 702.5,-129.75 709.66,-95.56 713.02,-54.97 714.48,-31.09"/>
<polygon fill="#63b8ff" stroke="#63b8ff" points="717.97,-31.37 715.03,-21.2 710.98,-30.99 717.97,-31.37"/>
</a>
</g>
</g>
<!-- Node7 -->
<g id="Node000007" class="node">
<title>Node7</title>
<g id="a_Node000007"><a xlink:title=" ">
<polygon fill="#e0e0e0" stroke="#999999" points="529.12,-74.5 483.88,-74.5 483.88,-55.25 529.12,-55.25 529.12,-74.5"/>
<text text-anchor="middle" x="506.5" y="-61" font-family="Helvetica,sans-Serif" font-size="10.00">cstdint</text>
</a>
</g>
</g>
<!-- Node3&#45;&gt;Node7 -->
<g id="edge25_Node000003_Node000007" class="edge">
<title>Node3&#45;&gt;Node7</title>
<g id="a_edge25_Node000003_Node000007"><a xlink:title=" ">
<path fill="none" stroke="#63b8ff" d="M649.78,-172.2C593.1,-168.11 491.84,-157.1 469.5,-129.75 457.48,-115.04 471.79,-95.95 485.96,-82.48"/>
<polygon fill="#63b8ff" stroke="#63b8ff" points="488.22,-85.16 493.4,-75.91 483.59,-79.91 488.22,-85.16"/>
</a>
</g>
</g>
<!-- Node14 -->
<g id="Node000014" class="node">
<title>Node14</title>
<g id="a_Node000014"><a xlink:href="static__vector_8h.html" target="_top" xlink:title="Fixed&#45;capacity vector with stack allocation (no heap).">
<polygon fill="white" stroke="#666666" points="1026.38,-74.5 922.62,-74.5 922.62,-55.25 1026.38,-55.25 1026.38,-74.5"/>
<text text-anchor="middle" x="974.5" y="-61" font-family="Helvetica,sans-Serif" font-size="10.00">bcnp/static_vector.h</text>
</a>
</g>
</g>
<!-- Node3&#45;&gt;Node14 -->
<g id="edge13_Node000003_Node000014" class="edge">
<title>Node3&#45;&gt;Node14</title>
<g id="a_edge13_Node000003_Node000014"><a xlink:title=" ">
<path fill="none" stroke="#63b8ff" d="M727.29,-173.3C773.48,-170.56 851.75,-161.19 910.5,-129.75 931.19,-118.68 949.54,-98.75 961.23,-84.09"/>
<polygon fill="#63b8ff" stroke="#63b8ff" points="964,-86.23 967.29,-76.16 958.44,-81.98 964,-86.23"/>
</a>
</g>
</g>
<!-- Node18 -->
<g id="Node000018" class="node">
<title>Node18</title>
<g id="a_Node000018"><a xlink:href="packet__storage_8h.html" target="_top" xlink:title=" ">
<polygon fill="white" stroke="#666666" points="901.62,-129.75 787.38,-129.75 787.38,-110.5 901.62,-110.5 901.62,-129.75"/>
<text text-anchor="middle" x="844.5" y="-116.25" font-family="Helvetica,sans-Serif" font-size="10.00">bcnp/packet_storage.h</text>
</a>
</g>
</g>
<!-- Node3&#45;&gt;Node18 -->
<g id="edge18_Node000003_Node000018" class="edge">
<title>Node3&#45;&gt;Node18</title>
<g id="a_edge18_Node000003_Node000018"><a xlink:title=" ">
<path fill="none" stroke="#63b8ff" d="M714.96,-165.34C740.29,-156.7 778.73,-143.57 807.17,-133.87"/>
<polygon fill="#63b8ff" stroke="#63b8ff" points="808.14,-137.23 816.47,-130.69 805.88,-130.61 808.14,-137.23"/>
</a>
</g>
</g>
<!-- Node20 -->
<g id="Node000020" class="node">
<title>Node20</title>
<g id="a_Node000020"><a xlink:title=" ">
<polygon fill="#e0e0e0" stroke="#999999" points="787,-74.5 744,-74.5 744,-55.25 787,-55.25 787,-74.5"/>
<text text-anchor="middle" x="765.5" y="-61" font-family="Helvetica,sans-Serif" font-size="10.00">vector</text>
</a>
</g>
</g>
<!-- Node3&#45;&gt;Node20 -->
<g id="edge26_Node000003_Node000020" class="edge">
<title>Node3&#45;&gt;Node20</title>
<g id="a_edge26_Node000003_Node000020"><a xlink:title=" ">
<path fill="none" stroke="#63b8ff" d="M700.11,-165.46C710.41,-157.1 725.36,-143.8 735.5,-129.75 745.38,-116.06 753.32,-98.6 758.54,-85.39"/>
<polygon fill="#63b8ff" stroke="#63b8ff" points="761.79,-86.7 762.02,-76.11 755.23,-84.25 761.79,-86.7"/>
</a>
</g>
</g>
<!-- Node21 -->
<g id="Node000021" class="node">
<title>Node21</title>
<g id="a_Node000021"><a xlink:title=" ">
<polygon fill="#e0e0e0" stroke="#999999" points="693.88,-129.75 617.12,-129.75 617.12,-110.5 693.88,-110.5 693.88,-129.75"/>
<text text-anchor="middle" x="655.5" y="-116.25" font-family="Helvetica,sans-Serif" font-size="10.00">crab/prelude.h</text>
</a>
</g>
</g>
<!-- Node3&#45;&gt;Node21 -->
<g id="edge23_Node000003_Node000021" class="edge">
<title>Node3&#45;&gt;Node21</title>
<g id="a_edge23_Node000003_Node000021"><a xlink:title=" ">
<path fill="none" stroke="#63b8ff" d="M683.05,-165.58C678.73,-158.61 672.54,-148.62 667.12,-139.87"/>
<polygon fill="#63b8ff" stroke="#63b8ff" points="670.11,-138.05 661.86,-131.4 664.16,-141.74 670.11,-138.05"/>
</a>
</g>
</g>
<!-- Node5 -->
<g id="Node000005" class="node">
<title>Node5</title>
<g id="a_Node000005"><a xlink:title=" ">
<polygon fill="#e0e0e0" stroke="#999999" points="364,-74.5 327,-74.5 327,-55.25 364,-55.25 364,-74.5"/>
<text text-anchor="middle" x="345.5" y="-61" font-family="Helvetica,sans-Serif" font-size="10.00">array</text>
</a>
</g>
</g>
<!-- Node4&#45;&gt;Node5 -->
<g id="edge4_Node000004_Node000005" class="edge">
<title>Node4&#45;&gt;Node5</title>
<g id="a_edge4_Node000004_Node000005"><a xlink:title=" ">
<path fill="none" stroke="#63b8ff" d="M296.51,-110.09C304.87,-102.55 317,-91.6 327.1,-82.48"/>
<polygon fill="#63b8ff" stroke="#63b8ff" points="329.44,-85.09 334.52,-75.79 324.75,-79.89 329.44,-85.09"/>
</a>
</g>
</g>
<!-- Node4&#45;&gt;Node6 -->
<g id="edge5_Node000004_Node000006" class="edge">
<title>Node4&#45;&gt;Node6</title>
<g id="a_edge5_Node000004_Node000006"><a xlink:title=" ">
<path fill="none" stroke="#63b8ff" d="M304.17,-110.05C338.3,-92.53 410.09,-55.7 411.5,-55.25 505.43,-25.26 622.22,-15.31 679.87,-12.1"/>
<polygon fill="#63b8ff" stroke="#63b8ff" points="679.93,-15.6 689.74,-11.59 679.57,-8.61 679.93,-15.6"/>
</a>
</g>
</g>
<!-- Node4&#45;&gt;Node7 -->
<g id="edge6_Node000004_Node000007" class="edge">
<title>Node4&#45;&gt;Node7</title>
<g id="a_edge6_Node000004_Node000007"><a xlink:title=" ">
<path fill="none" stroke="#63b8ff" d="M327.17,-110.01C363.12,-101.85 417.26,-89.29 472.46,-75.22"/>
<polygon fill="#63b8ff" stroke="#63b8ff" points="473.22,-78.63 482.04,-72.76 471.48,-71.85 473.22,-78.63"/>
</a>
</g>
</g>
<!-- Node8 -->
<g id="Node000008" class="node">
<title>Node8</title>
<g id="a_Node000008"><a xlink:title=" ">
<polygon fill="#e0e0e0" stroke="#999999" points="43,-74.5 0,-74.5 0,-55.25 43,-55.25 43,-74.5"/>
<text text-anchor="middle" x="21.5" y="-61" font-family="Helvetica,sans-Serif" font-size="10.00">cmath</text>
</a>
</g>
</g>
<!-- Node4&#45;&gt;Node8 -->
<g id="edge7_Node000004_Node000008" class="edge">
<title>Node4&#45;&gt;Node8</title>
<g id="a_edge7_Node000004_Node000008"><a xlink:title=" ">
<path fill="none" stroke="#63b8ff" d="M231.86,-110.03C186.77,-102.22 120.91,-90.14 54.54,-74.82"/>
<polygon fill="#63b8ff" stroke="#63b8ff" points="55.47,-71.44 44.93,-72.57 53.87,-78.25 55.47,-71.44"/>
</a>
</g>
</g>
<!-- Node4&#45;&gt;Node9 -->
<g id="edge8_Node000004_Node000009" class="edge">
<title>Node4&#45;&gt;Node9</title>
<g id="a_edge8_Node000004_Node000009"><a xlink:title=" ">
<path fill="none" stroke="#63b8ff" d="M313.13,-110.09C339.86,-101.03 381.09,-87.04 410.02,-77.23"/>
<polygon fill="#63b8ff" stroke="#63b8ff" points="411.04,-80.58 419.39,-74.05 408.79,-73.95 411.04,-80.58"/>
</a>
</g>
</g>
<!-- Node10 -->
<g id="Node000010" class="node">
<title>Node10</title>
<g id="a_Node000010"><a xlink:title=" ">
<polygon fill="#e0e0e0" stroke="#999999" points="119.5,-74.5 61.5,-74.5 61.5,-55.25 119.5,-55.25 119.5,-74.5"/>
<text text-anchor="middle" x="90.5" y="-61" font-family="Helvetica,sans-Serif" font-size="10.00">functional</text>
</a>
</g>
</g>
<!-- Node4&#45;&gt;Node10 -->
<g id="edge9_Node000004_Node000010" class="edge">
<title>Node4&#45;&gt;Node10</title>
<g id="a_edge9_Node000004_Node000010"><a xlink:title=" ">
<path fill="none" stroke="#63b8ff" d="M253.25,-110.09C219.3,-100.87 166.59,-86.55 130.4,-76.72"/>
<polygon fill="#63b8ff" stroke="#63b8ff" points="131.77,-73.46 121.21,-74.22 129.94,-80.22 131.77,-73.46"/>
</a>
</g>
</g>
<!-- Node11 -->
<g id="Node000011" class="node">
<title>Node11</title>
<g id="a_Node000011"><a xlink:title=" ">
<polygon fill="#e0e0e0" stroke="#999999" points="177.12,-74.5 137.88,-74.5 137.88,-55.25 177.12,-55.25 177.12,-74.5"/>
<text text-anchor="middle" x="157.5" y="-61" font-family="Helvetica,sans-Serif" font-size="10.00">limits</text>
</a>
</g>
</g>
<!-- Node4&#45;&gt;Node11 -->
<g id="edge10_Node000004_Node000011" class="edge">
<title>Node4&#45;&gt;Node11</title>
<g id="a_edge10_Node000004_Node000011"><a xlink:title=" ">
<path fill="none" stroke="#63b8ff" d="M264.62,-110.09C243.52,-101.38 211.41,-88.13 187.84,-78.4"/>
<polygon fill="#63b8ff" stroke="#63b8ff" points="189.35,-75.23 178.77,-74.65 186.68,-81.71 189.35,-75.23"/>
</a>
</g>
</g>
<!-- Node12 -->
<g id="Node000012" class="node">
<title>Node12</title>
<g id="a_Node000012"><a xlink:title=" ">
<polygon fill="#e0e0e0" stroke="#999999" points="245.38,-74.5 195.62,-74.5 195.62,-55.25 245.38,-55.25 245.38,-74.5"/>
<text text-anchor="middle" x="220.5" y="-61" font-family="Helvetica,sans-Serif" font-size="10.00">optional</text>
</a>
</g>
</g>
<!-- Node4&#45;&gt;Node12 -->
<g id="edge11_Node000004_Node000012" class="edge">
<title>Node4&#45;&gt;Node12</title>
<g id="a_edge11_Node000004_Node000012"><a xlink:title=" ">
<path fill="none" stroke="#63b8ff" d="M275.3,-110.09C265.76,-102.4 251.83,-91.15 240.39,-81.93"/>
<polygon fill="#63b8ff" stroke="#63b8ff" points="242.69,-79.28 232.71,-75.73 238.29,-84.73 242.69,-79.28"/>
</a>
</g>
</g>
<!-- Node13 -->
<g id="Node000013" class="node">
<title>Node13</title>
<g id="a_Node000013"><a xlink:title=" ">
<polygon fill="#e0e0e0" stroke="#999999" points="309.12,-74.5 263.88,-74.5 263.88,-55.25 309.12,-55.25 309.12,-74.5"/>
<text text-anchor="middle" x="286.5" y="-61" font-family="Helvetica,sans-Serif" font-size="10.00">variant</text>
</a>
</g>
</g>
<!-- Node4&#45;&gt;Node13 -->
<g id="edge12_Node000004_Node000013" class="edge">
<title>Node4&#45;&gt;Node13</title>
<g id="a_edge12_Node000004_Node000013"><a xlink:title=" ">
<path fill="none" stroke="#63b8ff" d="M286.5,-110.33C286.5,-103.82 286.5,-94.67 286.5,-86.37"/>
<polygon fill="#63b8ff" stroke="#63b8ff" points="290,-86.37 286.5,-76.37 283,-86.37 290,-86.37"/>
</a>
</g>
</g>
<!-- Node14&#45;&gt;Node6 -->
<g id="edge15_Node000014_Node000006" class="edge">
<title>Node14&#45;&gt;Node6</title>
<g id="a_edge15_Node000014_Node000006"><a xlink:title=" ">
<path fill="none" stroke="#63b8ff" d="M930.27,-54.78C879.66,-44.38 797.76,-27.54 751.09,-17.94"/>
<polygon fill="#63b8ff" stroke="#63b8ff" points="752,-14.56 741.5,-15.97 750.59,-21.41 752,-14.56"/>
</a>
</g>
</g>
<!-- Node15 -->
<g id="Node000015" class="node">
<title>Node15</title>
<g id="a_Node000015"><a xlink:title=" ">
<polygon fill="#e0e0e0" stroke="#999999" points="920.25,-19.25 818.75,-19.25 818.75,0 920.25,0 920.25,-19.25"/>
<text text-anchor="middle" x="869.5" y="-5.75" font-family="Helvetica,sans-Serif" font-size="10.00">crab/static_vector.h</text>
</a>
</g>
</g>
<!-- Node14&#45;&gt;Node15 -->
<g id="edge14_Node000014_Node000015" class="edge">
<title>Node14&#45;&gt;Node15</title>
<g id="a_edge14_Node000014_Node000015"><a xlink:title=" ">
<path fill="none" stroke="#63b8ff" d="M956.69,-54.84C940.47,-46.62 916.26,-34.34 897.47,-24.81"/>
<polygon fill="#63b8ff" stroke="#63b8ff" points="899.25,-21.79 888.75,-20.39 896.08,-28.03 899.25,-21.79"/>
</a>
</g>
</g>
<!-- Node16 -->
<g id="Node000016" class="node">
<title>Node16</title>
<g id="a_Node000016"><a xlink:title=" ">
<polygon fill="#e0e0e0" stroke="#999999" points="1010.25,-19.25 938.75,-19.25 938.75,0 1010.25,0 1010.25,-19.25"/>
<text text-anchor="middle" x="974.5" y="-5.75" font-family="Helvetica,sans-Serif" font-size="10.00">initializer_list</text>
</a>
</g>
</g>
<!-- Node14&#45;&gt;Node16 -->
<g id="edge16_Node000014_Node000016" class="edge">
<title>Node14&#45;&gt;Node16</title>
<g id="a_edge16_Node000014_Node000016"><a xlink:title=" ">
<path fill="none" stroke="#63b8ff" d="M974.5,-55.08C974.5,-48.57 974.5,-39.42 974.5,-31.12"/>
<polygon fill="#63b8ff" stroke="#63b8ff" points="978,-31.12 974.5,-21.12 971,-31.12 978,-31.12"/>
</a>
</g>
</g>
<!-- Node17 -->
<g id="Node000017" class="node">
<title>Node17</title>
<g id="a_Node000017"><a xlink:title=" ">
<polygon fill="#e0e0e0" stroke="#999999" points="1086.5,-19.25 1028.5,-19.25 1028.5,0 1086.5,0 1086.5,-19.25"/>
<text text-anchor="middle" x="1057.5" y="-5.75" font-family="Helvetica,sans-Serif" font-size="10.00">stdexcept</text>
</a>
</g>
</g>
<!-- Node14&#45;&gt;Node17 -->
<g id="edge17_Node000014_Node000017" class="edge">
<title>Node14&#45;&gt;Node17</title>
<g id="a_edge17_Node000014_Node000017"><a xlink:title=" ">
<path fill="none" stroke="#63b8ff" d="M988.58,-54.84C1000.98,-46.89 1019.29,-35.14 1033.93,-25.75"/>
<polygon fill="#63b8ff" stroke="#63b8ff" points="1035.55,-28.87 1042.08,-20.52 1031.77,-22.97 1035.55,-28.87"/>
</a>
</g>
</g>
<!-- Node18&#45;&gt;Node6 -->
<g id="edge20_Node000018_Node000006" class="edge">
<title>Node18&#45;&gt;Node6</title>
<g id="a_edge20_Node000018_Node000006"><a xlink:title=" ">
<path fill="none" stroke="#63b8ff" d="M839.57,-110.35C831.78,-97.1 815.56,-71.8 796.5,-55.25 782.02,-42.68 763.42,-32.12 747.7,-24.44"/>
<polygon fill="#63b8ff" stroke="#63b8ff" points="749.27,-21.31 738.73,-20.23 746.29,-27.65 749.27,-21.31"/>
</a>
</g>
</g>
<!-- Node18&#45;&gt;Node14 -->
<g id="edge19_Node000018_Node000014" class="edge">
<title>Node18&#45;&gt;Node14</title>
<g id="a_edge19_Node000018_Node000014"><a xlink:title=" ">
<path fill="none" stroke="#63b8ff" d="M866.55,-110.09C887.19,-101.64 918.28,-88.9 941.8,-79.27"/>
<polygon fill="#63b8ff" stroke="#63b8ff" points="943.01,-82.56 950.94,-75.53 940.36,-76.08 943.01,-82.56"/>
</a>
</g>
</g>
<!-- Node19 -->
<g id="Node000019" class="node">
<title>Node19</title>
<g id="a_Node000019"><a xlink:title=" ">
<polygon fill="#e0e0e0" stroke="#999999" points="905,-74.5 844,-74.5 844,-55.25 905,-55.25 905,-74.5"/>
<text text-anchor="middle" x="874.5" y="-61" font-family="Helvetica,sans-Serif" font-size="10.00">type_traits</text>
</a>
</g>
</g>
<!-- Node18&#45;&gt;Node19 -->
<g id="edge21_Node000018_Node000019" class="edge">
<title>Node18&#45;&gt;Node19</title>
<g id="a_edge21_Node000018_Node000019"><a xlink:title=" ">
<path fill="none" stroke="#63b8ff" d="M849.45,-110.33C853.38,-103.36 859.01,-93.37 863.94,-84.62"/>
<polygon fill="#63b8ff" stroke="#63b8ff" points="866.84,-86.61 868.7,-76.18 860.74,-83.17 866.84,-86.61"/>
</a>
</g>
</g>
<!-- Node18&#45;&gt;Node20 -->
<g id="edge22_Node000018_Node000020" class="edge">
<title>Node18&#45;&gt;Node20</title>
<g id="a_edge22_Node000018_Node000020"><a xlink:title=" ">
<path fill="none" stroke="#63b8ff" d="M831.1,-110.09C819.41,-102.21 802.2,-90.61 788.34,-81.27"/>
<polygon fill="#63b8ff" stroke="#63b8ff" points="790.47,-78.49 780.22,-75.8 786.56,-84.29 790.47,-78.49"/>
</a>
</g>
</g>
<!-- Node22&#45;&gt;Node6 -->
<g id="edge28_Node000022_Node000006" class="edge">
<title>Node22&#45;&gt;Node6</title>
<g id="a_edge28_Node000022_Node000006"><a xlink:title=" ">
<path fill="none" stroke="#63b8ff" d="M553.29,-110.06C583.82,-91.35 654.08,-48.28 691.31,-25.45"/>
<polygon fill="#63b8ff" stroke="#63b8ff" points="692.89,-28.59 699.59,-20.38 689.23,-22.62 692.89,-28.59"/>
</a>
</g>
</g>
<!-- Node22&#45;&gt;Node7 -->
<g id="edge29_Node000022_Node000007" class="edge">
<title>Node22&#45;&gt;Node7</title>
<g id="a_edge29_Node000022_Node000007"><a xlink:title=" ">
<path fill="none" stroke="#63b8ff" d="M533.22,-110.33C529.03,-103.36 523.02,-93.37 517.77,-84.62"/>
<polygon fill="#63b8ff" stroke="#63b8ff" points="520.83,-82.93 512.68,-76.16 514.83,-86.53 520.83,-82.93"/>
</a>
</g>
</g>
</g>
</svg>

<g id="navigator" transform="translate(0 0)" fill="#404254">
  <rect fill="#f2f5e9" fill-opacity="0.5" stroke="#606060" stroke-width=".5" x="0" y="0" width="60" height="60"/>
  <use id="zoomplus" xlink:href="#zoomPlus" x="17" y="9" onmousedown="handleZoom(evt,'in')"/>
  <use id="zoomminus" xlink:href="#zoomMin" x="42" y="9" onmousedown="handleZoom(evt,'out')"/>
  <use id="reset" xlink:href="#resetDef" x="30" y="36" onmousedown="handleReset()"/>
   <use id="arrowup" xlink:href="#arrowUp" x="0" y="0" onmousedown="handlePan(0,-1)"/>
  <use id="arrowright" xlink:href="#arrowRight" x="0" y="0" onmousedown="handlePan(1,0)"/>
  <use id="arrowdown" xlink:href="#arrowDown" x="0" y="0" onmousedown="handlePan(0,1)"/>
  <use id="arrowleft" xlink:href="#arrowLeft" x="0" y="0" onmousedown="handlePan(-1,0)"/>
</g>
<svg viewBox="0 0 15 15" width="100%" height="30px" preserveAspectRatio="xMaxYMin meet">
 <g id="arrow_out" transform="scale(0.3 0.3)">
  <a xlink:href="tcp__posix_8cpp__incl_org.svg" target="_base">
   <rect id="button" ry="5" rx="5" y="6" x="6" height="38" width="38"
        fill="#f2f5e9" fill-opacity="0.5" stroke="#606060" stroke-width="1.0"/>
   <path id="arrow"
     d="M 11.500037,31.436501 C 11.940474,20.09759 22.043105,11.32322 32.158766,21.979434 L 37.068811,17.246167 C 37.068811,17.246167 37.088388,32 37.088388,32 L 22.160133,31.978069 C 22.160133,31.978069 26.997745,27.140456 26.997745,27.140456 C 18.528582,18.264221 13.291696,25.230495 11.500037,31.436501 z"
     style="fill:#404040;"/>
  </a>
 </g>
</svg>

<style type='text/css'>
<![CDATA[
[data-mouse-over-selected='false'] { opacity: 0.7; }
[data-mouse-over-selected='true']  { opacity: 1.0; }
]]>
</style>
<script type="application/ecmascript"><![CDATA[
document.addEventListener('DOMContentLoaded', (event) => {
  highlightEdges();
  highlightAdjacentNodes();
});
]]></script>
</svg>
