<?xml version="1.0" encoding="UTF-8" standalone="no"?>
<!DOCTYPE svg PUBLIC "-//W3C//DTD SVG 1.1//EN"
 "http://www.w3.org/Graphics/SVG/1.1/DTD/svg11.dtd">
<!-- Generated by graphviz version 12.2.0 (20241103.1931)
 -->
<!-- Title: bcnp/transport/tcp_posix.h Pages: 1 -->
<svg width="986pt" height="260pt"
 viewBox="0.00 0.00 985.50 259.50" xmlns="http://www.w3.org/2000/svg" xmlns:xlink="http://www.w3.org/1999/xlink">
<g id="graph0" class="graph" transform="scale(1 1) rotate(0) translate(4 255.5)">
<title>bcnp/transport/tcp_posix.h</title>
<!-- Node1 -->
<g id="Node000001" class="node">
<title>Node1</title>
<g id="a_Node000001"><a xlink:title=" ">
<polygon fill="#999999" stroke="#666666" points="747.38,-251.5 652.62,-251.5 652.62,-221 747.38,-221 747.38,-251.5"/>
<text text-anchor="start" x="660.62" y="-238" font-family="Helvetica,sans-Serif" font-size="10.00">bcnp/transport/tcp</text>
<text text-anchor="middle" x="700" y="-226.75" font-family="Helvetica,sans-Serif" font-size="10.00">_posix.h</text>
</a>
</g>
</g>
<!-- Node2 -->
<g id="Node000002" class="node">
<title>Node2</title>
<g id="a_Node000002"><a xlink:href="packet_8h.html" target="_top" xlink:title="BCNP packet structures, encoding, and decoding utilities.">
<polygon fill="white" stroke="#666666" points="450.38,-185 373.62,-185 373.62,-165.75 450.38,-165.75 450.38,-185"/>
<text text-anchor="middle" x="412" y="-171.5" font-family="Helvetica,sans-Serif" font-size="10.00">bcnp/packet.h</text>
</a>
</g>
</g>
<!-- Node1&#45;&gt;Node2 -->
<g id="edge1_Node000001_Node000002" class="edge">
<title>Node1&#45;&gt;Node2</title>
<g id="a_edge1_Node000001_Node000002"><a xlink:title=" ">
<path fill="none" stroke="#63b8ff" d="M652.44,-225.53C599.9,-214.79 515.66,-197.56 462.11,-186.62"/>
<polygon fill="#63b8ff" stroke="#63b8ff" points="462.83,-183.19 452.33,-184.62 461.42,-190.05 462.83,-183.19"/>
</a>
</g>
</g>
<!-- Node3 -->
<g id="Node000003" class="node">
<title>Node3</title>
<g id="a_Node000003"><a xlink:href="message__types_8h.html" target="_top" xlink:title=" ">
<polygon fill="white" stroke="#666666" points="694.88,-129.75 579.12,-129.75 579.12,-110.5 694.88,-110.5 694.88,-129.75"/>
<text text-anchor="middle" x="637" y="-116.25" font-family="Helvetica,sans-Serif" font-size="10.00">bcnp/message_types.h</text>
</a>
</g>
</g>
<!-- Node1&#45;&gt;Node3 -->
<g id="edge31_Node000001_Node000003" class="edge">
<title>Node1&#45;&gt;Node3</title>
<g id="a_edge31_Node000001_Node000003"><a xlink:title=" ">
<path fill="none" stroke="#63b8ff" d="M686.79,-220.69C678.57,-211.08 668.22,-197.92 661,-185 653.2,-171.05 646.96,-154.07 642.8,-141.12"/>
<polygon fill="#63b8ff" stroke="#63b8ff" points="646.17,-140.17 639.9,-131.62 639.47,-142.21 646.17,-140.17"/>
</a>
</g>
</g>
<!-- Node21 -->
<g id="Node000021" class="node">
<title>Node21</title>
<g id="a_Node000021"><a xlink:href="adapter_8h.html" target="_top" xlink:title=" ">
<polygon fill="white" stroke="#666666" points="977.5,-129.75 856.5,-129.75 856.5,-110.5 977.5,-110.5 977.5,-129.75"/>
<text text-anchor="middle" x="917" y="-116.25" font-family="Helvetica,sans-Serif" font-size="10.00">bcnp/transport/adapter.h</text>
</a>
</g>
</g>
<!-- Node1&#45;&gt;Node21 -->
<g id="edge28_Node000001_Node000021" class="edge">
<title>Node1&#45;&gt;Node21</title>
<g id="a_edge28_Node000001_Node000021"><a xlink:title=" ">
<path fill="none" stroke="#63b8ff" d="M693.35,-220.73C687.41,-205.31 681.41,-181.11 694,-165.75 712.92,-142.67 787.26,-131.29 844.96,-125.83"/>
<polygon fill="#63b8ff" stroke="#63b8ff" points="845.11,-129.34 854.75,-124.96 844.48,-122.36 845.11,-129.34"/>
</a>
</g>
</g>
<!-- Node22 -->
<g id="Node000022" class="node">
<title>Node22</title>
<g id="a_Node000022"><a xlink:title=" ">
<polygon fill="#e0e0e0" stroke="#999999" points="748.62,-185 703.38,-185 703.38,-165.75 748.62,-165.75 748.62,-185"/>
<text text-anchor="middle" x="726" y="-171.5" font-family="Helvetica,sans-Serif" font-size="10.00">chrono</text>
</a>
</g>
</g>
<!-- Node1&#45;&gt;Node22 -->
<g id="edge32_Node000001_Node000022" class="edge">
<title>Node1&#45;&gt;Node22</title>
<g id="a_edge32_Node000001_Node000022"><a xlink:title=" ">
<path fill="none" stroke="#63b8ff" d="M706.43,-220.7C709.74,-213.2 713.82,-203.95 717.4,-195.85"/>
<polygon fill="#63b8ff" stroke="#63b8ff" points="720.54,-197.4 721.38,-186.84 714.14,-194.57 720.54,-197.4"/>
</a>
</g>
</g>
<!-- Node23 -->
<g id="Node000023" class="node">
<title>Node23</title>
<g id="a_Node000023"><a xlink:title=" ">
<polygon fill="#e0e0e0" stroke="#999999" points="817.25,-185 766.75,-185 766.75,-165.75 817.25,-165.75 817.25,-185"/>
<text text-anchor="middle" x="792" y="-171.5" font-family="Helvetica,sans-Serif" font-size="10.00">memory</text>
</a>
</g>
</g>
<!-- Node1&#45;&gt;Node23 -->
<g id="edge33_Node000001_Node000023" class="edge">
<title>Node1&#45;&gt;Node23</title>
<g id="a_edge33_Node000001_Node000023"><a xlink:title=" ">
<path fill="none" stroke="#63b8ff" d="M722.74,-220.7C736.61,-211.82 754.32,-200.49 768.35,-191.51"/>
<polygon fill="#63b8ff" stroke="#63b8ff" points="770.01,-194.61 776.54,-186.27 766.23,-188.71 770.01,-194.61"/>
</a>
</g>
</g>
<!-- Node24 -->
<g id="Node000024" class="node">
<title>Node24</title>
<g id="a_Node000024"><a xlink:title=" ">
<polygon fill="#e0e0e0" stroke="#999999" points="898.62,-185 835.38,-185 835.38,-165.75 898.62,-165.75 898.62,-185"/>
<text text-anchor="middle" x="867" y="-171.5" font-family="Helvetica,sans-Serif" font-size="10.00">netinet/in.h</text>
</a>
</g>
</g>
<!-- Node1&#45;&gt;Node24 -->
<g id="edge34_Node000001_Node000024" class="edge">
<title>Node1&#45;&gt;Node24</title>
<g id="a_edge34_Node000001_Node000024"><a xlink:title=" ">
<path fill="none" stroke="#63b8ff" d="M741.71,-220.55C769.1,-210.89 804.57,-198.38 830.78,-189.15"/>
<polygon fill="#63b8ff" stroke="#63b8ff" points="831.69,-192.53 839.96,-185.91 829.37,-185.93 831.69,-192.53"/>
</a>
</g>
</g>
<!-- Node2&#45;&gt;Node3 -->
<g id="edge2_Node000002_Node000003" class="edge">
<title>Node2&#45;&gt;Node3</title>
<g id="a_edge2_Node000002_Node000003"><a xlink:title=" ">
<path fill="none" stroke="#63b8ff" d="M450.42,-165.28C488.28,-156.32 546.29,-142.59 587.57,-132.82"/>
<polygon fill="#63b8ff" stroke="#63b8ff" points="588.34,-136.24 597.26,-130.53 586.73,-129.43 588.34,-136.24"/>
</a>
</g>
</g>
<!-- Node5 -->
<g id="Node000005" class="node">
<title>Node5</title>
<g id="a_Node000005"><a xlink:title=" ">
<polygon fill="#e0e0e0" stroke="#999999" points="408.12,-19.25 359.88,-19.25 359.88,0 408.12,0 408.12,-19.25"/>
<text text-anchor="middle" x="384" y="-5.75" font-family="Helvetica,sans-Serif" font-size="10.00">cstddef</text>
</a>
</g>
</g>
<!-- Node2&#45;&gt;Node5 -->
<g id="edge24_Node000002_Node000005" class="edge">
<title>Node2&#45;&gt;Node5</title>
<g id="a_edge24_Node000002_Node000005"><a xlink:title=" ">
<path fill="none" stroke="#63b8ff" d="M410.49,-165.57C406.15,-140.14 393.49,-66.1 387.38,-30.37"/>
<polygon fill="#63b8ff" stroke="#63b8ff" points="390.9,-30.23 385.77,-20.96 384,-31.41 390.9,-30.23"/>
</a>
</g>
</g>
<!-- Node6 -->
<g id="Node000006" class="node">
<title>Node6</title>
<g id="a_Node000006"><a xlink:title=" ">
<polygon fill="#e0e0e0" stroke="#999999" points="939.62,-74.5 894.38,-74.5 894.38,-55.25 939.62,-55.25 939.62,-74.5"/>
<text text-anchor="middle" x="917" y="-61" font-family="Helvetica,sans-Serif" font-size="10.00">cstdint</text>
</a>
</g>
</g>
<!-- Node2&#45;&gt;Node6 -->
<g id="edge25_Node000002_Node000006" class="edge">
<title>Node2&#45;&gt;Node6</title>
<g id="a_edge25_Node000002_Node000006"><a xlink:title=" ">
<path fill="none" stroke="#63b8ff" d="M450.58,-170.22C506.77,-163.78 614.2,-149.97 704,-129.75 768.21,-115.29 841.35,-91.76 883.06,-77.66"/>
<polygon fill="#63b8ff" stroke="#63b8ff" points="884.19,-80.97 892.53,-74.43 881.93,-74.35 884.19,-80.97"/>
</a>
</g>
</g>
<!-- Node11 -->
<g id="Node000011" class="node">
<title>Node11</title>
<g id="a_Node000011"><a xlink:title=" ">
<polygon fill="#e0e0e0" stroke="#999999" points="461.88,-74.5 412.12,-74.5 412.12,-55.25 461.88,-55.25 461.88,-74.5"/>
<text text-anchor="middle" x="437" y="-61" font-family="Helvetica,sans-Serif" font-size="10.00">optional</text>
</a>
</g>
</g>
<!-- Node2&#45;&gt;Node11 -->
<g id="edge26_Node000002_Node000011" class="edge">
<title>Node2&#45;&gt;Node11</title>
<g id="a_edge26_Node000002_Node000011"><a xlink:title=" ">
<path fill="none" stroke="#63b8ff" d="M414.05,-165.5C418.02,-148.25 426.87,-109.83 432.35,-86.06"/>
<polygon fill="#63b8ff" stroke="#63b8ff" points="435.75,-86.88 434.59,-76.35 428.93,-85.31 435.75,-86.88"/>
</a>
</g>
</g>
<!-- Node13 -->
<g id="Node000013" class="node">
<title>Node13</title>
<g id="a_Node000013"><a xlink:href="static__vector_8h.html" target="_top" xlink:title="Fixed&#45;capacity vector with stack allocation (no heap).">
<polygon fill="white" stroke="#666666" points="218.88,-74.5 115.12,-74.5 115.12,-55.25 218.88,-55.25 218.88,-74.5"/>
<text text-anchor="middle" x="167" y="-61" font-family="Helvetica,sans-Serif" font-size="10.00">bcnp/static_vector.h</text>
</a>
</g>
</g>
<!-- Node2&#45;&gt;Node13 -->
<g id="edge12_Node000002_Node000013" class="edge">
<title>Node2&#45;&gt;Node13</title>
<g id="a_edge12_Node000002_Node000013"><a xlink:title=" ">
<path fill="none" stroke="#63b8ff" d="M373.26,-171.22C334.54,-166.67 274.41,-155.74 229,-129.75 208.95,-118.28 191.17,-98.42 179.85,-83.88"/>
<polygon fill="#63b8ff" stroke="#63b8ff" points="182.79,-81.97 174,-76.05 177.18,-86.16 182.79,-81.97"/>
</a>
</g>
</g>
<!-- Node19 -->
<g id="Node000019" class="node">
<title>Node19</title>
<g id="a_Node000019"><a xlink:href="packet__storage_8h.html" target="_top" xlink:title=" ">
<polygon fill="white" stroke="#666666" points="361.12,-129.75 246.88,-129.75 246.88,-110.5 361.12,-110.5 361.12,-129.75"/>
<text text-anchor="middle" x="304" y="-116.25" font-family="Helvetica,sans-Serif" font-size="10.00">bcnp/packet_storage.h</text>
</a>
</g>
</g>
<!-- Node2&#45;&gt;Node19 -->
<g id="edge19_Node000002_Node000019" class="edge">
<title>Node2&#45;&gt;Node19</title>
<g id="a_edge19_Node000002_Node000019"><a xlink:title=" ">
<path fill="none" stroke="#63b8ff" d="M393.68,-165.34C376.92,-157.08 351.87,-144.73 332.5,-135.18"/>
<polygon fill="#63b8ff" stroke="#63b8ff" points="334.28,-132.15 323.77,-130.87 331.19,-138.43 334.28,-132.15"/>
</a>
</g>
</g>
<!-- Node20 -->
<g id="Node000020" class="node">
<title>Node20</title>
<g id="a_Node000020"><a xlink:title=" ">
<polygon fill="#e0e0e0" stroke="#999999" points="279.5,-74.5 236.5,-74.5 236.5,-55.25 279.5,-55.25 279.5,-74.5"/>
<text text-anchor="middle" x="258" y="-61" font-family="Helvetica,sans-Serif" font-size="10.00">vector</text>
</a>
</g>
</g>
<!-- Node2&#45;&gt;Node20 -->
<g id="edge27_Node000002_Node000020" class="edge">
<title>Node2&#45;&gt;Node20</title>
<g id="a_edge27_Node000002_Node000020"><a xlink:title=" ">
<path fill="none" stroke="#63b8ff" d="M373.4,-169.96C327.34,-163.8 254.44,-150.94 238,-129.75 227.67,-116.43 235.46,-97.71 244.16,-83.97"/>
<polygon fill="#63b8ff" stroke="#63b8ff" points="246.97,-86.05 249.84,-75.85 241.24,-82.04 246.97,-86.05"/>
</a>
</g>
</g>
<!-- Node4 -->
<g id="Node000004" class="node">
<title>Node4</title>
<g id="a_Node000004"><a xlink:title=" ">
<polygon fill="#e0e0e0" stroke="#999999" points="876.5,-74.5 839.5,-74.5 839.5,-55.25 876.5,-55.25 876.5,-74.5"/>
<text text-anchor="middle" x="858" y="-61" font-family="Helvetica,sans-Serif" font-size="10.00">array</text>
</a>
</g>
</g>
<!-- Node3&#45;&gt;Node4 -->
<g id="edge3_Node000003_Node000004" class="edge">
<title>Node3&#45;&gt;Node4</title>
<g id="a_edge3_Node000003_Node000004"><a xlink:title=" ">
<path fill="none" stroke="#63b8ff" d="M681.18,-110.06C718.2,-102.22 772.67,-90.12 828.09,-75.14"/>
<polygon fill="#63b8ff" stroke="#63b8ff" points="828.99,-78.52 837.72,-72.51 827.15,-71.77 828.99,-78.52"/>
</a>
</g>
</g>
<!-- Node3&#45;&gt;Node5 -->
<g id="edge4_Node000003_Node000005" class="edge">
<title>Node3&#45;&gt;Node5</title>
<g id="a_edge4_Node000003_Node000005"><a xlink:title=" ">
<path fill="none" stroke="#63b8ff" d="M607.33,-110.06C581.11,-101.74 542,-88.61 509,-74.5 506.52,-73.44 447.7,-43.3 411.64,-24.81"/>
<polygon fill="#63b8ff" stroke="#63b8ff" points="413.55,-21.85 403.05,-20.4 410.35,-28.08 413.55,-21.85"/>
</a>
</g>
</g>
<!-- Node3&#45;&gt;Node6 -->
<g id="edge5_Node000003_Node000006" class="edge">
<title>Node3&#45;&gt;Node6</title>
<g id="a_edge5_Node000003_Node000006"><a xlink:title=" ">
<path fill="none" stroke="#63b8ff" d="M695.17,-110.29C743.26,-102.62 813.55,-90.6 882.92,-75.05"/>
<polygon fill="#63b8ff" stroke="#63b8ff" points="883.59,-78.49 892.56,-72.86 882.04,-71.66 883.59,-78.49"/>
</a>
</g>
</g>
<!-- Node7 -->
<g id="Node000007" class="node">
<title>Node7</title>
<g id="a_Node000007"><a xlink:title=" ">
<polygon fill="#e0e0e0" stroke="#999999" points="561.5,-74.5 518.5,-74.5 518.5,-55.25 561.5,-55.25 561.5,-74.5"/>
<text text-anchor="middle" x="540" y="-61" font-family="Helvetica,sans-Serif" font-size="10.00">cmath</text>
</a>
</g>
</g>
<!-- Node3&#45;&gt;Node7 -->
<g id="edge6_Node000003_Node000007" class="edge">
<title>Node3&#45;&gt;Node7</title>
<g id="a_edge6_Node000003_Node000007"><a xlink:title=" ">
<path fill="none" stroke="#63b8ff" d="M620.55,-110.09C605.77,-101.98 583.82,-89.93 566.57,-80.46"/>
<polygon fill="#63b8ff" stroke="#63b8ff" points="568.31,-77.43 557.86,-75.68 564.94,-83.56 568.31,-77.43"/>
</a>
</g>
</g>
<!-- Node8 -->
<g id="Node000008" class="node">
<title>Node8</title>
<g id="a_Node000008"><a xlink:title=" ">
<polygon fill="#e0e0e0" stroke="#999999" points="624.62,-74.5 579.38,-74.5 579.38,-55.25 624.62,-55.25 624.62,-74.5"/>
<text text-anchor="middle" x="602" y="-61" font-family="Helvetica,sans-Serif" font-size="10.00">cstring</text>
</a>
</g>
</g>
<!-- Node3&#45;&gt;Node8 -->
<g id="edge7_Node000003_Node000008" class="edge">
<title>Node3&#45;&gt;Node8</title>
<g id="a_edge7_Node000003_Node000008"><a xlink:title=" ">
<path fill="none" stroke="#63b8ff" d="M631.22,-110.33C626.59,-103.28 619.93,-93.15 614.13,-84.33"/>
<polygon fill="#63b8ff" stroke="#63b8ff" points="617.15,-82.56 608.74,-76.12 611.3,-86.4 617.15,-82.56"/>
</a>
</g>
</g>
<!-- Node9 -->
<g id="Node000009" class="node">
<title>Node9</title>
<g id="a_Node000009"><a xlink:title=" ">
<polygon fill="#e0e0e0" stroke="#999999" points="701,-74.5 643,-74.5 643,-55.25 701,-55.25 701,-74.5"/>
<text text-anchor="middle" x="672" y="-61" font-family="Helvetica,sans-Serif" font-size="10.00">functional</text>
</a>
</g>
</g>
<!-- Node3&#45;&gt;Node9 -->
<g id="edge8_Node000003_Node000009" class="edge">
<title>Node3&#45;&gt;Node9</title>
<g id="a_edge8_Node000003_Node000009"><a xlink:title=" ">
<path fill="none" stroke="#63b8ff" d="M642.78,-110.33C647.41,-103.28 654.07,-93.15 659.87,-84.33"/>
<polygon fill="#63b8ff" stroke="#63b8ff" points="662.7,-86.4 665.26,-76.12 656.85,-82.56 662.7,-86.4"/>
</a>
</g>
</g>
<!-- Node10 -->
<g id="Node000010" class="node">
<title>Node10</title>
<g id="a_Node000010"><a xlink:title=" ">
<polygon fill="#e0e0e0" stroke="#999999" points="758.62,-74.5 719.38,-74.5 719.38,-55.25 758.62,-55.25 758.62,-74.5"/>
<text text-anchor="middle" x="739" y="-61" font-family="Helvetica,sans-Serif" font-size="10.00">limits</text>
</a>
</g>
</g>
<!-- Node3&#45;&gt;Node10 -->
<g id="edge9_Node000003_Node000010" class="edge">
<title>Node3&#45;&gt;Node10</title>
<g id="a_edge9_Node000003_Node000010"><a xlink:title=" ">
<path fill="none" stroke="#63b8ff" d="M654.3,-110.09C669.98,-101.91 693.35,-89.71 711.58,-80.19"/>
<polygon fill="#63b8ff" stroke="#63b8ff" points="713.03,-83.38 720.27,-75.65 709.79,-77.18 713.03,-83.38"/>
</a>
</g>
</g>
<!-- Node3&#45;&gt;Node11 -->
<g id="edge10_Node000003_Node000011" class="edge">
<title>Node3&#45;&gt;Node11</title>
<g id="a_edge10_Node000003_Node000011"><a xlink:title=" ">
<path fill="none" stroke="#63b8ff" d="M603.07,-110.09C566.92,-100.46 509.9,-85.28 472.97,-75.45"/>
<polygon fill="#63b8ff" stroke="#63b8ff" points="474.23,-72.17 463.67,-72.98 472.43,-78.93 474.23,-72.17"/>
</a>
</g>
</g>
<!-- Node12 -->
<g id="Node000012" class="node">
<title>Node12</title>
<g id="a_Node000012"><a xlink:title=" ">
<polygon fill="#e0e0e0" stroke="#999999" points="821.62,-74.5 776.38,-74.5 776.38,-55.25 821.62,-55.25 821.62,-74.5"/>
<text text-anchor="middle" x="799" y="-61" font-family="Helvetica,sans-Serif" font-size="10.00">variant</text>
</a>
</g>
</g>
<!-- Node3&#45;&gt;Node12 -->
<g id="edge11_Node000003_Node000012" class="edge">
<title>Node3&#45;&gt;Node12</title>
<g id="a_edge11_Node000003_Node000012"><a xlink:title=" ">
<path fill="none" stroke="#63b8ff" d="M664.48,-110.09C692.34,-100.94 735.48,-86.75 765.36,-76.93"/>
<polygon fill="#63b8ff" stroke="#63b8ff" points="766.26,-80.32 774.67,-73.87 764.08,-73.67 766.26,-80.32"/>
</a>
</g>
</g>
<!-- Node13&#45;&gt;Node5 -->
<g id="edge13_Node000013_Node000005" class="edge">
<title>Node13&#45;&gt;Node5</title>
<g id="a_edge13_Node000013_Node000005"><a xlink:title=" ">
<path fill="none" stroke="#63b8ff" d="M203.81,-54.84C244.2,-44.93 308.58,-29.13 348.46,-19.35"/>
<polygon fill="#63b8ff" stroke="#63b8ff" points="349.16,-22.78 358.04,-17 347.49,-15.98 349.16,-22.78"/>
</a>
</g>
</g>
<!-- Node14 -->
<g id="Node000014" class="node">
<title>Node14</title>
<g id="a_Node000014"><a xlink:title=" ">
<polygon fill="#e0e0e0" stroke="#999999" points="203.75,-19.25 132.25,-19.25 132.25,0 203.75,0 203.75,-19.25"/>
<text text-anchor="middle" x="168" y="-5.75" font-family="Helvetica,sans-Serif" font-size="10.00">initializer_list</text>
</a>
</g>
</g>
<!-- Node13&#45;&gt;Node14 -->
<g id="edge14_Node000013_Node000014" class="edge">
<title>Node13&#45;&gt;Node14</title>
<g id="a_edge14_Node000013_Node000014"><a xlink:title=" ">
<path fill="none" stroke="#63b8ff" d="M167.17,-55.08C167.29,-48.57 167.46,-39.42 167.62,-31.12"/>
<polygon fill="#63b8ff" stroke="#63b8ff" points="171.11,-31.19 167.8,-21.12 164.12,-31.05 171.11,-31.19"/>
</a>
</g>
</g>
<!-- Node15 -->
<g id="Node000015" class="node">
<title>Node15</title>
<g id="a_Node000015"><a xlink:title=" ">
<polygon fill="#e0e0e0" stroke="#999999" points="256,-19.25 222,-19.25 222,0 256,0 256,-19.25"/>
<text text-anchor="middle" x="239" y="-5.75" font-family="Helvetica,sans-Serif" font-size="10.00">new</text>
</a>
</g>
</g>
<!-- Node13&#45;&gt;Node15 -->
<g id="edge15_Node000013_Node000015" class="edge">
<title>Node13&#45;&gt;Node15</title>
<g id="a_edge15_Node000013_Node000015"><a xlink:title=" ">
<path fill="none" stroke="#63b8ff" d="M179.21,-54.84C189.83,-46.99 205.44,-35.45 218.04,-26.12"/>
<polygon fill="#63b8ff" stroke="#63b8ff" points="219.79,-29.19 225.75,-20.42 215.63,-23.56 219.79,-29.19"/>
</a>
</g>
</g>
<!-- Node16 -->
<g id="Node000016" class="node">
<title>Node16</title>
<g id="a_Node000016"><a xlink:title=" ">
<polygon fill="#e0e0e0" stroke="#999999" points="58,-19.25 0,-19.25 0,0 58,0 58,-19.25"/>
<text text-anchor="middle" x="29" y="-5.75" font-family="Helvetica,sans-Serif" font-size="10.00">stdexcept</text>
</a>
</g>
</g>
<!-- Node13&#45;&gt;Node16 -->
<g id="edge16_Node000013_Node000016" class="edge">
<title>Node13&#45;&gt;Node16</title>
<g id="a_edge16_Node000013_Node000016"><a xlink:title=" ">
<path fill="none" stroke="#63b8ff" d="M143.59,-54.84C121.48,-46.31 88.08,-33.42 63.03,-23.76"/>
<polygon fill="#63b8ff" stroke="#63b8ff" points="64.53,-20.58 53.94,-20.25 62.01,-27.11 64.53,-20.58"/>
</a>
</g>
</g>
<!-- Node17 -->
<g id="Node000017" class="node">
<title>Node17</title>
<g id="a_Node000017"><a xlink:title=" ">
<polygon fill="#e0e0e0" stroke="#999999" points="337.5,-19.25 276.5,-19.25 276.5,0 337.5,0 337.5,-19.25"/>
<text text-anchor="middle" x="307" y="-5.75" font-family="Helvetica,sans-Serif" font-size="10.00">type_traits</text>
</a>
</g>
</g>
<!-- Node13&#45;&gt;Node17 -->
<g id="edge17_Node000013_Node000017" class="edge">
<title>Node13&#45;&gt;Node17</title>
<g id="a_edge17_Node000013_Node000017"><a xlink:title=" ">
<path fill="none" stroke="#63b8ff" d="M190.75,-54.84C213.17,-46.31 247.06,-33.42 272.47,-23.76"/>
<polygon fill="#63b8ff" stroke="#63b8ff" points="273.62,-27.07 281.72,-20.24 271.13,-20.52 273.62,-27.07"/>
</a>
</g>
</g>
<!-- Node18 -->
<g id="Node000018" class="node">
<title>Node18</title>
<g id="a_Node000018"><a xlink:title=" ">
<polygon fill="#e0e0e0" stroke="#999999" points="114.25,-19.25 75.75,-19.25 75.75,0 114.25,0 114.25,-19.25"/>
<text text-anchor="middle" x="95" y="-5.75" font-family="Helvetica,sans-Serif" font-size="10.00">utility</text>
</a>
</g>
</g>
<!-- Node13&#45;&gt;Node18 -->
<g id="edge18_Node000013_Node000018" class="edge">
<title>Node13&#45;&gt;Node18</title>
<g id="a_edge18_Node000013_Node000018"><a xlink:title=" ">
<path fill="none" stroke="#63b8ff" d="M154.79,-54.84C144.17,-46.99 128.56,-35.45 115.96,-26.12"/>
<polygon fill="#63b8ff" stroke="#63b8ff" points="118.37,-23.56 108.25,-20.42 114.21,-29.19 118.37,-23.56"/>
</a>
</g>
</g>
<!-- Node19&#45;&gt;Node5 -->
<g id="edge21_Node000019_Node000005" class="edge">
<title>Node19&#45;&gt;Node5</title>
<g id="a_edge21_Node000019_Node000005"><a xlink:title=" ">
<path fill="none" stroke="#63b8ff" d="M310.55,-110.25C323.61,-92.52 353.17,-52.44 370.54,-28.88"/>
<polygon fill="#63b8ff" stroke="#63b8ff" points="373.35,-30.97 376.46,-20.84 367.71,-26.82 373.35,-30.97"/>
</a>
</g>
</g>
<!-- Node19&#45;&gt;Node13 -->
<g id="edge20_Node000019_Node000013" class="edge">
<title>Node19&#45;&gt;Node13</title>
<g id="a_edge20_Node000019_Node000013"><a xlink:title=" ">
<path fill="none" stroke="#63b8ff" d="M280.76,-110.09C258.81,-101.56 225.65,-88.67 200.79,-79.01"/>
<polygon fill="#63b8ff" stroke="#63b8ff" points="202.35,-75.86 191.76,-75.5 199.82,-82.39 202.35,-75.86"/>
</a>
</g>
</g>
<!-- Node19&#45;&gt;Node17 -->
<g id="edge22_Node000019_Node000017" class="edge">
<title>Node19&#45;&gt;Node17</title>
<g id="a_edge22_Node000019_Node000017"><a xlink:title=" ">
<path fill="none" stroke="#63b8ff" d="M304.25,-110.25C304.72,-93 305.78,-54.58 306.44,-30.81"/>
<polygon fill="#63b8ff" stroke="#63b8ff" points="309.93,-31.23 306.71,-21.14 302.93,-31.04 309.93,-31.23"/>
</a>
</g>
</g>
<!-- Node19&#45;&gt;Node20 -->
<g id="edge23_Node000019_Node000020" class="edge">
<title>Node19&#45;&gt;Node20</title>
<g id="a_edge23_Node000019_Node000020"><a xlink:title=" ">
<path fill="none" stroke="#63b8ff" d="M296.4,-110.33C290.12,-103.05 280.99,-92.48 273.2,-83.48"/>
<polygon fill="#63b8ff" stroke="#63b8ff" points="275.94,-81.28 266.75,-76 270.64,-85.86 275.94,-81.28"/>
</a>
</g>
</g>
<!-- Node21&#45;&gt;Node5 -->
<g id="edge29_Node000021_Node000005" class="edge">
<title>Node21&#45;&gt;Node5</title>
<g id="a_edge29_Node000021_Node000005"><a xlink:title=" ">
<path fill="none" stroke="#63b8ff" d="M927.32,-110.35C941.68,-97.12 964.32,-71.83 949,-55.25 913.09,-16.39 538.6,-11.33 419.89,-10.7"/>
<polygon fill="#63b8ff" stroke="#63b8ff" points="420.11,-7.2 410.1,-10.66 420.08,-14.2 420.11,-7.2"/>
</a>
</g>
</g>
<!-- Node21&#45;&gt;Node6 -->
<g id="edge30_Node000021_Node000006" class="edge">
<title>Node21&#45;&gt;Node6</title>
<g id="a_edge30_Node000021_Node000006"><a xlink:title=" ">
<path fill="none" stroke="#63b8ff" d="M917,-110.33C917,-103.82 917,-94.67 917,-86.37"/>
<polygon fill="#63b8ff" stroke="#63b8ff" points="920.5,-86.37 917,-76.37 913.5,-86.37 920.5,-86.37"/>
</a>
</g>
</g>
</g>
</svg>
