<?xml version="1.0" encoding="UTF-8" standalone="no"?>
<!DOCTYPE svg PUBLIC "-//W3C//DTD SVG 1.1//EN"
 "http://www.w3.org/Graphics/SVG/1.1/DTD/svg11.dtd">
<!-- Generated by graphviz version 12.2.0 (20241103.1931)
 -->
<!-- Title: bcnp/transport/tcp_posix.cpp Pages: 1 -->
<svg width="1456pt" height="326pt"
 viewBox="0.00 0.00 1455.88 326.00" xmlns="http://www.w3.org/2000/svg" xmlns:xlink="http://www.w3.org/1999/xlink">
<g id="graph0" class="graph" transform="scale(1 1) rotate(0) translate(4 322)">
<title>bcnp/transport/tcp_posix.cpp</title>
<!-- Node1 -->
<g id="Node000001" class="node">
<title>Node1</title>
<g id="a_Node000001"><a xlink:title="TCP transport adapter implementation for POSIX systems.">
<polygon fill="#999999" stroke="#666666" points="1098.38,-318 1003.62,-318 1003.62,-287.5 1098.38,-287.5 1098.38,-318"/>
<text text-anchor="start" x="1011.62" y="-304.5" font-family="Helvetica,sans-Serif" font-size="10.00">bcnp/transport/tcp</text>
<text text-anchor="middle" x="1051" y="-293.25" font-family="Helvetica,sans-Serif" font-size="10.00">_posix.cpp</text>
</a>
</g>
</g>
<!-- Node2 -->
<g id="Node000002" class="node">
<title>Node2</title>
<g id="a_Node000002"><a xlink:href="tcp__posix_8h.html" target="_top" xlink:title=" ">
<polygon fill="white" stroke="#666666" points="734.38,-251.5 639.62,-251.5 639.62,-221 734.38,-221 734.38,-251.5"/>
<text text-anchor="start" x="647.62" y="-238" font-family="Helvetica,sans-Serif" font-size="10.00">bcnp/transport/tcp</text>
<text text-anchor="middle" x="687" y="-226.75" font-family="Helvetica,sans-Serif" font-size="10.00">_posix.h</text>
</a>
</g>
</g>
<!-- Node1&#45;&gt;Node2 -->
<g id="edge1_Node000001_Node000002" class="edge">
<title>Node1&#45;&gt;Node2</title>
<g id="a_edge1_Node000001_Node000002"><a xlink:title=" ">
<path fill="none" stroke="#63b8ff" d="M1003.41,-293.32C937.2,-281.58 817.34,-260.35 745.67,-247.65"/>
<polygon fill="#63b8ff" stroke="#63b8ff" points="746.55,-244.25 736.09,-245.95 745.32,-251.14 746.55,-244.25"/>
</a>
</g>
</g>
<!-- Node9 -->
<g id="Node000009" class="node">
<title>Node9</title>
<g id="a_Node000009"><a xlink:title=" ">
<polygon fill="#e0e0e0" stroke="#999999" points="1008.62,-74.5 963.38,-74.5 963.38,-55.25 1008.62,-55.25 1008.62,-74.5"/>
<text text-anchor="middle" x="986" y="-61" font-family="Helvetica,sans-Serif" font-size="10.00">cstring</text>
</a>
</g>
</g>
<!-- Node1&#45;&gt;Node9 -->
<g id="edge40_Node000001_Node000009" class="edge">
<title>Node1&#45;&gt;Node9</title>
<g id="a_edge40_Node000001_Node000009"><a xlink:title=" ">
<path fill="none" stroke="#63b8ff" d="M1003.43,-295.27C954.88,-287.56 884.38,-272.98 868,-251.5 822.38,-191.66 916.89,-113.97 962.85,-81.36"/>
<polygon fill="#63b8ff" stroke="#63b8ff" points="964.64,-84.37 970.86,-75.79 960.65,-78.62 964.64,-84.37"/>
</a>
</g>
</g>
<!-- Node23 -->
<g id="Node000023" class="node">
<title>Node23</title>
<g id="a_Node000023"><a xlink:title=" ">
<polygon fill="#e0e0e0" stroke="#999999" points="820.62,-185 775.38,-185 775.38,-165.75 820.62,-165.75 820.62,-185"/>
<text text-anchor="middle" x="798" y="-171.5" font-family="Helvetica,sans-Serif" font-size="10.00">chrono</text>
</a>
</g>
</g>
<!-- Node1&#45;&gt;Node23 -->
<g id="edge39_Node000001_Node000023" class="edge">
<title>Node1&#45;&gt;Node23</title>
<g id="a_edge39_Node000001_Node000023"><a xlink:title=" ">
<path fill="none" stroke="#63b8ff" d="M1003.46,-302.03C956.02,-299.91 883.4,-289.92 835,-251.5 817.59,-237.68 807.78,-213.57 802.7,-196.39"/>
<polygon fill="#63b8ff" stroke="#63b8ff" points="806.11,-195.6 800.18,-186.82 799.34,-197.38 806.11,-195.6"/>
</a>
</g>
</g>
<!-- Node26 -->
<g id="Node000026" class="node">
<title>Node26</title>
<g id="a_Node000026"><a xlink:title=" ">
<polygon fill="#e0e0e0" stroke="#999999" points="932.88,-245.88 877.12,-245.88 877.12,-226.62 932.88,-226.62 932.88,-245.88"/>
<text text-anchor="middle" x="905" y="-232.38" font-family="Helvetica,sans-Serif" font-size="10.00">algorithm</text>
</a>
</g>
</g>
<!-- Node1&#45;&gt;Node26 -->
<g id="edge36_Node000001_Node000026" class="edge">
<title>Node1&#45;&gt;Node26</title>
<g id="a_edge36_Node000001_Node000026"><a xlink:title=" ">
<path fill="none" stroke="#63b8ff" d="M1017.87,-287.11C993.21,-276.22 959.79,-261.46 935.73,-250.83"/>
<polygon fill="#63b8ff" stroke="#63b8ff" points="937.34,-247.71 926.78,-246.87 934.51,-254.11 937.34,-247.71"/>
</a>
</g>
</g>
<!-- Node27 -->
<g id="Node000027" class="node">
<title>Node27</title>
<g id="a_Node000027"><a xlink:title=" ">
<polygon fill="#e0e0e0" stroke="#999999" points="1011.5,-245.88 950.5,-245.88 950.5,-226.62 1011.5,-226.62 1011.5,-245.88"/>
<text text-anchor="middle" x="981" y="-232.38" font-family="Helvetica,sans-Serif" font-size="10.00">arpa/inet.h</text>
</a>
</g>
</g>
<!-- Node1&#45;&gt;Node27 -->
<g id="edge37_Node000001_Node000027" class="edge">
<title>Node1&#45;&gt;Node27</title>
<g id="a_edge37_Node000001_Node000027"><a xlink:title=" ">
<path fill="none" stroke="#63b8ff" d="M1035.12,-287.11C1024.29,-277.14 1009.96,-263.93 998.76,-253.61"/>
<polygon fill="#63b8ff" stroke="#63b8ff" points="1001.41,-251.3 991.69,-247.1 996.67,-256.45 1001.41,-251.3"/>
</a>
</g>
</g>
<!-- Node28 -->
<g id="Node000028" class="node">
<title>Node28</title>
<g id="a_Node000028"><a xlink:title=" ">
<polygon fill="#e0e0e0" stroke="#999999" points="1072.5,-245.88 1029.5,-245.88 1029.5,-226.62 1072.5,-226.62 1072.5,-245.88"/>
<text text-anchor="middle" x="1051" y="-232.38" font-family="Helvetica,sans-Serif" font-size="10.00">cerrno</text>
</a>
</g>
</g>
<!-- Node1&#45;&gt;Node28 -->
<g id="edge38_Node000001_Node000028" class="edge">
<title>Node1&#45;&gt;Node28</title>
<g id="a_edge38_Node000001_Node000028"><a xlink:title=" ">
<path fill="none" stroke="#63b8ff" d="M1051,-287.11C1051,-278.33 1051,-267.02 1051,-257.4"/>
<polygon fill="#63b8ff" stroke="#63b8ff" points="1054.5,-257.59 1051,-247.59 1047.5,-257.59 1054.5,-257.59"/>
</a>
</g>
</g>
<!-- Node29 -->
<g id="Node000029" class="node">
<title>Node29</title>
<g id="a_Node000029"><a xlink:title=" ">
<polygon fill="#e0e0e0" stroke="#999999" points="1133.12,-245.88 1090.88,-245.88 1090.88,-226.62 1133.12,-226.62 1133.12,-245.88"/>
<text text-anchor="middle" x="1112" y="-232.38" font-family="Helvetica,sans-Serif" font-size="10.00">fcntl.h</text>
</a>
</g>
</g>
<!-- Node1&#45;&gt;Node29 -->
<g id="edge41_Node000001_Node000029" class="edge">
<title>Node1&#45;&gt;Node29</title>
<g id="a_edge41_Node000001_Node000029"><a xlink:title=" ">
<path fill="none" stroke="#63b8ff" d="M1064.84,-287.11C1074.09,-277.34 1086.27,-264.45 1095.94,-254.23"/>
<polygon fill="#63b8ff" stroke="#63b8ff" points="1098.29,-256.84 1102.62,-247.17 1093.2,-252.03 1098.29,-256.84"/>
</a>
</g>
</g>
<!-- Node30 -->
<g id="Node000030" class="node">
<title>Node30</title>
<g id="a_Node000030"><a xlink:title=" ">
<polygon fill="#e0e0e0" stroke="#999999" points="1204.75,-245.88 1151.25,-245.88 1151.25,-226.62 1204.75,-226.62 1204.75,-245.88"/>
<text text-anchor="middle" x="1178" y="-232.38" font-family="Helvetica,sans-Serif" font-size="10.00">iostream</text>
</a>
</g>
</g>
<!-- Node1&#45;&gt;Node30 -->
<g id="edge42_Node000001_Node000030" class="edge">
<title>Node1&#45;&gt;Node30</title>
<g id="a_edge42_Node000001_Node000030"><a xlink:title=" ">
<path fill="none" stroke="#63b8ff" d="M1079.82,-287.11C1100.88,-276.42 1129.29,-261.99 1150.13,-251.4"/>
<polygon fill="#63b8ff" stroke="#63b8ff" points="1151.58,-254.59 1158.91,-246.95 1148.41,-248.35 1151.58,-254.59"/>
</a>
</g>
</g>
<!-- Node31 -->
<g id="Node000031" class="node">
<title>Node31</title>
<g id="a_Node000031"><a xlink:title=" ">
<polygon fill="#e0e0e0" stroke="#999999" points="1291.62,-245.88 1222.38,-245.88 1222.38,-226.62 1291.62,-226.62 1291.62,-245.88"/>
<text text-anchor="middle" x="1257" y="-232.38" font-family="Helvetica,sans-Serif" font-size="10.00">netinet/tcp.h</text>
</a>
</g>
</g>
<!-- Node1&#45;&gt;Node31 -->
<g id="edge43_Node000001_Node000031" class="edge">
<title>Node1&#45;&gt;Node31</title>
<g id="a_edge43_Node000001_Node000031"><a xlink:title=" ">
<path fill="none" stroke="#63b8ff" d="M1098.87,-287.28C1131.39,-277.38 1175.36,-263.86 1214,-251.5 1215.72,-250.95 1217.48,-250.38 1219.25,-249.81"/>
<polygon fill="#63b8ff" stroke="#63b8ff" points="1220.34,-253.14 1228.75,-246.7 1218.16,-246.48 1220.34,-253.14"/>
</a>
</g>
</g>
<!-- Node32 -->
<g id="Node000032" class="node">
<title>Node32</title>
<g id="a_Node000032"><a xlink:title=" ">
<polygon fill="#e0e0e0" stroke="#999999" points="1380.38,-245.88 1309.62,-245.88 1309.62,-226.62 1380.38,-226.62 1380.38,-245.88"/>
<text text-anchor="middle" x="1345" y="-232.38" font-family="Helvetica,sans-Serif" font-size="10.00">sys/socket.h</text>
</a>
</g>
</g>
<!-- Node1&#45;&gt;Node32 -->
<g id="edge44_Node000001_Node000032" class="edge">
<title>Node1&#45;&gt;Node32</title>
<g id="a_edge44_Node000001_Node000032"><a xlink:title=" ">
<path fill="none" stroke="#63b8ff" d="M1098.83,-293.82C1149.43,-285.04 1231.4,-269.7 1301,-251.5 1303.25,-250.91 1305.54,-250.28 1307.86,-249.61"/>
<polygon fill="#63b8ff" stroke="#63b8ff" points="1308.62,-253.04 1317.17,-246.78 1306.59,-246.34 1308.62,-253.04"/>
</a>
</g>
</g>
<!-- Node33 -->
<g id="Node000033" class="node">
<title>Node33</title>
<g id="a_Node000033"><a xlink:title=" ">
<polygon fill="#e0e0e0" stroke="#999999" points="1447.88,-245.88 1398.12,-245.88 1398.12,-226.62 1447.88,-226.62 1447.88,-245.88"/>
<text text-anchor="middle" x="1423" y="-232.38" font-family="Helvetica,sans-Serif" font-size="10.00">unistd.h</text>
</a>
</g>
</g>
<!-- Node1&#45;&gt;Node33 -->
<g id="edge45_Node000001_Node000033" class="edge">
<title>Node1&#45;&gt;Node33</title>
<g id="a_edge45_Node000001_Node000033"><a xlink:title=" ">
<path fill="none" stroke="#63b8ff" d="M1098.8,-298.41C1165,-292.95 1287.86,-279.73 1389,-251.5 1390.39,-251.11 1391.79,-250.68 1393.2,-250.22"/>
<polygon fill="#63b8ff" stroke="#63b8ff" points="1394.31,-253.54 1402.46,-246.77 1391.87,-246.99 1394.31,-253.54"/>
</a>
</g>
</g>
<!-- Node3 -->
<g id="Node000003" class="node">
<title>Node3</title>
<g id="a_Node000003"><a xlink:href="packet_8h.html" target="_top" xlink:title="BCNP packet structures, encoding, and decoding utilities.">
<polygon fill="white" stroke="#666666" points="471.38,-185 394.62,-185 394.62,-165.75 471.38,-165.75 471.38,-185"/>
<text text-anchor="middle" x="433" y="-171.5" font-family="Helvetica,sans-Serif" font-size="10.00">bcnp/packet.h</text>
</a>
</g>
</g>
<!-- Node2&#45;&gt;Node3 -->
<g id="edge2_Node000002_Node000003" class="edge">
<title>Node2&#45;&gt;Node3</title>
<g id="a_edge2_Node000002_Node000003"><a xlink:title=" ">
<path fill="none" stroke="#63b8ff" d="M639.22,-224.18C594.58,-213.83 528.19,-198.44 482.87,-187.94"/>
<polygon fill="#63b8ff" stroke="#63b8ff" points="483.84,-184.57 473.31,-185.72 482.26,-191.39 483.84,-184.57"/>
</a>
</g>
</g>
<!-- Node4 -->
<g id="Node000004" class="node">
<title>Node4</title>
<g id="a_Node000004"><a xlink:href="message__types_8h.html" target="_top" xlink:title=" ">
<polygon fill="white" stroke="#666666" points="784.88,-129.75 669.12,-129.75 669.12,-110.5 784.88,-110.5 784.88,-129.75"/>
<text text-anchor="middle" x="727" y="-116.25" font-family="Helvetica,sans-Serif" font-size="10.00">bcnp/message_types.h</text>
</a>
</g>
</g>
<!-- Node2&#45;&gt;Node4 -->
<g id="edge32_Node000002_Node000004" class="edge">
<title>Node2&#45;&gt;Node4</title>
<g id="a_edge32_Node000002_Node000004"><a xlink:title=" ">
<path fill="none" stroke="#63b8ff" d="M703.45,-220.73C712.59,-211.53 723.09,-198.79 728,-185 732.97,-171.05 732.48,-154.28 730.88,-141.42"/>
<polygon fill="#63b8ff" stroke="#63b8ff" points="734.35,-140.94 729.31,-131.62 727.44,-142.04 734.35,-140.94"/>
</a>
</g>
</g>
<!-- Node22 -->
<g id="Node000022" class="node">
<title>Node22</title>
<g id="a_Node000022"><a xlink:href="adapter_8h.html" target="_top" xlink:title=" ">
<polygon fill="white" stroke="#666666" points="639.5,-129.75 518.5,-129.75 518.5,-110.5 639.5,-110.5 639.5,-129.75"/>
<text text-anchor="middle" x="579" y="-116.25" font-family="Helvetica,sans-Serif" font-size="10.00">bcnp/transport/adapter.h</text>
</a>
</g>
</g>
<!-- Node2&#45;&gt;Node22 -->
<g id="edge29_Node000002_Node000022" class="edge">
<title>Node2&#45;&gt;Node22</title>
<g id="a_edge29_Node000002_Node000022"><a xlink:title=" ">
<path fill="none" stroke="#63b8ff" d="M639.37,-225.78C616.69,-218.62 591.59,-206.24 578,-185 569.76,-172.13 570.68,-154.6 573.29,-141.17"/>
<polygon fill="#63b8ff" stroke="#63b8ff" points="576.63,-142.24 575.59,-131.7 569.83,-140.59 576.63,-142.24"/>
</a>
</g>
</g>
<!-- Node2&#45;&gt;Node23 -->
<g id="edge33_Node000002_Node000023" class="edge">
<title>Node2&#45;&gt;Node23</title>
<g id="a_edge33_Node000002_Node000023"><a xlink:title=" ">
<path fill="none" stroke="#63b8ff" d="M714.72,-220.55C731.95,-211.41 753.99,-199.72 771.07,-190.66"/>
<polygon fill="#63b8ff" stroke="#63b8ff" points="772.45,-193.89 779.64,-186.11 769.17,-187.71 772.45,-193.89"/>
</a>
</g>
</g>
<!-- Node24 -->
<g id="Node000024" class="node">
<title>Node24</title>
<g id="a_Node000024"><a xlink:title=" ">
<polygon fill="#e0e0e0" stroke="#999999" points="637.25,-185 586.75,-185 586.75,-165.75 637.25,-165.75 637.25,-185"/>
<text text-anchor="middle" x="612" y="-171.5" font-family="Helvetica,sans-Serif" font-size="10.00">memory</text>
</a>
</g>
</g>
<!-- Node2&#45;&gt;Node24 -->
<g id="edge34_Node000002_Node000024" class="edge">
<title>Node2&#45;&gt;Node24</title>
<g id="a_edge34_Node000002_Node000024"><a xlink:title=" ">
<path fill="none" stroke="#63b8ff" d="M668.46,-220.7C657.48,-212.08 643.56,-201.15 632.28,-192.3"/>
<polygon fill="#63b8ff" stroke="#63b8ff" points="634.78,-189.81 624.75,-186.39 630.46,-195.31 634.78,-189.81"/>
</a>
</g>
</g>
<!-- Node25 -->
<g id="Node000025" class="node">
<title>Node25</title>
<g id="a_Node000025"><a xlink:title=" ">
<polygon fill="#e0e0e0" stroke="#999999" points="718.62,-185 655.38,-185 655.38,-165.75 718.62,-165.75 718.62,-185"/>
<text text-anchor="middle" x="687" y="-171.5" font-family="Helvetica,sans-Serif" font-size="10.00">netinet/in.h</text>
</a>
</g>
</g>
<!-- Node2&#45;&gt;Node25 -->
<g id="edge35_Node000002_Node000025" class="edge">
<title>Node2&#45;&gt;Node25</title>
<g id="a_edge35_Node000002_Node000025"><a xlink:title=" ">
<path fill="none" stroke="#63b8ff" d="M687,-220.7C687,-213.46 687,-204.59 687,-196.69"/>
<polygon fill="#63b8ff" stroke="#63b8ff" points="690.5,-196.96 687,-186.96 683.5,-196.96 690.5,-196.96"/>
</a>
</g>
</g>
<!-- Node3&#45;&gt;Node4 -->
<g id="edge3_Node000003_Node000004" class="edge">
<title>Node3&#45;&gt;Node4</title>
<g id="a_edge3_Node000003_Node000004"><a xlink:title=" ">
<path fill="none" stroke="#63b8ff" d="M471.74,-167.36C521.15,-158.41 607.17,-142.83 665.56,-132.25"/>
<polygon fill="#63b8ff" stroke="#63b8ff" points="666.15,-135.7 675.37,-130.48 664.9,-128.82 666.15,-135.7"/>
</a>
</g>
</g>
<!-- Node6 -->
<g id="Node000006" class="node">
<title>Node6</title>
<g id="a_Node000006"><a xlink:title=" ">
<polygon fill="#e0e0e0" stroke="#999999" points="438.12,-19.25 389.88,-19.25 389.88,0 438.12,0 438.12,-19.25"/>
<text text-anchor="middle" x="414" y="-5.75" font-family="Helvetica,sans-Serif" font-size="10.00">cstddef</text>
</a>
</g>
</g>
<!-- Node3&#45;&gt;Node6 -->
<g id="edge25_Node000003_Node000006" class="edge">
<title>Node3&#45;&gt;Node6</title>
<g id="a_edge25_Node000003_Node000006"><a xlink:title=" ">
<path fill="none" stroke="#63b8ff" d="M431.98,-165.57C429.04,-140.25 420.51,-66.75 416.35,-30.84"/>
<polygon fill="#63b8ff" stroke="#63b8ff" points="419.83,-30.51 415.2,-20.98 412.88,-31.31 419.83,-30.51"/>
</a>
</g>
</g>
<!-- Node7 -->
<g id="Node000007" class="node">
<title>Node7</title>
<g id="a_Node000007"><a xlink:title=" ">
<polygon fill="#e0e0e0" stroke="#999999" points="593.62,-74.5 548.38,-74.5 548.38,-55.25 593.62,-55.25 593.62,-74.5"/>
<text text-anchor="middle" x="571" y="-61" font-family="Helvetica,sans-Serif" font-size="10.00">cstdint</text>
</a>
</g>
</g>
<!-- Node3&#45;&gt;Node7 -->
<g id="edge26_Node000003_Node000007" class="edge">
<title>Node3&#45;&gt;Node7</title>
<g id="a_edge26_Node000003_Node000007"><a xlink:title=" ">
<path fill="none" stroke="#63b8ff" d="M443.12,-165.45C457.5,-152.86 484.79,-129.34 509,-110.5 521.92,-100.44 536.79,-89.71 548.74,-81.29"/>
<polygon fill="#63b8ff" stroke="#63b8ff" points="550.54,-84.3 556.73,-75.7 546.53,-78.56 550.54,-84.3"/>
</a>
</g>
</g>
<!-- Node12 -->
<g id="Node000012" class="node">
<title>Node12</title>
<g id="a_Node000012"><a xlink:title=" ">
<polygon fill="#e0e0e0" stroke="#999999" points="529.88,-74.5 480.12,-74.5 480.12,-55.25 529.88,-55.25 529.88,-74.5"/>
<text text-anchor="middle" x="505" y="-61" font-family="Helvetica,sans-Serif" font-size="10.00">optional</text>
</a>
</g>
</g>
<!-- Node3&#45;&gt;Node12 -->
<g id="edge27_Node000003_Node000012" class="edge">
<title>Node3&#45;&gt;Node12</title>
<g id="a_edge27_Node000003_Node000012"><a xlink:title=" ">
<path fill="none" stroke="#63b8ff" d="M438.89,-165.5C450.6,-147.85 477.01,-108.05 492.68,-84.45"/>
<polygon fill="#63b8ff" stroke="#63b8ff" points="495.58,-86.41 498.19,-76.14 489.74,-82.53 495.58,-86.41"/>
</a>
</g>
</g>
<!-- Node14 -->
<g id="Node000014" class="node">
<title>Node14</title>
<g id="a_Node000014"><a xlink:href="static__vector_8h.html" target="_top" xlink:title="Fixed&#45;capacity vector with stack allocation (no heap).">
<polygon fill="white" stroke="#666666" points="247.88,-74.5 144.12,-74.5 144.12,-55.25 247.88,-55.25 247.88,-74.5"/>
<text text-anchor="middle" x="196" y="-61" font-family="Helvetica,sans-Serif" font-size="10.00">bcnp/static_vector.h</text>
</a>
</g>
</g>
<!-- Node3&#45;&gt;Node14 -->
<g id="edge13_Node000003_Node000014" class="edge">
<title>Node3&#45;&gt;Node14</title>
<g id="a_edge13_Node000003_Node000014"><a xlink:title=" ">
<path fill="none" stroke="#63b8ff" d="M394.41,-170.27C341.67,-163.96 250.67,-150.42 225,-129.75 211.5,-118.88 204.05,-100.36 200.09,-86.05"/>
<polygon fill="#63b8ff" stroke="#63b8ff" points="203.5,-85.26 197.8,-76.33 196.69,-86.87 203.5,-85.26"/>
</a>
</g>
</g>
<!-- Node20 -->
<g id="Node000020" class="node">
<title>Node20</title>
<g id="a_Node000020"><a xlink:href="packet__storage_8h.html" target="_top" xlink:title=" ">
<polygon fill="white" stroke="#666666" points="348.12,-129.75 233.88,-129.75 233.88,-110.5 348.12,-110.5 348.12,-129.75"/>
<text text-anchor="middle" x="291" y="-116.25" font-family="Helvetica,sans-Serif" font-size="10.00">bcnp/packet_storage.h</text>
</a>
</g>
</g>
<!-- Node3&#45;&gt;Node20 -->
<g id="edge20_Node000003_Node000020" class="edge">
<title>Node3&#45;&gt;Node20</title>
<g id="a_edge20_Node000003_Node000020"><a xlink:title=" ">
<path fill="none" stroke="#63b8ff" d="M408.91,-165.34C386.06,-156.77 351.48,-143.81 325.67,-134.13"/>
<polygon fill="#63b8ff" stroke="#63b8ff" points="327.22,-130.97 316.62,-130.73 324.76,-137.52 327.22,-130.97"/>
</a>
</g>
</g>
<!-- Node21 -->
<g id="Node000021" class="node">
<title>Node21</title>
<g id="a_Node000021"><a xlink:title=" ">
<polygon fill="#e0e0e0" stroke="#999999" points="385.5,-74.5 342.5,-74.5 342.5,-55.25 385.5,-55.25 385.5,-74.5"/>
<text text-anchor="middle" x="364" y="-61" font-family="Helvetica,sans-Serif" font-size="10.00">vector</text>
</a>
</g>
</g>
<!-- Node3&#45;&gt;Node21 -->
<g id="edge28_Node000003_Node000021" class="edge">
<title>Node3&#45;&gt;Node21</title>
<g id="a_edge28_Node000003_Node000021"><a xlink:title=" ">
<path fill="none" stroke="#63b8ff" d="M425.83,-165.38C418.91,-156.53 408.28,-142.53 400,-129.75 390.47,-115.04 380.78,-97.68 373.86,-84.77"/>
<polygon fill="#63b8ff" stroke="#63b8ff" points="377.03,-83.3 369.27,-76.09 370.85,-86.57 377.03,-83.3"/>
</a>
</g>
</g>
<!-- Node5 -->
<g id="Node000005" class="node">
<title>Node5</title>
<g id="a_Node000005"><a xlink:title=" ">
<polygon fill="#e0e0e0" stroke="#999999" points="687.5,-74.5 650.5,-74.5 650.5,-55.25 687.5,-55.25 687.5,-74.5"/>
<text text-anchor="middle" x="669" y="-61" font-family="Helvetica,sans-Serif" font-size="10.00">array</text>
</a>
</g>
</g>
<!-- Node4&#45;&gt;Node5 -->
<g id="edge4_Node000004_Node000005" class="edge">
<title>Node4&#45;&gt;Node5</title>
<g id="a_edge4_Node000004_Node000005"><a xlink:title=" ">
<path fill="none" stroke="#63b8ff" d="M717.16,-110.09C708.95,-102.55 697.02,-91.6 687.09,-82.48"/>
<polygon fill="#63b8ff" stroke="#63b8ff" points="689.54,-79.98 679.81,-75.8 684.81,-85.14 689.54,-79.98"/>
</a>
</g>
</g>
<!-- Node4&#45;&gt;Node6 -->
<g id="edge5_Node000004_Node000006" class="edge">
<title>Node4&#45;&gt;Node6</title>
<g id="a_edge5_Node000004_Node000006"><a xlink:title=" ">
<path fill="none" stroke="#63b8ff" d="M709.45,-110.01C675.91,-92.61 605.76,-56.27 603,-55.25 551.12,-36.09 488.13,-23.16 449.57,-16.35"/>
<polygon fill="#63b8ff" stroke="#63b8ff" points="450.36,-12.93 439.91,-14.68 449.17,-19.83 450.36,-12.93"/>
</a>
</g>
</g>
<!-- Node4&#45;&gt;Node7 -->
<g id="edge6_Node000004_Node000007" class="edge">
<title>Node4&#45;&gt;Node7</title>
<g id="a_edge6_Node000004_Node000007"><a xlink:title=" ">
<path fill="none" stroke="#63b8ff" d="M700.54,-110.09C674.14,-101.08 633.48,-87.2 604.77,-77.4"/>
<polygon fill="#63b8ff" stroke="#63b8ff" points="606.06,-74.14 595.46,-74.22 603.79,-80.77 606.06,-74.14"/>
</a>
</g>
</g>
<!-- Node8 -->
<g id="Node000008" class="node">
<title>Node8</title>
<g id="a_Node000008"><a xlink:title=" ">
<polygon fill="#e0e0e0" stroke="#999999" points="748.5,-74.5 705.5,-74.5 705.5,-55.25 748.5,-55.25 748.5,-74.5"/>
<text text-anchor="middle" x="727" y="-61" font-family="Helvetica,sans-Serif" font-size="10.00">cmath</text>
</a>
</g>
</g>
<!-- Node4&#45;&gt;Node8 -->
<g id="edge7_Node000004_Node000008" class="edge">
<title>Node4&#45;&gt;Node8</title>
<g id="a_edge7_Node000004_Node000008"><a xlink:title=" ">
<path fill="none" stroke="#63b8ff" d="M727,-110.33C727,-103.82 727,-94.67 727,-86.37"/>
<polygon fill="#63b8ff" stroke="#63b8ff" points="730.5,-86.37 727,-76.37 723.5,-86.37 730.5,-86.37"/>
</a>
</g>
</g>
<!-- Node4&#45;&gt;Node9 -->
<g id="edge8_Node000004_Node000009" class="edge">
<title>Node4&#45;&gt;Node9</title>
<g id="a_edge8_Node000004_Node000009"><a xlink:title=" ">
<path fill="none" stroke="#63b8ff" d="M779.77,-110C823.61,-102.15 887.84,-90.03 951.91,-75.1"/>
<polygon fill="#63b8ff" stroke="#63b8ff" points="952.63,-78.53 961.56,-72.83 951.02,-71.72 952.63,-78.53"/>
</a>
</g>
</g>
<!-- Node10 -->
<g id="Node000010" class="node">
<title>Node10</title>
<g id="a_Node000010"><a xlink:title=" ">
<polygon fill="#e0e0e0" stroke="#999999" points="825,-74.5 767,-74.5 767,-55.25 825,-55.25 825,-74.5"/>
<text text-anchor="middle" x="796" y="-61" font-family="Helvetica,sans-Serif" font-size="10.00">functional</text>
</a>
</g>
</g>
<!-- Node4&#45;&gt;Node10 -->
<g id="edge9_Node000004_Node000010" class="edge">
<title>Node4&#45;&gt;Node10</title>
<g id="a_edge9_Node000004_Node000010"><a xlink:title=" ">
<path fill="none" stroke="#63b8ff" d="M738.7,-110.09C748.78,-102.32 763.54,-90.92 775.56,-81.65"/>
<polygon fill="#63b8ff" stroke="#63b8ff" points="777.49,-84.58 783.27,-75.7 773.21,-79.04 777.49,-84.58"/>
</a>
</g>
</g>
<!-- Node11 -->
<g id="Node000011" class="node">
<title>Node11</title>
<g id="a_Node000011"><a xlink:title=" ">
<polygon fill="#e0e0e0" stroke="#999999" points="882.62,-74.5 843.38,-74.5 843.38,-55.25 882.62,-55.25 882.62,-74.5"/>
<text text-anchor="middle" x="863" y="-61" font-family="Helvetica,sans-Serif" font-size="10.00">limits</text>
</a>
</g>
</g>
<!-- Node4&#45;&gt;Node11 -->
<g id="edge10_Node000004_Node000011" class="edge">
<title>Node4&#45;&gt;Node11</title>
<g id="a_edge10_Node000004_Node000011"><a xlink:title=" ">
<path fill="none" stroke="#63b8ff" d="M750.07,-110.09C772.68,-101.24 807.28,-87.69 832.22,-77.93"/>
<polygon fill="#63b8ff" stroke="#63b8ff" points="833.48,-81.19 841.51,-74.29 830.93,-74.67 833.48,-81.19"/>
</a>
</g>
</g>
<!-- Node4&#45;&gt;Node12 -->
<g id="edge11_Node000004_Node000012" class="edge">
<title>Node4&#45;&gt;Node12</title>
<g id="a_edge11_Node000004_Node000012"><a xlink:title=" ">
<path fill="none" stroke="#63b8ff" d="M688.07,-110.07C652.33,-101.71 597.61,-88.82 541.17,-75"/>
<polygon fill="#63b8ff" stroke="#63b8ff" points="542.26,-71.67 531.71,-72.68 540.59,-78.47 542.26,-71.67"/>
</a>
</g>
</g>
<!-- Node13 -->
<g id="Node000013" class="node">
<title>Node13</title>
<g id="a_Node000013"><a xlink:title=" ">
<polygon fill="#e0e0e0" stroke="#999999" points="945.62,-74.5 900.38,-74.5 900.38,-55.25 945.62,-55.25 945.62,-74.5"/>
<text text-anchor="middle" x="923" y="-61" font-family="Helvetica,sans-Serif" font-size="10.00">variant</text>
</a>
</g>
</g>
<!-- Node4&#45;&gt;Node13 -->
<g id="edge12_Node000004_Node000013" class="edge">
<title>Node4&#45;&gt;Node13</title>
<g id="a_edge12_Node000004_Node000013"><a xlink:title=" ">
<path fill="none" stroke="#63b8ff" d="M760.83,-110.05C791.92,-101.7 839.56,-88.85 889.06,-75.29"/>
<polygon fill="#63b8ff" stroke="#63b8ff" points="889.8,-78.72 898.52,-72.7 887.95,-71.97 889.8,-78.72"/>
</a>
</g>
</g>
<!-- Node14&#45;&gt;Node6 -->
<g id="edge14_Node000014_Node000006" class="edge">
<title>Node14&#45;&gt;Node6</title>
<g id="a_edge14_Node000014_Node000006"><a xlink:title=" ">
<path fill="none" stroke="#63b8ff" d="M232.98,-54.84C273.56,-44.93 338.24,-29.13 378.3,-19.35"/>
<polygon fill="#63b8ff" stroke="#63b8ff" points="379.04,-22.77 387.92,-16.99 377.38,-15.97 379.04,-22.77"/>
</a>
</g>
</g>
<!-- Node15 -->
<g id="Node000015" class="node">
<title>Node15</title>
<g id="a_Node000015"><a xlink:title=" ">
<polygon fill="#e0e0e0" stroke="#999999" points="203.75,-19.25 132.25,-19.25 132.25,0 203.75,0 203.75,-19.25"/>
<text text-anchor="middle" x="168" y="-5.75" font-family="Helvetica,sans-Serif" font-size="10.00">initializer_list</text>
</a>
</g>
</g>
<!-- Node14&#45;&gt;Node15 -->
<g id="edge15_Node000014_Node000015" class="edge">
<title>Node14&#45;&gt;Node15</title>
<g id="a_edge15_Node000014_Node000015"><a xlink:title=" ">
<path fill="none" stroke="#63b8ff" d="M191.38,-55.08C187.75,-48.19 182.57,-38.34 178.01,-29.66"/>
<polygon fill="#63b8ff" stroke="#63b8ff" points="181.18,-28.17 173.43,-20.95 174.98,-31.43 181.18,-28.17"/>
</a>
</g>
</g>
<!-- Node16 -->
<g id="Node000016" class="node">
<title>Node16</title>
<g id="a_Node000016"><a xlink:title=" ">
<polygon fill="#e0e0e0" stroke="#999999" points="256,-19.25 222,-19.25 222,0 256,0 256,-19.25"/>
<text text-anchor="middle" x="239" y="-5.75" font-family="Helvetica,sans-Serif" font-size="10.00">new</text>
</a>
</g>
</g>
<!-- Node14&#45;&gt;Node16 -->
<g id="edge16_Node000014_Node000016" class="edge">
<title>Node14&#45;&gt;Node16</title>
<g id="a_edge16_Node000014_Node000016"><a xlink:title=" ">
<path fill="none" stroke="#63b8ff" d="M203.1,-55.08C208.92,-47.88 217.33,-37.46 224.56,-28.51"/>
<polygon fill="#63b8ff" stroke="#63b8ff" points="227.23,-30.77 230.79,-20.79 221.79,-26.37 227.23,-30.77"/>
</a>
</g>
</g>
<!-- Node17 -->
<g id="Node000017" class="node">
<title>Node17</title>
<g id="a_Node000017"><a xlink:title=" ">
<polygon fill="#e0e0e0" stroke="#999999" points="58,-19.25 0,-19.25 0,0 58,0 58,-19.25"/>
<text text-anchor="middle" x="29" y="-5.75" font-family="Helvetica,sans-Serif" font-size="10.00">stdexcept</text>
</a>
</g>
</g>
<!-- Node14&#45;&gt;Node17 -->
<g id="edge17_Node000014_Node000017" class="edge">
<title>Node14&#45;&gt;Node17</title>
<g id="a_edge17_Node000014_Node000017"><a xlink:title=" ">
<path fill="none" stroke="#63b8ff" d="M167.67,-54.84C140.32,-46.12 98.68,-32.84 68.16,-23.11"/>
<polygon fill="#63b8ff" stroke="#63b8ff" points="69.5,-19.87 58.91,-20.16 67.37,-26.53 69.5,-19.87"/>
</a>
</g>
</g>
<!-- Node18 -->
<g id="Node000018" class="node">
<title>Node18</title>
<g id="a_Node000018"><a xlink:title=" ">
<polygon fill="#e0e0e0" stroke="#999999" points="335.5,-19.25 274.5,-19.25 274.5,0 335.5,0 335.5,-19.25"/>
<text text-anchor="middle" x="305" y="-5.75" font-family="Helvetica,sans-Serif" font-size="10.00">type_traits</text>
</a>
</g>
</g>
<!-- Node14&#45;&gt;Node18 -->
<g id="edge18_Node000014_Node000018" class="edge">
<title>Node14&#45;&gt;Node18</title>
<g id="a_edge18_Node000014_Node000018"><a xlink:title=" ">
<path fill="none" stroke="#63b8ff" d="M214.49,-54.84C231.4,-46.58 256.69,-34.23 276.24,-24.68"/>
<polygon fill="#63b8ff" stroke="#63b8ff" points="277.61,-27.9 285.06,-20.37 274.54,-21.61 277.61,-27.9"/>
</a>
</g>
</g>
<!-- Node19 -->
<g id="Node000019" class="node">
<title>Node19</title>
<g id="a_Node000019"><a xlink:title=" ">
<polygon fill="#e0e0e0" stroke="#999999" points="114.25,-19.25 75.75,-19.25 75.75,0 114.25,0 114.25,-19.25"/>
<text text-anchor="middle" x="95" y="-5.75" font-family="Helvetica,sans-Serif" font-size="10.00">utility</text>
</a>
</g>
</g>
<!-- Node14&#45;&gt;Node19 -->
<g id="edge19_Node000014_Node000019" class="edge">
<title>Node14&#45;&gt;Node19</title>
<g id="a_edge19_Node000014_Node000019"><a xlink:title=" ">
<path fill="none" stroke="#63b8ff" d="M178.87,-54.84C163.34,-46.66 140.2,-34.46 122.16,-24.94"/>
<polygon fill="#63b8ff" stroke="#63b8ff" points="124.03,-21.98 113.56,-20.41 120.77,-28.17 124.03,-21.98"/>
</a>
</g>
</g>
<!-- Node20&#45;&gt;Node6 -->
<g id="edge22_Node000020_Node000006" class="edge">
<title>Node20&#45;&gt;Node6</title>
<g id="a_edge22_Node000020_Node000006"><a xlink:title=" ">
<path fill="none" stroke="#63b8ff" d="M295.05,-110.31C301.52,-97.02 315.27,-71.65 333,-55.25 346.89,-42.41 365.15,-31.93 380.81,-24.37"/>
<polygon fill="#63b8ff" stroke="#63b8ff" points="382.17,-27.6 389.79,-20.24 379.24,-21.24 382.17,-27.6"/>
</a>
</g>
</g>
<!-- Node20&#45;&gt;Node14 -->
<g id="edge21_Node000020_Node000014" class="edge">
<title>Node20&#45;&gt;Node14</title>
<g id="a_edge21_Node000020_Node000014"><a xlink:title=" ">
<path fill="none" stroke="#63b8ff" d="M274.88,-110.09C260.42,-101.98 238.92,-89.93 222.02,-80.46"/>
<polygon fill="#63b8ff" stroke="#63b8ff" points="223.95,-77.53 213.51,-75.69 220.53,-83.64 223.95,-77.53"/>
</a>
</g>
</g>
<!-- Node20&#45;&gt;Node18 -->
<g id="edge23_Node000020_Node000018" class="edge">
<title>Node20&#45;&gt;Node18</title>
<g id="a_edge23_Node000020_Node000018"><a xlink:title=" ">
<path fill="none" stroke="#63b8ff" d="M292.15,-110.25C294.37,-93 299.33,-54.58 302.39,-30.81"/>
<polygon fill="#63b8ff" stroke="#63b8ff" points="305.84,-31.49 303.64,-21.13 298.89,-30.6 305.84,-31.49"/>
</a>
</g>
</g>
<!-- Node20&#45;&gt;Node21 -->
<g id="edge24_Node000020_Node000021" class="edge">
<title>Node20&#45;&gt;Node21</title>
<g id="a_edge24_Node000020_Node000021"><a xlink:title=" ">
<path fill="none" stroke="#63b8ff" d="M303.38,-110.09C314.15,-102.24 329.97,-90.7 342.75,-81.37"/>
<polygon fill="#63b8ff" stroke="#63b8ff" points="344.56,-84.39 350.58,-75.67 340.44,-78.73 344.56,-84.39"/>
</a>
</g>
</g>
<!-- Node22&#45;&gt;Node6 -->
<g id="edge30_Node000022_Node000006" class="edge">
<title>Node22&#45;&gt;Node6</title>
<g id="a_edge30_Node000022_Node000006"><a xlink:title=" ">
<path fill="none" stroke="#63b8ff" d="M546.84,-110.06C524.29,-102.74 494.17,-90.93 471,-74.5 453.25,-61.91 437.15,-42.82 426.63,-28.79"/>
<polygon fill="#63b8ff" stroke="#63b8ff" points="429.59,-26.91 420.89,-20.85 423.92,-31.01 429.59,-26.91"/>
</a>
</g>
</g>
<!-- Node22&#45;&gt;Node7 -->
<g id="edge31_Node000022_Node000007" class="edge">
<title>Node22&#45;&gt;Node7</title>
<g id="a_edge31_Node000022_Node000007"><a xlink:title=" ">
<path fill="none" stroke="#63b8ff" d="M577.68,-110.33C576.69,-103.74 575.29,-94.46 574.03,-86.07"/>
<polygon fill="#63b8ff" stroke="#63b8ff" points="577.52,-85.72 572.57,-76.36 570.6,-86.76 577.52,-85.72"/>
</a>
</g>
</g>
</g>
</svg>
