<?xml version="1.0" encoding="UTF-8" standalone="no"?>
<!DOCTYPE svg PUBLIC "-//W3C//DTD SVG 1.1//EN"
 "http://www.w3.org/Graphics/SVG/1.1/DTD/svg11.dtd">
<!-- Generated by graphviz version 12.2.0 (20241103.1931)
 -->
<!-- Title: bcnp/telemetry_accumulator.h Pages: 1 -->
<!--zoomable 248 -->

<svg id="main" version="1.1" xmlns="http://www.w3.org/2000/svg" xmlns:xlink="http://www.w3.org/1999/xlink" xml:space="preserve" onload="init(evt)">

<style type="text/css"><![CDATA[
.node, .edge {opacity: 0.7;}
.node.selected, .edge.selected {opacity: 1;}
.edge:hover path { stroke: red; }
.edge:hover polygon { stroke: red; fill: red; }
]]></style>

<defs>
  <circle id="rim" cx="0" cy="0" r="7"/>
  <circle id="rim2" cx="0" cy="0" r="3.5"/>
  <g id="zoomPlus">
    <use xlink:href="#rim" fill="#404040"><set attributeName="fill" to="#808080" begin="zoomplus.mouseover" end="zoomplus.mouseout"/></use>
    <path d="M-4,0h8M0,-4v8" fill="none" stroke="white" stroke-width="1.5" pointer-events="none"/>
  </g>
  <g id="zoomMin">
    <use xlink:href="#rim" fill="#404040"><set attributeName="fill" to="#808080" begin="zoomminus.mouseover" end="zoomminus.mouseout"/></use>
    <path d="M-4,0h8" fill="none" stroke="white" stroke-width="1.5" pointer-events="none"/>
  </g>
  <g id="arrowUp" transform="translate(30 24)">
    <use xlink:href="#rim"/>
    <path pointer-events="none" fill="none" stroke="white" stroke-width="1.5" d="M0,-3.0v7 M-2.5,-0.5L0,-3.0L2.5,-0.5"/>
  </g>
  <g id="arrowRight" transform="rotate(90) translate(36 -43)">
    <use xlink:href="#rim"/>
    <path pointer-events="none" fill="none" stroke="white" stroke-width="1.5" d="M0,-3.0v7 M-2.5,-0.5L0,-3.0L2.5,-0.5"/>
  </g>
  <g id="arrowDown" transform="rotate(180) translate(-30 -48)">
    <use xlink:href="#rim"/>
    <path pointer-events="none" fill="none" stroke="white" stroke-width="1.5" d="M0,-3.0v7 M-2.5,-0.5L0,-3.0L2.5,-0.5"/>
  </g>
  <g id="arrowLeft" transform="rotate(270) translate(-36 17)">
    <use xlink:href="#rim"/>
    <path pointer-events="none" fill="none" stroke="white" stroke-width="1.5" d="M0,-3.0v7 M-2.5,-0.5L0,-3.0L2.5,-0.5"/>
  </g>
  <g id="resetDef">
    <use xlink:href="#rim2" fill="#404040"><set attributeName="fill" to="#808080" begin="reset.mouseover" end="reset.mouseout"/></use>
  </g>
</defs>
<script type="application/ecmascript">
var viewWidth = 1141;
var viewHeight = 248;
var sectionId = 'dynsection-0';
</script>
<script type="application/ecmascript" xlink:href="svg.min.js"/>
<svg id="graph" class="graph">
<g id="viewport">
<title>bcnp/telemetry_accumulator.h</title>
<!-- Node1 -->
<g id="Node000001" class="node">
<title>Node1</title>
<g id="a_Node000001"><a xlink:title=" ">
<polygon fill="#999999" stroke="#666666" points="944.62,-240.25 798.88,-240.25 798.88,-221 944.62,-221 944.62,-240.25"/>
<text text-anchor="middle" x="871.75" y="-226.75" font-family="Helvetica,sans-Serif" font-size="10.00">bcnp/telemetry_accumulator.h</text>
</a>
</g>
</g>
<!-- Node2 -->
<g id="Node000002" class="node">
<title>Node2</title>
<g id="a_Node000002"><a xlink:href="packet_8h.html" target="_top" xlink:title="BCNP packet structures, encoding, and decoding utilities.">
<polygon fill="white" stroke="#666666" points="554.12,-185 477.38,-185 477.38,-165.75 554.12,-165.75 554.12,-185"/>
<text text-anchor="middle" x="515.75" y="-171.5" font-family="Helvetica,sans-Serif" font-size="10.00">bcnp/packet.h</text>
</a>
</g>
</g>
<!-- Node1&#45;&gt;Node2 -->
<g id="edge1_Node000001_Node000002" class="edge">
<title>Node1&#45;&gt;Node2</title>
<g id="a_edge1_Node000001_Node000002"><a xlink:title=" ">
<path fill="none" stroke="#63b8ff" d="M810.96,-220.53C741.73,-210.18 629.94,-193.46 565.62,-183.83"/>
<polygon fill="#63b8ff" stroke="#63b8ff" points="566.48,-180.42 556.07,-182.41 565.44,-187.35 566.48,-180.42"/>
</a>
</g>
</g>
<!-- Node5 -->
<g id="Node000005" class="node">
<title>Node5</title>
<g id="a_Node000005"><a xlink:title=" ">
<polygon fill="#e0e0e0" stroke="#999999" points="438.88,-19.25 390.62,-19.25 390.62,0 438.88,0 438.88,-19.25"/>
<text text-anchor="middle" x="414.75" y="-5.75" font-family="Helvetica,sans-Serif" font-size="10.00">cstddef</text>
</a>
</g>
</g>
<!-- Node1&#45;&gt;Node5 -->
<g id="edge29_Node000001_Node000005" class="edge">
<title>Node1&#45;&gt;Node5</title>
<g id="a_edge29_Node000001_Node000005"><a xlink:title=" ">
<path fill="none" stroke="#63b8ff" d="M885.04,-220.66C923.8,-193.5 1030.87,-110.56 979.75,-55.25 943.84,-16.39 569.35,-11.33 450.64,-10.7"/>
<polygon fill="#63b8ff" stroke="#63b8ff" points="450.86,-7.2 440.85,-10.66 450.83,-14.2 450.86,-7.2"/>
</a>
</g>
</g>
<!-- Node6 -->
<g id="Node000006" class="node">
<title>Node6</title>
<g id="a_Node000006"><a xlink:title=" ">
<polygon fill="#e0e0e0" stroke="#999999" points="894.38,-74.5 849.12,-74.5 849.12,-55.25 894.38,-55.25 894.38,-74.5"/>
<text text-anchor="middle" x="871.75" y="-61" font-family="Helvetica,sans-Serif" font-size="10.00">cstdint</text>
</a>
</g>
</g>
<!-- Node1&#45;&gt;Node6 -->
<g id="edge30_Node000001_Node000006" class="edge">
<title>Node1&#45;&gt;Node6</title>
<g id="a_edge30_Node000001_Node000006"><a xlink:title=" ">
<path fill="none" stroke="#63b8ff" d="M871.75,-220.82C871.75,-195.5 871.75,-122 871.75,-86.09"/>
<polygon fill="#63b8ff" stroke="#63b8ff" points="875.25,-86.24 871.75,-76.24 868.25,-86.24 875.25,-86.24"/>
</a>
</g>
</g>
<!-- Node9 -->
<g id="Node000009" class="node">
<title>Node9</title>
<g id="a_Node000009"><a xlink:title=" ">
<polygon fill="#e0e0e0" stroke="#999999" points="970.75,-74.5 912.75,-74.5 912.75,-55.25 970.75,-55.25 970.75,-74.5"/>
<text text-anchor="middle" x="941.75" y="-61" font-family="Helvetica,sans-Serif" font-size="10.00">functional</text>
</a>
</g>
</g>
<!-- Node1&#45;&gt;Node9 -->
<g id="edge31_Node000001_Node000009" class="edge">
<title>Node1&#45;&gt;Node9</title>
<g id="a_edge31_Node000001_Node000009"><a xlink:title=" ">
<path fill="none" stroke="#63b8ff" d="M875.51,-220.82C886.43,-195.28 918.31,-120.7 933.51,-85.15"/>
<polygon fill="#63b8ff" stroke="#63b8ff" points="936.66,-86.69 937.37,-76.11 930.22,-83.93 936.66,-86.69"/>
</a>
</g>
</g>
<!-- Node13 -->
<g id="Node000013" class="node">
<title>Node13</title>
<g id="a_Node000013"><a xlink:href="static__vector_8h.html" target="_top" xlink:title="Fixed&#45;capacity vector with stack allocation (no heap).">
<polygon fill="white" stroke="#666666" points="207.62,-74.5 103.88,-74.5 103.88,-55.25 207.62,-55.25 207.62,-74.5"/>
<text text-anchor="middle" x="155.75" y="-61" font-family="Helvetica,sans-Serif" font-size="10.00">bcnp/static_vector.h</text>
</a>
</g>
</g>
<!-- Node1&#45;&gt;Node13 -->
<g id="edge27_Node000001_Node000013" class="edge">
<title>Node1&#45;&gt;Node13</title>
<g id="a_edge27_Node000001_Node000013"><a xlink:title=" ">
<path fill="none" stroke="#63b8ff" d="M798.54,-226.6C669.54,-220.78 406.94,-206.67 317.75,-185 255.95,-169.98 231.67,-173.75 185.75,-129.75 173.3,-117.82 165.47,-99.7 160.94,-85.8"/>
<polygon fill="#63b8ff" stroke="#63b8ff" points="164.36,-85.01 158.21,-76.39 157.64,-86.97 164.36,-85.01"/>
</a>
</g>
</g>
<!-- Node17 -->
<g id="Node000017" class="node">
<title>Node17</title>
<g id="a_Node000017"><a xlink:href="packet__storage_8h.html" target="_top" xlink:title=" ">
<polygon fill="white" stroke="#666666" points="336.88,-129.75 222.62,-129.75 222.62,-110.5 336.88,-110.5 336.88,-129.75"/>
<text text-anchor="middle" x="279.75" y="-116.25" font-family="Helvetica,sans-Serif" font-size="10.00">bcnp/packet_storage.h</text>
</a>
</g>
</g>
<!-- Node1&#45;&gt;Node17 -->
<g id="edge26_Node000001_Node000017" class="edge">
<title>Node1&#45;&gt;Node17</title>
<g id="a_edge26_Node000001_Node000017"><a xlink:title=" ">
<path fill="none" stroke="#63b8ff" d="M798.56,-229.05C674.62,-227.14 429.25,-219.03 350.75,-185 327.32,-174.84 306.38,-153.78 293.42,-138.62"/>
<polygon fill="#63b8ff" stroke="#63b8ff" points="296.43,-136.78 287.39,-131.26 291.02,-141.21 296.43,-136.78"/>
</a>
</g>
</g>
<!-- Node19 -->
<g id="Node000019" class="node">
<title>Node19</title>
<g id="a_Node000019"><a xlink:title=" ">
<polygon fill="#e0e0e0" stroke="#999999" points="386.25,-74.5 343.25,-74.5 343.25,-55.25 386.25,-55.25 386.25,-74.5"/>
<text text-anchor="middle" x="364.75" y="-61" font-family="Helvetica,sans-Serif" font-size="10.00">vector</text>
</a>
</g>
</g>
<!-- Node1&#45;&gt;Node19 -->
<g id="edge33_Node000001_Node000019" class="edge">
<title>Node1&#45;&gt;Node19</title>
<g id="a_edge33_Node000001_Node000019"><a xlink:title=" ">
<path fill="none" stroke="#63b8ff" d="M798.74,-225.59C699.53,-219.43 527.74,-206.09 468.75,-185 426.32,-169.83 410.72,-165.84 383.75,-129.75 374.2,-116.97 369.42,-99.42 367.05,-85.95"/>
<polygon fill="#63b8ff" stroke="#63b8ff" points="370.52,-85.48 365.65,-76.07 363.59,-86.46 370.52,-85.48"/>
</a>
</g>
</g>
<!-- Node21 -->
<g id="Node000021" class="node">
<title>Node21</title>
<g id="a_Node000021"><a xlink:title=" ">
<polygon fill="#e0e0e0" stroke="#999999" points="1072.38,-185 1027.12,-185 1027.12,-165.75 1072.38,-165.75 1072.38,-185"/>
<text text-anchor="middle" x="1049.75" y="-171.5" font-family="Helvetica,sans-Serif" font-size="10.00">chrono</text>
</a>
</g>
</g>
<!-- Node1&#45;&gt;Node21 -->
<g id="edge28_Node000001_Node000021" class="edge">
<title>Node1&#45;&gt;Node21</title>
<g id="a_edge28_Node000001_Node000021"><a xlink:title=" ">
<path fill="none" stroke="#63b8ff" d="M901.95,-220.59C933.53,-211.14 983.01,-196.34 1015.9,-186.5"/>
<polygon fill="#63b8ff" stroke="#63b8ff" points="1016.75,-189.9 1025.33,-183.68 1014.75,-183.19 1016.75,-189.9"/>
</a>
</g>
</g>
<!-- Node22 -->
<g id="Node000022" class="node">
<title>Node22</title>
<g id="a_Node000022"><a xlink:title=" ">
<polygon fill="#e0e0e0" stroke="#999999" points="1132.88,-185 1090.62,-185 1090.62,-165.75 1132.88,-165.75 1132.88,-185"/>
<text text-anchor="middle" x="1111.75" y="-171.5" font-family="Helvetica,sans-Serif" font-size="10.00">mutex</text>
</a>
</g>
</g>
<!-- Node1&#45;&gt;Node22 -->
<g id="edge32_Node000001_Node000022" class="edge">
<title>Node1&#45;&gt;Node22</title>
<g id="a_edge32_Node000001_Node000022"><a xlink:title=" ">
<path fill="none" stroke="#63b8ff" d="M919.09,-220.56C959.38,-212.62 1019.01,-200.35 1079.31,-185.48"/>
<polygon fill="#63b8ff" stroke="#63b8ff" points="1079.84,-188.96 1088.7,-183.14 1078.15,-182.16 1079.84,-188.96"/>
</a>
</g>
</g>
<!-- Node3 -->
<g id="Node000003" class="node">
<title>Node3</title>
<g id="a_Node000003"><a xlink:href="message__types_8h.html" target="_top" xlink:title=" ">
<polygon fill="white" stroke="#666666" points="709.62,-129.75 593.88,-129.75 593.88,-110.5 709.62,-110.5 709.62,-129.75"/>
<text text-anchor="middle" x="651.75" y="-116.25" font-family="Helvetica,sans-Serif" font-size="10.00">bcnp/message_types.h</text>
</a>
</g>
</g>
<!-- Node2&#45;&gt;Node3 -->
<g id="edge2_Node000002_Node000003" class="edge">
<title>Node2&#45;&gt;Node3</title>
<g id="a_edge2_Node000002_Node000003"><a xlink:title=" ">
<path fill="none" stroke="#63b8ff" d="M538.82,-165.34C560.51,-156.85 593.23,-144.04 617.88,-134.39"/>
<polygon fill="#63b8ff" stroke="#63b8ff" points="619.12,-137.66 627.16,-130.75 616.57,-131.14 619.12,-137.66"/>
</a>
</g>
</g>
<!-- Node2&#45;&gt;Node5 -->
<g id="edge23_Node000002_Node000005" class="edge">
<title>Node2&#45;&gt;Node5</title>
<g id="a_edge23_Node000002_Node000005"><a xlink:title=" ">
<path fill="none" stroke="#63b8ff" d="M515.51,-165.26C514.74,-152.03 511.68,-127.27 499.75,-110.5 482.81,-86.69 463.91,-96.56 444.75,-74.5 433.44,-61.48 425.5,-43.47 420.64,-29.89"/>
<polygon fill="#63b8ff" stroke="#63b8ff" points="424.09,-29.17 417.63,-20.77 417.44,-31.36 424.09,-29.17"/>
</a>
</g>
</g>
<!-- Node2&#45;&gt;Node6 -->
<g id="edge24_Node000002_Node000006" class="edge">
<title>Node2&#45;&gt;Node6</title>
<g id="a_edge24_Node000002_Node000006"><a xlink:title=" ">
<path fill="none" stroke="#63b8ff" d="M554.45,-168C595.7,-160.71 662.66,-147.47 718.75,-129.75 763.24,-115.7 812.73,-93.83 843.05,-79.68"/>
<polygon fill="#63b8ff" stroke="#63b8ff" points="844.39,-82.92 851.94,-75.49 841.4,-76.59 844.39,-82.92"/>
</a>
</g>
</g>
<!-- Node2&#45;&gt;Node13 -->
<g id="edge12_Node000002_Node000013" class="edge">
<title>Node2&#45;&gt;Node13</title>
<g id="a_edge12_Node000002_Node000013"><a xlink:title=" ">
<path fill="none" stroke="#63b8ff" d="M476.98,-171.89C406.07,-166.83 258.64,-153.7 213.75,-129.75 193.78,-119.09 177.17,-98.76 166.92,-83.89"/>
<polygon fill="#63b8ff" stroke="#63b8ff" points="170.11,-82.37 161.7,-75.92 164.25,-86.2 170.11,-82.37"/>
</a>
</g>
</g>
<!-- Node2&#45;&gt;Node17 -->
<g id="edge17_Node000002_Node000017" class="edge">
<title>Node2&#45;&gt;Node17</title>
<g id="a_edge17_Node000002_Node000017"><a xlink:title=" ">
<path fill="none" stroke="#63b8ff" d="M477.04,-165.64C437.23,-156.66 374.99,-142.61 331.08,-132.71"/>
<polygon fill="#63b8ff" stroke="#63b8ff" points="332.06,-129.34 321.53,-130.55 330.52,-136.17 332.06,-129.34"/>
</a>
</g>
</g>
<!-- Node2&#45;&gt;Node19 -->
<g id="edge25_Node000002_Node000019" class="edge">
<title>Node2&#45;&gt;Node19</title>
<g id="a_edge25_Node000002_Node000019"><a xlink:title=" ">
<path fill="none" stroke="#63b8ff" d="M512.54,-165.26C507.3,-151.58 495.63,-125.72 477.75,-110.5 465.2,-99.82 425.87,-85.55 397.13,-76.05"/>
<polygon fill="#63b8ff" stroke="#63b8ff" points="398.36,-72.78 387.77,-73.01 396.2,-79.43 398.36,-72.78"/>
</a>
</g>
</g>
<!-- Node20 -->
<g id="Node000020" class="node">
<title>Node20</title>
<g id="a_Node000020"><a xlink:title=" ">
<polygon fill="#e0e0e0" stroke="#999999" points="469.12,-129.75 392.38,-129.75 392.38,-110.5 469.12,-110.5 469.12,-129.75"/>
<text text-anchor="middle" x="430.75" y="-116.25" font-family="Helvetica,sans-Serif" font-size="10.00">crab/prelude.h</text>
</a>
</g>
</g>
<!-- Node2&#45;&gt;Node20 -->
<g id="edge22_Node000002_Node000020" class="edge">
<title>Node2&#45;&gt;Node20</title>
<g id="a_edge22_Node000002_Node000020"><a xlink:title=" ">
<path fill="none" stroke="#63b8ff" d="M501.33,-165.34C488.63,-157.39 469.88,-145.64 454.89,-136.25"/>
<polygon fill="#63b8ff" stroke="#63b8ff" points="456.85,-133.35 446.52,-131.01 453.14,-139.28 456.85,-133.35"/>
</a>
</g>
</g>
<!-- Node4 -->
<g id="Node000004" class="node">
<title>Node4</title>
<g id="a_Node000004"><a xlink:title=" ">
<polygon fill="#e0e0e0" stroke="#999999" points="581.25,-74.5 544.25,-74.5 544.25,-55.25 581.25,-55.25 581.25,-74.5"/>
<text text-anchor="middle" x="562.75" y="-61" font-family="Helvetica,sans-Serif" font-size="10.00">array</text>
</a>
</g>
</g>
<!-- Node3&#45;&gt;Node4 -->
<g id="edge3_Node000003_Node000004" class="edge">
<title>Node3&#45;&gt;Node4</title>
<g id="a_edge3_Node000003_Node000004"><a xlink:title=" ">
<path fill="none" stroke="#63b8ff" d="M636.65,-110.09C623.23,-102.06 603.34,-90.16 587.58,-80.73"/>
<polygon fill="#63b8ff" stroke="#63b8ff" points="589.6,-77.86 579.22,-75.73 586,-83.87 589.6,-77.86"/>
</a>
</g>
</g>
<!-- Node3&#45;&gt;Node5 -->
<g id="edge4_Node000003_Node000005" class="edge">
<title>Node3&#45;&gt;Node5</title>
<g id="a_edge4_Node000003_Node000005"><a xlink:title=" ">
<path fill="none" stroke="#63b8ff" d="M593.66,-113.62C556.64,-108.04 508.83,-96.86 471.75,-74.5 452.9,-63.14 436.79,-43.55 426.55,-29.05"/>
<polygon fill="#63b8ff" stroke="#63b8ff" points="429.52,-27.19 421.03,-20.85 423.71,-31.1 429.52,-27.19"/>
</a>
</g>
</g>
<!-- Node3&#45;&gt;Node6 -->
<g id="edge5_Node000003_Node000006" class="edge">
<title>Node3&#45;&gt;Node6</title>
<g id="a_edge5_Node000003_Node000006"><a xlink:title=" ">
<path fill="none" stroke="#63b8ff" d="M691.45,-110.07C727.25,-101.82 781.61,-89.1 837.81,-74.93"/>
<polygon fill="#63b8ff" stroke="#63b8ff" points="838.4,-78.4 847.23,-72.55 836.68,-71.61 838.4,-78.4"/>
</a>
</g>
</g>
<!-- Node7 -->
<g id="Node000007" class="node">
<title>Node7</title>
<g id="a_Node000007"><a xlink:title=" ">
<polygon fill="#e0e0e0" stroke="#999999" points="642.25,-74.5 599.25,-74.5 599.25,-55.25 642.25,-55.25 642.25,-74.5"/>
<text text-anchor="middle" x="620.75" y="-61" font-family="Helvetica,sans-Serif" font-size="10.00">cmath</text>
</a>
</g>
</g>
<!-- Node3&#45;&gt;Node7 -->
<g id="edge6_Node000003_Node000007" class="edge">
<title>Node3&#45;&gt;Node7</title>
<g id="a_edge6_Node000003_Node000007"><a xlink:title=" ">
<path fill="none" stroke="#63b8ff" d="M646.63,-110.33C642.57,-103.36 636.76,-93.37 631.66,-84.62"/>
<polygon fill="#63b8ff" stroke="#63b8ff" points="634.8,-83.05 626.74,-76.17 628.75,-86.57 634.8,-83.05"/>
</a>
</g>
</g>
<!-- Node8 -->
<g id="Node000008" class="node">
<title>Node8</title>
<g id="a_Node000008"><a xlink:title=" ">
<polygon fill="#e0e0e0" stroke="#999999" points="705.38,-74.5 660.12,-74.5 660.12,-55.25 705.38,-55.25 705.38,-74.5"/>
<text text-anchor="middle" x="682.75" y="-61" font-family="Helvetica,sans-Serif" font-size="10.00">cstring</text>
</a>
</g>
</g>
<!-- Node3&#45;&gt;Node8 -->
<g id="edge7_Node000003_Node000008" class="edge">
<title>Node3&#45;&gt;Node8</title>
<g id="a_edge7_Node000003_Node000008"><a xlink:title=" ">
<path fill="none" stroke="#63b8ff" d="M656.87,-110.33C660.93,-103.36 666.74,-93.37 671.84,-84.62"/>
<polygon fill="#63b8ff" stroke="#63b8ff" points="674.75,-86.57 676.76,-76.17 668.7,-83.05 674.75,-86.57"/>
</a>
</g>
</g>
<!-- Node3&#45;&gt;Node9 -->
<g id="edge8_Node000003_Node000009" class="edge">
<title>Node3&#45;&gt;Node9</title>
<g id="a_edge8_Node000003_Node000009"><a xlink:title=" ">
<path fill="none" stroke="#63b8ff" d="M707.45,-110.05C756.11,-101.94 828.92,-89.39 901.2,-74.94"/>
<polygon fill="#63b8ff" stroke="#63b8ff" points="901.73,-78.4 910.84,-73 900.34,-71.54 901.73,-78.4"/>
</a>
</g>
</g>
<!-- Node10 -->
<g id="Node000010" class="node">
<title>Node10</title>
<g id="a_Node000010"><a xlink:title=" ">
<polygon fill="#e0e0e0" stroke="#999999" points="762.38,-74.5 723.12,-74.5 723.12,-55.25 762.38,-55.25 762.38,-74.5"/>
<text text-anchor="middle" x="742.75" y="-61" font-family="Helvetica,sans-Serif" font-size="10.00">limits</text>
</a>
</g>
</g>
<!-- Node3&#45;&gt;Node10 -->
<g id="edge9_Node000003_Node000010" class="edge">
<title>Node3&#45;&gt;Node10</title>
<g id="a_edge9_Node000003_Node000010"><a xlink:title=" ">
<path fill="none" stroke="#63b8ff" d="M667.19,-110.09C680.91,-102.06 701.25,-90.16 717.37,-80.73"/>
<polygon fill="#63b8ff" stroke="#63b8ff" points="719.07,-83.79 725.93,-75.72 715.53,-77.75 719.07,-83.79"/>
</a>
</g>
</g>
<!-- Node11 -->
<g id="Node000011" class="node">
<title>Node11</title>
<g id="a_Node000011"><a xlink:title=" ">
<polygon fill="#e0e0e0" stroke="#999999" points="830.62,-74.5 780.88,-74.5 780.88,-55.25 830.62,-55.25 830.62,-74.5"/>
<text text-anchor="middle" x="805.75" y="-61" font-family="Helvetica,sans-Serif" font-size="10.00">optional</text>
</a>
</g>
</g>
<!-- Node3&#45;&gt;Node11 -->
<g id="edge10_Node000003_Node000011" class="edge">
<title>Node3&#45;&gt;Node11</title>
<g id="a_edge10_Node000003_Node000011"><a xlink:title=" ">
<path fill="none" stroke="#63b8ff" d="M677.87,-110.09C703.18,-101.34 741.75,-88.01 769.91,-78.27"/>
<polygon fill="#63b8ff" stroke="#63b8ff" points="770.78,-81.67 779.09,-75.09 768.5,-75.05 770.78,-81.67"/>
</a>
</g>
</g>
<!-- Node12 -->
<g id="Node000012" class="node">
<title>Node12</title>
<g id="a_Node000012"><a xlink:title=" ">
<polygon fill="#e0e0e0" stroke="#999999" points="526.38,-74.5 481.12,-74.5 481.12,-55.25 526.38,-55.25 526.38,-74.5"/>
<text text-anchor="middle" x="503.75" y="-61" font-family="Helvetica,sans-Serif" font-size="10.00">variant</text>
</a>
</g>
</g>
<!-- Node3&#45;&gt;Node12 -->
<g id="edge11_Node000003_Node000012" class="edge">
<title>Node3&#45;&gt;Node12</title>
<g id="a_edge11_Node000003_Node000012"><a xlink:title=" ">
<path fill="none" stroke="#63b8ff" d="M626.64,-110.09C602,-101.22 564.26,-87.65 537.1,-77.88"/>
<polygon fill="#63b8ff" stroke="#63b8ff" points="538.56,-74.68 527.97,-74.59 536.19,-81.27 538.56,-74.68"/>
</a>
</g>
</g>
<!-- Node13&#45;&gt;Node5 -->
<g id="edge14_Node000013_Node000005" class="edge">
<title>Node13&#45;&gt;Node5</title>
<g id="a_edge14_Node000013_Node000005"><a xlink:title=" ">
<path fill="none" stroke="#63b8ff" d="M199.98,-54.78C250.59,-44.38 332.49,-27.54 379.16,-17.94"/>
<polygon fill="#63b8ff" stroke="#63b8ff" points="379.66,-21.41 388.75,-15.97 378.25,-14.56 379.66,-21.41"/>
</a>
</g>
</g>
<!-- Node14 -->
<g id="Node000014" class="node">
<title>Node14</title>
<g id="a_Node000014"><a xlink:title=" ">
<polygon fill="#e0e0e0" stroke="#999999" points="101.5,-19.25 0,-19.25 0,0 101.5,0 101.5,-19.25"/>
<text text-anchor="middle" x="50.75" y="-5.75" font-family="Helvetica,sans-Serif" font-size="10.00">crab/static_vector.h</text>
</a>
</g>
</g>
<!-- Node13&#45;&gt;Node14 -->
<g id="edge13_Node000013_Node000014" class="edge">
<title>Node13&#45;&gt;Node14</title>
<g id="a_edge13_Node000013_Node000014"><a xlink:title=" ">
<path fill="none" stroke="#63b8ff" d="M137.94,-54.84C121.72,-46.62 97.51,-34.34 78.72,-24.81"/>
<polygon fill="#63b8ff" stroke="#63b8ff" points="80.5,-21.79 70,-20.39 77.33,-28.03 80.5,-21.79"/>
</a>
</g>
</g>
<!-- Node15 -->
<g id="Node000015" class="node">
<title>Node15</title>
<g id="a_Node000015"><a xlink:title=" ">
<polygon fill="#e0e0e0" stroke="#999999" points="191.5,-19.25 120,-19.25 120,0 191.5,0 191.5,-19.25"/>
<text text-anchor="middle" x="155.75" y="-5.75" font-family="Helvetica,sans-Serif" font-size="10.00">initializer_list</text>
</a>
</g>
</g>
<!-- Node13&#45;&gt;Node15 -->
<g id="edge15_Node000013_Node000015" class="edge">
<title>Node13&#45;&gt;Node15</title>
<g id="a_edge15_Node000013_Node000015"><a xlink:title=" ">
<path fill="none" stroke="#63b8ff" d="M155.75,-55.08C155.75,-48.57 155.75,-39.42 155.75,-31.12"/>
<polygon fill="#63b8ff" stroke="#63b8ff" points="159.25,-31.12 155.75,-21.12 152.25,-31.12 159.25,-31.12"/>
</a>
</g>
</g>
<!-- Node16 -->
<g id="Node000016" class="node">
<title>Node16</title>
<g id="a_Node000016"><a xlink:title=" ">
<polygon fill="#e0e0e0" stroke="#999999" points="267.75,-19.25 209.75,-19.25 209.75,0 267.75,0 267.75,-19.25"/>
<text text-anchor="middle" x="238.75" y="-5.75" font-family="Helvetica,sans-Serif" font-size="10.00">stdexcept</text>
</a>
</g>
</g>
<!-- Node13&#45;&gt;Node16 -->
<g id="edge16_Node000013_Node000016" class="edge">
<title>Node13&#45;&gt;Node16</title>
<g id="a_edge16_Node000013_Node000016"><a xlink:title=" ">
<path fill="none" stroke="#63b8ff" d="M169.83,-54.84C182.23,-46.89 200.54,-35.14 215.18,-25.75"/>
<polygon fill="#63b8ff" stroke="#63b8ff" points="216.8,-28.87 223.33,-20.52 213.02,-22.97 216.8,-28.87"/>
</a>
</g>
</g>
<!-- Node17&#45;&gt;Node5 -->
<g id="edge19_Node000017_Node000005" class="edge">
<title>Node17&#45;&gt;Node5</title>
<g id="a_edge19_Node000017_Node000005"><a xlink:title=" ">
<path fill="none" stroke="#63b8ff" d="M285.55,-110.4C294.64,-97.22 313.3,-72 333.75,-55.25 348.69,-43.02 367.46,-32.43 383.18,-24.64"/>
<polygon fill="#63b8ff" stroke="#63b8ff" points="384.6,-27.84 392.11,-20.36 381.58,-21.52 384.6,-27.84"/>
</a>
</g>
</g>
<!-- Node17&#45;&gt;Node13 -->
<g id="edge18_Node000017_Node000013" class="edge">
<title>Node17&#45;&gt;Node13</title>
<g id="a_edge18_Node000017_Node000013"><a xlink:title=" ">
<path fill="none" stroke="#63b8ff" d="M258.72,-110.09C239.12,-101.68 209.64,-89.02 187.24,-79.4"/>
<polygon fill="#63b8ff" stroke="#63b8ff" points="188.85,-76.28 178.28,-75.55 186.09,-82.71 188.85,-76.28"/>
</a>
</g>
</g>
<!-- Node18 -->
<g id="Node000018" class="node">
<title>Node18</title>
<g id="a_Node000018"><a xlink:title=" ">
<polygon fill="#e0e0e0" stroke="#999999" points="286.25,-74.5 225.25,-74.5 225.25,-55.25 286.25,-55.25 286.25,-74.5"/>
<text text-anchor="middle" x="255.75" y="-61" font-family="Helvetica,sans-Serif" font-size="10.00">type_traits</text>
</a>
</g>
</g>
<!-- Node17&#45;&gt;Node18 -->
<g id="edge20_Node000017_Node000018" class="edge">
<title>Node17&#45;&gt;Node18</title>
<g id="a_edge20_Node000017_Node000018"><a xlink:title=" ">
<path fill="none" stroke="#63b8ff" d="M275.79,-110.33C272.71,-103.51 268.34,-93.81 264.46,-85.2"/>
<polygon fill="#63b8ff" stroke="#63b8ff" points="267.72,-83.92 260.42,-76.24 261.34,-86.79 267.72,-83.92"/>
</a>
</g>
</g>
<!-- Node17&#45;&gt;Node19 -->
<g id="edge21_Node000017_Node000019" class="edge">
<title>Node17&#45;&gt;Node19</title>
<g id="a_edge21_Node000017_Node000019"><a xlink:title=" ">
<path fill="none" stroke="#63b8ff" d="M294.17,-110.09C306.87,-102.14 325.62,-90.39 340.61,-81"/>
<polygon fill="#63b8ff" stroke="#63b8ff" points="342.36,-84.03 348.98,-75.76 338.65,-78.1 342.36,-84.03"/>
</a>
</g>
</g>
</g>
</svg>

<g id="navigator" transform="translate(0 0)" fill="#404254">
  <rect fill="#f2f5e9" fill-opacity="0.5" stroke="#606060" stroke-width=".5" x="0" y="0" width="60" height="60"/>
  <use id="zoomplus" xlink:href="#zoomPlus" x="17" y="9" onmousedown="handleZoom(evt,'in')"/>
  <use id="zoomminus" xlink:href="#zoomMin" x="42" y="9" onmousedown="handleZoom(evt,'out')"/>
  <use id="reset" xlink:href="#resetDef" x="30" y="36" onmousedown="handleReset()"/>
   <use id="arrowup" xlink:href="#arrowUp" x="0" y="0" onmousedown="handlePan(0,-1)"/>
  <use id="arrowright" xlink:href="#arrowRight" x="0" y="0" onmousedown="handlePan(1,0)"/>
  <use id="arrowdown" xlink:href="#arrowDown" x="0" y="0" onmousedown="handlePan(0,1)"/>
  <use id="arrowleft" xlink:href="#arrowLeft" x="0" y="0" onmousedown="handlePan(-1,0)"/>
</g>
<svg viewBox="0 0 15 15" width="100%" height="30px" preserveAspectRatio="xMaxYMin meet">
 <g id="arrow_out" transform="scale(0.3 0.3)">
  <a xlink:href="telemetry__accumulator_8h__incl_org.svg" target="_base">
   <rect id="button" ry="5" rx="5" y="6" x="6" height="38" width="38"
        fill="#f2f5e9" fill-opacity="0.5" stroke="#606060" stroke-width="1.0"/>
   <path id="arrow"
     d="M 11.500037,31.436501 C 11.940474,20.09759 22.043105,11.32322 32.158766,21.979434 L 37.068811,17.246167 C 37.068811,17.246167 37.088388,32 37.088388,32 L 22.160133,31.978069 C 22.160133,31.978069 26.997745,27.140456 26.997745,27.140456 C 18.528582,18.264221 13.291696,25.230495 11.500037,31.436501 z"
     style="fill:#404040;"/>
  </a>
 </g>
</svg>

<style type='text/css'>
<![CDATA[
[data-mouse-over-selected='false'] { opacity: 0.7; }
[data-mouse-over-selected='true']  { opacity: 1.0; }
]]>
</style>
<script type="application/ecmascript"><![CDATA[
document.addEventListener('DOMContentLoaded', (event) => {
  highlightEdges();
  highlightAdjacentNodes();
});
]]></script>
</svg>
