<?xml version="1.0" encoding="UTF-8" standalone="no"?>
<!DOCTYPE svg PUBLIC "-//W3C//DTD SVG 1.1//EN"
 "http://www.w3.org/Graphics/SVG/1.1/DTD/svg11.dtd">
<!-- Generated by graphviz version 12.2.0 (20241103.1931)
 -->
<!-- Title: bcnp/telemetry_accumulator.h Pages: 1 -->
<!--zoomable 248 -->

<svg id="main" version="1.1" xmlns="http://www.w3.org/2000/svg" xmlns:xlink="http://www.w3.org/1999/xlink" xml:space="preserve" onload="init(evt)">

<style type="text/css"><![CDATA[
.node, .edge {opacity: 0.7;}
.node.selected, .edge.selected {opacity: 1;}
.edge:hover path { stroke: red; }
.edge:hover polygon { stroke: red; fill: red; }
]]></style>

<defs>
  <circle id="rim" cx="0" cy="0" r="7"/>
  <circle id="rim2" cx="0" cy="0" r="3.5"/>
  <g id="zoomPlus">
    <use xlink:href="#rim" fill="#404040"><set attributeName="fill" to="#808080" begin="zoomplus.mouseover" end="zoomplus.mouseout"/></use>
    <path d="M-4,0h8M0,-4v8" fill="none" stroke="white" stroke-width="1.5" pointer-events="none"/>
  </g>
  <g id="zoomMin">
    <use xlink:href="#rim" fill="#404040"><set attributeName="fill" to="#808080" begin="zoomminus.mouseover" end="zoomminus.mouseout"/></use>
    <path d="M-4,0h8" fill="none" stroke="white" stroke-width="1.5" pointer-events="none"/>
  </g>
  <g id="arrowUp" transform="translate(30 24)">
    <use xlink:href="#rim"/>
    <path pointer-events="none" fill="none" stroke="white" stroke-width="1.5" d="M0,-3.0v7 M-2.5,-0.5L0,-3.0L2.5,-0.5"/>
  </g>
  <g id="arrowRight" transform="rotate(90) translate(36 -43)">
    <use xlink:href="#rim"/>
    <path pointer-events="none" fill="none" stroke="white" stroke-width="1.5" d="M0,-3.0v7 M-2.5,-0.5L0,-3.0L2.5,-0.5"/>
  </g>
  <g id="arrowDown" transform="rotate(180) translate(-30 -48)">
    <use xlink:href="#rim"/>
    <path pointer-events="none" fill="none" stroke="white" stroke-width="1.5" d="M0,-3.0v7 M-2.5,-0.5L0,-3.0L2.5,-0.5"/>
  </g>
  <g id="arrowLeft" transform="rotate(270) translate(-36 17)">
    <use xlink:href="#rim"/>
    <path pointer-events="none" fill="none" stroke="white" stroke-width="1.5" d="M0,-3.0v7 M-2.5,-0.5L0,-3.0L2.5,-0.5"/>
  </g>
  <g id="resetDef">
    <use xlink:href="#rim2" fill="#404040"><set attributeName="fill" to="#808080" begin="reset.mouseover" end="reset.mouseout"/></use>
  </g>
</defs>
<script type="application/ecmascript">
var viewWidth = 1132;
var viewHeight = 248;
var sectionId = 'dynsection-0';
</script>
<script type="application/ecmascript" xlink:href="svg.min.js"/>
<svg id="graph" class="graph">
<g id="viewport">
<title>bcnp/telemetry_accumulator.h</title>
<!-- Node1 -->
<g id="Node000001" class="node">
<title>Node1</title>
<g id="a_Node000001"><a xlink:title=" ">
<polygon fill="#999999" stroke="#666666" points="935.88,-240.25 790.12,-240.25 790.12,-221 935.88,-221 935.88,-240.25"/>
<text text-anchor="middle" x="863" y="-226.75" font-family="Helvetica,sans-Serif" font-size="10.00">bcnp/telemetry_accumulator.h</text>
</a>
</g>
</g>
<!-- Node2 -->
<g id="Node000002" class="node">
<title>Node2</title>
<g id="a_Node000002"><a xlink:href="packet_8h.html" target="_top" xlink:title="BCNP packet structures, encoding, and decoding utilities.">
<polygon fill="white" stroke="#666666" points="580.38,-185 503.62,-185 503.62,-165.75 580.38,-165.75 580.38,-185"/>
<text text-anchor="middle" x="542" y="-171.5" font-family="Helvetica,sans-Serif" font-size="10.00">bcnp/packet.h</text>
</a>
</g>
</g>
<!-- Node1&#45;&gt;Node2 -->
<g id="edge1_Node000001_Node000002" class="edge">
<title>Node1&#45;&gt;Node2</title>
<g id="a_edge1_Node000001_Node000002"><a xlink:title=" ">
<path fill="none" stroke="#63b8ff" d="M808.18,-220.53C747.41,-210.45 650.25,-194.33 591.65,-184.61"/>
<polygon fill="#63b8ff" stroke="#63b8ff" points="592.39,-181.19 581.96,-183 591.25,-188.09 592.39,-181.19"/>
</a>
</g>
</g>
<!-- Node5 -->
<g id="Node000005" class="node">
<title>Node5</title>
<g id="a_Node000005"><a xlink:title=" ">
<polygon fill="#e0e0e0" stroke="#999999" points="431.12,-19.25 382.88,-19.25 382.88,0 431.12,0 431.12,-19.25"/>
<text text-anchor="middle" x="407" y="-5.75" font-family="Helvetica,sans-Serif" font-size="10.00">cstddef</text>
</a>
</g>
</g>
<!-- Node1&#45;&gt;Node5 -->
<g id="edge31_Node000001_Node000005" class="edge">
<title>Node1&#45;&gt;Node5</title>
<g id="a_edge31_Node000001_Node000005"><a xlink:title=" ">
<path fill="none" stroke="#63b8ff" d="M876.29,-220.66C915.05,-193.5 1022.11,-110.57 971,-55.25 935.15,-16.45 561.32,-11.35 442.82,-10.71"/>
<polygon fill="#63b8ff" stroke="#63b8ff" points="443.07,-7.21 433.06,-10.66 443.04,-14.21 443.07,-7.21"/>
</a>
</g>
</g>
<!-- Node6 -->
<g id="Node000006" class="node">
<title>Node6</title>
<g id="a_Node000006"><a xlink:title=" ">
<polygon fill="#e0e0e0" stroke="#999999" points="885.62,-74.5 840.38,-74.5 840.38,-55.25 885.62,-55.25 885.62,-74.5"/>
<text text-anchor="middle" x="863" y="-61" font-family="Helvetica,sans-Serif" font-size="10.00">cstdint</text>
</a>
</g>
</g>
<!-- Node1&#45;&gt;Node6 -->
<g id="edge32_Node000001_Node000006" class="edge">
<title>Node1&#45;&gt;Node6</title>
<g id="a_edge32_Node000001_Node000006"><a xlink:title=" ">
<path fill="none" stroke="#63b8ff" d="M863,-220.82C863,-195.5 863,-122 863,-86.09"/>
<polygon fill="#63b8ff" stroke="#63b8ff" points="866.5,-86.24 863,-76.24 859.5,-86.24 866.5,-86.24"/>
</a>
</g>
</g>
<!-- Node9 -->
<g id="Node000009" class="node">
<title>Node9</title>
<g id="a_Node000009"><a xlink:title=" ">
<polygon fill="#e0e0e0" stroke="#999999" points="962,-74.5 904,-74.5 904,-55.25 962,-55.25 962,-74.5"/>
<text text-anchor="middle" x="933" y="-61" font-family="Helvetica,sans-Serif" font-size="10.00">functional</text>
</a>
</g>
</g>
<!-- Node1&#45;&gt;Node9 -->
<g id="edge33_Node000001_Node000009" class="edge">
<title>Node1&#45;&gt;Node9</title>
<g id="a_edge33_Node000001_Node000009"><a xlink:title=" ">
<path fill="none" stroke="#63b8ff" d="M866.76,-220.82C877.68,-195.28 909.56,-120.7 924.76,-85.15"/>
<polygon fill="#63b8ff" stroke="#63b8ff" points="927.91,-86.69 928.62,-76.11 921.47,-83.93 927.91,-86.69"/>
</a>
</g>
</g>
<!-- Node13 -->
<g id="Node000013" class="node">
<title>Node13</title>
<g id="a_Node000013"><a xlink:href="static__vector_8h.html" target="_top" xlink:title="Fixed&#45;capacity vector with stack allocation (no heap).">
<polygon fill="white" stroke="#666666" points="240.88,-74.5 137.12,-74.5 137.12,-55.25 240.88,-55.25 240.88,-74.5"/>
<text text-anchor="middle" x="189" y="-61" font-family="Helvetica,sans-Serif" font-size="10.00">bcnp/static_vector.h</text>
</a>
</g>
</g>
<!-- Node1&#45;&gt;Node13 -->
<g id="edge29_Node000001_Node000013" class="edge">
<title>Node1&#45;&gt;Node13</title>
<g id="a_edge29_Node000001_Node000013"><a xlink:title=" ">
<path fill="none" stroke="#63b8ff" d="M789.75,-230.52C688.31,-230.15 500.04,-223.58 345,-185 284.08,-169.84 259.05,-174.48 215,-129.75 203.17,-117.74 196.49,-99.63 192.87,-85.75"/>
<polygon fill="#63b8ff" stroke="#63b8ff" points="196.38,-85.37 190.76,-76.39 189.55,-86.91 196.38,-85.37"/>
</a>
</g>
</g>
<!-- Node19 -->
<g id="Node000019" class="node">
<title>Node19</title>
<g id="a_Node000019"><a xlink:href="packet__storage_8h.html" target="_top" xlink:title=" ">
<polygon fill="white" stroke="#666666" points="364.12,-129.75 249.88,-129.75 249.88,-110.5 364.12,-110.5 364.12,-129.75"/>
<text text-anchor="middle" x="307" y="-116.25" font-family="Helvetica,sans-Serif" font-size="10.00">bcnp/packet_storage.h</text>
</a>
</g>
</g>
<!-- Node1&#45;&gt;Node19 -->
<g id="edge28_Node000001_Node000019" class="edge">
<title>Node1&#45;&gt;Node19</title>
<g id="a_edge28_Node000001_Node000019"><a xlink:title=" ">
<path fill="none" stroke="#63b8ff" d="M789.73,-228.5C672.83,-225.76 449.96,-216.46 378,-185 354.6,-174.77 333.65,-153.73 320.68,-138.58"/>
<polygon fill="#63b8ff" stroke="#63b8ff" points="323.7,-136.74 314.65,-131.24 318.29,-141.19 323.7,-136.74"/>
</a>
</g>
</g>
<!-- Node20 -->
<g id="Node000020" class="node">
<title>Node20</title>
<g id="a_Node000020"><a xlink:title=" ">
<polygon fill="#e0e0e0" stroke="#999999" points="378.5,-74.5 335.5,-74.5 335.5,-55.25 378.5,-55.25 378.5,-74.5"/>
<text text-anchor="middle" x="357" y="-61" font-family="Helvetica,sans-Serif" font-size="10.00">vector</text>
</a>
</g>
</g>
<!-- Node1&#45;&gt;Node20 -->
<g id="edge35_Node000001_Node000020" class="edge">
<title>Node1&#45;&gt;Node20</title>
<g id="a_edge35_Node000001_Node000020"><a xlink:title=" ">
<path fill="none" stroke="#63b8ff" d="M789.94,-225.18C698.35,-218.85 547.04,-205.65 495,-185 441.03,-163.58 393.54,-111.68 370.96,-83.99"/>
<polygon fill="#63b8ff" stroke="#63b8ff" points="373.7,-81.82 364.74,-76.17 368.22,-86.17 373.7,-81.82"/>
</a>
</g>
</g>
<!-- Node21 -->
<g id="Node000021" class="node">
<title>Node21</title>
<g id="a_Node000021"><a xlink:title=" ">
<polygon fill="#e0e0e0" stroke="#999999" points="1063.62,-185 1018.38,-185 1018.38,-165.75 1063.62,-165.75 1063.62,-185"/>
<text text-anchor="middle" x="1041" y="-171.5" font-family="Helvetica,sans-Serif" font-size="10.00">chrono</text>
</a>
</g>
</g>
<!-- Node1&#45;&gt;Node21 -->
<g id="edge30_Node000001_Node000021" class="edge">
<title>Node1&#45;&gt;Node21</title>
<g id="a_edge30_Node000001_Node000021"><a xlink:title=" ">
<path fill="none" stroke="#63b8ff" d="M893.2,-220.59C924.78,-211.14 974.26,-196.34 1007.15,-186.5"/>
<polygon fill="#63b8ff" stroke="#63b8ff" points="1008,-189.9 1016.58,-183.68 1006,-183.19 1008,-189.9"/>
</a>
</g>
</g>
<!-- Node22 -->
<g id="Node000022" class="node">
<title>Node22</title>
<g id="a_Node000022"><a xlink:title=" ">
<polygon fill="#e0e0e0" stroke="#999999" points="1124.12,-185 1081.88,-185 1081.88,-165.75 1124.12,-165.75 1124.12,-185"/>
<text text-anchor="middle" x="1103" y="-171.5" font-family="Helvetica,sans-Serif" font-size="10.00">mutex</text>
</a>
</g>
</g>
<!-- Node1&#45;&gt;Node22 -->
<g id="edge34_Node000001_Node000022" class="edge">
<title>Node1&#45;&gt;Node22</title>
<g id="a_edge34_Node000001_Node000022"><a xlink:title=" ">
<path fill="none" stroke="#63b8ff" d="M910.34,-220.56C950.63,-212.62 1010.26,-200.35 1070.56,-185.48"/>
<polygon fill="#63b8ff" stroke="#63b8ff" points="1071.09,-188.96 1079.95,-183.14 1069.4,-182.16 1071.09,-188.96"/>
</a>
</g>
</g>
<!-- Node3 -->
<g id="Node000003" class="node">
<title>Node3</title>
<g id="a_Node000003"><a xlink:href="message__types_8h.html" target="_top" xlink:title=" ">
<polygon fill="white" stroke="#666666" points="684.88,-129.75 569.12,-129.75 569.12,-110.5 684.88,-110.5 684.88,-129.75"/>
<text text-anchor="middle" x="627" y="-116.25" font-family="Helvetica,sans-Serif" font-size="10.00">bcnp/message_types.h</text>
</a>
</g>
</g>
<!-- Node2&#45;&gt;Node3 -->
<g id="edge2_Node000002_Node000003" class="edge">
<title>Node2&#45;&gt;Node3</title>
<g id="a_edge2_Node000002_Node000003"><a xlink:title=" ">
<path fill="none" stroke="#63b8ff" d="M556.42,-165.34C569.12,-157.39 587.87,-145.64 602.86,-136.25"/>
<polygon fill="#63b8ff" stroke="#63b8ff" points="604.61,-139.28 611.23,-131.01 600.9,-133.35 604.61,-139.28"/>
</a>
</g>
</g>
<!-- Node2&#45;&gt;Node5 -->
<g id="edge24_Node000002_Node000005" class="edge">
<title>Node2&#45;&gt;Node5</title>
<g id="a_edge24_Node000002_Node000005"><a xlink:title=" ">
<path fill="none" stroke="#63b8ff" d="M530.08,-165.3C509.25,-148.97 465.83,-112.77 438,-74.5 428.01,-60.76 419.79,-43.3 414.33,-30.11"/>
<polygon fill="#63b8ff" stroke="#63b8ff" points="417.6,-28.86 410.68,-20.83 411.09,-31.42 417.6,-28.86"/>
</a>
</g>
</g>
<!-- Node2&#45;&gt;Node6 -->
<g id="edge25_Node000002_Node000006" class="edge">
<title>Node2&#45;&gt;Node6</title>
<g id="a_edge25_Node000002_Node000006"><a xlink:title=" ">
<path fill="none" stroke="#63b8ff" d="M580.7,-167.32C618.39,-159.9 676.99,-146.93 726,-129.75 765.79,-115.8 809.6,-94.2 836.71,-80.05"/>
<polygon fill="#63b8ff" stroke="#63b8ff" points="838.03,-83.31 845.24,-75.55 834.76,-77.12 838.03,-83.31"/>
</a>
</g>
</g>
<!-- Node11 -->
<g id="Node000011" class="node">
<title>Node11</title>
<g id="a_Node000011"><a xlink:title=" ">
<polygon fill="#e0e0e0" stroke="#999999" points="821.88,-74.5 772.12,-74.5 772.12,-55.25 821.88,-55.25 821.88,-74.5"/>
<text text-anchor="middle" x="797" y="-61" font-family="Helvetica,sans-Serif" font-size="10.00">optional</text>
</a>
</g>
</g>
<!-- Node2&#45;&gt;Node11 -->
<g id="edge26_Node000002_Node000011" class="edge">
<title>Node2&#45;&gt;Node11</title>
<g id="a_edge26_Node000002_Node000011"><a xlink:title=" ">
<path fill="none" stroke="#63b8ff" d="M580.81,-166.04C612.15,-158.6 656.96,-146.3 694,-129.75 723.91,-116.38 755.54,-95.65 775.73,-81.45"/>
<polygon fill="#63b8ff" stroke="#63b8ff" points="777.59,-84.43 783.69,-75.76 773.52,-78.73 777.59,-84.43"/>
</a>
</g>
</g>
<!-- Node2&#45;&gt;Node13 -->
<g id="edge12_Node000002_Node000013" class="edge">
<title>Node2&#45;&gt;Node13</title>
<g id="a_edge12_Node000002_Node000013"><a xlink:title=" ">
<path fill="none" stroke="#63b8ff" d="M503.23,-172.11C432.35,-167.39 285.08,-154.83 241,-129.75 222.4,-119.16 207.77,-99.12 198.83,-84.3"/>
<polygon fill="#63b8ff" stroke="#63b8ff" points="202.08,-82.93 194.1,-75.96 195.99,-86.38 202.08,-82.93"/>
</a>
</g>
</g>
<!-- Node2&#45;&gt;Node19 -->
<g id="edge19_Node000002_Node000019" class="edge">
<title>Node2&#45;&gt;Node19</title>
<g id="a_edge19_Node000002_Node000019"><a xlink:title=" ">
<path fill="none" stroke="#63b8ff" d="M503.19,-165.58C463.5,-156.59 401.63,-142.57 358,-132.68"/>
<polygon fill="#63b8ff" stroke="#63b8ff" points="359.05,-129.33 348.52,-130.53 357.5,-136.16 359.05,-129.33"/>
</a>
</g>
</g>
<!-- Node2&#45;&gt;Node20 -->
<g id="edge27_Node000002_Node000020" class="edge">
<title>Node2&#45;&gt;Node20</title>
<g id="a_edge27_Node000002_Node000020"><a xlink:title=" ">
<path fill="none" stroke="#63b8ff" d="M522.79,-165.41C504.73,-156.8 477.11,-143.16 454,-129.75 427.54,-114.39 398.37,-94.8 379,-81.39"/>
<polygon fill="#63b8ff" stroke="#63b8ff" points="381.02,-78.53 370.82,-75.68 377.02,-84.28 381.02,-78.53"/>
</a>
</g>
</g>
<!-- Node4 -->
<g id="Node000004" class="node">
<title>Node4</title>
<g id="a_Node000004"><a xlink:title=" ">
<polygon fill="#e0e0e0" stroke="#999999" points="693.5,-74.5 656.5,-74.5 656.5,-55.25 693.5,-55.25 693.5,-74.5"/>
<text text-anchor="middle" x="675" y="-61" font-family="Helvetica,sans-Serif" font-size="10.00">array</text>
</a>
</g>
</g>
<!-- Node3&#45;&gt;Node4 -->
<g id="edge3_Node000003_Node000004" class="edge">
<title>Node3&#45;&gt;Node4</title>
<g id="a_edge3_Node000003_Node000004"><a xlink:title=" ">
<path fill="none" stroke="#63b8ff" d="M634.93,-110.33C641.56,-102.98 651.22,-92.26 659.39,-83.19"/>
<polygon fill="#63b8ff" stroke="#63b8ff" points="661.79,-85.75 665.89,-75.98 656.59,-81.07 661.79,-85.75"/>
</a>
</g>
</g>
<!-- Node3&#45;&gt;Node5 -->
<g id="edge4_Node000003_Node000005" class="edge">
<title>Node3&#45;&gt;Node5</title>
<g id="a_edge4_Node000003_Node000005"><a xlink:title=" ">
<path fill="none" stroke="#63b8ff" d="M568.67,-111.5C536.04,-105.26 495.67,-94.13 464,-74.5 445.29,-62.91 429.16,-43.36 418.88,-28.93"/>
<polygon fill="#63b8ff" stroke="#63b8ff" points="421.84,-27.07 413.33,-20.77 416.06,-31.01 421.84,-27.07"/>
</a>
</g>
</g>
<!-- Node3&#45;&gt;Node6 -->
<g id="edge5_Node000003_Node000006" class="edge">
<title>Node3&#45;&gt;Node6</title>
<g id="a_edge5_Node000003_Node000006"><a xlink:title=" ">
<path fill="none" stroke="#63b8ff" d="M671.31,-110.07C710.38,-101.94 769.11,-89.39 829.14,-74.86"/>
<polygon fill="#63b8ff" stroke="#63b8ff" points="829.6,-78.35 838.49,-72.58 827.95,-71.55 829.6,-78.35"/>
</a>
</g>
</g>
<!-- Node7 -->
<g id="Node000007" class="node">
<title>Node7</title>
<g id="a_Node000007"><a xlink:title=" ">
<polygon fill="#e0e0e0" stroke="#999999" points="754.5,-74.5 711.5,-74.5 711.5,-55.25 754.5,-55.25 754.5,-74.5"/>
<text text-anchor="middle" x="733" y="-61" font-family="Helvetica,sans-Serif" font-size="10.00">cmath</text>
</a>
</g>
</g>
<!-- Node3&#45;&gt;Node7 -->
<g id="edge6_Node000003_Node000007" class="edge">
<title>Node3&#45;&gt;Node7</title>
<g id="a_edge6_Node000003_Node000007"><a xlink:title=" ">
<path fill="none" stroke="#63b8ff" d="M644.98,-110.09C661.35,-101.87 685.79,-89.59 704.76,-80.06"/>
<polygon fill="#63b8ff" stroke="#63b8ff" points="706.21,-83.25 713.58,-75.63 703.07,-76.99 706.21,-83.25"/>
</a>
</g>
</g>
<!-- Node8 -->
<g id="Node000008" class="node">
<title>Node8</title>
<g id="a_Node000008"><a xlink:title=" ">
<polygon fill="#e0e0e0" stroke="#999999" points="518.62,-74.5 473.38,-74.5 473.38,-55.25 518.62,-55.25 518.62,-74.5"/>
<text text-anchor="middle" x="496" y="-61" font-family="Helvetica,sans-Serif" font-size="10.00">cstring</text>
</a>
</g>
</g>
<!-- Node3&#45;&gt;Node8 -->
<g id="edge7_Node000003_Node000008" class="edge">
<title>Node3&#45;&gt;Node8</title>
<g id="a_edge7_Node000003_Node000008"><a xlink:title=" ">
<path fill="none" stroke="#63b8ff" d="M604.78,-110.09C583.98,-101.64 552.65,-88.9 528.95,-79.27"/>
<polygon fill="#63b8ff" stroke="#63b8ff" points="530.32,-76.05 519.73,-75.52 527.68,-82.53 530.32,-76.05"/>
</a>
</g>
</g>
<!-- Node3&#45;&gt;Node9 -->
<g id="edge8_Node000003_Node000009" class="edge">
<title>Node3&#45;&gt;Node9</title>
<g id="a_edge8_Node000003_Node000009"><a xlink:title=" ">
<path fill="none" stroke="#63b8ff" d="M685.21,-110.43C737.17,-102.45 815.59,-89.84 892.71,-74.86"/>
<polygon fill="#63b8ff" stroke="#63b8ff" points="892.95,-78.38 902.09,-73.02 891.61,-71.51 892.95,-78.38"/>
</a>
</g>
</g>
<!-- Node10 -->
<g id="Node000010" class="node">
<title>Node10</title>
<g id="a_Node000010"><a xlink:title=" ">
<polygon fill="#e0e0e0" stroke="#999999" points="575.62,-74.5 536.38,-74.5 536.38,-55.25 575.62,-55.25 575.62,-74.5"/>
<text text-anchor="middle" x="556" y="-61" font-family="Helvetica,sans-Serif" font-size="10.00">limits</text>
</a>
</g>
</g>
<!-- Node3&#45;&gt;Node10 -->
<g id="edge9_Node000003_Node000010" class="edge">
<title>Node3&#45;&gt;Node10</title>
<g id="a_edge9_Node000003_Node000010"><a xlink:title=" ">
<path fill="none" stroke="#63b8ff" d="M614.96,-110.09C604.59,-102.32 589.4,-90.92 577.03,-81.65"/>
<polygon fill="#63b8ff" stroke="#63b8ff" points="579.18,-78.88 569.08,-75.68 574.98,-84.48 579.18,-78.88"/>
</a>
</g>
</g>
<!-- Node3&#45;&gt;Node11 -->
<g id="edge10_Node000003_Node000011" class="edge">
<title>Node3&#45;&gt;Node11</title>
<g id="a_edge10_Node000003_Node000011"><a xlink:title=" ">
<path fill="none" stroke="#63b8ff" d="M655.84,-110.09C684.78,-101.03 729.44,-87.04 760.75,-77.23"/>
<polygon fill="#63b8ff" stroke="#63b8ff" points="761.69,-80.6 770.19,-74.27 759.6,-73.92 761.69,-80.6"/>
</a>
</g>
</g>
<!-- Node12 -->
<g id="Node000012" class="node">
<title>Node12</title>
<g id="a_Node000012"><a xlink:title=" ">
<polygon fill="#e0e0e0" stroke="#999999" points="638.62,-74.5 593.38,-74.5 593.38,-55.25 638.62,-55.25 638.62,-74.5"/>
<text text-anchor="middle" x="616" y="-61" font-family="Helvetica,sans-Serif" font-size="10.00">variant</text>
</a>
</g>
</g>
<!-- Node3&#45;&gt;Node12 -->
<g id="edge11_Node000003_Node000012" class="edge">
<title>Node3&#45;&gt;Node12</title>
<g id="a_edge11_Node000003_Node000012"><a xlink:title=" ">
<path fill="none" stroke="#63b8ff" d="M625.18,-110.33C623.82,-103.74 621.9,-94.46 620.17,-86.07"/>
<polygon fill="#63b8ff" stroke="#63b8ff" points="623.61,-85.43 618.16,-76.34 616.76,-86.84 623.61,-85.43"/>
</a>
</g>
</g>
<!-- Node13&#45;&gt;Node5 -->
<g id="edge13_Node000013_Node000005" class="edge">
<title>Node13&#45;&gt;Node5</title>
<g id="a_edge13_Node000013_Node000005"><a xlink:title=" ">
<path fill="none" stroke="#63b8ff" d="M225.98,-54.84C266.56,-44.93 331.24,-29.13 371.3,-19.35"/>
<polygon fill="#63b8ff" stroke="#63b8ff" points="372.04,-22.77 380.92,-16.99 370.38,-15.97 372.04,-22.77"/>
</a>
</g>
</g>
<!-- Node14 -->
<g id="Node000014" class="node">
<title>Node14</title>
<g id="a_Node000014"><a xlink:title=" ">
<polygon fill="#e0e0e0" stroke="#999999" points="255.75,-19.25 184.25,-19.25 184.25,0 255.75,0 255.75,-19.25"/>
<text text-anchor="middle" x="220" y="-5.75" font-family="Helvetica,sans-Serif" font-size="10.00">initializer_list</text>
</a>
</g>
</g>
<!-- Node13&#45;&gt;Node14 -->
<g id="edge14_Node000013_Node000014" class="edge">
<title>Node13&#45;&gt;Node14</title>
<g id="a_edge14_Node000013_Node000014"><a xlink:title=" ">
<path fill="none" stroke="#63b8ff" d="M194.12,-55.08C198.18,-48.11 203.99,-38.12 209.09,-29.37"/>
<polygon fill="#63b8ff" stroke="#63b8ff" points="212,-31.32 214.01,-20.92 205.95,-27.8 212,-31.32"/>
</a>
</g>
</g>
<!-- Node15 -->
<g id="Node000015" class="node">
<title>Node15</title>
<g id="a_Node000015"><a xlink:title=" ">
<polygon fill="#e0e0e0" stroke="#999999" points="34,-19.25 0,-19.25 0,0 34,0 34,-19.25"/>
<text text-anchor="middle" x="17" y="-5.75" font-family="Helvetica,sans-Serif" font-size="10.00">new</text>
</a>
</g>
</g>
<!-- Node13&#45;&gt;Node15 -->
<g id="edge15_Node000013_Node000015" class="edge">
<title>Node13&#45;&gt;Node15</title>
<g id="a_edge15_Node000013_Node000015"><a xlink:title=" ">
<path fill="none" stroke="#63b8ff" d="M158.45,-54.77C131.07,-46.55 89.53,-33.97 45.07,-19.86"/>
<polygon fill="#63b8ff" stroke="#63b8ff" points="46.36,-16.59 35.77,-16.89 44.23,-23.26 46.36,-16.59"/>
</a>
</g>
</g>
<!-- Node16 -->
<g id="Node000016" class="node">
<title>Node16</title>
<g id="a_Node000016"><a xlink:title=" ">
<polygon fill="#e0e0e0" stroke="#999999" points="110,-19.25 52,-19.25 52,0 110,0 110,-19.25"/>
<text text-anchor="middle" x="81" y="-5.75" font-family="Helvetica,sans-Serif" font-size="10.00">stdexcept</text>
</a>
</g>
</g>
<!-- Node13&#45;&gt;Node16 -->
<g id="edge16_Node000013_Node000016" class="edge">
<title>Node13&#45;&gt;Node16</title>
<g id="a_edge16_Node000013_Node000016"><a xlink:title=" ">
<path fill="none" stroke="#63b8ff" d="M170.68,-54.84C153.92,-46.58 128.87,-34.23 109.5,-24.68"/>
<polygon fill="#63b8ff" stroke="#63b8ff" points="111.28,-21.65 100.77,-20.37 108.19,-27.93 111.28,-21.65"/>
</a>
</g>
</g>
<!-- Node17 -->
<g id="Node000017" class="node">
<title>Node17</title>
<g id="a_Node000017"><a xlink:title=" ">
<polygon fill="#e0e0e0" stroke="#999999" points="334.5,-19.25 273.5,-19.25 273.5,0 334.5,0 334.5,-19.25"/>
<text text-anchor="middle" x="304" y="-5.75" font-family="Helvetica,sans-Serif" font-size="10.00">type_traits</text>
</a>
</g>
</g>
<!-- Node13&#45;&gt;Node17 -->
<g id="edge17_Node000013_Node000017" class="edge">
<title>Node13&#45;&gt;Node17</title>
<g id="a_edge17_Node000013_Node000017"><a xlink:title=" ">
<path fill="none" stroke="#63b8ff" d="M208.51,-54.84C226.52,-46.5 253.52,-34 274.23,-24.41"/>
<polygon fill="#63b8ff" stroke="#63b8ff" points="275.42,-27.72 283.02,-20.34 272.48,-21.36 275.42,-27.72"/>
</a>
</g>
</g>
<!-- Node18 -->
<g id="Node000018" class="node">
<title>Node18</title>
<g id="a_Node000018"><a xlink:title=" ">
<polygon fill="#e0e0e0" stroke="#999999" points="166.25,-19.25 127.75,-19.25 127.75,0 166.25,0 166.25,-19.25"/>
<text text-anchor="middle" x="147" y="-5.75" font-family="Helvetica,sans-Serif" font-size="10.00">utility</text>
</a>
</g>
</g>
<!-- Node13&#45;&gt;Node18 -->
<g id="edge18_Node000013_Node000018" class="edge">
<title>Node13&#45;&gt;Node18</title>
<g id="a_edge18_Node000013_Node000018"><a xlink:title=" ">
<path fill="none" stroke="#63b8ff" d="M182.06,-55.08C176.38,-47.88 168.16,-37.46 161.11,-28.51"/>
<polygon fill="#63b8ff" stroke="#63b8ff" points="163.96,-26.48 155.02,-20.8 158.47,-30.82 163.96,-26.48"/>
</a>
</g>
</g>
<!-- Node19&#45;&gt;Node5 -->
<g id="edge21_Node000019_Node000005" class="edge">
<title>Node19&#45;&gt;Node5</title>
<g id="a_edge21_Node000019_Node000005"><a xlink:title=" ">
<path fill="none" stroke="#63b8ff" d="M307.7,-110.31C309.18,-97.02 313.66,-71.66 327,-55.25 338.66,-40.91 356.21,-30.4 371.91,-23.19"/>
<polygon fill="#63b8ff" stroke="#63b8ff" points="373.17,-26.46 380.99,-19.31 370.42,-20.02 373.17,-26.46"/>
</a>
</g>
</g>
<!-- Node19&#45;&gt;Node13 -->
<g id="edge20_Node000019_Node000013" class="edge">
<title>Node19&#45;&gt;Node13</title>
<g id="a_edge20_Node000019_Node000013"><a xlink:title=" ">
<path fill="none" stroke="#63b8ff" d="M286.98,-110.09C268.51,-101.75 240.79,-89.25 219.55,-79.66"/>
<polygon fill="#63b8ff" stroke="#63b8ff" points="221.05,-76.5 210.49,-75.58 218.17,-82.88 221.05,-76.5"/>
</a>
</g>
</g>
<!-- Node19&#45;&gt;Node17 -->
<g id="edge22_Node000019_Node000017" class="edge">
<title>Node19&#45;&gt;Node17</title>
<g id="a_edge22_Node000019_Node000017"><a xlink:title=" ">
<path fill="none" stroke="#63b8ff" d="M303.27,-110.09C299.82,-101.21 294.94,-87.18 293,-74.5 290.73,-59.66 293.81,-42.95 297.28,-30.34"/>
<polygon fill="#63b8ff" stroke="#63b8ff" points="300.51,-31.74 300.12,-21.15 293.83,-29.67 300.51,-31.74"/>
</a>
</g>
</g>
<!-- Node19&#45;&gt;Node20 -->
<g id="edge23_Node000019_Node000020" class="edge">
<title>Node19&#45;&gt;Node20</title>
<g id="a_edge23_Node000019_Node000020"><a xlink:title=" ">
<path fill="none" stroke="#63b8ff" d="M315.26,-110.33C322.16,-102.98 332.22,-92.26 340.74,-83.19"/>
<polygon fill="#63b8ff" stroke="#63b8ff" points="343.23,-85.65 347.53,-75.96 338.13,-80.86 343.23,-85.65"/>
</a>
</g>
</g>
</g>
</svg>

<g id="navigator" transform="translate(0 0)" fill="#404254">
  <rect fill="#f2f5e9" fill-opacity="0.5" stroke="#606060" stroke-width=".5" x="0" y="0" width="60" height="60"/>
  <use id="zoomplus" xlink:href="#zoomPlus" x="17" y="9" onmousedown="handleZoom(evt,'in')"/>
  <use id="zoomminus" xlink:href="#zoomMin" x="42" y="9" onmousedown="handleZoom(evt,'out')"/>
  <use id="reset" xlink:href="#resetDef" x="30" y="36" onmousedown="handleReset()"/>
   <use id="arrowup" xlink:href="#arrowUp" x="0" y="0" onmousedown="handlePan(0,-1)"/>
  <use id="arrowright" xlink:href="#arrowRight" x="0" y="0" onmousedown="handlePan(1,0)"/>
  <use id="arrowdown" xlink:href="#arrowDown" x="0" y="0" onmousedown="handlePan(0,1)"/>
  <use id="arrowleft" xlink:href="#arrowLeft" x="0" y="0" onmousedown="handlePan(-1,0)"/>
</g>
<svg viewBox="0 0 15 15" width="100%" height="30px" preserveAspectRatio="xMaxYMin meet">
 <g id="arrow_out" transform="scale(0.3 0.3)">
  <a xlink:href="telemetry__accumulator_8h__incl_org.svg" target="_base">
   <rect id="button" ry="5" rx="5" y="6" x="6" height="38" width="38"
        fill="#f2f5e9" fill-opacity="0.5" stroke="#606060" stroke-width="1.0"/>
   <path id="arrow"
     d="M 11.500037,31.436501 C 11.940474,20.09759 22.043105,11.32322 32.158766,21.979434 L 37.068811,17.246167 C 37.068811,17.246167 37.088388,32 37.088388,32 L 22.160133,31.978069 C 22.160133,31.978069 26.997745,27.140456 26.997745,27.140456 C 18.528582,18.264221 13.291696,25.230495 11.500037,31.436501 z"
     style="fill:#404040;"/>
  </a>
 </g>
</svg>

<style type='text/css'>
<![CDATA[
[data-mouse-over-selected='false'] { opacity: 0.7; }
[data-mouse-over-selected='true']  { opacity: 1.0; }
]]>
</style>
<script type="application/ecmascript"><![CDATA[
document.addEventListener('DOMContentLoaded', (event) => {
  highlightEdges();
  highlightAdjacentNodes();
});
]]></script>
</svg>
