<?xml version="1.0" encoding="UTF-8" standalone="no"?>
<!DOCTYPE svg PUBLIC "-//W3C//DTD SVG 1.1//EN"
 "http://www.w3.org/Graphics/SVG/1.1/DTD/svg11.dtd">
<!-- Generated by graphviz version 12.2.0 (20241103.1931)
 -->
<!-- Title: bcnp/transport/udp_posix.h Pages: 1 -->
<svg width="565pt" height="149pt"
 viewBox="0.00 0.00 564.50 149.00" xmlns="http://www.w3.org/2000/svg" xmlns:xlink="http://www.w3.org/1999/xlink">
<g id="graph0" class="graph" transform="scale(1 1) rotate(0) translate(4 145)">
<title>bcnp/transport/udp_posix.h</title>
<!-- Node1 -->
<g id="Node000001" class="node">
<title>Node1</title>
<g id="a_Node000001"><a xlink:title=" ">
<polygon fill="#999999" stroke="#666666" points="284.12,-141 187.12,-141 187.12,-110.5 284.12,-110.5 284.12,-141"/>
<text text-anchor="start" x="195.12" y="-127.5" font-family="Helvetica,sans-Serif" font-size="10.00">bcnp/transport/udp</text>
<text text-anchor="middle" x="235.62" y="-116.25" font-family="Helvetica,sans-Serif" font-size="10.00">_posix.h</text>
</a>
</g>
</g>
<!-- Node2 -->
<g id="Node000002" class="node">
<title>Node2</title>
<g id="a_Node000002"><a xlink:href="adapter_8h.html" target="_top" xlink:title=" ">
<polygon fill="white" stroke="#666666" points="160.12,-74.5 39.12,-74.5 39.12,-55.25 160.12,-55.25 160.12,-74.5"/>
<text text-anchor="middle" x="99.62" y="-61" font-family="Helvetica,sans-Serif" font-size="10.00">bcnp/transport/adapter.h</text>
</a>
</g>
</g>
<!-- Node1&#45;&gt;Node2 -->
<g id="edge1_Node000001_Node000002" class="edge">
<title>Node1&#45;&gt;Node2</title>
<g id="a_edge1_Node000001_Node000002"><a xlink:title=" ">
<path fill="none" stroke="#63b8ff" d="M201.66,-110.05C179.95,-100.65 152.01,-88.55 130.86,-79.39"/>
<polygon fill="#63b8ff" stroke="#63b8ff" points="132.44,-76.27 121.87,-75.51 129.66,-82.69 132.44,-76.27"/>
</a>
</g>
</g>
<!-- Node4 -->
<g id="Node000004" class="node">
<title>Node4</title>
<g id="a_Node000004"><a xlink:title=" ">
<polygon fill="#e0e0e0" stroke="#999999" points="45.25,-19.25 0,-19.25 0,0 45.25,0 45.25,-19.25"/>
<text text-anchor="middle" x="22.62" y="-5.75" font-family="Helvetica,sans-Serif" font-size="10.00">cstdint</text>
</a>
</g>
</g>
<!-- Node1&#45;&gt;Node4 -->
<g id="edge15_Node000001_Node000004" class="edge">
<title>Node1&#45;&gt;Node4</title>
<g id="a_edge15_Node000001_Node000004"><a xlink:title=" ">
<path fill="none" stroke="#63b8ff" d="M186.86,-119.17C132.98,-111.95 51.09,-97.49 30.62,-74.5 20.27,-62.87 18.82,-44.98 19.64,-31.08"/>
<polygon fill="#63b8ff" stroke="#63b8ff" points="23.11,-31.56 20.69,-21.25 16.15,-30.82 23.11,-31.56"/>
</a>
</g>
</g>
<!-- Node5 -->
<g id="Node000005" class="node">
<title>Node5</title>
<g id="a_Node000005"><a xlink:href="message__types_8h.html" target="_top" xlink:title=" ">
<polygon fill="white" stroke="#666666" points="293.5,-74.5 177.75,-74.5 177.75,-55.25 293.5,-55.25 293.5,-74.5"/>
<text text-anchor="middle" x="235.62" y="-61" font-family="Helvetica,sans-Serif" font-size="10.00">bcnp/message_types.h</text>
</a>
</g>
</g>
<!-- Node1&#45;&gt;Node5 -->
<g id="edge4_Node000001_Node000005" class="edge">
<title>Node1&#45;&gt;Node5</title>
<g id="a_edge4_Node000001_Node000005"><a xlink:title=" ">
<path fill="none" stroke="#63b8ff" d="M235.62,-110.2C235.62,-102.96 235.62,-94.09 235.62,-86.19"/>
<polygon fill="#63b8ff" stroke="#63b8ff" points="239.13,-86.46 235.63,-76.46 232.13,-86.46 239.13,-86.46"/>
</a>
</g>
</g>
<!-- Node13 -->
<g id="Node000013" class="node">
<title>Node13</title>
<g id="a_Node000013"><a xlink:title=" ">
<polygon fill="#e0e0e0" stroke="#999999" points="357.25,-74.5 312,-74.5 312,-55.25 357.25,-55.25 357.25,-74.5"/>
<text text-anchor="middle" x="334.62" y="-61" font-family="Helvetica,sans-Serif" font-size="10.00">chrono</text>
</a>
</g>
</g>
<!-- Node1&#45;&gt;Node13 -->
<g id="edge14_Node000001_Node000013" class="edge">
<title>Node1&#45;&gt;Node13</title>
<g id="a_edge14_Node000001_Node000013"><a xlink:title=" ">
<path fill="none" stroke="#63b8ff" d="M260.35,-110.05C275.43,-101.08 294.64,-89.66 309.74,-80.67"/>
<polygon fill="#63b8ff" stroke="#63b8ff" points="311.34,-83.8 318.14,-75.68 307.76,-77.78 311.34,-83.8"/>
</a>
</g>
</g>
<!-- Node14 -->
<g id="Node000014" class="node">
<title>Node14</title>
<g id="a_Node000014"><a xlink:title=" ">
<polygon fill="#e0e0e0" stroke="#999999" points="438.25,-74.5 375,-74.5 375,-55.25 438.25,-55.25 438.25,-74.5"/>
<text text-anchor="middle" x="406.62" y="-61" font-family="Helvetica,sans-Serif" font-size="10.00">netinet/in.h</text>
</a>
</g>
</g>
<!-- Node1&#45;&gt;Node14 -->
<g id="edge16_Node000001_Node000014" class="edge">
<title>Node1&#45;&gt;Node14</title>
<g id="a_edge16_Node000001_Node000014"><a xlink:title=" ">
<path fill="none" stroke="#63b8ff" d="M278.33,-110.05C306.29,-100.42 342.48,-87.96 369.28,-78.73"/>
<polygon fill="#63b8ff" stroke="#63b8ff" points="370.4,-82.05 378.72,-75.48 368.12,-75.43 370.4,-82.05"/>
</a>
</g>
</g>
<!-- Node3 -->
<g id="Node000003" class="node">
<title>Node3</title>
<g id="a_Node000003"><a xlink:title=" ">
<polygon fill="#e0e0e0" stroke="#999999" points="111.75,-19.25 63.5,-19.25 63.5,0 111.75,0 111.75,-19.25"/>
<text text-anchor="middle" x="87.62" y="-5.75" font-family="Helvetica,sans-Serif" font-size="10.00">cstddef</text>
</a>
</g>
</g>
<!-- Node2&#45;&gt;Node3 -->
<g id="edge2_Node000002_Node000003" class="edge">
<title>Node2&#45;&gt;Node3</title>
<g id="a_edge2_Node000002_Node000003"><a xlink:title=" ">
<path fill="none" stroke="#63b8ff" d="M97.64,-55.08C96.16,-48.49 94.07,-39.21 92.18,-30.82"/>
<polygon fill="#63b8ff" stroke="#63b8ff" points="95.6,-30.07 89.98,-21.09 88.77,-31.61 95.6,-30.07"/>
</a>
</g>
</g>
<!-- Node2&#45;&gt;Node4 -->
<g id="edge3_Node000002_Node000004" class="edge">
<title>Node2&#45;&gt;Node4</title>
<g id="a_edge3_Node000002_Node000004"><a xlink:title=" ">
<path fill="none" stroke="#63b8ff" d="M86.56,-54.84C75.17,-46.96 58.4,-35.36 44.89,-26.02"/>
<polygon fill="#63b8ff" stroke="#63b8ff" points="47.21,-23.37 37,-20.56 43.23,-29.13 47.21,-23.37"/>
</a>
</g>
</g>
<!-- Node5&#45;&gt;Node3 -->
<g id="edge6_Node000005_Node000003" class="edge">
<title>Node5&#45;&gt;Node3</title>
<g id="a_edge6_Node000005_Node000003"><a xlink:title=" ">
<path fill="none" stroke="#63b8ff" d="M210.52,-54.84C186.31,-46.13 149.46,-32.87 122.43,-23.15"/>
<polygon fill="#63b8ff" stroke="#63b8ff" points="123.89,-19.95 113.29,-19.86 121.52,-26.54 123.89,-19.95"/>
</a>
</g>
</g>
<!-- Node5&#45;&gt;Node4 -->
<g id="edge7_Node000005_Node000004" class="edge">
<title>Node5&#45;&gt;Node4</title>
<g id="a_edge7_Node000005_Node000004"><a xlink:title=" ">
<path fill="none" stroke="#63b8ff" d="M197.78,-54.8C163.41,-46.49 111.04,-33.71 56.59,-19.72"/>
<polygon fill="#63b8ff" stroke="#63b8ff" points="57.7,-16.39 47.15,-17.28 55.96,-23.17 57.7,-16.39"/>
</a>
</g>
</g>
<!-- Node6 -->
<g id="Node000006" class="node">
<title>Node6</title>
<g id="a_Node000006"><a xlink:title=" ">
<polygon fill="#e0e0e0" stroke="#999999" points="230.12,-19.25 193.12,-19.25 193.12,0 230.12,0 230.12,-19.25"/>
<text text-anchor="middle" x="211.62" y="-5.75" font-family="Helvetica,sans-Serif" font-size="10.00">array</text>
</a>
</g>
</g>
<!-- Node5&#45;&gt;Node6 -->
<g id="edge5_Node000005_Node000006" class="edge">
<title>Node5&#45;&gt;Node6</title>
<g id="a_edge5_Node000005_Node000006"><a xlink:title=" ">
<path fill="none" stroke="#63b8ff" d="M231.66,-55.08C228.59,-48.26 224.21,-38.56 220.34,-29.95"/>
<polygon fill="#63b8ff" stroke="#63b8ff" points="223.6,-28.67 216.3,-20.99 217.21,-31.54 223.6,-28.67"/>
</a>
</g>
</g>
<!-- Node7 -->
<g id="Node000007" class="node">
<title>Node7</title>
<g id="a_Node000007"><a xlink:title=" ">
<polygon fill="#e0e0e0" stroke="#999999" points="291.12,-19.25 248.12,-19.25 248.12,0 291.12,0 291.12,-19.25"/>
<text text-anchor="middle" x="269.62" y="-5.75" font-family="Helvetica,sans-Serif" font-size="10.00">cmath</text>
</a>
</g>
</g>
<!-- Node5&#45;&gt;Node7 -->
<g id="edge8_Node000005_Node000007" class="edge">
<title>Node5&#45;&gt;Node7</title>
<g id="a_edge8_Node000005_Node000007"><a xlink:title=" ">
<path fill="none" stroke="#63b8ff" d="M241.24,-55.08C245.74,-48.03 252.21,-37.9 257.84,-29.08"/>
<polygon fill="#63b8ff" stroke="#63b8ff" points="260.64,-31.2 263.07,-20.88 254.74,-27.43 260.64,-31.2"/>
</a>
</g>
</g>
<!-- Node8 -->
<g id="Node000008" class="node">
<title>Node8</title>
<g id="a_Node000008"><a xlink:title=" ">
<polygon fill="#e0e0e0" stroke="#999999" points="354.25,-19.25 309,-19.25 309,0 354.25,0 354.25,-19.25"/>
<text text-anchor="middle" x="331.62" y="-5.75" font-family="Helvetica,sans-Serif" font-size="10.00">cstring</text>
</a>
</g>
</g>
<!-- Node5&#45;&gt;Node8 -->
<g id="edge9_Node000005_Node000008" class="edge">
<title>Node5&#45;&gt;Node8</title>
<g id="a_edge9_Node000005_Node000008"><a xlink:title=" ">
<path fill="none" stroke="#63b8ff" d="M251.91,-54.84C266.53,-46.73 288.25,-34.68 305.33,-25.21"/>
<polygon fill="#63b8ff" stroke="#63b8ff" points="306.89,-28.35 313.94,-20.44 303.49,-22.23 306.89,-28.35"/>
</a>
</g>
</g>
<!-- Node9 -->
<g id="Node000009" class="node">
<title>Node9</title>
<g id="a_Node000009"><a xlink:title=" ">
<polygon fill="#e0e0e0" stroke="#999999" points="430.62,-19.25 372.62,-19.25 372.62,0 430.62,0 430.62,-19.25"/>
<text text-anchor="middle" x="401.62" y="-5.75" font-family="Helvetica,sans-Serif" font-size="10.00">functional</text>
</a>
</g>
</g>
<!-- Node5&#45;&gt;Node9 -->
<g id="edge10_Node000005_Node000009" class="edge">
<title>Node5&#45;&gt;Node9</title>
<g id="a_edge10_Node000005_Node000009"><a xlink:title=" ">
<path fill="none" stroke="#63b8ff" d="M263.78,-54.84C290.97,-46.12 332.37,-32.84 362.7,-23.11"/>
<polygon fill="#63b8ff" stroke="#63b8ff" points="363.43,-26.55 371.89,-20.16 361.29,-19.89 363.43,-26.55"/>
</a>
</g>
</g>
<!-- Node10 -->
<g id="Node000010" class="node">
<title>Node10</title>
<g id="a_Node000010"><a xlink:title=" ">
<polygon fill="#e0e0e0" stroke="#999999" points="488.25,-19.25 449,-19.25 449,0 488.25,0 488.25,-19.25"/>
<text text-anchor="middle" x="468.62" y="-5.75" font-family="Helvetica,sans-Serif" font-size="10.00">limits</text>
</a>
</g>
</g>
<!-- Node5&#45;&gt;Node10 -->
<g id="edge11_Node000005_Node000010" class="edge">
<title>Node5&#45;&gt;Node10</title>
<g id="a_edge11_Node000005_Node000010"><a xlink:title=" ">
<path fill="none" stroke="#63b8ff" d="M281.63,-54.82C320.7,-46.91 378.47,-34.68 437.65,-19.6"/>
<polygon fill="#63b8ff" stroke="#63b8ff" points="438.43,-23.02 447.24,-17.14 436.69,-16.24 438.43,-23.02"/>
</a>
</g>
</g>
<!-- Node11 -->
<g id="Node000011" class="node">
<title>Node11</title>
<g id="a_Node000011"><a xlink:title=" ">
<polygon fill="#e0e0e0" stroke="#999999" points="556.5,-19.25 506.75,-19.25 506.75,0 556.5,0 556.5,-19.25"/>
<text text-anchor="middle" x="531.62" y="-5.75" font-family="Helvetica,sans-Serif" font-size="10.00">optional</text>
</a>
</g>
</g>
<!-- Node5&#45;&gt;Node11 -->
<g id="edge12_Node000005_Node000011" class="edge">
<title>Node5&#45;&gt;Node11</title>
<g id="a_edge12_Node000005_Node000011"><a xlink:title=" ">
<path fill="none" stroke="#63b8ff" d="M293.89,-55.31C344.66,-47.55 420.48,-35.21 495.38,-19.58"/>
<polygon fill="#63b8ff" stroke="#63b8ff" points="495.88,-23.06 504.95,-17.57 494.44,-16.21 495.88,-23.06"/>
</a>
</g>
</g>
<!-- Node12 -->
<g id="Node000012" class="node">
<title>Node12</title>
<g id="a_Node000012"><a xlink:title=" ">
<polygon fill="#e0e0e0" stroke="#999999" points="175.25,-19.25 130,-19.25 130,0 175.25,0 175.25,-19.25"/>
<text text-anchor="middle" x="152.62" y="-5.75" font-family="Helvetica,sans-Serif" font-size="10.00">variant</text>
</a>
</g>
</g>
<!-- Node5&#45;&gt;Node12 -->
<g id="edge13_Node000005_Node000012" class="edge">
<title>Node5&#45;&gt;Node12</title>
<g id="a_edge13_Node000005_Node000012"><a xlink:title=" ">
<path fill="none" stroke="#63b8ff" d="M221.55,-54.84C209.14,-46.89 190.83,-35.14 176.2,-25.75"/>
<polygon fill="#63b8ff" stroke="#63b8ff" points="178.35,-22.97 168.05,-20.52 174.57,-28.87 178.35,-22.97"/>
</a>
</g>
</g>
</g>
</svg>
