<?xml version="1.0" encoding="UTF-8" standalone="no"?>
<!DOCTYPE svg PUBLIC "-//W3C//DTD SVG 1.1//EN"
 "http://www.w3.org/Graphics/SVG/1.1/DTD/svg11.dtd">
<!-- Generated by graphviz version 12.2.0 (20241103.1931)
 -->
<!-- Title: bcnp/transport/udp_posix.cpp Pages: 1 -->
<svg width="982pt" height="216pt"
 viewBox="0.00 0.00 981.50 215.50" xmlns="http://www.w3.org/2000/svg" xmlns:xlink="http://www.w3.org/1999/xlink">
<g id="graph0" class="graph" transform="scale(1 1) rotate(0) translate(4 211.5)">
<title>bcnp/transport/udp_posix.cpp</title>
<!-- Node1 -->
<g id="Node000001" class="node">
<title>Node1</title>
<g id="a_Node000001"><a xlink:title="UDP transport adapter implementation for POSIX systems.">
<polygon fill="#999999" stroke="#666666" points="742.12,-207.5 645.12,-207.5 645.12,-177 742.12,-177 742.12,-207.5"/>
<text text-anchor="start" x="653.12" y="-194" font-family="Helvetica,sans-Serif" font-size="10.00">bcnp/transport/udp</text>
<text text-anchor="middle" x="693.62" y="-182.75" font-family="Helvetica,sans-Serif" font-size="10.00">_posix.cpp</text>
</a>
</g>
</g>
<!-- Node2 -->
<g id="Node000002" class="node">
<title>Node2</title>
<g id="a_Node000002"><a xlink:href="udp__posix_8h.html" target="_top" xlink:title=" ">
<polygon fill="white" stroke="#666666" points="297.12,-141 200.12,-141 200.12,-110.5 297.12,-110.5 297.12,-141"/>
<text text-anchor="start" x="208.12" y="-127.5" font-family="Helvetica,sans-Serif" font-size="10.00">bcnp/transport/udp</text>
<text text-anchor="middle" x="248.62" y="-116.25" font-family="Helvetica,sans-Serif" font-size="10.00">_posix.h</text>
</a>
</g>
</g>
<!-- Node1&#45;&gt;Node2 -->
<g id="edge1_Node000001_Node000002" class="edge">
<title>Node1&#45;&gt;Node2</title>
<g id="a_edge1_Node000001_Node000002"><a xlink:title=" ">
<path fill="none" stroke="#63b8ff" d="M644.73,-184.16C562.75,-172.28 397.84,-148.38 308.85,-135.48"/>
<polygon fill="#63b8ff" stroke="#63b8ff" points="309.5,-132.04 299.1,-134.07 308.49,-138.96 309.5,-132.04"/>
</a>
</g>
</g>
<!-- Node9 -->
<g id="Node000009" class="node">
<title>Node9</title>
<g id="a_Node000009"><a xlink:title=" ">
<polygon fill="#e0e0e0" stroke="#999999" points="626.25,-19.25 581,-19.25 581,0 626.25,0 626.25,-19.25"/>
<text text-anchor="middle" x="603.62" y="-5.75" font-family="Helvetica,sans-Serif" font-size="10.00">cstring</text>
</a>
</g>
</g>
<!-- Node1&#45;&gt;Node9 -->
<g id="edge20_Node000001_Node000009" class="edge">
<title>Node1&#45;&gt;Node9</title>
<g id="a_edge20_Node000001_Node000009"><a xlink:title=" ">
<path fill="none" stroke="#63b8ff" d="M644.88,-187.48C613.49,-182.23 574.89,-169.88 554.62,-141 529.39,-105.04 564.65,-54.45 587.26,-28.11"/>
<polygon fill="#63b8ff" stroke="#63b8ff" points="589.82,-30.5 593.87,-20.71 584.6,-25.84 589.82,-30.5"/>
</a>
</g>
</g>
<!-- Node16 -->
<g id="Node000016" class="node">
<title>Node16</title>
<g id="a_Node000016"><a xlink:title=" ">
<polygon fill="#e0e0e0" stroke="#999999" points="624.12,-135.38 563.12,-135.38 563.12,-116.12 624.12,-116.12 624.12,-135.38"/>
<text text-anchor="middle" x="593.62" y="-121.88" font-family="Helvetica,sans-Serif" font-size="10.00">arpa/inet.h</text>
</a>
</g>
</g>
<!-- Node1&#45;&gt;Node16 -->
<g id="edge18_Node000001_Node000016" class="edge">
<title>Node1&#45;&gt;Node16</title>
<g id="a_edge18_Node000001_Node000016"><a xlink:title=" ">
<path fill="none" stroke="#63b8ff" d="M670.93,-176.61C654.8,-166.21 633.2,-152.28 616.94,-141.79"/>
<polygon fill="#63b8ff" stroke="#63b8ff" points="619.17,-139.06 608.87,-136.58 615.37,-144.94 619.17,-139.06"/>
</a>
</g>
</g>
<!-- Node17 -->
<g id="Node000017" class="node">
<title>Node17</title>
<g id="a_Node000017"><a xlink:title=" ">
<polygon fill="#e0e0e0" stroke="#999999" points="685.12,-135.38 642.12,-135.38 642.12,-116.12 685.12,-116.12 685.12,-135.38"/>
<text text-anchor="middle" x="663.62" y="-121.88" font-family="Helvetica,sans-Serif" font-size="10.00">cerrno</text>
</a>
</g>
</g>
<!-- Node1&#45;&gt;Node17 -->
<g id="edge19_Node000001_Node000017" class="edge">
<title>Node1&#45;&gt;Node17</title>
<g id="a_edge19_Node000001_Node000017"><a xlink:title=" ">
<path fill="none" stroke="#63b8ff" d="M686.82,-176.61C682.59,-167.53 677.12,-155.76 672.55,-145.93"/>
<polygon fill="#63b8ff" stroke="#63b8ff" points="675.76,-144.54 668.37,-136.95 669.41,-147.49 675.76,-144.54"/>
</a>
</g>
</g>
<!-- Node18 -->
<g id="Node000018" class="node">
<title>Node18</title>
<g id="a_Node000018"><a xlink:title=" ">
<polygon fill="#e0e0e0" stroke="#999999" points="745.75,-135.38 703.5,-135.38 703.5,-116.12 745.75,-116.12 745.75,-135.38"/>
<text text-anchor="middle" x="724.62" y="-121.88" font-family="Helvetica,sans-Serif" font-size="10.00">fcntl.h</text>
</a>
</g>
</g>
<!-- Node1&#45;&gt;Node18 -->
<g id="edge21_Node000001_Node000018" class="edge">
<title>Node1&#45;&gt;Node18</title>
<g id="a_edge21_Node000001_Node000018"><a xlink:title=" ">
<path fill="none" stroke="#63b8ff" d="M700.66,-176.61C705.02,-167.53 710.68,-155.76 715.4,-145.93"/>
<polygon fill="#63b8ff" stroke="#63b8ff" points="718.55,-147.47 719.73,-136.94 712.24,-144.43 718.55,-147.47"/>
</a>
</g>
</g>
<!-- Node19 -->
<g id="Node000019" class="node">
<title>Node19</title>
<g id="a_Node000019"><a xlink:title=" ">
<polygon fill="#e0e0e0" stroke="#999999" points="817.38,-135.38 763.88,-135.38 763.88,-116.12 817.38,-116.12 817.38,-135.38"/>
<text text-anchor="middle" x="790.62" y="-121.88" font-family="Helvetica,sans-Serif" font-size="10.00">iostream</text>
</a>
</g>
</g>
<!-- Node1&#45;&gt;Node19 -->
<g id="edge22_Node000001_Node000019" class="edge">
<title>Node1&#45;&gt;Node19</title>
<g id="a_edge22_Node000001_Node000019"><a xlink:title=" ">
<path fill="none" stroke="#63b8ff" d="M715.64,-176.61C731.13,-166.31 751.84,-152.54 767.56,-142.08"/>
<polygon fill="#63b8ff" stroke="#63b8ff" points="769.43,-145.05 775.82,-136.6 765.55,-139.22 769.43,-145.05"/>
</a>
</g>
</g>
<!-- Node20 -->
<g id="Node000020" class="node">
<title>Node20</title>
<g id="a_Node000020"><a xlink:title=" ">
<polygon fill="#e0e0e0" stroke="#999999" points="906,-135.38 835.25,-135.38 835.25,-116.12 906,-116.12 906,-135.38"/>
<text text-anchor="middle" x="870.62" y="-121.88" font-family="Helvetica,sans-Serif" font-size="10.00">sys/socket.h</text>
</a>
</g>
</g>
<!-- Node1&#45;&gt;Node20 -->
<g id="edge23_Node000001_Node000020" class="edge">
<title>Node1&#45;&gt;Node20</title>
<g id="a_edge23_Node000001_Node000020"><a xlink:title=" ">
<path fill="none" stroke="#63b8ff" d="M733.79,-176.61C764.27,-165.51 805.78,-150.38 835.07,-139.71"/>
<polygon fill="#63b8ff" stroke="#63b8ff" points="836.02,-143.08 844.22,-136.37 833.63,-136.51 836.02,-143.08"/>
</a>
</g>
</g>
<!-- Node21 -->
<g id="Node000021" class="node">
<title>Node21</title>
<g id="a_Node000021"><a xlink:title=" ">
<polygon fill="#e0e0e0" stroke="#999999" points="973.5,-135.38 923.75,-135.38 923.75,-116.12 973.5,-116.12 973.5,-135.38"/>
<text text-anchor="middle" x="948.62" y="-121.88" font-family="Helvetica,sans-Serif" font-size="10.00">unistd.h</text>
</a>
</g>
</g>
<!-- Node1&#45;&gt;Node21 -->
<g id="edge24_Node000001_Node000021" class="edge">
<title>Node1&#45;&gt;Node21</title>
<g id="a_edge24_Node000001_Node000021"><a xlink:title=" ">
<path fill="none" stroke="#63b8ff" d="M742.56,-182.65C787.78,-174.11 856.55,-159.62 914.62,-141 915.78,-140.63 916.96,-140.23 918.14,-139.82"/>
<polygon fill="#63b8ff" stroke="#63b8ff" points="919.2,-143.16 927.29,-136.32 916.7,-136.62 919.2,-143.16"/>
</a>
</g>
</g>
<!-- Node3 -->
<g id="Node000003" class="node">
<title>Node3</title>
<g id="a_Node000003"><a xlink:href="adapter_8h.html" target="_top" xlink:title=" ">
<polygon fill="white" stroke="#666666" points="241.12,-74.5 120.12,-74.5 120.12,-55.25 241.12,-55.25 241.12,-74.5"/>
<text text-anchor="middle" x="180.62" y="-61" font-family="Helvetica,sans-Serif" font-size="10.00">bcnp/transport/adapter.h</text>
</a>
</g>
</g>
<!-- Node2&#45;&gt;Node3 -->
<g id="edge2_Node000002_Node000003" class="edge">
<title>Node2&#45;&gt;Node3</title>
<g id="a_edge2_Node000002_Node000003"><a xlink:title=" ">
<path fill="none" stroke="#63b8ff" d="M231.82,-110.2C222.06,-101.75 209.74,-91.08 199.63,-82.33"/>
<polygon fill="#63b8ff" stroke="#63b8ff" points="202.1,-79.84 192.25,-75.94 197.52,-85.13 202.1,-79.84"/>
</a>
</g>
</g>
<!-- Node5 -->
<g id="Node000005" class="node">
<title>Node5</title>
<g id="a_Node000005"><a xlink:title=" ">
<polygon fill="#e0e0e0" stroke="#999999" points="114.25,-19.25 69,-19.25 69,0 114.25,0 114.25,-19.25"/>
<text text-anchor="middle" x="91.62" y="-5.75" font-family="Helvetica,sans-Serif" font-size="10.00">cstdint</text>
</a>
</g>
</g>
<!-- Node2&#45;&gt;Node5 -->
<g id="edge16_Node000002_Node000005" class="edge">
<title>Node2&#45;&gt;Node5</title>
<g id="a_edge16_Node000002_Node000005"><a xlink:title=" ">
<path fill="none" stroke="#63b8ff" d="M199.77,-118.19C170.21,-111.79 133.87,-99.19 110.62,-74.5 99.57,-62.76 94.92,-44.88 92.98,-31.02"/>
<polygon fill="#63b8ff" stroke="#63b8ff" points="96.48,-30.82 92,-21.21 89.51,-31.51 96.48,-30.82"/>
</a>
</g>
</g>
<!-- Node6 -->
<g id="Node000006" class="node">
<title>Node6</title>
<g id="a_Node000006"><a xlink:href="message__types_8h.html" target="_top" xlink:title=" ">
<polygon fill="white" stroke="#666666" points="374.5,-74.5 258.75,-74.5 258.75,-55.25 374.5,-55.25 374.5,-74.5"/>
<text text-anchor="middle" x="316.62" y="-61" font-family="Helvetica,sans-Serif" font-size="10.00">bcnp/message_types.h</text>
</a>
</g>
</g>
<!-- Node2&#45;&gt;Node6 -->
<g id="edge5_Node000002_Node000006" class="edge">
<title>Node2&#45;&gt;Node6</title>
<g id="a_edge5_Node000002_Node000006"><a xlink:title=" ">
<path fill="none" stroke="#63b8ff" d="M265.43,-110.2C275.19,-101.75 287.51,-91.08 297.62,-82.33"/>
<polygon fill="#63b8ff" stroke="#63b8ff" points="299.73,-85.13 305,-75.94 295.15,-79.84 299.73,-85.13"/>
</a>
</g>
</g>
<!-- Node14 -->
<g id="Node000014" class="node">
<title>Node14</title>
<g id="a_Node000014"><a xlink:title=" ">
<polygon fill="#e0e0e0" stroke="#999999" points="438.25,-74.5 393,-74.5 393,-55.25 438.25,-55.25 438.25,-74.5"/>
<text text-anchor="middle" x="415.62" y="-61" font-family="Helvetica,sans-Serif" font-size="10.00">chrono</text>
</a>
</g>
</g>
<!-- Node2&#45;&gt;Node14 -->
<g id="edge15_Node000002_Node000014" class="edge">
<title>Node2&#45;&gt;Node14</title>
<g id="a_edge15_Node000002_Node000014"><a xlink:title=" ">
<path fill="none" stroke="#63b8ff" d="M290.34,-110.05C318.74,-100.03 355.83,-86.95 382.27,-77.63"/>
<polygon fill="#63b8ff" stroke="#63b8ff" points="383.2,-81.02 391.47,-74.39 380.87,-74.42 383.2,-81.02"/>
</a>
</g>
</g>
<!-- Node15 -->
<g id="Node000015" class="node">
<title>Node15</title>
<g id="a_Node000015"><a xlink:title=" ">
<polygon fill="#e0e0e0" stroke="#999999" points="63.25,-74.5 0,-74.5 0,-55.25 63.25,-55.25 63.25,-74.5"/>
<text text-anchor="middle" x="31.62" y="-61" font-family="Helvetica,sans-Serif" font-size="10.00">netinet/in.h</text>
</a>
</g>
</g>
<!-- Node2&#45;&gt;Node15 -->
<g id="edge17_Node000002_Node000015" class="edge">
<title>Node2&#45;&gt;Node15</title>
<g id="a_edge17_Node000002_Node000015"><a xlink:title=" ">
<path fill="none" stroke="#63b8ff" d="M199.66,-111.46C161.93,-101.23 110.3,-87.22 74.27,-77.44"/>
<polygon fill="#63b8ff" stroke="#63b8ff" points="75.64,-74.19 65.08,-74.95 73.81,-80.95 75.64,-74.19"/>
</a>
</g>
</g>
<!-- Node4 -->
<g id="Node000004" class="node">
<title>Node4</title>
<g id="a_Node000004"><a xlink:title=" ">
<polygon fill="#e0e0e0" stroke="#999999" points="180.75,-19.25 132.5,-19.25 132.5,0 180.75,0 180.75,-19.25"/>
<text text-anchor="middle" x="156.62" y="-5.75" font-family="Helvetica,sans-Serif" font-size="10.00">cstddef</text>
</a>
</g>
</g>
<!-- Node3&#45;&gt;Node4 -->
<g id="edge3_Node000003_Node000004" class="edge">
<title>Node3&#45;&gt;Node4</title>
<g id="a_edge3_Node000003_Node000004"><a xlink:title=" ">
<path fill="none" stroke="#63b8ff" d="M176.66,-55.08C173.59,-48.26 169.21,-38.56 165.34,-29.95"/>
<polygon fill="#63b8ff" stroke="#63b8ff" points="168.6,-28.67 161.3,-20.99 162.21,-31.54 168.6,-28.67"/>
</a>
</g>
</g>
<!-- Node3&#45;&gt;Node5 -->
<g id="edge4_Node000003_Node000005" class="edge">
<title>Node3&#45;&gt;Node5</title>
<g id="a_edge4_Node000003_Node000005"><a xlink:title=" ">
<path fill="none" stroke="#63b8ff" d="M165.53,-54.84C152.1,-46.81 132.21,-34.91 116.45,-25.48"/>
<polygon fill="#63b8ff" stroke="#63b8ff" points="118.47,-22.61 108.1,-20.48 114.88,-28.62 118.47,-22.61"/>
</a>
</g>
</g>
<!-- Node6&#45;&gt;Node4 -->
<g id="edge7_Node000006_Node000004" class="edge">
<title>Node6&#45;&gt;Node4</title>
<g id="a_edge7_Node000006_Node000004"><a xlink:title=" ">
<path fill="none" stroke="#63b8ff" d="M289.48,-54.84C262.52,-45.87 221.07,-32.07 191.64,-22.28"/>
<polygon fill="#63b8ff" stroke="#63b8ff" points="193.04,-19.06 182.45,-19.22 190.83,-25.7 193.04,-19.06"/>
</a>
</g>
</g>
<!-- Node6&#45;&gt;Node5 -->
<g id="edge8_Node000006_Node000005" class="edge">
<title>Node6&#45;&gt;Node5</title>
<g id="a_edge8_Node000006_Node000005"><a xlink:title=" ">
<path fill="none" stroke="#63b8ff" d="M275.48,-54.81C238.71,-46.61 183.08,-33.97 125.77,-19.72"/>
<polygon fill="#63b8ff" stroke="#63b8ff" points="126.69,-16.34 116.14,-17.31 124.99,-23.13 126.69,-16.34"/>
</a>
</g>
</g>
<!-- Node7 -->
<g id="Node000007" class="node">
<title>Node7</title>
<g id="a_Node000007"><a xlink:title=" ">
<polygon fill="#e0e0e0" stroke="#999999" points="236.12,-19.25 199.12,-19.25 199.12,0 236.12,0 236.12,-19.25"/>
<text text-anchor="middle" x="217.62" y="-5.75" font-family="Helvetica,sans-Serif" font-size="10.00">array</text>
</a>
</g>
</g>
<!-- Node6&#45;&gt;Node7 -->
<g id="edge6_Node000006_Node000007" class="edge">
<title>Node6&#45;&gt;Node7</title>
<g id="a_edge6_Node000006_Node000007"><a xlink:title=" ">
<path fill="none" stroke="#63b8ff" d="M299.83,-54.84C284.61,-46.66 261.93,-34.46 244.24,-24.94"/>
<polygon fill="#63b8ff" stroke="#63b8ff" points="246.3,-22.07 235.83,-20.42 242.98,-28.24 246.3,-22.07"/>
</a>
</g>
</g>
<!-- Node8 -->
<g id="Node000008" class="node">
<title>Node8</title>
<g id="a_Node000008"><a xlink:title=" ">
<polygon fill="#e0e0e0" stroke="#999999" points="297.12,-19.25 254.12,-19.25 254.12,0 297.12,0 297.12,-19.25"/>
<text text-anchor="middle" x="275.62" y="-5.75" font-family="Helvetica,sans-Serif" font-size="10.00">cmath</text>
</a>
</g>
</g>
<!-- Node6&#45;&gt;Node8 -->
<g id="edge9_Node000006_Node000008" class="edge">
<title>Node6&#45;&gt;Node8</title>
<g id="a_edge9_Node000006_Node000008"><a xlink:title=" ">
<path fill="none" stroke="#63b8ff" d="M309.85,-55.08C304.31,-47.88 296.28,-37.46 289.4,-28.51"/>
<polygon fill="#63b8ff" stroke="#63b8ff" points="292.34,-26.6 283.47,-20.81 286.79,-30.87 292.34,-26.6"/>
</a>
</g>
</g>
<!-- Node6&#45;&gt;Node9 -->
<g id="edge10_Node000006_Node000009" class="edge">
<title>Node6&#45;&gt;Node9</title>
<g id="a_edge10_Node000006_Node000009"><a xlink:title=" ">
<path fill="none" stroke="#63b8ff" d="M374.9,-55.4C424.46,-47.81 497.71,-35.7 569.61,-19.77"/>
<polygon fill="#63b8ff" stroke="#63b8ff" points="570.2,-23.22 579.19,-17.62 568.67,-16.39 570.2,-23.22"/>
</a>
</g>
</g>
<!-- Node10 -->
<g id="Node000010" class="node">
<title>Node10</title>
<g id="a_Node000010"><a xlink:title=" ">
<polygon fill="#e0e0e0" stroke="#999999" points="373.62,-19.25 315.62,-19.25 315.62,0 373.62,0 373.62,-19.25"/>
<text text-anchor="middle" x="344.62" y="-5.75" font-family="Helvetica,sans-Serif" font-size="10.00">functional</text>
</a>
</g>
</g>
<!-- Node6&#45;&gt;Node10 -->
<g id="edge11_Node000006_Node000010" class="edge">
<title>Node6&#45;&gt;Node10</title>
<g id="a_edge11_Node000006_Node000010"><a xlink:title=" ">
<path fill="none" stroke="#63b8ff" d="M321.25,-55.08C324.87,-48.19 330.05,-38.34 334.62,-29.66"/>
<polygon fill="#63b8ff" stroke="#63b8ff" points="337.64,-31.43 339.2,-20.95 331.44,-28.17 337.64,-31.43"/>
</a>
</g>
</g>
<!-- Node11 -->
<g id="Node000011" class="node">
<title>Node11</title>
<g id="a_Node000011"><a xlink:title=" ">
<polygon fill="#e0e0e0" stroke="#999999" points="431.25,-19.25 392,-19.25 392,0 431.25,0 431.25,-19.25"/>
<text text-anchor="middle" x="411.62" y="-5.75" font-family="Helvetica,sans-Serif" font-size="10.00">limits</text>
</a>
</g>
</g>
<!-- Node6&#45;&gt;Node11 -->
<g id="edge12_Node000006_Node000011" class="edge">
<title>Node6&#45;&gt;Node11</title>
<g id="a_edge12_Node000006_Node000011"><a xlink:title=" ">
<path fill="none" stroke="#63b8ff" d="M332.74,-54.84C347.21,-46.73 368.7,-34.68 385.61,-25.21"/>
<polygon fill="#63b8ff" stroke="#63b8ff" points="387.1,-28.39 394.11,-20.44 383.68,-22.28 387.1,-28.39"/>
</a>
</g>
</g>
<!-- Node12 -->
<g id="Node000012" class="node">
<title>Node12</title>
<g id="a_Node000012"><a xlink:title=" ">
<polygon fill="#e0e0e0" stroke="#999999" points="499.5,-19.25 449.75,-19.25 449.75,0 499.5,0 499.5,-19.25"/>
<text text-anchor="middle" x="474.62" y="-5.75" font-family="Helvetica,sans-Serif" font-size="10.00">optional</text>
</a>
</g>
</g>
<!-- Node6&#45;&gt;Node12 -->
<g id="edge13_Node000006_Node000012" class="edge">
<title>Node6&#45;&gt;Node12</title>
<g id="a_edge13_Node000006_Node000012"><a xlink:title=" ">
<path fill="none" stroke="#63b8ff" d="M343.43,-54.84C369.54,-46.04 409.43,-32.6 438.37,-22.84"/>
<polygon fill="#63b8ff" stroke="#63b8ff" points="439.47,-26.17 447.83,-19.66 437.23,-19.53 439.47,-26.17"/>
</a>
</g>
</g>
<!-- Node13 -->
<g id="Node000013" class="node">
<title>Node13</title>
<g id="a_Node000013"><a xlink:title=" ">
<polygon fill="#e0e0e0" stroke="#999999" points="563.25,-19.25 518,-19.25 518,0 563.25,0 563.25,-19.25"/>
<text text-anchor="middle" x="540.62" y="-5.75" font-family="Helvetica,sans-Serif" font-size="10.00">variant</text>
</a>
</g>
</g>
<!-- Node6&#45;&gt;Node13 -->
<g id="edge14_Node000006_Node000013" class="edge">
<title>Node6&#45;&gt;Node13</title>
<g id="a_edge14_Node000006_Node000013"><a xlink:title=" ">
<path fill="none" stroke="#63b8ff" d="M357.55,-54.8C394.13,-46.59 449.47,-33.93 506.53,-19.71"/>
<polygon fill="#63b8ff" stroke="#63b8ff" points="507.26,-23.13 516.11,-17.31 505.56,-16.34 507.26,-23.13"/>
</a>
</g>
</g>
</g>
</svg>
